<?xml version="1.0" encoding="UTF-8" standalone="no"?><!DOCTYPE svg PUBLIC "-//W3C//DTD SVG 1.1//EN" "http://www.w3.org/Graphics/SVG/1.1/DTD/svg11.dtd"><svg width="100%" height="100%" viewBox="0 0 205 146" version="1.1" xmlns="http://www.w3.org/2000/svg" xmlns:xlink="http://www.w3.org/1999/xlink" xml:space="preserve" xmlns:serif="http://www.serif.com/" style="fill-rule:evenodd;clip-rule:evenodd;stroke-linejoin:round;stroke-miterlimit:1.41421;"><g><g><path d="M103.773,6.473l-28.929,123.308l93.703,14.046l34.743,-122.781l-99.517,-14.573Z" style="fill:#fff;"/><path d="M103.861,5.869l1.798,0.259l46.279,6.684l51.468,7.438l0.133,0.031l0.126,0.053l0.116,0.073l0.101,0.093l0.084,0.108l0.065,0.12l0.044,0.13l0.021,0.136l-0.003,0.137l-0.025,0.135l-15.993,56.517l0.106,0.03l-17.619,62.68l-1.018,3.616l-0.057,0.156l-0.082,0.145l-0.104,0.13l-0.123,0.111l-0.14,0.091l0,0l-0.152,0.067l-0.161,0.042l-0.166,0.016l-0.166,-0.011l-56.365,-8.359l-37.358,-5.551l-0.19,-0.044l-0.179,-0.075l-0.165,-0.104l-0.146,-0.129l-0.122,-0.151l0,0l-0.096,-0.17l-0.067,-0.183l-0.036,-0.191l-0.004,-0.195l0.029,-0.193l3.012,-12.916l4.843,-20.729l3.815,-16.293l1.611,-6.836l1.595,-6.721l3.102,-12.939l5.541,-22.746l4.07,-16.434l1.805,-7.204l0.09,-0.359l0.031,-0.096l0.047,-0.09l0.06,-0.08l0.073,-0.07l0.083,-0.056l0.091,-0.043l0.098,-0.026l0.1,-0.011l0.1,0.007Zm-1.13,8.235l-3.59,16.214l-5.036,22.34l-2.908,12.676l-1.525,6.581l-1.564,6.693l-3.75,15.956l-4.785,20.31l-0.023,0.013l-3.265,13.917l-0.002,0.001l36.773,5.562l-0.039,0.085l54.779,8.212l0.002,0.002l1.303,-4.583l17.55,-61.608l15.61,-54.768l-50.528,-7.496l-46.252,-6.867l-1.233,-0.183l-1.517,6.943Z"/><path d="M115.486,20.871l0.741,0.012l1.681,0.072l2.311,0.189l1.305,0.155l0.675,0.096l0.684,0.109l1.626,0.282l2.067,0.369l5.157,0.943l6.016,1.117l6.273,1.175l10.909,2.058l4.531,0.86l0.176,0.034l0.504,0.704l-0.708,0.5l-0.177,-0.026l-4.562,-0.678l-10.979,-1.642l-6.311,-0.952l-6.049,-0.923l-5.179,-0.805l-2.074,-0.331l-1.629,-0.268l-0.682,-0.122l-0.669,-0.131l-1.283,-0.283l-2.244,-0.581l-1.612,-0.485l-0.704,-0.232l-0.035,-0.012l-0.5,-0.704l0.704,-0.5l0.037,0Z"/><path d="M110.889,31.735l1.131,0.07l2.572,0.206l3.543,0.374l2.006,0.26l1.038,0.151l1.054,0.165l2.509,0.414l3.189,0.538l7.956,1.363l9.285,1.607l9.683,1.687l16.839,2.95l6.995,1.229l0.271,0.048l0.509,0.701l-0.704,0.505l-0.273,-0.041l-7.025,-1.047l-16.906,-2.532l-9.719,-1.464l-9.317,-1.414l-7.978,-1.225l-3.196,-0.499l-2.51,-0.401l-1.053,-0.178l-1.033,-0.186l-1.985,-0.387l-3.478,-0.767l-2.506,-0.619l-1.095,-0.291l-0.055,-0.015l-0.505,-0.701l0.701,-0.505l0.057,0.004Z"/><path d="M109.333,42.612l0.877,0.029l1.992,0.111l2.74,0.24l1.55,0.186l0.802,0.111l0.814,0.125l1.935,0.32l2.46,0.417l6.137,1.062l7.16,1.257l7.467,1.322l12.984,2.312l5.394,0.966l0.21,0.037l0.509,0.701l-0.704,0.505l-0.211,-0.03l-5.423,-0.783l-13.052,-1.896l-7.503,-1.098l-7.192,-1.063l-6.158,-0.924l-2.467,-0.379l-1.937,-0.306l-0.812,-0.138l-0.796,-0.147l-1.529,-0.312l-2.677,-0.635l-1.926,-0.523l-0.841,-0.249l-0.042,-0.013l-0.505,-0.7l0.7,-0.506l0.044,0.001Z"/><path d="M109.407,53.404l2.17,0.105l1.227,0.107l0.634,0.071l0.644,0.084l1.53,0.223l1.946,0.293l4.853,0.754l5.662,0.896l5.905,0.945l10.267,1.658l4.266,0.694l0.165,0.027l0.524,0.69l-0.694,0.519l-0.167,-0.019l-4.291,-0.511l-10.326,-1.24l-5.936,-0.721l-5.69,-0.702l-4.872,-0.615l-1.951,-0.255l-1.533,-0.209l-0.641,-0.096l-0.63,-0.107l-1.209,-0.235l-2.115,-0.499l-1.52,-0.425l-0.664,-0.207l-0.033,-0.01l-0.52,-0.69l0.69,-0.52l0.035,-0.001l0.695,-0.015l1.579,0.011Z"/><path d="M105.213,63.597l0.916,0.04l2.079,0.134l2.861,0.273l1.619,0.204l0.837,0.121l0.85,0.135l2.02,0.343l2.569,0.447l6.407,1.137l7.477,1.343l7.797,1.411l13.558,2.47l5.632,1.03l0.219,0.04l0.506,0.704l-0.706,0.501l-0.22,-0.033l-5.663,-0.848l-13.628,-2.052l-7.834,-1.189l-7.509,-1.149l-6.43,-0.999l-2.575,-0.409l-2.023,-0.329l-0.847,-0.148l-0.832,-0.156l-1.597,-0.331l-2.795,-0.667l-2.011,-0.547l-0.879,-0.259l-0.044,-0.013l-0.502,-0.703l0.703,-0.502l0.045,0.001Z"/><path d="M106.281,74.651l0.319,0.035l0.323,0.047l0.766,0.136l0.973,0.182l2.424,0.476l2.828,0.573l2.947,0.607l5.123,1.071l2.128,0.45l0.083,0.017l0.505,0.704l-0.707,0.501l-0.083,-0.01l-2.159,-0.268l-5.193,-0.654l-2.984,-0.385l-2.86,-0.378l-2.448,-0.339l-0.979,-0.144l-0.768,-0.121l-0.321,-0.06l-0.314,-0.071l-0.599,-0.166l-1.04,-0.376l-0.742,-0.336l-0.322,-0.167l-0.016,-0.009l-0.502,-0.703l0.703,-0.501l0.018,-0.003l0.359,-0.053l0.811,-0.077l1.106,-0.017l0.621,0.039Z"/><path d="M101.368,97.488l1.167,0.091l0.603,0.063l0.612,0.076l1.456,0.203l1.85,0.269l4.614,0.691l5.384,0.824l5.614,0.869l9.763,1.528l4.056,0.639l0.157,0.024l0.528,0.688l-0.691,0.523l-0.158,-0.018l-4.08,-0.456l-9.82,-1.108l-5.644,-0.646l-5.41,-0.628l-4.633,-0.553l-1.855,-0.23l-1.458,-0.19l-0.61,-0.088l-0.599,-0.099l-1.149,-0.22l-2.01,-0.471l-1.446,-0.406l-0.631,-0.197l-0.032,-0.011l-0.523,-0.686l0.686,-0.524l0.033,-0.002l0.661,-0.023l1.502,-0.009l2.063,0.077Z"/><path d="M94.988,106.755l0.844,0.022l1.915,0.096l2.633,0.221l1.49,0.174l0.77,0.105l0.782,0.119l1.859,0.306l2.363,0.399l5.895,1.017l6.878,1.205l7.173,1.266l12.473,2.217l5.181,0.926l0.201,0.036l0.51,0.7l-0.703,0.506l-0.203,-0.029l-5.211,-0.743l-12.539,-1.8l-7.209,-1.043l-6.909,-1.01l-5.917,-0.88l-2.37,-0.361l-1.861,-0.292l-0.779,-0.131l-0.765,-0.141l-1.469,-0.302l-2.571,-0.614l-1.848,-0.509l-0.808,-0.243l-0.04,-0.012l-0.507,-0.7l0.7,-0.506l0.042,0.001Z"/><path d="M94.303,116.346l0.793,0.072l0.41,0.052l0.414,0.066l0.984,0.177l1.249,0.235l3.114,0.609l3.632,0.728l3.787,0.769l6.583,1.353l2.735,0.566l0.106,0.022l0.501,0.707l-0.709,0.497l-0.108,-0.015l-2.766,-0.384l-6.655,-0.936l-3.825,-0.547l-3.666,-0.534l-3.138,-0.472l-1.256,-0.197l-0.985,-0.163l-0.412,-0.078l-0.404,-0.088l-0.772,-0.199l-1.343,-0.435l-0.96,-0.378l-0.418,-0.185l-0.021,-0.01l-0.498,-0.706l0.706,-0.497l0.023,-0.002l0.456,-0.035l1.031,-0.034l1.412,0.042Z"/></g><g><ellipse cx="29.815" cy="134.328" rx="10.149" ry="6.964" style="fill:#b8b8b8;"/><path d="M29.692,128.302l-0.08,0.003l-0.043,0.002l-0.122,0.006l-0.121,0.007l-0.121,0.008l-0.121,0.009l-0.12,0.01l-0.119,0.011l-0.12,0.012l-0.118,0.013l-0.118,0.015l-0.117,0.015l-0.117,0.016l-0.117,0.017l-0.115,0.017l-0.115,0.019l-0.115,0.02l-0.114,0.021l-0.113,0.021l-0.113,0.023l-0.112,0.024l-0.111,0.024l-0.111,0.025l-0.11,0.026l-0.109,0.027l-0.109,0.028l-0.108,0.029l-0.107,0.03l-0.106,0.03l-0.106,0.031l-0.105,0.032l-0.104,0.033l-0.104,0.034l-0.103,0.034l-0.102,0.036l-0.101,0.036l-0.1,0.037l-0.1,0.037l-0.098,0.038l-0.098,0.04l-0.097,0.039l-0.096,0.041l-0.096,0.041l-0.094,0.042l-0.094,0.043l-0.092,0.043l-0.092,0.044l-0.055,0.027l-0.036,0.018l-0.09,0.045l-0.089,0.046l-0.088,0.046l-0.087,0.048l-0.086,0.047l-0.085,0.049l-0.085,0.049l-0.083,0.049l-0.082,0.05l-0.081,0.051l-0.08,0.051l-0.08,0.052l-0.078,0.052l-0.077,0.053l-0.076,0.053l-0.075,0.054l-0.073,0.055l-0.073,0.054l-0.072,0.056l-0.071,0.055l-0.069,0.057l-0.068,0.056l-0.068,0.057l-0.066,0.058l-0.065,0.058l-0.063,0.058l-0.063,0.058l-0.062,0.059l-0.06,0.06l-0.059,0.059l-0.058,0.06l-0.057,0.06l-0.055,0.061l-0.055,0.061l-0.053,0.061l-0.052,0.061l-0.051,0.062l-0.049,0.062l-0.049,0.062l-0.047,0.062l-0.046,0.062l-0.045,0.063l-0.043,0.063l-0.042,0.063l-0.041,0.063l-0.04,0.064l-0.039,0.063l-0.037,0.064l-0.036,0.064l-0.035,0.063l-0.033,0.064l-0.033,0.064l-0.031,0.065l-0.03,0.064l-0.029,0.064l-0.027,0.065l-0.026,0.064l-0.025,0.065l-0.024,0.064l-0.023,0.065l-0.021,0.064l-0.02,0.065l-0.019,0.065l-0.018,0.065l-0.016,0.065l-0.016,0.065l-0.014,0.065l-0.013,0.065l-0.012,0.065l-0.01,0.066l-0.01,0.065l-0.008,0.065l-0.007,0.066l-0.005,0.066l-0.005,0.066l-0.003,0.065l-0.002,0.067l-0.001,0.066l0,0.066l0.002,0.067l0.002,0.066l0.004,0.066l0.006,0.066l0.006,0.066l0.007,0.065l0.009,0.065l0.01,0.064l0.011,0.065l0.013,0.064l0.013,0.064l0.015,0.064l0.015,0.063l0.017,0.063l0.018,0.063l0.019,0.063l0.021,0.063l0.021,0.062l0.023,0.062l0.024,0.063l0.024,0.061l0.027,0.062l0.027,0.062l0.028,0.061l0.03,0.061l0.03,0.061l0.032,0.061l0.033,0.061l0.034,0.06l0.036,0.061l0.036,0.06l0.038,0.06l0.038,0.059l0.04,0.06l0.041,0.059l0.043,0.059l0.043,0.059l0.045,0.058l0.045,0.059l0.047,0.058l0.048,0.058l0.049,0.057l0.051,0.057l0.051,0.057l0.053,0.057l0.053,0.056l0.055,0.056l0.056,0.056l0.057,0.055l0.058,0.055l0.06,0.055l0.06,0.054l0.062,0.054l0.062,0.053l0.064,0.053l0.065,0.053l0.065,0.052l0.067,0.052l0.068,0.051l0.069,0.051l0.07,0.051l0.066,0.046l0.005,0.004l0.072,0.049l0.073,0.049l0.074,0.049l0.075,0.048l0.076,0.047l0.077,0.047l0.078,0.047l0.079,0.045l0.08,0.046l0.081,0.044l0.081,0.044l0.083,0.044l0.084,0.043l0.084,0.042l0.086,0.042l0.086,0.041l0.087,0.04l0.088,0.04l0.089,0.039l0.09,0.038l0.09,0.038l0.092,0.037l0.092,0.036l0.093,0.035l0.094,0.035l0.094,0.034l0.095,0.033l0.097,0.033l0.096,0.032l0.098,0.031l0.098,0.03l0.099,0.03l0.1,0.028l0.101,0.028l0.101,0.027l0.102,0.027l0.102,0.025l0.103,0.025l0.104,0.024l0.104,0.023l0.105,0.022l0.106,0.021l0.106,0.02l0.107,0.02l0.107,0.019l0.108,0.017l0.109,0.017l0.109,0.016l0.109,0.015l0.11,0.014l0.111,0.014l0.111,0.012l0.112,0.011l0.112,0.011l0.112,0.009l0.113,0.009l0.114,0.007l0.114,0.007l0.114,0.005l0.115,0.005l0.115,0.004l0.115,0.002l0.116,0.002l0.117,0.001l0.116,-0.001l0.086,-0.001l0.031,0l0.118,-0.002l0.117,-0.003l0.117,-0.005l0.116,-0.005l0.116,-0.006l0.116,-0.007l0.115,-0.008l0.114,-0.009l0.114,-0.01l0.114,-0.012l0.113,-0.011l0.112,-0.013l0.112,-0.014l0.112,-0.015l0.11,-0.016l0.111,-0.016l0.109,-0.018l0.109,-0.018l0.109,-0.019l0.108,-0.021l0.107,-0.021l0.106,-0.021l0.106,-0.023l0.106,-0.024l0.104,-0.024l0.104,-0.025l0.104,-0.026l0.102,-0.027l0.102,-0.028l0.101,-0.028l0.101,-0.03l0.099,-0.03l0.099,-0.03l0.098,-0.032l0.098,-0.032l0.096,-0.033l0.096,-0.034l0.095,-0.034l0.094,-0.035l0.094,-0.036l0.092,-0.037l0.092,-0.037l0.091,-0.038l0.09,-0.038l0.089,-0.039l0.088,-0.04l0.088,-0.041l0.086,-0.041l0.086,-0.041l0.084,-0.043l0.084,-0.042l0.083,-0.044l0.081,-0.044l0.081,-0.044l0.08,-0.045l0.079,-0.046l0.078,-0.046l0.077,-0.047l0.075,-0.047l0.075,-0.047l0.074,-0.048l0.061,-0.041l0.012,-0.008l0.072,-0.048l0.07,-0.049l0.07,-0.05l0.069,-0.049l0.068,-0.051l0.066,-0.05l0.066,-0.051l0.064,-0.052l0.063,-0.051l0.062,-0.052l0.061,-0.053l0.06,-0.052l0.059,-0.053l0.058,-0.053l0.056,-0.054l0.055,-0.053l0.054,-0.054l0.053,-0.054l0.052,-0.055l0.051,-0.054l0.05,-0.055l0.048,-0.054l0.047,-0.055l0.046,-0.055l0.045,-0.056l0.044,-0.055l0.042,-0.055l0.041,-0.056l0.041,-0.055l0.039,-0.056l0.037,-0.056l0.037,-0.055l0.035,-0.056l0.035,-0.056l0.033,-0.056l0.032,-0.055l0.031,-0.056l0.029,-0.056l0.029,-0.055l0.027,-0.056l0.027,-0.055l0.025,-0.056l0.024,-0.055l0.023,-0.056l0.022,-0.055l0.02,-0.056l0.02,-0.055l0.019,-0.055l0.017,-0.055l0.017,-0.055l0.015,-0.056l0.014,-0.055l0.014,-0.055l0.012,-0.055l0.011,-0.055l0.011,-0.055l0.009,-0.055l0.008,-0.055l0.007,-0.055l0.006,-0.055l0.005,-0.055l0.005,-0.056l0.003,-0.055l0.002,-0.056l0.001,-0.055l0,-0.056l-0.001,-0.056l-0.001,-0.014l-0.001,-0.042l-0.002,-0.056l-0.004,-0.056l-0.005,-0.055l-0.005,-0.055l-0.007,-0.055l-0.008,-0.054l-0.008,-0.055l-0.01,-0.054l-0.01,-0.054l-0.012,-0.054l-0.013,-0.054l-0.013,-0.054l-0.015,-0.054l-0.015,-0.054l-0.017,-0.054l-0.018,-0.053l-0.018,-0.054l-0.02,-0.053l-0.021,-0.054l-0.021,-0.053l-0.023,-0.054l-0.024,-0.053l-0.025,-0.054l-0.026,-0.053l-0.027,-0.054l-0.028,-0.053l-0.029,-0.054l-0.022,-0.039l-0.008,-0.014l-0.031,-0.054l-0.032,-0.054l-0.033,-0.053l-0.034,-0.054l-0.036,-0.053l-0.036,-0.054l-0.038,-0.053l-0.038,-0.054l-0.04,-0.053l-0.041,-0.053l-0.042,-0.053l-0.044,-0.053l-0.044,-0.053l-0.046,-0.053l-0.046,-0.053l-0.048,-0.052l-0.049,-0.053l-0.05,-0.052l-0.051,-0.052l-0.053,-0.051l-0.049,-0.047l-0.004,-0.005l-0.054,-0.053l-0.054,-0.052l-0.056,-0.052l-0.057,-0.052l-0.058,-0.051l-0.059,-0.051l-0.06,-0.051l-0.061,-0.051l-0.018,-0.015l-0.044,-0.037l-0.062,-0.052l-0.063,-0.051l-0.065,-0.051l-0.065,-0.051l-0.067,-0.051l-0.068,-0.05l-0.069,-0.05l-0.017,-0.012l-0.052,-0.039l-0.069,-0.052l-0.07,-0.051l-0.072,-0.051l-0.073,-0.05l-0.074,-0.05l-0.075,-0.05l-0.076,-0.049l-0.077,-0.049l-0.078,-0.048l-0.079,-0.048l-0.08,-0.047l-0.081,-0.047l-0.082,-0.046l-0.071,-0.039l-0.012,-0.008l-0.082,-0.05l-0.083,-0.049l-0.085,-0.049l-0.085,-0.049l-0.086,-0.048l-0.087,-0.047l-0.089,-0.047l-0.089,-0.046l-0.091,-0.046l-0.091,-0.045l-0.092,-0.044l-0.093,-0.044l-0.095,-0.043l-0.095,-0.043l-0.096,-0.042l-0.097,-0.041l-0.098,-0.04l-0.099,-0.04l-0.1,-0.039l-0.101,-0.039l-0.101,-0.037l-0.103,-0.037l-0.103,-0.036l-0.074,-0.025l-0.03,-0.012l-0.104,-0.041l-0.105,-0.04l-0.105,-0.039l-0.107,-0.038l-0.108,-0.037l-0.108,-0.037l-0.11,-0.036l-0.11,-0.035l-0.111,-0.034l-0.112,-0.033l-0.113,-0.033l-0.114,-0.031l-0.114,-0.031l-0.116,-0.03l-0.116,-0.029l-0.098,-0.023l-0.019,-0.005l-0.118,-0.032l-0.118,-0.03l-0.119,-0.03l-0.121,-0.029l-0.121,-0.028l-0.122,-0.026l-0.084,-0.017l-0.041,-0.01l-0.12,0.004Zm0.262,-1.898l0.14,-0.023l0.139,-0.022l0.14,-0.021l0.139,-0.02l0.14,-0.018l0.139,-0.017l0.023,-0.002l0.117,-0.01l0.139,-0.01l0.139,-0.008l0.138,-0.008l0.139,-0.006l0.139,-0.005l0.138,-0.004l0.138,-0.002l0.138,-0.001l0.138,0l0.137,0.001l0.137,0.002l0.137,0.004l0.137,0.005l0.137,0.006l0.136,0.008l0.039,0.002l0.096,0.011l0.134,0.015l0.134,0.017l0.134,0.018l0.133,0.02l0.132,0.02l0.133,0.022l0.131,0.022l0.132,0.024l0.13,0.026l0.131,0.026l0.129,0.027l0.13,0.029l0.129,0.03l0.128,0.031l0.127,0.032l0.128,0.033l0.126,0.035l0.126,0.036l0.126,0.036l0.124,0.038l0.125,0.039l0.123,0.041l0.123,0.041l0.018,0.006l0.103,0.041l0.119,0.048l0.119,0.05l0.118,0.05l0.117,0.052l0.116,0.053l0.116,0.054l0.115,0.055l0.114,0.056l0.113,0.057l0.113,0.058l0.111,0.06l0.111,0.06l0.11,0.062l0.082,0.047l0.026,0.016l0.107,0.066l0.105,0.068l0.105,0.068l0.103,0.069l0.103,0.071l0.102,0.071l0.1,0.073l0.071,0.052l0.028,0.022l0.097,0.076l0.096,0.078l0.095,0.078l0.094,0.079l0.093,0.081l0.092,0.081l0.09,0.083l0.089,0.083l0.008,0.007l0.079,0.079l0.086,0.086l0.084,0.088l0.084,0.088l0.082,0.09l0.08,0.09l0.079,0.092l0.078,0.092l0.077,0.094l0.075,0.094l0.074,0.096l0.073,0.096l0.071,0.097l0.069,0.099l0.068,0.099l0.067,0.1l0.065,0.101l0.063,0.102l0.062,0.103l0.06,0.104l0.059,0.105l0.016,0.029l0.041,0.077l0.055,0.107l0.053,0.108l0.051,0.109l0.05,0.11l0.048,0.11l0.046,0.111l0.044,0.112l0.042,0.113l0.041,0.114l0.038,0.114l0.037,0.115l0.035,0.116l0.032,0.117l0.031,0.117l0.028,0.118l0.027,0.119l0.024,0.119l0.022,0.12l0.021,0.12l0.018,0.121l0.015,0.121l0.014,0.122l0.011,0.122l0.01,0.123l0.006,0.123l0.005,0.123l0.002,0.124l0.001,0.094l-0.001,0.03l-0.002,0.123l-0.005,0.124l-0.007,0.123l-0.01,0.123l-0.011,0.122l-0.014,0.122l-0.016,0.121l-0.019,0.12l-0.02,0.12l-0.023,0.12l-0.024,0.119l-0.027,0.118l-0.029,0.117l-0.031,0.117l-0.033,0.116l-0.034,0.115l-0.037,0.115l-0.039,0.113l-0.041,0.113l-0.042,0.112l-0.045,0.111l-0.046,0.111l-0.048,0.109l-0.05,0.109l-0.051,0.107l-0.054,0.107l-0.054,0.106l-0.057,0.104l-0.058,0.104l-0.06,0.103l-0.062,0.102l-0.063,0.101l-0.064,0.1l-0.066,0.099l-0.068,0.098l-0.069,0.097l-0.07,0.096l-0.072,0.095l-0.074,0.094l-0.074,0.093l-0.076,0.092l-0.078,0.091l-0.078,0.09l-0.08,0.089l-0.081,0.089l-0.083,0.087l-0.084,0.086l-0.085,0.085l-0.086,0.084l-0.087,0.083l-0.089,0.082l-0.09,0.081l-0.09,0.08l-0.092,0.079l-0.093,0.078l-0.095,0.077l-0.095,0.076l-0.096,0.075l-0.098,0.074l-0.098,0.073l-0.1,0.072l-0.1,0.071l-0.102,0.07l-0.102,0.069l-0.104,0.068l-0.104,0.067l-0.105,0.066l-0.018,0.011l-0.089,0.054l-0.107,0.064l-0.109,0.063l-0.109,0.061l-0.11,0.061l-0.112,0.06l-0.112,0.058l-0.112,0.058l-0.114,0.056l-0.115,0.056l-0.115,0.054l-0.116,0.054l-0.117,0.052l-0.118,0.052l-0.119,0.05l-0.119,0.05l-0.12,0.048l-0.121,0.047l-0.122,0.046l-0.122,0.046l-0.124,0.044l-0.124,0.043l-0.124,0.042l-0.126,0.041l-0.126,0.039l-0.126,0.039l-0.128,0.038l-0.128,0.037l-0.129,0.035l-0.129,0.035l-0.13,0.033l-0.131,0.032l-0.131,0.031l-0.132,0.03l-0.133,0.029l-0.133,0.028l-0.133,0.027l-0.135,0.025l-0.135,0.024l-0.135,0.024l-0.136,0.022l-0.136,0.021l-0.137,0.02l-0.138,0.018l-0.138,0.018l-0.139,0.016l-0.139,0.015l-0.139,0.014l-0.14,0.013l-0.141,0.011l-0.141,0.011l-0.141,0.009l-0.142,0.008l-0.142,0.006l-0.142,0.006l-0.144,0.004l-0.143,0.003l-0.144,0.002l-0.144,0l-0.144,-0.001l-0.145,-0.002l-0.145,-0.003l-0.039,-0.001l-0.105,-0.004l-0.144,-0.006l-0.144,-0.007l-0.143,-0.009l-0.142,-0.009l-0.142,-0.011l-0.142,-0.012l-0.141,-0.014l-0.14,-0.014l-0.14,-0.016l-0.139,-0.017l-0.139,-0.018l-0.139,-0.019l-0.137,-0.02l-0.137,-0.022l-0.137,-0.022l-0.136,-0.024l-0.135,-0.025l-0.135,-0.026l-0.134,-0.027l-0.133,-0.028l-0.133,-0.03l-0.132,-0.03l-0.132,-0.032l-0.13,-0.032l-0.13,-0.034l-0.13,-0.034l-0.129,-0.036l-0.128,-0.037l-0.127,-0.038l-0.126,-0.039l-0.126,-0.04l-0.125,-0.041l-0.124,-0.041l-0.124,-0.043l-0.123,-0.044l-0.122,-0.045l-0.121,-0.046l-0.12,-0.047l-0.12,-0.048l-0.119,-0.049l-0.118,-0.05l-0.117,-0.051l-0.116,-0.052l-0.115,-0.053l-0.115,-0.054l-0.113,-0.055l-0.113,-0.055l-0.112,-0.057l-0.111,-0.058l-0.11,-0.058l-0.109,-0.06l-0.108,-0.06l-0.108,-0.061l-0.106,-0.063l-0.105,-0.063l-0.104,-0.064l-0.104,-0.065l-0.102,-0.066l-0.101,-0.066l-0.101,-0.068l-0.099,-0.069l-0.098,-0.069l-0.098,-0.07l-0.096,-0.072l-0.095,-0.072l-0.006,-0.005l-0.088,-0.068l-0.092,-0.074l-0.092,-0.075l-0.091,-0.075l-0.089,-0.077l-0.088,-0.077l-0.087,-0.079l-0.086,-0.079l-0.085,-0.08l-0.084,-0.081l-0.082,-0.081l-0.081,-0.083l-0.08,-0.083l-0.078,-0.084l-0.078,-0.085l-0.076,-0.086l-0.075,-0.087l-0.073,-0.087l-0.072,-0.089l-0.071,-0.089l-0.069,-0.09l-0.068,-0.09l-0.067,-0.092l-0.065,-0.092l-0.064,-0.093l-0.062,-0.094l-0.061,-0.095l-0.059,-0.096l-0.058,-0.096l-0.056,-0.097l-0.055,-0.098l-0.053,-0.098l-0.051,-0.099l-0.05,-0.1l-0.048,-0.101l-0.047,-0.101l-0.045,-0.102l-0.043,-0.103l-0.042,-0.103l-0.039,-0.104l-0.038,-0.105l-0.037,-0.105l-0.034,-0.106l-0.033,-0.107l-0.03,-0.107l-0.029,-0.108l-0.027,-0.108l-0.025,-0.109l-0.024,-0.109l-0.021,-0.11l-0.019,-0.11l-0.017,-0.11l-0.016,-0.111l-0.013,-0.112l-0.011,-0.111l-0.01,-0.113l-0.007,-0.112l-0.005,-0.113l-0.003,-0.113l-0.001,-0.113l0.001,-0.113l0.003,-0.114l0.006,-0.113l0.007,-0.112l0.009,-0.112l0.012,-0.112l0.013,-0.111l0.016,-0.111l0.017,-0.11l0.02,-0.11l0.021,-0.109l0.023,-0.109l0.026,-0.108l0.027,-0.107l0.029,-0.107l0.031,-0.106l0.032,-0.105l0.035,-0.105l0.036,-0.104l0.038,-0.103l0.04,-0.102l0.041,-0.102l0.043,-0.101l0.045,-0.1l0.047,-0.1l0.048,-0.099l0.05,-0.098l0.051,-0.097l0.053,-0.096l0.054,-0.095l0.056,-0.095l0.058,-0.094l0.059,-0.093l0.06,-0.092l0.062,-0.091l0.063,-0.09l0.065,-0.09l0.066,-0.088l0.067,-0.088l0.069,-0.087l0.07,-0.086l0.071,-0.085l0.073,-0.085l0.074,-0.083l0.075,-0.083l0.077,-0.081l0.077,-0.081l0.079,-0.08l0.08,-0.079l0.081,-0.078l0.083,-0.077l0.083,-0.076l0.085,-0.076l0.086,-0.074l0.087,-0.074l0.088,-0.073l0.089,-0.072l0.09,-0.07l0.091,-0.07l0.093,-0.07l0.093,-0.068l0.094,-0.067l0.096,-0.066l0.096,-0.066l0.097,-0.064l0.099,-0.064l0.099,-0.063l0.1,-0.061l0.101,-0.061l0.103,-0.06l0.103,-0.059l0.104,-0.058l0.104,-0.057l0.106,-0.057l0.107,-0.055l0.107,-0.054l0.109,-0.053l0.109,-0.053l0.11,-0.051l0.111,-0.051l0.111,-0.049l0.045,-0.02l0.068,-0.029l0.113,-0.047l0.114,-0.046l0.115,-0.046l0.116,-0.044l0.116,-0.044l0.117,-0.042l0.118,-0.042l0.119,-0.04l0.119,-0.04l0.12,-0.038l0.121,-0.038l0.122,-0.036l0.122,-0.036l0.122,-0.034l0.124,-0.033l0.124,-0.033l0.125,-0.031l0.125,-0.03l0.126,-0.029l0.126,-0.028l0.128,-0.027l0.127,-0.026l0.129,-0.025l0.129,-0.024l0.129,-0.023l0.13,-0.021l0.131,-0.021l0.131,-0.019l0.131,-0.018l0.132,-0.017l0.133,-0.016l0.133,-0.015l0.134,-0.014l0.134,-0.013l0.134,-0.011l0.135,-0.011l0.136,-0.009l0.136,-0.008l0.136,-0.007l0.136,-0.005l0.137,-0.005l0.138,-0.003l0.138,-0.002l0.138,-0.001l0.139,0l0.047,0.001l0.091,0.001l0.143,0.003l0.046,-0.01l0.09,-0.016Z"/><ellipse cx="53.876" cy="134.388" rx="10.149" ry="6.964" style="fill:#b8b8b8;"/><path d="M53.753,128.363l-0.08,0.003l-0.042,0.002l-0.122,0.006l-0.122,0.007l-0.121,0.008l-0.12,0.009l-0.12,0.01l-0.12,0.011l-0.119,0.012l-0.119,0.013l-0.117,0.014l-0.118,0.015l-0.117,0.016l-0.116,0.017l-0.116,0.018l-0.115,0.019l-0.114,0.02l-0.114,0.02l-0.114,0.022l-0.112,0.023l-0.112,0.023l-0.111,0.025l-0.111,0.025l-0.11,0.026l-0.11,0.027l-0.108,0.028l-0.108,0.029l-0.107,0.029l-0.107,0.031l-0.106,0.031l-0.105,0.032l-0.104,0.033l-0.103,0.033l-0.103,0.035l-0.102,0.035l-0.101,0.036l-0.101,0.037l-0.099,0.038l-0.099,0.038l-0.098,0.039l-0.097,0.04l-0.096,0.041l-0.095,0.041l-0.095,0.042l-0.093,0.042l-0.093,0.044l-0.092,0.044l-0.054,0.027l-0.036,0.017l-0.09,0.046l-0.089,0.046l-0.088,0.046l-0.088,0.047l-0.086,0.048l-0.085,0.048l-0.084,0.049l-0.083,0.05l-0.083,0.05l-0.081,0.051l-0.08,0.051l-0.079,0.052l-0.078,0.052l-0.077,0.053l-0.076,0.053l-0.075,0.054l-0.074,0.054l-0.073,0.055l-0.071,0.055l-0.071,0.056l-0.069,0.056l-0.069,0.057l-0.067,0.057l-0.066,0.057l-0.065,0.058l-0.064,0.058l-0.063,0.059l-0.061,0.059l-0.06,0.059l-0.06,0.06l-0.058,0.06l-0.056,0.06l-0.056,0.06l-0.054,0.061l-0.054,0.061l-0.052,0.062l-0.05,0.061l-0.05,0.062l-0.048,0.062l-0.047,0.063l-0.046,0.062l-0.045,0.063l-0.043,0.063l-0.043,0.063l-0.041,0.063l-0.039,0.063l-0.039,0.064l-0.037,0.063l-0.036,0.064l-0.035,0.064l-0.034,0.064l-0.032,0.064l-0.031,0.064l-0.03,0.064l-0.029,0.065l-0.027,0.064l-0.027,0.065l-0.025,0.064l-0.024,0.065l-0.022,0.064l-0.022,0.065l-0.02,0.065l-0.019,0.065l-0.017,0.065l-0.017,0.064l-0.015,0.066l-0.014,0.065l-0.013,0.065l-0.012,0.065l-0.011,0.065l-0.009,0.066l-0.008,0.065l-0.007,0.066l-0.006,0.065l-0.004,0.066l-0.004,0.066l-0.002,0.066l-0.001,0.066l0.001,0.067l0.001,0.066l0.003,0.067l0.004,0.066l0.005,0.066l0.006,0.065l0.008,0.065l0.009,0.065l0.01,0.065l0.011,0.064l0.012,0.065l0.013,0.063l0.015,0.064l0.016,0.064l0.017,0.063l0.018,0.063l0.019,0.063l0.02,0.062l0.022,0.063l0.022,0.062l0.024,0.062l0.025,0.062l0.026,0.062l0.027,0.061l0.029,0.062l0.029,0.061l0.031,0.061l0.032,0.061l0.033,0.06l0.034,0.061l0.035,0.06l0.037,0.06l0.037,0.06l0.039,0.06l0.04,0.059l0.041,0.06l0.042,0.059l0.044,0.058l0.044,0.059l0.046,0.058l0.047,0.058l0.048,0.058l0.049,0.058l0.05,0.057l0.052,0.057l0.052,0.056l0.054,0.057l0.055,0.056l0.056,0.056l0.057,0.055l0.058,0.055l0.059,0.054l0.061,0.055l0.061,0.054l0.063,0.053l0.063,0.053l0.065,0.053l0.066,0.052l0.067,0.052l0.068,0.051l0.069,0.051l0.07,0.05l0.066,0.047l0.005,0.003l0.072,0.05l0.073,0.049l0.074,0.048l0.075,0.048l0.076,0.048l0.077,0.047l0.078,0.046l0.079,0.046l0.079,0.045l0.081,0.045l0.082,0.044l0.083,0.044l0.083,0.042l0.085,0.043l0.085,0.041l0.086,0.041l0.088,0.041l0.088,0.039l0.088,0.039l0.09,0.039l0.091,0.037l0.091,0.037l0.092,0.036l0.093,0.036l0.094,0.035l0.095,0.034l0.095,0.033l0.096,0.033l0.097,0.031l0.098,0.031l0.098,0.031l0.099,0.029l0.1,0.029l0.1,0.028l0.101,0.027l0.102,0.026l0.102,0.026l0.104,0.024l0.103,0.024l0.105,0.023l0.105,0.022l0.105,0.022l0.107,0.02l0.106,0.02l0.108,0.018l0.108,0.018l0.108,0.017l0.109,0.016l0.11,0.015l0.11,0.014l0.111,0.013l0.111,0.013l0.111,0.011l0.112,0.01l0.113,0.01l0.113,0.008l0.113,0.008l0.114,0.006l0.115,0.006l0.114,0.005l0.115,0.003l0.116,0.003l0.116,0.002l0.116,0l0.117,0l0.086,-0.001l0.031,-0.001l0.117,-0.002l0.118,-0.003l0.116,-0.004l0.117,-0.005l0.116,-0.006l0.115,-0.008l0.115,-0.008l0.115,-0.009l0.114,-0.01l0.113,-0.011l0.113,-0.012l0.113,-0.013l0.112,-0.014l0.111,-0.014l0.111,-0.016l0.11,-0.017l0.11,-0.017l0.109,-0.019l0.108,-0.019l0.108,-0.02l0.107,-0.021l0.107,-0.022l0.106,-0.023l0.105,-0.023l0.105,-0.025l0.104,-0.025l0.103,-0.026l0.103,-0.027l0.102,-0.027l0.101,-0.029l0.1,-0.029l0.1,-0.03l0.099,-0.031l0.098,-0.031l0.097,-0.032l0.097,-0.033l0.096,-0.034l0.095,-0.035l0.094,-0.035l0.093,-0.036l0.093,-0.036l0.092,-0.037l0.091,-0.038l0.09,-0.039l0.089,-0.039l0.088,-0.04l0.087,-0.04l0.087,-0.041l0.085,-0.042l0.085,-0.042l0.084,-0.043l0.082,-0.043l0.082,-0.044l0.081,-0.045l0.08,-0.045l0.078,-0.045l0.078,-0.046l0.077,-0.047l0.076,-0.047l0.075,-0.048l0.073,-0.048l0.061,-0.04l0.012,-0.008l0.072,-0.049l0.071,-0.049l0.07,-0.049l0.068,-0.05l0.068,-0.05l0.067,-0.051l0.065,-0.051l0.064,-0.051l0.064,-0.052l0.062,-0.052l0.061,-0.052l0.06,-0.053l0.058,-0.052l0.058,-0.054l0.057,-0.053l0.055,-0.054l0.054,-0.054l0.053,-0.054l0.052,-0.054l0.051,-0.054l0.049,-0.055l0.048,-0.055l0.048,-0.055l0.046,-0.055l0.044,-0.055l0.044,-0.055l0.043,-0.056l0.041,-0.055l0.04,-0.056l0.039,-0.055l0.038,-0.056l0.036,-0.056l0.036,-0.056l0.034,-0.055l0.033,-0.056l0.032,-0.056l0.031,-0.055l0.03,-0.056l0.028,-0.056l0.028,-0.055l0.026,-0.056l0.025,-0.055l0.024,-0.056l0.023,-0.055l0.022,-0.056l0.021,-0.055l0.02,-0.055l0.018,-0.056l0.018,-0.055l0.016,-0.055l0.016,-0.055l0.014,-0.055l0.013,-0.055l0.013,-0.055l0.011,-0.055l0.01,-0.055l0.009,-0.055l0.008,-0.055l0.008,-0.055l0.006,-0.055l0.005,-0.056l0.004,-0.055l0.003,-0.055l0.002,-0.056l0.001,-0.056l0,-0.056l-0.001,-0.056l0,-0.013l-0.001,-0.043l-0.003,-0.056l-0.004,-0.055l-0.004,-0.055l-0.006,-0.055l-0.006,-0.055l-0.008,-0.055l-0.009,-0.054l-0.009,-0.055l-0.011,-0.054l-0.011,-0.054l-0.013,-0.054l-0.014,-0.054l-0.014,-0.053l-0.016,-0.054l-0.016,-0.054l-0.018,-0.054l-0.019,-0.053l-0.019,-0.054l-0.021,-0.053l-0.022,-0.054l-0.023,-0.053l-0.023,-0.054l-0.025,-0.053l-0.026,-0.054l-0.027,-0.053l-0.028,-0.054l-0.03,-0.053l-0.022,-0.039l-0.008,-0.015l-0.031,-0.053l-0.032,-0.054l-0.033,-0.054l-0.034,-0.053l-0.035,-0.054l-0.037,-0.053l-0.037,-0.054l-0.039,-0.053l-0.04,-0.053l-0.041,-0.054l-0.042,-0.053l-0.043,-0.053l-0.045,-0.053l-0.045,-0.053l-0.047,-0.052l-0.048,-0.053l-0.049,-0.052l-0.05,-0.052l-0.051,-0.052l-0.052,-0.052l-0.049,-0.047l-0.005,-0.004l-0.053,-0.053l-0.055,-0.052l-0.055,-0.052l-0.057,-0.052l-0.058,-0.052l-0.059,-0.051l-0.061,-0.051l-0.061,-0.05l-0.018,-0.015l-0.043,-0.037l-0.063,-0.052l-0.063,-0.051l-0.064,-0.052l-0.066,-0.051l-0.067,-0.05l-0.067,-0.05l-0.069,-0.05l-0.017,-0.012l-0.052,-0.039l-0.069,-0.052l-0.071,-0.051l-0.072,-0.051l-0.072,-0.051l-0.074,-0.05l-0.075,-0.049l-0.076,-0.049l-0.077,-0.049l-0.078,-0.048l-0.079,-0.048l-0.08,-0.047l-0.082,-0.047l-0.082,-0.047l-0.071,-0.039l-0.012,-0.007l-0.082,-0.05l-0.083,-0.049l-0.084,-0.05l-0.085,-0.048l-0.087,-0.048l-0.087,-0.047l-0.088,-0.047l-0.09,-0.046l-0.09,-0.046l-0.091,-0.045l-0.093,-0.045l-0.093,-0.043l-0.094,-0.044l-0.095,-0.042l-0.097,-0.042l-0.097,-0.041l-0.098,-0.041l-0.099,-0.039l-0.099,-0.04l-0.101,-0.038l-0.102,-0.038l-0.102,-0.037l-0.104,-0.036l-0.074,-0.025l-0.029,-0.012l-0.104,-0.04l-0.105,-0.04l-0.106,-0.039l-0.107,-0.038l-0.107,-0.038l-0.109,-0.036l-0.109,-0.036l-0.11,-0.035l-0.112,-0.034l-0.112,-0.034l-0.112,-0.032l-0.114,-0.032l-0.115,-0.03l-0.115,-0.03l-0.116,-0.029l-0.098,-0.023l-0.019,-0.006l-0.118,-0.031l-0.118,-0.031l-0.12,-0.03l-0.12,-0.028l-0.121,-0.028l-0.122,-0.027l-0.084,-0.017l-0.042,-0.009l-0.12,0.004Zm0.263,-1.898l0.139,-0.024l0.14,-0.022l0.139,-0.02l0.14,-0.02l0.139,-0.018l0.14,-0.017l0.023,-0.003l0.116,-0.009l0.139,-0.01l0.139,-0.009l0.139,-0.007l0.139,-0.007l0.138,-0.004l0.138,-0.004l0.138,-0.003l0.138,-0.001l0.138,0l0.138,0.001l0.137,0.003l0.137,0.004l0.137,0.005l0.136,0.006l0.136,0.007l0.04,0.003l0.096,0.01l0.134,0.016l0.134,0.017l0.133,0.018l0.133,0.019l0.133,0.021l0.132,0.021l0.132,0.023l0.131,0.024l0.131,0.025l0.13,0.027l0.13,0.027l0.129,0.029l0.129,0.03l0.128,0.031l0.128,0.032l0.127,0.033l0.127,0.035l0.126,0.035l0.125,0.037l0.125,0.038l0.124,0.039l0.124,0.04l0.123,0.042l0.018,0.006l0.102,0.04l0.12,0.049l0.118,0.049l0.118,0.051l0.118,0.052l0.116,0.053l0.116,0.053l0.114,0.055l0.115,0.057l0.113,0.057l0.112,0.058l0.112,0.059l0.11,0.061l0.11,0.061l0.083,0.048l0.026,0.016l0.106,0.066l0.106,0.067l0.104,0.069l0.104,0.069l0.102,0.07l0.102,0.072l0.101,0.072l0.07,0.053l0.029,0.021l0.097,0.077l0.096,0.077l0.095,0.079l0.094,0.079l0.092,0.08l0.092,0.082l0.091,0.082l0.089,0.084l0.007,0.007l0.08,0.078l0.085,0.087l0.085,0.087l0.083,0.089l0.082,0.09l0.081,0.09l0.079,0.092l0.078,0.092l0.077,0.093l0.075,0.095l0.074,0.095l0.072,0.097l0.071,0.097l0.07,0.098l0.068,0.1l0.066,0.1l0.065,0.101l0.064,0.102l0.062,0.103l0.06,0.104l0.059,0.105l0.015,0.028l0.041,0.078l0.055,0.107l0.053,0.108l0.052,0.109l0.049,0.109l0.048,0.111l0.046,0.111l0.045,0.112l0.042,0.113l0.04,0.113l0.039,0.115l0.036,0.115l0.035,0.116l0.033,0.117l0.03,0.117l0.029,0.118l0.026,0.118l0.025,0.12l0.022,0.119l0.02,0.121l0.018,0.121l0.016,0.121l0.014,0.122l0.011,0.122l0.009,0.123l0.007,0.122l0.005,0.124l0.002,0.123l0,0.094l0,0.03l-0.003,0.124l-0.005,0.124l-0.007,0.123l-0.009,0.122l-0.012,0.122l-0.014,0.122l-0.016,0.121l-0.018,0.121l-0.021,0.12l-0.022,0.119l-0.025,0.119l-0.027,0.118l-0.028,0.118l-0.031,0.117l-0.033,0.116l-0.035,0.115l-0.037,0.114l-0.039,0.114l-0.04,0.113l-0.043,0.112l-0.044,0.111l-0.046,0.11l-0.048,0.11l-0.05,0.108l-0.052,0.108l-0.053,0.106l-0.055,0.106l-0.057,0.105l-0.058,0.104l-0.06,0.103l-0.061,0.102l-0.063,0.101l-0.065,0.1l-0.066,0.099l-0.067,0.098l-0.069,0.097l-0.071,0.096l-0.072,0.095l-0.073,0.094l-0.075,0.093l-0.076,0.092l-0.077,0.091l-0.079,0.09l-0.08,0.089l-0.081,0.088l-0.082,0.087l-0.084,0.086l-0.085,0.085l-0.086,0.084l-0.088,0.083l-0.088,0.082l-0.09,0.081l-0.091,0.08l-0.092,0.08l-0.093,0.078l-0.094,0.077l-0.095,0.076l-0.097,0.075l-0.097,0.074l-0.099,0.073l-0.099,0.072l-0.101,0.071l-0.101,0.07l-0.103,0.069l-0.103,0.068l-0.105,0.067l-0.105,0.066l-0.017,0.011l-0.089,0.054l-0.108,0.064l-0.108,0.062l-0.11,0.062l-0.11,0.061l-0.111,0.059l-0.112,0.059l-0.113,0.057l-0.114,0.057l-0.114,0.056l-0.115,0.054l-0.117,0.054l-0.117,0.052l-0.118,0.051l-0.118,0.051l-0.12,0.049l-0.12,0.049l-0.121,0.047l-0.121,0.046l-0.123,0.045l-0.123,0.044l-0.124,0.043l-0.125,0.042l-0.125,0.041l-0.126,0.04l-0.127,0.039l-0.127,0.038l-0.128,0.036l-0.129,0.036l-0.13,0.034l-0.13,0.033l-0.13,0.033l-0.132,0.031l-0.132,0.03l-0.132,0.029l-0.133,0.028l-0.134,0.026l-0.134,0.026l-0.135,0.024l-0.135,0.023l-0.136,0.022l-0.137,0.021l-0.137,0.02l-0.137,0.019l-0.139,0.017l-0.138,0.017l-0.139,0.015l-0.14,0.014l-0.14,0.012l-0.14,0.012l-0.141,0.01l-0.141,0.009l-0.142,0.008l-0.142,0.007l-0.143,0.005l-0.143,0.004l-0.143,0.003l-0.144,0.002l-0.144,0.001l-0.145,-0.001l-0.145,-0.002l-0.145,-0.003l-0.038,-0.002l-0.106,-0.003l-0.144,-0.006l-0.143,-0.007l-0.143,-0.009l-0.143,-0.01l-0.142,-0.011l-0.141,-0.012l-0.141,-0.013l-0.141,-0.015l-0.14,-0.015l-0.139,-0.017l-0.139,-0.018l-0.138,-0.019l-0.138,-0.021l-0.137,-0.021l-0.136,-0.023l-0.136,-0.024l-0.136,-0.024l-0.134,-0.026l-0.134,-0.028l-0.134,-0.028l-0.132,-0.029l-0.133,-0.03l-0.131,-0.032l-0.131,-0.032l-0.13,-0.034l-0.129,-0.035l-0.129,-0.036l-0.128,-0.036l-0.127,-0.038l-0.127,-0.039l-0.126,-0.04l-0.125,-0.041l-0.124,-0.042l-0.124,-0.043l-0.122,-0.044l-0.122,-0.045l-0.121,-0.046l-0.121,-0.047l-0.119,-0.048l-0.119,-0.049l-0.118,-0.05l-0.117,-0.051l-0.116,-0.052l-0.116,-0.052l-0.114,-0.054l-0.114,-0.055l-0.113,-0.056l-0.112,-0.056l-0.11,-0.058l-0.111,-0.059l-0.109,-0.059l-0.108,-0.06l-0.107,-0.062l-0.106,-0.062l-0.106,-0.063l-0.104,-0.064l-0.103,-0.065l-0.103,-0.066l-0.101,-0.067l-0.1,-0.067l-0.1,-0.069l-0.098,-0.069l-0.097,-0.071l-0.096,-0.071l-0.095,-0.072l-0.007,-0.005l-0.087,-0.068l-0.093,-0.074l-0.092,-0.075l-0.09,-0.076l-0.09,-0.076l-0.088,-0.078l-0.087,-0.078l-0.086,-0.079l-0.085,-0.08l-0.083,-0.081l-0.082,-0.082l-0.082,-0.082l-0.079,-0.083l-0.079,-0.085l-0.077,-0.085l-0.076,-0.086l-0.075,-0.086l-0.073,-0.088l-0.073,-0.088l-0.07,-0.089l-0.07,-0.09l-0.068,-0.091l-0.066,-0.091l-0.065,-0.093l-0.064,-0.093l-0.062,-0.094l-0.061,-0.094l-0.059,-0.096l-0.058,-0.096l-0.056,-0.097l-0.055,-0.098l-0.053,-0.098l-0.052,-0.1l-0.05,-0.1l-0.048,-0.1l-0.046,-0.102l-0.045,-0.102l-0.044,-0.102l-0.041,-0.104l-0.04,-0.104l-0.038,-0.105l-0.036,-0.105l-0.035,-0.106l-0.032,-0.106l-0.031,-0.107l-0.029,-0.108l-0.027,-0.108l-0.025,-0.109l-0.023,-0.109l-0.021,-0.11l-0.02,-0.11l-0.017,-0.111l-0.015,-0.111l-0.014,-0.111l-0.011,-0.112l-0.009,-0.112l-0.007,-0.112l-0.006,-0.113l-0.003,-0.113l-0.001,-0.113l0.002,-0.114l0.003,-0.113l0.005,-0.113l0.007,-0.113l0.01,-0.112l0.011,-0.111l0.014,-0.112l0.015,-0.11l0.018,-0.111l0.019,-0.109l0.022,-0.11l0.023,-0.108l0.025,-0.108l0.027,-0.107l0.029,-0.107l0.031,-0.106l0.033,-0.105l0.034,-0.105l0.037,-0.104l0.038,-0.103l0.039,-0.103l0.042,-0.102l0.043,-0.101l0.045,-0.1l0.046,-0.099l0.048,-0.099l0.05,-0.098l0.052,-0.097l0.052,-0.096l0.055,-0.096l0.056,-0.094l0.057,-0.094l0.059,-0.093l0.061,-0.092l0.061,-0.091l0.064,-0.091l0.064,-0.089l0.066,-0.089l0.068,-0.088l0.068,-0.086l0.07,-0.087l0.072,-0.085l0.072,-0.084l0.074,-0.083l0.076,-0.083l0.076,-0.082l0.078,-0.08l0.079,-0.08l0.08,-0.079l0.081,-0.078l0.082,-0.078l0.084,-0.076l0.085,-0.075l0.085,-0.075l0.087,-0.073l0.088,-0.073l0.089,-0.072l0.091,-0.071l0.091,-0.07l0.092,-0.069l0.094,-0.068l0.094,-0.067l0.095,-0.067l0.097,-0.065l0.097,-0.065l0.098,-0.063l0.1,-0.063l0.1,-0.062l0.101,-0.061l0.102,-0.06l0.103,-0.059l0.104,-0.058l0.105,-0.057l0.106,-0.056l0.106,-0.055l0.108,-0.054l0.108,-0.054l0.109,-0.052l0.11,-0.052l0.111,-0.05l0.112,-0.05l0.045,-0.019l0.067,-0.029l0.114,-0.047l0.114,-0.047l0.115,-0.045l0.115,-0.045l0.117,-0.043l0.117,-0.043l0.118,-0.041l0.118,-0.041l0.12,-0.039l0.12,-0.039l0.121,-0.037l0.121,-0.037l0.122,-0.035l0.123,-0.034l0.123,-0.034l0.124,-0.032l0.125,-0.031l0.125,-0.03l0.126,-0.03l0.127,-0.028l0.127,-0.027l0.128,-0.026l0.128,-0.024l0.129,-0.024l0.13,-0.023l0.13,-0.021l0.13,-0.021l0.131,-0.019l0.132,-0.019l0.132,-0.017l0.133,-0.016l0.133,-0.015l0.133,-0.014l0.134,-0.012l0.135,-0.012l0.135,-0.01l0.135,-0.009l0.136,-0.008l0.136,-0.007l0.137,-0.006l0.137,-0.004l0.137,-0.004l0.138,-0.002l0.139,-0.001l0.138,0.001l0.048,0l0.091,0.001l0.143,0.003l0.046,-0.009l0.09,-0.016Z"/><path d="M74.399,133.306c8.969,-11.844 15.428,-27.486 18.2,-44.077c2.623,-15.695 1.786,-31.281 -2.374,-44.199l-73.661,0.843c-5.65,10.148 -9.7,21.922 -11.74,34.129c-3.366,20.137 -1.004,39.861 6.47,54.026l63.105,-0.722Z" style="fill:#c2c2c2;"/><path d="M75.164,134.376l-0.171,0.104l-0.185,0.076l-0.195,0.048l-0.199,0.017l-1.316,0.023l-33.889,0.587l-27.896,0.475l-0.263,-0.016l-0.257,-0.058l-0.245,-0.096l-0.227,-0.134l-0.204,-0.168l-0.175,-0.198l-0.142,-0.223l0,0l-0.089,-0.169l-0.091,-0.171l-0.09,-0.172l-0.089,-0.172l-0.09,-0.173l-0.088,-0.174l-0.088,-0.174l-0.088,-0.174l-0.087,-0.175l-0.086,-0.175l-0.087,-0.176l-0.085,-0.177l-0.085,-0.177l-0.085,-0.177l-0.084,-0.178l-0.084,-0.178l-0.083,-0.179l-0.082,-0.179l-0.083,-0.18l-0.081,-0.18l-0.081,-0.181l-0.081,-0.181l-0.08,-0.181l-0.08,-0.182l-0.079,-0.183l-0.079,-0.183l-0.078,-0.183l-0.078,-0.184l-0.077,-0.185l-0.077,-0.184l-0.076,-0.186l-0.076,-0.185l-0.075,-0.186l-0.075,-0.187l-0.074,-0.187l-0.074,-0.187l-0.073,-0.188l-0.073,-0.189l-0.073,-0.188l-0.071,-0.19l-0.072,-0.189l-0.07,-0.19l-0.071,-0.191l-0.07,-0.191l-0.069,-0.191l-0.069,-0.192l-0.068,-0.192l-0.068,-0.193l-0.067,-0.193l-0.067,-0.193l-0.067,-0.194l-0.066,-0.194l-0.065,-0.195l-0.065,-0.195l-0.064,-0.195l-0.064,-0.196l-0.064,-0.196l-0.062,-0.197l-0.063,-0.197l-0.062,-0.198l-0.061,-0.198l-0.061,-0.198l-0.061,-0.198l-0.06,-0.2l-0.059,-0.199l-0.059,-0.2l-0.058,-0.2l-0.058,-0.201l-0.058,-0.2l-0.057,-0.202l-0.056,-0.202l-0.056,-0.202l-0.056,-0.202l-0.055,-0.204l-0.108,-0.406l-0.106,-0.408l-0.105,-0.41l-0.102,-0.411l-0.101,-0.412l-0.098,-0.414l-0.097,-0.415l-0.094,-0.417l-0.093,-0.418l-0.09,-0.42l-0.089,-0.42l-0.086,-0.422l-0.085,-0.424l-0.082,-0.424l-0.081,-0.426l-0.078,-0.427l-0.077,-0.429l-0.074,-0.43l-0.072,-0.43l-0.071,-0.432l-0.068,-0.434l-0.067,-0.434l-0.064,-0.436l-0.062,-0.436l-0.061,-0.438l-0.058,-0.439l-0.056,-0.44l-0.055,-0.442l-0.052,-0.442l-0.05,-0.443l-0.048,-0.445l-0.046,-0.445l-0.044,-0.446l-0.043,-0.448l-0.04,-0.448l-0.038,-0.449l-0.036,-0.451l-0.034,-0.451l-0.031,-0.452l-0.03,-0.453l-0.028,-0.454l-0.026,-0.455l-0.024,-0.456l-0.021,-0.457l-0.02,-0.457l-0.018,-0.458l-0.015,-0.459l-0.014,-0.46l-0.011,-0.461l-0.009,-0.462l-0.008,-0.462l-0.005,-0.463l-0.003,-0.463l-0.001,-0.465l0.001,-0.465l0.003,-0.466l0.005,-0.466l0.007,-0.467l0.009,-0.468l0.012,-0.469l0.013,-0.469l0.015,-0.469l0.018,-0.47l0.019,-0.471l0.022,-0.472l0.024,-0.471l0.026,-0.473l0.028,-0.473l0.03,-0.473l0.032,-0.474l0.034,-0.474l0.037,-0.475l0.038,-0.476l0.041,-0.475l0.042,-0.476l0.045,-0.477l0.047,-0.477l0.049,-0.477l0.051,-0.478l0.053,-0.478l0.055,-0.478l0.023,-0.194l0.035,-0.285l0.059,-0.478l0.062,-0.48l0.064,-0.479l0.066,-0.48l0.068,-0.48l0.071,-0.48l0.072,-0.48l0.075,-0.481l0.076,-0.48l0.048,-0.292l0.048,-0.291l0.049,-0.291l0.05,-0.291l0.051,-0.291l0.051,-0.29l0.052,-0.291l0.053,-0.29l0.053,-0.29l0.054,-0.29l0.055,-0.289l0.056,-0.29l0.056,-0.289l0.058,-0.289l0.057,-0.289l0.059,-0.289l0.059,-0.288l0.061,-0.288l0.06,-0.288l0.062,-0.288l0.062,-0.288l0.063,-0.287l0.064,-0.287l0.064,-0.287l0.066,-0.287l0.066,-0.286l0.066,-0.286l0.068,-0.286l0.068,-0.286l0.068,-0.285l0.07,-0.285l0.07,-0.285l0.071,-0.285l0.072,-0.284l0.072,-0.284l0.073,-0.284l0.074,-0.284l0.074,-0.283l0.076,-0.283l0.076,-0.283l0.076,-0.282l0.078,-0.282l0.078,-0.282l0.078,-0.282l0.08,-0.281l0.08,-0.281l0.081,-0.281l0.081,-0.28l0.082,-0.28l0.083,-0.28l0.084,-0.279l0.084,-0.279l0.085,-0.279l0.086,-0.278l0.086,-0.278l0.087,-0.278l0.088,-0.277l0.089,-0.277l0.089,-0.277l0.09,-0.276l0.09,-0.276l0.091,-0.275l0.092,-0.276l0.093,-0.275l0.093,-0.274l0.094,-0.274l0.094,-0.274l0.096,-0.273l0.096,-0.273l0.096,-0.273l0.097,-0.272l0.098,-0.272l0.099,-0.271l0.099,-0.271l0.1,-0.271l0.101,-0.27l0.101,-0.27l0.102,-0.269l0.103,-0.269l0.103,-0.269l0.104,-0.268l0.105,-0.268l0.105,-0.267l0.106,-0.267l0.106,-0.266l0.108,-0.266l0.108,-0.266l0.108,-0.265l0.109,-0.264l0.11,-0.264l0.111,-0.264l0.111,-0.263l0.112,-0.263l0.112,-0.263l0.114,-0.261l0.113,-0.262l0.115,-0.261l0.115,-0.26l0.116,-0.26l0.116,-0.259l0.117,-0.259l0.118,-0.259l0.118,-0.258l0.119,-0.257l0.119,-0.257l0.121,-0.257l0.12,-0.256l0.122,-0.255l0.122,-0.255l0.123,-0.255l0.123,-0.253l0.124,-0.254l0.125,-0.253l0.125,-0.252l0.126,-0.252l0.126,-0.251l0.128,-0.251l0.127,-0.25l0.129,-0.249l0.129,-0.249l0.129,-0.249l0.131,-0.248l0.131,-0.247l0.131,-0.247l0.132,-0.246l0.133,-0.246l0.133,-0.245l0.133,-0.241l0.181,-0.276l-0.001,-0.001l0.22,-0.246l0.254,-0.21l0.283,-0.17l0.306,-0.126l0.321,-0.079l0.33,-0.03l3.601,-0.059l45.939,-0.738l24.117,-0.368l0.401,0.026l0.391,0.09l0.373,0.15l0.344,0.208l0.307,0.26l0.262,0.305l0.21,0.343l0.153,0.372l0.001,0l0.099,0.308l0.101,0.315l0.099,0.316l0.097,0.316l0.097,0.318l0.095,0.319l0.094,0.319l0.093,0.32l0.091,0.322l0.09,0.322l0.089,0.323l0.088,0.324l0.086,0.324l0.085,0.326l0.084,0.326l0.082,0.328l0.082,0.328l0.079,0.329l0.079,0.33l0.077,0.33l0.077,0.332l0.074,0.332l0.074,0.333l0.072,0.334l0.071,0.334l0.07,0.335l0.069,0.337l0.067,0.336l0.066,0.338l0.064,0.338l0.064,0.339l0.062,0.34l0.061,0.341l0.059,0.341l0.058,0.342l0.057,0.343l0.056,0.343l0.055,0.344l0.025,0.164l0.028,0.181l0.051,0.345l0.05,0.346l0.049,0.347l0.048,0.347l0.047,0.348l0.045,0.349l0.044,0.349l0.042,0.35l0.041,0.351l0.041,0.351l0.038,0.352l0.038,0.352l0.036,0.353l0.035,0.354l0.034,0.354l0.032,0.354l0.031,0.356l0.03,0.355l0.029,0.357l0.027,0.356l0.026,0.358l0.025,0.358l0.023,0.358l0.023,0.359l0.02,0.359l0.02,0.36l0.019,0.361l0.017,0.361l0.015,0.361l0.015,0.362l0.013,0.362l0.012,0.363l0.011,0.363l0.009,0.363l0.009,0.364l0.007,0.365l0.005,0.365l0.004,0.365l0.004,0.366l0.001,0.366l0.001,0.366l-0.001,0.367l-0.001,0.228l-0.001,0.139l-0.004,0.368l-0.005,0.368l-0.007,0.368l-0.007,0.369l-0.009,0.369l-0.011,0.369l-0.011,0.37l-0.013,0.369l-0.014,0.371l-0.016,0.37l-0.016,0.371l-0.018,0.371l-0.02,0.372l-0.02,0.371l-0.022,0.372l-0.023,0.372l-0.025,0.373l-0.025,0.372l-0.027,0.373l-0.028,0.373l-0.03,0.374l-0.031,0.373l-0.032,0.374l-0.033,0.374l-0.035,0.374l-0.036,0.375l-0.037,0.374l-0.039,0.375l-0.04,0.375l-0.041,0.375l-0.042,0.375l-0.044,0.375l-0.006,0.048l-0.04,0.328l-0.048,0.375l-0.049,0.376l-0.05,0.375l-0.052,0.376l-0.053,0.376l-0.054,0.376l-0.056,0.376l-0.057,0.376l-0.058,0.376l-0.059,0.376l-0.061,0.376l-0.062,0.377l-0.032,0.19l-0.032,0.186l-0.07,0.397l-0.072,0.397l-0.073,0.396l-0.074,0.397l-0.076,0.395l-0.077,0.395l-0.079,0.395l-0.08,0.395l-0.081,0.394l-0.082,0.393l-0.084,0.393l-0.08,0.371l-0.005,0.022l-0.09,0.391l-0.09,0.391l-0.092,0.391l-0.093,0.39l-0.094,0.389l-0.096,0.389l-0.097,0.388l-0.098,0.388l-0.1,0.387l-0.101,0.387l-0.102,0.386l-0.104,0.386l-0.105,0.385l-0.106,0.384l-0.107,0.384l-0.109,0.383l-0.11,0.383l-0.111,0.381l-0.112,0.382l-0.114,0.38l-0.115,0.38l-0.116,0.38l-0.118,0.378l-0.119,0.378l-0.006,0.021l-0.117,0.356l-0.126,0.375l-0.126,0.374l-0.128,0.374l-0.129,0.373l-0.13,0.373l-0.132,0.371l-0.133,0.371l-0.133,0.37l-0.135,0.37l-0.137,0.368l-0.137,0.368l-0.139,0.367l-0.14,0.366l-0.141,0.365l-0.142,0.365l-0.143,0.363l-0.145,0.363l-0.145,0.362l-0.147,0.361l-0.148,0.361l-0.149,0.359l-0.151,0.358l-0.151,0.358l-0.153,0.357l-0.153,0.355l-0.155,0.355l-0.156,0.354l-0.157,0.353l-0.159,0.352l-0.159,0.351l-0.161,0.351l-0.161,0.349l-0.163,0.348l-0.164,0.347l-0.165,0.347l-0.166,0.345l-0.167,0.344l-0.168,0.344l-0.17,0.342l-0.17,0.341l-0.172,0.34l-0.172,0.339l-0.096,0.187l-0.08,0.151l-0.178,0.335l-0.18,0.334l-0.181,0.333l-0.182,0.332l-0.182,0.331l-0.184,0.329l-0.185,0.329l-0.186,0.327l-0.187,0.326l-0.188,0.326l-0.189,0.323l-0.19,0.323l-0.191,0.322l-0.192,0.32l-0.193,0.319l-0.194,0.318l-0.195,0.317l-0.196,0.316l-0.197,0.314l-0.198,0.313l-0.199,0.312l-0.2,0.311l-0.201,0.309l-0.202,0.308l-0.203,0.307l-0.203,0.305l-0.205,0.305l-0.206,0.303l-0.206,0.301l-0.208,0.301l-0.209,0.299l-0.209,0.297l-0.076,0.108l-0.136,0.188l-0.214,0.293l-0.214,0.292l-0.216,0.291l-0.216,0.289l-0.218,0.288l-0.218,0.286l-0.219,0.285l-0.22,0.284l-0.221,0.282l-0.222,0.281l-0.222,0.279l-0.224,0.278l-0.224,0.276l-0.225,0.275l-0.056,0.068l-0.17,0.203l-0.132,0.15l-0.153,0.128Zm-9.829,-86.628l-43.845,0.29l0,-0.026l-3.626,0.041l-0.029,0.053l-0.127,0.234l-0.127,0.236l-0.126,0.236l-0.126,0.236l-0.125,0.237l-0.125,0.238l-0.124,0.238l-0.123,0.239l-0.123,0.24l-0.123,0.239l-0.121,0.241l-0.122,0.241l-0.12,0.242l-0.12,0.242l-0.12,0.242l-0.118,0.244l-0.119,0.243l-0.117,0.245l-0.117,0.244l-0.117,0.246l-0.116,0.246l-0.115,0.246l-0.115,0.247l-0.114,0.247l-0.114,0.248l-0.113,0.249l-0.112,0.248l-0.112,0.25l-0.111,0.25l-0.11,0.25l-0.11,0.251l-0.109,0.251l-0.109,0.252l-0.108,0.252l-0.108,0.253l-0.107,0.254l-0.106,0.253l-0.106,0.254l-0.105,0.255l-0.104,0.255l-0.104,0.256l-0.103,0.256l-0.103,0.256l-0.102,0.257l-0.101,0.257l-0.101,0.258l-0.1,0.258l-0.099,0.259l-0.099,0.259l-0.098,0.259l-0.098,0.26l-0.097,0.26l-0.096,0.261l-0.096,0.261l-0.095,0.262l-0.094,0.261l-0.094,0.263l-0.093,0.262l-0.093,0.263l-0.091,0.264l-0.092,0.264l-0.09,0.264l-0.09,0.264l-0.089,0.265l-0.089,0.266l-0.088,0.265l-0.087,0.266l-0.087,0.267l-0.086,0.267l-0.085,0.267l-0.085,0.267l-0.084,0.268l-0.083,0.268l-0.083,0.268l-0.082,0.269l-0.081,0.269l-0.081,0.27l-0.08,0.27l-0.079,0.27l-0.079,0.27l-0.078,0.271l-0.078,0.271l-0.076,0.271l-0.076,0.272l-0.076,0.272l-0.074,0.272l-0.074,0.272l-0.074,0.273l-0.072,0.273l-0.072,0.274l-0.072,0.273l-0.07,0.274l-0.07,0.274l-0.069,0.275l-0.069,0.274l-0.068,0.275l-0.067,0.276l-0.067,0.275l-0.065,0.276l-0.065,0.276l-0.065,0.276l-0.064,0.276l-0.063,0.277l-0.062,0.277l-0.062,0.277l-0.06,0.277l-0.061,0.278l-0.059,0.278l-0.059,0.278l-0.058,0.278l-0.058,0.279l-0.056,0.278l-0.056,0.279l-0.055,0.279l-0.055,0.279l-0.054,0.28l-0.053,0.279l-0.052,0.28l-0.052,0.28l-0.051,0.28l-0.05,0.28l-0.05,0.281l-0.049,0.28l-0.079,0.463l-0.077,0.463l-0.075,0.463l-0.072,0.463l-0.071,0.462l-0.069,0.462l-0.066,0.462l-0.065,0.462l-0.062,0.461l-0.036,0.275l-0.025,0.186l-0.059,0.461l-0.056,0.461l-0.055,0.46l-0.052,0.46l-0.051,0.459l-0.048,0.46l-0.046,0.458l-0.045,0.459l-0.042,0.458l-0.04,0.457l-0.039,0.458l-0.036,0.456l-0.034,0.457l-0.032,0.455l-0.03,0.456l-0.029,0.454l-0.026,0.455l-0.024,0.453l-0.022,0.453l-0.02,0.453l-0.018,0.452l-0.016,0.451l-0.014,0.451l-0.012,0.45l-0.01,0.45l-0.008,0.449l-0.006,0.448l-0.004,0.447l-0.002,0.447l0,0.446l0.001,0.445l0.004,0.445l0.006,0.444l0.008,0.443l0.01,0.442l0.012,0.441l0.014,0.441l0.016,0.44l0.018,0.438l0.019,0.438l0.022,0.437l0.024,0.437l0.026,0.435l0.027,0.434l0.03,0.434l0.031,0.432l0.034,0.432l0.036,0.43l0.037,0.429l0.04,0.429l0.041,0.427l0.043,0.427l0.046,0.425l0.047,0.424l0.049,0.423l0.051,0.422l0.053,0.421l0.055,0.42l0.057,0.418l0.059,0.418l0.061,0.416l0.063,0.415l0.064,0.413l0.067,0.413l0.069,0.411l0.07,0.41l0.072,0.409l0.075,0.407l0.076,0.406l0.078,0.405l0.08,0.404l0.082,0.402l0.084,0.4l0.086,0.4l0.087,0.398l0.09,0.396l0.091,0.395l0.093,0.394l0.096,0.392l0.097,0.391l0.099,0.39l0.05,0.193l0.051,0.194l0.051,0.193l0.051,0.193l0.053,0.192l0.052,0.192l0.053,0.192l0.054,0.191l0.054,0.191l0.054,0.191l0.055,0.19l0.055,0.19l0.056,0.189l0.056,0.189l0.057,0.189l0.057,0.188l0.058,0.188l0.058,0.187l0.059,0.187l0.059,0.187l0.06,0.186l0.06,0.185l0.06,0.186l0.061,0.185l0.061,0.184l0.062,0.184l0.063,0.184l0.062,0.183l0.064,0.183l0.063,0.182l0.065,0.182l0.064,0.181l0.065,0.181l0.066,0.181l0.066,0.18l0.066,0.18l0.067,0.179l0.068,0.179l0.068,0.178l0.068,0.178l0.069,0.177l0.069,0.177l0.07,0.177l0.07,0.176l0.07,0.176l0.071,0.175l0.072,0.175l0.072,0.174l0.072,0.174l0.073,0.173l0.074,0.173l0.073,0.172l0.075,0.172l0.074,0.172l0.075,0.171l0.076,0.17l0.076,0.17l0.077,0.17l0.077,0.169l0.077,0.168l0.078,0.168l0.078,0.168l0.079,0.167l0.079,0.166l0.08,0.167l0.08,0.165l0.08,0.165l0.081,0.165l0.04,0.08l27.723,-0.167l33.047,-0.179l0.601,-0.004l0.034,-0.05l0.192,-0.286l0.19,-0.287l0.19,-0.288l0.188,-0.289l0.188,-0.291l0.186,-0.292l0.186,-0.293l0.184,-0.295l0.183,-0.295l0.183,-0.297l0.181,-0.298l0.18,-0.299l0.18,-0.301l0.113,-0.192l0.066,-0.109l0.18,-0.301l0.178,-0.302l0.178,-0.304l0.177,-0.305l0.175,-0.305l0.175,-0.307l0.173,-0.309l0.173,-0.309l0.171,-0.31l0.171,-0.312l0.169,-0.312l0.169,-0.314l0.167,-0.314l0.166,-0.316l0.165,-0.317l0.165,-0.318l0.163,-0.319l0.162,-0.32l0.161,-0.321l0.16,-0.322l0.158,-0.323l0.158,-0.325l0.157,-0.325l0.155,-0.326l0.155,-0.327l0.153,-0.328l0.153,-0.329l0.151,-0.33l0.15,-0.331l0.149,-0.332l0.148,-0.333l0.147,-0.333l0.065,-0.151l0.083,-0.183l0.148,-0.334l0.148,-0.334l0.146,-0.336l0.146,-0.336l0.144,-0.338l0.143,-0.338l0.142,-0.339l0.141,-0.34l0.139,-0.341l0.139,-0.342l0.137,-0.343l0.137,-0.343l0.135,-0.344l0.134,-0.345l0.133,-0.346l0.132,-0.347l0.13,-0.348l0.13,-0.348l0.128,-0.349l0.128,-0.35l0.126,-0.351l0.125,-0.351l0.123,-0.352l0.123,-0.353l0.121,-0.354l0.121,-0.354l0.119,-0.355l0.118,-0.356l0.116,-0.357l0.116,-0.357l0.114,-0.358l0.114,-0.358l0.112,-0.36l0.11,-0.36l0.11,-0.36l0.108,-0.361l0.108,-0.362l0.106,-0.363l0.104,-0.363l0.104,-0.363l0.102,-0.364l0.101,-0.365l0.095,-0.346l0.005,-0.02l0.103,-0.364l0.102,-0.366l0.1,-0.366l0.1,-0.366l0.097,-0.367l0.097,-0.368l0.096,-0.368l0.094,-0.369l0.093,-0.369l0.092,-0.37l0.09,-0.37l0.089,-0.371l0.089,-0.371l0.086,-0.372l0.086,-0.372l0.084,-0.373l0.083,-0.373l0.082,-0.374l0.08,-0.374l0.079,-0.375l0.078,-0.375l0.077,-0.375l0.075,-0.376l0.074,-0.376l0.004,-0.021l0.071,-0.355l0.075,-0.377l0.072,-0.377l0.072,-0.377l0.07,-0.378l0.069,-0.378l0.068,-0.378l0.066,-0.379l0.065,-0.379l0.064,-0.379l0.062,-0.38l0.061,-0.38l0.028,-0.178l0.029,-0.182l0.058,-0.359l0.056,-0.359l0.054,-0.36l0.054,-0.359l0.052,-0.359l0.051,-0.359l0.05,-0.358l0.048,-0.359l0.047,-0.359l0.046,-0.358l0.045,-0.358l0.044,-0.359l0.037,-0.312l0.005,-0.046l0.043,-0.357l0.041,-0.358l0.04,-0.357l0.039,-0.357l0.038,-0.357l0.036,-0.357l0.035,-0.357l0.034,-0.356l0.033,-0.356l0.032,-0.356l0.03,-0.356l0.029,-0.356l0.028,-0.355l0.026,-0.355l0.026,-0.355l0.024,-0.354l0.023,-0.355l0.021,-0.354l0.021,-0.353l0.019,-0.354l0.018,-0.353l0.017,-0.353l0.015,-0.352l0.015,-0.353l0.013,-0.351l0.012,-0.352l0.01,-0.351l0.01,-0.351l0.008,-0.35l0.007,-0.35l0.006,-0.35l0.004,-0.35l0.002,-0.132l0.002,-0.216l0.003,-0.349l0.001,-0.348l0.001,-0.348l-0.001,-0.347l-0.003,-0.347l-0.003,-0.347l-0.005,-0.346l-0.005,-0.345l-0.007,-0.345l-0.009,-0.345l-0.009,-0.344l-0.011,-0.344l-0.012,-0.343l-0.013,-0.343l-0.014,-0.342l-0.016,-0.342l-0.016,-0.341l-0.018,-0.341l-0.02,-0.34l-0.02,-0.339l-0.021,-0.339l-0.023,-0.339l-0.024,-0.338l-0.025,-0.337l-0.027,-0.337l-0.027,-0.336l-0.029,-0.336l-0.03,-0.335l-0.031,-0.334l-0.033,-0.334l-0.033,-0.333l-0.035,-0.333l-0.036,-0.332l-0.037,-0.331l-0.039,-0.331l-0.039,-0.33l-0.041,-0.329l-0.042,-0.329l-0.043,-0.327l-0.044,-0.328l-0.046,-0.326l-0.047,-0.326l-0.025,-0.17l-0.022,-0.155l-0.049,-0.325l-0.05,-0.323l-0.051,-0.323l-0.052,-0.323l-0.054,-0.321l-0.055,-0.321l-0.055,-0.32l-0.057,-0.319l-0.059,-0.319l-0.059,-0.317l-0.061,-0.317l-0.061,-0.316l-0.063,-0.316l-0.064,-0.314l-0.066,-0.314l-0.066,-0.312l-0.068,-0.312l-0.069,-0.312l-0.07,-0.31l-0.071,-0.309l-0.072,-0.309l-0.074,-0.307l-0.074,-0.307l-0.076,-0.306l-0.077,-0.305l-0.079,-0.304l-0.079,-0.303l-0.081,-0.302l-0.081,-0.302l-0.083,-0.3l-0.084,-0.299l-0.085,-0.299l-0.003,-0.007l-23.013,0.178Z"/><path d="M32.009,45.321c0,0 0.374,7.733 -5.958,17.659c-15.784,24.741 -20.424,14.07 -20.424,14.07c-2.684,10.442 -5.725,32.832 5.421,57.236c19.922,2.382 41.871,2.122 63.322,-0.634c11.939,-17.357 16.702,-35.385 18.528,-54.302c-12.312,-3.801 -21.356,-11.336 -23.667,-33.616c-2.314,-0.186 -2.128,-0.238 -5.57,-0.762l1.088,18.041c-9.383,-0.5 -18.441,-0.211 -27.303,0.429c0,0 -0.294,-16.981 1.277,-18.345c1.571,-1.363 -6.714,0.224 -6.714,0.224Z" style="fill:#008fd7;"/><clipPath id="_clip1"><path d="M32.009,45.321c0,0 0.374,7.733 -5.958,17.659c-15.784,24.741 -20.424,14.07 -20.424,14.07c-2.684,10.442 -5.725,32.832 5.421,57.236c19.922,2.382 41.871,2.122 63.322,-0.634c11.939,-17.357 16.702,-35.385 18.528,-54.302c-12.312,-3.801 -21.356,-11.336 -23.667,-33.616c-2.314,-0.186 -2.128,-0.238 -5.57,-0.762l1.088,18.041c-9.383,-0.5 -18.441,-0.211 -27.303,0.429c0,0 -0.294,-16.981 1.277,-18.345c1.571,-1.363 -6.714,0.224 -6.714,0.224Z"/></clipPath><g clip-path="url(#_clip1)"><path d="M31.327,63.912c14.046,-1.205 27.49,-1.34 40.392,-0.494c0.514,13.454 -0.551,25.852 -3.231,37.169c-14.513,1.744 -28.708,2.051 -42.637,1.156c0.619,-13.483 2.344,-26.118 5.476,-37.831Z" style="fill:#008fd7;"/><clipPath id="_clip2"><path d="M31.327,63.912c14.046,-1.205 27.49,-1.34 40.392,-0.494c0.514,13.454 -0.551,25.852 -3.231,37.169c-14.513,1.744 -28.708,2.051 -42.637,1.156c0.619,-13.483 2.344,-26.118 5.476,-37.831Z"/></clipPath><g clip-path="url(#_clip2)"><path d="M40.126,77.465l5.283,-0.206c0.699,-0.027 1.334,0.025 1.904,0.157c0.57,0.132 1.051,0.332 1.445,0.599c0.394,0.267 0.688,0.593 0.884,0.98c0.195,0.386 0.272,0.816 0.23,1.291c-0.032,0.362 -0.097,0.687 -0.195,0.973c-0.098,0.286 -0.25,0.553 -0.456,0.801c-0.206,0.247 -0.472,0.484 -0.798,0.71c-0.326,0.227 -0.733,0.461 -1.221,0.703l-0.003,0.04c0.462,0.054 0.872,0.163 1.233,0.326c0.36,0.163 0.661,0.376 0.904,0.639c0.243,0.263 0.42,0.575 0.533,0.935c0.112,0.36 0.149,0.757 0.111,1.192c-0.044,0.494 -0.193,0.962 -0.446,1.402c-0.252,0.44 -0.593,0.827 -1.02,1.162c-0.428,0.335 -0.931,0.606 -1.512,0.813c-0.58,0.206 -1.22,0.323 -1.919,0.351l-6.124,0.239l1.167,-13.107Zm1.681,5.815l2.81,-0.11c0.442,-0.017 0.84,-0.095 1.194,-0.234c0.354,-0.138 0.659,-0.322 0.916,-0.552c0.258,-0.231 0.461,-0.501 0.61,-0.812c0.149,-0.311 0.24,-0.645 0.271,-1.001c0.035,-0.382 -0.007,-0.727 -0.124,-1.034c-0.118,-0.307 -0.32,-0.567 -0.606,-0.779c-0.287,-0.212 -0.661,-0.368 -1.122,-0.469c-0.461,-0.1 -1.021,-0.137 -1.681,-0.111l-1.82,0.071l-0.448,5.031Zm-0.556,6.247l2.384,-0.093c0.64,-0.025 1.201,-0.108 1.683,-0.248c0.483,-0.141 0.887,-0.327 1.213,-0.56c0.327,-0.233 0.578,-0.507 0.754,-0.822c0.176,-0.316 0.28,-0.658 0.313,-1.027c0.037,-0.415 0.005,-0.798 -0.095,-1.149c-0.1,-0.35 -0.289,-0.65 -0.565,-0.899c-0.277,-0.248 -0.651,-0.439 -1.123,-0.571c-0.471,-0.133 -1.059,-0.186 -1.765,-0.158l-2.315,0.09l-0.484,5.437Z" style="fill:#fff;fill-rule:nonzero;stroke:#fff;stroke-width:1.88px;"/><path d="M61.99,76.611l-0.076,0.85l-6.401,0.25l-0.417,4.685l4.63,-0.18l-0.075,0.85l-4.63,0.181l-0.599,6.721l-2.206,0.086l1.167,-13.107l8.607,-0.336Z" style="fill:#fff;fill-rule:nonzero;stroke:#fff;stroke-width:1.88px;"/></g><path d="M31.327,63.912c14.046,-1.205 27.49,-1.34 40.392,-0.494c0.514,13.454 -0.551,25.852 -3.231,37.169c-14.513,1.744 -28.708,2.051 -42.637,1.156c0.619,-13.483 2.344,-26.118 5.476,-37.831Z" style="fill:none;stroke:#000;stroke-width:1.88px;stroke-linecap:round;stroke-miterlimit:1.5;"/><path d="M36.594,67.748c0.774,-0.107 1.493,0.453 1.605,1.251c0.113,0.798 -0.425,1.533 -1.198,1.64c-0.774,0.107 -1.494,-0.454 -1.606,-1.252c-0.112,-0.798 0.425,-1.532 1.199,-1.639Z" style="fill:#ffc829;stroke:#000;stroke-width:1.88px;stroke-linecap:round;stroke-miterlimit:1.5;"/><path d="M66.695,66.534c0.774,-0.107 1.493,0.454 1.606,1.252c0.112,0.798 -0.425,1.532 -1.199,1.639c-0.774,0.107 -1.494,-0.454 -1.606,-1.252c-0.112,-0.797 0.425,-1.532 1.199,-1.639Z" style="fill:#ffc829;stroke:#000;stroke-width:1.88px;stroke-linecap:round;stroke-miterlimit:1.5;"/></g><path d="M32.009,45.321c0,0 0.374,7.733 -5.958,17.659c-15.784,24.741 -20.424,14.07 -20.424,14.07c-2.684,10.442 -5.725,32.832 5.421,57.236c19.922,2.382 41.871,2.122 63.322,-0.634c11.939,-17.357 16.702,-35.385 18.528,-54.302c-12.312,-3.801 -21.356,-11.336 -23.667,-33.616c-2.314,-0.186 -2.128,-0.238 -5.57,-0.762l1.088,18.041c-9.383,-0.5 -18.441,-0.211 -27.303,0.429c0,0 -0.294,-16.981 1.277,-18.345c1.571,-1.363 -6.714,0.224 -6.714,0.224Z" style="fill:none;stroke:#000;stroke-width:1.88px;stroke-linecap:round;stroke-miterlimit:1.5;"/><path d="M90.421,44.693c0.228,-1.168 0.386,-2.35 0.475,-3.54c1.378,-18.464 -14.025,-35.292 -34.374,-37.557c-20.349,-2.264 -37.988,10.888 -39.366,29.352c-0.314,4.211 0.251,8.482 1.665,12.587l71.6,-0.842Z" style="fill:#c2c2c2;"/><clipPath id="_clip3"><path d="M90.421,44.693c0.228,-1.168 0.386,-2.35 0.475,-3.54c1.378,-18.464 -14.025,-35.292 -34.374,-37.557c-20.349,-2.264 -37.988,10.888 -39.366,29.352c-0.314,4.211 0.251,8.482 1.665,12.587l71.6,-0.842Z"/></clipPath><g clip-path="url(#_clip3)"><path d="M40.905,31.377c-0.562,0.423 -0.875,0.875 -0.926,1.338c-0.269,2.456 6.751,4.688 15.668,4.98c8.917,0.292 16.375,-1.465 16.645,-3.922c0.061,-0.563 -0.265,-1.134 -0.963,-1.682l-30.424,-0.714Z" style="fill:#191919;"/><clipPath id="_clip4"><path d="M40.905,31.377c-0.562,0.423 -0.875,0.875 -0.926,1.338c-0.269,2.456 6.751,4.688 15.668,4.98c8.917,0.292 16.375,-1.465 16.645,-3.922c0.061,-0.563 -0.265,-1.134 -0.963,-1.682l-30.424,-0.714Z"/></clipPath><g clip-path="url(#_clip4)"><path d="M45.903,33.003c0.019,1.525 4.408,2.878 9.923,3.059c5.645,0.185 10.367,-0.928 10.537,-2.483c0.004,-0.032 0.005,-0.064 0.005,-0.095l-20.465,-0.481Z" style="fill:#fff;"/></g><path d="M49.991,24.58c-0.138,-4.039 -2.848,-7.418 -6.254,-7.797c-3.639,-0.405 -6.749,2.756 -6.939,7.054c-0.011,0.24 -0.012,0.482 -0.004,0.724l13.197,0.019Z" style="fill:#191919;"/><clipPath id="_clip5"><path d="M49.991,24.58c-0.138,-4.039 -2.848,-7.418 -6.254,-7.797c-3.639,-0.405 -6.749,2.756 -6.939,7.054c-0.011,0.24 -0.012,0.482 -0.004,0.724l13.197,0.019Z"/></clipPath><g clip-path="url(#_clip5)"><path d="M42.749,23.152c0.226,-1.975 0.106,-3.507 -0.278,-3.55c-0.414,-0.046 -0.984,1.648 -1.272,3.781c-0.018,0.133 -0.034,0.266 -0.05,0.399l1.6,-0.63Z" style="fill:#fff;"/></g><path d="M71.541,25.245c-0.131,-3.819 -2.693,-7.013 -5.912,-7.372c-3.442,-0.383 -6.381,2.606 -6.561,6.669c-0.01,0.227 -0.011,0.456 -0.004,0.685l12.477,0.018Z" style="fill:#191919;"/><clipPath id="_clip6"><path d="M71.541,25.245c-0.131,-3.819 -2.693,-7.013 -5.912,-7.372c-3.442,-0.383 -6.381,2.606 -6.561,6.669c-0.01,0.227 -0.011,0.456 -0.004,0.685l12.477,0.018Z"/></clipPath><g clip-path="url(#_clip6)"><path d="M64.49,23.879c0.219,-1.975 0.039,-3.515 -0.416,-3.565c-0.49,-0.055 -1.122,1.633 -1.41,3.766c-0.017,0.133 -0.034,0.266 -0.049,0.399l1.875,-0.6Z" style="fill:#fff;"/></g></g><path d="M52.54,0.855l0.248,0.002l0.249,0.004l0.249,0.005l0.249,0.007l0.249,0.008l0.25,0.01l0.25,0.011l0.25,0.013l0.251,0.014l0.251,0.015l0.251,0.017l0.252,0.019l0.251,0.02l0.252,0.021l0.253,0.023l0.252,0.024l0.253,0.026l0.253,0.027l0.252,0.029l0.252,0.03l0.251,0.032l0.251,0.033l0.251,0.034l0.25,0.036l0.249,0.037l0.249,0.038l0.249,0.04l0.248,0.041l0.247,0.043l0.247,0.044l0.246,0.045l0.246,0.047l0.246,0.048l0.245,0.049l0.244,0.051l0.244,0.052l0.243,0.054l0.243,0.054l0.242,0.056l0.242,0.058l0.241,0.058l0.24,0.06l0.24,0.061l0.239,0.063l0.239,0.064l0.238,0.065l0.238,0.066l0.237,0.068l0.236,0.069l0.236,0.07l0.235,0.072l0.235,0.072l0.234,0.074l0.233,0.075l0.233,0.077l0.232,0.078l0.231,0.079l0.231,0.08l0.23,0.081l0.217,0.078l0.012,0.005l0.229,0.084l0.228,0.086l0.227,0.086l0.227,0.088l0.226,0.089l0.225,0.09l0.225,0.092l0.224,0.092l0.223,0.094l0.223,0.095l0.222,0.096l0.221,0.098l0.22,0.098l0.22,0.1l0.219,0.1l0.218,0.102l0.218,0.103l0.216,0.104l0.216,0.106l0.216,0.106l0.214,0.108l0.214,0.108l0.213,0.11l0.212,0.111l0.212,0.112l0.211,0.113l0.21,0.114l0.209,0.115l0.208,0.116l0.208,0.118l0.207,0.118l0.206,0.12l0.205,0.12l0.204,0.122l0.204,0.123l0.203,0.123l0.202,0.125l0.201,0.126l0.2,0.127l0.199,0.128l0.199,0.129l0.057,0.037l0.141,0.093l0.196,0.131l0.196,0.133l0.195,0.133l0.194,0.134l0.193,0.136l0.193,0.136l0.191,0.138l0.191,0.138l0.189,0.139l0.189,0.141l0.188,0.141l0.187,0.142l0.186,0.143l0.185,0.144l0.184,0.145l0.184,0.146l0.182,0.147l0.182,0.148l0.18,0.149l0.18,0.15l0.179,0.15l0.177,0.152l0.177,0.153l0.176,0.153l0.175,0.154l0.174,0.155l0.173,0.157l0.172,0.157l0.171,0.157l0.17,0.159l0.169,0.16l0.168,0.16l0.109,0.106l0.058,0.056l0.165,0.163l0.164,0.164l0.163,0.165l0.162,0.166l0.161,0.167l0.16,0.167l0.159,0.168l0.157,0.169l0.157,0.17l0.156,0.171l0.155,0.171l0.154,0.172l0.152,0.174l0.132,0.151l0.02,0.023l0.149,0.175l0.148,0.177l0.147,0.177l0.145,0.178l0.145,0.179l0.144,0.18l0.142,0.18l0.142,0.181l0.14,0.182l0.139,0.182l0.138,0.184l0.137,0.184l0.136,0.184l0.13,0.179l0.005,0.007l0.131,0.187l0.131,0.188l0.129,0.189l0.128,0.19l0.127,0.19l0.125,0.191l0.125,0.191l0.123,0.192l0.122,0.193l0.121,0.193l0.12,0.194l0.118,0.195l0.118,0.195l0.116,0.196l0.115,0.197l0.113,0.197l0.113,0.197l0.111,0.199l0.11,0.199l0.108,0.199l0.108,0.2l0.106,0.201l0.105,0.201l0.104,0.202l0.102,0.202l0.101,0.203l0.1,0.203l0.037,0.078l0.059,0.127l0.094,0.207l0.093,0.206l0.091,0.207l0.09,0.208l0.088,0.208l0.088,0.209l0.086,0.209l0.084,0.209l0.083,0.21l0.082,0.211l0.081,0.211l0.079,0.211l0.078,0.212l0.076,0.212l0.076,0.213l0.073,0.213l0.073,0.213l0.071,0.214l0.069,0.214l0.069,0.215l0.067,0.215l0.065,0.215l0.064,0.216l0.063,0.216l0.061,0.217l0.06,0.216l0.058,0.218l0.057,0.217l0.056,0.218l0.054,0.218l0.053,0.219l0.051,0.219l0.05,0.219l0.048,0.22l0.047,0.219l0.046,0.221l0.044,0.22l0.043,0.221l0.041,0.221l0.04,0.221l0.038,0.222l0.037,0.222l0.035,0.222l0.034,0.222l0.032,0.223l0.031,0.223l0.029,0.223l0.028,0.223l0.001,0.006l0.021,0.218l0.021,0.224l0.02,0.225l0.018,0.225l0.016,0.224l0.015,0.225l0.013,0.225l0.012,0.226l0.01,0.225l0.008,0.225l0.008,0.226l0.005,0.226l0.004,0.225l0.002,0.226l0.001,0.226l0,0.226l-0.003,0.226l-0.003,0.227l-0.006,0.226l-0.007,0.226l-0.008,0.226l-0.01,0.227l-0.012,0.226l-0.013,0.227l-0.015,0.226l-0.017,0.227l-0.018,0.226l-0.019,0.227l-0.022,0.226l-0.022,0.227l-0.025,0.226l-0.026,0.227l-0.028,0.226l-0.029,0.227l-0.023,0.165l-0.01,0.068l-0.036,0.233l-0.038,0.232l-0.04,0.232l-0.042,0.232l-0.043,0.231l-0.045,0.23l-0.047,0.23l-0.048,0.23l-0.05,0.229l-0.052,0.228l-0.053,0.228l-0.055,0.227l-0.057,0.227l-0.058,0.226l-0.016,0.061l-0.044,0.16l-1.292,-0.247l1.292,0.247l-0.061,0.217l-0.097,0.203l-0.131,0.183l-0.159,0.159l-0.184,0.129l-0.204,0.096l-0.217,0.059l-0.224,0.022l-0.816,0.018l-21.018,0.446l-49.757,1.033l-0.308,-0.018l-0.302,-0.066l-0.288,-0.113l-0.11,-0.065l-0.157,-0.092l-0.24,-0.196l-0.206,-0.232l-0.168,-0.262l-0.125,-0.284l0,0l-0.069,-0.198l-0.07,-0.204l-0.069,-0.204l-0.067,-0.205l-0.066,-0.205l-0.065,-0.205l-0.063,-0.205l-0.062,-0.205l-0.061,-0.206l-0.06,-0.206l-0.058,-0.207l-0.056,-0.206l-0.056,-0.207l-0.054,-0.207l-0.053,-0.207l-0.052,-0.208l-0.05,-0.207l-0.049,-0.208l-0.047,-0.208l-0.047,-0.208l-0.044,-0.209l-0.044,-0.208l-0.042,-0.209l-0.041,-0.209l-0.04,-0.209l-0.038,-0.209l-0.037,-0.21l-0.035,-0.209l-0.035,-0.21l-0.033,-0.21l-0.031,-0.21l-0.03,-0.21l-0.029,-0.21l-0.028,-0.211l-0.026,-0.21l-0.025,-0.211l-0.023,-0.211l-0.022,-0.21l-0.021,-0.211l-0.019,-0.211l-0.018,-0.211l-0.017,-0.211l-0.016,-0.211l-0.014,-0.211l-0.012,-0.212l-0.011,-0.211l-0.01,-0.211l-0.009,-0.212l-0.007,-0.211l-0.006,-0.212l-0.004,-0.211l-0.004,-0.212l-0.001,-0.211l-0.001,-0.211l0.001,-0.212l0.003,-0.211l0.003,-0.212l0.006,-0.211l0.006,-0.212l0.008,-0.211l0.009,-0.211l0.011,-0.212l0.012,-0.211l0.013,-0.211l0.016,-0.231l0.018,-0.23l0.019,-0.23l0.021,-0.23l0.023,-0.229l0.024,-0.229l0.026,-0.228l0.027,-0.227l0.029,-0.227l0.03,-0.227l0.032,-0.226l0.033,-0.225l0.035,-0.225l0.037,-0.225l0.038,-0.224l0.039,-0.223l0.041,-0.223l0.043,-0.222l0.044,-0.222l0.046,-0.221l0.047,-0.221l0.048,-0.22l0.051,-0.22l0.051,-0.219l0.053,-0.218l0.055,-0.218l0.056,-0.217l0.057,-0.216l0.059,-0.216l0.061,-0.216l0.061,-0.215l0.064,-0.214l0.065,-0.213l0.066,-0.213l0.067,-0.212l0.069,-0.212l0.071,-0.211l0.072,-0.21l0.073,-0.21l0.075,-0.209l0.076,-0.209l0.077,-0.207l0.079,-0.207l0.08,-0.207l0.082,-0.206l0.083,-0.205l0.084,-0.204l0.086,-0.204l0.087,-0.203l0.088,-0.202l0.09,-0.202l0.091,-0.2l0.092,-0.201l0.094,-0.199l0.095,-0.199l0.097,-0.198l0.097,-0.197l0.099,-0.197l0.101,-0.195l0.101,-0.195l0.103,-0.195l0.104,-0.193l0.106,-0.193l0.106,-0.192l0.108,-0.191l0.11,-0.191l0.11,-0.19l0.112,-0.188l0.113,-0.189l0.053,-0.086l0.061,-0.101l0.116,-0.187l0.117,-0.185l0.118,-0.185l0.119,-0.184l0.121,-0.184l0.121,-0.182l0.123,-0.182l0.124,-0.181l0.125,-0.18l0.127,-0.179l0.128,-0.178l0.128,-0.178l0.13,-0.176l0.132,-0.176l0.132,-0.175l0.133,-0.174l0.135,-0.174l0.136,-0.172l0.137,-0.172l0.138,-0.17l0.139,-0.17l0.14,-0.169l0.141,-0.168l0.143,-0.167l0.143,-0.167l0.145,-0.165l0.146,-0.164l0.147,-0.164l0.148,-0.163l0.149,-0.161l0.15,-0.161l0.151,-0.16l0.152,-0.159l0.153,-0.158l0.155,-0.158l0.155,-0.156l0.156,-0.155l0.158,-0.155l0.158,-0.153l0.16,-0.153l0.16,-0.151l0.162,-0.151l0.162,-0.149l0.164,-0.149l0.164,-0.148l0.166,-0.146l0.166,-0.146l0.168,-0.145l0.168,-0.144l0.17,-0.143l0.17,-0.141l0.171,-0.141l0.173,-0.14l0.173,-0.139l0.174,-0.138l0.175,-0.137l0.176,-0.136l0.177,-0.134l0.178,-0.134l0.179,-0.133l0.18,-0.132l0.18,-0.131l0.182,-0.129l0.182,-0.129l0.183,-0.128l0.185,-0.126l0.185,-0.126l0.186,-0.124l0.186,-0.124l0.188,-0.122l0.189,-0.121l0.189,-0.121l0.19,-0.119l0.191,-0.118l0.192,-0.117l0.193,-0.116l0.194,-0.115l0.194,-0.114l0.195,-0.112l0.197,-0.112l0.196,-0.111l0.198,-0.109l0.199,-0.108l0.199,-0.107l0.2,-0.107l0.201,-0.104l0.201,-0.104l0.203,-0.103l0.203,-0.102l0.204,-0.1l0.204,-0.099l0.206,-0.099l0.206,-0.097l0.207,-0.096l0.207,-0.094l0.209,-0.094l0.209,-0.092l0.21,-0.092l0.21,-0.09l0.211,-0.089l0.212,-0.088l0.213,-0.086l0.213,-0.086l0.214,-0.084l0.215,-0.083l0.216,-0.082l0.216,-0.08l0.216,-0.08l0.218,-0.078l0.218,-0.077l0.219,-0.076l0.219,-0.075l0.22,-0.073l0.221,-0.072l0.221,-0.071l0.222,-0.07l0.222,-0.069l0.223,-0.067l0.224,-0.066l0.225,-0.065l0.225,-0.063l0.225,-0.063l0.226,-0.061l0.227,-0.059l0.227,-0.059l0.228,-0.057l0.229,-0.056l0.229,-0.055l0.132,-0.031l0.098,-0.022l0.23,-0.052l0.231,-0.051l0.231,-0.049l0.232,-0.048l0.232,-0.047l0.233,-0.045l0.234,-0.044l0.234,-0.043l0.234,-0.041l0.235,-0.041l0.236,-0.038l0.236,-0.038l0.236,-0.036l0.237,-0.035l0.237,-0.033l0.238,-0.033l0.239,-0.031l0.239,-0.029l0.239,-0.028l0.24,-0.027l0.24,-0.025l0.241,-0.025l0.241,-0.022l0.241,-0.022l0.242,-0.02l0.243,-0.018l0.242,-0.017l0.244,-0.016l0.243,-0.015l0.244,-0.013l0.245,-0.011l0.244,-0.011l0.246,-0.009l0.245,-0.007l0.246,-0.006l0.246,-0.005l0.247,-0.003l0.247,-0.002l0.248,0l0.247,0.001Zm-0.939,4.976l-0.218,0.001l-0.217,0.002l-0.217,0.004l-0.217,0.005l-0.216,0.007l-0.216,0.007l-0.216,0.009l-0.215,0.01l-0.215,0.011l-0.214,0.012l-0.214,0.014l-0.214,0.015l-0.213,0.016l-0.213,0.017l-0.213,0.019l-0.212,0.02l-0.212,0.02l-0.211,0.023l-0.211,0.023l-0.211,0.024l-0.21,0.026l-0.209,0.027l-0.21,0.028l-0.208,0.029l-0.209,0.03l-0.208,0.032l-0.207,0.033l-0.207,0.033l-0.206,0.035l-0.207,0.037l-0.205,0.037l-0.205,0.038l-0.205,0.04l-0.204,0.041l-0.204,0.042l-0.203,0.043l-0.086,0.018l-0.117,0.026l-0.202,0.045l-0.202,0.046l-0.201,0.047l-0.201,0.048l-0.2,0.05l-0.2,0.05l-0.199,0.052l-0.198,0.053l-0.199,0.054l-0.197,0.055l-0.197,0.056l-0.197,0.057l-0.196,0.058l-0.195,0.059l-0.195,0.061l-0.194,0.061l-0.194,0.063l-0.193,0.063l-0.192,0.065l-0.192,0.066l-0.192,0.066l-0.191,0.068l-0.19,0.069l-0.189,0.07l-0.189,0.071l-0.189,0.072l-0.187,0.073l-0.187,0.074l-0.187,0.075l-0.186,0.076l-0.185,0.078l-0.185,0.078l-0.184,0.079l-0.183,0.08l-0.183,0.081l-0.182,0.083l-0.181,0.083l-0.181,0.084l-0.18,0.085l-0.179,0.086l-0.179,0.088l-0.178,0.088l-0.177,0.089l-0.177,0.09l-0.175,0.091l-0.176,0.092l-0.174,0.093l-0.174,0.094l-0.173,0.095l-0.172,0.096l-0.172,0.097l-0.171,0.098l-0.17,0.099l-0.169,0.099l-0.169,0.101l-0.168,0.102l-0.167,0.102l-0.167,0.103l-0.165,0.105l-0.165,0.105l-0.164,0.106l-0.164,0.107l-0.162,0.108l-0.162,0.109l-0.161,0.11l-0.16,0.111l-0.159,0.111l-0.159,0.113l-0.158,0.113l-0.157,0.115l-0.156,0.115l-0.155,0.116l-0.155,0.117l-0.154,0.118l-0.152,0.118l-0.152,0.12l-0.152,0.12l-0.15,0.121l-0.149,0.122l-0.149,0.123l-0.148,0.124l-0.147,0.125l-0.146,0.125l-0.145,0.126l-0.144,0.128l-0.144,0.128l-0.142,0.128l-0.142,0.13l-0.141,0.13l-0.139,0.132l-0.139,0.132l-0.138,0.132l-0.138,0.134l-0.136,0.135l-0.135,0.135l-0.134,0.136l-0.134,0.137l-0.132,0.137l-0.132,0.139l-0.13,0.139l-0.13,0.14l-0.129,0.141l-0.128,0.141l-0.126,0.142l-0.126,0.143l-0.125,0.144l-0.124,0.145l-0.123,0.145l-0.122,0.146l-0.121,0.147l-0.12,0.148l-0.119,0.148l-0.118,0.149l-0.117,0.15l-0.116,0.15l-0.115,0.151l-0.114,0.152l-0.113,0.153l-0.111,0.153l-0.111,0.154l-0.11,0.155l-0.109,0.156l-0.108,0.156l-0.106,0.157l-0.106,0.158l-0.105,0.158l-0.103,0.159l-0.103,0.16l-0.054,0.086l-0.047,0.074l-0.101,0.161l-0.099,0.162l-0.099,0.162l-0.097,0.163l-0.096,0.164l-0.095,0.164l-0.094,0.165l-0.093,0.166l-0.092,0.166l-0.091,0.167l-0.089,0.168l-0.089,0.168l-0.087,0.169l-0.086,0.17l-0.085,0.17l-0.084,0.171l-0.083,0.172l-0.082,0.172l-0.08,0.173l-0.08,0.173l-0.078,0.174l-0.077,0.175l-0.076,0.175l-0.075,0.176l-0.073,0.177l-0.073,0.177l-0.071,0.178l-0.07,0.178l-0.069,0.179l-0.068,0.18l-0.066,0.18l-0.065,0.181l-0.064,0.181l-0.063,0.182l-0.062,0.183l-0.06,0.183l-0.059,0.184l-0.058,0.184l-0.057,0.185l-0.056,0.186l-0.054,0.186l-0.053,0.187l-0.052,0.187l-0.05,0.188l-0.049,0.188l-0.048,0.189l-0.047,0.19l-0.046,0.19l-0.044,0.19l-0.043,0.191l-0.041,0.192l-0.041,0.193l-0.039,0.192l-0.037,0.194l-0.037,0.194l-0.035,0.194l-0.033,0.195l-0.033,0.196l-0.031,0.196l-0.03,0.196l-0.028,0.198l-0.027,0.197l-0.026,0.199l-0.025,0.198l-0.023,0.2l-0.021,0.199l-0.021,0.201l-0.019,0.2l-0.017,0.202l-0.015,0.183l-0.014,0.184l-0.012,0.184l-0.011,0.184l-0.01,0.184l-0.009,0.184l-0.008,0.185l-0.006,0.184l-0.005,0.185l-0.005,0.184l-0.002,0.185l-0.002,0.184l0,0.185l0,0.185l0.002,0.184l0.003,0.185l0.005,0.185l0.005,0.185l0.007,0.185l0.008,0.185l0.009,0.185l0.01,0.185l0.011,0.185l0.013,0.185l0.014,0.185l0.015,0.185l0.016,0.185l0.017,0.185l0.019,0.185l0.02,0.185l0.021,0.185l0.022,0.185l0.023,0.185l0.025,0.185l0.025,0.185l0.027,0.185l0.028,0.184l0.03,0.185l0.03,0.185l0.032,0.184l0.033,0.185l0.034,0.184l0.035,0.185l0.036,0.184l0.038,0.184l0.039,0.184l0.039,0.184l0.042,0.184l0.042,0.184l0.043,0.183l0.045,0.184l0.046,0.183l0.047,0.183l0.048,0.184l0.05,0.183l0.05,0.182l0.034,0.121l48.848,-0.131l20.098,-0.041l0,-0.003l0.016,-0.213l0.015,-0.212l0.012,-0.213l0.012,-0.213l0.009,-0.213l0.008,-0.213l0.006,-0.213l0.005,-0.213l0.004,-0.213l0.001,-0.212l0,-0.062l0.002,-0.151l0.002,-0.206l0,-0.206l-0.002,-0.206l-0.002,-0.205l-0.005,-0.204l-0.005,-0.205l-0.008,-0.204l-0.008,-0.204l-0.01,-0.203l-0.012,-0.203l-0.012,-0.203l-0.015,-0.202l-0.015,-0.202l-0.017,-0.201l-0.018,-0.201l-0.02,-0.201l-0.021,-0.201l-0.023,-0.2l-0.023,-0.199l-0.026,-0.199l-0.026,-0.199l-0.028,-0.199l-0.029,-0.198l-0.031,-0.197l-0.031,-0.197l-0.034,-0.197l-0.034,-0.196l-0.036,-0.196l-0.037,-0.196l-0.038,-0.195l-0.04,-0.195l-0.041,-0.194l-0.042,-0.194l-0.042,-0.187l-0.001,-0.006l-0.041,-0.194l-0.042,-0.193l-0.044,-0.193l-0.044,-0.192l-0.046,-0.192l-0.048,-0.192l-0.048,-0.191l-0.05,-0.191l-0.051,-0.19l-0.052,-0.19l-0.053,-0.189l-0.055,-0.19l-0.056,-0.188l-0.057,-0.188l-0.058,-0.188l-0.06,-0.188l-0.061,-0.187l-0.062,-0.186l-0.063,-0.186l-0.064,-0.186l-0.066,-0.185l-0.067,-0.184l-0.068,-0.185l-0.069,-0.183l-0.07,-0.184l-0.071,-0.182l-0.073,-0.183l-0.074,-0.182l-0.075,-0.181l-0.076,-0.181l-0.077,-0.18l-0.079,-0.18l-0.079,-0.179l-0.081,-0.179l-0.082,-0.179l-0.083,-0.177l-0.084,-0.178l-0.085,-0.177l-0.086,-0.176l-0.088,-0.176l-0.088,-0.175l-0.09,-0.175l-0.091,-0.174l-0.092,-0.173l-0.093,-0.173l-0.094,-0.173l-0.095,-0.172l-0.096,-0.171l-0.06,-0.106l-0.036,-0.066l-0.095,-0.172l-0.096,-0.172l-0.097,-0.171l-0.098,-0.17l-0.099,-0.17l-0.101,-0.17l-0.101,-0.168l-0.102,-0.169l-0.104,-0.167l-0.105,-0.168l-0.105,-0.166l-0.107,-0.166l-0.107,-0.166l-0.109,-0.165l-0.11,-0.164l-0.111,-0.164l-0.112,-0.163l-0.112,-0.163l-0.114,-0.162l-0.115,-0.161l-0.116,-0.161l-0.117,-0.16l-0.118,-0.159l-0.119,-0.159l-0.12,-0.159l-0.12,-0.157l-0.122,-0.157l-0.005,-0.006l-0.116,-0.152l-0.122,-0.157l-0.123,-0.157l-0.124,-0.156l-0.125,-0.155l-0.126,-0.155l-0.127,-0.154l-0.127,-0.153l-0.129,-0.153l-0.13,-0.152l-0.13,-0.152l-0.132,-0.15l-0.133,-0.15l-0.133,-0.15l-0.018,-0.019l-0.115,-0.131l-0.134,-0.149l-0.135,-0.149l-0.136,-0.148l-0.137,-0.147l-0.138,-0.146l-0.139,-0.146l-0.139,-0.145l-0.141,-0.145l-0.141,-0.144l-0.143,-0.143l-0.143,-0.142l-0.144,-0.142l-0.145,-0.141l-0.051,-0.048l-0.095,-0.093l-0.146,-0.14l-0.147,-0.14l-0.147,-0.139l-0.149,-0.138l-0.149,-0.138l-0.151,-0.137l-0.151,-0.136l-0.152,-0.135l-0.153,-0.135l-0.154,-0.134l-0.155,-0.133l-0.155,-0.132l-0.157,-0.131l-0.157,-0.131l-0.158,-0.13l-0.159,-0.129l-0.16,-0.129l-0.161,-0.127l-0.161,-0.127l-0.162,-0.126l-0.164,-0.125l-0.164,-0.124l-0.164,-0.124l-0.166,-0.122l-0.166,-0.122l-0.167,-0.121l-0.168,-0.12l-0.169,-0.12l-0.17,-0.118l-0.17,-0.118l-0.171,-0.117l-0.172,-0.116l-0.123,-0.082l-0.05,-0.033l-0.173,-0.114l-0.174,-0.114l-0.175,-0.113l-0.175,-0.112l-0.176,-0.111l-0.177,-0.11l-0.178,-0.109l-0.178,-0.109l-0.18,-0.107l-0.18,-0.107l-0.18,-0.106l-0.182,-0.104l-0.182,-0.104l-0.183,-0.103l-0.183,-0.102l-0.185,-0.101l-0.185,-0.1l-0.185,-0.099l-0.187,-0.098l-0.187,-0.097l-0.188,-0.097l-0.188,-0.095l-0.189,-0.094l-0.19,-0.094l-0.191,-0.092l-0.191,-0.091l-0.192,-0.091l-0.192,-0.089l-0.194,-0.089l-0.193,-0.087l-0.195,-0.086l-0.195,-0.086l-0.196,-0.084l-0.196,-0.083l-0.198,-0.083l-0.197,-0.081l-0.199,-0.08l-0.199,-0.08l-0.199,-0.078l-0.201,-0.077l-0.2,-0.076l-0.011,-0.004l-0.191,-0.071l-0.202,-0.075l-0.202,-0.073l-0.203,-0.072l-0.204,-0.071l-0.204,-0.071l-0.205,-0.069l-0.206,-0.067l-0.206,-0.067l-0.207,-0.066l-0.207,-0.065l-0.208,-0.063l-0.208,-0.063l-0.209,-0.061l-0.209,-0.06l-0.211,-0.059l-0.21,-0.058l-0.211,-0.057l-0.212,-0.056l-0.212,-0.054l-0.213,-0.054l-0.213,-0.052l-0.214,-0.051l-0.215,-0.05l-0.215,-0.049l-0.215,-0.047l-0.216,-0.047l-0.217,-0.045l-0.217,-0.044l-0.217,-0.043l-0.218,-0.042l-0.219,-0.04l-0.218,-0.04l-0.22,-0.038l-0.22,-0.037l-0.22,-0.036l-0.221,-0.034l-0.222,-0.033l-0.222,-0.032l-0.222,-0.031l-0.223,-0.03l-0.223,-0.028l-0.224,-0.027l-0.224,-0.026l-0.223,-0.024l-0.223,-0.024l-0.224,-0.021l-0.222,-0.021l-0.223,-0.019l-0.222,-0.018l-0.222,-0.017l-0.222,-0.015l-0.221,-0.014l-0.221,-0.013l-0.221,-0.011l-0.221,-0.01l-0.22,-0.009l-0.22,-0.008l-0.22,-0.006l-0.219,-0.005l-0.219,-0.004l-0.219,-0.002l-0.218,-0.001l-0.218,0Z"/></g></g></svg>