<svg version="1.1" id="Layer_1" xmlns="http://www.w3.org/2000/svg" x="0" y="0" width="385.1" height="300" viewBox="-2 -131 385.1 300" xml:space="preserve"><style>.st1{fill:#c1000d}.st1,.st2,.st3,.st4,.st5{fill-rule:evenodd;clip-rule:evenodd}.st2{fill:#a1000b}.st3{fill:#870009}.st4{fill:#fff}.st5{fill:#d9d9d9}</style><path d="M170.7-103.4l-1.9-.6-12.7 38.6 1.9.6 5.5-16.8 20.9 6.9 7.2-21.9-20.9-6.8zm11.8 18l-4.2-1.4-1.4 4.2-3.6-1.2 1.4-4.2-4.2-1.4 1.2-3.6 4.2 1.4 1.4-4.2 3.6 1.2-1.4 4.2 4.2 1.4-1.2 3.6z" fill="#c1000d"/><path class="st1" d="M18 152.4l133.4-231 133.3 231z"/><path class="st1" d="M160.2 152.4L262.6-25 365 152.4z"/><path class="st2" d="M151.4-78.6l33.4 188.4 37.7-65.2z"/><path class="st3" d="M151.4-78.6L207.8 70l14.7-25.4z"/><path class="st2" d="M262.6-25l32 177.4H365z"/><path class="st3" d="M262.6-25l78.9 177.4H365z"/><path class="st4" d="M249.1 27.6l5.2 4.4 12.2-7.9 12.4 12.2 3.6-5.7 7.1 1.9-27-46.8-27.5 47.7z"/><path class="st5" d="M272.5 30l-7.1-39.5 24.2 42-7.1-1.9-3.6 5.7z"/><path class="st4" d="M133.7-7.7l6.9 5.8 15.9-10.4 16 15.9 4.7-7.4 9.3 2.4-35.1-60.9L115.5-.2z"/><path class="st5" d="M164.2-4.6l-8.8-50.6 31.1 53.8-9.3-2.4-4.7 7.4z"/><path class="st3" d="M176.2 113.2c-21.6 0-39.1 17.5-39.1 39.1h78.2c.1-21.5-17.4-39.1-39.1-39.1z"/><path d="M182.2 119.2c-18.3 0-33.2 14.9-33.2 33.2h66.4c0-18.4-14.9-33.2-33.2-33.2z" fill-rule="evenodd" clip-rule="evenodd" fill="#610006"/></svg>