<?xml version="1.0" encoding="UTF-8" standalone="no"?><!DOCTYPE svg PUBLIC "-//W3C//DTD SVG 1.1//EN" "http://www.w3.org/Graphics/SVG/1.1/DTD/svg11.dtd"><svg width="100%" height="100%" viewBox="0 0 867 866" version="1.1" xmlns="http://www.w3.org/2000/svg" xmlns:xlink="http://www.w3.org/1999/xlink" xml:space="preserve" xmlns:serif="http://www.serif.com/" style="fill-rule:evenodd;clip-rule:evenodd;stroke-linejoin:round;stroke-miterlimit:1.41421;"><rect id="Artboard1" x="0" y="0" width="866.46" height="865.248" style="fill:none;"/><path d="M433.226,6.872c-235.134,0 -425.75,190.617 -425.75,425.754c0,215.888 160.691,394.221 368.987,421.975l0,-85.791c0,-24.188 -15.258,-45.93 -38.187,-53.625c-120.184,-40.371 -206.154,-155.242 -202.988,-289.742c3.85,-163.742 137.233,-292.483 301.017,-290.825c163.179,1.646 294.95,134.438 294.95,298.008c0,3.729 -0.092,7.438 -0.229,11.129c-0.03,0.825 -0.059,1.659 -0.092,2.488c-0.154,3.429 -0.363,6.85 -0.633,10.25c-0.084,1.083 -0.188,2.162 -0.288,3.242c-0.208,2.375 -0.454,4.733 -0.721,7.087c-0.304,2.675 -0.65,5.333 -1.021,7.979c-0.17,1.209 -0.333,2.421 -0.516,3.621c-36.488,240.363 -349.542,375.45 -351.254,376.188c18.562,2.466 37.491,3.766 56.725,3.766c235.141,0 425.758,-190.612 425.758,-425.75c0,-235.137 -190.617,-425.754 -425.758,-425.754Z" style="fill:#a0a0a0;fill-rule:nonzero;"/></svg>