<?xml version="1.0" encoding="UTF-8" standalone="no"?><!DOCTYPE svg PUBLIC "-//W3C//DTD SVG 1.1//EN" "http://www.w3.org/Graphics/SVG/1.1/DTD/svg11.dtd"><svg width="100%" height="100%" viewBox="0 0 128 128" version="1.1" xmlns="http://www.w3.org/2000/svg" xmlns:xlink="http://www.w3.org/1999/xlink" xml:space="preserve" xmlns:serif="http://www.serif.com/" style="fill-rule:evenodd;clip-rule:evenodd;stroke-linejoin:round;stroke-miterlimit:1.41421;"><rect id="Artboard1" x="0" y="0" width="128" height="128" style="fill:none;"/><g><g><path d="M28.4,80.2c0,7.1 -5.8,12.9 -12.9,12.9c-7.1,0 -12.9,-5.8 -12.9,-12.9c0,-7.1 5.8,-12.9 12.9,-12.9l12.9,0l0,12.9Z" style="fill:#a0a0a0;fill-rule:nonzero;"/><path d="M34.9,80.2c0,-7.1 5.8,-12.9 12.9,-12.9c7.1,0 12.9,5.8 12.9,12.9l0,32.3c0,7.1 -5.8,12.9 -12.9,12.9c-7.1,0 -12.9,-5.8 -12.9,-12.9l0,-32.3Z" style="fill:#a0a0a0;fill-rule:nonzero;"/></g><g><path d="M47.8,28.4c-7.1,0 -12.9,-5.8 -12.9,-12.9c0,-7.1 5.8,-12.9 12.9,-12.9c7.1,0 12.9,5.8 12.9,12.9l0,12.9l-12.9,0Z" style="fill:#a0a0a0;fill-rule:nonzero;"/><path d="M47.8,34.9c7.1,0 12.9,5.8 12.9,12.9c0,7.1 -5.8,12.9 -12.9,12.9l-32.3,0c-7.1,0 -12.9,-5.8 -12.9,-12.9c0,-7.1 5.8,-12.9 12.9,-12.9l32.3,0Z" style="fill:#a0a0a0;fill-rule:nonzero;"/></g><g><path d="M99.6,47.8c0,-7.1 5.8,-12.9 12.9,-12.9c7.1,0 12.9,5.8 12.9,12.9c0,7.1 -5.8,12.9 -12.9,12.9l-12.9,0l0,-12.9Z" style="fill:#a0a0a0;fill-rule:nonzero;"/><path d="M93.1,47.8c0,7.1 -5.8,12.9 -12.9,12.9c-7.1,0 -12.9,-5.8 -12.9,-12.9l0,-32.3c0,-7.1 5.8,-12.9 12.9,-12.9c7.1,0 12.9,5.8 12.9,12.9l0,32.3Z" style="fill:#a0a0a0;fill-rule:nonzero;"/></g><g><path d="M80.2,99.6c7.1,0 12.9,5.8 12.9,12.9c0,7.1 -5.8,12.9 -12.9,12.9c-7.1,0 -12.9,-5.8 -12.9,-12.9l0,-12.9l12.9,0Z" style="fill:#a0a0a0;fill-rule:nonzero;"/><path d="M80.2,93.1c-7.1,0 -12.9,-5.8 -12.9,-12.9c0,-7.1 5.8,-12.9 12.9,-12.9l32.3,0c7.1,0 12.9,5.8 12.9,12.9c0,7.1 -5.8,12.9 -12.9,12.9l-32.3,0Z" style="fill:#a0a0a0;fill-rule:nonzero;"/></g></g></svg>