<svg viewBox="0 0 43 55" xmlns="http://www.w3.org/2000/svg" fill-rule="evenodd" clip-rule="evenodd" stroke-linejoin="round" stroke-miterlimit="1.41"><clipPath id="a"><path d="M.47.24h44.1v55.7H.47z"/></clipPath><g clip-path="url(#a)"><path d="M37.9 6.8C34.9 3.45 30.9.33 21.04.25c-3.85-.02-9.73.88-14.3 5.72-2.77 2.92-4.81 6.61-4.22 12.64.11 1.32 2 2.82.68 5.35 0 0-2.82 4.97-2.73 5.8 0 0-.05 1.5 2.28 1.56 0 0 .6.07.42 1.35l-.03 1.88s.08.56 1.1.9c0 0 .2.19-.09.56 0 0-.54.6.38 1.9.34.47.9 1.07.56 2.28 0 0-.43 2.36.48 2.92 0 0 1.05 1.25 5.29.73 1.48-.19 4.2-.9 5.84 1.15 0 0 3.89 7.39 4.18 9.14 0 0 6.64-11.82 14.74-13.65 0 0-1.97-4.45 2.05-10.22 0 0 5.03-6.63 5.18-10.29 0 0 1.33-6.14-4.95-13.15zm-6.58 22.04c-3.42.12-3.59-2.17-5.2-3.94-.23.01-.46.04-.7.04-4.02.12-3.27-4.14-4.84-5.31-3.75-2.79-9.04-.37-11.8-3.19-.9-.9-1.66-1.77-1.77-2.95-.29-2.85.38-4.09 1.78-5.59 3.78-3.98 8.65-4.82 12.07-4.82 9.2.07 12.41 2.81 14.93 5.62 4.15 4.63 4.4 8.62 4.35 10.06 0 .18.04.34.04.51 0 5.29-3.97 9.4-8.86 9.57z" fill="#a0a0a0" fill-rule="nonzero"/></g></svg>