<?xml version="1.0" encoding="UTF-8" standalone="no"?><!DOCTYPE svg PUBLIC "-//W3C//DTD SVG 1.1//EN" "http://www.w3.org/Graphics/SVG/1.1/DTD/svg11.dtd"><svg width="100%" height="100%" viewBox="0 0 43 55" version="1.1" xmlns="http://www.w3.org/2000/svg" xmlns:xlink="http://www.w3.org/1999/xlink" xml:space="preserve" style="fill-rule:evenodd;clip-rule:evenodd;stroke-linejoin:round;stroke-miterlimit:1.41421;"><clipPath id="_clip1"><rect x="0.469" y="0.244" width="44.099" height="55.704"/></clipPath><g clip-path="url(#_clip1)"><path d="M37.904,6.808c-3.019,-3.364 -7.009,-6.492 -16.864,-6.564c-3.853,-0.028 -9.727,0.879 -14.307,5.721c-2.764,2.918 -4.804,6.608 -4.215,12.638c0.116,1.314 1.994,2.82 0.68,5.35c0,0 -2.817,4.967 -2.729,5.793c0,0 -0.046,1.504 2.281,1.56c0,0 0.592,0.072 0.421,1.357l-0.028,1.878c0,0 0.074,0.562 1.098,0.898c0,0 0.199,0.191 -0.091,0.562c0,0 -0.543,0.599 0.381,1.894c0.343,0.471 0.898,1.07 0.561,2.286c0,0 -0.434,2.356 0.481,2.92c0,0 1.051,1.251 5.287,0.724c1.476,-0.181 4.206,-0.898 5.837,1.151c0,0 3.89,7.39 4.18,9.14c0,0 6.645,-11.814 14.743,-13.645c0,0 -1.968,-4.451 2.047,-10.219c0,0 5.032,-6.636 5.179,-10.289c0.009,0 1.332,-6.148 -4.942,-13.155Zm-6.582,22.03c-3.419,0.119 -3.591,-2.167 -5.195,-3.943c-0.236,0.019 -0.464,0.044 -0.707,0.044c-4.016,0.119 -3.273,-4.143 -4.842,-5.313c-3.753,-2.782 -9.038,-0.362 -11.805,-3.182c-0.889,-0.905 -1.65,-1.775 -1.768,-2.954c-0.281,-2.848 0.38,-4.09 1.787,-5.587c3.781,-3.987 8.648,-4.823 12.067,-4.823c9.203,0.065 12.412,2.811 14.933,5.622c4.143,4.632 4.405,8.622 4.343,10.054c0,0.181 0.044,0.346 0.044,0.518c0,5.285 -3.971,9.402 -8.857,9.564Z" style="fill:#a0a0a0;fill-rule:nonzero;"/></g></svg>