<?xml version="1.0" encoding="UTF-8" standalone="no"?><!DOCTYPE svg PUBLIC "-//W3C//DTD SVG 1.1//EN" "http://www.w3.org/Graphics/SVG/1.1/DTD/svg11.dtd"><svg width="100%" height="100%" viewBox="0 0 697 265" version="1.1" xmlns="http://www.w3.org/2000/svg" xmlns:xlink="http://www.w3.org/1999/xlink" xml:space="preserve" style="fill-rule:evenodd;clip-rule:evenodd;stroke-linejoin:round;stroke-miterlimit:1.41421;"><g><text x="393.454px" y="38.255px" style="font-family:'Arial-BoldMT', 'Arial', sans-serif;font-weight:700;font-size:51.781px;fill:#ec3612;">?</text><g transform="matrix(0.976206,-0.216846,0.216846,0.976206,517.775,-234.506)"><text x="-194.327px" y="240.367px" style="font-family:'Arial-BoldMT', 'Arial', sans-serif;font-weight:700;font-size:39.948px;fill:#bd2c0e;">?</text></g><g transform="matrix(0.97366,0.228006,-0.228006,0.97366,-614.848,-171.536)"><text x="1050.36px" y="-29.922px" style="font-family:'Arial-BoldMT', 'Arial', sans-serif;font-weight:700;font-size:39.948px;fill:#7e2d1d;">?</text></g><g><text x="497.005px" y="137.771px" style="font-family:'ArialMT', 'Arial', sans-serif;font-size:20px;fill:#c8dde5;">Ihre Systemumgebung</text><g><path d="M624.252,91.4c-1.183,1.051 -2.865,0.592 -2.865,-1.458l0,-4.927c0,-1.485 -1.222,-2.707 -2.706,-2.707l-3.456,0c0.394,0.802 0.605,1.669 0.605,2.536c0,3.035 -2.365,5.334 -5.624,5.466l-0.105,0l-0.105,0c-3.258,-0.132 -5.623,-2.431 -5.623,-5.466c0,-0.88 0.21,-1.747 0.604,-2.536l-3.6,0l-0.013,0l-0.053,0c-1.458,0 -2.654,1.183 -2.654,2.654l0,4.98c0,2.05 -1.708,2.496 -2.89,1.458c-1.958,-1.721 -4.941,-0.801 -5.072,2.339c0.131,3.14 3.114,4.06 5.058,2.339c1.183,-1.051 2.904,-0.591 2.904,1.458l0,4.875c0,1.458 1.183,2.654 2.654,2.654l4.94,0c2.05,0 2.497,1.721 1.459,2.903c-1.721,1.958 -0.802,4.967 2.339,5.098c3.14,-0.131 4.059,-3.14 2.338,-5.098c-1.051,-1.182 -0.591,-2.916 1.459,-2.916l4.914,0c1.458,0 2.654,-1.183 2.654,-2.654l0,-4.875c0,-2.05 1.668,-2.496 2.851,-1.458c1.931,1.721 4.914,0.801 5.045,-2.326c-0.131,-3.14 -3.101,-4.06 -5.058,-2.339Z" style="fill:#c8dde5;fill-rule:nonzero;"/><path d="M624.278,65.977c-1.183,1.051 -2.917,0.591 -2.917,-1.459l0,-4.887c0,-1.459 -1.182,-2.654 -2.654,-2.654l-4.874,0c-2.05,0 -2.497,-1.669 -1.459,-2.852c1.721,-1.957 0.802,-4.94 -2.339,-5.071c-3.14,0.131 -4.06,3.101 -2.338,5.058c1.051,1.183 0.591,2.865 -1.459,2.865l-4.927,0c-1.484,0 -2.706,1.222 -2.706,2.706l0,3.456c0.801,-0.394 1.668,-0.605 2.535,-0.605c3.049,0 5.348,2.365 5.479,5.624l0,0.21c-0.131,3.258 -2.43,5.623 -5.465,5.623c-0.881,0 -1.748,-0.21 -2.536,-0.604l0,3.666c0,1.458 1.182,2.654 2.654,2.654l4.979,0c2.05,0 2.497,1.708 1.459,2.89c-1.721,1.958 -0.802,4.941 2.339,5.072c3.14,-0.131 4.059,-3.114 2.338,-5.059c-1.051,-1.182 -0.591,-2.903 1.459,-2.903l4.874,0c1.459,0 2.654,-1.183 2.654,-2.654l0,-4.94c0,-2.05 1.721,-2.497 2.904,-1.459c1.958,1.721 4.966,0.802 5.098,-2.339c-0.132,-3.14 -3.14,-4.059 -5.098,-2.338Z" style="fill:#c8dde5;fill-rule:nonzero;"/><path d="M593.546,82.269l-4.979,0c-2.05,0 -2.497,-1.708 -1.459,-2.891c1.721,-1.957 0.802,-4.94 -2.339,-5.071c-3.14,0.131 -4.059,3.114 -2.338,5.058c1.051,1.183 0.591,2.904 -1.459,2.904l-4.874,0c-1.459,0 -2.654,1.182 -2.654,2.654l0,4.94c0,2.05 -1.721,2.496 -2.904,1.459c-1.958,-1.722 -4.966,-0.802 -5.098,2.338c0.118,3.114 3.14,4.034 5.085,2.313c1.182,-1.051 2.917,-0.592 2.917,1.458l0,4.914c0,1.458 1.182,2.654 2.654,2.654l4.874,0c2.05,0 2.497,1.669 1.459,2.851c-1.721,1.958 -0.802,4.94 2.338,5.072c3.141,-0.132 4.06,-3.101 2.339,-5.059c-1.051,-1.182 -0.591,-2.864 1.459,-2.864l4.927,0c1.484,0 2.706,-1.222 2.706,-2.707l0,-3.455c-0.801,0.394 -1.668,0.604 -2.536,0.604c-3.035,0 -5.334,-2.365 -5.465,-5.623l0,-0.105l0,-0.105c0.131,-3.259 2.43,-5.624 5.465,-5.624c0.881,0 1.748,0.21 2.536,0.605l0,-3.6l0,-0.014l0,-0.052c0,-1.459 -1.182,-2.654 -2.654,-2.654Z" style="fill:#c8dde5;fill-rule:nonzero;"/><path d="M599.064,65.964c-1.182,1.051 -2.903,0.591 -2.903,-1.459l0,-4.861c0,-1.459 -1.183,-2.654 -2.654,-2.654l-4.94,0c-2.05,0 -2.497,-1.721 -1.459,-2.904c1.721,-1.958 0.802,-4.966 -2.339,-5.098c-3.14,0.132 -4.059,3.14 -2.338,5.098c1.051,1.183 0.591,2.917 -1.459,2.917l-4.887,0c-1.459,0 -2.654,1.182 -2.654,2.654l0,4.874c0,2.05 -1.669,2.497 -2.851,1.459c-1.958,-1.721 -4.941,-0.802 -5.072,2.339c0.131,3.113 3.101,4.033 5.058,2.312c1.183,-1.051 2.865,-0.591 2.865,1.458l0,4.927c0,1.485 1.222,2.707 2.706,2.707l3.456,0c-0.394,-0.801 -0.605,-1.669 -0.605,-2.536c0,-3.035 2.365,-5.334 5.624,-5.465l0.21,0c3.258,0.131 5.623,2.43 5.623,5.465c0,0.881 -0.21,1.748 -0.604,2.536l3.666,0c1.458,0 2.654,-1.182 2.654,-2.654l0,-4.98c0,-2.049 1.708,-2.496 2.89,-1.458c1.958,1.721 4.941,0.801 5.072,-2.339c-0.131,-3.14 -3.114,-4.06 -5.059,-2.338Z" style="fill:#c8dde5;fill-rule:nonzero;"/></g></g><g><g><text x="532.157px" y="264.378px" style="font-family:'ArialMT', 'Arial', sans-serif;font-size:20px;fill:#4d4d4d;">Ihr Mitarbeiter</text><path d="M623.92,229.032c0,-9.886 -2.318,-25.064 -15.134,-25.064c-1.356,0 -7.086,6.08 -15.659,6.08c-8.574,0 -14.304,-6.08 -15.66,-6.08c-12.816,0 -15.134,15.178 -15.134,25.064c0,7.086 4.724,11.329 11.679,11.329l38.23,0c6.954,0 11.678,-4.243 11.678,-11.329Zm-13.997,-39.061c0,-9.273 -7.523,-16.797 -16.796,-16.797c-9.273,0 -16.797,7.524 -16.797,16.797c0,9.273 7.524,16.797 16.797,16.797c9.273,0 16.796,-7.524 16.796,-16.797Z" style="fill:#00a0dd;fill-rule:nonzero;"/></g><g><path d="M450.644,63.737c0,-8.841 -7.178,-16.019 -16.019,-16.019l-51.093,0c-8.842,0 -16.02,7.178 -16.02,16.019l0,32.039c0,8.842 7.178,16.02 16.02,16.02l51.093,0c8.841,0 16.019,-7.178 16.019,-16.02l0,-32.039Z" style="fill:#00a0dd;"/><clipPath id="_clip1"><path d="M450.644,63.737c0,-8.841 -7.178,-16.019 -16.019,-16.019l-51.093,0c-8.842,0 -16.02,7.178 -16.02,16.019l0,32.039c0,8.842 7.178,16.02 16.02,16.02l51.093,0c8.841,0 16.019,-7.178 16.019,-16.02l0,-32.039Z"/></clipPath><g clip-path="url(#_clip1)"><path d="M442.085,65.762c0,-4.577 -3.717,-8.294 -8.295,-8.294l-49.013,0c-4.578,0 -8.294,3.717 -8.294,8.294l0,16.589c0,4.578 3.716,8.295 8.294,8.295l49.013,0c4.578,0 8.295,-3.717 8.295,-8.295l0,-16.589Z" style="fill:#fff;"/><clipPath id="_clip2"><path d="M442.085,65.762c0,-4.577 -3.717,-8.294 -8.295,-8.294l-49.013,0c-4.578,0 -8.294,3.717 -8.294,8.294l0,16.589c0,4.578 3.716,8.295 8.294,8.295l49.013,0c4.578,0 8.295,-3.717 8.295,-8.295l0,-16.589Z"/></clipPath><g clip-path="url(#_clip2)"><g><circle cx="393.309" cy="74.157" r="5.5" style="fill:#00a0dd;"/></g><g><circle cx="424.848" cy="73.957" r="5.5" style="fill:#00a0dd;"/></g></g></g><text x="389.034px" y="136.781px" style="font-family:'ArialMT', 'Arial', sans-serif;font-size:20px;fill:#4d4d4d;">CAN</text></g><g><text x="189.726px" y="136.781px" style="font-family:'ArialMT', 'Arial', sans-serif;font-size:20px;fill:#4d4d4d;">Kanäle</text><rect x="187.234" y="47.998" width="66.196" height="62.739" style="fill:none;"/><path d="M200.946,49.183c-7.267,0 -13.163,5.896 -13.163,13.163c0,7.267 5.896,13.163 13.163,13.163c7.267,0 13.163,-5.896 13.163,-13.163c0,-7.267 -5.896,-13.163 -13.163,-13.163Zm4.696,8.93c0.188,-0.12 0.497,-0.274 0.737,-0.206c0.188,0.052 0.343,0.12 0.12,0.274c-0.103,0.069 -0.257,0 -0.377,0.035c0.154,0.034 0.377,0.102 0.308,0.257c0.446,0.257 -0.137,0.565 -0.428,0.531c0.137,0.017 -0.291,0.274 -0.291,0.257c-0.155,0.086 -0.36,0.086 -0.48,0.24c-0.137,0.189 0.051,0.514 -0.206,0.446c-0.103,0.222 -0.497,0.103 -0.668,0.342c0.188,0.206 -0.189,0.497 -0.378,0.24c-0.171,0.069 -0.085,0.257 -0.257,0.36c0.069,0.103 0.086,0.206 -0.034,0.275c0.034,-0.018 0.24,0.154 0.291,0.171c-0.034,0.086 -0.102,0.154 -0.188,0.154c0.086,0.223 -0.103,0.463 -0.257,0.6c-0.172,0.137 -0.566,0.274 -0.617,0.309c-0.309,0.291 -0.514,0.719 0.034,0.839c0.017,0 0.017,0.566 0.034,0.583c0.035,0.206 0.12,0.806 -0.24,0.583c-0.171,-0.086 -0.274,-0.566 -0.325,-0.754c-0.052,-0.206 -0.069,-0.206 -0.206,-0.412c-0.223,0.257 -0.257,0.069 -0.445,-0.051c-0.189,-0.103 -0.463,-0.069 -0.566,-0.171c-0.257,0.188 -0.446,0.137 -0.497,-0.155c-0.069,0.137 0.069,0.343 0.051,0.394c-0.085,0.172 -0.24,0.138 -0.377,0.035c-0.222,-0.172 -0.702,0.12 -0.959,0c0.017,0 0.085,0.068 0.137,0.103c-0.052,0.205 -0.172,0.085 -0.275,0.154c-0.12,0.086 -0.222,0.257 -0.325,0.343c0.223,0.428 -0.017,0.839 0,1.302c0,0.343 0.223,0.943 0.548,1.131c0.154,0.086 0.669,0.12 0.823,0.052c0.24,-0.103 0.206,-0.292 0.291,-0.497c0.086,-0.223 0.189,-0.326 0.446,-0.343c0.737,-0.034 0.171,0.566 0.086,0.874c-0.052,0.223 -0.069,0.48 -0.103,0.686c0.085,0.034 0.171,0.017 0.257,0.017c0,-0.069 0.051,-0.155 0.051,-0.206c0.103,0.171 0.446,0.223 0.549,0.017c0.12,0.206 0.36,0.36 0.394,0.6c0.034,0.24 0.257,0.497 -0.069,0.497c-0.24,0 0.035,0.48 0.069,0.566c0.188,0.342 0.497,0.48 0.84,0.308c0,0.137 -0.052,0.514 -0.24,0.549c-0.172,0.034 -0.497,-0.326 -0.429,-0.515c-0.017,0.069 -0.068,0.12 -0.12,0.155c-0.171,-0.206 -0.462,-0.309 -0.617,-0.514c-0.034,-0.052 -0.497,-0.755 -0.394,-0.789c-0.24,0.103 -0.72,-0.068 -0.943,-0.188c-0.359,-0.189 -0.411,-0.686 -0.856,-0.617c-0.309,0.051 -0.395,0.171 -0.755,0.034c-0.24,-0.086 -0.445,-0.257 -0.685,-0.377c-0.274,-0.154 -0.754,-0.309 -0.857,-0.651c-0.103,-0.275 -0.069,-0.6 -0.223,-0.857c-0.103,-0.172 -0.411,-0.515 -0.634,-0.515c0.206,0 -0.189,-0.514 -0.24,-0.565c-0.189,-0.223 -0.874,-0.823 -0.737,-1.166c0.034,-0.051 -0.343,-0.188 -0.411,-0.205c0.068,0.171 0.085,0.36 0.171,0.514c0.086,0.171 0.189,0.326 0.291,0.497c0.189,0.308 0.446,0.686 0.412,1.063c-0.223,0.068 -0.154,-0.258 -0.223,-0.395c-0.12,-0.222 -0.446,-0.222 -0.531,-0.462c0.034,-0.018 0.051,-0.018 0.085,-0.035c0.018,-0.291 -0.411,-0.531 -0.342,-0.737c-0.24,-0.188 -0.24,-0.548 -0.412,-0.788c-0.154,-0.223 -0.411,-0.326 -0.634,-0.48c-0.086,-0.051 -0.703,-0.84 -0.48,-0.891c-0.343,0.086 -0.514,-0.72 -0.463,-0.926c0,0 -0.034,0 -0.034,-0.017c0.069,-0.205 -0.051,-1.268 0.223,-1.285c-0.189,0.017 -0.24,-0.446 -0.189,-0.531c0.035,-0.069 0.292,0.188 0.309,0.222c0.103,-0.051 0.206,-0.188 0.171,-0.308c-0.051,-0.137 -0.24,-0.257 -0.36,-0.36c-0.051,-0.034 -0.737,-0.48 -0.754,-0.463c0.069,-0.12 0.052,-0.24 -0.051,-0.325c-0.326,0.257 -0.154,-0.24 -0.326,-0.292c-0.068,-0.017 -0.137,-0.068 -0.205,-0.137c0.994,-1.577 2.382,-2.896 4.027,-3.805c0.103,-0.017 0.24,-0.017 0.377,-0.017c0.309,0.034 0.48,0.291 0.703,0.446c0.034,-0.086 -0.034,-0.223 -0.086,-0.309c0.052,-0.137 0.257,-0.171 0.377,-0.205c0.155,-0.018 0.377,-0.052 0.515,0.017c-0.103,-0.155 -0.223,-0.292 -0.343,-0.429c-0.017,0.017 -0.069,0.052 -0.086,0.086c-0.188,-0.154 -0.548,0.051 -0.72,0.12c-0.137,0.068 -0.257,0.154 -0.394,0.206c-0.086,0.034 -0.137,0.034 -0.206,0.017c0.515,-0.275 1.046,-0.515 1.611,-0.703c0.103,0.069 0.206,0.188 0.36,0.308c-0.102,-0.085 -0.102,0.309 -0.068,0.378c0.188,0.257 0.6,0.085 0.857,0.085c-0.017,0 0.754,0.103 0.6,-0.085c0.12,0.171 0.12,0.428 0.274,0.582c0.154,-0.154 -0.069,-0.325 0.034,-0.48c0.034,-0.068 0.343,-0.154 0.446,-0.205c0.12,-0.086 -0.086,-0.206 -0.137,-0.24c-0.172,-0.103 -0.84,-0.155 -0.515,-0.549c0.12,-0.137 0.549,-0.068 0.686,0.017c0.189,0.103 0.394,0.292 0.137,0.463c0.12,0.017 0.686,0.172 0.6,0.394c0.051,-0.102 0.137,-0.257 0.274,-0.257c0.154,0.017 0.189,0.377 0.257,0.463c0.24,0.429 0.652,-0.428 0.72,-0.394c-0.308,-0.12 0.274,-0.274 0.429,-0.223c0.12,0.051 0.308,0.463 0.085,0.446c0.189,0.171 0.206,0.548 -0.137,0.531c-0.24,-0.017 -0.514,-0.343 -0.737,-0.086c-0.154,0.172 -0.223,0.429 -0.377,0.583c-0.24,0.24 -0.565,0.223 -0.857,0.189c0.12,0.017 -0.257,0.411 -0.291,0.479c-0.103,0.12 -0.172,0.257 -0.206,0.395c-0.034,0.171 0,0.36 -0.086,0.531c0.292,-0.086 0.446,0.446 0.326,0.463c0.36,-0.052 0.651,-0.052 0.994,0.068c0.24,0.086 0.6,0.189 0.703,0.446c0.068,-0.103 0.394,-0.052 0.497,-0.017c0.206,0.103 0.223,0.325 0.274,0.514c0.069,0.257 0.291,0.685 0.583,0.548c0.051,-0.034 0.428,-0.205 0.291,-0.308c-0.137,-0.12 -0.291,-0.429 -0.154,-0.6c0.137,-0.189 0.463,-0.24 0.548,-0.48c0.137,-0.394 -0.411,-0.343 -0.411,-0.634c0,-0.171 0.223,-0.223 0.206,-0.429c0,-0.171 -0.257,-0.514 -0.052,-0.634c0.172,-0.103 0.994,0.069 1.149,0.172c0.154,0.103 0.634,0.24 0.668,0.394c-0.034,0 -0.051,0 -0.086,0c0.137,0.12 0.257,0.377 0.017,0.445c0.155,-0.034 0.6,0.138 0.292,0.24c0.103,-0.051 0.188,-0.017 0.291,-0.085c0.12,-0.069 0.189,-0.189 0.343,-0.103c0.034,0.017 0.223,-0.36 0.326,-0.343c0.154,0.017 0.188,0.24 0.257,0.343c0.068,0.154 0.257,0.206 0.325,0.36c0.12,0.291 0.069,0.565 0.463,0.668c0.12,0.035 0.446,-0.154 0.429,0.103c0.068,-0.068 0.102,-0.12 0.102,-0.137c0.018,0.24 0.12,0.514 0.412,0.48c0,0 0,0.325 -0.035,0.377c-0.102,0.154 -0.359,0.12 -0.514,0.206c-0.051,0.017 -0.462,0.377 -0.411,0.428c-0.223,-0.257 -0.583,-0.257 -0.874,-0.188c-0.309,0.051 -0.6,0.085 -0.891,0.205c-0.137,0.069 -0.275,0.137 -0.377,0.257c-0.052,0.069 -0.138,0.377 -0.223,0.394c0.171,-0.034 0.257,-0.222 0.394,-0.325Zm-2.794,15.031c-0.017,-0.086 -0.034,-0.257 -0.034,-0.275c-0.017,-0.274 0.274,-0.462 0.257,-0.719c-0.188,-0.052 -0.24,-0.24 -0.206,-0.446c0.035,-0.291 0.292,-0.497 0.497,-0.686c0.206,-0.188 0.258,-0.582 0.206,-0.822c-0.086,-0.412 -0.086,-0.84 -0.154,-1.251c0.017,0.102 0.308,0.068 0.36,0.205c0.068,-0.12 0.103,-0.274 0.188,-0.394c0.069,-0.103 0.189,-0.137 0.292,-0.223c0.171,-0.103 0.531,-0.497 0.737,-0.257c0.171,0.206 -0.257,0.429 -0.035,0.617c0.069,-0.137 0,-0.343 0.138,-0.48c0.274,-0.308 0.462,0.035 0.736,0.12c0.292,0.086 0.395,0.189 0.617,0.377c-0.068,-0.068 0.275,-0.188 0.309,-0.205c0.326,-0.069 0.463,0.12 0.686,0.291c0.239,0.171 0.617,0.291 0.582,0.634c0.172,0.034 0.274,0.086 0.412,0.137c0.137,0.069 0.325,0.035 0.428,0.137c-1.577,1.663 -3.668,2.828 -6.016,3.24Z" style="fill:#00a0dd;fill-rule:nonzero;"/><path d="M214.43,88.337c-0.993,0.428 -2.071,0.736 -3.183,0.856c1.147,-0.684 2.019,-1.762 2.43,-3.046c-1.061,0.633 -2.259,1.095 -3.508,1.335c-1.01,-1.078 -2.447,-1.746 -4.038,-1.746c-3.063,0 -5.527,2.482 -5.527,5.527c0,0.428 0.051,0.856 0.137,1.267c-4.586,-0.24 -8.676,-2.43 -11.397,-5.784c-0.479,0.821 -0.753,1.763 -0.753,2.789c0,1.917 0.976,3.611 2.464,4.603c-0.906,-0.034 -1.762,-0.291 -2.498,-0.701c0,0.017 0,0.051 0,0.068c0,2.687 1.9,4.911 4.432,5.424c-0.462,0.12 -0.958,0.189 -1.454,0.189c-0.36,0 -0.702,-0.035 -1.044,-0.086c0.701,2.19 2.738,3.782 5.167,3.833c-1.899,1.489 -4.277,2.362 -6.861,2.362c-0.462,0 -0.89,-0.018 -1.335,-0.069c2.447,1.574 5.356,2.481 8.487,2.481c10.165,0 15.726,-8.419 15.726,-15.725c0,-0.24 0,-0.479 -0.017,-0.719c1.078,-0.787 2.019,-1.762 2.772,-2.858Z" style="fill:#00a0dd;fill-rule:nonzero;"/><path d="M249.051,49.127l-23.449,0c-0.807,0 -1.459,0.653 -1.459,1.459l0,23.45c0,0.806 0.652,1.459 1.459,1.459l12.617,0l0,-10.214l-3.433,0l0,-3.983l3.433,0l0,-2.935c0,-3.399 2.095,-5.253 5.133,-5.253c1.442,0 2.695,0.103 3.056,0.154l0,3.554l-2.095,0.017c-1.665,0 -1.974,0.772 -1.974,1.923l0,2.54l3.931,0l-0.515,3.983l-3.416,0l0,10.214l6.712,0c0.807,0 1.46,-0.653 1.46,-1.459l0,-23.45c0,-0.806 -0.653,-1.459 -1.46,-1.459Z" style="fill:#00a0dd;fill-rule:nonzero;"/><path d="M252.708,93.46c-0.515,0.566 -1.099,1.064 -1.717,1.493c-2.867,1.94 -5.751,3.897 -8.549,5.923c-1.442,1.064 -3.227,2.369 -5.098,2.369l-0.017,0l-0.017,0c-1.872,0 -3.657,-1.305 -5.099,-2.369c-2.798,-2.043 -5.682,-3.983 -8.531,-5.923c-0.636,-0.429 -1.219,-0.927 -1.734,-1.493l0,13.63c0,1.511 1.236,2.747 2.746,2.747l25.269,0c1.511,0 2.747,-1.236 2.747,-2.747l0,-13.63Zm0,-5.047c0,-1.511 -1.253,-2.747 -2.747,-2.747l-25.269,0c-1.836,0 -2.746,1.442 -2.746,3.125c0,1.562 1.734,3.502 2.952,4.326c2.661,1.853 5.356,3.707 8.017,5.579c1.116,0.772 3.004,2.351 4.395,2.351l0.034,0c1.39,0 3.279,-1.579 4.395,-2.351c2.66,-1.872 5.355,-3.726 8.033,-5.579c1.511,-1.048 2.936,-2.781 2.936,-4.704Z" style="fill:#00a0dd;fill-rule:nonzero;"/></g><g><path d="M62.379,101.435c0,-9.885 -2.318,-25.063 -15.134,-25.063c-1.356,0 -7.086,6.08 -15.66,6.08c-8.573,0 -14.303,-6.08 -15.659,-6.08c-12.816,0 -15.134,15.178 -15.134,25.063c0,7.086 4.724,11.329 11.679,11.329l38.229,0c6.955,0 11.679,-4.243 11.679,-11.329Zm-13.997,-39.061c0,-9.273 -7.523,-16.796 -16.797,-16.796c-9.273,0 -16.796,7.523 -16.796,16.796c0,9.274 7.523,16.797 16.796,16.797c9.274,0 16.797,-7.523 16.797,-16.797Z" style="fill:#00a0dd;fill-rule:nonzero;"/><text x="2.855px" y="136.781px" style="font-family:'ArialMT', 'Arial', sans-serif;font-size:20px;fill:#4d4d4d;">Kunde</text></g><path d="M94.224,87.622l0,5.813l-8.944,-8.943l8.944,-8.944l0,5.813l61.166,0l0,-5.813l8.943,8.944l-8.943,8.943l0,-5.813l-61.166,0Z" style="fill:#00658d;"/><path d="M279.888,87.622l0,5.813l-8.944,-8.943l8.944,-8.944l0,5.813l61.166,0l0,-5.813l8.944,8.944l-8.944,8.943l0,-5.813l-61.166,0Z" style="fill:#00658d;"/><path d="M475.823,87.622l0,5.813l-8.943,-8.943l8.943,-8.944l0,5.813l61.166,0l0,-5.813l8.944,8.944l-8.944,8.943l0,-5.813l-61.166,0Z" style="fill:#d0e4ed;"/><g><path d="M405.948,213.433l0,-6.261l131.041,0l0,-5.813l8.944,8.944l-8.944,8.943l0,-5.813l-131.041,0Z" style="fill:#00cd7e;"/><path d="M412.209,213.433l-6.261,0l0,-60.355l6.261,0l0,60.355Z" style="fill:#00cd7e;"/></g></g></g></svg>