<svg viewBox="0 0 404 155" xmlns="http://www.w3.org/2000/svg" fill-rule="evenodd" clip-rule="evenodd" stroke-linejoin="round" stroke-miterlimit="1.41"><g fill="#00658d"><path d="M402.06 99.74c0-9.88-2.32-25.06-15.13-25.06-1.36 0-7.09 6.08-15.66 6.08-8.58 0-14.3-6.08-15.66-6.08-12.82 0-15.14 15.18-15.14 25.06 0 7.1 4.73 11.33 11.68 11.33h38.23c6.96 0 11.68-4.24 11.68-11.33zm-14-39.06a16.8 16.8 0 10-33.6.01 16.8 16.8 0 0033.6 0z" fill-rule="nonzero"/><text x="342.54" y="143.09" font-family="'Arial-BoldMT','Arial',sans-serif" font-weight="700" font-size="20">Kunde</text></g><path d="M83.7 62.05c0-8.85-7.18-16.02-16.02-16.02h-51.1A16.03 16.03 0 00.58 62.05v32.04c0 8.84 7.18 16.01 16.02 16.01h51.09c8.84 0 16.02-7.17 16.02-16.01V62.05z" fill="#00a0dd"/><clipPath id="a"><path d="M83.7 62.05c0-8.85-7.18-16.02-16.02-16.02h-51.1A16.03 16.03 0 00.58 62.05v32.04c0 8.84 7.18 16.01 16.02 16.01h51.09c8.84 0 16.02-7.17 16.02-16.01V62.05z"/></clipPath><g clip-path="url(#a)"><path d="M75.14 64.07a8.3 8.3 0 00-8.3-8.3h-49a8.3 8.3 0 00-8.3 8.3v16.59a8.3 8.3 0 008.3 8.3h49a8.3 8.3 0 008.3-8.3V64.07z" fill="#fff"/><clipPath id="b"><path d="M75.14 64.07a8.3 8.3 0 00-8.3-8.3h-49a8.3 8.3 0 00-8.3 8.3v16.59a8.3 8.3 0 008.3 8.3h49a8.3 8.3 0 008.3-8.3V64.07z"/></clipPath><g clip-path="url(#b)"><circle cx="26.36" cy="72.47" r="5.5" fill="#00a0dd"/><circle cx="57.9" cy="72.27" r="5.5" fill="#00a0dd"/></g></g><text x="22.09" y="143.09" font-family="'Arial-BoldMT','Arial',sans-serif" font-weight="700" font-size="20" fill="#00a0dd">CAN</text><path d="M244.9 154.44c11.2 0 20.3-9.1 20.3-20.31v-23.46c0-11.21-9.1-20.31-20.3-20.31h-99.6c-11.22 0-20.32 9.1-20.32 20.3l-18.72.1L124.98 127v7.13c0 11.2 9.1 20.3 20.31 20.3h99.6z" fill="#00a0dd"/><clipPath id="c"><path d="M244.9 154.44c11.2 0 20.3-9.1 20.3-20.31v-23.46c0-11.21-9.1-20.31-20.3-20.31h-99.6c-11.22 0-20.32 9.1-20.32 20.3l-18.72.1L124.98 127v7.13c0 11.2 9.1 20.3 20.31 20.3h99.6z"/></clipPath><g font-family="'ArialMT','Arial',sans-serif" font-size="16" fill="#fff" clip-path="url(#c)"><text x="525" y="1231.34" transform="matrix(1 0 0 1 -383.25 -1113.39)">Ich helfe Ihnen</text><text x="525" y="1249.34" transform="matrix(1 0 0 1 -383.25 -1113.39)">gerne!</text></g><path d="M179.52 68.17c-11.21 0-20.31-9.1-20.31-20.3V21.3c0-11.21 9.1-20.31 20.3-20.31h99.61c11.21 0 20.31 9.1 20.31 20.3v10.23l18.72 16.26-18.72.09c0 11.2-9.1 20.3-20.3 20.3h-99.61z" fill="#00658d"/><clipPath id="d"><path d="M179.52 68.17c-11.21 0-20.31-9.1-20.31-20.3V21.3c0-11.21 9.1-20.31 20.3-20.31h99.61c11.21 0 20.31 9.1 20.31 20.3v10.23l18.72 16.26-18.72.09c0 11.2-9.1 20.3-20.3 20.3h-99.61z"/></clipPath><g clip-path="url(#d)"><g font-family="'ArialMT','Arial',sans-serif" font-size="16" fill="#fff"><text x="525" y="1231.34" transform="matrix(1 0 0 1 -348.98 -1202.76)">Ich habe einen</text><text x="525" y="1249.34" transform="matrix(1 0 0 1 -348.98 -1202.76)">W<tspan x="539.817px 548.716px" y="1249.34px 1249.34px">un</tspan>sch.</text></g></g></svg>