<svg viewBox="0 0 697 265" xmlns="http://www.w3.org/2000/svg" fill-rule="evenodd" clip-rule="evenodd" stroke-linejoin="round" stroke-miterlimit="1.41"><text x="393.45" y="38.26" font-family="'Arial-BoldMT','Arial',sans-serif" font-weight="700" font-size="51.78" fill="#ec3612">?</text><text x="-194.33" y="240.37" font-family="'Arial-BoldMT','Arial',sans-serif" font-weight="700" font-size="39.95" fill="#bd2c0e" transform="rotate(-12.52 -809.69 -2476.6)">?</text><text x="1050.36" y="-29.92" font-family="'Arial-BoldMT','Arial',sans-serif" font-weight="700" font-size="39.95" fill="#7e2d1d" transform="rotate(13.18 435 -2746.88)">?</text><g fill="#c8dde5"><text x="497" y="137.77" font-family="'ArialMT','Arial',sans-serif" font-size="20">Ihre Systemumgebung</text><g fill-rule="nonzero"><path d="M624.25 91.4c-1.18 1.05-2.86.6-2.86-1.46v-4.92c0-1.49-1.23-2.71-2.7-2.71h-3.47c.4.8.61 1.67.61 2.53 0 3.04-2.37 5.34-5.62 5.47H610c-3.26-.13-5.63-2.43-5.63-5.47 0-.88.21-1.74.6-2.53h-3.66a2.66 2.66 0 00-2.65 2.65v4.98c0 2.05-1.71 2.5-2.9 1.46-1.95-1.72-4.93-.8-5.07 2.34.14 3.14 3.12 4.06 5.06 2.34 1.19-1.05 2.9-.6 2.9 1.46v4.87a2.66 2.66 0 002.66 2.66h4.94c2.05 0 2.5 1.72 1.46 2.9-1.72 1.96-.8 4.97 2.34 5.1 3.14-.13 4.06-3.14 2.34-5.1-1.05-1.18-.6-2.92 1.46-2.92h4.91a2.66 2.66 0 002.65-2.65v-4.88c0-2.05 1.67-2.5 2.85-1.45 1.94 1.72 4.92.8 5.05-2.33-.13-3.14-3.1-4.06-5.06-2.34z"/><path d="M624.28 65.98c-1.18 1.05-2.92.59-2.92-1.46v-4.89a2.65 2.65 0 00-2.65-2.65h-4.88c-2.05 0-2.5-1.67-1.46-2.85 1.73-1.96.8-4.94-2.33-5.08-3.14.14-4.06 3.1-2.34 5.06 1.05 1.19.59 2.87-1.46 2.87h-4.93a2.72 2.72 0 00-2.7 2.7v3.46c.8-.4 1.66-.6 2.53-.6 3.05 0 5.35 2.36 5.48 5.62v.2c-.13 3.27-2.43 5.63-5.47 5.63-.88 0-1.74-.2-2.53-.6v3.66a2.65 2.65 0 002.65 2.66h4.98c2.05 0 2.5 1.7 1.46 2.89-1.72 1.96-.8 4.94 2.34 5.07 3.14-.13 4.06-3.11 2.34-5.06-1.05-1.18-.6-2.9 1.46-2.9h4.87a2.65 2.65 0 002.65-2.66v-4.94c0-2.05 1.73-2.5 2.9-1.46 1.97 1.73 4.97.8 5.1-2.33-.13-3.14-3.13-4.06-5.1-2.34zM593.55 82.27h-4.98c-2.05 0-2.5-1.7-1.46-2.9 1.72-1.95.8-4.93-2.34-5.06-3.14.13-4.06 3.11-2.34 5.05 1.05 1.19.6 2.9-1.46 2.9h-4.87a2.65 2.65 0 00-2.66 2.66v4.94c0 2.05-1.72 2.5-2.9 1.46-1.96-1.72-4.97-.8-5.1 2.34.12 3.11 3.14 4.03 5.09 2.31 1.18-1.05 2.91-.59 2.91 1.46v4.91a2.65 2.65 0 002.66 2.66h4.87c2.05 0 2.5 1.67 1.46 2.85-1.72 1.96-.8 4.94 2.34 5.07 3.14-.13 4.06-3.1 2.34-5.06-1.05-1.18-.6-2.86 1.46-2.86h4.92c1.49 0 2.71-1.22 2.71-2.7v-3.46c-.8.4-1.67.6-2.54.6-3.03 0-5.33-2.36-5.46-5.62V93.6c.13-3.26 2.43-5.63 5.46-5.63.89 0 1.75.21 2.54.6v-3.66a2.65 2.65 0 00-2.65-2.65z"/><path d="M599.06 65.96c-1.18 1.06-2.9.6-2.9-1.45v-4.87a2.65 2.65 0 00-2.65-2.65h-4.94c-2.05 0-2.5-1.72-1.46-2.9 1.72-1.96.8-4.97-2.34-5.1-3.14.13-4.06 3.14-2.34 5.1 1.05 1.18.6 2.91-1.46 2.91h-4.89a2.65 2.65 0 00-2.65 2.66v4.87c0 2.05-1.67 2.5-2.85 1.46-1.96-1.72-4.94-.8-5.07 2.34.13 3.11 3.1 4.03 5.06 2.31 1.18-1.05 2.86-.59 2.86 1.46v4.93c0 1.48 1.22 2.7 2.7 2.7h3.46c-.4-.8-.6-1.67-.6-2.53 0-3.04 2.36-5.34 5.62-5.47h.21c3.26.13 5.63 2.43 5.63 5.47 0 .88-.21 1.74-.6 2.53h3.66a2.65 2.65 0 002.65-2.65V72.1c0-2.05 1.7-2.5 2.9-1.46 1.95 1.72 4.93.8 5.06-2.34-.13-3.14-3.11-4.06-5.06-2.34z"/></g></g><text x="532.16" y="264.38" font-family="'ArialMT','Arial',sans-serif" font-size="20" fill="#4d4d4d">Ihr Mitarbeiter</text><path d="M623.92 229.03c0-9.88-2.32-25.06-15.13-25.06-1.36 0-7.09 6.08-15.66 6.08-8.58 0-14.3-6.08-15.66-6.08-12.82 0-15.14 15.18-15.14 25.06 0 7.09 4.73 11.33 11.68 11.33h38.23c6.96 0 11.68-4.24 11.68-11.33zm-14-39.06a16.8 16.8 0 10-33.6 0 16.8 16.8 0 0033.6 0z" fill="#00a0dd" fill-rule="nonzero"/><path d="M450.64 63.74c0-8.84-7.17-16.02-16.01-16.02h-51.1a16.03 16.03 0 00-16.02 16.02v32.04c0 8.84 7.18 16.02 16.02 16.02h51.1c8.84 0 16.01-7.18 16.01-16.02V63.74z" fill="#00a0dd"/><clipPath id="a"><path d="M450.64 63.74c0-8.84-7.17-16.02-16.01-16.02h-51.1a16.03 16.03 0 00-16.02 16.02v32.04c0 8.84 7.18 16.02 16.02 16.02h51.1c8.84 0 16.01-7.18 16.01-16.02V63.74z"/></clipPath><g clip-path="url(#a)"><path d="M442.08 65.76a8.3 8.3 0 00-8.29-8.3h-49.01a8.3 8.3 0 00-8.3 8.3v16.6a8.3 8.3 0 008.3 8.29h49.01a8.3 8.3 0 008.3-8.3V65.76z" fill="#fff"/><clipPath id="b"><path d="M442.08 65.76a8.3 8.3 0 00-8.29-8.3h-49.01a8.3 8.3 0 00-8.3 8.3v16.6a8.3 8.3 0 008.3 8.29h49.01a8.3 8.3 0 008.3-8.3V65.76z"/></clipPath><g clip-path="url(#b)"><circle cx="393.31" cy="74.16" r="5.5" fill="#00a0dd"/><circle cx="424.85" cy="73.96" r="5.5" fill="#00a0dd"/></g></g><text x="389.03" y="136.78" font-family="'ArialMT','Arial',sans-serif" font-size="20" fill="#4d4d4d">CAN</text><text x="189.73" y="136.78" font-family="'ArialMT','Arial',sans-serif" font-size="20" fill="#4d4d4d">Kanäle</text><path fill="none" d="M187.23 48h66.2v62.74h-66.2z"/><path d="M200.95 49.18a13.17 13.17 0 100 26.34 13.17 13.17 0 000-26.34zm4.7 8.93c.18-.12.49-.27.73-.2.19.05.34.12.12.27-.1.07-.26 0-.38.04.16.03.38.1.31.25.45.26-.14.57-.43.53.14.02-.29.28-.29.26-.15.09-.36.09-.48.24-.14.19.05.51-.2.45-.1.22-.5.1-.67.34.18.2-.2.5-.38.24-.17.07-.09.26-.26.36.07.1.09.2-.03.27.03-.01.24.16.29.17-.03.1-.1.16-.19.16.09.22-.1.46-.26.6-.17.14-.56.27-.61.3-.31.3-.52.73.03.85.02 0 .02.56.04.58.03.2.12.8-.24.58-.18-.08-.28-.56-.33-.75-.05-.2-.07-.2-.2-.41-.23.25-.26.07-.45-.05-.19-.1-.46-.07-.57-.18-.25.2-.44.14-.5-.15-.06.14.08.34.06.4-.09.17-.24.13-.38.03-.22-.17-.7.12-.96 0 .02 0 .09.07.14.1-.05.2-.17.09-.28.16-.12.08-.22.25-.32.34.22.43-.02.84 0 1.3 0 .34.22.94.55 1.13.15.09.67.12.82.05.24-.1.2-.29.29-.5.09-.22.19-.32.45-.34.73-.03.17.57.08.88-.05.22-.07.48-.1.68.08.04.17.02.26.02 0-.07.05-.15.05-.2.1.17.44.22.55.01.12.2.36.36.39.6.03.24.26.5-.07.5-.24 0 .04.48.07.56.19.35.5.48.84.31 0 .14-.05.52-.24.55-.17.04-.5-.32-.43-.51a.27.27 0 01-.12.15c-.17-.2-.46-.3-.62-.51-.03-.05-.5-.76-.39-.8-.24.11-.72-.06-.94-.18-.36-.19-.41-.68-.86-.62-.3.06-.4.18-.75.04-.24-.09-.45-.26-.69-.38-.27-.15-.75-.3-.86-.65-.1-.27-.07-.6-.22-.86-.1-.17-.41-.51-.63-.51.2 0-.2-.52-.24-.57-.2-.22-.88-.82-.74-1.16.03-.05-.34-.2-.41-.2.07.16.08.35.17.5.09.18.19.33.3.5.18.31.44.69.4 1.07-.22.06-.15-.26-.22-.4-.12-.22-.45-.22-.53-.46l.08-.04c.02-.29-.4-.53-.34-.73-.24-.2-.24-.55-.41-.8-.15-.21-.41-.32-.63-.47-.09-.05-.7-.84-.48-.9-.35.1-.52-.71-.47-.92l-.03-.01c.07-.21-.05-1.27.22-1.29-.19.02-.24-.45-.19-.53.04-.07.3.19.31.22.1-.05.2-.19.17-.3-.05-.14-.24-.26-.36-.37-.05-.03-.73-.48-.75-.46.07-.12.05-.24-.05-.32-.33.25-.16-.24-.33-.3a.47.47 0 01-.2-.13c1-1.58 2.38-2.9 4.02-3.8.1-.03.24-.03.38-.03.31.04.48.3.7.45.04-.09-.03-.22-.08-.3.05-.15.25-.18.37-.21.16-.02.38-.06.52.01-.1-.15-.22-.29-.34-.43l-.09.09c-.19-.15-.55.05-.72.12-.14.07-.26.15-.4.2a.3.3 0 01-.2.02c.52-.27 1.05-.51 1.61-.7.1.07.2.19.36.3-.1-.08-.1.32-.07.39.2.25.6.08.86.08-.02 0 .75.1.6-.08.12.17.12.42.27.58.16-.16-.06-.33.04-.48.03-.07.34-.16.44-.2.12-.1-.08-.21-.13-.25-.17-.1-.84-.15-.52-.55.12-.13.55-.06.69.02.19.1.4.3.14.46.12.02.68.18.6.4.05-.1.13-.26.27-.26.15.02.19.38.26.46.24.43.65-.42.72-.39-.31-.12.27-.27.43-.22.12.05.3.46.08.44.19.17.2.55-.14.53-.24-.01-.51-.34-.73-.08-.16.17-.23.43-.38.58-.24.24-.56.22-.86.19.12.02-.25.41-.29.48a.96.96 0 00-.2.4c-.04.17 0 .35-.09.53.3-.1.45.44.33.46.36-.05.65-.05.99.07.24.08.6.19.7.44.07-.1.4-.05.5-.01.2.1.22.32.27.5.07.27.3.7.59.56.05-.04.43-.2.29-.31-.14-.12-.3-.43-.16-.6.14-.19.47-.24.55-.48.14-.4-.4-.34-.4-.63 0-.18.21-.23.2-.43 0-.17-.26-.52-.05-.64.17-.1.99.07 1.14.17.16.1.64.24.67.4h-.08c.13.12.25.38.01.44.16-.03.6.14.3.24.1-.05.18-.01.29-.08.12-.07.19-.2.34-.1.03.01.22-.36.32-.35.16.02.2.24.26.35.07.15.26.2.33.36.12.29.07.56.46.66.12.04.45-.15.43.1.07-.06.1-.11.1-.13.02.24.12.51.41.48 0 0 0 .32-.03.38-.1.15-.36.12-.52.2-.05.02-.46.38-.4.43-.23-.26-.59-.26-.88-.19-.31.05-.6.09-.9.2-.13.08-.27.14-.37.26-.05.07-.14.38-.22.4.17-.04.25-.22.4-.33zm-2.8 15.03a2.9 2.9 0 01-.04-.27c-.01-.28.28-.46.26-.72-.19-.05-.24-.24-.2-.45.03-.29.29-.5.5-.68.2-.19.25-.58.2-.82-.09-.42-.09-.84-.16-1.26.02.1.31.07.36.21.07-.12.1-.27.2-.4.06-.1.18-.13.28-.22.18-.1.54-.5.74-.25.17.2-.26.42-.03.61.07-.13 0-.34.13-.48.28-.3.47.04.74.12.3.09.4.2.62.38-.07-.07.27-.19.3-.2.33-.07.47.11.7.29.23.17.6.29.57.63.18.03.28.09.42.14.13.07.32.03.42.13a10.88 10.88 0 01-6.01 3.24zM214.43 88.34c-1 .42-2.07.73-3.18.85a5.5 5.5 0 002.43-3.04 10.9 10.9 0 01-3.51 1.33 5.51 5.51 0 00-9.57 3.78c0 .43.06.86.14 1.27a15.71 15.71 0 01-11.4-5.78 5.52 5.52 0 001.71 7.4c-.9-.05-1.76-.3-2.5-.71v.06c0 2.7 1.9 4.92 4.44 5.43a5.83 5.83 0 01-2.5.1 5.54 5.54 0 005.17 3.83 11.06 11.06 0 01-8.2 2.3 15.62 15.62 0 008.49 2.48c10.16 0 15.73-8.42 15.73-15.73 0-.24 0-.48-.02-.72a11.87 11.87 0 002.77-2.85zM249.05 49.13H225.6c-.8 0-1.46.65-1.46 1.46v23.45c0 .8.65 1.45 1.46 1.45h12.62V65.3h-3.43v-4h3.43v-2.93c0-3.4 2.1-5.25 5.13-5.25 1.44 0 2.7.1 3.06.15v3.56l-2.1.02c-1.66 0-1.97.77-1.97 1.92v2.54h3.93l-.52 3.98h-3.41V75.5h6.71c.8 0 1.46-.66 1.46-1.46V50.59c0-.81-.65-1.46-1.46-1.46zM252.7 93.46c-.5.57-1.1 1.06-1.7 1.5-2.88 1.93-5.76 3.89-8.56 5.92-1.44 1.06-3.23 2.36-5.1 2.36h-.03c-1.87 0-3.66-1.3-5.1-2.36-2.8-2.05-5.68-3.99-8.53-5.93a9.58 9.58 0 01-1.73-1.49v13.63a2.75 2.75 0 002.74 2.75h25.27a2.75 2.75 0 002.75-2.75V93.46zm0-5.05a2.77 2.77 0 00-2.74-2.74H224.7c-1.83 0-2.74 1.44-2.74 3.12 0 1.56 1.73 3.5 2.95 4.33 2.66 1.85 5.35 3.7 8.01 5.58 1.12.77 3 2.35 4.4 2.35h.03c1.4 0 3.28-1.58 4.4-2.35 2.66-1.88 5.35-3.73 8.03-5.58 1.51-1.05 2.94-2.78 2.94-4.7z" fill="#00a0dd" fill-rule="nonzero"/><g><path d="M62.38 101.44c0-9.89-2.32-25.07-15.14-25.07-1.35 0-7.08 6.08-15.66 6.08-8.57 0-14.3-6.08-15.65-6.08C3.1 76.37.79 91.55.79 101.43c0 7.1 4.73 11.33 11.68 11.33H50.7c6.95 0 11.68-4.24 11.68-11.32zm-14-39.07a16.8 16.8 0 10-33.6.01 16.8 16.8 0 0033.6 0z" fill="#00a0dd" fill-rule="nonzero"/><text x="2.85" y="136.78" font-family="'ArialMT','Arial',sans-serif" font-size="20" fill="#4d4d4d">Kunde</text></g><path d="M94.22 87.62v5.81l-8.94-8.94 8.94-8.94v5.81h61.17v-5.81l8.94 8.94-8.94 8.95v-5.82H94.22zM279.89 87.62v5.81l-8.95-8.94 8.95-8.94v5.81h61.16v-5.81l8.95 8.94-8.95 8.95v-5.82H279.9z" fill="#00658d"/><path d="M475.82 87.62v5.81l-8.94-8.94 8.94-8.94v5.81H537v-5.81l8.94 8.94-8.94 8.95v-5.82h-61.17z" fill="#d0e4ed"/><g fill="#00cd7e"><path d="M405.95 213.43v-6.26h131.04v-5.81l8.94 8.94-8.94 8.95v-5.82H405.95z"/><path d="M412.2 213.43h-6.25v-60.35h6.26v60.35z"/></g></svg>