<?xml version="1.0" encoding="UTF-8" standalone="no"?><!DOCTYPE svg PUBLIC "-//W3C//DTD SVG 1.1//EN" "http://www.w3.org/Graphics/SVG/1.1/DTD/svg11.dtd"><svg width="100%" height="100%" viewBox="0 0 404 155" version="1.1" xmlns="http://www.w3.org/2000/svg" xmlns:xlink="http://www.w3.org/1999/xlink" xml:space="preserve" style="fill-rule:evenodd;clip-rule:evenodd;stroke-linejoin:round;stroke-miterlimit:1.41421;"><g><g><path d="M402.061,99.744c0,-9.885 -2.318,-25.063 -15.135,-25.063c-1.356,0 -7.086,6.08 -15.659,6.08c-8.573,0 -14.303,-6.08 -15.659,-6.08c-12.817,0 -15.135,15.178 -15.135,25.063c0,7.087 4.724,11.329 11.679,11.329l38.23,0c6.955,0 11.679,-4.242 11.679,-11.329Zm-13.997,-39.06c0,-9.274 -7.524,-16.797 -16.797,-16.797c-9.273,0 -16.797,7.523 -16.797,16.797c0,9.273 7.524,16.796 16.797,16.796c9.273,0 16.797,-7.523 16.797,-16.796Z" style="fill:#00658d;fill-rule:nonzero;"/><text x="342.537px" y="143.09px" style="font-family:'Arial-BoldMT', 'Arial', sans-serif;font-weight:700;font-size:20px;fill:#00658d;">Kunde</text></g><g><path d="M83.699,62.047c0,-8.842 -7.178,-16.02 -16.019,-16.02l-51.093,0c-8.842,0 -16.02,7.178 -16.02,16.02l0,32.039c0,8.841 7.178,16.019 16.02,16.019l51.093,0c8.841,0 16.019,-7.178 16.019,-16.019l0,-32.039Z" style="fill:#00a0dd;"/><clipPath id="_clip1"><path d="M83.699,62.047c0,-8.842 -7.178,-16.02 -16.019,-16.02l-51.093,0c-8.842,0 -16.02,7.178 -16.02,16.02l0,32.039c0,8.841 7.178,16.019 16.02,16.019l51.093,0c8.841,0 16.019,-7.178 16.019,-16.019l0,-32.039Z"/></clipPath><g clip-path="url(#_clip1)"><path d="M75.139,64.072c0,-4.578 -3.716,-8.295 -8.294,-8.295l-49.013,0c-4.578,0 -8.295,3.717 -8.295,8.295l0,16.588c0,4.578 3.717,8.295 8.295,8.295l49.013,0c4.578,0 8.294,-3.717 8.294,-8.295l0,-16.588Z" style="fill:#fff;"/><clipPath id="_clip2"><path d="M75.139,64.072c0,-4.578 -3.716,-8.295 -8.294,-8.295l-49.013,0c-4.578,0 -8.295,3.717 -8.295,8.295l0,16.588c0,4.578 3.717,8.295 8.295,8.295l49.013,0c4.578,0 8.294,-3.717 8.294,-8.295l0,-16.588Z"/></clipPath><g clip-path="url(#_clip2)"><g><circle cx="26.364" cy="72.466" r="5.5" style="fill:#00a0dd;"/></g><g><circle cx="57.903" cy="72.266" r="5.5" style="fill:#00a0dd;"/></g></g></g><text x="22.089px" y="143.09px" style="font-family:'Arial-BoldMT', 'Arial', sans-serif;font-weight:700;font-size:20px;fill:#00a0dd;">CAN</text></g><path d="M244.898,154.435c11.208,0 20.308,-9.1 20.308,-20.308l0,-23.462c0,-11.208 -9.1,-20.308 -20.308,-20.308l-99.605,0c-11.209,0 -20.309,9.1 -20.309,20.308c0,0 -18.721,0.1 -18.721,0.1l18.721,16.239l0,7.123c0,11.208 9.1,20.308 20.309,20.308l99.605,0Z" style="fill:#00a0dd;"/><clipPath id="_clip3"><path d="M244.898,154.435c11.208,0 20.308,-9.1 20.308,-20.308l0,-23.462c0,-11.208 -9.1,-20.308 -20.308,-20.308l-99.605,0c-11.209,0 -20.309,9.1 -20.309,20.308c0,0 -18.721,0.1 -18.721,0.1l18.721,16.239l0,7.123c0,11.208 9.1,20.308 20.309,20.308l99.605,0Z"/></clipPath><g clip-path="url(#_clip3)"><g transform="matrix(1,-1.3593e-17,-1.74716e-17,1,-383.252,-1113.39)"><text x="525.005px" y="1231.34px" style="font-family:'ArialMT', 'Arial', sans-serif;font-size:16px;fill:#fff;">Ich helfe Ihnen</text><text x="525.005px" y="1249.34px" style="font-family:'ArialMT', 'Arial', sans-serif;font-size:16px;fill:#fff;">gerne!</text></g></g><path d="M179.517,68.175c-11.208,0 -20.308,-9.1 -20.308,-20.309l0,-26.57c0,-11.208 9.1,-20.308 20.308,-20.308l99.605,0c11.209,0 20.309,9.1 20.309,20.308l0,10.229l18.721,16.254l-18.721,0.087l0,0c0,11.209 -9.1,20.309 -20.309,20.309l-99.605,0Z" style="fill:#00658d;"/><clipPath id="_clip4"><path d="M179.517,68.175c-11.208,0 -20.308,-9.1 -20.308,-20.309l0,-26.57c0,-11.208 9.1,-20.308 20.308,-20.308l99.605,0c11.209,0 20.309,9.1 20.309,20.308l0,10.229l18.721,16.254l-18.721,0.087l0,0c0,11.209 -9.1,20.309 -20.309,20.309l-99.605,0Z"/></clipPath><g clip-path="url(#_clip4)"><g transform="matrix(1,8.93794e-18,1.04656e-17,1,-348.975,-1202.76)"><text x="525.005px" y="1231.34px" style="font-family:'ArialMT', 'Arial', sans-serif;font-size:16px;fill:#fff;">Ich habe einen</text><text x="525.005px" y="1249.34px" style="font-family:'ArialMT', 'Arial', sans-serif;font-size:16px;fill:#fff;">W<tspan x="539.817px 548.716px " y="1249.34px 1249.34px ">un</tspan>sch.</text></g></g></g></svg>