<?xml version="1.0" encoding="UTF-8" standalone="no"?><!DOCTYPE svg PUBLIC "-//W3C//DTD SVG 1.1//EN" "http://www.w3.org/Graphics/SVG/1.1/DTD/svg11.dtd"><svg width="100%" height="100%" viewBox="0 0 48 53" version="1.1" xmlns="http://www.w3.org/2000/svg" xmlns:xlink="http://www.w3.org/1999/xlink" xml:space="preserve" style="fill-rule:evenodd;clip-rule:evenodd;stroke-linejoin:round;stroke-miterlimit:1.41421;"><path d="M45.957,15.35c-1.254,-1.253 -2.776,-1.88 -4.566,-1.88c-1.79,0 -3.312,0.627 -4.566,1.88c-1.253,1.254 -1.879,2.775 -1.879,4.566c0,1.387 0.397,2.63 1.191,3.726c0.795,1.097 1.83,1.88 3.106,2.35l0,13.26c0,2.373 -1.052,4.398 -3.156,6.077c-2.103,1.678 -4.632,2.517 -7.586,2.517c-2.954,0 -5.484,-0.839 -7.587,-2.517c-2.104,-1.679 -3.156,-3.704 -3.156,-6.077l0,-4.431c3.671,-0.447 6.737,-1.88 9.199,-4.297c2.461,-2.417 3.693,-5.237 3.693,-8.46l0,-17.188c0,-0.581 -0.214,-1.085 -0.639,-1.511c-0.424,-0.424 -0.929,-0.637 -1.511,-0.637c-0.134,0 -0.313,0.022 -0.537,0.067c-0.38,-0.672 -0.906,-1.208 -1.578,-1.612c-0.67,-0.403 -1.398,-0.604 -2.181,-0.604c-1.186,0 -2.199,0.42 -3.038,1.259c-0.84,0.839 -1.259,1.852 -1.259,3.038c0,1.186 0.419,2.199 1.259,3.038c0.839,0.84 1.852,1.259 3.038,1.259c0.738,0 1.454,-0.201 2.148,-0.604l0,13.495c0,2.373 -1.052,4.398 -3.155,6.077c-2.104,1.678 -4.633,2.517 -7.587,2.517c-2.954,0 -5.483,-0.839 -7.587,-2.517c-2.104,-1.679 -3.156,-3.704 -3.156,-6.077l0,-13.495c0.694,0.403 1.41,0.604 2.149,0.604c1.186,0 2.199,-0.419 3.038,-1.259c0.839,-0.839 1.258,-1.852 1.258,-3.038c0,-1.186 -0.419,-2.199 -1.258,-3.038c-0.84,-0.839 -1.852,-1.259 -3.038,-1.259c-0.784,0 -1.511,0.201 -2.183,0.604c-0.671,0.403 -1.197,0.94 -1.577,1.612c-0.224,-0.044 -0.403,-0.067 -0.537,-0.067c-0.583,0 -1.086,0.213 -1.511,0.637c-0.425,0.426 -0.638,0.93 -0.638,1.511l0,17.188c0,3.223 1.23,6.042 3.692,8.46c2.462,2.417 5.528,3.85 9.199,4.298l0,4.431c0,3.558 1.471,6.596 4.415,9.114c2.943,2.517 6.484,3.776 10.624,3.776c4.141,0 7.682,-1.259 10.625,-3.776c2.944,-2.518 4.414,-5.556 4.414,-9.114l0,-13.261c1.277,-0.47 2.312,-1.253 3.106,-2.35c0.795,-1.096 1.193,-2.339 1.193,-3.726c-0.001,-1.79 -0.627,-3.313 -1.881,-4.566Zm-3.054,6.076c-0.426,0.426 -0.929,0.638 -1.511,0.638c-0.582,0 -1.085,-0.212 -1.511,-0.638c-0.425,-0.425 -0.637,-0.928 -0.637,-1.51c0,-0.582 0.212,-1.086 0.637,-1.511c0.426,-0.425 0.929,-0.638 1.511,-0.638c0.582,0 1.085,0.213 1.511,0.638c0.425,0.425 0.637,0.929 0.637,1.511c0,0.582 -0.212,1.085 -0.637,1.51Z" style="fill:#008ec4;fill-rule:nonzero;"/></svg>