<svg viewBox="0 0 48 53" xmlns="http://www.w3.org/2000/svg" fill-rule="evenodd" clip-rule="evenodd" stroke-linejoin="round" stroke-miterlimit="1.41"><path d="M45.96 15.35a6.22 6.22 0 00-4.57-1.88c-1.79 0-3.31.63-4.57 1.88a6.22 6.22 0 00-1.87 4.57c0 1.38.4 2.63 1.19 3.72a6.55 6.55 0 003.1 2.35v13.26c0 2.37-1.05 4.4-3.15 6.08a11.79 11.79 0 01-7.59 2.52c-2.95 0-5.48-.84-7.59-2.52-2.1-1.68-3.15-3.7-3.15-6.08v-4.43a15.39 15.39 0 009.2-4.3 11.5 11.5 0 003.69-8.46V4.88c0-.59-.21-1.09-.64-1.52a2.07 2.07 0 00-2.05-.57A4.36 4.36 0 0024.2.58c-1.18 0-2.2.42-3.03 1.26a4.14 4.14 0 00-1.26 3.04c0 1.18.42 2.2 1.26 3.03a4.22 4.22 0 005.19.66v13.5c0 2.37-1.06 4.4-3.16 6.07a11.8 11.8 0 01-7.59 2.52 11.8 11.8 0 01-7.59-2.52c-2.1-1.68-3.15-3.7-3.15-6.08V8.56a4.22 4.22 0 005.18-.65 4.14 4.14 0 001.26-3.03c0-1.19-.42-2.2-1.26-3.04A4.14 4.14 0 007.02.58 4.35 4.35 0 003.26 2.8a2.07 2.07 0 00-2.05.57c-.43.42-.64.92-.64 1.5v17.2a11.5 11.5 0 003.7 8.45 15.4 15.4 0 009.2 4.3v4.43c0 3.56 1.46 6.6 4.4 9.12a15.8 15.8 0 0010.63 3.77 15.8 15.8 0 0010.63-3.77c2.94-2.52 4.4-5.56 4.4-9.12V26a6.54 6.54 0 003.12-2.35c.79-1.1 1.19-2.34 1.19-3.72 0-1.8-.63-3.32-1.88-4.57zm-3.06 6.08c-.42.42-.93.63-1.5.63-.59 0-1.1-.2-1.52-.63a2.06 2.06 0 01-.64-1.51c0-.59.22-1.09.64-1.52.43-.42.93-.63 1.51-.63s1.09.21 1.51.63c.43.43.64.93.64 1.52 0 .58-.21 1.08-.64 1.5z" fill="#008ec4" fill-rule="nonzero"/></svg>