<?xml version="1.0" encoding="UTF-8" standalone="no"?><!DOCTYPE svg PUBLIC "-//W3C//DTD SVG 1.1//EN" "http://www.w3.org/Graphics/SVG/1.1/DTD/svg11.dtd"><svg width="100%" height="100%" viewBox="0 0 57 53" version="1.1" xmlns="http://www.w3.org/2000/svg" xmlns:xlink="http://www.w3.org/1999/xlink" xml:space="preserve" style="fill-rule:evenodd;clip-rule:evenodd;stroke-linejoin:round;stroke-miterlimit:1.41421;"><path d="M25.984,44.159l-1,0l0,-6c0,-2.2 -0.9,-4.3 -2.4,-5.8l-7.6,-7.6l0,-2.6c0,-2.2 -1.8,-4 -4,-4c0,-2.2 -1.8,-4 -4,-4c0,-2.2 -1.8,-4 -4,-4l-1,0c-0.3,0 -0.5,0.1 -0.7,0.3c-0.2,0.2 -0.3,0.4 -0.3,0.7l0,18c0,0.2 0.1,0.4 0.2,0.5l9,14.5l-0.2,0c-0.3,0 -0.5,0.1 -0.7,0.3c-0.2,0.2 -0.3,0.4 -0.3,0.7l0,6c0,0.3 0.1,0.5 0.3,0.7c0.2,0.2 0.4,0.3 0.7,0.3l16,0c0.3,0 0.5,-0.1 0.7,-0.3c0.2,-0.2 0.3,-0.4 0.3,-0.7l0,-6c0,-0.3 -0.1,-0.5 -0.3,-0.7c-0.2,-0.2 -0.4,-0.3 -0.7,-0.3Zm-13,-22l0,1c-0.3,0 -0.5,0.1 -0.7,0.3l-0.9,0.9c-0.2,0.2 -0.3,0.3 -0.4,0.5l0,-4.7c1.1,0 2,0.9 2,2Zm-6,-6c1.1,0 2,0.9 2,2l0,8.6l-2,-2l0,-8.6Zm-4,12.7l0,-16.7c1.1,0 2,0.9 2,2l0,11c0,0.3 0.1,0.5 0.3,0.7l9.5,9.5c0.3,0.3 0.8,0.5 1.2,0.5c0.4,0 0.9,-0.2 1.2,-0.5c0.3,-0.3 0.5,-0.8 0.5,-1.2c0,-0.4 -0.2,-0.9 -0.5,-1.2l-4.4,-4.4c-0.4,-0.4 -0.6,-0.9 -0.6,-1.4c0,-0.5 0.2,-1 0.6,-1.4l0.2,-0.2l8.2,8.2c1.2,1.2 1.8,2.8 1.8,4.4l0,6l-10.4,0l-9.6,-15.3Zm8,21.3l0,-4l14,0l0,4l-14,0Zm45.7,-39.7c-0.2,-0.2 -0.4,-0.3 -0.7,-0.3l-1,0c-2.2,0 -4,1.8 -4,4c-2.2,0 -4,1.8 -4,4c-2.2,0 -4,1.8 -4,4l0,2.6l-7.6,7.6c-1.5,1.5 -2.4,3.6 -2.4,5.8l0,6l-1,0c-0.3,0 -0.5,0.1 -0.7,0.3c-0.2,0.2 -0.3,0.4 -0.3,0.7l0,6c0,0.3 0.1,0.5 0.3,0.7c0.2,0.2 0.4,0.3 0.7,0.3l16,0c0.3,0 0.5,-0.1 0.7,-0.3c0.2,-0.2 0.3,-0.4 0.3,-0.7l0,-6c0,-0.3 -0.1,-0.5 -0.3,-0.7c-0.2,-0.2 -0.4,-0.3 -0.7,-0.3l-0.2,0l9,-14.5c0.1,-0.2 0.2,-0.3 0.2,-0.5l0,-18c0,-0.3 -0.1,-0.5 -0.3,-0.7Zm-7.7,7.7c0,-1.1 0.9,-2 2,-2l0,8.6l-2,2l0,-8.6Zm-2,2l0,4.7c-0.1,-0.2 -0.3,-0.3 -0.4,-0.5l-0.9,-0.9c-0.2,-0.2 -0.5,-0.3 -0.7,-0.3l0,-1c0,-1.1 0.9,-2 2,-2Zm0,30l-14,0l0,-4l14,0l0,4Zm8,-21.3l-9.6,15.3l-10.4,0l0,-6c0,-1.7 0.7,-3.2 1.8,-4.4l8.2,-8.2l0.2,0.2c0.4,0.4 0.6,0.9 0.6,1.4c0,0.5 -0.2,1 -0.6,1.4l-4.4,4.4c-0.3,0.3 -0.5,0.8 -0.5,1.2c0,0.4 0.2,0.9 0.5,1.2c0.3,0.3 0.8,0.5 1.2,0.5c0.4,0 0.9,-0.2 1.2,-0.5l9.5,-9.5c0.2,-0.2 0.3,-0.4 0.3,-0.7l0,-11c0,-1.1 0.9,-2 2,-2l0,16.7Zm-12,-14.7c0,-7.7 -6.3,-14 -14,-14c-7.7,0 -14,6.3 -14,14c0,7.7 6.3,14 14,14c7.7,0 14,-6.3 14,-14Zm-18.6,-11.1c-0.4,0.5 -0.8,1.1 -1.2,1.7c-0.5,1 -1,2.1 -1.4,3.3l-3.2,0c1.3,-2.2 3.3,-4 5.8,-5Zm-7.4,11.1c0,-1.4 0.3,-2.7 0.7,-4l3.6,0c-0.2,1.3 -0.3,2.6 -0.4,4c0,1.4 0.1,2.7 0.4,4l-3.6,0c-0.4,-1.3 -0.7,-2.6 -0.7,-4Zm1.6,6l3.2,0c0.4,1.2 0.8,2.3 1.4,3.3c0.4,0.6 0.8,1.2 1.2,1.7c-2.5,-1 -4.5,-2.7 -5.8,-5Zm9.4,5.3c-1.1,-0.4 -2.2,-1.4 -3.1,-3c-0.4,-0.7 -0.7,-1.5 -1,-2.4l4.1,0l0,5.4Zm0,-7.3l-4.6,0c-0.2,-1.2 -0.4,-2.6 -0.4,-4c0,-1.4 0.1,-2.8 0.4,-4l4.6,0l0,8Zm0,-10l-4.1,0c0.3,-0.9 0.6,-1.7 1,-2.4c0.9,-1.6 2,-2.6 3.1,-3l0,5.4Zm13,6c0,1.4 -0.3,2.7 -0.7,4l-3.6,0c0.2,-1.3 0.4,-2.6 0.4,-4c0,-1.4 -0.1,-2.7 -0.4,-4l3.6,0c0.4,1.3 0.7,2.6 0.7,4Zm-1.6,-6l-3.2,0c-0.4,-1.2 -0.8,-2.3 -1.4,-3.3c-0.4,-0.6 -0.8,-1.2 -1.2,-1.7c2.5,0.9 4.5,2.7 5.8,5Zm-9.4,-5.3c1.1,0.4 2.2,1.4 3.1,3c0.4,0.7 0.7,1.5 1,2.4l-4.1,0l0,-5.4Zm0,7.3l4.6,0c0.2,1.2 0.4,2.6 0.4,4c0,1.4 -0.1,2.8 -0.4,4l-4.6,0l0,-8Zm0,15.3l0,-5.3l4.1,0c-0.3,0.9 -0.6,1.7 -1,2.4c-0.9,1.6 -2,2.5 -3.1,2.9Zm3.6,-0.2c0.4,-0.5 0.8,-1.1 1.2,-1.7c0.5,-1 1,-2.1 1.4,-3.3l3.2,0c-1.3,2.2 -3.4,4 -5.8,5Z" style="fill:#008ec4;fill-rule:nonzero;"/></svg>