<svg viewBox="0 0 57 53" xmlns="http://www.w3.org/2000/svg" fill-rule="evenodd" clip-rule="evenodd" stroke-linejoin="round" stroke-miterlimit="1.41"><path d="M25.98 44.16h-1v-6c0-2.2-.9-4.3-2.4-5.8l-7.6-7.6v-2.6c0-2.2-1.8-4-4-4 0-2.2-1.8-4-4-4 0-2.2-1.8-4-4-4h-1c-.3 0-.5.1-.7.3-.2.2-.3.4-.3.7v18c0 .2.1.4.2.5l9 14.5h-.2c-.3 0-.5.1-.7.3-.2.2-.3.4-.3.7v6c0 .3.1.5.3.7.2.2.4.3.7.3h16c.3 0 .5-.1.7-.3.2-.2.3-.4.3-.7v-6c0-.3-.1-.5-.3-.7a.9.9 0 00-.7-.3zm-13-22v1c-.3 0-.5.1-.7.3l-.9.9c-.2.2-.3.3-.4.5v-4.7a2 2 0 012 2zm-6-6a2 2 0 012 2v8.6l-2-2v-8.6zm-4 12.7v-16.7a2 2 0 012 2v11c0 .3.1.5.3.7l9.5 9.5c.3.3.8.5 1.2.5.4 0 .9-.2 1.2-.5.3-.3.5-.8.5-1.2 0-.4-.2-.9-.5-1.2l-4.4-4.4c-.4-.4-.6-.9-.6-1.4 0-.5.2-1 .6-1.4l.2-.2 8.2 8.2a6.2 6.2 0 011.8 4.4v6h-10.4l-9.6-15.3zm8 21.3v-4h14v4h-14zm45.7-39.7a.9.9 0 00-.7-.3h-1c-2.2 0-4 1.8-4 4-2.2 0-4 1.8-4 4-2.2 0-4 1.8-4 4v2.6l-7.6 7.6a8.25 8.25 0 00-2.4 5.8v6h-1c-.3 0-.5.1-.7.3-.2.2-.3.4-.3.7v6c0 .3.1.5.3.7.2.2.4.3.7.3h16c.3 0 .5-.1.7-.3.2-.2.3-.4.3-.7v-6c0-.3-.1-.5-.3-.7a.9.9 0 00-.7-.3h-.2l9-14.5c.1-.2.2-.3.2-.5v-18c0-.3-.1-.5-.3-.7zm-7.7 7.7c0-1.1.9-2 2-2v8.6l-2 2v-8.6zm-2 2v4.7c-.1-.2-.3-.3-.4-.5l-.9-.9c-.2-.2-.5-.3-.7-.3v-1c0-1.1.9-2 2-2zm0 30h-14v-4h14v4zm8-21.3l-9.6 15.3h-10.4v-6c0-1.7.7-3.2 1.8-4.4l8.2-8.2.2.2c.4.4.6.9.6 1.4 0 .5-.2 1-.6 1.4l-4.4 4.4c-.3.3-.5.8-.5 1.2 0 .4.2.9.5 1.2.3.3.8.5 1.2.5.4 0 .9-.2 1.2-.5l9.5-9.5c.2-.2.3-.4.3-.7v-11c0-1.1.9-2 2-2v16.7zm-12-14.7c0-7.7-6.3-14-14-14s-14 6.3-14 14 6.3 14 14 14 14-6.3 14-14zm-18.6-11.1c-.4.5-.8 1.1-1.2 1.7-.5 1-1 2.1-1.4 3.3h-3.2c1.3-2.2 3.3-4 5.8-5zm-7.4 11.1c0-1.4.3-2.7.7-4h3.6c-.2 1.3-.3 2.6-.4 4 0 1.4.1 2.7.4 4h-3.6c-.4-1.3-.7-2.6-.7-4zm1.6 6h3.2c.4 1.2.8 2.3 1.4 3.3.4.6.8 1.2 1.2 1.7-2.5-1-4.5-2.7-5.8-5zm9.4 5.3c-1.1-.4-2.2-1.4-3.1-3-.4-.7-.7-1.5-1-2.4h4.1v5.4zm0-7.3h-4.6c-.2-1.2-.4-2.6-.4-4s.1-2.8.4-4h4.6v8zm0-10h-4.1c.3-.9.6-1.7 1-2.4.9-1.6 2-2.6 3.1-3v5.4zm13 6c0 1.4-.3 2.7-.7 4h-3.6c.2-1.3.4-2.6.4-4s-.1-2.7-.4-4h3.6c.4 1.3.7 2.6.7 4zm-1.6-6h-3.2c-.4-1.2-.8-2.3-1.4-3.3-.4-.6-.8-1.2-1.2-1.7 2.5.9 4.5 2.7 5.8 5zm-9.4-5.3c1.1.4 2.2 1.4 3.1 3 .4.7.7 1.5 1 2.4h-4.1v-5.4zm0 7.3h4.6c.2 1.2.4 2.6.4 4s-.1 2.8-.4 4h-4.6v-8zm0 15.3v-5.3h4.1c-.3.9-.6 1.7-1 2.4-.9 1.6-2 2.5-3.1 2.9zm3.6-.2c.4-.5.8-1.1 1.2-1.7.5-1 1-2.1 1.4-3.3h3.2c-1.3 2.2-3.4 4-5.8 5z" fill="#008ec4" fill-rule="nonzero"/></svg>