<svg viewBox="0 0 64 64" xmlns="http://www.w3.org/2000/svg" fill-rule="evenodd" clip-rule="evenodd" stroke-linejoin="round" stroke-miterlimit="1.41"><g fill="#a0a0a0" fill-rule="nonzero"><path d="M58.8 42.67c-1.17 1.03-2.82.58-2.82-1.44v-4.85c0-1.46-1.2-2.67-2.67-2.67h-3.4c.39.8.6 1.65.6 2.5 0 2.99-2.33 5.25-5.54 5.38H44.76c-3.2-.13-5.54-2.4-5.54-5.38 0-.87.21-1.72.6-2.5H36.2a2.61 2.61 0 00-2.61 2.62v4.9c0 2.02-1.69 2.46-2.85 1.44-1.93-1.7-4.86-.8-5 2.3.14 3.09 3.07 4 4.99 2.3 1.16-1.03 2.86-.58 2.86 1.44v4.8a2.61 2.61 0 002.6 2.61h4.87c2.02 0 2.46 1.7 1.44 2.86-1.7 1.93-.79 4.89 2.3 5.02 3.1-.13 4-3.1 2.3-5.02-1.03-1.16-.58-2.87 1.44-2.87h4.84A2.61 2.61 0 0056 53.49v-4.8c0-2.01 1.65-2.45 2.81-1.43 1.9 1.7 4.84.79 4.97-2.3-.13-3.08-3.06-3.99-4.98-2.3z"/><path d="M58.82 17.63c-1.16 1.04-2.87.58-2.87-1.43v-4.82a2.61 2.61 0 00-2.61-2.61h-4.8c-2.02 0-2.46-1.64-1.44-2.8 1.7-1.94.8-4.87-2.3-5-3.1.13-4 3.05-2.3 4.98 1.03 1.16.58 2.82-1.44 2.82h-4.85a2.68 2.68 0 00-2.67 2.67v3.4c.8-.39 1.65-.6 2.5-.6 3 0 5.27 2.33 5.4 5.54v.2c-.13 3.21-2.4 5.54-5.39 5.54-.86 0-1.72-.2-2.5-.6v3.62a2.61 2.61 0 002.62 2.61h4.9c2.02 0 2.46 1.68 1.44 2.85-1.7 1.92-.79 4.86 2.3 5 3.1-.14 4-3.08 2.3-4.99-1.03-1.16-.58-2.86 1.44-2.86h4.8a2.61 2.61 0 002.61-2.61v-4.87c0-2.01 1.7-2.45 2.86-1.43 1.93 1.7 4.9.79 5.02-2.3-.13-3.1-3.09-4-5.02-2.3zM28.56 33.67h-4.9c-2.02 0-2.46-1.68-1.44-2.84 1.7-1.93.8-4.87-2.3-5-3.1.13-4 3.07-2.3 4.99 1.03 1.16.58 2.85-1.44 2.85h-4.8a2.62 2.62 0 00-2.61 2.62v4.86c0 2.02-1.7 2.46-2.86 1.44-1.93-1.7-4.89-.8-5.02 2.3.12 3.07 3.1 3.97 5 2.28 1.17-1.04 2.88-.58 2.88 1.43v4.84a2.62 2.62 0 002.61 2.62h4.8c2.02 0 2.46 1.64 1.44 2.8-1.7 1.93-.8 4.87 2.3 5 3.1-.13 4-3.06 2.3-4.98-1.03-1.17-.58-2.82 1.44-2.82h4.85c1.46 0 2.67-1.2 2.67-2.67V50c-.8.39-1.65.6-2.5.6-2.99 0-5.25-2.34-5.38-5.54V44.84c.13-3.2 2.4-5.54 5.38-5.54.87 0 1.72.2 2.5.6V36.29a2.61 2.61 0 00-2.62-2.62z"/><path d="M34 17.62c-1.17 1.03-2.86.58-2.86-1.44V11.4a2.62 2.62 0 00-2.62-2.62h-4.86c-2.02 0-2.46-1.7-1.44-2.86 1.7-1.92.8-4.89-2.3-5.01-3.1.12-4 3.09-2.3 5.01 1.03 1.17.58 2.88-1.44 2.88h-4.81a2.62 2.62 0 00-2.61 2.61v4.8c0 2.02-1.65 2.46-2.81 1.43-1.93-1.69-4.87-.78-5 2.3.13 3.07 3.06 3.98 4.99 2.28 1.16-1.03 2.82-.58 2.82 1.44v4.85c0 1.46 1.2 2.67 2.66 2.67h3.4a5.68 5.68 0 01-.6-2.5c0-2.99 2.34-5.25 5.55-5.38h.2c3.21.13 5.54 2.4 5.54 5.38 0 .87-.2 1.72-.6 2.5h3.61a2.62 2.62 0 002.62-2.62v-4.9c0-2.02 1.68-2.46 2.84-1.44 1.93 1.7 4.87.8 5-2.3-.13-3.09-3.07-4-4.98-2.3z"/></g></svg>