<?xml version="1.0" encoding="UTF-8" standalone="no"?><!DOCTYPE svg PUBLIC "-//W3C//DTD SVG 1.1//EN" "http://www.w3.org/Graphics/SVG/1.1/DTD/svg11.dtd"><svg width="100%" height="100%" viewBox="0 0 64 64" version="1.1" xmlns="http://www.w3.org/2000/svg" xmlns:xlink="http://www.w3.org/1999/xlink" xml:space="preserve" style="fill-rule:evenodd;clip-rule:evenodd;stroke-linejoin:round;stroke-miterlimit:1.41421;"><g><path d="M58.797,42.666c-1.164,1.035 -2.82,0.582 -2.82,-1.436l0,-4.852c0,-1.462 -1.203,-2.665 -2.665,-2.665l-3.403,0c0.389,0.789 0.596,1.643 0.596,2.497c0,2.989 -2.329,5.253 -5.538,5.382l-0.103,0l-0.104,0c-3.208,-0.129 -5.537,-2.393 -5.537,-5.382c0,-0.867 0.207,-1.721 0.595,-2.497l-3.544,0l-0.013,0l-0.052,0c-1.436,0 -2.613,1.165 -2.613,2.613l0,4.904c0,2.018 -1.682,2.458 -2.846,1.436c-1.928,-1.695 -4.865,-0.789 -4.994,2.302c0.129,3.092 3.066,3.998 4.981,2.303c1.164,-1.035 2.859,-0.582 2.859,1.436l0,4.8c0,1.436 1.164,2.613 2.613,2.613l4.864,0c2.019,0 2.458,1.695 1.436,2.859c-1.694,1.928 -0.789,4.891 2.303,5.02c3.092,-0.129 3.998,-3.092 2.303,-5.02c-1.035,-1.164 -0.582,-2.872 1.436,-2.872l4.839,0c1.436,0 2.613,-1.164 2.613,-2.613l0,-4.8c0,-2.018 1.643,-2.458 2.807,-1.436c1.902,1.695 4.839,0.79 4.968,-2.29c-0.129,-3.091 -3.053,-3.997 -4.981,-2.302Z" style="fill:#a0a0a0;fill-rule:nonzero;"/><path d="M58.823,17.632c-1.164,1.035 -2.872,0.582 -2.872,-1.436l0,-4.812c0,-1.436 -1.164,-2.614 -2.613,-2.614l-4.8,0c-2.018,0 -2.458,-1.643 -1.436,-2.807c1.695,-1.928 0.789,-4.864 -2.303,-4.994c-3.092,0.13 -3.997,3.053 -2.303,4.981c1.035,1.164 0.583,2.82 -1.436,2.82l-4.851,0c-1.462,0 -2.665,1.204 -2.665,2.665l0,3.403c0.789,-0.388 1.643,-0.595 2.497,-0.595c3.001,0 5.265,2.328 5.395,5.537l0,0.207c-0.13,3.208 -2.394,5.537 -5.382,5.537c-0.867,0 -1.721,-0.207 -2.497,-0.595l0,3.609c0,1.436 1.164,2.614 2.613,2.614l4.903,0c2.019,0 2.458,1.681 1.436,2.846c-1.694,1.927 -0.789,4.864 2.303,4.994c3.092,-0.13 3.998,-3.067 2.303,-4.981c-1.035,-1.165 -0.582,-2.859 1.436,-2.859l4.8,0c1.436,0 2.613,-1.165 2.613,-2.614l0,-4.864c0,-2.018 1.695,-2.458 2.859,-1.436c1.928,1.695 4.89,0.789 5.02,-2.303c-0.13,-3.092 -3.092,-3.997 -5.02,-2.303Z" style="fill:#a0a0a0;fill-rule:nonzero;"/><path d="M28.563,33.674l-4.903,0c-2.018,0 -2.458,-1.681 -1.436,-2.846c1.695,-1.927 0.789,-4.864 -2.303,-4.994c-3.092,0.13 -3.997,3.067 -2.303,4.981c1.035,1.165 0.582,2.859 -1.436,2.859l-4.799,0c-1.436,0 -2.614,1.165 -2.614,2.614l0,4.864c0,2.018 -1.694,2.458 -2.859,1.436c-1.927,-1.695 -4.89,-0.789 -5.019,2.303c0.116,3.066 3.092,3.972 5.006,2.277c1.165,-1.035 2.872,-0.582 2.872,1.436l0,4.838c0,1.436 1.165,2.614 2.614,2.614l4.799,0c2.018,0 2.458,1.643 1.436,2.807c-1.694,1.928 -0.789,4.864 2.303,4.994c3.092,-0.13 3.998,-3.053 2.303,-4.981c-1.035,-1.164 -0.582,-2.82 1.436,-2.82l4.851,0c1.462,0 2.665,-1.204 2.665,-2.665l0,-3.403c-0.789,0.388 -1.643,0.595 -2.496,0.595c-2.989,0 -5.253,-2.328 -5.382,-5.537l0,-0.103l0,-0.104c0.129,-3.208 2.393,-5.537 5.382,-5.537c0.866,0 1.72,0.207 2.496,0.595l0,-3.545l0,-0.013l0,-0.051c0,-1.436 -1.164,-2.614 -2.613,-2.614Z" style="fill:#a0a0a0;fill-rule:nonzero;"/><path d="M33.997,17.619c-1.165,1.035 -2.859,0.583 -2.859,-1.436l0,-4.786c0,-1.436 -1.165,-2.614 -2.614,-2.614l-4.864,0c-2.018,0 -2.458,-1.694 -1.436,-2.859c1.695,-1.927 0.789,-4.89 -2.303,-5.019c-3.092,0.129 -3.997,3.092 -2.303,5.019c1.035,1.165 0.582,2.872 -1.436,2.872l-4.812,0c-1.436,0 -2.614,1.165 -2.614,2.614l0,4.799c0,2.018 -1.643,2.458 -2.807,1.436c-1.928,-1.695 -4.864,-0.789 -4.994,2.303c0.13,3.066 3.053,3.972 4.981,2.277c1.164,-1.035 2.82,-0.582 2.82,1.436l0,4.851c0,1.462 1.204,2.666 2.665,2.666l3.403,0c-0.388,-0.79 -0.595,-1.644 -0.595,-2.497c0,-2.989 2.328,-5.253 5.537,-5.382l0.207,0c3.208,0.129 5.537,2.393 5.537,5.382c0,0.866 -0.207,1.72 -0.595,2.497l3.609,0c1.436,0 2.614,-1.165 2.614,-2.614l0,-4.903c0,-2.018 1.681,-2.458 2.846,-1.436c1.927,1.695 4.864,0.789 4.994,-2.303c-0.13,-3.092 -3.067,-3.997 -4.981,-2.303Z" style="fill:#a0a0a0;fill-rule:nonzero;"/></g></svg>