<?xml version="1.0" encoding="UTF-8" standalone="no"?><!DOCTYPE svg PUBLIC "-//W3C//DTD SVG 1.1//EN" "http://www.w3.org/Graphics/SVG/1.1/DTD/svg11.dtd"><svg width="100%" height="100%" viewBox="0 0 55 55" version="1.1" xmlns="http://www.w3.org/2000/svg" xmlns:xlink="http://www.w3.org/1999/xlink" xml:space="preserve" style="fill-rule:evenodd;clip-rule:evenodd;stroke-linejoin:round;stroke-miterlimit:1.41421;"><g><path d="M4.401,20.249c0.283,0.972 0.677,1.91 1.175,2.79l-1.418,1.788c-0.463,0.585 -0.411,1.418 0.11,1.945l2.442,2.443c0.527,0.527 1.361,0.573 1.945,0.11l1.777,-1.407c0.915,0.527 1.887,0.938 2.9,1.227l0.267,2.287c0.086,0.741 0.712,1.297 1.453,1.297l3.455,0c0.741,0 1.366,-0.556 1.453,-1.297l0.255,-2.206c1.088,-0.283 2.13,-0.706 3.108,-1.256l1.719,1.361c0.585,0.463 1.419,0.411 1.945,-0.11l2.443,-2.443c0.527,-0.527 0.573,-1.36 0.11,-1.945l-1.337,-1.696c0.556,-0.961 0.99,-1.985 1.279,-3.056l2.061,-0.238c0.741,-0.086 1.297,-0.712 1.297,-1.453l0,-3.455c0,-0.741 -0.556,-1.366 -1.297,-1.453l-2.032,-0.238c-0.278,-1.059 -0.694,-2.072 -1.227,-3.021l1.25,-1.58c0.463,-0.585 0.411,-1.419 -0.11,-1.945l-2.437,-2.437c-0.526,-0.527 -1.36,-0.573 -1.944,-0.11l-1.534,1.215c-0.996,-0.584 -2.061,-1.03 -3.178,-1.331l-0.232,-1.985c-0.087,-0.741 -0.712,-1.297 -1.453,-1.297l-3.455,0c-0.741,0 -1.367,0.556 -1.453,1.297l-0.232,1.985c-1.146,0.307 -2.24,0.77 -3.259,1.378l-1.592,-1.262c-0.584,-0.463 -1.418,-0.411 -1.945,0.11l-2.442,2.442c-0.527,0.527 -0.573,1.361 -0.11,1.945l1.331,1.685c-0.533,0.961 -0.938,1.985 -1.204,3.05l-2.13,0.243c-0.741,0.087 -1.297,0.712 -1.297,1.453l0,3.456c0,0.741 0.556,1.366 1.297,1.453l2.246,0.261Zm12.52,-9.349c3.149,0 5.713,2.564 5.713,5.713c0,3.149 -2.564,5.714 -5.713,5.714c-3.149,0 -5.713,-2.565 -5.713,-5.714c0,-3.149 2.564,-5.713 5.713,-5.713Z" style="fill:#a0a0a0;fill-rule:nonzero;"/><path d="M51.085,21.099l-1.824,-1.539c-0.561,-0.475 -1.389,-0.452 -1.921,0.052l-1.007,0.943c-0.851,-0.411 -1.754,-0.7 -2.686,-0.868l-0.284,-1.389c-0.145,-0.718 -0.81,-1.216 -1.54,-1.158l-2.379,0.203c-0.729,0.063 -1.302,0.66 -1.325,1.395l-0.047,1.412c-0.914,0.33 -1.777,0.782 -2.564,1.349l-1.204,-0.799c-0.614,-0.405 -1.43,-0.289 -1.904,0.272l-1.54,1.835c-0.475,0.562 -0.452,1.389 0.052,1.922l1.054,1.123c-0.365,0.822 -0.626,1.684 -0.776,2.57l-1.505,0.307c-0.718,0.144 -1.216,0.81 -1.158,1.539l0.203,2.38c0.063,0.729 0.66,1.302 1.395,1.325l1.626,0.052c0.296,0.776 0.683,1.511 1.152,2.2l-0.908,1.372c-0.406,0.613 -0.29,1.429 0.272,1.904l1.823,1.54c0.561,0.474 1.389,0.451 1.922,-0.052l1.192,-1.118c0.782,0.365 1.603,0.637 2.449,0.799l0.33,1.633c0.144,0.717 0.81,1.215 1.539,1.157l2.379,-0.202c0.73,-0.064 1.303,-0.66 1.326,-1.395l0.052,-1.598c0.868,-0.307 1.69,-0.724 2.449,-1.239l1.314,0.869c0.613,0.405 1.429,0.289 1.904,-0.272l1.54,-1.824c0.474,-0.561 0.451,-1.389 -0.052,-1.922l-1.06,-1.122c0.388,-0.822 0.672,-1.691 0.834,-2.582l1.447,-0.295c0.718,-0.145 1.216,-0.811 1.158,-1.54l-0.203,-2.379c-0.064,-0.73 -0.66,-1.303 -1.395,-1.326l-1.453,-0.046c-0.301,-0.845 -0.706,-1.644 -1.21,-2.385l0.793,-1.192c0.417,-0.614 0.301,-1.436 -0.26,-1.911Zm-8.966,13.754c-2.571,0.22 -4.84,-1.696 -5.054,-4.266c-0.22,-2.57 1.696,-4.839 4.266,-5.054c2.57,-0.22 4.84,1.696 5.054,4.267c0.22,2.57 -1.696,4.839 -4.266,5.053Z" style="fill:#a0a0a0;fill-rule:nonzero;"/><path d="M12.725,41.255c-0.73,0.075 -1.291,0.689 -1.297,1.424l-0.017,1.464c-0.012,0.736 0.532,1.361 1.261,1.453l1.077,0.139c0.18,0.654 0.434,1.28 0.764,1.87l-0.694,0.857c-0.463,0.573 -0.429,1.395 0.086,1.921l1.025,1.048c0.515,0.527 1.337,0.585 1.922,0.133l0.862,-0.665c0.608,0.359 1.251,0.642 1.922,0.839l0.116,1.111c0.075,0.73 0.689,1.291 1.424,1.297l1.464,0.017c0.735,0.012 1.361,-0.532 1.453,-1.262l0.133,-1.053c0.73,-0.18 1.424,-0.452 2.084,-0.81l0.811,0.654c0.573,0.463 1.395,0.428 1.921,-0.087l1.048,-1.025c0.527,-0.515 0.585,-1.337 0.133,-1.921l-0.619,-0.805c0.382,-0.637 0.677,-1.314 0.88,-2.026l0.961,-0.099c0.729,-0.075 1.29,-0.688 1.296,-1.423l0.018,-1.465c0.011,-0.735 -0.533,-1.36 -1.262,-1.453l-0.938,-0.121c-0.18,-0.707 -0.446,-1.39 -0.793,-2.026l0.585,-0.718c0.463,-0.573 0.428,-1.395 -0.087,-1.922l-1.025,-1.048c-0.515,-0.527 -1.337,-0.584 -1.922,-0.133l-0.7,0.538c-0.66,-0.399 -1.366,-0.706 -2.107,-0.914l-0.093,-0.909c-0.075,-0.729 -0.688,-1.291 -1.424,-1.297l-1.464,-0.017c-0.735,-0.011 -1.36,0.533 -1.453,1.262l-0.116,0.903c-0.764,0.197 -1.499,0.498 -2.182,0.891l-0.724,-0.59c-0.573,-0.463 -1.395,-0.428 -1.921,0.087l-1.054,1.03c-0.527,0.515 -0.585,1.337 -0.133,1.922l0.619,0.799c-0.359,0.637 -0.642,1.314 -0.827,2.026l-1.013,0.104Zm9.452,-1.656c2.101,0.024 3.786,1.754 3.763,3.856c-0.023,2.101 -1.754,3.785 -3.856,3.762c-2.101,-0.023 -3.785,-1.754 -3.762,-3.855c0.023,-2.101 1.754,-3.786 3.855,-3.763Z" style="fill:#a0a0a0;fill-rule:nonzero;"/></g></svg>