<svg viewBox="0 0 55 55" xmlns="http://www.w3.org/2000/svg" fill-rule="evenodd" clip-rule="evenodd" stroke-linejoin="round" stroke-miterlimit="1.41"><g fill="#a0a0a0" fill-rule="nonzero"><path d="M4.4 20.25c.28.97.68 1.9 1.18 2.79l-1.42 1.79c-.47.58-.41 1.41.1 1.94l2.45 2.44c.53.53 1.36.58 1.95.11l1.77-1.4c.92.52 1.89.94 2.9 1.22l.27 2.3c.08.73.71 1.29 1.45 1.29h3.46c.74 0 1.36-.56 1.45-1.3l.25-2.2c1.1-.29 2.13-.71 3.11-1.26l1.72 1.36c.59.46 1.42.41 1.95-.1l2.44-2.45c.53-.53.57-1.36.11-1.95l-1.34-1.7c.56-.95 1-1.98 1.28-3.05l2.06-.24c.74-.08 1.3-.7 1.3-1.45v-3.46c0-.74-.56-1.36-1.3-1.45l-2.03-.24c-.28-1.06-.7-2.07-1.23-3.02l1.25-1.58c.47-.58.41-1.42-.1-1.94l-2.44-2.44a1.46 1.46 0 00-1.95-.1l-1.53 1.2c-1-.58-2.06-1.02-3.18-1.33l-.23-1.98a1.46 1.46 0 00-1.45-1.3h-3.46c-.74 0-1.37.56-1.45 1.3l-.23 1.98c-1.15.31-2.24.77-3.26 1.38l-1.6-1.26a1.47 1.47 0 00-1.94.11L4.27 6.7a1.46 1.46 0 00-.11 1.95l1.33 1.68c-.53.96-.94 1.99-1.2 3.05l-2.14.25c-.74.08-1.3.7-1.3 1.45v3.45c0 .75.56 1.37 1.3 1.46l2.25.26zm12.52-9.35a5.72 5.72 0 11-.01 11.44 5.72 5.72 0 01.01-11.44z"/><path d="M51.09 21.1l-1.83-1.54a1.44 1.44 0 00-1.92.05l-1 .94c-.86-.4-1.76-.7-2.7-.86l-.28-1.4a1.46 1.46 0 00-1.54-1.15l-2.38.2c-.72.07-1.3.66-1.32 1.4l-.05 1.41c-.91.33-1.77.78-2.56 1.35l-1.2-.8a1.45 1.45 0 00-1.91.27l-1.54 1.84c-.47.56-.45 1.39.05 1.92l1.06 1.12c-.37.82-.63 1.69-.78 2.57l-1.5.3c-.72.15-1.22.82-1.16 1.55l.2 2.38c.06.73.66 1.3 1.4 1.32l1.62.06c.3.77.68 1.5 1.15 2.2L32 37.6c-.41.61-.3 1.43.27 1.9l1.82 1.54c.56.48 1.39.45 1.92-.05l1.2-1.12c.78.37 1.6.64 2.44.8l.33 1.63c.15.72.81 1.22 1.54 1.16l2.38-.2c.73-.07 1.3-.66 1.33-1.4l.05-1.6c.87-.3 1.69-.72 2.45-1.23l1.31.87c.61.4 1.43.28 1.9-.28l1.55-1.82c.47-.56.45-1.39-.06-1.92l-1.06-1.12c.4-.83.68-1.7.84-2.59l1.44-.3a1.46 1.46 0 001.16-1.53l-.2-2.38a1.45 1.45 0 00-1.4-1.33l-1.45-.04c-.3-.85-.7-1.65-1.2-2.39l.78-1.19c.42-.61.3-1.44-.26-1.91zm-8.97 13.75a4.68 4.68 0 11-.79-9.32 4.68 4.68 0 01.79 9.32zM12.72 41.26c-.73.07-1.29.68-1.3 1.42v1.46c-.02.74.52 1.36 1.25 1.46l1.08.14c.18.65.43 1.28.76 1.87l-.7.85c-.45.58-.42 1.4.1 1.92l1.02 1.05c.52.53 1.34.59 1.92.13l.86-.66c.61.36 1.25.64 1.93.84l.11 1.1c.08.74.7 1.3 1.43 1.3l1.46.02c.73.02 1.36-.53 1.45-1.26l.14-1.05a8.75 8.75 0 002.08-.81l.81.65c.57.47 1.4.43 1.92-.08l1.05-1.03c.53-.51.58-1.34.13-1.92l-.62-.8c.39-.64.68-1.32.88-2.03l.96-.1a1.44 1.44 0 001.3-1.42l.02-1.47a1.44 1.44 0 00-1.26-1.45l-.94-.12a8.73 8.73 0 00-.8-2.03l.6-.72c.45-.57.42-1.4-.1-1.92l-1.02-1.05a1.45 1.45 0 00-1.92-.13l-.7.54c-.66-.4-1.37-.7-2.11-.92l-.1-.9a1.45 1.45 0 00-1.42-1.3l-1.46-.02a1.44 1.44 0 00-1.45 1.26l-.12.9c-.76.2-1.5.5-2.18.9l-.73-.6a1.44 1.44 0 00-1.92.1l-1.05 1.02a1.44 1.44 0 00-.13 1.93l.62.8a8.46 8.46 0 00-.83 2.02l-1.01.1zm9.46-1.66a3.81 3.81 0 11-.1 7.63 3.81 3.81 0 01.1-7.63z"/></g></svg>