<svg viewBox="0 0 57 60" xmlns="http://www.w3.org/2000/svg" fill-rule="evenodd" clip-rule="evenodd" stroke-linejoin="round" stroke-miterlimit="1.41"><g fill="#00a0dd" fill-rule="nonzero"><path d="M2.47 29.67l6.33-9.52c.19-.57.08-.66-4.27-6.36C4.08 13.2.75 8.54.67 8.34.2 7.19.23 6.78.67 6.12c.41-.61 6.17-4.48 7.55-5.07.57-.25 1.25-.36 1.72.26.42.57 7.6 10.2 8.37 11.3.27.37-.01 1.22-.28 1.72l-.49.9 6.24 4.18.55-.82.54-.81-1.85-1.43c-2.09-1.62-2.61-2.76-1.81-3.96.27-.4.93-.8 1.5-.89.99-.16 1.24-.03 6.86 3.73 5.75 3.84 5.84 3.92 6 4.93.1.56-.03 1.33-.28 1.7-.78 1.16-2.05 1.1-4.32-.2l-2.03-1.16-1.09 1.63 3.12 2.2 3.13 2.2s18.83 9.15 19.1 9.25c.04.03.62 2.41.96 4.1.46 2.25.46 3.93-1.16 4.25-1.55.3-2.5-.65-3.07-3.1l-.5-2.16-2.8-.92-2.79-.92c-.55.09-12.52 11-13.64 11.2L16.98 39.4 2.47 29.67zm27.26 12.75l10.08-8.31-9.76-4.83-15.29-10.26-6.22 9.27L20.11 36l9.62 6.43zM12.07 15.01c.24-.22.6-.8.8-1.28.34-.8.18-1.14-1.77-3.83A30.18 30.18 0 008.5 6.65c-.47-.32-2.14.57-2.29 1.27-.1.54 4.37 6.71 5.12 7.27.17.12.5.04.73-.18zM51.3 58.76c-.34-.14-1.3-.74-1.58-1.36-.65-1.5-1.07-2.67.79-6.66.87-1.87 1.73-3.73 1.91-4.15l.34-.75.5 1.2c.28.66 1.11 2.47 1.85 4.01 1.64 3.44 1.47 5.2 1.12 5.93-.86 1.83-2.96 2.57-4.92 1.78z"/></g></svg>