<?xml version="1.0" encoding="UTF-8" standalone="no"?><!DOCTYPE svg PUBLIC "-//W3C//DTD SVG 1.1//EN" "http://www.w3.org/Graphics/SVG/1.1/DTD/svg11.dtd"><svg width="100%" height="100%" viewBox="0 0 57 60" version="1.1" xmlns="http://www.w3.org/2000/svg" xmlns:xlink="http://www.w3.org/1999/xlink" xml:space="preserve" style="fill-rule:evenodd;clip-rule:evenodd;stroke-linejoin:round;stroke-miterlimit:1.41421;"><g><path id="path3307" d="M2.467,29.673l6.328,-9.527c0.193,-0.57 0.083,-0.661 -4.268,-6.359c-0.448,-0.587 -3.777,-5.248 -3.857,-5.447c-0.467,-1.147 -0.436,-1.565 0.005,-2.224c0.407,-0.61 6.167,-4.479 7.541,-5.067c0.572,-0.244 1.25,-0.356 1.719,0.266c0.425,0.565 7.598,10.202 8.377,11.286c0.27,0.376 -0.015,1.225 -0.283,1.725l-0.487,0.908l6.239,4.172l0.544,-0.813l0.544,-0.814l-1.849,-1.433c-2.09,-1.619 -2.612,-2.757 -1.812,-3.952c0.271,-0.407 0.933,-0.799 1.506,-0.894c0.984,-0.164 1.24,-0.025 6.858,3.731c5.748,3.844 5.837,3.917 6.005,4.925c0.093,0.562 -0.037,1.331 -0.289,1.708c-0.774,1.157 -2.046,1.098 -4.32,-0.203l-2.03,-1.161l-1.088,1.627l3.123,2.2l3.124,2.199c0,0 18.833,9.156 19.112,9.256c0.028,0.029 0.614,2.41 0.955,4.105c0.451,2.244 0.452,3.922 -1.169,4.244c-1.546,0.307 -2.492,-0.649 -3.063,-3.093l-0.506,-2.169l-2.793,-0.919l-2.793,-0.919c-0.545,0.086 -12.516,10.996 -13.637,11.205l-13.227,-8.845l-14.509,-9.718Zm27.264,12.752l10.076,-8.317l-9.757,-4.83l-15.286,-10.26l-6.224,9.274l11.568,7.698l9.623,6.435Zm-17.662,-27.417c0.237,-0.219 0.598,-0.794 0.803,-1.278c0.338,-0.8 0.179,-1.143 -1.776,-3.832c-1.181,-1.624 -2.345,-3.087 -2.586,-3.252c-0.471,-0.319 -2.144,0.575 -2.286,1.272c-0.109,0.538 4.368,6.717 5.117,7.27c0.164,0.12 0.491,0.04 0.728,-0.18l0,0Z" style="fill:#00a0dd;fill-rule:nonzero;"/><path id="path33071" d="M51.307,58.76c-0.343,-0.139 -1.311,-0.738 -1.585,-1.365c-0.656,-1.501 -1.074,-2.667 0.783,-6.654c0.871,-1.868 1.734,-3.735 1.919,-4.147l0.336,-0.75l0.506,1.2c0.278,0.66 1.108,2.464 1.844,4.009c1.638,3.438 1.467,5.2 1.124,5.928c-0.861,1.827 -2.967,2.571 -4.927,1.779l0,0Z" style="fill:#00a0dd;fill-rule:nonzero;"/></g></svg>