<svg clip-rule="evenodd" fill-rule="evenodd" stroke-linejoin="round" stroke-miterlimit="1.41" viewBox="0 0 55 46" xmlns="http://www.w3.org/2000/svg"><g fill="#a0a0a0"><path d="m29.87 4.98c0-2.71-2.2-4.92-4.92-4.92h-19.22a4.92 4.92 0 0 0 -4.92 4.92v9.84c0 2.72 2.2 4.92 4.92 4.92h19.22c2.72 0 4.92-2.2 4.92-4.92zm24.91 25.55c0-2.72-2.2-4.92-4.92-4.92h-19.22a4.92 4.92 0 0 0 -4.92 4.92v9.84c0 2.72 2.2 4.92 4.92 4.92h19.22c2.71 0 4.92-2.2 4.92-4.92z"/><path d="m14.13 35.49v-2.3h6v-4.43l5.59 5.58-5.58 5.58v-4.43z"/><path d="m14.13 19.74h2.24v15.71h-2.24z"/></g></svg>