<?xml version="1.0" encoding="UTF-8" standalone="no"?><!DOCTYPE svg PUBLIC "-//W3C//DTD SVG 1.1//EN" "http://www.w3.org/Graphics/SVG/1.1/DTD/svg11.dtd"><svg width="100%" height="100%" viewBox="0 0 55 46" version="1.1" xmlns="http://www.w3.org/2000/svg" xmlns:xlink="http://www.w3.org/1999/xlink" xml:space="preserve" style="fill-rule:evenodd;clip-rule:evenodd;stroke-linejoin:round;stroke-miterlimit:1.41421;"><g><path d="M29.87,4.982c0,-2.716 -2.205,-4.921 -4.92,-4.921l-19.218,0c-2.715,0 -4.92,2.205 -4.92,4.921l0,9.84c0,2.716 2.205,4.921 4.92,4.921l19.218,0c2.715,0 4.92,-2.205 4.92,-4.921l0,-9.84Z" style="fill:#a0a0a0;"/><path d="M54.776,30.531c0,-2.716 -2.205,-4.92 -4.921,-4.92l-19.217,0c-2.716,0 -4.921,2.204 -4.921,4.92l0,9.841c0,2.715 2.205,4.92 4.921,4.92l19.217,0c2.716,0 4.921,-2.205 4.921,-4.92l0,-9.841Z" style="fill:#a0a0a0;"/><path d="M14.128,35.489l0,-2.302l6.011,0l0,-4.428l5.578,5.579l-5.578,5.578l0,-4.427l-6.011,0Z" style="fill:#a0a0a0;"/><rect x="14.128" y="19.743" width="2.237" height="15.708" style="fill:#a0a0a0;"/></g></svg>