<svg viewBox="0 0 55 46" xmlns="http://www.w3.org/2000/svg" fill-rule="evenodd" clip-rule="evenodd" stroke-linejoin="round" stroke-miterlimit="1.41"><g fill="#a0a0a0"><path d="M29.87 4.98c0-2.71-2.2-4.92-4.92-4.92H5.73A4.92 4.92 0 00.81 4.98v9.84c0 2.72 2.2 4.92 4.92 4.92h19.22c2.72 0 4.92-2.2 4.92-4.92V4.98zM54.78 30.53c0-2.72-2.2-4.92-4.92-4.92H30.64a4.92 4.92 0 00-4.92 4.92v9.84c0 2.72 2.2 4.92 4.92 4.92h19.22c2.71 0 4.92-2.2 4.92-4.92v-9.84z"/><path d="M14.13 35.49v-2.3h6v-4.43l5.59 5.58-5.58 5.58v-4.43h-6.01z"/><path d="M14.13 19.74h2.24v15.71h-2.24z"/></g></svg>