<?xml version="1.0" encoding="UTF-8" standalone="no"?><!DOCTYPE svg PUBLIC "-//W3C//DTD SVG 1.1//EN" "http://www.w3.org/Graphics/SVG/1.1/DTD/svg11.dtd"><svg width="100%" height="100%" viewBox="0 0 102 19" version="1.1" xmlns="http://www.w3.org/2000/svg" xmlns:xlink="http://www.w3.org/1999/xlink" xml:space="preserve" style="fill-rule:evenodd;clip-rule:evenodd;stroke-linejoin:round;stroke-miterlimit:1.41421;"><g><path d="M32.325,4.95l1.575,0l0,2.25c0.375,-1.05 1.275,-2.4 3,-2.4l0.6,0l0,1.65l-0.525,0c-2.1,0 -3,1.425 -3,3.825l0,4.875l-1.575,0l-0.075,-10.2Z" style="fill:#a0a0a0;fill-rule:nonzero;"/><path d="M42.45,6.075c-1.875,0 -3.3,1.2 -3.3,3.675c0,2.325 0.975,3.9 3.225,3.9c1.575,0 3.375,-1.2 3.375,-3.975c0,-1.725 -1.05,-3.6 -3.3,-3.6m3.3,-1.125l1.575,0l0,9.15c0,3.15 -1.5,5.175 -5.175,5.175c-2.475,0 -4.125,-1.2 -4.35,-3.3c0,0 1.575,0 1.725,0c0.15,0.825 0.675,1.95 2.625,1.95c2.925,0 3.675,-1.95 3.675,-4.275l0,-0.825c-0.75,1.65 -2.325,2.25 -3.675,2.25c-3,0 -4.65,-2.25 -4.65,-5.175c0,-3.15 2.175,-5.175 4.875,-5.175c1.35,0 2.7,0.75 3.45,2.025c-0.075,0 -0.075,-1.8 -0.075,-1.8Z" style="fill:#a0a0a0;fill-rule:nonzero;"/><path d="M49.05,4.95l1.575,0l0,10.125l-1.575,0l0,-10.125Zm0.825,-4.875c0.675,0 1.2,0.525 1.2,1.2c0,0.675 -0.525,1.2 -1.2,1.2c-0.675,0 -1.2,-0.525 -1.2,-1.2c0,-0.675 0.525,-1.2 1.2,-1.2" style="fill:#a0a0a0;fill-rule:nonzero;"/><path d="M79.125,15.6c-2.025,0 -5.4,-1.05 -5.4,-7.875c0,-3.75 1.5,-7.725 5.625,-7.725c2.025,0 3.675,1.275 4.05,3.075l0.075,0.225l-1.275,0l0,-0.15c-0.3,-1.275 -1.65,-1.95 -2.775,-1.95c-3.525,0 -4.275,3.975 -4.425,6.3c0.825,-1.5 2.475,-2.475 4.2,-2.475c2.775,0 4.8,2.25 4.8,5.25c0,3.225 -2.025,5.325 -4.875,5.325Zm0.075,-9.3c-2.175,0 -3.825,1.8 -3.825,4.125c0,2.4 1.5,4.05 3.75,4.05c2.175,0 3.6,-1.65 3.6,-4.2c0,-2.325 -1.5,-3.975 -3.525,-3.975Z" style="fill:#a0a0a0;fill-rule:nonzero;"/><path d="M90.75,15.6c-3.3,0 -5.475,-3.15 -5.475,-7.8c0,-4.65 2.25,-7.8 5.475,-7.8c3.225,0 5.475,3.15 5.475,7.8c0,4.65 -2.175,7.8 -5.475,7.8Zm0,-14.325c-2.55,0 -4.275,2.7 -4.275,6.6c0,3.975 1.725,6.6 4.275,6.6c2.55,0 4.275,-2.7 4.275,-6.6c0,-3.975 -1.8,-6.6 -4.275,-6.6Z" style="fill:#a0a0a0;fill-rule:nonzero;"/><path d="M98.925,4.95c-1.425,0 -2.475,-1.05 -2.475,-2.475c0,-0.675 0.225,-1.275 0.675,-1.725c0.45,-0.45 1.05,-0.75 1.725,-0.75c0.675,0 1.275,0.225 1.8,0.75c0.45,0.45 0.675,1.05 0.675,1.725c0.075,1.35 -0.975,2.475 -2.4,2.475Zm0,-4.125c-0.9,0 -1.65,0.75 -1.65,1.725c0,0.975 0.75,1.725 1.65,1.725c0.9,0 1.65,-0.75 1.65,-1.725c0.075,-0.975 -0.675,-1.725 -1.65,-1.725Z" style="fill:#a0a0a0;fill-rule:nonzero;"/><path d="M69.9,7.5c0.975,-0.45 2.25,-1.425 2.25,-3.45c0,-2.4 -1.8,-4.05 -4.425,-4.05c-2.625,0 -4.35,1.5 -4.5,3.9l0,0.15l1.275,0l0,-0.15c0.075,-1.65 1.35,-2.7 3.225,-2.7c1.8,0 3.15,1.125 3.15,2.775c0,1.8 -1.275,2.925 -3.375,3l-0.15,0l0,1.2l0.15,0c1.35,0.075 3.675,0.6 3.675,3.15c0,1.575 -1.275,3.15 -3.6,3.15c-1.875,0 -3.225,-0.975 -3.6,-2.475l-1.275,0c0.075,0.825 0.45,1.575 1.05,2.175c0.9,0.9 2.4,1.5 3.825,1.5c2.85,0 4.875,-1.8 4.875,-4.425c0.075,-2.475 -1.575,-3.45 -2.55,-3.75Z" style="fill:#a0a0a0;fill-rule:nonzero;"/><path d="M18.45,9l0,6.075l1.575,0l0,-6.75c0,-2.85 -2.1,-3.6 -3.975,-3.6c0,0 -2.55,-0.075 -3.45,2.025l0,-1.725l-1.575,0l0,10.125l1.575,0l0,-5.625c0,-2.025 1.05,-3.15 2.775,-3.3c0.825,-0.15 3.075,-0.3 3.075,2.775Z" style="fill:#a0a0a0;fill-rule:nonzero;"/><path d="M61.725,9.975c0,-3.45 -1.95,-5.25 -4.875,-5.25c-3,0 -4.875,2.325 -4.875,5.7c0,2.85 1.95,5.025 4.8,5.025c2.1,0 3.525,-0.975 4.425,-2.625c0.075,-0.15 0.15,-0.225 0.225,-0.45c0.075,-0.225 0.075,-0.375 0.075,-0.375l-1.725,0c-0.375,0.825 -1.125,1.95 -3,1.95c-1.725,0 -3.15,-1.2 -3.15,-3.6l7.95,0l0.15,-0.375Zm-7.875,-0.825c0.15,-1.425 1.05,-3 3.15,-3c1.8,0 2.925,1.2 3.15,3l-6.3,0Z" style="fill:#a0a0a0;fill-rule:nonzero;"/><path d="M30.975,9.975c0,-3.45 -1.95,-5.25 -4.875,-5.25c-3,0 -4.875,2.325 -4.875,5.7c0,2.85 1.95,5.025 4.8,5.025c2.1,0 3.525,-0.975 4.425,-2.625c0.075,-0.15 0.15,-0.225 0.225,-0.45c0.075,-0.225 0.075,-0.375 0.075,-0.375l-1.725,0c-0.375,0.825 -1.125,1.95 -3,1.95c-1.725,0 -3.15,-1.2 -3.15,-3.6l7.95,0l0.15,-0.375Zm-7.95,-0.825c0.15,-1.425 1.05,-3 3.15,-3c1.8,0 2.925,1.2 3.15,3l-6.3,0Z" style="fill:#a0a0a0;fill-rule:nonzero;"/><path d="M9.75,9.975c0,-3.45 -1.95,-5.25 -4.875,-5.25c-3,0 -4.875,2.325 -4.875,5.7c0,2.85 1.95,5.025 4.8,5.025c2.1,0 3.525,-0.975 4.425,-2.625c0.075,-0.15 0.15,-0.225 0.225,-0.45c0.075,-0.225 0.075,-0.375 0.075,-0.375l-1.725,0c-0.375,0.825 -1.125,1.95 -3,1.95c-1.725,0 -3.15,-1.2 -3.15,-3.6l7.95,0l0.15,-0.375Zm-7.875,-0.825c0.15,-1.425 1.05,-3 3.15,-3c1.8,0 2.925,1.2 3.15,3l-6.3,0Z" style="fill:#a0a0a0;fill-rule:nonzero;"/></g></svg>