<?xml version="1.0" encoding="UTF-8" standalone="no"?>
<!DOCTYPE svg PUBLIC "-//W3C//DTD SVG 1.1//EN" "http://www.w3.org/Graphics/SVG/1.1/DTD/svg11.dtd">
<svg xmlns="http://www.w3.org/2000/svg" xmlns:xlink="http://www.w3.org/1999/xlink" width="32" height="32" style="fill-rule:evenodd;clip-rule:evenodd;stroke-linejoin:round;stroke-miterlimit:1.41421;" version="1.1" viewBox="0 0 32 32" xml:space="preserve">
    <path d="M31.696,12.77l0,13.889c0,0.77 -0.275,1.429 -0.823,1.977c-0.549,0.548 -1.209,0.822 -1.98,0.822l-25.786,0c-0.771,0 -1.431,-0.274 -1.98,-0.822c-0.548,-0.548 -0.823,-1.207 -0.823,-1.977l0,-13.889c0.514,0.572 1.104,1.079 1.77,1.523c4.227,2.868 7.129,4.88 8.706,6.034c0.666,0.49 1.206,0.872 1.621,1.146c0.414,0.275 0.966,0.555 1.656,0.84c0.689,0.285 1.331,0.428 1.926,0.429l0.036,0c0.595,0 1.238,-0.143 1.926,-0.429c0.689,-0.286 1.241,-0.566 1.656,-0.84c0.415,-0.273 0.956,-0.655 1.621,-1.146c1.985,-1.434 4.893,-3.445 8.724,-6.034c0.665,-0.455 1.249,-0.962 1.752,-1.523l-0.002,0Zm0,-5.142c0,0.921 -0.286,1.802 -0.859,2.641c-0.572,0.839 -1.284,1.556 -2.137,2.151c-4.391,3.043 -7.124,4.938 -8.198,5.685c-0.117,0.082 -0.366,0.259 -0.745,0.534c-0.379,0.274 -0.694,0.496 -0.946,0.665c-0.251,0.169 -0.554,0.358 -0.911,0.568c-0.356,0.21 -0.692,0.367 -1.007,0.472c-0.316,0.105 -0.608,0.158 -0.876,0.158l-0.036,0c-0.268,0 -0.56,-0.053 -0.876,-0.158c-0.315,-0.105 -0.651,-0.262 -1.007,-0.472c-0.357,-0.21 -0.66,-0.399 -0.911,-0.568c-0.252,-0.169 -0.567,-0.391 -0.946,-0.665c-0.379,-0.275 -0.628,-0.452 -0.745,-0.534c-1.062,-0.747 -2.592,-1.811 -4.59,-3.192c-1.997,-1.382 -3.194,-2.213 -3.591,-2.493c-0.724,-0.49 -1.407,-1.164 -2.049,-2.021c-0.643,-0.857 -0.964,-1.653 -0.964,-2.388c0,-0.91 0.243,-1.668 0.727,-2.274c0.485,-0.606 1.177,-0.909 2.076,-0.91l25.786,0c0.759,0 1.416,0.274 1.971,0.822c0.554,0.548 0.832,1.207 0.832,1.977l0.002,0.002Z" style="fill:#dbdbdb;"/>
</svg>
