<?xml version="1.0" encoding="UTF-8" standalone="no"?><!DOCTYPE svg PUBLIC "-//W3C//DTD SVG 1.1//EN" "http://www.w3.org/Graphics/SVG/1.1/DTD/svg11.dtd"><svg width="100%" height="100%" viewBox="0 0 398 67" version="1.1" xmlns="http://www.w3.org/2000/svg" xmlns:xlink="http://www.w3.org/1999/xlink" xml:space="preserve" style="fill-rule:evenodd;clip-rule:evenodd;stroke-linejoin:round;stroke-miterlimit:1.41421;"><rect id="Artboard1" x="0" y="-2.25" width="397.662" height="67.5" style="fill:none;"/><path d="M50.475,36.158c0,-7.752 -5.367,-11.794 -12.253,-11.794c-5.631,0 -8.212,3.907 -9.405,5.631c-2.384,-3.774 -4.701,-5.631 -9.804,-5.631c-6.228,0 -8.809,3.776 -10.002,6.096l-0.132,0l0,-5.17l-8.879,0l0,35.246l9.277,0l0,-21.464c0,-3.844 1.391,-6.892 5.763,-6.892c5.561,0 5.561,4.174 5.561,7.157l0,21.2l9.277,0l0,-21.135c0,-4.173 1.651,-7.222 6.29,-7.222c2.717,0 5.034,1.721 5.034,6.954l0,21.399l9.269,0l0,-24.376l0.004,0l0,0.001Z" style="fill:#a0a0a0;fill-rule:nonzero;"/><path d="M85.658,34.57c0,-8.678 -9.073,-10.205 -14.045,-10.205c-7.219,0 -14.703,1.527 -15.764,12.323l8.94,0c0.267,-2.054 1.062,-4.904 5.701,-4.904c2.383,0 6.092,0.2 6.092,4.11c0,1.985 -1.791,2.582 -3.248,2.78l-8.347,1.258c-5.891,0.862 -10.266,4.375 -10.266,11.265c0,7.287 5.429,10.278 10.727,10.278c6.297,0 9.277,-2.926 11.393,-5.112c0.201,1.986 0.329,2.516 0.86,4.172l10.002,0l0,-1.391c-1.127,-0.398 -2.054,-1.328 -2.054,-5.5l0,-19.074l0.009,0Zm-9.072,13.315c0,4.307 -4.173,6.957 -8.277,6.957c-1.791,0 -4.306,-0.995 -4.306,-4.239c0,-3.842 2.848,-4.704 6.294,-5.301c3.84,-0.598 5.367,-1.191 6.294,-1.921l0,4.505l-0.005,0l0,-0.001Z" style="fill:#a0a0a0;fill-rule:nonzero;"/><path d="M111.632,42.586l11.592,-17.295l-10.929,0l-5.828,10.273l-5.96,-10.273l-11.258,0l11.526,17.295l-11.991,17.951l11.192,0l6.092,-10.597l6.092,10.597l11.463,0l-11.991,-17.951Z" style="fill:#a0a0a0;fill-rule:nonzero;"/><path d="M158.513,42.915c0,-12.721 -8.546,-18.55 -18.016,-18.55c-9.475,0 -18.02,5.829 -18.02,18.55c0,12.724 8.546,18.563 18.02,18.563c9.471,0 18.016,-5.839 18.016,-18.563Zm-9.538,0c0,4.505 -1.322,10.733 -8.475,10.733c-7.154,0 -8.476,-6.228 -8.476,-10.733c0,-4.507 1.322,-10.734 8.476,-10.734c7.153,0 8.475,6.227 8.475,10.734Z" style="fill:#a0a0a0;fill-rule:nonzero;"/><path d="M195.02,36.158c0,-7.752 -5.363,-11.794 -12.253,-11.794c-6.689,0 -9.335,3.974 -10.595,6.096l-0.132,0l0,-5.17l-8.878,0l0,35.246l9.273,0l0,-20.204c0,-5.369 3.181,-8.152 7.285,-8.152c5.898,0 6.027,4.376 6.027,6.954l0,21.399l9.273,0l0,-24.375l0,0Z" style="fill:#a0a0a0;fill-rule:nonzero;"/><path d="M273.151,36.158c0,-7.752 -5.36,-11.794 -12.254,-11.794c-5.631,0 -8.211,3.907 -9.409,5.631c-2.379,-3.774 -4.701,-5.631 -9.804,-5.631c-6.22,0 -8.808,3.776 -9.995,6.096l-0.127,0l0,-5.17l-8.882,0l0,35.246l9.276,0l0,-21.464c0,-3.844 1.392,-6.892 5.763,-6.892c5.565,0 5.565,4.174 5.565,7.157l0,21.2l9.27,0l0,-21.135c0,-4.173 1.654,-7.222 6.289,-7.222c2.72,0 5.038,1.721 5.038,6.954l0,21.399l9.274,0l0,-24.376l-0.004,0l0,0.001Z" style="fill:#a0a0a0;fill-rule:nonzero;"/><path d="M313.766,42.915c0,-12.721 -8.545,-18.55 -18.013,-18.55c-9.474,0 -18.023,5.829 -18.023,18.55c0,12.724 8.546,18.563 18.023,18.563c9.468,0 18.013,-5.839 18.013,-18.563Zm-9.534,0c0,4.505 -1.328,10.733 -8.478,10.733c-7.154,0 -8.484,-6.228 -8.484,-10.733c0,-4.507 1.329,-10.734 8.484,-10.734c7.15,0 8.478,6.227 8.478,10.734Z" style="fill:#a0a0a0;fill-rule:nonzero;"/><path d="M328.813,15.75l-9.27,0l0,9.541l-4.766,0l0,6.628l4.766,0l0,21.399c0,4.575 1.457,7.629 9.475,7.629l1.182,0c1.457,0 2.915,-0.067 4.371,-0.132l0,-7.032c-0.658,0.068 -1.317,0.135 -1.918,0.135c-3.77,0 -3.844,-0.796 -3.844,-2.85l0,-19.145l5.762,0l0,-6.628l-5.762,0l0,-9.545l0.004,0Z" style="fill:#a0a0a0;fill-rule:nonzero;"/><path d="M372.614,42.915c0,-12.721 -8.546,-18.55 -18.024,-18.55c-9.463,0 -18.012,5.829 -18.012,18.55c0,12.724 8.545,18.563 18.012,18.563c9.478,0 18.024,-5.839 18.024,-18.563Zm-9.541,0c0,4.505 -1.329,10.733 -8.484,10.733c-7.154,0 -8.478,-6.228 -8.478,-10.733c0,-4.507 1.325,-10.734 8.478,-10.734c7.154,0 8.484,6.227 8.484,10.734Z" style="fill:#a0a0a0;fill-rule:nonzero;"/><path d="M377.197,60.537l9.27,0l0,-18.355c0,-3.906 1.328,-8.411 8.545,-8.411c0.857,0 1.852,0 2.65,0.131l0,-9.409c-0.601,-0.068 -1.193,-0.132 -1.797,-0.132c-5.623,0 -7.743,3.445 -9.661,7.021l-0.132,0l0,-6.096l-8.875,0l0,35.251Z" style="fill:#a0a0a0;fill-rule:nonzero;"/></svg>