<?xml version="1.0" encoding="UTF-8" standalone="no"?><!DOCTYPE svg PUBLIC "-//W3C//DTD SVG 1.1//EN" "http://www.w3.org/Graphics/SVG/1.1/DTD/svg11.dtd"><svg width="29" height="32" viewBox="0 0 29 32" version="1.1" xmlns="http://www.w3.org/2000/svg" xmlns:xlink="http://www.w3.org/1999/xlink" xml:space="preserve" style="fill-rule:evenodd;clip-rule:evenodd;stroke-linejoin:round;stroke-miterlimit:1.41421;"><rect id="Artboard1" x="0" y="0" width="29" height="32" style="fill:none;"/><clipPath id="_clip1"><rect x="0" y="0" width="29" height="32"/></clipPath><g clip-path="url(#_clip1)"><g id="layer1"><path id="path28" d="M14.192,0c-0.432,0 -0.851,0.089 -1.222,0.299l-11.748,6.784c-0.76,0.438 -1.222,1.265 -1.222,2.145l0,13.544c0,0.879 0.462,1.706 1.222,2.145l3.068,1.77c1.49,0.735 2.04,0.724 2.719,0.724c2.206,0 3.466,-1.339 3.466,-3.667l0,-13.368c0,-0.189 -0.163,-0.325 -0.349,-0.325l-1.471,0c-0.189,0 -0.349,0.136 -0.349,0.325l0,13.368c0,1.032 -1.075,2.069 -2.819,1.198l-3.192,-1.871c-0.113,-0.061 -0.2,-0.17 -0.2,-0.299l0,-13.544c0,-0.128 0.086,-0.259 0.2,-0.324l11.722,-6.759c0.11,-0.063 0.241,-0.063 0.349,0l11.723,6.759c0.112,0.067 0.199,0.192 0.199,0.324l0,13.544c0,0.129 -0.064,0.262 -0.174,0.324l-11.748,6.759c-0.1,0.06 -0.239,0.06 -0.349,0l-3.018,-1.796c-0.09,-0.052 -0.212,-0.048 -0.299,0c-0.833,0.473 -0.99,0.527 -1.771,0.798c-0.192,0.067 -0.485,0.172 0.1,0.499l3.941,2.32c0.375,0.217 0.793,0.324 1.222,0.324c0.435,0 0.847,-0.107 1.222,-0.324l11.747,-6.759c0.761,-0.443 1.223,-1.266 1.223,-2.145l0,-13.544c0,-0.88 -0.462,-1.705 -1.223,-2.145l-11.747,-6.784c-0.368,-0.21 -0.791,-0.299 -1.222,-0.299l0,0Zm8.939,28.981l0,0.349l0.972,0l0,2.569l0.4,0l0,-2.569l0.997,0l0,-0.349l-2.369,0l0,0Zm2.718,0l0,2.918l0.375,0l0,-1.721c0,-0.07 0.003,-0.179 0,-0.324c-0.005,-0.148 0,-0.277 0,-0.349l0,-0.075l0.823,2.469l0.399,0l0.848,-2.469c0,0.157 -0.021,0.309 -0.025,0.449c-0.002,0.136 0,0.239 0,0.299l0,1.721l0.374,0l0,-2.918l-0.549,0l-0.848,2.469l-0.823,-2.469l-0.574,0l0,0Zm-8.515,-19.304c-3.345,0 -5.337,1.424 -5.337,3.792c0,2.568 1.977,3.274 5.188,3.591c3.841,0.376 4.14,0.94 4.14,1.696c0,1.312 -1.046,1.871 -3.517,1.871c-3.104,0 -3.787,-0.775 -4.015,-2.32c-0.027,-0.165 -0.155,-0.299 -0.325,-0.299l-1.521,0c-0.188,0 -0.349,0.161 -0.349,0.349c0,1.977 1.075,4.315 6.21,4.315c3.718,0 5.862,-1.459 5.862,-4.016c0,-2.534 -1.732,-3.214 -5.338,-3.691c-3.643,-0.482 -3.991,-0.718 -3.991,-1.571c0,-0.705 0.295,-1.646 2.993,-1.646c2.411,0 3.302,0.519 3.667,2.145c0.032,0.152 0.166,0.274 0.324,0.274l1.521,0c0.094,0 0.185,-0.057 0.25,-0.125c0.064,-0.072 0.109,-0.153 0.1,-0.249c-0.236,-2.799 -2.102,-4.116 -5.862,-4.116l0,0Z" style="fill:#a0a0a0;"/></g></g></svg>
