<?xml version="1.0" encoding="UTF-8" standalone="no"?>
<!DOCTYPE svg PUBLIC "-//W3C//DTD SVG 1.1//EN" "http://www.w3.org/Graphics/SVG/1.1/DTD/svg11.dtd">
<svg width="25" height="32" viewBox="0 0 25 32" version="1.1" xmlns="http://www.w3.org/2000/svg" xmlns:xlink="http://www.w3.org/1999/xlink" xml:space="preserve" style="fill-rule:evenodd;clip-rule:evenodd;stroke-linejoin:round;stroke-miterlimit:1.41421;">
<path d="M24.692,21.889c0,0.311 -0.057,0.716 -0.173,1.216c-0.116,0.5 -0.237,0.893 -0.363,1.18c-0.243,0.575 -0.946,1.184 -2.112,1.827c-1.084,0.587 -2.157,0.88 -3.218,0.88c-0.311,0 -0.617,-0.021 -0.916,-0.061c-0.3,-0.041 -0.632,-0.112 -0.995,-0.215c-0.364,-0.103 -0.635,-0.187 -0.813,-0.25c-0.179,-0.064 -0.499,-0.182 -0.961,-0.354c-0.461,-0.171 -0.744,-0.275 -0.847,-0.309c-1.131,-0.403 -2.14,-0.879 -3.028,-1.431c-1.465,-0.908 -2.988,-2.149 -4.568,-3.723c-1.58,-1.574 -2.826,-3.09 -3.737,-4.55c-0.554,-0.885 -1.032,-1.89 -1.436,-3.016c-0.035,-0.104 -0.139,-0.385 -0.311,-0.845c-0.173,-0.459 -0.291,-0.778 -0.355,-0.956c-0.064,-0.179 -0.147,-0.448 -0.251,-0.81c-0.103,-0.362 -0.175,-0.692 -0.216,-0.991c-0.041,-0.3 -0.061,-0.604 -0.061,-0.914c0,-1.057 0.294,-2.125 0.883,-3.205c0.646,-1.161 1.257,-1.862 1.834,-2.103c0.288,-0.126 0.683,-0.247 1.185,-0.362c0.502,-0.115 0.909,-0.173 1.22,-0.173c0.161,0 0.283,0.017 0.363,0.052c0.208,0.069 0.513,0.506 0.917,1.31c0.127,0.218 0.3,0.528 0.519,0.93c0.22,0.403 0.422,0.767 0.606,1.095c0.184,0.328 0.363,0.635 0.537,0.922c0.035,0.045 0.136,0.189 0.303,0.43c0.167,0.242 0.291,0.446 0.372,0.612c0.081,0.167 0.121,0.331 0.121,0.492c0,0.229 -0.164,0.517 -0.493,0.861c-0.329,0.345 -0.686,0.661 -1.073,0.948c-0.386,0.287 -0.744,0.592 -1.072,0.913c-0.329,0.322 -0.494,0.586 -0.494,0.793c0,0.103 0.029,0.233 0.087,0.388c0.057,0.155 0.106,0.273 0.147,0.353c0.041,0.081 0.121,0.219 0.242,0.414c0.121,0.196 0.187,0.305 0.199,0.327c0.876,1.574 1.88,2.924 3.01,4.051c1.131,1.126 2.486,2.125 4.066,2.998c0.023,0.012 0.133,0.078 0.329,0.198c0.195,0.121 0.334,0.201 0.415,0.242c0.082,0.04 0.2,0.089 0.355,0.146c0.155,0.058 0.285,0.086 0.389,0.086c0.208,0 0.473,-0.164 0.796,-0.491c0.323,-0.328 0.628,-0.684 0.917,-1.069c0.288,-0.384 0.605,-0.741 0.951,-1.068c0.346,-0.328 0.635,-0.491 0.865,-0.491c0.162,0 0.326,0.04 0.494,0.12c0.167,0.081 0.372,0.204 0.614,0.371c0.242,0.167 0.386,0.267 0.432,0.302c0.288,0.173 0.597,0.351 0.925,0.535c0.329,0.184 0.695,0.385 1.099,0.603c0.404,0.218 0.715,0.391 0.934,0.517c0.808,0.403 1.246,0.707 1.315,0.914c0.035,0.08 0.052,0.201 0.052,0.361l0,0Z" style="fill:#dbdbdb;"/>
</svg>
