<?xml version="1.0" encoding="UTF-8" standalone="no"?><!DOCTYPE svg PUBLIC "-//W3C//DTD SVG 1.1//EN" "http://www.w3.org/Graphics/SVG/1.1/DTD/svg11.dtd"><svg width="32" height="32" viewBox="0 0 32 32" version="1.1" xmlns="http://www.w3.org/2000/svg" xmlns:xlink="http://www.w3.org/1999/xlink" xml:space="preserve" style="fill-rule:evenodd;clip-rule:evenodd;stroke-linejoin:round;stroke-miterlimit:1.41421;"><g><path d="M12.056,0.923c4.033,-1.035 8.491,-0.432 12.048,1.764c4.48,2.679 7.405,7.746 7.479,12.963c0.164,5.269 -2.582,10.493 -6.995,13.358c-4.912,3.305 -11.706,3.431 -16.722,0.291c-5.113,-3.052 -8.097,-9.206 -7.33,-15.115c0.617,-6.244 5.44,-11.751 11.52,-13.261Zm-0.618,2.552c7.621,-3.051 16.968,2.583 17.756,10.754c1.228,7.352 -4.874,14.824 -12.323,15.04c-7.085,0.707 -13.931,-5.299 -14.132,-12.413c-0.529,-5.76 3.267,-11.476 8.699,-13.381Z" style="fill:#a0a0a0;"/><path d="M12.205,15.211c3.415,-2.791 6.757,-5.678 10.247,-8.387c-1.831,2.813 -3.713,5.589 -5.544,8.402c-1.57,0.007 -3.141,0.007 -4.703,-0.015Z" style="fill:#a0a0a0;fill-rule:nonzero;"/><path d="M15.092,16.767c1.578,0 3.148,0 4.718,0.022c-3.438,2.776 -6.764,5.685 -10.262,8.387c1.831,-2.813 3.713,-5.596 5.544,-8.409Z" style="fill:#a0a0a0;fill-rule:nonzero;"/></g></svg>
