<svg viewBox="0 0 561 341" xmlns="http://www.w3.org/2000/svg" fill-rule="evenodd" clip-rule="evenodd" stroke-linejoin="round" stroke-miterlimit="1.41"><path fill="none" d="M.41.89h560v340H.41z"/><ellipse cx="92.57" cy="298.37" rx="19.38" ry="13.29" fill="#b8b8b8"/><path d="M92.33 286.32h-.16l-.08.01-.24.01-.23.01-.24.02-.23.01-.24.02-.23.02-.23.02-.24.02-.23.03-.23.03-.22.03-.23.03-.23.03-.22.04-.22.03-.23.04-.22.04-.22.04-.22.05-.22.04-.21.05-.22.05-.21.05-.22.05-.2.06-.22.05-.2.06-.22.06-.2.06-.2.06-.2.07-.21.06-.2.07-.2.07-.2.07-.2.07-.19.08-.2.07-.18.08-.2.08-.18.07-.19.09-.18.08-.18.08-.19.09-.1.05-.08.03-.17.1-.18.08-.17.09-.18.1-.17.08-.17.1-.16.1-.17.09-.16.1-.16.1-.16.1-.16.1-.16.1-.15.1-.15.1-.15.11-.15.11-.15.1-.14.12-.14.1-.14.12-.14.1-.13.12-.14.12-.13.11-.13.12-.12.11-.13.12-.12.12-.12.12-.12.11-.11.12-.12.13-.1.12-.12.12-.1.12-.1.13-.1.12-.1.13-.1.12-.1.13-.09.12-.09.13-.09.13-.08.13-.09.13-.08.12-.07.13-.08.13-.07.14-.07.13-.07.13-.07.13-.06.13-.06.13-.06.14-.06.13-.05.13-.05.14-.05.13-.04.14-.05.13-.04.14-.04.13-.03.14-.04.14-.01.06-.02.07-.01.07-.02.06-.01.07-.01.07-.02.07v.07l-.02.07v.07l-.02.06v.07l-.02.07v.07l-.01.07v.07l-.01.07-.01.07v.14l-.01.07V298.72l.01.07v.07l.01.07.01.07v.06l.02.07v.07l.01.07.01.07.02.07v.07l.02.06.01.07.01.07.02.07.01.06.02.07.01.07.02.07.02.06.01.07.02.07.02.06.04.14.04.13.04.13.05.13.05.13.05.13.05.13.06.13.05.13.07.13.06.13.06.13.07.13.07.12.07.13.08.12.07.13.08.12.08.13.09.12.08.12.1.13.08.12.1.12.1.12.09.12.1.12.1.12.1.12.11.11.1.12.12.11.11.12.12.11.11.12.12.1.13.12.12.11.13.11.12.11.13.1.14.11.13.11.14.1.13.1.14.11.14.1.15.1.15.1.14.1.15.1.16.1.15.1.16.09.15.1.16.08.16.1.17.09.16.08.17.09.16.09.17.08.18.08.17.09.17.08.18.08.18.07.18.08.18.08.18.07.19.07.18.07.2.07.18.07.2.07.18.06.2.06.2.07.19.06.2.06.2.05.2.06.2.05.2.05.2.05.2.05.21.05.21.05.21.04.21.04.21.04.21.04.22.04.21.03.22.04.21.03.22.03.22.03.22.02.22.03.22.02.22.02.23.02.22.01.23.02.22.01.23.01.23.01h.23l.22.01h1.39l.23-.01.23-.01.23-.02.23-.01.22-.02.23-.02.22-.02.23-.02.22-.02.22-.03.22-.03.22-.03.22-.03.22-.03.22-.03.21-.04.22-.04.21-.04.21-.04.21-.04.21-.05.21-.05.2-.05.21-.05.2-.05.21-.05.2-.06.2-.05.2-.06.2-.06.2-.06.2-.06.18-.07.2-.07.19-.06.18-.07.2-.07.18-.07.18-.08.18-.07.19-.08.17-.07.18-.08.18-.08.17-.08.18-.08.17-.09.17-.08.16-.09.17-.09.16-.08.16-.1.16-.09.16-.09.16-.1.15-.08.16-.1.15-.1.12-.08.02-.01.15-.1.15-.1.14-.1.14-.1.14-.1.14-.1.13-.1.13-.11.13-.1.13-.11.13-.1.12-.12.12-.1.12-.11.12-.11.12-.11.11-.11.11-.12.11-.1.1-.12.11-.11.1-.12.1-.11.1-.12.1-.11.1-.12.08-.12.09-.11.09-.12.08-.12.08-.11.08-.12.08-.12.07-.12.07-.12.07-.12.07-.12.07-.12.06-.12.06-.12.06-.12.06-.12.05-.12.05-.12.05-.12.05-.12.04-.13.04-.12.04-.12.04-.12.04-.12.03-.13.03-.12.02-.06.01-.06.01-.06.02-.07.01-.06.01-.06.01-.06.01-.06.01-.06.01-.07.01-.06.01-.06.01-.06v-.06l.01-.07.01-.06v-.06l.01-.06v-.13l.01-.06v-.19l.01-.06v-.44l-.01-.07v-.12l-.01-.07-.01-.06v-.06l-.01-.06-.01-.06v-.07l-.02-.06v-.06l-.02-.06v-.06l-.02-.06v-.06l-.02-.07-.01-.06-.01-.06-.02-.06-.01-.06-.02-.06-.01-.06-.02-.06-.01-.06-.04-.12-.03-.12-.04-.12-.04-.12-.05-.12-.04-.12-.05-.12-.05-.12-.05-.12-.05-.12-.06-.12-.06-.12-.06-.11-.06-.12-.05-.09-.02-.03-.07-.12-.06-.11-.08-.12-.07-.12-.08-.11-.07-.12-.08-.11-.09-.12-.08-.11-.09-.12-.09-.11-.1-.11-.09-.11-.1-.12-.09-.1-.1-.12-.1-.11-.1-.11-.12-.11-.1-.1-.1-.1-.02-.02-.1-.1-.12-.11-.12-.11-.12-.11-.12-.1-.12-.11-.13-.1-.13-.11-.03-.03-.1-.08-.12-.1-.14-.1-.13-.1-.14-.11-.14-.1-.14-.1-.14-.1-.03-.03-.11-.07-.14-.1-.15-.1-.15-.1-.15-.1-.15-.1-.16-.1-.15-.1-.16-.09-.16-.1-.16-.08-.17-.1-.16-.09-.17-.08-.14-.08-.03-.01-.17-.1-.17-.09-.17-.09-.17-.09-.18-.09-.18-.08-.18-.09-.18-.08-.18-.09-.19-.08-.18-.08-.2-.08-.18-.08-.2-.07-.19-.08-.2-.07-.19-.08-.2-.07-.2-.07-.2-.06-.2-.07-.2-.06-.21-.07-.15-.04-.06-.02-.2-.07-.22-.06-.2-.07-.22-.06-.22-.06-.21-.06-.22-.06-.22-.06-.22-.05-.22-.06-.22-.05-.23-.05-.22-.04-.23-.05-.23-.04-.19-.04h-.04l-.23-.05-.23-.05-.23-.04-.24-.04-.23-.04-.24-.04-.16-.02-.09-.01h-.23zm.5-2.53l.26-.03.26-.02.26-.03.26-.02.26-.02.26-.02h.05l.21-.01.26-.01h.26l.26-.01h1.03l.25.02h.26l.25.02.25.01.26.02.25.02.25.02.25.03h.07l.18.03.25.03.24.04.25.04.24.05.25.04.24.05.24.04.24.06.24.05.24.05.24.06.24.06.23.06.24.06.23.07.23.07.23.07.23.07.23.07.23.08.22.07.23.08.22.08.03.02.19.07.22.1.21.09.21.1.22.1.2.1.22.1.2.1.21.1.2.1.21.12.2.1.2.12.2.12.15.08.05.03.19.13.19.12.19.12.18.13.19.13.18.13.18.13.13.1.05.04.18.14.17.14.17.14.17.14.17.15.16.14.16.15.16.15.02.02.14.14.15.15.16.16.15.16.14.16.15.16.14.16.14.17.13.17.14.16.13.17.13.18.13.17.12.17.12.18.12.18.12.18.1.18.12.18.1.18.11.19.03.05.07.14.1.19.1.19.08.19.1.2.08.19.08.2.08.19.07.2.07.2.07.2.06.2.07.2.05.2.06.2.02.12.03.1.02.1.03.1.02.11.02.1.02.11.02.1.02.11.01.1.02.11.02.1.01.11.01.11.02.1v.11l.02.11v.1l.02.11v.11l.01.11v.1l.01.12V298.04l.01.11v.54l-.01.11v.1l-.01.12-.01.1v.11l-.02.1v.12l-.02.1-.01.1-.02.12-.01.1-.02.1-.01.11-.02.1-.02.11-.02.1-.02.11-.02.1-.02.11-.02.1-.02.1-.03.11-.02.1-.03.1-.03.11-.06.2-.06.2-.06.2-.07.2-.07.2-.07.2-.08.2-.08.2-.09.19-.08.19-.1.19-.09.19-.1.19-.1.18-.1.19-.1.18-.11.18-.11.18-.12.18-.11.18-.12.17-.13.17-.12.18-.13.17-.13.16-.13.17-.14.17-.13.16-.15.16-.14.16-.14.16-.15.16-.15.15-.15.16-.16.15-.16.15-.15.15-.17.14-.16.15-.16.14-.17.14-.17.14-.17.14-.18.14-.17.13-.18.14-.18.13-.19.13-.18.13-.19.12-.18.13-.2.12-.18.12-.04.02-.16.1-.2.12-.19.11-.2.12-.2.1-.2.12-.2.1-.21.11-.21.1-.21.1-.21.11-.21.1-.22.1-.21.1-.22.09-.22.09-.22.09-.22.09-.22.08-.23.09-.23.08-.22.08-.23.08-.23.07-.23.08-.24.07-.23.07-.24.07-.23.07-.24.06-.24.06-.24.06-.25.06-.24.06-.24.05-.25.06-.24.05-.25.05-.25.04-.25.05-.25.04-.26.04-.25.04-.25.03-.26.03-.25.04-.26.03-.26.02-.26.03-.26.02-.26.02-.26.02-.26.01-.27.02-.26.01h-.27l-.26.02H92.23l-.2-.01-.27-.01-.26-.01-.27-.02-.26-.01-.26-.02-.27-.02-.26-.03-.26-.02-.26-.03-.26-.03-.25-.03-.26-.04-.26-.03-.25-.04-.25-.04-.26-.04-.25-.05-.25-.04-.24-.05-.25-.05-.25-.06-.24-.05-.25-.06-.24-.06-.24-.06-.24-.06-.24-.07-.24-.06-.23-.07-.24-.07-.23-.08-.23-.07-.23-.08-.23-.07-.23-.08-.22-.09-.23-.08-.22-.09-.22-.08-.22-.1-.22-.08-.22-.1-.21-.1-.21-.09-.22-.1-.2-.1-.21-.1-.21-.1-.2-.1-.2-.11-.21-.11-.2-.11-.2-.11-.2-.12-.19-.11-.2-.12-.18-.12-.19-.12-.19-.12-.18-.12-.18-.13-.19-.12-.17-.13-.18-.13-.18-.13-.17-.13-.17-.14-.17-.13-.16-.14-.17-.14-.16-.14-.16-.14-.16-.15-.15-.14-.16-.15-.15-.15-.15-.14-.14-.16-.15-.15-.14-.15-.14-.16-.13-.15-.14-.16-.13-.16-.13-.16-.12-.17-.13-.16-.12-.17-.12-.16-.12-.17-.1-.17-.12-.17-.1-.17-.11-.17-.1-.18-.1-.17-.1-.18-.1-.18-.09-.18-.08-.18-.09-.18-.08-.18-.08-.19-.07-.18-.08-.19-.06-.19-.07-.19-.06-.19-.06-.19-.06-.19-.05-.19-.05-.19-.02-.1-.03-.1-.02-.1-.02-.1-.02-.1-.02-.09-.02-.1-.01-.1-.02-.1-.02-.1-.01-.1-.01-.1-.02-.1v-.1l-.02-.1-.01-.1v-.1l-.02-.1v-.1l-.01-.1v-.1l-.01-.1V298.67l-.01-.1v-.5l.01-.1.01-.1v-.1l.01-.11.01-.1.01-.1.01-.1.01-.1.01-.1.02-.1.01-.1.02-.1.01-.1.02-.1.02-.1.01-.09.02-.1.02-.1.02-.1.03-.09.02-.1.02-.1.03-.09.02-.1.03-.1.05-.18.06-.2.06-.18.06-.19.07-.18.07-.19.08-.18.07-.18.08-.19.09-.18.08-.17.1-.18.08-.18.1-.17.1-.17.1-.18.1-.17.1-.17.11-.16.11-.17.12-.16.11-.17.12-.16.13-.16.12-.16.13-.16.13-.15.13-.16.13-.15.14-.15.14-.15.14-.15.14-.15.15-.14.15-.15.15-.14.15-.14.15-.14.16-.14.16-.13.16-.14.16-.13.17-.13.17-.13.17-.13.17-.13.17-.12.17-.13.18-.12.18-.12.18-.12.19-.11.18-.12.19-.11.18-.11.2-.12.19-.1.2-.11.19-.1.2-.11.2-.1.2-.1.2-.1.2-.1.2-.1.21-.09.08-.03.13-.06.2-.09.22-.08.21-.09.22-.08.21-.09.22-.08.22-.08.22-.07.22-.08.23-.07.22-.07.23-.07.23-.07.22-.07.23-.06.23-.06.24-.06.23-.06.24-.05.23-.06.24-.05.24-.05.24-.05.24-.05.24-.04.24-.04.25-.04.24-.04.25-.03.24-.04.25-.03.25-.03.25-.03.25-.02.25-.03.26-.02.25-.02.25-.01.26-.02h.25l.26-.02h.26l.26-.01h1.04l.09-.02.17-.02z"/><ellipse cx="138.51" cy="298.48" rx="19.38" ry="13.29" fill="#b8b8b8"/><path d="M138.27 286.44h-.24l-.24.02h-.24l-.23.02-.24.02-.23.02-.24.02-.23.02-.23.02-.23.03-.23.02-.23.03-.22.03-.23.04-.22.03-.23.04-.22.04-.22.04-.22.04-.22.04-.22.05-.22.05-.21.04-.22.06-.2.05-.22.05-.21.06-.21.06-.2.06-.21.06-.2.06-.21.06-.2.07-.2.07-.2.07-.2.07-.2.07-.2.07-.18.08-.2.07-.18.08-.2.08-.18.08-.18.08-.19.09-.18.08-.1.05-.08.04-.18.09-.17.09-.18.09-.17.09-.17.09-.17.1-.17.09-.16.1-.17.1-.16.1-.16.1-.15.1-.16.1-.15.1-.16.1-.15.11-.14.1-.15.11-.14.11-.14.11-.14.11-.14.11-.14.12-.13.11-.13.11-.13.12-.13.12-.12.11-.12.12-.12.12-.12.12-.12.12-.1.12-.12.12-.1.12-.11.13-.1.12-.11.13-.1.12-.1.13-.1.12-.08.13-.1.13-.08.12-.09.13-.08.13-.08.13-.08.13-.07.13-.08.13-.07.13-.06.13-.07.13-.06.14-.06.13-.06.13-.06.13-.05.14-.05.13-.05.14-.05.13-.04.13-.04.14-.04.14-.04.13-.03.14-.02.06-.01.07-.02.07-.01.07-.01.07-.02.07v.06l-.02.07-.01.07-.01.07-.01.07-.01.07v.07l-.02.07v.07l-.01.06v.07l-.01.07v.07l-.01.07V298.13l-.01.07V298.7l.01.07v.07l.01.07v.07l.01.07v.07l.02.07v.07l.01.07.01.06.01.07.01.07.01.07.02.07v.07l.02.06.02.07.01.07.01.07.02.06.02.07.01.07.02.06.02.07.02.06.04.14.04.13.04.14.05.13.04.13.06.13.05.13.05.13.06.13.06.13.07.13.06.12.07.13.07.13.07.12.07.13.08.12.08.13.08.12.08.13.1.12.08.12.09.12.1.13.09.12.1.12.1.11.1.12.1.12.1.12.12.11.1.12.12.11.11.12.12.11.12.11.12.12.13.1.12.12.13.1.13.11.13.11.14.1.13.11.14.1.14.1.13.1.01.01.15.1.14.1.15.1.15.1.15.1.16.09.15.1.16.09.16.09.16.1.16.08.17.09.16.09.17.08.17.09.17.08.18.08.17.08.18.08.18.08.18.08.18.07.18.07.19.08.18.07.19.07.19.06.19.07.2.07.18.06.2.06.2.06.2.06.2.06.2.05.2.06.2.05.2.05.2.05.21.04.2.05.22.04.2.05.22.04.21.04.21.03.22.04.21.03.22.03.22.03.22.03.22.03.22.02.22.02.22.02.23.02.22.02.23.01.22.02h.23l.23.02h.22l.23.01h1.16l.23-.01h.23l.23-.02.23-.01.23-.02.22-.01.23-.02.22-.02.23-.02.22-.03.22-.02.22-.03.22-.03.22-.03.22-.03.22-.04.21-.04.21-.03.22-.04.2-.05.22-.04.21-.05.2-.04.22-.05.2-.05.2-.05.2-.06.21-.05.2-.06.2-.06.2-.06.2-.06.19-.06.2-.06.18-.07.2-.07.18-.07.19-.07.19-.07.18-.07.18-.08.18-.07.18-.08.18-.08.18-.08.17-.08.17-.08.17-.08.17-.09.17-.08.17-.1.16-.08.16-.09.16-.09.16-.1.16-.09.15-.09.15-.1.15-.09.13-.08.02-.02.15-.1.14-.1.15-.1.14-.1.14-.1.13-.1.14-.1.13-.1.13-.11.13-.1.13-.11.12-.11.12-.1.12-.12.12-.1.12-.12.1-.1.12-.12.1-.11.12-.12.1-.1.1-.12.1-.12.1-.11.1-.12.09-.11.09-.12.09-.12.08-.11.09-.12.08-.12.08-.12.08-.12.07-.12.07-.11.07-.12.07-.12.07-.12.06-.12.06-.12.06-.12.05-.13.06-.12.05-.12.05-.12.05-.12.04-.12.04-.12.04-.13.04-.12.04-.12.03-.12.03-.13.02-.06v-.06l.02-.06.02-.06v-.06l.02-.06.01-.07.01-.06.01-.06.01-.06.01-.06.01-.07v-.06l.02-.06v-.12l.01-.07v-.06l.01-.06v-.06l.01-.07V298.1l-.01-.06v-.06l-.01-.06v-.06l-.01-.07-.01-.06-.01-.06v-.06l-.02-.06v-.07l-.02-.06v-.06l-.02-.06-.01-.06-.01-.06-.02-.06-.01-.06-.01-.07-.02-.06-.01-.06-.02-.06-.01-.05-.04-.13-.04-.12-.03-.12-.04-.12-.05-.12-.04-.12-.05-.12-.05-.12-.05-.12-.06-.11-.05-.12-.06-.12-.06-.12-.07-.12-.04-.08-.02-.03-.07-.12-.07-.12-.07-.11-.07-.12-.08-.12-.08-.11-.08-.12-.08-.11-.08-.12-.1-.11-.08-.11-.1-.12-.09-.11-.1-.11-.1-.11-.1-.12-.1-.1-.1-.12-.1-.1-.12-.11-.1-.1v-.01l-.12-.11-.12-.1-.11-.12-.12-.1-.12-.11-.13-.1-.12-.11-.13-.1-.04-.04-.09-.07-.13-.1-.13-.11-.13-.1-.14-.1-.14-.1-.14-.1-.14-.1-.04-.03-.1-.08-.15-.1-.14-.1-.15-.1-.15-.1-.15-.1-.16-.1-.15-.09-.16-.1-.16-.09-.16-.09-.17-.09-.16-.1-.17-.08-.15-.07-.02-.02-.17-.1-.17-.08-.17-.1-.18-.08-.17-.1-.18-.08-.18-.09-.18-.08-.18-.08-.19-.08-.19-.09-.18-.07-.2-.08-.19-.08-.19-.07-.2-.08-.2-.07-.2-.07-.2-.07-.2-.07-.2-.06-.2-.07-.2-.06-.15-.05-.06-.02-.21-.06-.21-.07-.21-.06-.21-.07-.22-.06-.21-.06-.22-.06-.22-.05-.22-.06-.22-.05-.22-.05-.23-.05-.22-.05-.23-.05-.23-.04-.2-.03-.03-.01-.23-.05-.23-.04-.24-.05-.23-.04-.24-.03-.24-.04-.16-.02-.08-.02h-.23zm.5-2.53l.26-.03.26-.03.26-.02.26-.03.26-.02.26-.02h.26l.26-.02h1.54l.26.01.25.01.26.02.25.01.25.02.26.02.25.02.25.02.07.01.18.02.24.04.25.04.25.04.24.04.25.04.24.05.24.05.24.05.24.05.24.06.24.06.23.05.24.07.23.06.24.06.23.07.23.07.23.07.23.08.22.07.23.08.22.08.23.08.03.01.19.08.21.1.22.08.21.1.22.1.2.1.22.1.2.1.21.1.2.11.2.11.21.11.2.12.2.11.15.09.04.03.2.12.19.13.19.12.18.13.19.13.18.13.18.13.13.1.05.03.18.14.17.14.17.15.17.14.17.14.16.15.16.15.16.15.02.01.14.14.15.16.15.15.15.16.15.16.14.17.15.16.14.16.13.17.14.17.13.17.13.17.13.17.12.18.12.18.12.17.11.18.12.18.1.19.11.18.1.19.04.05.07.13.1.2.09.18.1.2.08.19.08.2.09.19.07.2.08.2.07.2.07.2.06.2.06.2.06.2.05.2.03.11.03.1.02.11.02.1.03.1.02.11.02.1.02.11.01.1.02.11.02.1.01.11.02.11.01.1.01.11.02.11v.1l.02.11v.11l.01.1v.12l.02.1V299.02l-.01.11-.01.1-.01.12-.01.1-.01.11-.01.1-.01.11-.02.11-.01.1-.02.11-.01.1-.02.11-.02.1-.02.11-.02.1-.02.11-.02.1-.02.11-.03.1-.02.1-.03.11-.02.1-.03.11-.06.2-.06.2-.06.2-.07.2-.07.2-.07.2-.08.2-.08.19-.09.2-.08.19-.1.19-.09.19-.1.18-.1.19-.1.18-.1.19-.11.18-.11.18-.12.18-.11.17-.12.18-.13.17-.12.17-.13.17-.13.17-.13.17-.14.16-.14.17-.14.16-.14.16-.14.16-.15.15-.15.16-.16.15-.15.15-.16.15-.16.15-.16.15-.16.14-.17.15-.16.14-.17.14-.18.14-.17.14-.18.13-.17.13-.18.13-.19.13-.18.13-.19.13-.18.12-.2.13-.19.12-.03.02-.16.1-.2.11-.2.12-.2.11-.2.11-.2.11-.2.11-.2.1-.21.11-.21.1-.21.1-.22.1-.21.1-.22.1-.21.1-.22.08-.22.1-.22.08-.23.09-.22.08-.23.08-.22.08-.23.08-.23.08-.24.07-.23.08-.23.07-.24.06-.24.07-.23.07-.24.06-.24.06-.25.06-.24.05-.24.06-.25.05-.25.05-.25.05-.24.05-.25.04-.25.04-.26.04-.25.04-.26.04-.25.03-.26.03-.25.03-.26.03-.26.02-.26.03-.26.02-.26.01-.26.02-.27.01-.26.02h-.27l-.26.01h-1.61l-.27-.02h-.26l-.27-.02-.26-.02-.27-.02-.26-.02-.26-.02-.26-.03-.26-.02-.26-.03-.26-.04-.25-.03-.26-.04-.25-.03-.25-.05-.26-.04-.25-.04-.25-.05-.25-.05-.24-.05-.25-.05-.24-.06-.25-.05-.24-.06-.24-.06-.24-.07-.24-.06-.24-.07-.23-.07-.24-.07-.23-.07-.23-.07-.23-.08-.23-.08-.23-.08-.22-.08-.23-.08-.22-.09-.22-.09-.22-.09-.22-.09-.22-.09-.21-.1-.22-.1-.2-.09-.22-.1-.2-.1-.21-.1-.2-.1-.21-.12-.2-.1-.2-.11-.2-.12-.2-.1-.2-.12-.18-.12-.2-.12-.18-.12-.19-.12-.18-.12-.19-.13-.18-.13-.18-.12-.17-.13-.18-.13-.01-.01-.16-.13-.17-.13-.17-.14-.17-.13-.16-.14-.16-.15-.16-.14-.16-.14-.16-.14-.15-.15-.15-.15-.15-.15-.14-.15-.15-.15-.14-.16-.14-.15-.13-.16-.14-.16-.13-.16-.13-.16-.13-.16-.12-.16-.12-.17-.12-.16-.12-.17-.11-.17-.11-.17-.1-.17-.11-.18-.1-.17-.1-.18-.1-.17-.1-.18-.09-.18-.08-.18-.09-.18-.08-.19-.08-.18-.08-.19-.07-.18-.07-.2-.06-.18-.07-.19-.05-.19-.06-.2-.05-.18-.05-.2-.03-.1-.02-.1-.02-.09-.02-.1-.02-.1-.02-.1-.02-.1-.02-.1-.01-.09-.02-.1-.01-.1-.02-.1v-.1l-.02-.1-.01-.1-.01-.1-.01-.1-.01-.1v-.1l-.01-.1v-.1l-.01-.1v-.1l-.01-.1v-.71l.01-.1v-.1l.01-.1.01-.1v-.1l.02-.1v-.1l.02-.1.01-.1.02-.1v-.1l.02-.1.02-.1.02-.1.01-.1.02-.1.02-.1.02-.09.02-.1.02-.1.03-.1.02-.09.02-.1.03-.09.03-.1.05-.19.06-.19.06-.18.06-.2.07-.18.07-.18.07-.19.08-.18.08-.18.08-.18.09-.18.09-.17.09-.18.1-.17.1-.18.1-.17.1-.17.1-.17.11-.17.11-.16.12-.17.11-.16.12-.16.12-.16.13-.16.12-.16.13-.16.14-.15.13-.15.14-.15.14-.15.14-.15.14-.15.15-.15.14-.14.15-.14.16-.14.15-.14.16-.14.16-.14.16-.13.16-.13.17-.14.16-.13.17-.12.17-.13.18-.13.17-.12.18-.12.18-.12.18-.12.18-.12.19-.11.18-.12.2-.1.18-.12.2-.1.19-.11.2-.11.2-.1.19-.1.2-.1.2-.1.2-.1.21-.1.2-.09.1-.04.12-.05.2-.09.22-.09.21-.08.22-.09.21-.08.22-.08.22-.08.22-.08.22-.07.23-.08.22-.07.23-.07.22-.06.23-.07.23-.06.23-.07.24-.06.23-.05.23-.06.24-.05.24-.05.24-.05.24-.05.24-.05.24-.04.24-.04.24-.04.25-.04.25-.04.24-.03.25-.03.25-.03.25-.03.25-.03.25-.02.25-.02.26-.02.25-.02.26-.01.25-.01.26-.01.26-.01h.26l.26-.01h.78l.09-.01.17-.02z"/><path d="M177.69 296.42c17.12-22.62 29.45-52.48 34.74-84.15 5.01-29.97 3.41-59.72-4.53-84.39L67.27 129.5c-10.79 19.38-18.52 41.86-22.41 65.16-6.43 38.44-1.92 76.1 12.35 103.15l120.48-1.38z" fill="#c2c2c2"/><path d="M208.4 124.55l.52.12.5.2.46.28.4.34.35.41.28.46.2.5.2.58.19.6.18.6.19.6.18.6.18.6.17.6.18.6.17.61.17.61.17.61.16.61.16.62.16.61.16.62.16.62.15.62.15.62.15.63.14.62.15.63.14.63.14.63.13.63.14.63.13.64.13.63.12.64.13.64.12.64.12.64.11.64.12.65.11.64.11.65.1.65.11.65.1.65.05.31.05.34.1.66.1.65.09.66.09.66.09.65.08.66.08.67.08.66.08.66.08.67.07.66.07.67.07.67.06.67.07.67.06.67.06.67.05.68.06.67.05.68.04.67.05.68.05.68.04.68.04.68.03.68.04.69.03.68.03.68.03.69.02.69.02.68.02.69.02.69.01.69.02.69v.69l.01.7.01.69V180.3l-.01.7-.01.7-.01.7-.02.7-.02.7-.02.7-.02.7-.02.7-.03.7-.03.7-.03.7-.04.7-.03.7-.04.71-.04.7-.05.71-.04.7-.05.72-.05.7-.06.7-.05.72-.06.7-.06.71-.07.71-.06.71-.07.71-.07.71-.08.71-.07.71-.08.71-.08.71-.08.72-.01.09-.08.62-.1.7-.08.72-.1.71-.1.72-.1.7-.1.72-.1.71-.11.72-.1.71-.12.71-.12.72-.11.71-.06.36-.06.35-.13.76-.14.75-.14.75-.13.75-.15.75-.14.75-.15.75-.15.75-.15.75-.15.74-.16.75-.15.7-.01.05-.17.74-.17.74-.17.74-.17.74-.18.74-.17.74-.19.74-.18.73-.18.74-.2.73-.18.73-.2.74-.2.73-.2.73-.2.73-.2.72-.2.73-.2.73-.22.72-.21.72-.21.72-.22.72-.22.72-.22.72-.02.04-.21.68-.24.7-.23.72-.24.71-.24.71-.24.71-.24.7-.25.71-.25.7-.25.7-.25.7-.26.7-.26.7-.26.7-.26.7-.26.7-.27.68-.27.7-.27.68-.27.69-.28.68-.27.69-.28.68-.29.68-.28.68-.29.68-.29.67-.29.68-.3.67-.29.67-.3.67-.3.66-.3.67-.3.66-.3.66-.31.66-.31.66-.31.65-.32.66-.32.65-.31.65-.32.65-.33.64-.18.36-.14.29-.34.64-.33.63-.34.64-.33.63-.34.63-.35.63-.34.63-.35.62-.34.63-.35.62-.36.62-.35.61-.36.62-.35.6-.36.62-.36.6-.37.61-.36.6-.37.6-.37.6-.37.6-.37.6-.38.58-.37.6-.38.58-.38.58-.39.58-.38.58-.39.58-.38.57-.4.58-.38.57-.15.2-.25.36-.4.56-.4.56-.4.56-.4.55-.4.56-.41.55-.41.54-.41.55-.41.54-.42.54-.41.53-.42.53-.42.53-.42.53-.1.13-.32.4-1.4-1.06 1.4 1.05-.18.2-.2.17-.23.14-.25.1-.26.07-.26.02-2.5.04-64.21 1-53.77.83-.35-.03-.34-.07-.33-.13-.3-.18-.27-.23-.23-.26-.2-.3-.16-.32-.17-.32-.17-.33-.17-.32-.17-.33-.17-.33-.16-.33-.17-.33-.16-.33-.16-.33-.17-.34-.16-.33-.16-.34-.16-.33-.16-.34-.16-.34-.15-.34-.16-.33-.15-.35-.16-.34-.15-.34-.15-.34-.15-.35-.15-.34-.15-.35-.15-.34-.15-.35-.15-.35-.14-.35-.15-.35-.14-.35-.14-.35-.15-.35-.14-.36-.14-.35-.14-.36-.13-.35-.14-.36-.14-.36-.13-.36-.14-.36-.13-.36-.13-.36-.14-.36-.13-.36-.13-.37-.12-.36-.13-.37-.13-.36-.13-.37-.12-.37-.13-.36-.12-.37-.12-.37-.12-.37-.12-.37-.12-.38-.12-.37-.12-.37-.12-.38-.11-.37-.12-.38-.11-.38-.11-.37-.12-.38-.1-.38-.12-.38-.1-.38-.11-.38-.11-.38-.1-.39-.11-.38-.1-.38-.11-.39-.1-.38-.1-.39-.1-.39-.1-.38-.1-.4-.1-.38-.1-.4-.1-.38-.1-.4-.09-.38-.09-.4-.1-.39-.08-.4-.1-.39-.08-.4-.09-.39-.09-.4-.08-.39-.09-.4-.08-.4-.09-.4-.08-.4-.08-.4-.08-.4-.08-.4-.08-.4-.08-.4-.08-.4-.07-.4-.08-.41-.07-.4-.08-.41-.07-.4-.07-.42-.07-.4-.07-.41-.07-.41-.07-.4-.06-.42-.07-.4-.06-.42-.07-.41-.06-.41-.06-.42-.06-.4-.06-.42-.06-.42-.06-.41-.06-.42-.05-.41-.06-.42-.05-.42-.06-.41-.05-.42-.05-.42-.05-.42-.05-.42-.05-.42-.04-.42-.05-.42-.05-.42-.04-.42-.04-.42-.05-.43-.04-.42-.04-.42-.04-.43-.04-.42-.03-.43-.04-.43-.04-.42-.03-.43-.04-.43-.03-.42-.03-.43-.03-.43-.03-.43-.03-.43-.03-.43-.03-.43-.02-.43-.03-.43-.02-.43-.03-.43-.02-.44-.02-.43-.02-.43-.02-.44-.02-.43-.01-.43-.02-.44-.02-.43-.01-.44-.01-.44-.02-.43v-.44l-.02-.44v-.43l-.02-.44v-.44l-.01-.44v-.44l-.01-.44v-.88l-.01-.44V225.77l.01-.44.01-.44v-.45l.01-.44.01-.44.01-.45.01-.44.02-.45.01-.44.01-.45.02-.44.02-.45.01-.45.02-.44.02-.45.02-.45.02-.44.02-.45.02-.45.03-.45.02-.45.03-.44.03-.45.02-.45.03-.45.03-.45.03-.45.03-.45.04-.45.03-.45.04-.45.03-.45.04-.45.04-.45.03-.46.04-.45.05-.45.04-.45.04-.45.04-.46.05-.45.04-.45.05-.46.05-.45.05-.45.05-.46.05-.45.05-.45.05-.46.06-.45.04-.37.01-.09.06-.45.05-.45.06-.46.06-.45.06-.46.06-.45.06-.46.07-.45.06-.46.06-.46.07-.45.07-.46.07-.45.06-.46.07-.45.08-.46.07-.46.07-.45.07-.46.1-.55.09-.56.1-.55.09-.55.1-.55.1-.55.1-.56.1-.55.1-.55.1-.55.1-.55.11-.55.1-.55.12-.54.1-.55.12-.55.11-.55.12-.55.12-.54.11-.55.12-.54.12-.55.13-.54.12-.55.12-.54.13-.55.13-.54.13-.54.13-.55.13-.54.13-.54.13-.54.14-.54.14-.54.14-.54.13-.54.15-.54.14-.53.14-.54.15-.54.14-.53.15-.54.15-.53.15-.54.15-.53.15-.53.16-.54.15-.53.16-.53.16-.53.16-.53.16-.53.16-.53.17-.53.16-.52.17-.53.16-.53.17-.52.17-.53.17-.52.18-.53.17-.52.17-.52.18-.52.18-.52.18-.52.18-.52.18-.52.18-.52.19-.52.18-.51.19-.52.19-.51.19-.52.19-.51.19-.51.2-.51.19-.52.2-.5.19-.52.2-.5.2-.51.2-.5.2-.51.2-.51.2-.5.21-.5.2-.51.22-.5.2-.5.22-.5.2-.5.22-.5.22-.5.21-.5.22-.49.22-.5.21-.49.23-.5.22-.48.22-.5.22-.48.23-.5.22-.48.23-.49.23-.48.23-.49.23-.48.23-.49.24-.48.23-.48.24-.48.24-.48.23-.48.24-.47.24-.48.25-.48.24-.47.24-.47.25-.47.25-.47.24-.47.25-.47.25-.47.25-.47.26-.46.25-.47.25-.46.24-.36.3-.33.34-.28.37-.23.41-.17.43-.1.44-.04 7.62-.11 86.49-1.28 46.51-.65.54.03zm-48.03 7.12l-83.71.68v-.04l-7.66.09-.17.3-.24.46-.25.45-.24.45-.24.46-.24.45-.24.46-.24.46-.24.46-.24.45-.23.46-.24.47-.23.46-.23.46-.23.47-.23.46-.23.47-.23.47-.22.47-.23.47-.22.47-.23.47-.22.47-.22.48-.22.47-.22.48-.21.47-.22.48-.22.48-.21.48-.21.48-.21.48-.21.48-.21.49-.21.48-.21.49-.2.48-.21.49-.2.49-.2.49-.2.49-.2.49-.2.49-.2.49-.2.5-.2.49-.19.5-.19.49-.2.5-.18.49-.2.5-.18.5-.19.5-.18.5-.19.5-.18.5-.18.5-.18.5-.18.5-.18.51-.17.5-.18.51-.17.51-.18.5-.17.52-.17.5-.17.52-.17.5-.16.52-.17.51-.16.51-.17.52-.16.5-.16.52-.16.52-.15.52-.16.51-.16.52-.15.52-.15.51-.16.52-.15.52-.14.52-.15.52-.15.52-.14.53-.15.52-.14.52-.14.53-.14.52-.14.52-.14.53-.13.52-.14.53-.13.53-.13.52-.13.53-.13.53-.13.53-.13.53-.12.53-.13.53-.12.53-.12.53-.12.53-.12.53-.12.53-.12.54-.11.53-.11.53-.12.54-.1.53-.12.53-.1.54-.11.54-.1.53-.1.54-.11.53-.1.54-.1.54-.1.54-.1.53-.1.54-.09.54-.1.54-.07.44-.07.45-.07.44-.08.45-.07.44-.07.45-.07.44-.07.44-.06.45-.07.44-.07.45-.06.44-.07.44-.06.45-.06.44-.06.44-.06.45-.06.44-.06.44v.09l-.05.35-.06.45-.05.44-.06.44-.05.44-.05.44-.05.45-.05.44-.05.44-.05.44-.05.44-.05.44-.04.44-.04.44-.05.45-.04.44-.04.44-.04.44-.04.43-.04.44-.04.44-.03.44-.04.44-.03.44-.04.44-.03.44-.03.43-.03.44-.03.44-.03.44-.03.43-.02.44-.03.44-.02.43-.03.44-.02.43-.02.44-.02.43-.02.44-.02.43-.02.44-.02.43-.01.44-.02.43-.01.43-.02.44-.01.43-.01.43-.01.43-.01.43v.44l-.02.43v.86l-.01.43v.86l-.01.43v2.56l.01.43.01.43v.42l.02.43v.42l.01.43.01.42.02.43v.42l.02.42.02.42.01.43.02.42.02.42.01.42.02.42.02.42.03.42.02.42.02.42.02.42.03.42.03.42.02.41.03.42.03.42.03.41.03.42.03.41.03.42.04.41.03.41.04.42.03.41.04.41.04.41.04.42.04.4.04.42.04.4.04.42.05.4.04.41.05.41.04.4.05.41.05.41.05.4.05.41.05.4.05.4.06.41.05.4.05.4.06.4.06.41.06.4.05.4.06.4.06.4.07.4.06.4.06.4.07.39.06.4.07.39.06.4.07.39.07.4.07.38.07.4.07.39.08.39.07.4.07.38.08.39.07.39.08.39.08.38.08.39.08.39.08.38.08.39.08.38.09.38.08.39.09.38.08.38.1.38.08.38.09.38.09.38.09.38.09.37.1.38.09.38.1.37.09.37.1.38.09.37.1.37.1.38.1.37.1.37.1.37.1.36.1.37.11.37.1.37.11.36.1.37.12.36.1.36.12.37.1.36.12.36.11.36.12.36.1.36.12.35.12.36.12.36.12.35.11.36.12.35.12.36.13.35.12.35.12.35.13.35.12.35.13.35.12.35.13.34.13.35.13.34.13.35.13.34.13.34.14.34.13.34.14.34.13.34.14.34.14.34.13.33.14.34.14.33.14.34.15.33.14.33.14.33.15.33.14.33.15.33.14.33.15.32.15.33.15.32.15.33.15.32.16.32.15.32.15.32.16.32.15.32.16.31.16.32.16.32.02.04 53.55-.4 63.09-.46 1.55-.01.27-.39.38-.54.37-.55.37-.55.37-.55.37-.55.37-.55.36-.56.36-.56.36-.56.36-.57.36-.57.35-.56.35-.58.23-.36.12-.2.36-.58.34-.58.35-.58.35-.58.34-.58.34-.59.34-.58.34-.6.34-.59.33-.59.34-.6.33-.6.32-.6.33-.6.32-.6.33-.6.32-.62.32-.6.31-.62.32-.62.3-.61.32-.62.3-.62.31-.62.3-.63.3-.63.3-.62.3-.63.3-.64.3-.63.29-.64.29-.63.13-.29.16-.35.29-.64.29-.64.28-.64.29-.65.28-.64.28-.65.28-.65.27-.65.28-.65.27-.66.27-.65.26-.66.27-.66.26-.66.26-.66.26-.67.26-.66.25-.67.25-.67.25-.67.25-.67.25-.67.24-.68.24-.68.24-.67.24-.68.23-.68.23-.68.23-.69.23-.68.23-.69.22-.69.22-.68.22-.7.22-.68.2-.7.22-.69.21-.7.2-.7.21-.69.2-.7.2-.7.2-.66v-.04l.2-.7.2-.7.2-.7.2-.7.18-.7.2-.72.18-.7.18-.71.19-.7.18-.72.17-.71.18-.71.17-.72.17-.7.17-.72.16-.72.17-.72.16-.71.16-.72.15-.72.15-.72.15-.72.15-.73.15-.72v-.04l.14-.68.15-.72.14-.73.14-.72.14-.73.13-.73.13-.72.13-.73.13-.73.12-.73.13-.73.11-.73.06-.34.06-.35.1-.7.11-.68.11-.7.1-.68.1-.7.1-.68.1-.7.1-.68.09-.7.08-.68.09-.7.09-.68.07-.6v-.09l.09-.69.08-.68.08-.7.07-.68.07-.69.07-.68.07-.69.06-.68.07-.69.06-.68.06-.69.05-.68.05-.69.05-.68.05-.68.05-.68.04-.68.04-.69.04-.68.04-.68.03-.68.04-.67.03-.68.02-.68.03-.68.02-.67.02-.68.02-.67.02-.68v-.67l.02-.67v-.68l.01-.25v-1.09l.01-.67v-2l-.01-.67-.01-.67-.01-.66-.02-.67-.02-.66-.01-.66-.03-.66-.02-.66-.02-.66-.03-.66-.03-.66-.04-.66-.03-.65-.04-.66-.04-.65-.04-.65-.04-.66-.05-.65-.05-.65-.05-.64-.06-.65-.05-.65-.06-.64-.06-.65-.06-.64-.07-.64-.07-.64-.07-.64-.07-.64-.07-.64-.08-.63-.08-.64-.08-.63-.08-.63-.09-.63-.09-.63-.09-.63-.05-.33-.04-.3-.1-.62-.1-.62-.1-.63-.1-.62-.1-.62-.1-.61-.11-.62-.11-.62-.12-.6-.11-.62-.12-.61-.12-.61-.12-.6-.12-.62-.13-.6-.13-.6-.13-.6-.14-.6-.13-.6-.14-.6-.14-.6-.14-.59-.15-.59-.14-.59-.15-.59-.16-.58-.15-.59-.16-.58-.15-.58-.16-.58-.17-.58-.16-.57-.17-.58-.14-.49-45.05.4z"/><path d="M96.76 128.44s.71 14.76-11.38 33.71C55.25 209.4 46.4 189.01 46.4 189.01c-5.12 19.94-10.93 62.69 10.35 109.28 38.03 4.54 79.94 4.05 120.9-1.21 22.79-33.14 31.88-67.56 35.37-103.68-23.51-7.25-40.78-21.64-45.19-64.17-4.42-.36-4.06-.46-10.63-1.46l2.07 34.44c-17.91-.95-35.2-.4-52.12.82 0 0-.56-32.42 2.44-35.02 3-2.6-12.82.43-12.82.43z" fill="#008fd7"/><clipPath id="a"><path d="M96.76 128.44s.71 14.76-11.38 33.71C55.25 209.4 46.4 189.01 46.4 189.01c-5.12 19.94-10.93 62.69 10.35 109.28 38.03 4.54 79.94 4.05 120.9-1.21 22.79-33.14 31.88-67.56 35.37-103.68-23.51-7.25-40.78-21.64-45.19-64.17-4.42-.36-4.06-.46-10.63-1.46l2.07 34.44c-17.91-.95-35.2-.4-52.12.82 0 0-.56-32.42 2.44-35.02 3-2.6-12.82.43-12.82.43z"/></clipPath><g clip-path="url(#a)"><path d="M95.46 163.93a510.4 510.4 0 0177.11-.94c.98 25.68-1.05 49.35-6.17 70.96a442.43 442.43 0 01-81.4 2.2c1.18-25.73 4.48-49.86 10.46-72.22z" fill="#008fd7"/><clipPath id="b"><path d="M95.46 163.93a510.4 510.4 0 0177.11-.94c.98 25.68-1.05 49.35-6.17 70.96a442.43 442.43 0 01-81.4 2.2c1.18-25.73 4.48-49.86 10.46-72.22z"/></clipPath><g font-family="'TamilMN','Tamil MN',serif" font-weight="250" font-size="38.33" clip-path="url(#b)"><text x="225" y="179.6" fill="none" transform="matrix(1.00913 -.03941 -.08977 1.00824 -104.3 42.75)">BF</text><text x="225" y="179.6" fill="#fff" stroke="#fff" stroke-width="2.65" transform="matrix(1.00913 -.03941 -.08977 1.00824 -104.3 42.75)">BF</text></g><path d="M95.46 163.93a510.4 510.4 0 0177.11-.94c.98 25.68-1.05 49.35-6.17 70.96a442.43 442.43 0 01-81.4 2.2c1.18-25.73 4.48-49.86 10.46-72.22z" fill="none" stroke="#000" stroke-width="2.5" stroke-linecap="round" stroke-miterlimit="1.5"/><path d="M105.51 171.25c1.48-.2 2.85.87 3.07 2.4a2.74 2.74 0 01-2.3 3.12 2.76 2.76 0 01-3.06-2.39 2.74 2.74 0 012.3-3.13zM162.98 168.94c1.48-.2 2.85.86 3.07 2.39a2.74 2.74 0 01-2.3 3.13 2.76 2.76 0 01-3.06-2.4 2.74 2.74 0 012.29-3.12z" fill="#ffc800" stroke="#000" stroke-width="2.5" stroke-linecap="round" stroke-miterlimit="1.5"/></g><path d="M96.76 128.44s.71 14.76-11.38 33.71C55.25 209.4 46.4 189.01 46.4 189.01c-5.12 19.94-10.93 62.69 10.35 109.28 38.03 4.54 79.94 4.05 120.9-1.21 22.79-33.14 31.88-67.56 35.37-103.68-23.51-7.25-40.78-21.64-45.19-64.17-4.42-.36-4.06-.46-10.63-1.46l2.07 34.44c-17.91-.95-35.2-.4-52.12.82 0 0-.56-32.42 2.44-35.02 3-2.6-12.82.43-12.82.43z" fill="none" stroke="#000" stroke-width="2.5" stroke-linecap="round" stroke-miterlimit="1.5"/><path d="M208.28 127.24c.43-2.23.73-4.49.9-6.76 2.63-35.25-26.77-67.38-65.62-71.7-38.85-4.32-72.53 20.79-75.16 56.04-.6 8.04.48 16.19 3.18 24.03l136.7-1.61z" fill="#c2c2c2"/><clipPath id="c"><path d="M208.28 127.24c.43-2.23.73-4.49.9-6.76 2.63-35.25-26.77-67.38-65.62-71.7-38.85-4.32-72.53 20.79-75.16 56.04-.6 8.04.48 16.19 3.18 24.03l136.7-1.61z"/></clipPath><g clip-path="url(#c)"><path d="M113.74 101.82c-1.07.8-1.67 1.67-1.76 2.55-.52 4.7 12.88 8.95 29.9 9.51 17.03.56 31.27-2.8 31.78-7.49.12-1.07-.5-2.16-1.83-3.21l-58.09-1.36z" fill="#191919"/><clipPath id="d"><path d="M113.74 101.82c-1.07.8-1.67 1.67-1.76 2.55-.52 4.7 12.88 8.95 29.9 9.51 17.03.56 31.27-2.8 31.78-7.49.12-1.07-.5-2.16-1.83-3.21l-58.09-1.36z"/></clipPath><g clip-path="url(#d)"><path d="M123.28 104.92c.04 2.91 8.42 5.5 18.95 5.84 10.78.35 19.79-1.77 20.12-4.74v-.18l-39.07-.92z" fill="#fff"/></g><path d="M131.09 88.84c-.27-7.71-5.44-14.16-11.94-14.89-6.95-.77-12.89 5.27-13.25 13.47-.02.46-.02.92 0 1.38l25.19.04z" fill="#191919"/><clipPath id="e"><path d="M131.09 88.84c-.27-7.71-5.44-14.16-11.94-14.89-6.95-.77-12.89 5.27-13.25 13.47-.02.46-.02.92 0 1.38l25.19.04z"/></clipPath><g clip-path="url(#e)"><path d="M117.26 86.11c.44-3.77.2-6.7-.53-6.77-.79-.1-1.88 3.14-2.43 7.22l-.1.76 3.06-1.2z" fill="#fff"/></g><path d="M172.23 90.11c-.25-7.3-5.14-13.39-11.29-14.07-6.57-.73-12.18 4.97-12.52 12.73-.02.43-.02.87 0 1.3l23.81.04z" fill="#191919"/><clipPath id="f"><path d="M172.23 90.11c-.25-7.3-5.14-13.39-11.29-14.07-6.57-.73-12.18 4.97-12.52 12.73-.02.43-.02.87 0 1.3l23.81.04z"/></clipPath><g clip-path="url(#f)"><path d="M158.77 87.5c.42-3.77.07-6.7-.8-6.8-.93-.1-2.14 3.11-2.69 7.19l-.09.76 3.58-1.15z" fill="#fff"/></g></g><path d="M209.79 128.13l-.18.25-.21.2-.25.18-.27.13-.29.07-.3.03-1.54.03-39.81.74-95.33 1.72-.41-.02-.22-.05-.18-.04-.39-.16-.35-.2-.32-.27-.28-.3-.22-.36-.17-.38-.13-.37-.13-.39-.12-.38-.13-.38-.12-.39-.12-.38-.12-.39-.12-.38-.11-.39-.11-.39-.1-.38-.12-.39-.1-.39-.1-.39-.1-.39-.1-.38-.09-.4-.09-.38-.08-.4-.1-.38-.07-.4-.08-.39-.08-.39-.08-.4-.07-.38-.07-.4-.07-.39-.07-.4-.06-.38-.06-.4-.06-.4-.05-.39-.06-.39-.05-.4-.05-.39-.04-.4-.05-.39-.04-.4-.03-.39-.04-.4-.03-.39-.03-.4-.03-.39-.03-.4-.02-.4-.02-.39-.02-.4-.01-.39-.01-.4-.01-.4-.01-.39v-2.38l.02-.39.01-.4.02-.39.02-.4.02-.4.02-.39.03-.4.03-.42.03-.44.04-.43.04-.43.04-.42.05-.43.05-.43.05-.42.05-.43.06-.42.06-.43.07-.42.06-.42.07-.42.07-.42.08-.42.08-.41.08-.42.08-.41.09-.42.09-.41.09-.41.1-.41.09-.41.1-.4.1-.42.1-.4.12-.4.1-.41.12-.4.12-.4.12-.4.12-.4.12-.4.13-.4.13-.4.13-.39.14-.4.14-.38.14-.4.14-.38.15-.4.15-.38.15-.39.15-.38.16-.38.15-.38.17-.39.16-.37.17-.38.16-.38.18-.37.17-.38.18-.37.17-.37.18-.37.19-.37.18-.37.2-.36.18-.37.2-.36.2-.36.19-.36.2-.36.2-.36.2-.35.22-.36.2-.35.22-.35.1-.16.11-.2.22-.34.22-.35.22-.34.22-.35.23-.34.23-.34.23-.34.23-.34.24-.33.23-.34.24-.33.25-.33.24-.33.25-.33.24-.33.25-.32.26-.33.25-.32.26-.32.26-.32.26-.31.26-.32.27-.31.26-.32.27-.3.27-.31.28-.31.27-.3.28-.31.28-.3.28-.3.28-.3.29-.3.29-.3.29-.29.29-.3.3-.28.29-.29.3-.29.3-.28.3-.28.3-.29.3-.27.3-.28.32-.28.3-.27.32-.27.31-.27.32-.27.32-.27.32-.26.32-.27.32-.26.33-.26.32-.26.33-.25.33-.25.33-.26.34-.25.33-.24.34-.25.34-.24.34-.25.34-.24.34-.24.35-.23.35-.24.34-.23.36-.23.35-.23.35-.22.36-.23.35-.22.36-.22.36-.22.36-.22.37-.21.36-.21.37-.21.36-.21.37-.2.37-.21.38-.2.37-.2.37-.2.38-.2.38-.2.38-.18.38-.2.38-.18.39-.18.38-.19.39-.18.39-.18.39-.18.39-.17.39-.17.4-.17.39-.17.4-.17.39-.16.4-.16.4-.16.4-.16.4-.15.4-.15.41-.15.4-.15.42-.15.4-.14.42-.14.4-.14.42-.14.41-.13.42-.14.42-.13.41-.12.42-.13.42-.12.42-.12.42-.12.43-.12.42-.11.43-.11.42-.11.43-.1.43-.11.43-.1.25-.06.18-.04.43-.1.43-.1.44-.08.43-.1.44-.08.43-.08.44-.09.44-.08.44-.07.44-.08.44-.07.45-.07.44-.07.44-.06.45-.06.45-.06.44-.06.45-.05.45-.06.45-.04.45-.05.45-.05.45-.04.46-.04.45-.03.45-.04.46-.03.46-.03.45-.02.46-.03.46-.02.46-.02.46-.01.46-.02h.46l.46-.02h2.32l.47.01.47.01.46.02.47.01.47.02.47.02.47.03.47.03.47.03.47.03.47.03.47.04.48.04.47.05.47.04.48.05.47.05.48.06.47.06.47.06.47.06.47.06.47.07.47.07.46.08.47.07.47.08.46.08.46.08.46.09.47.09.46.09.46.1.45.09.46.1.46.1.45.1.46.1.45.12.45.1.45.12.45.11.45.12.45.12.44.13.45.12.44.13.45.13.44.13.44.14.44.13.44.14.43.14.44.15.44.15.43.14.43.16.43.15.4.15h.03l.43.16.43.16.42.17.43.16.42.17.43.17.42.17.42.18.41.17.42.18.42.18.41.18.41.19.42.19.4.19.41.19.41.2.4.19.41.2.4.2.4.2.4.2.4.2.4.22.4.2.4.22.39.21.4.22.38.22.39.22.39.22.38.22.39.23.38.23.38.23.38.23.38.24.38.23.37.24.38.24.37.24.1.07.27.18.37.24.36.25.37.25.36.25.36.26.36.25.36.26.36.26.35.26.36.26.35.27.35.27.35.26.34.27.35.28.34.27.34.27.34.28.34.28.34.28.33.28.33.29.34.28.32.3.33.28.33.3.32.28.32.3.32.3.32.3.32.29.31.3.2.2.11.1.31.3.31.32.3.3.31.31.3.32.3.3.3.32.3.32.29.32.3.32.28.32.29.32.29.32.24.28.04.05.28.32.28.33.27.34.28.33.27.33.27.34.27.33.26.34.27.34.26.34.26.34.26.35.25.34.24.33.01.02.25.35.25.35.24.35.24.35.24.36.24.35.24.36.23.36.23.35.23.36.23.37.22.36.22.36.22.37.22.36.21.37.22.37.2.37.21.37.2.37.21.38.2.37.2.37.2.38.2.38.18.38.2.38.06.14.12.24.18.38.17.39.18.38.17.39.17.38.17.4.16.38.17.4.16.38.16.4.15.39.15.4.15.39.15.4.15.39.14.4.14.4.14.4.13.4.13.4.13.4.13.4.12.4.13.4.11.4.12.4.12.41.1.41.12.4.1.41.1.41.1.41.1.41.1.41.1.41.08.41.09.41.08.42.08.4.08.42.08.42.07.41.07.42.07.41.07.42.06.42.06.41.06.42v.01l.05.41.04.42.04.42.05.42.03.42.04.42.03.42.03.42.02.43.03.42.02.42.02.42v.43l.02.42v.42l.02.43v1.27l-.01.43-.01.42-.01.43-.02.42-.01.43-.03.42-.02.43-.03.43-.03.42-.03.43-.03.42-.04.43-.04.43-.05.42-.05.43-.02.22-.01.09-.02.13-.03.22-.03.22-.03.22-.03.22-.04.21-.03.22-.03.22-.04.22-.04.22-.03.22-.04.21-.04.22-.04.22-.04.21-.04.22-.04.22-.04.21-.04.22-.05.22-.04.21-.05.22-.04.21-.05.22-.05.21-.05.22-.05.21-.05.22-.05.2-.03.13-.02.1-.05.2-.08.3-.13.26zm-75.64-76.52h-.43l-.42.01-.42.01-.42.01-.43.02-.42.01-.42.02-.41.02-.42.02-.42.03-.42.02-.41.03-.42.04-.41.03-.42.04-.41.04-.41.04-.41.04-.41.05-.41.05-.41.05-.41.05-.41.06-.4.06-.41.06-.4.06-.41.06-.4.07-.4.07-.4.07-.4.07-.4.08-.4.08-.4.08-.4.08-.4.08-.16.04-.23.05-.4.09-.39.09-.39.1-.39.09-.39.1-.39.1-.39.1-.38.1-.39.1-.38.12-.39.1-.38.12-.38.11-.38.12-.38.12-.38.12-.38.12-.37.13-.38.12-.37.13-.38.13-.37.14-.37.13-.37.14-.36.14-.37.14-.37.14-.36.15-.36.15-.37.15-.36.15-.36.15-.35.16-.36.15-.36.16-.35.16-.35.17-.36.16-.35.17-.35.17-.34.17-.35.17-.35.18-.34.17-.34.18-.34.18-.34.18-.34.19-.34.18-.33.2-.34.18-.33.2-.33.19-.33.2-.33.19-.33.2-.32.2-.33.2-.32.2-.32.21-.32.21-.32.21-.32.21-.31.22-.31.21-.32.22-.3.22-.32.22-.3.22-.3.22-.31.23-.3.23-.3.22-.3.23-.3.24-.3.23-.3.24-.29.23-.29.24-.29.24-.28.25-.3.24-.28.25-.28.24-.28.25-.28.25-.28.25-.27.26-.28.25-.27.26-.27.26-.27.26-.26.26-.27.26-.26.27-.26.27-.26.26-.26.27-.26.27-.25.28-.26.27-.25.28-.25.27-.24.28-.25.28-.24.28-.24.29-.24.28-.24.29-.23.28-.24.3-.23.28-.23.3-.23.29-.22.3-.23.29-.22.3-.22.3-.22.3-.21.3-.22.3-.2.3-.22.31-.2.3-.21.32-.2.3-.2.32-.2.3-.11.18-.1.14-.19.32-.2.32-.18.31-.2.32-.18.32-.18.32-.19.33-.18.32-.18.33-.17.32-.18.33-.17.33-.17.33-.16.34-.17.33-.16.33-.16.34-.16.34-.16.33-.15.34-.16.34-.14.35-.15.34-.15.34-.14.35-.14.35-.14.34-.13.35-.14.35-.13.35-.13.36-.12.35-.13.36-.12.35-.12.36-.12.36-.11.36-.11.36-.11.36-.11.36-.1.37-.1.36-.1.37-.1.36-.1.37-.1.37-.08.37-.1.37-.08.38-.08.37-.08.37-.08.38-.07.38-.07.38-.07.37-.07.38-.07.38-.06.39-.06.38-.06.38-.05.39-.05.38-.05.4-.05.38-.04.39-.04.39-.04.39-.04.4-.03.39-.03.35-.02.36-.03.36-.02.36-.02.36-.01.36-.02.36v.36l-.02.36v.72l-.01.36v1.08l.01.36.01.36.01.36.02.36.02.36.01.36.03.36.02.37.02.36.03.36.03.36.04.36.03.36.04.36.04.36.04.36.04.36.05.36.05.36.05.36.05.36.06.36.06.36.06.36.06.36.06.36.07.36.07.36.07.36.08.35.07.36.08.36.08.36.09.36.08.35.1.36.08.36.1.35.09.36.1.36.1.35.1.36.1.35.1.33h.05l94.09-.5 39.08-.2v-.02l.03-.2.02-.21.02-.2.02-.21.02-.2.02-.21.02-.2.02-.21.02-.21.01-.2.02-.21.01-.2.01-.21.02-.2.01-.21.01-.21.01-.2.01-.21.01-.2.01-.21v-.21l.02-.2V120.52l.01-.2.02-.4v-.8l.01-.4v-1.19l-.02-.4v-.39l-.02-.4-.02-.39-.02-.4-.02-.38-.03-.4-.02-.39-.03-.39-.04-.39-.03-.39-.04-.39-.04-.38-.05-.39-.04-.39-.05-.38-.05-.39-.06-.38-.05-.39-.06-.38-.06-.38-.07-.38-.07-.39-.06-.38-.08-.38-.07-.37-.08-.37v-.01l-.07-.38-.08-.38-.08-.37-.08-.38-.08-.38-.1-.37-.08-.37-.1-.38-.09-.37-.1-.37-.1-.37-.1-.37-.1-.37-.1-.37-.11-.37-.11-.36-.12-.37-.11-.37-.12-.36-.12-.36-.12-.37-.13-.36-.12-.36-.13-.36-.14-.36-.13-.36-.14-.36-.14-.35-.14-.36-.14-.35-.15-.36-.14-.35-.15-.35-.16-.35-.15-.35-.16-.35-.16-.35-.16-.35-.16-.34-.17-.35-.17-.34-.17-.35-.17-.34-.17-.34-.18-.34-.18-.34-.18-.34-.18-.34-.12-.2-.07-.13-.18-.34-.18-.34-.19-.33-.19-.34-.2-.33-.18-.33-.2-.33-.2-.34-.2-.32-.2-.33-.2-.33-.2-.33-.21-.32-.21-.32-.22-.33-.21-.32-.21-.32-.22-.32-.22-.32-.22-.31-.23-.32-.22-.31-.23-.32-.23-.3-.23-.32-.24-.31-.23-.3-.01-.02-.23-.3-.23-.3-.24-.31-.24-.3-.24-.31-.25-.3-.25-.3-.24-.3-.25-.3-.26-.3-.25-.3-.26-.3-.25-.3-.26-.29-.04-.03-.22-.26-.26-.29-.27-.3-.26-.28-.27-.29-.27-.28-.27-.29-.27-.28-.27-.29-.28-.28-.28-.28-.28-.28-.28-.27-.28-.28-.1-.1-.18-.17-.29-.28-.28-.27-.3-.27-.28-.27-.3-.27-.29-.27-.3-.26-.3-.26-.29-.27-.3-.26-.3-.26-.3-.25-.31-.26-.3-.25-.32-.26-.3-.25-.32-.25-.31-.25-.32-.25-.31-.24-.32-.25-.32-.24-.32-.24-.33-.24-.32-.23-.33-.24-.33-.23-.32-.24-.34-.23-.33-.23-.33-.22-.34-.23-.24-.16-.1-.06-.33-.23-.34-.22-.34-.22-.34-.22-.35-.21-.34-.22-.35-.2-.35-.22-.35-.2-.35-.22-.35-.2-.36-.2-.35-.2-.36-.2-.36-.2-.35-.2-.37-.2-.36-.19-.36-.19-.37-.19-.36-.18-.37-.19-.37-.18-.37-.18-.37-.18-.37-.18-.38-.18-.37-.17-.38-.17-.38-.17-.38-.17-.38-.16-.38-.17-.38-.16-.39-.16-.38-.16-.39-.15-.39-.16-.39-.15-.39-.15-.39-.15h-.02l-.37-.14-.4-.15-.39-.14-.4-.14-.4-.14-.39-.13-.4-.14-.4-.13-.4-.13-.4-.12-.4-.13-.41-.12-.41-.12-.4-.12-.41-.12-.41-.11-.41-.11-.42-.11-.4-.11-.42-.1-.42-.1-.41-.1-.42-.1-.42-.1-.41-.1-.42-.09-.43-.09-.42-.09-.42-.08-.42-.08-.43-.08-.42-.08-.43-.08-.43-.07-.42-.07-.43-.07-.43-.07-.44-.06-.43-.06-.43-.06-.43-.06-.44-.05-.43-.05-.44-.05-.43-.05-.44-.04-.43-.05-.44-.04-.43-.03-.43-.04-.44-.03-.43-.03-.43-.02-.43-.03-.43-.02-.43-.02-.43-.01-.43-.02h-.42l-.43-.02h-1.7z"/><g><path d="M252.78 168.24l-68.89-23.1v85.67l68.9 23.1v-85.67z" fill="#ffc800"/><path d="M253.3 167.53l.1.1.1.1.06.11.05.13.03.13.02.14v1.29l.13 33.27.2 51.12-.02.2-.05.2-.09.2-.12.16-.14.15-.17.12-.18.1-.2.06-.21.02-.2-.01-.21-.05-24.58-8.24-.03.09-44.37-14.71-.18-.08-.03-.01-.2-.12-.17-.15-.15-.18-.12-.2-.09-.2-.05-.23-.02-.23-.13-42.53-.1-38.37-.01-4.78.02-.3.08-.28.12-.27.17-.24.2-.21.25-.18.26-.13.29-.08.3-.03.29.02.29.07 6.5 2.16 11.34 3.8 4.76 1.6 4.67 1.6 8.98 3.1 15.77 5.6 11.37 4.12 4.98 1.84.25.09.13.05.11.08zm-67.7-17.76l-.1 37.3-.13.06v42.62l.92.31 43.1 14.62 22.2 7.55.18-49.43.14-33.27v-.65l-4.74-1.43-11.56-3.56-15.95-5.05-9.04-2.93-4.69-1.55-4.76-1.59-11.33-3.8-4.23-1.43v2.23z"/><path d="M320.86 140.92l-66.98 27.17v84.56l66.98-27.16v-84.57z" fill="#ffc800"/><path d="M320.8 140.05h.15l.14.03.13.05.12.07.11.09.1.1.08.12.05.13.04.14v.14l.01 1.27.14 32.73.19 50.57-.02.2-.05.2-.08.18-.11.17-.14.15-.17.12-.18.1-24.62 10.1-42.26 17.3-.23.07-.23.04h-.24l-.24-.05-.22-.08-.21-.12-.2-.14-.15-.18-.13-.2-.1-.23-.06-.23-.02-.24v-41.5h-.13l-.1-38.03-.01-5.03.02-.3.08-.28.11-.26.17-.24.2-.22.23-.17.26-.13 7.08-2.89 10.88-4.42 4.57-1.85 4.5-1.8 8.69-3.42 15.33-5.9 11.12-4.2 4.88-1.8.25-.1.13-.04.14-.02zm-4.5 3.84l-10.56 4.6-14.6 6.24-8.32 3.47-4.33 1.79-4.42 1.8-10.54 4.26-.01-.01-7.92 3.2v6.07l-.1 36.96-.13 38.2 39.14-15.71.08.07 25.06-10.16.2-50.49.13-31.92-3.67 1.63z"/><path d="M249.52 124.48l-65.76 20.75 70.85 22.86 66.37-26.46-71.46-17.15z" fill="#ffc800"/><path d="M249.55 125.4l-4.61 1.62-10.53 3.63-14.6 4.9-8.31 2.73-4.33 1.39-4.4 1.4-10.5 3.3-2.87.9 28.35 9.23-.02.13 36.83 11.89 1.57-.62 39.22-15.46 21.7-8.55-36.78-8.99-29.8-7.29-.9-.22h-.02zm-.18-1.78l.11-.01h.12l.12.02 1.16.28 29.86 7.03 40.51 9.54.2.06.17.1.16.12.13.14.11.17.09.18.04.2.02.2-.02.2-.05.19-.08.18-.12.17-.13.14-.17.12-.18.1-25.55 10.18.04.1-39.76 16.03-1 .4-.24.07-.25.03h-.25l-.25-.06-36.85-11.75-33.48-10.7-.6-.19-.27-.11-.24-.15-.21-.2-.18-.22-.14-.26-.1-.27-.05-.28v-.3l.05-.28.1-.27.14-.25.18-.23.22-.19.24-.15.27-.11 7.99-2.54 10.49-3.32 4.4-1.38 4.35-1.35 8.37-2.54 14.77-4.36 10.7-3.07 4.7-1.31.24-.07.27.83-.27-.83.12-.03z"/><path d="M214.04 155.24l-3.38 84.55 11.72 3.32 3.78-83.85-12.12-4.02z" fill="#008fd7"/><path d="M214.17 154.38l.14.04.81.26 11.34 3.68.14.06.13.08.12.1.1.12.08.13.05.15.03.15.01.15-.26 6.88-1.94 49.62-1.08 27.38-.03.24-.06.23-.1.21-.15.2-.01.01-.16.16-.19.14-.22.11-.23.08-.24.03h-.24l-.24-.05-11.72-3.33-.01.05-.24-.09-.23-.12-.2-.17-.16-.19-.14-.22-.1-.24-.05-.25-.01-.25.43-12.53.82-22.98.34-9.2.28-7.25.13-3.03.15-3 .32-5.74.7-10.12.58-7.3.3-3.21v-.16l.02-.15.05-.14.04-.08.02-.05.09-.12.1-.1.12-.08.14-.07.14-.03.14-.02.15.01zm.78 4.19v7.12l-.1 9.8-.13 5.55-.09 2.89-.1 2.94-.3 7-.38 8.93-1 22.31-.07.05-.54 13.48 8.77 2.53 1.26-24.75 2.49-48.45.05-.03.36-8-10.25-3.48.03 2.11z"/><path d="M276.51 130.03l12.68 3.04-61.95 26.89-13.81-4.94 63.08-25z" fill="#008fd7"/><path d="M276.59 129.16l.13.02.15.03 3.13.58 7.1 1.4 2.42.5.23.07.21.1.2.14.17.17.14.2.1.21.08.23.03.25v.25l-.06.24-.1.24-.12.22-.17.2-.2.16-.22.13-1.76.83-4.55 2.08-2.37 1.06-2.42 1.06-5.78 2.5-7.35 3.15-18.36 7.87-19.39 8.27-.21.08-.22.03-.22.01-.22-.03-.22-.06-.93-.34.02-.07-12.87-4.6-.22-.1-.2-.15-.17-.17-.13-.2-.1-.2-.07-.24-.02-.24.02-.23.06-.23.1-.22.13-.2.16-.17.2-.13.2-.1 7.44-2.9 39-15.12 16.2-6.28.63-.24.13-.04.13-.02h.14zm-.38 1.93l-16.1 6.52-38.78 15.7-4 1.6 8.3 2.91 1.56.55 19.6-8.51-.03-.13 17.94-7.9 7.19-3.15 5.65-2.46 2.38-1.03 2.34-.99 2.31-.95-5.06-1.44-2.95-.86-.35.14z"/><path d="M281.17 241.59l-2.14-83.7 13.63-4.8 3.99 82.5-15.48 6z" fill="#008fd7"/><path d="M280.04 238.17l-.5-7.45-.54-10.32-.24-5.86-.1-3.05-.1-3.1-.17-7.37-.21-9.39-.5-23.43-.2-10.28v-.24l.06-.24.1-.23.11-.2.16-.2.18-.16.2-.13.23-.1.02.06 13.62-4.8.25-.06.25-.02.24.02.25.07.22.1.21.14.18.17.15.2.1.2.01.03.07.23.03.25 1.22 28.49 2.15 50.65.15 3.4-.01.15-.03.15-.05.14-.08.14-.1.12-.1.1-.13.08-.14.07-14.73 5.6-.79.3-.15.04-.15.02-.15-.01-.14-.04-.14-.06-.13-.08-.11-.1-.09-.13-.04-.08-.03-.06-.04-.14-.02-.15-.01-.17-.24-3.27zm.57-79.2l.3 11.22.05.04.68 22.8.26 9.11.2 7.16.06 3 .05 2.95.05 5.68-.03 10-.11 7.27-.05 2.09 13.57-5.35-.22-4.55-.03-.02-2.7-49.5-1.4-25.72-10.68 3.82z"/><path d="M279.04 157.69l-68.53-20.88 12.34-4.1 69.77 20.73" fill="#008fd7"/><path d="M223.05 131.28l.21.05 15.83 4.83 37.57 11.48 15.6 4.78.61.18.6 1.1-1.1.58-.6-.18-15.5-4.47-37.22-10.75-16.17-4.68-5.94 1.99v.03l-1.41.48 6.86 2.04 18.25 5.46 7.31 2.2 5.75 1.74 2.4.74 2.36.75 4.54 1.48 7.95 2.72 5.72 2.05 2.5.93.12.05.58 1.08-1.08.58-.13-.03-2.6-.62-5.9-1.48-8.1-2.18-4.6-1.3-2.37-.7-2.41-.72-5.74-1.76-7.3-2.25-18.2-5.65-11.37-3.55-.24-.1-.22-.13-.2-.17-.16-.2-.12-.23-.09-.24-.04-.25v-.26l.04-.25.08-.24.12-.22.16-.2.19-.17.21-.14.24-.1 6.45-2.11 5.9-1.93.22-.05.22-.02.22.01z"/></g><g><path d="M482.85 301.97c15.3-22.82 25.4-52.85 28.45-84.64 2.89-30.07-.71-59.86-10.2-84.49l-138.25 3c-9.3 19.5-15.37 42.1-17.62 65.49-3.7 38.57 3.3 76.25 19.18 103.2l118.44-2.56z" fill="#b8b8b8"/><path d="M501.54 129.5l.5.1.49.19.45.25.4.32.35.38.3.43.22.46.22.59.23.6.22.59.22.6.22.6.22.6.22.6.2.6.22.6.2.61.21.61.2.61.2.61.2.62.2.61.2.62.2.62.18.62.19.62.18.63.19.62.18.63.18.63.18.63.17.63.17.64.17.63.17.64.16.63.17.64.16.64.16.65.15.64.16.65.15.64.15.65.15.65.14.65.04.19.1.46.14.66.14.65.14.66.13.65.13.66.13.66.12.66.13.67.12.66.12.66.12.67.11.67.11.66.11.67.11.67.1.68.11.67.1.67.1.68.1.67.1.68.08.68.1.68.08.68.08.68.09.68.08.68.07.69.08.68.07.69.07.69.07.68.07.7.06.68.07.7.05.68.06.7.06.69.05.7.05.69.05.7.03.5.01.19.04.7.04.7.04.69.04.7.03.7.03.7.03.7.02.7.03.7.02.7.02.71.01.7.02.7.01.71v.71l.02.7v3.54l-.01.72-.01.7-.01.72-.02.7-.01.72-.02.7-.02.72-.03.71-.02.71-.03.72-.03.67v.04l-.04.71-.04.72-.04.71-.04.72-.04.71-.05.72-.05.71-.05.72-.06.71-.05.72-.06.71-.06.72-.07.71-.02.2-.05.52-.07.72-.08.75-.08.76-.08.75-.09.76-.09.75-.09.75-.1.75-.09.76-.1.75-.1.75-.07.55-.03.2-.11.74-.12.75-.11.74-.12.75-.12.74-.12.75-.13.74-.13.74-.13.74-.13.74-.13.74-.14.73-.14.74-.14.73-.15.74-.15.73-.15.73-.15.73-.16.73-.15.73-.16.73-.17.72-.16.73-.15.62-.02.1-.17.72-.18.72-.18.72-.18.71-.19.72-.19.71-.19.72-.19.7-.2.72-.19.7-.2.71-.2.71-.2.7-.21.7-.2.7-.22.7-.21.7-.22.7-.22.7-.22.7-.22.68-.22.7-.23.68-.23.7-.23.68-.23.68-.24.68-.24.68-.24.68-.24.68-.25.67-.24.68-.25.67-.26.67-.25.67-.26.66-.25.67-.26.66-.27.66-.26.66-.27.66-.27.66-.27.65-.2.46-.07.19-.29.65-.28.64-.28.65-.3.64-.28.64-.3.63-.29.64-.3.63-.29.63-.3.63-.3.63-.3.62-.31.63-.31.62-.31.61-.31.62-.32.61-.31.61-.32.61-.32.61-.33.6-.32.6-.33.6-.33.6-.33.6-.33.6-.33.58-.34.6-.34.58-.34.58-.34.58-.35.58-.34.57-.01.02-.34.55-.36.57-.35.57-.36.56-.36.56-.36.56-.36.56-.37.55-.37.55-.36.55-.19.27-.18.28-.19.27-.19.27-.18.27-.2.27-.18.27-.19.27-.19.26-.19.27-.08.12-.1.15-.2.26-.72-.49.72.49-.17.22-.2.19-.24.15-.26.12-.27.07-.27.03-2.47.06-63.59 1.64-52.37 1.34-.34-.01-.33-.07-.32-.12-.3-.16-.27-.21-.23-.25-.2-.28-.19-.32-.19-.32-.19-.32-.18-.33-.19-.32-.19-.33-.18-.33-.19-.33-.18-.33-.18-.33-.19-.33-.18-.33-.18-.33-.18-.34-.18-.33-.18-.34-.17-.34-.18-.34-.17-.33-.18-.34-.17-.34-.18-.35-.17-.34-.17-.34-.17-.35-.17-.34-.17-.35-.17-.34-.16-.35-.17-.35-.16-.35-.17-.35-.16-.35-.16-.36-.17-.35-.16-.35-.16-.36-.16-.35-.15-.36-.16-.36-.16-.36-.15-.35-.16-.36-.15-.37-.16-.36-.15-.36-.15-.36-.15-.37-.15-.36-.15-.37-.15-.36-.15-.37-.14-.37-.15-.37-.14-.37-.15-.37-.14-.37-.14-.37-.14-.37-.14-.38-.14-.37-.14-.37-.14-.38-.13-.38-.14-.37-.14-.38-.13-.38-.13-.38-.14-.38-.13-.38-.13-.38-.13-.39-.13-.38-.12-.38-.13-.39-.13-.38-.12-.39-.13-.39-.12-.38-.12-.4-.13-.38-.12-.39-.12-.39-.12-.4-.11-.38-.12-.4-.12-.39-.11-.4-.12-.39-.11-.4-.12-.39-.1-.4-.12-.39-.11-.4-.1-.4-.12-.4-.1-.4-.11-.4-.1-.4-.11-.4-.1-.4-.11-.4-.1-.4-.1-.41-.1-.4-.1-.4-.1-.41-.1-.41-.1-.4-.1-.42-.09-.4-.1-.41-.09-.41-.09-.41-.1-.41-.08-.41-.1-.42-.08-.4-.09-.42-.09-.41-.08-.42-.09-.41-.08-.42-.09-.41-.08-.42-.08-.42-.08-.41-.08-.42-.08-.42-.08-.42-.08-.42-.07-.42-.08-.42-.07-.42-.07-.42-.08-.42-.07-.43-.07-.42-.07-.42-.07-.43-.07-.42-.06-.42-.07-.43-.06-.43-.07-.42-.06-.43-.06-.43-.07-.42-.06-.43-.06-.43-.06-.43-.05-.43-.06-.43-.06-.43-.05-.43-.06-.43-.05-.44-.05-.43-.05-.43-.05-.43-.05-.44-.05-.43-.05-.44-.05-.43-.04-.44-.05-.43-.04-.44-.04-.43-.05-.44-.04-.44-.04-.43-.04-.44-.03-.44-.04-.44-.04-.44-.03-.44-.04-.44-.03-.44-.04-.44-.03-.44-.03-.44-.03-.44-.03-.44-.03-.45-.02-.44-.03-.44-.02-.45-.03-.44-.02-.44-.02-.45-.02-.44-.03-.45-.01-.44-.02-.45-.02-.44-.02-.45-.01-.45-.02-.44-.01-.45-.01-.45-.02-.45v-.44l-.02-.45v-.45l-.01-.45-.01-.45v-.45l-.01-.45v-.45l-.01-.45V218.38l.01-.46.01-.45v-.45l.02-.45v-.46l.01-.45.02-.45v-.46l.02-.45.02-.45.01-.46.02-.45.01-.46.02-.45.02-.46.02-.45.01-.27.01-.19.02-.45.03-.46.02-.45.03-.46.02-.46.03-.45.03-.46.03-.45.02-.46.04-.46.03-.45.03-.46.03-.46.04-.46.04-.45.03-.46.04-.46.04-.46.04-.45.04-.46.04-.46.05-.55.06-.56.05-.55.06-.56.05-.55.06-.55.06-.56.07-.55.06-.55.06-.55.07-.56.07-.55.07-.55.07-.55.07-.55.07-.55.08-.55.07-.55.08-.55.08-.55.08-.54.08-.55.08-.55.09-.55.08-.54.09-.55.09-.54.09-.55.09-.54.09-.55.1-.54.09-.54.1-.55.1-.54.1-.54.1-.54.1-.54.1-.54.1-.54.11-.54.1-.54.12-.54.1-.53.12-.54.11-.54.11-.53.12-.54.12-.53.11-.54.12-.53.13-.53.12-.53.12-.54.13-.53.12-.53.13-.53.13-.53.13-.52.13-.53.13-.53.14-.52.13-.53.14-.53.14-.52.14-.52.14-.53.14-.52.14-.52.15-.52.14-.52.15-.52.15-.52.15-.52.15-.51.15-.52.16-.51.15-.52.16-.51.16-.52.16-.5.16-.52.16-.51.16-.51.17-.51.16-.5.17-.52.17-.5.17-.5.17-.51.17-.5.17-.51.18-.5.17-.5.18-.5.18-.5.18-.5.18-.5.18-.5.18-.5.19-.5.18-.48.19-.5.19-.5.19-.48.19-.5.2-.48.18-.5.2-.48.2-.48.2-.5.19-.47.2-.49.2-.48.2-.48.2-.48.21-.48.2-.48.21-.48.21-.48.21-.47.21-.48.21-.47.22-.47.21-.47.22-.47.21-.47.22-.47.22-.46.23-.4.29-.36.34-.31.4-.26.41-.19.45-.11.46-.05 6.8-.17 85.72-2.14 45.72-1.12.52.03zm-47.03 7.6l-82.93 1.5v-.03l-6.86.15-.08.17-.22.46-.2.45-.21.46-.2.46-.22.45-.2.46-.2.46-.2.46-.2.47-.2.46-.2.46-.2.47-.2.47-.2.46-.2.47-.18.47-.2.47-.19.47-.19.48-.19.47-.18.48-.19.47-.18.48-.19.48-.18.47-.18.48-.18.48-.18.49-.18.48-.17.48-.18.48-.17.49-.18.49-.17.48-.17.49-.17.49-.17.49-.16.49-.17.49-.16.5-.16.49-.17.49-.16.5-.16.49-.15.5-.16.5-.16.5-.15.49-.16.5-.15.5-.15.5-.15.5-.15.5-.14.5-.15.51-.14.5-.15.51-.14.51-.14.5-.14.52-.14.5-.13.51-.14.52-.13.5-.14.52-.13.5-.13.52-.13.52-.13.51-.12.52-.13.51-.12.52-.12.51-.13.52-.12.52-.12.52-.11.52-.12.52-.11.52-.12.52-.11.52-.11.52-.11.53-.11.52-.1.52-.11.53-.1.52-.11.53-.1.53-.1.52-.1.53-.1.53-.1.53-.1.53-.09.53-.09.52-.1.54-.08.53-.09.53-.09.53-.08.53-.09.53-.08.54-.08.53-.08.53-.08.54-.08.53-.08.54-.07.53-.08.54-.07.54-.07.53-.07.54-.07.54-.07.54-.06.53-.07.54-.06.54-.06.54-.06.54-.06.54-.06.54-.05.54-.06.54-.04.45-.05.44-.04.45-.04.45-.04.44-.04.45-.04.44-.03.45-.04.44-.04.45-.03.45-.03.44-.04.45-.03.44-.03.45-.03.44-.02.44-.03.45-.03.44-.03.45-.02.44-.01.19-.01.25-.03.45-.02.44-.02.44-.02.45-.02.44-.02.44-.02.45-.01.44-.02.44-.01.44-.02.45v.44l-.02.44-.01.44-.01.44v.44l-.02.44v.44l-.01.44v.88l-.01.44V224.6l.01.44v.44l.02.43v.44l.01.44.01.43.01.44.02.43v.44l.02.43.02.44.01.43.02.44.02.43.01.43.02.44.02.43.02.43.03.43.02.44.02.43.03.43.02.43.03.43.03.43.03.43.02.43.03.43.04.43.03.43.03.42.04.43.03.43.04.43.03.42.04.43.04.42.04.43.04.42.04.43.04.42.05.43.04.42.04.42.05.42.05.43.04.42.05.42.05.42.05.42.05.42.06.42.05.42.05.42.06.42.05.41.06.42.06.42.06.41.06.42.06.41.06.42.06.41.06.42.07.41.06.41.07.41.06.42.07.4.07.42.07.41.07.4.07.42.07.4.07.42.08.4.07.41.08.4.07.41.08.4.08.41.08.4.08.41.08.4.08.4.08.41.08.4.09.4.08.4.09.4.08.4.1.4.08.4.09.4.09.4.1.4.08.39.1.4.09.39.1.4.09.38.1.4.1.39.1.4.09.38.1.4.1.38.1.39.1.39.1.39.11.38.1.39.11.38.1.39.12.38.1.39.11.38.11.38.12.38.1.39.12.38.11.38.12.37.11.38.12.38.12.38.11.37.12.38.12.37.12.38.12.37.12.37.13.37.12.38.13.37.12.36.13.37.12.37.13.37.13.37.13.36.13.37.13.36.13.36.14.37.13.36.14.36.13.36.14.36.13.36.14.36.14.35.14.36.14.35.14.36.14.35.15.36.14.35.14.35.15.35.15.35.14.35.15.35.15.35.15.34.15.35.15.34.15.35.15.34.16.34.15.34.16.34.15.34.16.34.16.34.16.34.15.33.16.34.17.33.16.33.16.34.16.33.17.33.16.33.17.33.16.33.17.32.17.33.17.32.17.33.17.32.17.32.17.32.17.32.18.32.17.32.18.32.17.32.18.31.18.32.07.13 52.18-.93 62.5-1.09 1.48-.02.03-.06.17-.27.17-.27.16-.27.17-.28.16-.27.17-.28.16-.27.16-.28.17-.27.32-.56.32-.56.32-.56.32-.56.31-.57.32-.56.3-.57.32-.58.3-.57.3-.56.01-.02.3-.57.31-.58.3-.58.3-.59.3-.58.3-.6.3-.58.29-.6.29-.59.29-.6.28-.6.29-.6.28-.6.28-.6.28-.61.27-.61.27-.61.28-.62.27-.61.26-.62.27-.62.26-.62.26-.62.26-.63.26-.63.25-.63.25-.63.25-.63.25-.63.25-.64.24-.64.24-.64.24-.64.07-.2.17-.44.24-.65.24-.64.23-.65.24-.65.23-.65.23-.65.22-.65.23-.66.22-.65.22-.66.22-.66.22-.67.21-.66.21-.66.21-.67.2-.67.21-.67.2-.67.2-.67.2-.68.2-.67.19-.68.2-.68.18-.68.19-.68.18-.68.18-.69.18-.68.18-.69.17-.69.18-.69.17-.69.16-.69.17-.7.16-.69.16-.7.16-.7.16-.69.15-.7.15-.7.15-.7.15-.7.14-.7.02-.1.13-.61.14-.7.15-.71.14-.71.13-.7.14-.72.13-.7.13-.72.13-.71.13-.72.12-.7.12-.73.12-.71.12-.72.11-.72.11-.72.11-.72.1-.72.11-.72.1-.72.1-.72.1-.73.1-.72.08-.73.03-.19.07-.53.09-.73.08-.73.09-.73.08-.73.08-.73.08-.73.07-.73.08-.73.07-.73.06-.73.07-.7.04-.5.02-.19.05-.7.06-.69.06-.69.05-.69.05-.7.05-.68.04-.7.04-.69.05-.69.03-.69.04-.7.03-.68.03-.7v-.03l.04-.65.02-.7.03-.68.03-.69.02-.69.02-.69.01-.68.02-.69.01-.69.01-.68.01-.69v-.68l.01-.69V194.95l-.02-.69v-.68l-.02-.68-.01-.68-.02-.68-.02-.68-.02-.68-.03-.68-.02-.67-.03-.68-.03-.68-.03-.67-.04-.68-.04-.67-.04-.67v-.19l-.04-.49-.04-.67-.05-.67-.04-.67-.05-.67-.06-.66-.05-.67-.06-.67-.06-.66-.06-.67-.06-.66-.07-.67-.07-.66-.07-.66-.07-.66-.07-.66-.08-.66-.08-.65-.08-.66-.09-.66-.08-.65-.09-.65-.09-.65-.1-.66-.09-.64-.1-.65-.1-.65-.1-.65-.1-.64-.1-.65-.11-.64-.11-.64-.11-.64-.12-.64-.12-.64-.11-.63-.13-.64-.12-.63-.12-.64-.13-.63-.13-.63-.13-.63-.1-.44-.04-.18-.13-.63-.14-.62-.14-.63-.14-.62-.15-.62-.14-.62-.15-.62-.15-.61-.16-.62-.15-.6-.16-.62-.16-.61-.16-.6-.16-.62-.17-.6-.17-.6-.17-.6-.17-.6-.18-.6-.17-.6-.18-.6-.18-.6-.19-.59-.18-.59-.19-.58-.19-.6-.19-.58-.2-.58-.19-.58-.2-.58-.2-.58-.2-.58-.2-.57-.2-.57-.03-.08-44.26.84z"/><ellipse cx="421.92" cy="70.7" rx="39.06" ry="50.52" fill="#b8b8b8"/><path d="M421.68 21.93h-.23l-.24.01-.24.01h-.11l-.12.01-.24.01-.24.02-.23.02-.24.01-.23.03-.23.02-.24.02-.23.03-.23.03-.23.03-.24.03-.23.03-.23.04-.23.04-.23.03-.23.05-.23.04-.23.04-.22.05-.23.05-.23.05-.22.05-.23.05-.23.06-.22.06-.23.05-.22.07-.22.06-.23.06-.22.07-.22.07-.22.06-.22.08-.22.07-.22.07-.22.08-.22.08-.22.08-.22.08-.22.08-.21.09-.22.09-.22.08-.21.1-.21.09-.22.09-.21.1-.22.09-.2.1-.22.1-.21.1-.21.1-.21.1-.21.11-.2.11-.22.11-.2.11-.21.12-.2.11-.21.12-.2.12-.21.11-.2.13-.2.12-.21.12-.2.13-.2.13-.2.12-.2.13-.2.14-.2.13-.2.13-.2.14-.2.14-.2.14-.19.14-.19.14-.2.15-.19.14-.19.15-.2.15-.18.15-.2.15-.18.15-.19.15-.19.16-.19.16-.18.16-.19.16-.18.16-.19.16-.18.17-.18.16-.18.17-.19.17-.18.17-.18.17-.17.17-.18.18-.18.17-.17.18-.18.18-.17.18-.18.18-.17.18-.17.19-.17.18-.18.19-.16.19-.17.18-.17.2-.17.19-.16.2-.17.18-.1.12-.06.08-.17.2-.16.2-.16.2-.16.2-.16.2-.16.2-.16.2-.16.21-.15.2-.16.22-.15.2-.16.22-.15.21-.15.21-.15.22-.15.21-.15.22-.15.22-.14.22-.15.22-.14.22-.15.22-.14.23-.14.22-.14.23-.14.22-.14.23-.14.23-.13.23-.14.24-.13.23-.14.23-.13.24-.13.23-.13.24-.13.24-.13.24-.12.24-.13.24-.13.24-.12.25-.12.24-.12.25-.12.24-.12.25-.12.25-.12.25-.11.25-.12.25-.11.26-.12.25-.1.26-.12.25-.1.26-.11.26-.11.25-.1.26-.11.26-.1.27-.1.26-.1.26-.1.27-.1.26-.1.27-.1.26-.1.27-.09.27-.09.27-.1.27-.08.27-.09.27-.09.28-.08.27-.09.28-.08.27-.08.28-.08.28-.08.27-.08.28-.08.28-.08.28-.07.28-.07.29-.08.28-.07.28-.07.29-.07.28-.06.29-.07.29-.06.28-.06.3-.07.28-.06.29-.06.29-.05.3-.06.28-.05.3-.06.29-.05.3-.05.29-.05.3-.05.29-.04.3-.05.3-.04.29-.05.3-.04.3-.03.3-.04.3-.04.3-.04.3-.03.3-.03.3-.03.3-.03.31-.03.3-.03.31-.02.3-.02.31-.03.31-.02.3-.02.32-.01.3-.02.31-.01.31-.02.31-.01.31-.01.32v.3l-.02.32v.94l-.01.31v.95l.01.31v.31l.02.32v.31l.02.31.01.31.01.31.02.32.02.3.02.32.02.3.02.31.02.31.03.3.02.31.03.31.03.3.03.31.03.3.03.3.04.31.04.3.03.3.04.3.04.3.04.3.05.3.04.3.05.3.05.3.05.3.05.29.05.3.05.29.05.3.06.28.06.3.06.29.06.29.06.29.06.29.06.28.07.3.06.28.07.28.07.29.07.28.07.29.08.28.07.28.08.28.07.28.08.28.08.28.08.28.08.27.09.28.08.28.09.27.08.27.1.28.08.27.1.27.08.27.1.27.09.27.1.26.1.27.09.26.1.27.1.26.1.26.1.27.1.26.11.26.1.25.11.26.11.26.11.25.11.26.11.25.12.26.11.25.12.25.11.25.12.25.12.24.12.25.12.25.12.24.12.24.12.25.13.24.13.24.12.24.11.2.02.03.13.24.13.24.13.23.13.23.13.24.14.23.13.23.14.23.14.23.13.22.14.23.14.22.14.23.15.22.14.22.14.22.15.22.14.22.15.21.15.22.15.21.14.21.16.21.15.21.15.21.15.21.16.2.15.21.16.2.15.2.16.21.16.2.16.2.16.2.16.2.16.19.16.2.17.18.16.2.17.19.16.18.17.19.17.19.16.18.17.18.17.19.17.18.18.17.17.18.17.18.18.17.17.18.17.17.18.17.18.17.18.17.17.16.18.17.18.16.18.16.18.16.18.16.19.16.18.16.19.15.18.16.19.15.18.15.19.15.18.14.2.15.18.15.19.14.19.14.19.14.2.14.18.14.2.13.19.14.2.13.19.13.19.13.2.13.2.12.19.13.2.12.2.12.19.12.2.12.2.12.2.11.2.12.2.11.2.11.2.11.2.1.2.11.21.1.2.11.2.1.21.1.21.1.2.1.21.1.2.08.22.1.2.09.21.08.21.09.21.09.21.08.21.08.21.08.21.08.21.07.22.08.2.07.22.07.21.07.22.07.21.07.22.06.21.07.22.06.21.06.22.06.22.05.21.06.22.05.22.05.22.05.21.05.22.04.22.05.22.04.22.04.22.04.22.04.22.03.23.04.22.03.22.03.22.03.23.02.22.03.22.02.23.02.22.02.23.02.22.01.23.02h.22l.23.02h.23l.22.01h.46l.22.01H422.38l.23-.01.22-.01.23-.01.23-.01.22-.02.23-.01.22-.02.23-.02.22-.02.22-.03.23-.02.22-.03.22-.02.23-.03.22-.04.22-.03.22-.04.22-.03.22-.04.22-.04.22-.05.22-.04.21-.05.22-.04.22-.05.22-.05.21-.06.22-.05.21-.06.22-.05.21-.06.22-.07.21-.06.21-.06.22-.07.21-.07.21-.07.21-.07.21-.07.21-.08.21-.07.21-.08.21-.08.21-.08.2-.09.22-.08.2-.09.21-.08.2-.1.21-.08.2-.1.21-.1.2-.09.2-.1.21-.1.2-.1.2-.1.2-.1.2-.1.2-.11.2-.11.2-.11.2-.11.2-.12.2-.11.2-.12.2-.12.19-.12.2-.12.19-.12.2-.12.19-.13.19-.13.19-.12.2-.13.18-.14.2-.13.18-.13.2-.14.18-.14.19-.14.18-.14.19-.14.19-.14.18-.15.19-.14.18-.15.18-.15.18-.15.19-.15.18-.16.18-.15.18-.16.18-.16.17-.15.18-.17.18-.16.17-.16.18-.17.17-.16.18-.17.17-.17.17-.17.17-.17.18-.17.16-.18.17-.17.17-.18.17-.18.17-.18.16-.18.17-.18.16-.19.17-.18.16-.19.16-.19.16-.18.16-.2.16-.19.16-.19.16-.2.15-.19.16-.2.16-.2.15-.2.15-.2.16-.2.15-.2.15-.2.15-.2.15-.21.14-.21.15-.21.15-.21.14-.21.15-.21.14-.22.14-.21.14-.22.14-.22.14-.21.14-.22.14-.22.14-.23.13-.22.01-.02.13-.2.13-.23.13-.22.14-.23.13-.23.13-.23.13-.23.12-.23.13-.23.13-.24.12-.23.12-.24.13-.23.12-.24.12-.24.12-.24.12-.24.11-.25.12-.24.12-.24.1-.25.12-.24.11-.25.12-.25.1-.25.11-.25.11-.25.1-.25.11-.26.1-.25.1-.25.11-.26.1-.26.1-.25.1-.26.1-.26.1-.26.09-.26.1-.27.08-.26.1-.26.09-.27.08-.27.1-.26.08-.27.08-.27.09-.27.08-.27.08-.27.08-.27.08-.27.08-.28.08-.27.07-.28.07-.27.08-.28.07-.28.07-.27.07-.28.07-.28.06-.28.07-.28.06-.29.06-.28.06-.28.06-.29.06-.28.06-.29.06-.28.05-.29.05-.29.06-.29.05-.29.04-.28.05-.3.05-.29.04-.29.05-.3.04-.28.04-.3.04-.3.04-.29.04-.3.03-.29.03-.3.04-.3.03-.3.03-.3.03-.29.02-.3.03-.3.02-.3.03-.3.02-.3.02-.3.01-.31.02-.3.02-.3v-.31l.02-.3.01-.31.01-.31v-.3l.02-.31V69.78l-.01-.31-.01-.31-.01-.31-.01-.3-.01-.31-.02-.3-.01-.31-.02-.3-.02-.31-.02-.3-.02-.3-.02-.3-.03-.31-.02-.3-.03-.3-.03-.3-.03-.3-.03-.3-.03-.3-.04-.3-.03-.3-.04-.29-.04-.3-.04-.29-.04-.3-.04-.29-.05-.29-.04-.3-.05-.28-.05-.3-.05-.28-.05-.3-.05-.28-.05-.29-.06-.29-.05-.28-.06-.29-.06-.28-.06-.29v-.03l-.06-.25-.06-.28-.07-.29-.06-.28-.07-.28-.06-.28-.07-.28-.07-.28-.07-.27-.08-.28-.07-.28-.08-.27-.07-.28-.08-.27-.08-.27-.08-.27-.08-.28-.08-.27-.08-.27-.09-.26-.08-.27-.1-.27-.08-.26-.09-.27-.1-.26-.08-.27-.1-.26-.09-.26-.1-.26-.1-.26-.09-.26-.1-.26-.1-.25-.1-.26-.08-.2-.02-.06-.1-.25-.1-.25-.11-.26-.1-.25-.11-.25-.11-.25-.1-.25-.12-.25-.1-.24-.12-.25-.11-.24-.12-.25-.11-.24-.12-.24-.1-.22-.02-.02-.11-.24-.12-.24-.12-.24-.12-.24-.12-.24-.12-.23-.12-.24-.13-.23-.12-.23-.13-.23-.12-.23-.13-.23-.13-.23-.13-.23-.13-.23-.02-.02-.11-.2-.13-.23-.13-.22-.14-.22-.13-.23-.13-.22-.14-.22-.14-.22-.13-.21-.14-.22-.14-.22-.14-.21-.14-.21-.15-.21-.14-.21-.14-.21-.15-.21-.14-.21-.15-.2-.15-.21-.15-.2-.15-.2-.15-.2-.15-.2-.15-.2-.16-.2-.15-.2-.16-.2-.15-.19-.16-.2-.06-.07-.1-.11-.15-.2-.16-.19-.15-.19-.16-.19-.16-.19-.16-.18-.16-.19-.16-.18-.16-.19-.17-.18-.16-.18-.17-.18-.16-.17-.17-.18-.16-.18-.17-.17-.17-.17-.17-.17-.17-.17-.17-.17-.18-.17-.17-.17-.17-.16-.18-.16-.17-.17-.18-.16-.18-.15-.18-.16-.17-.16-.18-.15-.18-.16-.19-.15-.18-.15-.18-.15-.18-.15-.19-.14-.18-.15-.19-.14-.18-.14-.2-.14-.18-.14-.19-.14-.19-.14-.19-.13-.19-.14-.19-.13-.2-.13-.18-.13-.2-.13-.2-.12-.19-.13-.2-.12-.19-.12-.2-.12-.2-.12-.19-.11-.2-.12-.2-.12-.2-.12-.2-.11-.2-.12-.2-.1-.2-.12-.2-.1-.2-.11-.2-.1-.2-.11-.21-.1-.2-.1-.21-.1-.21-.1-.21-.1-.2-.1-.22-.08-.2-.1-.22-.09-.2-.08-.22-.09-.21-.08-.22-.09-.2-.08-.22-.08-.22-.08-.21-.07-.22-.08-.22-.07-.22-.07-.21-.07-.22-.07-.22-.06-.22-.07-.22-.06-.23-.06-.22-.06-.22-.06-.23-.05-.22-.06-.22-.05-.14-.03-.1-.02-.22-.05-.22-.05-.23-.05-.23-.05-.23-.04-.23-.05-.23-.04-.23-.04-.23-.03-.23-.04-.23-.03-.24-.03-.23-.03-.23-.03-.24-.03-.24-.02-.23-.02-.24-.02h-.02l-.22-.02h-.24zm.5-3.51l.28-.01.26-.02h.27l.27-.01h.26l.27-.01h1.06l.27.02h.26l.27.02.26.01.27.02.26.02.27.02.26.02.1.01.16.02.27.03.26.03.26.04.26.03.27.04.26.04.26.04.26.05.26.05.26.04.26.06.26.05.26.05.26.06.25.06.26.06.26.07.25.06.26.07.26.07.25.07.26.07.25.08.26.08.25.07.25.09.26.08.25.09.25.08.25.1.25.08.25.1.25.1.25.09.25.1.25.1.24.1.25.1.25.11.24.11.25.11.24.11.24.12.24.12.24.12.24.13.24.12.24.13.24.13.24.13.23.13.24.13.23.14.24.14.23.14.23.14.23.14.23.14.23.15.23.15.23.15.23.15.23.15.22.16.23.16.22.15.23.16.22.16.22.17.23.16.22.17.22.17.21.17.22.17.22.17.22.18.21.17.22.18.21.18.21.18.22.18.2.19.22.18.2.19.22.19.2.19.2.19.22.2.2.19.2.2.2.2.2.2.21.2.2.2.2.2.2.2.2.21.2.2.11.14.08.08.19.21.19.22.19.22.18.21.19.22.19.23.18.22.18.22.19.23.18.22.18.23.18.23.18.23.17.23.18.23.18.24.17.23.17.24.17.24.18.24.16.24.17.24.17.24.17.25.16.24.17.25.16.25.16.25.16.25.14.22.02.03.16.26.15.25.15.26.16.26.15.26.15.26.15.26.14.26.15.27.15.26.14.27.14.26.14.27.14.27.14.27.01.03.13.25.13.27.14.28.13.27.13.28.13.27.12.28.13.28.13.29.12.28.12.28.12.28.12.29.12.29.12.28.02.05.1.24.11.3.11.28.11.3.11.29.11.29.1.3.11.29.1.3.1.3.1.29.1.3.1.3.1.3.1.3.1.3.09.3.09.31.09.3.09.31.08.3.09.31.08.31.09.31.08.31.08.31.08.31.07.32.08.31.07.31.07.32.08.31.07.32.07.32.05.27.01.04.07.32.06.32.06.32.06.32.06.32.06.33.05.32.06.32.05.33.05.32.05.33.05.32.04.33.05.33.04.33.04.33.04.33.04.33.04.33.03.33.04.33.03.33.03.34.03.33.03.33.02.34.03.33.02.34.02.34.02.33.02.34.01.34.02.34.01.34.01.34.01.34v.34l.02.34v2.06l-.01.34v.34l-.02.34v.34l-.02.34-.02.34-.01.34-.02.34-.02.34-.02.34-.02.33-.03.34-.02.33-.03.34-.03.33-.03.34-.03.33-.04.33-.03.33-.04.34-.04.33-.04.33-.04.33-.04.32-.05.33-.04.33-.05.33-.05.32-.05.33-.05.32-.06.33-.05.32-.06.32-.06.32-.06.32-.06.33-.06.31-.07.32-.06.32-.07.32-.07.32-.07.31-.07.32-.08.31-.07.31-.08.32-.08.3-.07.32-.09.31-.08.3-.08.32-.09.3-.08.31-.09.3-.09.31-.09.3-.1.31-.08.3-.1.3-.1.3-.1.3-.1.3-.1.3-.1.3-.1.3-.1.3-.1.29-.12.29-.1.3-.11.28-.11.3-.12.28-.11.3-.12.28-.11.29-.12.28-.12.29-.12.28-.12.28-.12.29-.13.28-.12.28-.13.28-.13.27-.13.28-.13.28-.13.27-.13.27-.14.28-.13.27-.14.27-.14.27-.14.26-.14.27-.14.27-.14.26-.15.27-.14.26-.15.26-.15.26-.15.26-.15.26-.15.25-.15.26-.15.26-.16.25-.14.23-.01.02-.16.25-.16.25-.16.25-.16.25-.16.24-.17.25-.16.24-.17.24-.16.24-.17.24-.17.24-.17.24-.17.24-.18.23-.17.23-.17.24-.18.23-.18.23-.17.23-.18.22-.18.23-.19.22-.18.23-.18.22-.19.22-.18.22-.19.21-.18.22-.2.22-.18.2-.2.22-.19.21-.19.21-.2.2-.19.22-.2.2-.19.2-.2.2-.2.2-.2.2-.2.2-.2.2-.2.2-.2.19-.21.2-.2.18-.21.19-.21.19-.21.18-.2.19-.22.18-.21.18-.21.18-.22.18-.21.18-.22.17-.21.17-.22.18-.22.17-.22.17-.22.16-.22.17-.22.16-.22.16-.23.16-.22.16-.23.16-.22.16-.23.15-.23.15-.23.15-.23.15-.23.15-.23.15-.23.14-.23.14-.24.14-.23.14-.24.14-.24.13-.23.14-.24.13-.24.13-.24.12-.24.13-.24.13-.24.12-.25.12-.24.12-.24.11-.25.12-.24.11-.25.11-.25.11-.25.11-.24.1-.25.11-.25.1-.25.1-.26.1-.25.1-.25.1-.26.09-.25.09-.25.09-.26.08-.26.09-.25.08-.26.08-.26.08-.26.07-.26.08-.26.07-.26.07-.26.07-.26.07-.27.06-.26.06-.26.06-.27.06-.26.06-.27.05-.26.05-.27.05-.27.05-.26.05-.27.04-.27.04-.27.04-.27.04-.27.03-.27.04-.27.03-.27.02-.27.03-.28.02-.27.03-.27.02-.28.01-.27.02-.27.01-.28.01-.27.01h-.28l-.28.01h-1.1l-.28-.02h-.27l-.28-.02-.27-.01-.28-.02-.27-.02-.27-.02-.27-.02-.28-.03-.27-.02-.27-.03-.27-.04-.27-.03-.27-.04-.27-.04-.27-.04-.27-.04-.26-.04-.27-.05-.27-.05-.26-.05-.27-.05-.26-.06-.26-.06-.27-.06-.26-.06-.26-.06-.26-.07-.26-.07-.26-.07-.26-.07-.26-.07-.26-.08-.26-.08-.26-.08-.25-.08-.26-.08-.25-.09-.26-.09-.25-.08-.25-.1-.25-.09-.25-.1-.26-.1-.24-.1-.25-.1-.25-.1-.25-.1-.25-.1-.24-.12-.25-.1-.24-.12-.25-.12-.24-.11-.24-.12-.24-.12-.24-.12-.24-.12-.24-.13-.24-.13-.23-.13-.24-.13-.24-.13-.23-.13-.23-.14-.24-.14-.23-.13-.23-.15-.23-.14-.23-.14-.23-.15-.23-.15-.22-.15-.23-.15-.22-.15-.23-.15-.22-.16-.22-.16-.23-.16-.22-.16-.22-.16-.21-.16-.22-.17-.22-.17-.21-.17-.22-.17-.21-.17-.22-.17-.2-.18-.22-.17-.21-.18-.2-.18-.22-.18-.2-.19-.21-.18-.2-.19-.21-.18-.2-.2-.2-.18-.2-.2-.2-.19-.2-.2-.2-.19-.2-.2-.2-.2-.2-.2-.19-.2-.2-.2-.18-.2-.2-.2-.19-.22-.18-.2-.2-.22-.18-.2-.19-.22-.18-.21-.18-.22-.19-.22-.18-.21-.18-.22-.18-.22-.18-.23-.17-.22-.18-.22-.18-.23-.17-.23-.17-.23-.17-.23-.17-.23-.17-.23-.17-.23-.17-.24-.17-.23-.16-.24-.17-.24-.16-.24-.16-.24-.16-.24-.16-.25-.16-.24-.15-.25-.16-.24-.16-.25-.15-.25-.15-.25-.15-.25-.15-.26-.15-.25-.15-.25-.15-.26-.14-.26-.14-.26-.15-.26-.14-.26-.14-.26-.14-.26-.14-.26-.01-.04-.12-.23-.14-.26-.13-.27-.14-.27-.13-.27-.13-.27-.13-.27-.12-.27-.13-.28-.13-.27-.12-.28-.12-.27-.12-.28-.12-.28-.12-.28-.12-.28-.12-.28-.11-.28-.12-.28-.1-.29-.12-.28-.1-.29-.12-.28-.1-.3-.1-.28-.11-.29-.1-.3-.1-.28-.1-.3-.1-.29-.1-.3-.1-.29-.1-.3-.09-.29-.1-.3-.08-.3-.1-.3-.08-.3-.09-.3-.08-.3-.09-.3-.08-.3-.08-.3-.08-.31-.08-.3-.07-.31-.08-.31-.07-.31-.08-.3-.07-.32-.07-.3-.06-.32-.07-.31-.07-.31-.06-.32-.06-.31-.06-.32-.06-.31-.06-.32-.06-.31-.05-.32-.05-.32-.06-.32-.05-.32-.05-.32-.04-.32-.05-.32-.04-.32-.05-.33-.04-.32-.04-.32-.03-.33-.04-.32-.04-.33-.03-.33-.03-.32-.03-.33-.03-.33-.03-.33-.02-.33-.03-.33-.02-.33-.02-.33-.02-.33-.02-.33-.01-.34-.02-.33-.01-.33-.01-.34-.01-.33v-.34l-.02-.33v-2.37l.01-.33.01-.34.01-.33.01-.34.02-.34.01-.33.02-.33.02-.34.02-.33.02-.33.02-.33.03-.33.02-.33.03-.33.03-.33.03-.33.03-.33.04-.33.03-.32.04-.33.04-.32.04-.33.04-.32.05-.33.04-.32.05-.32.05-.32.04-.32.06-.32.05-.32.05-.32.06-.32.05-.32.06-.31.06-.32.06-.31.07-.32.06-.3.07-.32.06-.31.07-.32.07-.3.07-.31.08-.31.07-.31.08-.3.08-.31.07-.31.08-.3.09-.3.08-.31.08-.3.09-.3.09-.3.08-.3.1-.3.08-.3.1-.3.1-.3.09-.29.1-.3.1-.29.09-.3.1-.28.1-.3.1-.28.11-.3.1-.28.11-.29.11-.28.11-.29.11-.28.11-.29.12-.28.11-.28.12-.28.12-.28.12-.28.12-.27.12-.28.12-.27.12-.28.13-.27.12-.27.13-.27.13-.27.13-.27.13-.27.13-.27.14-.26.13-.27.14-.26.14-.26.14-.27.13-.26.15-.26.14-.25.14-.26.14-.26.15-.25.15-.25.14-.26.15-.25.15-.25.16-.25.15-.24.15-.25.16-.25.15-.24.16-.24.16-.24.16-.25.16-.23.16-.24.16-.24.16-.24.17-.23.16-.23.17-.23.17-.23.17-.23.17-.23.17-.23.17-.22.17-.23.18-.22.17-.22.18-.22.18-.22.17-.22.18-.22.18-.21.19-.21.18-.22.07-.08.11-.13.19-.2.18-.21.19-.21.19-.2.18-.21.2-.2.18-.2.2-.2.19-.2.2-.2.19-.2.2-.19.19-.19.2-.19.2-.19.2-.19.2-.19.2-.18.2-.18.2-.19.2-.18.2-.18.21-.17.2-.18.21-.17.21-.18.21-.17.21-.17.21-.17.21-.16.21-.17.22-.16.21-.16.22-.16.21-.16.22-.16.22-.16.22-.15.21-.15.22-.15.23-.15.22-.15.22-.15.22-.14.23-.14.22-.14.23-.14.22-.14.23-.13.23-.14.23-.13.23-.13.23-.13.23-.13.23-.12.23-.13.23-.12.24-.12.23-.12.24-.11.23-.12.24-.11.24-.11.24-.11.23-.1.24-.11.24-.1.24-.1.25-.1.24-.1.24-.1.24-.1.25-.1.24-.08.25-.09.24-.09.25-.08.25-.09.25-.08.24-.08.25-.07.25-.08.25-.07.25-.07.26-.07.25-.07.25-.07.25-.06.26-.06.25-.06.25-.06.26-.06.26-.05.25-.05.26-.05.26-.05.25-.04.26-.05.26-.04.26-.04.26-.03.26-.04.26-.03.26-.03.26-.03.26-.03.26-.02.27-.03.26-.02.26-.02.27-.01.26-.02h.27l.26-.02h.53l.27-.01h.54l.24-.02h.02z"/></g></svg>