<svg viewBox="0 0 560 340" xmlns="http://www.w3.org/2000/svg" fill-rule="evenodd" clip-rule="evenodd" stroke-linejoin="round" stroke-miterlimit="1.41"><path fill="none" d="M0 0h560v340H0z"/><ellipse cx="90.85" cy="291.26" rx="19.38" ry="13.29" fill="#b8b8b8"/><path d="M90.61 279.21l-.15.01h-.08l-.24.01-.24.01-.23.02-.24.01-.23.02-.24.02-.23.02-.23.03-.23.02-.23.03-.23.03-.23.03-.22.03-.23.04-.22.03-.22.04-.22.04-.22.04-.22.05-.22.04-.22.05-.21.05-.22.05-.21.05-.21.06-.21.05-.21.06-.21.06-.2.06-.21.06-.2.07-.2.06-.2.07-.2.07-.2.07-.2.07-.2.08-.19.07-.19.08-.19.08-.18.08-.2.08-.18.08-.18.08-.18.09-.1.05-.08.03-.18.1-.17.08-.18.1-.17.08-.17.1-.17.09-.17.1-.16.1-.17.09-.16.1-.16.1-.16.1-.15.1-.16.1-.15.1-.15.11-.15.11-.14.1-.14.12-.15.1-.14.12-.13.11-.14.11-.13.12-.13.11-.13.12-.13.11-.12.12-.12.12-.12.12-.12.12-.12.12-.11.12-.11.12-.11.12-.1.12-.11.13-.1.12-.1.13-.1.12-.1.13-.09.12-.09.13-.08.13-.09.13-.08.13-.08.13-.08.13-.07.13-.08.13-.07.13-.07.13-.06.13-.06.13-.07.13-.05.14-.06.13-.05.13-.05.14-.05.13-.05.14-.04.13-.04.14-.04.13-.04.14-.03.14-.02.06-.01.07-.02.07-.01.07-.02.06-.01.07-.01.07-.01.07-.01.07-.01.07-.01.07-.01.06-.01.07-.01.07v.07l-.01.07-.01.07v.07l-.01.07v.14l-.01.07V291.54l.01.07v.07l.01.07v.07l.02.07v.07l.01.06.01.07.01.07.01.07.01.07.01.07.01.06.02.07v.07l.02.07.02.07.01.06.02.07.01.07.02.06.02.07.02.07.01.06.04.14.04.13.05.13.04.13.05.13.05.14.06.12.05.13.06.13.06.13.06.13.07.13.07.13.07.12.07.13.07.12.08.13.08.12.08.13.08.12.09.13.09.12.09.12.09.12.1.12.1.12.1.12.1.12.1.12.1.11.11.12.11.12.12.11.11.11.12.12.12.11.12.11.12.11.13.11.13.11.13.1.13.11.13.11.14.1.14.11.14.1.13.1h.01l.15.1.14.1.15.1.15.1.15.1.16.1.15.09.16.1.16.09.16.09.16.09.17.08.16.1.17.08.17.08.17.09.18.08.17.08.18.08.17.08.18.07.19.08.18.07.18.07.19.07.19.07.19.07.19.07.19.06.2.07.19.06.2.06.19.06.2.05.2.06.2.05.2.05.2.06.21.04.2.05.22.05.2.04.22.04.2.04.22.04.21.04.22.03.21.04.22.03.22.03.22.03.22.02.22.03.22.02.22.02.22.02.23.02.22.01.23.01.22.01.23.01.23.01h1.62l.23-.01.23-.01.22-.02.23-.01.23-.02.22-.02.23-.02.22-.02.23-.02.22-.03.22-.02.22-.03.22-.04.21-.03.22-.03.22-.04.21-.04.21-.04.22-.04.2-.04.22-.05.2-.05.21-.04.2-.05.21-.06.2-.05.2-.06.2-.05.2-.06.2-.06.2-.06.2-.06.19-.07.2-.06.18-.07.19-.07.19-.07.18-.07.19-.07.18-.08.18-.08.18-.07.18-.08.17-.08.18-.08.17-.08.17-.09.17-.08.17-.09.16-.09.17-.08.16-.1.16-.08.16-.1.15-.09.16-.1.15-.09.15-.1.12-.08.03-.01.15-.1.14-.1.14-.1.14-.1.14-.1.14-.1.14-.1.13-.11.13-.1.13-.11.12-.1.13-.12.12-.1.12-.11.12-.11.11-.11.12-.11.1-.12.12-.1.1-.12.1-.11.11-.12.1-.11.1-.12.1-.11.08-.12.1-.11.08-.12.1-.12.07-.12.09-.11.08-.12.07-.12.08-.12.07-.12.07-.12.07-.12.06-.12.07-.12.06-.12.05-.12.06-.12.05-.12.06-.12.05-.12.04-.12.05-.13.04-.12.04-.12.04-.12.03-.12.04-.13.03-.12.01-.06.02-.06.01-.06.01-.06.01-.07.02-.06v-.06l.02-.06v-.06l.02-.06v-.07l.02-.06v-.06l.01-.06v-.07l.01-.06.01-.06v-.06l.01-.06v-.13l.01-.06V290.94l-.01-.06v-.06l-.01-.06v-.07l-.01-.06v-.06l-.02-.06v-.06l-.01-.07-.01-.06-.01-.06-.01-.06-.01-.06-.01-.06-.01-.06-.02-.07v-.06l-.02-.06-.02-.06-.01-.06-.02-.06-.01-.06-.02-.06-.03-.12-.04-.12-.04-.12-.04-.12-.04-.12-.05-.12-.04-.12-.05-.12-.06-.12-.05-.12-.06-.12-.05-.11-.07-.12-.06-.12-.05-.09-.01-.03-.07-.11-.07-.12-.07-.12-.08-.11-.07-.12-.08-.12-.08-.11-.08-.12-.09-.11-.09-.11-.08-.12-.1-.11-.09-.11-.1-.12-.1-.1-.1-.12-.1-.11-.1-.11-.11-.1-.11-.12-.1-.1h-.01l-.12-.12-.1-.1-.13-.11-.12-.1-.12-.12-.12-.1-.12-.1-.13-.11-.04-.03-.09-.07-.13-.11-.13-.1-.14-.1-.13-.11-.14-.1-.14-.1-.14-.1-.04-.03-.1-.07-.15-.1-.15-.1-.14-.1-.15-.1-.16-.1-.15-.1-.16-.1-.16-.09-.16-.1-.16-.08-.16-.1-.17-.08-.17-.1-.14-.07-.02-.01-.17-.1-.17-.09-.18-.09-.17-.09-.18-.09-.17-.08-.18-.09-.18-.08-.19-.09-.18-.08-.19-.08-.19-.08-.19-.08-.19-.07-.2-.08-.19-.07-.2-.07-.2-.07-.2-.07-.2-.07-.2-.07-.2-.06-.2-.07-.16-.04-.06-.02-.2-.07-.21-.06-.22-.07-.2-.06-.22-.06-.22-.06-.21-.06-.22-.06-.22-.05-.22-.05-.23-.06-.22-.05-.23-.04-.22-.05-.23-.04-.2-.04h-.03l-.23-.05-.24-.05-.23-.04-.23-.04-.24-.04-.24-.03-.16-.03-.08-.01h-.24zm.5-2.53l.27-.03.26-.02.26-.03.26-.02.26-.02.26-.02h.04l.22-.01.26-.01h.51l.26-.01h.52l.25.01H95l.25.02.26.01.25.02.25.01.25.02.26.02.25.03h.07l.18.03.24.03.25.04.24.04.25.05.24.04.25.05.24.05.24.05.24.05.24.05.23.06.24.06.24.06.23.06.23.07.24.07.23.07.22.07.23.07.23.08.23.07.22.08.22.09h.04l.18.08.22.1.22.09.21.1.21.1.21.1.21.1.21.1.2.1.21.11.2.1.2.12.2.11.2.12.15.08.05.03.2.13.18.12.2.13.18.12.18.13.19.13.18.14.13.09.05.04.17.14.17.14.18.14.16.14.17.15.17.15.16.14.16.15.01.02.14.14.16.15.15.16.15.16.15.16.14.16.14.16.14.17.14.17.13.16.14.17.13.18.12.17.13.17.12.18.12.18.11.18.11.18.11.18.11.19.1.18.03.05.07.14.1.19.1.19.09.19.09.2.08.19.08.2.08.19.08.2.07.2.06.2.07.2.06.2.06.2.05.2.03.12.02.1.03.1.02.1.02.11.02.1.02.11.02.1.02.11.02.1.01.11.02.11.01.1.02.11.01.1.01.11.01.11.01.1.01.12.01.1v.11l.01.1v.12l.01.1v.87l-.01.1v.12l-.02.1v.11l-.01.1-.01.12-.02.1v.1l-.02.12-.02.1-.01.1-.02.11-.01.1-.02.11-.02.1-.02.11-.02.1-.02.11-.03.1-.02.1-.02.11-.03.1-.03.1-.02.12-.06.2-.06.2-.07.2-.06.2-.07.2-.08.2-.08.2-.08.19-.08.19-.09.2-.09.18-.1.19-.09.19-.1.18-.1.19-.1.18-.12.18-.1.18-.12.18-.12.18-.12.17-.12.18-.13.17-.12.17-.13.17-.14.16-.13.17-.14.16-.14.16-.14.16-.15.16-.15.16-.15.15-.15.16-.15.15-.16.15-.16.15-.16.15-.16.14-.17.14-.17.15-.17.14-.17.13-.17.14-.18.14-.18.13-.18.13-.18.13-.18.13-.19.12-.19.13-.19.12-.19.12-.03.02-.16.1-.2.12-.2.11-.2.12-.2.1-.2.12-.2.1-.2.11-.22.1-.2.11-.22.1-.2.1-.22.1-.22.1-.22.09-.21.09-.23.09-.22.09-.22.08-.22.09-.23.08-.23.08-.23.08-.23.07-.23.08-.23.07-.24.07-.23.07-.24.07-.24.06-.24.06-.24.06-.24.06-.24.06-.25.05-.24.06-.25.05-.25.05-.25.04-.25.05-.25.04-.25.04-.25.04-.26.03-.25.04-.26.03-.26.03-.25.02-.26.03-.26.02-.26.02-.27.02-.26.01-.26.02-.27.01-.26.01h-.27l-.26.01H90.5l-.2-.01-.26-.01-.27-.01-.26-.02-.27-.01-.26-.02-.26-.02-.26-.03-.26-.02-.26-.03-.26-.03-.26-.03-.26-.03-.25-.04-.26-.04-.25-.04-.25-.04-.25-.05-.25-.04-.25-.05-.25-.05-.24-.06-.25-.05-.24-.06-.24-.06-.25-.06-.24-.06-.23-.07-.24-.06-.24-.07-.23-.07-.23-.07-.24-.08-.23-.07-.23-.08-.22-.08-.23-.08-.22-.09-.23-.08-.22-.1-.22-.08-.21-.1-.22-.08-.22-.1-.2-.1-.22-.1-.21-.1-.21-.1-.2-.1-.21-.1-.2-.11-.2-.1-.2-.12-.2-.11-.2-.11-.2-.12-.19-.12-.19-.11-.19-.12-.18-.13-.19-.12-.18-.12-.18-.13-.18-.13-.18-.13-.17-.13h-.01l-.16-.13-.18-.14-.16-.13-.17-.14-.16-.14-.17-.14-.16-.14-.15-.15-.16-.14-.15-.15-.15-.14-.15-.15-.15-.15-.14-.16-.14-.15-.14-.16-.14-.15-.13-.16-.13-.16-.13-.16-.13-.16-.12-.17-.13-.16-.11-.17-.12-.17-.11-.17-.11-.17-.11-.17-.1-.17-.11-.18-.1-.17-.1-.18-.09-.18-.09-.18-.09-.18-.08-.18-.08-.18-.08-.19-.08-.18-.07-.19-.07-.19-.07-.18-.06-.2-.06-.19-.05-.19-.06-.19-.05-.19-.02-.1-.02-.1-.02-.1-.02-.1-.02-.1-.02-.09-.02-.1-.02-.1-.02-.1-.01-.1-.02-.1v-.1l-.02-.1-.01-.1-.02-.1v-.1l-.01-.1-.01-.1-.01-.1v-.1l-.01-.1v-.1l-.01-.1V290.86l.01-.1.01-.1v-.1l.02-.1v-.1l.02-.1v-.1l.02-.1.01-.1.02-.1.01-.1.02-.1.01-.1.02-.1.02-.1.02-.1.02-.1.02-.1.02-.09.02-.1.03-.1.02-.09.02-.1.03-.1.06-.18.05-.19.06-.19.07-.19.07-.18.07-.19.07-.18.08-.18.08-.18.08-.18.09-.18.08-.18.1-.18.1-.17.09-.17.1-.18.1-.17.1-.16.12-.17.1-.17.12-.16.12-.17.12-.16.12-.16.12-.16.13-.16.13-.15.13-.16.14-.15.13-.15.14-.15.14-.15.15-.15.14-.14.15-.15.15-.14.15-.14.16-.14.15-.14.16-.13.16-.14.17-.13.16-.13.17-.13.17-.13.17-.13.17-.12.18-.12.18-.13.18-.12.18-.12.18-.11.18-.12.2-.11.18-.11.19-.11.2-.11.18-.11.2-.1.2-.1.2-.11.2-.1.2-.1.2-.1.2-.1.21-.08.09-.04.12-.06.21-.09.22-.08.2-.09.22-.08.22-.09.22-.08.22-.08.22-.07.22-.08.22-.07.23-.07.22-.07.23-.07.23-.06.23-.07.23-.06.23-.06.24-.06.23-.05.24-.06.23-.05.24-.05.24-.05.24-.04.24-.05.25-.04.24-.04.25-.04.24-.03.25-.04.25-.03.25-.03.25-.03.25-.02.25-.03.25-.02.25-.02.26-.01.25-.02h.26l.26-.02h.25l.26-.01h1.05l.08-.02.17-.02z"/><ellipse cx="136.79" cy="291.37" rx="19.38" ry="13.29" fill="#b8b8b8"/><path d="M136.55 279.33h-.24l-.24.02h-.23l-.24.02-.23.02-.24.02-.23.02-.23.02-.23.02-.23.03-.23.02-.23.03-.23.03-.22.04-.23.03-.22.04-.23.04-.22.04-.22.04-.22.04-.22.05-.21.05-.22.05-.21.05-.21.05-.22.05-.2.06-.22.06-.2.06-.2.06-.21.06-.2.06-.2.07-.2.07-.2.07-.2.07-.2.07-.2.07-.19.08-.19.07-.19.08-.19.08-.18.08-.19.08-.18.09-.18.08-.11.06-.07.03-.18.09-.18.09-.17.09-.17.09-.18.1-.16.08-.17.1-.17.1-.16.1-.16.1-.16.1-.16.1-.16.1-.15.1-.15.1-.15.11-.15.1-.14.11-.15.11-.14.11-.14.11-.14.12-.13.1-.13.12-.14.12-.12.11-.13.12-.13.11-.12.12-.12.12-.12.12-.11.12-.11.12-.12.12-.1.13-.11.12-.1.12-.1.13-.1.12-.1.13-.1.12-.09.13-.09.13-.09.12-.08.13-.08.13-.08.13-.08.13-.08.13-.07.13-.07.13-.07.13-.07.13-.06.14-.06.13-.06.13-.05.14-.06.13-.05.13-.05.14-.04.13-.05.14-.04.13-.04.14-.03.13-.04.14-.01.07-.02.06-.01.07-.02.07v.07l-.02.07-.02.07v.06l-.02.07v.07l-.02.07v.07l-.02.07v.07l-.01.07v.07l-.01.07v.06l-.01.07v.07l-.01.07V291.65l.01.07v.07l.01.07v.07l.01.07.01.07v.07l.02.07v.07l.02.06v.07l.02.07.01.07.01.07.02.06.01.07.01.07.02.07.01.06.02.07.02.07.01.07.02.06.02.07.04.13.04.13.04.14.05.13.05.13.05.13.05.13.06.13.06.13.06.13.06.13.06.12.07.13.07.13.07.12.08.13.08.13.07.12.09.12.08.13.09.12.08.12.1.13.09.12.1.12.09.12.1.12.1.11.1.12.11.12.11.12.11.11.11.12.12.11.12.11.12.12.12.1.12.12.13.1.13.12.13.1.13.11.13.1.14.11.14.1.14.1.13.1v.01l.15.1.15.1.15.1.15.1.15.1.15.1.16.09.15.09.16.1.16.08.17.1.16.08.17.09.17.08.17.09.17.08.17.08.18.08.17.08.18.08.18.08.18.07.19.08.18.07.19.07.18.07.2.07.18.06.2.07.19.06.2.06.19.06.2.06.2.06.2.05.2.06.2.05.2.05.2.05.22.05.2.04.21.05.21.04.21.04.22.04.21.03.21.04.22.03.22.03.21.03.22.03.22.03.22.02.22.02.23.02.22.02.22.02.23.01.22.02h.23l.23.02h.23l.23.01h1.15l.23-.01h.23l.23-.02.23-.01.23-.02.23-.01.22-.02.23-.02.22-.02.22-.03.22-.02.23-.03.22-.03.21-.03.22-.03.22-.04.21-.04.22-.03.21-.04.21-.05.21-.04.21-.04.21-.05.21-.05.2-.05.21-.05.2-.06.2-.05.2-.06.2-.06.2-.06.2-.06.2-.06.19-.06.19-.07.19-.07.19-.07.19-.07.18-.07.18-.07.19-.07.18-.08.18-.08.18-.08.17-.08.18-.08.17-.08.17-.08.17-.09.17-.08.16-.09.17-.09.16-.09.16-.09.15-.1.16-.08.16-.1.15-.1.15-.09.12-.08.03-.02.14-.1.15-.1.14-.1.14-.1.14-.1.14-.1.13-.1.14-.1.13-.11.12-.1.13-.11.12-.11.13-.1.12-.12.11-.1.12-.12.11-.1.11-.12.11-.11.11-.12.1-.1.1-.12.1-.12.1-.11.1-.12.1-.11.08-.12.1-.12.08-.11.08-.12.08-.12.08-.12.08-.12.07-.11.08-.12.07-.12.06-.12.07-.12.06-.12.06-.12.06-.12.06-.12.05-.13.05-.12.05-.12.05-.12.04-.12.05-.12.04-.12.03-.13.04-.12.03-.12.04-.13.01-.06.01-.06.02-.06.01-.06.01-.06.02-.06v-.06l.02-.07v-.06l.02-.06v-.06l.01-.06.01-.07v-.06l.02-.06v-.13l.01-.06v-.06l.01-.06v-.13l.01-.06V291.06l-.01-.06v-.07l-.01-.06v-.06l-.01-.06-.01-.07v-.06l-.02-.06v-.06l-.01-.06-.01-.06-.01-.07-.01-.06-.01-.06-.02-.06v-.06l-.02-.06-.01-.06-.02-.06-.01-.06-.02-.07-.01-.06-.02-.05-.03-.13-.04-.12-.04-.12-.04-.12-.04-.12-.05-.12-.05-.12-.05-.12-.05-.12-.05-.11-.06-.12-.06-.12-.06-.12-.06-.12-.05-.08-.02-.03-.06-.12-.07-.12-.07-.11-.08-.12-.07-.12-.08-.11-.08-.12-.08-.11-.09-.12-.09-.1-.09-.12-.09-.12-.1-.1-.09-.12-.1-.11-.1-.11-.1-.11-.1-.11-.11-.11-.11-.11-.1-.1-.01-.01-.12-.11-.11-.1-.12-.12-.12-.1-.12-.11-.12-.1-.13-.11-.12-.1-.04-.03-.1-.08-.12-.1-.13-.1-.14-.11-.13-.1-.14-.1-.14-.1-.14-.1-.04-.03-.1-.08-.15-.1-.15-.1-.15-.1-.15-.1-.15-.1-.15-.1-.16-.09-.16-.1-.16-.09-.16-.09-.16-.09-.17-.09-.17-.09-.14-.07-.03-.02-.16-.09-.17-.1-.18-.08-.17-.1-.18-.08-.18-.09-.17-.08-.19-.09-.18-.08-.18-.08-.2-.08-.18-.08-.19-.08-.2-.08-.19-.07-.2-.08-.19-.07-.2-.07-.2-.07-.2-.07-.2-.06-.2-.07-.21-.06-.15-.05-.06-.02-.2-.06-.22-.07-.2-.06-.22-.07-.21-.06-.22-.06-.22-.06-.21-.05-.22-.06-.23-.05-.22-.05-.22-.05-.23-.05-.23-.04-.22-.05-.2-.03-.03-.01-.23-.05-.24-.04-.23-.04-.24-.04-.23-.04-.24-.04-.16-.02-.08-.02-.24.01zm.5-2.53l.26-.03.26-.03.26-.02.27-.03.26-.02.26-.02h.26l.25-.01.26-.01h1.29l.25.01.26.01.25.02.26.01.25.02.25.02.25.02.25.02.07.01.18.02.25.04.25.04.24.04.25.04.24.05.24.04.24.05.25.05.23.05.24.06.24.06.24.06.23.06.24.06.23.06.23.07.23.07.23.07.23.08.23.07.22.08.23.08.22.08.03.01.19.08.22.1.21.09.22.1.21.09.21.1.21.1.2.1.22.1.2.12.2.1.2.12.2.1.2.12.15.1.05.02.2.12.18.13.19.12.19.13.18.13.19.13.18.13.12.1.05.04.18.13.17.14.17.15.17.14.17.14.16.15.17.15.16.15.01.01.14.14.16.16.15.16.15.15.14.16.15.17.14.16.14.17.14.16.13.17.13.17.13.17.13.17.12.18.13.18.11.17.12.18.11.18.11.19.1.18.11.19.03.05.07.13.1.2.1.18.09.2.08.19.09.2.08.19.08.2.07.2.08.2.06.2.07.2.06.2.06.2.05.2.03.11.02.1.03.11.02.1.02.1.02.11.02.1.02.11.02.1.02.11.01.1.02.12.01.1.02.1v.11l.02.11.01.1.01.12v.1l.02.1v.12l.01.1v.22l.01.1v.77l-.01.1-.01.11v.11l-.02.1v.12l-.02.1v.1l-.02.12-.01.1-.02.1-.01.11-.02.1-.02.11-.01.1-.02.11-.02.1-.02.11-.03.1-.02.11-.02.1-.03.1-.02.11-.03.1-.03.11-.05.2-.06.2-.07.2-.06.2-.08.2-.07.2-.08.2-.08.2-.08.19-.1.19-.08.19-.1.19-.1.18-.1.19-.1.18-.1.19-.1.18-.12.18-.11.18-.12.17-.12.18-.12.17-.13.17-.12.17-.14.17-.13.17-.13.16-.14.17-.14.16-.15.16-.14.16-.15.15-.15.16-.15.15-.16.16-.15.15-.16.14-.16.15-.17.15-.16.14-.17.14-.17.14-.17.14-.18.14-.17.13-.18.13-.18.14-.18.13-.19.12-.18.13-.2.12-.18.13-.2.12-.02.02-.17.1-.2.11-.19.12-.2.11-.2.11-.2.11-.2.11-.21.1-.2.11-.22.1-.2.1-.22.1-.21.1-.22.1-.22.1-.22.08-.22.1-.22.08-.22.09-.23.08-.22.08-.23.08-.23.08-.23.08-.23.07-.23.08-.24.07-.23.07-.24.06-.24.07-.24.06-.24.06-.24.06-.25.06-.24.05-.25.05-.24.05-.25.05-.25.05-.25.04-.25.04-.25.04-.26.04-.25.04-.25.03-.26.03-.26.03-.26.03-.26.02-.26.03-.26.02-.26.02-.26.01-.26.02h-.27l-.26.02H136.25l-.26-.01-.27-.02-.26-.01-.27-.02-.26-.02-.26-.02-.26-.02-.27-.03-.25-.02-.26-.03-.26-.03-.26-.04-.25-.04-.26-.03-.25-.04-.25-.05-.25-.04-.25-.05-.25-.05-.25-.05-.24-.05-.25-.06-.24-.05-.25-.06-.24-.06-.24-.06-.24-.07-.23-.07-.24-.07-.23-.07-.24-.07-.23-.07-.23-.08-.23-.08-.22-.08-.23-.08-.22-.08-.23-.09-.22-.09-.22-.09-.22-.09-.21-.09-.22-.1-.21-.09-.21-.1-.21-.1-.21-.1-.2-.1-.21-.1-.2-.11-.2-.11-.2-.11-.2-.11-.2-.12-.2-.11-.19-.12-.19-.12-.19-.12-.18-.12-.19-.12-.18-.13-.18-.12-.18-.13-.18-.13-.17-.13-.02-.01-.16-.13-.17-.13-.17-.14-.16-.13-.17-.14-.16-.14-.16-.15-.16-.14-.15-.14-.15-.15-.15-.15-.15-.15-.15-.15-.14-.15-.14-.16-.14-.15-.14-.16-.13-.16-.14-.16-.13-.16-.12-.16-.13-.16-.12-.17-.12-.16-.11-.17-.12-.17-.1-.17-.11-.17-.11-.18-.1-.17-.1-.18-.1-.17-.1-.18-.08-.18-.1-.18-.07-.18-.09-.19-.08-.18-.07-.19-.07-.18-.07-.2-.07-.18-.06-.19-.06-.19-.06-.2-.05-.18-.05-.2-.02-.1-.02-.1-.03-.09-.02-.1-.02-.1-.02-.1-.01-.1-.02-.09-.02-.1-.01-.1-.02-.1-.01-.1-.01-.1-.02-.1v-.1l-.02-.1v-.1l-.01-.1-.01-.1v-.1l-.01-.1v-.1l-.01-.1V290.97l.01-.1v-.1l.02-.1v-.1l.01-.1.01-.1.02-.1v-.1l.02-.1.01-.1.02-.1.01-.1.02-.1.02-.1.02-.1.02-.1.02-.09.02-.1.02-.1.02-.09.02-.1.03-.1.02-.09.03-.1.05-.18.06-.2.06-.18.07-.19.06-.19.07-.18.08-.18.08-.19.08-.18.08-.18.08-.18.1-.17.09-.18.09-.17.1-.18.1-.17.1-.17.1-.17.12-.17.1-.16.12-.17.12-.16.12-.16.12-.16.12-.16.13-.16.13-.15.13-.16.13-.15.14-.15.14-.15.14-.15.14-.15.15-.14.15-.15.15-.14.15-.14.16-.14.15-.14.16-.14.16-.13.17-.13.16-.13.17-.13.17-.13.17-.13.17-.12.18-.13.18-.12.17-.12.19-.12.18-.12.18-.11.19-.12.19-.1.19-.12.19-.1.2-.11.19-.1.2-.11.2-.1.2-.1.2-.1.2-.1.2-.1.21-.09.09-.03.12-.06.21-.09.21-.09.22-.08.21-.09.22-.08.22-.08.21-.08.22-.08.23-.07.22-.07.22-.08.23-.06.23-.07.23-.07.23-.06.23-.06.23-.06.23-.06.24-.06.23-.05.24-.05.24-.05.24-.05.24-.05.24-.04.25-.04.24-.04.24-.04.25-.04.25-.03.24-.03.25-.03.25-.03.25-.03.26-.02.25-.02.25-.02.26-.02.25-.01.26-.01.25-.01.26-.01h.26l.26-.01h.87l.17-.03z"/><path d="M175.97 289.3c17.13-22.6 29.46-52.47 34.75-84.14 5-29.97 3.4-59.72-4.53-84.39l-140.63 1.61c-10.8 19.38-18.52 41.86-22.42 65.16-6.42 38.45-1.91 76.1 12.35 103.15l120.48-1.38z" fill="#c2c2c2"/><path d="M177 290.74l-.24.13-.24.1-.26.07-.27.02-2.5.04-64.2 1-53.77.83-.35-.02-.35-.08-.32-.13-.3-.18-.28-.22-.23-.27-.19-.3-.17-.32-.17-.32-.17-.33-.17-.32-.17-.33-.16-.33-.17-.33-.16-.33-.17-.33-.16-.33-.16-.34-.17-.33-.15-.33-.16-.34-.16-.34-.16-.34-.16-.33-.15-.34-.16-.34-.15-.35-.16-.34-.15-.34-.15-.34-.15-.35-.15-.35-.15-.34-.15-.35-.14-.35-.15-.35-.14-.35-.15-.35-.14-.35-.14-.35-.14-.36-.14-.35-.14-.36-.14-.35-.14-.36-.13-.36-.14-.36-.13-.36-.14-.36-.13-.36-.13-.36-.13-.36-.13-.37-.13-.36-.13-.37-.13-.36-.12-.37-.13-.37-.12-.36-.13-.37-.12-.37-.12-.37-.12-.37-.12-.38-.12-.37-.12-.37-.11-.38-.12-.37-.11-.38-.12-.38-.1-.37-.12-.38-.11-.38-.11-.38-.11-.38-.11-.38-.1-.38-.11-.38-.1-.39-.11-.38-.1-.39-.11-.38-.1-.39-.1-.39-.1-.38-.1-.4-.1-.38-.1-.39-.1-.39-.09-.4-.1-.38-.08-.4-.1-.39-.09-.4-.09-.39-.09-.4-.09-.39-.08-.4-.09-.39-.09-.4-.08-.4-.08-.4-.09-.4-.08-.4-.08-.4-.08-.4-.08-.4-.08-.4-.07-.4-.08-.4-.08-.41-.07-.4-.07-.41-.08-.4-.07-.42-.07-.4-.07-.41-.06-.4-.07-.42-.07-.4-.06-.42-.07-.4-.06-.42-.07-.41-.06-.42-.06-.4-.06-.42-.06-.42-.06-.41-.05-.42-.06-.41-.05-.42-.06-.42-.05-.41-.05-.42-.05-.42-.05-.42-.05-.42-.05-.42-.05-.42-.05-.42-.04-.42-.05-.42-.04-.42-.04-.43-.04-.42-.04-.42-.04-.43-.04-.42-.04-.43-.04-.43-.03-.42-.04-.43-.03-.42-.03-.43-.04-.43-.03-.43-.03-.43-.03-.43-.02-.43-.03-.43-.03-.43-.02-.43-.03-.43-.02-.43-.02-.44-.03-.43-.02-.43-.02-.44-.01-.43-.02-.43-.02-.44-.01-.43-.02-.44-.01-.44-.01-.43-.01-.44-.02-.44v-.43l-.01-.44-.01-.44v-.44l-.01-.44v-.44l-.01-.44v-3.97l.01-.44.01-.45.01-.44v-.44l.02-.45.01-.44.01-.45.01-.44.02-.45.01-.44.02-.45.02-.44.01-.45.02-.45.02-.44.02-.45.02-.45.03-.45.02-.45.03-.45.02-.44.03-.45.03-.45.03-.45.03-.45.03-.45.03-.45.03-.45.04-.45.03-.45.04-.45.03-.45.04-.45.04-.46.04-.45.04-.45.04-.45.04-.45.05-.46.04-.45.05-.45.04-.45.05-.46.05-.45.05-.45.05-.46.05-.45.06-.46.05-.45.04-.37.01-.09.06-.45.06-.45.05-.46.06-.45.06-.46.06-.45.07-.46.06-.45.06-.46.07-.46.06-.45.07-.46.07-.45.07-.46.07-.45.07-.46.07-.46.07-.45.08-.46.09-.55.1-.56.09-.55.1-.55.09-.55.1-.55.1-.55.1-.56.1-.55.1-.55.1-.55.11-.55.11-.54.11-.55.11-.55.12-.55.11-.55.11-.54.12-.55.12-.55.12-.54.12-.55.12-.54.12-.55.13-.54.12-.55.13-.54.13-.54.13-.54.13-.55.13-.54.14-.54.13-.54.14-.54.14-.54.14-.54.14-.53.14-.54.15-.54.14-.54.15-.53.14-.54.15-.53.15-.54.16-.53.15-.53.15-.54.16-.53.15-.53.16-.53.16-.53.16-.53.17-.53.16-.53.16-.52.17-.53.17-.53.17-.52.17-.53.17-.52.17-.53.17-.52.18-.52.18-.52.17-.52.18-.52.18-.52.18-.52.19-.52.18-.52.19-.51.18-.52.2-.51.18-.52.2-.51.18-.51.2-.51.2-.51.19-.51.2-.51.2-.51.2-.51.2-.5.2-.51.2-.5.2-.51.2-.5.21-.5.21-.51.21-.5.21-.5.21-.5.22-.5.21-.5.21-.5.22-.49.22-.5.22-.49.22-.49.22-.5.22-.48.23-.5.22-.48.23-.49.23-.49.22-.48.23-.49.24-.48.23-.49.23-.48.24-.48.23-.48.24-.48.24-.48.24-.47.24-.48.24-.47.24-.48.25-.47.24-.47.25-.47.25-.47.25-.47.25-.47.25-.47.25-.46.25-.47.26-.45.24-.37.3-.33.33-.28.38-.23.4-.16.43-.11.44-.04 7.62-.11 86.5-1.28 46.5-.65.54.03.52.12.5.2.46.28.41.35.35.4.28.46.2.5.2.58.18.6.19.6.18.6.18.6.18.6.18.6.17.6.18.61.16.61.17.61.17.62.16.6.16.62.16.62.15.62.16.62.15.62.14.63.15.62.14.63.14.63.14.63.14.63.13.63.13.64.13.63.13.64.12.64.12.64.12.64.12.64.11.65.12.64.1.65.11.65.1.65.11.65.05.31.05.34.1.66.1.65.08.66.1.66.08.66.08.66.09.66.08.66.07.66.08.67.07.66.07.67.07.67.07.67.06.67.06.67.06.67.06.68.05.67.05.68.05.67.05.68.04.68.04.68.04.68.04.68.03.69.03.68.03.68.03.69.02.69.03.68.02.7.01.68.02.69.01.69.01.7v.68l.01.7V173.9l-.02.69v.7l-.02.7-.02.7-.02.7-.02.7-.03.7-.03.7-.03.7-.03.7-.03.7-.04.7-.04.71-.04.7-.04.71-.05.71-.05.7-.05.71-.05.71-.06.7-.06.72-.06.7-.06.71-.07.71-.07.71-.07.71-.07.71-.08.71-.08.71-.08.72-.08.7-.01.1-.08.62-.09.71-.09.71-.1.71-.1.72-.1.7-.1.72-.1.72-.1.7-.12.72-.1.71-.12.72-.12.71-.06.36-.06.36-.13.75-.14.75-.13.75-.14.75-.14.75-.15.75-.14.75-.15.75-.16.75-.15.74-.16.75-.15.7v.05l-.17.74-.17.74-.17.74-.18.74-.17.74-.18.74-.18.74-.19.73-.18.74-.19.73-.19.74-.2.73-.19.73-.2.73-.2.73-.2.72-.2.73-.21.73-.21.72-.22.72-.21.72-.22.73-.22.71-.22.72-.01.04-.22.68-.23.71-.24.71-.23.71-.24.71-.25.71-.24.7-.25.71-.24.7-.25.7-.26.71-.25.7-.26.7-.26.7-.26.69-.27.7-.26.68-.27.7-.27.68-.28.69-.27.69-.28.68-.28.68-.28.68-.29.68-.28.68-.3.67-.28.68-.3.67-.3.67-.29.67-.3.66-.3.67-.3.66-.31.66-.3.66-.32.66-.31.66-.32.65-.31.65-.32.65-.32.65-.32.64-.18.36-.15.29-.33.64-.34.63-.33.64-.34.63-.34.63-.34.63-.35.63-.34.63-.35.62-.35.62-.35.62-.36.61-.35.62-.36.6-.36.62-.36.6-.36.61-.37.6-.37.6-.36.6-.38.6-.37.6-.37.58-.38.6-.38.58-.38.58-.38.59-.39.57-.38.58-.39.58-.39.57-.39.57-.14.2-.25.36-.4.56-.4.56-.4.56-.4.56-.41.55-.41.55-.4.54-.42.55-.41.54-.41.54-.42.53-.42.54-.42.53-.42.52-.1.13-.32.4-.17.2-.2.17zm-18.35-166.18l-83.7.68v-.04l-7.66.09-.17.3-.25.46-.24.45-.24.45-.25.46-.24.45-.24.46-.24.46-.23.46-.24.45-.24.47-.23.46-.23.46-.24.46-.23.47-.23.46-.23.47-.22.47-.23.47-.22.47-.23.47-.22.47-.22.47-.22.48-.22.47-.22.48-.22.48-.22.47-.21.48-.22.48-.2.48-.22.48-.21.49-.21.48-.2.48-.21.49-.21.48-.2.5-.2.48-.21.49-.2.49-.2.49-.2.49-.2.49-.2.5-.19.49-.2.5-.19.49-.19.5-.19.49-.19.5-.18.5-.2.5-.18.5-.18.5-.18.5-.18.5-.18.5-.18.5-.18.51-.18.5-.17.52-.18.5-.17.51-.17.5-.17.52-.17.5-.17.52-.17.5-.16.52-.17.51-.16.52-.16.51-.16.52-.16.51-.16.52-.16.51-.15.52-.16.52-.15.52-.15.51-.15.52-.15.52-.15.52-.14.53-.15.52-.14.52-.15.52-.14.53-.14.52-.14.52-.13.53-.14.52-.13.53-.14.53-.13.53-.13.52-.13.53-.13.53-.12.53-.13.53-.12.53-.13.53-.12.53-.12.53-.12.53-.11.53-.12.54-.12.53-.1.53-.12.54-.11.53-.11.54-.1.53-.12.54-.1.53-.1.54-.1.53-.1.54-.1.54-.1.54-.1.53-.1.54-.1.54-.09.54-.07.45-.08.44-.07.44-.07.45-.07.44-.07.45-.07.44-.07.44-.07.45-.07.44-.06.45-.07.44-.06.44-.06.45-.07.44-.06.44-.06.45-.05.44-.06.44-.01.09-.05.35-.06.45-.05.44-.05.44-.06.44-.05.45-.05.44-.05.44-.05.44-.05.44-.04.44-.05.44-.05.44-.04.44-.04.45-.05.44-.04.44-.04.44-.04.43-.04.44-.03.44-.04.44-.03.44-.04.44-.03.44-.04.44-.03.43-.03.44-.03.44-.03.44-.02.43-.03.44-.03.44-.02.43-.02.44-.03.43-.02.44-.02.43-.02.44-.02.43-.02.44-.01.43-.02.44-.02.43-.01.43-.01.44-.02.43v.43l-.02.43v.43l-.02.44v.86l-.01.43v.43l-.01.43V224.74l.02.43v.85l.02.42v.43l.02.42.01.43.01.42.02.42.01.43.02.42.01.42.02.42.02.42.02.42.02.42.02.42.02.42.03.42.02.42.02.42.03.42.03.41.02.42.03.42.03.41.03.42.04.41.03.42.03.41.04.42.03.4.04.42.03.41.04.42.04.4.04.42.04.4.04.42.05.4.04.41.05.41.04.41.05.4.04.41.05.41.05.4.05.41.05.4.06.41.05.4.05.4.06.4.05.41.06.4.06.4.06.4.06.4.06.4.06.4.06.4.06.4.07.39.06.4.07.4.07.38.07.4.06.4.07.39.07.39.08.39.07.4.07.38.08.4.07.38.08.39.08.39.07.38.08.4.08.38.08.38.09.39.08.38.08.38.09.39.08.38.09.38.09.38.08.38.1.38.08.38.1.38.09.37.09.38.1.38.09.37.1.38.09.37.1.37.1.37.1.38.1.37.1.37.1.37.1.36.1.37.1.37.11.37.1.36.11.37.11.36.11.36.11.37.11.36.11.36.12.36.1.36.12.36.12.36.11.35.12.36.12.35.12.36.12.35.12.36.12.35.12.35.13.35.12.35.12.35.13.35.13.35.13.34.12.35.13.34.13.35.14.34.13.34.13.34.13.34.14.34.14.34.13.34.14.34.14.33.14.34.14.33.14.34.14.33.14.33.15.33.14.33.15.33.14.33.15.33.15.32.15.33.15.32.15.33.15.32.15.32.15.32.16.32.15.32.16.32.16.31.15.32.16.32.03.04 53.54-.4 63.1-.46h1.55l.27-.4.37-.54.38-.55.37-.55.37-.55.36-.55.37-.55.36-.56.37-.56.36-.56.35-.57.36-.56.35-.57.36-.57.22-.37.13-.2.35-.58.35-.58.35-.58.34-.58.35-.58.34-.59.34-.58.34-.6.33-.58.34-.6.33-.6.33-.6.33-.6.32-.6.33-.6.32-.6.32-.62.32-.6.32-.62.31-.61.31-.62.31-.62.31-.62.3-.62.31-.63.3-.62.3-.63.3-.63.3-.64.29-.63.3-.63.28-.64.13-.29.16-.35.3-.64.28-.64.29-.64.28-.65.28-.64.28-.65.28-.65.28-.65.27-.65.27-.66.27-.65.27-.66.26-.66.27-.66.26-.66.26-.67.25-.66.26-.67.25-.67.25-.67.25-.67.24-.67.25-.68.24-.67.24-.68.23-.68.24-.68.23-.68.23-.69.23-.68.22-.69.22-.68.23-.7.21-.68.22-.7.21-.69.22-.69.2-.7.21-.69.2-.7.2-.7.2-.7.2-.66v-.04l.2-.7.2-.7.2-.7.2-.7.19-.7.19-.71.18-.71.19-.7.18-.72.18-.7.18-.72.17-.71.18-.71.17-.72.16-.71.17-.72.16-.72.16-.71.16-.72.16-.72.15-.72.15-.72.15-.72.14-.73.01-.04.14-.68.14-.72.15-.73.13-.72.14-.73.14-.73.13-.72.13-.73.12-.73.13-.73.12-.73.12-.73.05-.34.06-.35.11-.7.1-.68.11-.7.1-.68.1-.7.1-.68.1-.7.1-.68.09-.7.09-.68.09-.7.08-.68.07-.6.01-.09.08-.69.08-.68.08-.7.07-.68.08-.69.07-.68.06-.69.07-.68.06-.69.06-.68.06-.69.06-.68.05-.68.05-.69.05-.68.04-.68.05-.68.04-.68.04-.69.03-.68.04-.67.03-.68.03-.68.03-.68.02-.68.03-.67.02-.68.01-.67.02-.68.01-.67.01-.67.01-.68V172.45l.01-.67V168.44l-.02-.67-.01-.66-.01-.67-.02-.66-.02-.66-.02-.66-.02-.66-.03-.66-.03-.66-.03-.66-.03-.66-.04-.65-.03-.66-.04-.65-.05-.65-.04-.65-.05-.66-.05-.65-.05-.64-.05-.65-.06-.65-.06-.64-.06-.65-.06-.64-.06-.64-.07-.64-.07-.64-.07-.64-.08-.64-.07-.63-.08-.63-.09-.64-.08-.63-.09-.63-.08-.63-.1-.63-.04-.32-.05-.3-.1-.63-.09-.62-.1-.62-.1-.63-.1-.61-.1-.62-.12-.62-.1-.61-.12-.62-.12-.61-.11-.61-.12-.61-.13-.6-.12-.61-.13-.6-.13-.61-.13-.6-.13-.6-.14-.6-.13-.6-.14-.6-.15-.59-.14-.59-.15-.59-.15-.59-.15-.58-.15-.59-.16-.58-.16-.58-.16-.58-.16-.58-.17-.57-.17-.58-.14-.48-45.05.4z"/><path d="M95.04 121.33s.72 14.76-11.37 33.71c-30.14 47.24-39 26.87-39 26.87-5.12 19.93-10.93 62.68 10.36 109.27 38.03 4.55 79.93 4.05 120.89-1.21 22.79-33.14 31.88-67.56 35.37-103.67-23.5-7.26-40.77-21.65-45.18-64.18-4.42-.36-4.07-.46-10.64-1.46l2.08 34.45c-17.92-.96-35.2-.4-52.13.81 0 0-.56-32.42 2.44-35.02 3-2.6-12.82.43-12.82.43z" fill="#008fd7"/><clipPath id="a"><path d="M95.04 121.33s.72 14.76-11.37 33.71c-30.14 47.24-39 26.87-39 26.87-5.12 19.93-10.93 62.68 10.36 109.27 38.03 4.55 79.93 4.05 120.89-1.21 22.79-33.14 31.88-67.56 35.37-103.67-23.5-7.26-40.77-21.65-45.18-64.18-4.42-.36-4.07-.46-10.64-1.46l2.08 34.45c-17.92-.96-35.2-.4-52.13.81 0 0-.56-32.42 2.44-35.02 3-2.6-12.82.43-12.82.43z"/></clipPath><g clip-path="url(#a)"><path d="M93.74 156.82a510.4 510.4 0 0177.12-.94c.98 25.69-1.06 49.36-6.17 70.96a442.43 442.43 0 01-81.4 2.2c1.18-25.73 4.47-49.86 10.45-72.22z" fill="#008fd7"/><clipPath id="b"><path d="M93.74 156.82a510.4 510.4 0 0177.12-.94c.98 25.69-1.06 49.36-6.17 70.96a442.43 442.43 0 01-81.4 2.2c1.18-25.73 4.47-49.86 10.45-72.22z"/></clipPath><g clip-path="url(#b)"><path d="M110.56 181.44l10.6-.42c1.39-.05 2.66.06 3.8.33 1.15.26 2.11.67 2.9 1.2a5.24 5.24 0 011.77 1.96c.4.77.55 1.64.47 2.6-.07.71-.2 1.36-.4 1.93-.2.57-.5 1.1-.91 1.6-.41.5-.95.98-1.6 1.44-.66.46-1.47.93-2.44 1.4v.08a8.6 8.6 0 012.46.66c.73.33 1.34.76 1.83 1.3.48.53.84 1.15 1.07 1.86a6.76 6.76 0 01-.68 5.2 8.13 8.13 0 01-2.06 2.35c-.85.67-1.87 1.21-3.03 1.62-1.17.4-2.45.64-3.85.7l-12.27.48 2.34-26.3zm3.36 11.66l5.63-.22c.88-.04 1.68-.2 2.4-.47a5.88 5.88 0 001.84-1.12 5.31 5.31 0 001.76-3.61 4.65 4.65 0 00-.25-2.08 3.4 3.4 0 00-1.22-1.56 5.92 5.92 0 00-2.25-.94c-.92-.2-2.04-.27-3.36-.22l-3.65.14-.9 10.08zm-1.11 12.53l4.78-.19c1.28-.05 2.4-.22 3.37-.5a8.12 8.12 0 002.44-1.12 4.97 4.97 0 002.13-3.71c.08-.83.01-1.6-.19-2.3-.2-.71-.58-1.32-1.13-1.81a5.6 5.6 0 00-2.26-1.15c-.94-.26-2.11-.37-3.53-.31l-4.64.18-.97 10.9zM153.53 179.76l-.15 1.7-12.83.5-.84 9.4 9.28-.37-.15 1.7-9.28.36-1.2 13.5-4.42.17 2.34-26.29 17.25-.67z" fill="none"/><path d="M228.28 153.53h10.5c1.38 0 2.65.16 3.82.47 1.16.31 2.15.75 2.98 1.31a6.29 6.29 0 011.94 2.02c.46.79.7 1.65.7 2.6a7.4 7.4 0 01-.23 1.91c-.15.56-.41 1.08-.77 1.56-.36.49-.85.94-1.46 1.37-.61.43-1.38.87-2.3 1.3v.08c.92.15 1.76.4 2.51.75.76.36 1.4.81 1.93 1.36a5.83 5.83 0 011.66 4.29c0 .98-.22 1.9-.65 2.77a6.7 6.7 0 01-1.83 2.24 8.88 8.88 0 01-2.87 1.5c-1.13.36-2.38.54-3.77.54h-12.16v-26.07zm4.38 11.74h5.57a6.8 6.8 0 002.34-.38c.69-.25 1.27-.6 1.74-1.04.46-.44.82-.96 1.06-1.56.25-.6.37-1.25.37-1.96 0-.77-.15-1.46-.43-2.08a4.06 4.06 0 00-1.35-1.6 6.74 6.74 0 00-2.32-1.02c-.94-.24-2.06-.36-3.37-.36h-3.61v10zm0 12.42h4.73c1.28 0 2.38-.12 3.32-.36a6.98 6.98 0 002.32-1.02 4.1 4.1 0 001.35-1.58c.3-.62.44-1.3.44-2.03 0-.83-.13-1.6-.39-2.3a4.44 4.44 0 00-1.3-1.85 6.5 6.5 0 00-2.33-1.22c-.96-.3-2.14-.45-3.54-.45h-4.6v10.81zM270.86 153.53v1.69h-12.71v9.32h9.19v1.68h-9.2v13.39h-4.37v-26.08h17.09z" fill="#fff" fill-rule="nonzero" stroke="#fff" stroke-width="2.65" transform="matrix(1.00913 -.03941 -.08977 1.00824 -106.02 35.64)"/></g><path d="M93.74 156.82a510.4 510.4 0 0177.12-.94c.98 25.69-1.06 49.36-6.17 70.96a442.43 442.43 0 01-81.4 2.2c1.18-25.73 4.47-49.86 10.45-72.22z" fill="none" stroke="#000" stroke-width="2.5" stroke-linecap="round" stroke-miterlimit="1.5"/><path d="M103.8 164.15c1.47-.2 2.85.86 3.06 2.39a2.74 2.74 0 01-2.29 3.13 2.75 2.75 0 01-3.06-2.4 2.74 2.74 0 012.28-3.12zM161.26 161.83c1.48-.2 2.86.86 3.07 2.39a2.74 2.74 0 01-2.29 3.13 2.76 2.76 0 01-3.06-2.4 2.74 2.74 0 012.28-3.12z" fill="#ffc800" stroke="#000" stroke-width="2.5" stroke-linecap="round" stroke-miterlimit="1.5"/></g><path d="M95.04 121.33s.72 14.76-11.37 33.71c-30.14 47.24-39 26.87-39 26.87-5.12 19.93-10.93 62.68 10.36 109.27 38.03 4.55 79.93 4.05 120.89-1.21 22.79-33.14 31.88-67.56 35.37-103.67-23.5-7.26-40.77-21.65-45.18-64.18-4.42-.36-4.07-.46-10.64-1.46l2.08 34.45c-17.92-.96-35.2-.4-52.13.81 0 0-.56-32.42 2.44-35.02 3-2.6-12.82.43-12.82.43z" fill="none" stroke="#000" stroke-width="2.5" stroke-linecap="round" stroke-miterlimit="1.5"/><path d="M206.56 120.13c.43-2.23.74-4.48.9-6.76 2.64-35.25-26.77-67.38-65.62-71.7C103 37.35 69.32 62.46 66.7 97.71c-.6 8.04.48 16.19 3.18 24.03l136.69-1.6z" fill="#c2c2c2"/><clipPath id="c"><path d="M206.56 120.13c.43-2.23.74-4.48.9-6.76 2.64-35.25-26.77-67.38-65.62-71.7C103 37.35 69.32 62.46 66.7 97.71c-.6 8.04.48 16.19 3.18 24.03l136.69-1.6z"/></clipPath><g clip-path="url(#c)"><path d="M112.03 94.7c-1.08.82-1.67 1.68-1.77 2.56-.52 4.7 12.89 8.95 29.91 9.51 17.03.56 31.26-2.8 31.78-7.49.12-1.07-.5-2.16-1.84-3.2l-58.08-1.37z" fill="#191919"/><clipPath id="d"><path d="M112.03 94.7c-1.08.82-1.67 1.68-1.77 2.56-.52 4.7 12.89 8.95 29.91 9.51 17.03.56 31.26-2.8 31.78-7.49.12-1.07-.5-2.16-1.84-3.2l-58.08-1.37z"/></clipPath><g clip-path="url(#d)"><path d="M121.57 97.81c.03 2.92 8.42 5.5 18.94 5.84 10.78.35 19.8-1.77 20.12-4.74v-.18l-39.06-.92z" fill="#fff"/></g><path d="M129.37 81.73c-.26-7.71-5.43-14.16-11.94-14.88-6.95-.78-12.88 5.26-13.25 13.46-.02.46-.02.92 0 1.38l25.2.04z" fill="#191919"/><clipPath id="e"><path d="M129.37 81.73c-.26-7.71-5.43-14.16-11.94-14.88-6.95-.78-12.88 5.26-13.25 13.46-.02.46-.02.92 0 1.38l25.2.04z"/></clipPath><g clip-path="url(#e)"><path d="M115.55 79c.43-3.76.2-6.7-.53-6.77-.8-.09-1.88 3.14-2.43 7.22l-.1.76 3.06-1.2z" fill="#fff"/></g><path d="M170.52 83c-.25-7.29-5.15-13.39-11.3-14.07-6.56-.73-12.18 4.97-12.52 12.73-.02.43-.02.87 0 1.3l23.82.04z" fill="#191919"/><clipPath id="f"><path d="M170.52 83c-.25-7.29-5.15-13.39-11.3-14.07-6.56-.73-12.18 4.97-12.52 12.73-.02.43-.02.87 0 1.3l23.82.04z"/></clipPath><g clip-path="url(#f)"><path d="M157.05 80.4c.42-3.78.08-6.72-.79-6.81-.94-.1-2.14 3.11-2.7 7.19l-.09.76 3.58-1.15z" fill="#fff"/></g></g><path d="M208.07 121.02l-.17.25-.22.2-.24.18-.27.13-.3.08-.29.02-1.55.03-39.81.74-95.32 1.72-.42-.02-.21-.05-.19-.04-.38-.15-.36-.21-.32-.27-.27-.3-.23-.36-.16-.38-.13-.37-.13-.38-.13-.39-.13-.38-.12-.39-.12-.38-.12-.39-.11-.38-.12-.39-.1-.39-.11-.38-.11-.39-.1-.39-.1-.39-.1-.39-.1-.38-.1-.4-.08-.38-.1-.4-.08-.38-.08-.4-.08-.39-.08-.39-.07-.39-.08-.4-.07-.39-.07-.39-.06-.39-.07-.4-.06-.39-.05-.4-.06-.39-.05-.39-.05-.4-.05-.39-.05-.4-.04-.39-.04-.4-.04-.39-.03-.4-.04-.39-.03-.4-.03-.39-.02-.4-.02-.39-.02-.4-.02-.4-.02-.39-.01-.4-.01-.39v-.4l-.01-.4v-1.58l.01-.4.01-.39.02-.4.01-.39.02-.4.02-.39.02-.4.03-.4.03-.42.04-.43.03-.44.04-.43.05-.42.04-.43.05-.43.05-.42.06-.43.06-.42.06-.43.06-.42.07-.42.07-.42.07-.42.07-.42.08-.41.08-.42.08-.41.09-.42.09-.4.1-.42.09-.41.1-.41.1-.4.1-.42.1-.4.11-.4.11-.41.12-.4.11-.4.12-.4.12-.4.13-.4.13-.4.13-.4.13-.39.13-.4.14-.38.14-.4.15-.38.14-.4.15-.38.15-.38.15-.39.16-.38.16-.38.16-.38.16-.38.17-.38.17-.38.17-.37.17-.38.18-.37.18-.37.18-.37.18-.37.19-.37.19-.36.19-.37.2-.36.19-.36.2-.36.2-.36.2-.36.2-.35.21-.36.21-.35.21-.35.1-.16.12-.19.21-.35.22-.35.23-.34.22-.35.22-.34.23-.34.23-.34.24-.34.23-.33.24-.34.24-.33.24-.33.24-.33.25-.33.25-.33.25-.32.25-.33.26-.32.25-.32.26-.32.26-.31.27-.32.26-.31.27-.32.27-.3.27-.31.27-.31.28-.3.27-.31.28-.3.29-.3.28-.3.28-.3.3-.3.28-.29.3-.29.29-.29.29-.29.3-.29.3-.28.3-.28.3-.28.3-.28.31-.28.31-.28.31-.27.31-.27.32-.27.31-.27.32-.27.32-.26.32-.27.33-.26.32-.26.33-.25.32-.26.34-.25.33-.26.33-.25.34-.24.33-.25.34-.24.34-.25.34-.24.35-.23.34-.24.35-.24.35-.23.35-.23.35-.23.36-.22.35-.23.36-.22.36-.22.36-.22.36-.22.36-.2.36-.22.37-.21.37-.21.37-.2.37-.21.37-.2.37-.2.38-.2.38-.2.37-.19.38-.2.38-.18.39-.19.38-.18.39-.19.38-.18.39-.18.39-.17.4-.18.38-.17.4-.17.4-.17.39-.17.4-.16.4-.16.4-.16.4-.16.4-.15.4-.15.4-.15.41-.15.41-.15.41-.14.41-.14.41-.14.41-.14.42-.13.41-.14.42-.13.42-.12.42-.13.42-.12.42-.12.42-.12.42-.12.43-.1.42-.12.43-.1.42-.12.43-.1.43-.1.25-.06.18-.04.44-.1.43-.09.43-.1.44-.08.43-.09.44-.08.44-.08.44-.08.44-.08.44-.08.44-.07.44-.07.44-.06.45-.07.44-.06.45-.06.45-.06.45-.05.44-.05.45-.05.45-.05.46-.05.45-.04.45-.04.45-.03.46-.04.45-.03.46-.03.46-.02.46-.03.45-.02.46-.02.46-.01.46-.02h.46l.47-.01h.46l.46-.01h1.4l.46.01.47.01.47.02.46.01.47.02.47.03.47.02.47.03.47.03.47.03.48.03.47.04.47.04.47.05.48.04.47.05.48.06.47.05.47.06.47.06.48.06.46.07.47.06.47.07.47.08.46.07.47.08.46.08.47.08.46.1.46.08.46.09.46.1.46.09.46.1.45.1.46.1.45.1.45.12.46.1.45.12.45.12.44.11.45.12.45.13.44.12.45.13.44.13.44.13.44.14.44.13.44.14.44.15.44.14.43.15.43.15.44.15.43.15.4.15h.03l.43.16.42.16.43.17.42.16.43.17.42.17.42.17.42.18.42.17.42.18.41.18.42.18.4.19.42.19.41.19.4.19.42.2.4.19.4.2.41.2.4.2.4.2.4.2.4.22.4.2.39.22.4.21.39.22.39.22.39.22.38.22.39.22.38.23.39.23.38.23.38.23.37.24.38.23.38.24.37.24.37.24.1.07.27.18.37.24.37.25.36.25.37.25.36.26.36.25.36.26.35.26.36.26.35.26.35.27.35.27.35.26.35.27.34.28.35.27.34.28.34.27.34.28.33.28.34.28.33.29.33.28.33.3.33.28.32.3.33.28.32.3.32.3.32.3.31.3.32.3.2.19.1.1.32.31.3.3.31.31.3.31.3.32.3.31.3.31.3.32.3.32.29.32.29.32.28.32.29.32.25.29.03.04.28.33.28.33.28.33.27.33.27.33.27.34.27.33.27.34.26.34.26.34.26.34.26.35.26.34.24.34.26.36.24.35.25.35.24.35.24.36.24.35.23.36.23.36.24.36.22.36.23.36.22.36.23.36.22.37.21.37.22.36.2.37.22.37.2.37.21.37.2.38.2.37.2.38.2.37.2.38.19.38.19.38.07.14.11.24.18.38.18.39.17.38.18.39.17.39.16.38.17.4.16.38.16.4.16.39.15.39.16.4.15.39.15.4.14.39.14.4.14.4.14.4.13.4.14.4.13.4.12.4.13.4.12.4.12.4.12.4.1.41.12.41.1.4.12.41.1.41.1.41.1.41.1.41.09.41.09.41.08.41.09.42.08.41.08.41.07.42.08.41.07.42.07.41.06.42.06.42.06.41.06.42v.01l.05.41.05.42.04.42.04.42.04.42.03.42.03.42.03.43.03.42.02.42.02.42.02.43.01.42.02.42v.43l.01.42v1.7l-.02.42v.43l-.02.42-.02.43-.02.42-.02.43-.03.43-.03.42-.03.43-.04.42-.04.43-.04.43-.05.42-.04.43-.03.22-.01.1-.02.12-.03.22-.03.22-.03.22-.03.22-.03.22-.04.21-.03.22-.03.22-.04.22-.04.22-.03.21-.04.22-.04.22-.04.22-.04.21-.04.22-.05.22-.04.21-.04.22-.05.21-.04.22-.05.21-.05.22-.04.21-.05.22-.05.21-.05.22-.05.21-.03.12-.02.1-.06.2-.08.3-.13.26zm-75.64-76.51h-.84l-.43.01-.42.01-.42.02-.42.01-.42.02-.42.02-.42.02-.42.03-.41.03-.42.03-.41.03-.42.03-.41.04-.42.04-.4.04-.42.04-.41.05-.41.05-.4.05-.42.05-.4.06-.41.06-.4.06-.41.06-.4.06-.4.07-.41.07-.4.07-.4.07-.4.08-.4.08-.4.08-.4.08-.4.09-.16.03-.23.05-.39.09-.4.1-.38.08-.4.1-.39.1-.38.1-.4.1-.38.1-.39.1-.38.12-.38.1-.39.12-.38.11-.38.12-.38.12-.38.12-.37.12-.38.13-.37.12-.38.13-.37.13-.37.14-.37.13-.37.14-.37.14-.37.14-.36.14-.37.15-.36.15-.36.15-.36.15-.36.15-.36.16-.36.15-.35.16-.36.16-.35.17-.35.16-.35.17-.35.17-.35.17-.35.17-.34.18-.35.17-.34.18-.34.18-.34.19-.34.18-.33.19-.34.18-.33.2-.34.19-.33.19-.33.2-.33.2-.32.19-.33.2-.32.2-.33.2-.32.21-.32.21-.31.21-.32.21-.32.22-.31.21-.31.22-.31.22-.31.22-.3.22-.31.22-.3.23-.31.23-.3.23-.3.23-.3.23-.3.23-.29.24-.3.24-.28.23-.3.25-.28.24-.29.24-.28.25-.28.24-.29.25-.27.25-.28.26-.28.25-.27.25-.27.26-.28.26-.26.26-.27.26-.27.27-.26.26-.26.27-.26.26-.26.27-.26.27-.25.28-.25.27-.25.28-.25.27-.25.28-.24.28-.25.28-.24.29-.24.28-.23.29-.24.28-.23.3-.24.28-.23.3-.22.29-.23.3-.22.29-.22.3-.22.3-.22.3-.22.3-.21.3-.21.3-.21.31-.21.3-.2.32-.21.3-.2.32-.2.31-.1.17-.1.14-.2.32-.19.32-.19.31-.19.32-.18.32-.19.33-.18.32-.18.32-.18.33-.18.33-.17.32-.17.33-.17.33-.17.34-.17.33-.16.33-.16.34-.16.34-.16.34-.15.33-.15.35-.15.34-.15.34-.14.34-.15.35-.14.35-.14.34-.13.35-.13.35-.14.36-.12.35-.13.35-.13.36-.12.35-.12.36-.11.36-.12.36-.11.36-.11.36-.1.36-.11.37-.1.36-.1.37-.1.36-.1.37-.09.37-.09.37-.09.37-.08.38-.09.37-.08.37-.07.38-.08.38-.07.38-.07.37-.07.38-.06.39-.06.38-.06.38-.06.38-.06.39-.05.39-.05.38-.04.39-.05.39-.04.39-.04.39-.03.4-.04.39-.02.35-.03.36-.02.36-.02.36-.02.36-.02.36-.01.36-.01.36-.01.36-.01.36V103.67l.02.36v.36l.02.36.02.36.02.36.02.37.02.36.03.36.03.36.03.36.03.36.03.36.04.36.04.36.04.36.05.36.04.36.05.36.05.36.06.36.05.36.06.36.06.36.06.36.07.36.07.36.07.36.07.36.07.35.08.36.08.36.08.36.08.36.09.35.09.36.09.36.09.36.1.35.1.36.09.35.1.36.1.35.1.33h.05l94.09-.5 39.09-.2v-.02l.02-.2.03-.21.02-.2.02-.21.02-.2.02-.21.02-.2.01-.21.02-.2.02-.21.01-.21.02-.2.01-.21.01-.2.01-.21.02-.21v-.2l.02-.21v-.2l.02-.21v-.21l.01-.2v-.21l.01-.12V113.22l.02-.4v-.4l.01-.4V110.43l-.01-.4-.01-.39-.02-.4-.02-.39-.02-.39-.02-.4-.02-.38-.03-.4-.03-.39-.03-.39-.04-.39-.04-.38-.04-.4-.04-.38-.05-.39-.05-.38-.05-.39-.05-.38-.06-.39-.06-.38-.06-.38-.07-.38-.06-.38-.07-.38-.07-.38-.08-.38-.07-.37v-.01l-.08-.38-.08-.38-.07-.37-.09-.38-.08-.37-.09-.38-.09-.37-.09-.38-.1-.37-.09-.37-.1-.37-.1-.37-.1-.37-.1-.37-.12-.37-.1-.36-.12-.37-.12-.36-.12-.37-.12-.36-.12-.37-.12-.36-.13-.36-.13-.36-.13-.36-.14-.36-.13-.35-.14-.36-.14-.36-.15-.35-.14-.36-.15-.35-.15-.35-.15-.35-.16-.35-.16-.35-.15-.35-.17-.35-.16-.34-.17-.35-.16-.34-.17-.35-.18-.34-.17-.34-.18-.34-.17-.34-.19-.34-.18-.34-.11-.2-.07-.13-.18-.34-.19-.34-.19-.33-.19-.34-.19-.33-.19-.33-.2-.33-.2-.33-.2-.33-.2-.33-.2-.33-.2-.32-.21-.33-.21-.32-.21-.33-.22-.32-.21-.32-.22-.32-.22-.32-.22-.31-.22-.32-.23-.31-.23-.32-.23-.3-.23-.32-.23-.3-.24-.32-.23-.3-.24-.31-.24-.31-.24-.3-.24-.31-.25-.3-.24-.3-.25-.3-.25-.3-.25-.3-.26-.3-.25-.3-.26-.3-.26-.28-.03-.04-.23-.26-.26-.29-.26-.29-.27-.29-.26-.29-.27-.28-.27-.29-.28-.28-.27-.29-.27-.28-.28-.28-.28-.27-.28-.28-.29-.28-.1-.09-.18-.18-.28-.28-.29-.27-.29-.27-.29-.27-.3-.27-.28-.26-.3-.27-.3-.26-.3-.27-.3-.26-.3-.26-.3-.25-.3-.26-.31-.25-.31-.26-.31-.25-.32-.25-.3-.25-.32-.25-.32-.24-.32-.24-.32-.25-.32-.24-.32-.24-.33-.23-.32-.24-.33-.23-.33-.24-.33-.23-.33-.23-.34-.22-.33-.23-.24-.16-.1-.06-.34-.23-.34-.22-.34-.22-.34-.21-.34-.22-.35-.21-.35-.22-.34-.2-.35-.22-.36-.2-.35-.2-.35-.21-.36-.2-.35-.2-.36-.2-.36-.2-.36-.2-.36-.19-.37-.19-.36-.19-.37-.18-.37-.19-.37-.18-.37-.18-.37-.18-.37-.18-.37-.18-.38-.17-.38-.17-.37-.17-.38-.17-.38-.16-.39-.17-.38-.16-.38-.16-.39-.16-.39-.15-.38-.16-.4-.15-.38-.15-.4-.14-.01-.01-.38-.14-.39-.15-.4-.14-.39-.14-.4-.14-.4-.13-.4-.13-.4-.14-.4-.12-.4-.13-.4-.13-.4-.12-.42-.12-.4-.12-.41-.11-.41-.12-.41-.11-.41-.11-.41-.1-.42-.11-.41-.1-.42-.1-.42-.1-.41-.1-.42-.1-.42-.09-.42-.09-.42-.08-.43-.09-.42-.08-.42-.08-.43-.08-.43-.08-.42-.07-.43-.07-.43-.07-.43-.07-.43-.06-.43-.06-.44-.06-.43-.06-.43-.05-.44-.05-.44-.05-.43-.05-.44-.04-.43-.04-.43-.04-.44-.04-.43-.03-.43-.03-.43-.03-.43-.03-.44-.02-.43-.03-.42-.01-.43-.02-.43-.01-.43-.02h-.43l-.42-.01h-1.28z"/><g><path d="M506.23 307.2c15.3-22.83 25.4-52.86 28.45-84.65 2.89-30.07-.71-59.86-10.2-84.49l-138.26 3c-9.29 19.5-15.37 42.1-17.61 65.49-3.7 38.58 3.3 76.25 19.18 103.2l118.44-2.55z" fill="#b8b8b8"/><path d="M524.92 134.72l.5.1.49.19.45.25.4.32.35.38.3.43.22.46.22.59.23.6.22.59.22.6.22.6.22.6.21.6.22.6.2.6.22.61.2.61.2.61.2.61.2.62.2.61.2.62.19.62.19.62.19.62.18.63.19.62.18.63.18.63.17.63.18.63.17.64.17.63.17.64.16.64.17.63.16.65.16.64.15.64.16.65.15.64.15.65.14.65.15.65.04.19.1.46.14.66.14.65.13.66.14.65.13.66.13.66.12.66.13.67.12.66.12.66.11.67.12.67.11.67.11.66.11.68.1.67.1.67.11.67.1.68.1.67.09.68.1.68.08.68.09.68.08.68.08.68.08.68.08.69.08.68.07.69.07.69.07.68.07.7.06.68.06.7.06.68.06.7.05.69.06.7.05.69.04.7.04.5v.19l.05.7.04.7.04.7.03.69.04.7.03.7.03.7.02.7.02.7.03.7.02.71.01.7.02.71v.7l.02.71v1.41l.01.71v2.13l-.01.7-.01.72-.01.7-.02.72-.02.7-.01.72-.03.71-.02.71-.03.72-.02.7-.03.68v.04l-.04.71-.04.72-.04.71-.04.72-.05.71-.04.72-.05.71-.06.72-.05.71-.06.72-.06.71-.06.72-.06.71-.02.2-.05.52-.07.72-.08.75-.08.76-.08.75-.09.76-.09.75-.09.75-.1.76-.09.75-.1.75-.1.75-.08.55-.02.2-.11.74-.12.75-.11.75-.12.74-.12.74-.12.75-.13.74-.13.74-.13.74-.13.74-.14.74-.13.73-.14.74-.15.73-.14.74-.15.73-.15.73-.15.73-.16.73-.16.73-.16.73-.16.72-.16.73-.15.63-.02.09-.18.72-.17.72-.18.72-.19.71-.18.72-.19.71-.19.72-.19.7-.2.72-.2.7-.19.71-.2.71-.2.7-.21.7-.21.7-.21.7-.21.7-.22.7-.22.7-.22.7-.22.68-.22.7-.23.68-.23.7-.23.68-.24.68-.23.68-.24.68-.24.68-.24.68-.25.68-.25.67-.25.67-.25.67-.25.67-.26.67-.26.66-.26.66-.26.67-.26.65-.27.66-.27.66-.27.65-.2.46-.08.2-.28.64-.28.64-.29.65-.28.64-.3.64-.28.64-.3.63-.3.63-.3.63-.3.63-.3.63-.3.62-.3.63-.31.62-.31.62-.32.61-.3.61-.33.62-.31.6-.33.61-.32.6-.32.6-.33.6-.33.6-.33.6-.33.6-.34.58-.33.6-.34.58-.34.58-.34.58-.35.58-.34.58-.02.01-.34.56-.35.57-.36.56-.35.57-.36.56-.36.55-.37.56-.36.55-.37.55-.37.55-.18.28-.19.27-.18.27-.19.27-.19.27-.18.27-.2.27-.18.27-.19.26-.19.27-.08.12-.1.15-.2.26-1.45-.98 1.45.98-.17.22-.2.19-.24.15-.26.12-.27.07-.28.03-2.47.06-63.58 1.64-52.37 1.34-.34-.01-.34-.07-.31-.12-.3-.16-.27-.21-.23-.25-.2-.28-.19-.31-.19-.33-.19-.32-.19-.33-.18-.32-.19-.33-.18-.33-.19-.32-.18-.33-.19-.33-.18-.34-.18-.33-.18-.33-.18-.34-.18-.33-.18-.34-.17-.34-.18-.33-.18-.34-.17-.34-.17-.34-.18-.34-.17-.35-.17-.34-.17-.35-.17-.34-.17-.35-.17-.34-.16-.35-.17-.35-.17-.35-.16-.35-.16-.35-.17-.35-.16-.36-.16-.35-.16-.36-.16-.35-.16-.36-.15-.36-.16-.35-.16-.36-.15-.36-.16-.36-.15-.37-.15-.36-.15-.36-.15-.36-.15-.37-.15-.36-.15-.37-.15-.37-.14-.37-.15-.37-.14-.36-.15-.38-.14-.37-.14-.37-.14-.37-.14-.38-.14-.37-.14-.37-.14-.38-.14-.38-.13-.37-.14-.38-.13-.38-.13-.38-.14-.38-.13-.38-.13-.38-.13-.39-.13-.38-.13-.38-.12-.39-.13-.38-.12-.39-.13-.39-.12-.38-.13-.4-.12-.38-.12-.39-.12-.39-.12-.4-.12-.38-.11-.4-.12-.39-.12-.4-.11-.39-.11-.4-.12-.39-.11-.4-.11-.39-.11-.4-.11-.4-.1-.4-.12-.4-.1-.4-.11-.4-.1-.4-.1-.4-.11-.4-.1-.4-.1-.4-.1-.41-.1-.4-.1-.41-.1-.41-.1-.4-.1-.42-.1-.4-.09-.41-.09-.41-.1-.41-.08-.41-.1-.41-.08-.41-.1-.42-.08-.41-.09-.41-.08-.42-.09-.41-.08-.42-.09-.41-.08-.42-.08-.42-.08-.41-.08-.42-.08-.42-.08-.42-.08-.42-.07-.42-.08-.42-.07-.42-.08-.42-.07-.42-.07-.42-.07-.43-.07-.42-.07-.42-.07-.43-.07-.42-.06-.43-.07-.43-.06-.42-.06-.43-.07-.43-.06-.42-.06-.43-.06-.43-.06-.43-.06-.43-.05-.43-.06-.43-.05-.43-.06-.43-.05-.43-.05-.44-.05-.43-.06-.43-.04-.44-.05-.43-.05-.43-.05-.44-.04-.43-.05-.44-.04-.44-.05-.43-.04-.44-.04-.44-.04-.43-.04-.44-.04-.44-.03-.44-.04-.44-.04-.44-.03-.44-.03-.44-.04-.44-.03-.44-.03-.44-.03-.44-.03-.44-.03-.45-.02-.44-.03-.44-.03-.45-.02-.44-.02-.44-.03-.45-.02-.44-.02-.45-.02-.44-.02-.45-.01-.44-.02-.45-.02-.45v-.44l-.02-.45-.02-.45v-.44l-.02-.45v-.45l-.02-.45v-.45l-.01-.45v-.45l-.01-.45v-.44l-.01-.45V223.6l.01-.46v-.45l.01-.45.01-.45.01-.46.01-.45.01-.45.02-.46.01-.45.01-.45.02-.46.01-.45.02-.46.02-.45.02-.46.02-.45.01-.27.01-.19.02-.45.02-.46.03-.45.02-.46.03-.46.03-.45.02-.46.03-.45.03-.46.03-.46.04-.45.03-.46.03-.46.04-.45.03-.46.04-.46.04-.46.04-.45.04-.46.04-.46.04-.46.05-.55.05-.56.06-.55.06-.56.05-.55.06-.55.06-.56.06-.55.07-.55.06-.55.07-.56.07-.55.06-.55.07-.55.08-.55.07-.55.07-.55.08-.55.08-.55.08-.55.08-.54.08-.55.08-.55.08-.55.09-.54.09-.55.08-.54.1-.55.09-.54.09-.55.1-.54.09-.54.1-.55.1-.54.1-.54.1-.54.1-.54.1-.54.1-.54.1-.54.11-.54.11-.54.11-.53.12-.54.1-.54.12-.53.12-.54.11-.53.12-.54.12-.53.12-.53.13-.53.12-.54.12-.53.13-.53.13-.53.13-.52.13-.53.13-.53.13-.53.14-.52.13-.53.14-.52.14-.53.14-.52.14-.53.14-.52.14-.52.15-.52.14-.52.15-.52.15-.52.15-.51.15-.52.15-.52.16-.51.15-.52.16-.51.16-.52.15-.5.17-.52.16-.51.16-.51.16-.51.17-.5.17-.52.16-.5.17-.5.17-.51.18-.5.17-.51.17-.5.18-.5.18-.5.17-.5.18-.5.18-.5.19-.5.18-.5.18-.49.2-.5.18-.49.19-.49.19-.5.19-.48.19-.5.2-.48.19-.49.2-.48.19-.49.2-.48.2-.49.2-.48.2-.48.2-.48.2-.48.21-.48.21-.48.21-.47.21-.48.21-.47.21-.48.22-.47.21-.47.22-.47.21-.47.22-.47.22-.46.23-.4.29-.36.34-.31.39-.26.42-.18.45-.12.46-.05 6.79-.17 85.73-2.14 45.72-1.11.52.02zm-47.03 7.6l-82.93 1.5v-.03l-6.86.15-.09.18-.2.45-.22.45-.2.46-.21.46-.2.45-.21.46-.2.46-.2.47-.2.46-.2.46-.2.47-.2.46-.2.47-.2.46-.2.47-.19.47-.19.47-.19.48-.19.47-.19.47-.18.48-.19.47-.18.48-.19.48-.18.47-.18.48-.18.48-.18.49-.18.48-.17.48-.18.49-.17.48-.18.49-.17.48-.17.5-.17.48-.17.49-.16.49-.17.5-.16.48-.17.5-.16.49-.16.5-.16.49-.16.5-.15.5-.16.5-.15.49-.16.5-.15.5-.15.5-.15.5-.15.5-.14.51-.15.5-.14.5-.15.52-.14.5-.14.5-.14.52-.14.5-.13.52-.14.5-.13.52-.14.5-.13.52-.13.51-.13.52-.13.51-.12.52-.13.51-.12.52-.13.52-.12.51-.12.52-.12.52-.11.52-.12.52-.12.52-.11.52-.11.52-.11.52-.11.53-.11.52-.1.53-.12.52-.1.53-.1.52-.1.53-.1.52-.1.53-.1.53-.1.53-.1.53-.09.52-.1.53-.08.53-.1.54-.08.53-.09.53-.09.53-.08.53-.08.54-.09.53-.08.53-.08.54-.07.53-.08.54-.08.53-.07.54-.07.54-.07.53-.07.54-.07.54-.07.54-.06.53-.07.54-.06.54-.06.54-.06.54-.06.54-.06.54-.06.54-.05.54-.04.45-.05.44-.04.45-.04.45-.04.44-.04.45-.04.44-.04.45-.03.44-.04.45-.03.45-.03.44-.04.45-.03.44-.03.45-.03.44-.03.44-.03.45-.02.44-.03.45-.02.44-.01.19-.02.25-.02.45-.02.44-.02.45-.02.44-.02.44-.02.44-.02.45-.01.44-.02.44-.01.44-.02.45-.01.44-.01.44-.01.44-.01.44-.01.44v.44l-.02.44v.88l-.01.44v3.95l.01.44v.44l.01.43.01.44.01.44.01.43.01.44.01.43.02.44v.43l.02.44.02.43.02.44.01.43.02.43.02.44.02.43.02.43.02.43.03.44.02.43.03.43.02.43.03.43.02.43.03.43.03.43.03.43.03.43.04.43.03.42.03.43.04.43.03.43.04.42.04.43.04.42.04.43.04.42.04.43.04.42.04.43.05.42.04.42.05.42.04.43.05.42.05.42.05.42.05.42.05.42.05.42.06.42.05.42.06.42.05.41.06.42.06.42.05.41.06.42.06.41.06.42.07.41.06.42.06.41.07.41.06.42.07.4.07.42.06.41.07.41.07.41.07.4.08.42.07.4.07.41.08.41.07.4.08.41.08.41.07.4.08.4.08.41.08.4.08.4.09.41.08.4.08.4.09.4.09.4.08.4.09.4.09.4.09.4.09.4.09.4.1.39.08.4.1.39.1.4.09.38.1.4.1.39.09.4.1.38.1.4.1.38.1.4.1.38.1.39.11.38.1.39.11.39.1.38.11.38.11.39.11.38.11.38.11.39.11.38.12.38.11.38.11.38.12.37.12.38.11.38.12.37.12.38.12.37.12.38.12.37.12.37.12.37.13.38.12.37.13.37.12.36.13.37.13.37.13.37.13.36.13.37.13.36.13.36.13.37.14.36.13.36.14.36.13.36.14.36.14.36.14.35.14.36.14.36.14.35.14.35.14.36.15.35.14.35.15.35.14.35.15.35.15.35.15.35.15.34.15.35.15.34.15.35.15.34.15.34.16.34.15.34.16.34.16.34.15.34.16.34.16.33.16.34.16.33.16.33.17.34.16.33.16.33.17.33.16.33.17.33.17.32.17.33.16.33.17.32.17.32.18.32.17.33.17.32.17.32.18.31.17.32.18.32.18.31.17.32.08.13 52.17-.93 62.51-1.09 1.48-.02.03-.06.17-.27.16-.27.17-.27.16-.28.17-.27.16-.28.17-.27.16-.28.16-.27.33-.56.32-.56.32-.56.32-.56.31-.57.32-.56.3-.57.32-.57.3-.58.3-.56.01-.02.3-.57.31-.58.3-.58.3-.59.3-.58.3-.6.3-.58.29-.6.29-.59.28-.6.3-.6.27-.6.29-.6.28-.6.27-.61.28-.61.27-.61.27-.62.27-.61.27-.62.27-.62.26-.62.26-.62.26-.63.25-.63.26-.62.25-.64.25-.63.25-.63.24-.64.25-.64.24-.64.24-.64.07-.2.17-.44.24-.65.24-.64.23-.65.24-.65.23-.65.23-.65.22-.65.23-.66.22-.65.22-.66.22-.66.21-.66.22-.67.2-.66.22-.67.2-.67.2-.67.21-.67.2-.67.2-.68.2-.67.19-.68.19-.68.19-.68.18-.68.19-.68.18-.69.18-.68.18-.69.17-.69.17-.69.17-.69.17-.69.17-.7.16-.69.16-.7.16-.69.16-.7.15-.7.15-.7.15-.7.15-.7.14-.7.02-.1.13-.61.14-.7.14-.71.15-.7.13-.72.14-.7.13-.72.13-.7.13-.72.13-.71.12-.72.12-.71.12-.72.12-.72.11-.72.11-.72.11-.71.1-.73.11-.72.1-.72.1-.72.1-.73.1-.72.08-.73.03-.19.07-.53.09-.73.08-.73.09-.73.08-.72.08-.73.08-.73.07-.74.08-.73.07-.73.06-.73.06-.7.05-.5.01-.19.06-.7.06-.68.06-.7.05-.69.05-.7.05-.68.04-.7.04-.69.04-.69.04-.69.04-.69.03-.7.03-.68v-.04l.04-.65.02-.69.03-.69.02-.69.03-.69.02-.68.01-.7.02-.68.01-.69.01-.68v-.69l.02-.68v-2.74l-.01-.68v-.69l-.02-.68-.01-.68-.01-.68-.02-.68-.02-.68-.02-.68-.03-.68-.02-.67-.03-.68-.03-.68-.03-.67-.04-.68-.04-.67-.04-.67v-.19l-.04-.48-.04-.68-.05-.67-.04-.67-.05-.67-.06-.66-.05-.67-.06-.67-.06-.66-.06-.67-.06-.66-.07-.67-.07-.66-.07-.66-.07-.66-.07-.66-.08-.66-.08-.65-.08-.66-.09-.65-.08-.66-.09-.65-.1-.65-.08-.65-.1-.65-.1-.65-.1-.65-.1-.65-.1-.64-.1-.65-.11-.64-.11-.64-.11-.64-.12-.64-.12-.64-.11-.63-.13-.64-.12-.63-.12-.64-.13-.63-.13-.63-.13-.63-.1-.44-.04-.18-.13-.63-.14-.62-.14-.63-.14-.62-.15-.62-.15-.62-.14-.62-.15-.61-.16-.62-.15-.6-.16-.62-.16-.61-.16-.6-.17-.62-.16-.6-.17-.6-.17-.6-.17-.6-.18-.6-.17-.6-.18-.6-.18-.6-.19-.58-.18-.6-.19-.58-.19-.6-.19-.58-.2-.58-.19-.58-.2-.58-.2-.58-.2-.58-.2-.57-.2-.57-.04-.08-44.25.84z"/><ellipse cx="445.3" cy="75.92" rx="39.06" ry="50.52" fill="#b8b8b8"/><path d="M445.06 27.15h-.23l-.24.01-.24.01h-.11l-.13.01-.23.02-.24.01-.23.02-.24.02-.23.02-.24.02-.23.02-.23.03-.23.03-.24.03-.23.03-.23.03-.23.04-.23.04-.23.03-.23.05-.23.04-.23.04-.23.05-.22.05-.23.05-.23.05-.22.05-.23.06-.22.06-.23.05-.22.07-.22.06-.23.06-.22.07-.22.07-.22.07-.23.07-.22.07-.22.07-.22.08-.21.08-.22.08-.22.08-.22.08-.21.09-.22.09-.22.08-.21.1-.22.09-.21.09-.21.1-.22.1-.2.09-.22.1-.21.1-.21.1-.21.1-.21.11-.21.11-.2.11-.22.11-.2.12-.2.11-.22.12-.2.12-.2.11-.2.13-.21.12-.2.12-.2.13-.2.12-.2.13-.2.13-.2.14-.2.13-.2.13-.2.14-.2.14-.2.14-.19.14-.2.14-.19.15-.19.14-.2.15-.18.15-.2.15-.18.15-.2.15-.18.16-.19.15-.19.16-.18.16-.19.16-.18.16-.19.16-.18.17-.19.16-.18.17-.18.17-.18.17-.18.17-.18.17-.17.18-.18.17-.18.18-.17.18-.18.18-.17.18-.17.18-.18.19-.17.18-.17.19-.17.19-.17.19-.16.19-.17.19-.17.2-.16.19-.1.11-.07.08-.16.2-.16.2-.16.2-.16.2-.16.2-.16.2-.16.2-.16.21-.15.21-.16.2-.15.22-.16.2-.15.22-.15.21-.15.22-.15.21-.15.22-.15.22-.14.22-.15.22-.14.22-.15.22-.14.23-.14.22-.14.23-.14.22-.14.23-.14.23-.14.23-.13.23-.14.24-.13.23-.13.24-.13.23-.13.24-.13.24-.13.24-.13.24-.12.24-.13.24-.12.25-.12.24-.13.25-.12.24-.11.25-.12.25-.12.25-.12.25-.11.25-.11.26-.12.25-.1.25-.12.26-.1.26-.12.26-.1.25-.1.26-.11.26-.1.27-.1.26-.1.26-.1.27-.1.26-.1.27-.1.26-.1.27-.09.27-.1.27-.08.27-.1.27-.08.27-.09.28-.08.27-.09.28-.08.27-.09.28-.08.28-.08.27-.07.28-.08.28-.08.28-.07.28-.08.29-.07.28-.07.28-.07.29-.07.28-.06.29-.07.29-.06.28-.07.3-.06.28-.06.29-.06.3-.05.28-.06.3-.06.29-.05.29-.05.3-.05.29-.05.3-.05.29-.05.3-.04.3-.04.29-.05.3-.04.3-.04.3-.03.3-.04.3-.04.3-.03.3-.03.3-.03.3-.03.31-.03.3-.03.31-.02.3-.03.32-.02.3-.02.3-.02.32-.02.3-.01.31-.02.31-.01.31-.01.32-.01.3-.01.32v.3l-.01.32v.32l-.01.3v1.27l.01.31v.32l.02.3v.32l.02.31v.32l.02.3.02.32.02.3.01.32.03.3.02.31.02.31.02.3.03.32.03.3.03.3.03.31.03.3.03.3.04.31.03.3.04.3.04.3.04.3.04.3.05.3.04.3.05.3.04.3.05.3.05.29.06.3.05.29.05.3.06.28.06.3.05.29.06.29.07.29.06.29.06.28.07.3.06.28.07.28.07.29.07.28.07.29.07.28.08.28.07.28.08.28.08.28.08.28.08.28.08.28.08.27.09.28.08.27.1.27.08.28.09.27.09.27.1.27.08.27.1.27.1.26.09.27.1.26.1.27.1.26.1.26.1.27.1.26.1.26.12.25.1.26.11.26.11.25.11.26.11.25.11.26.12.25.11.25.12.25.12.25.12.24.11.25.13.25.12.24.12.24.12.25.13.24.12.24.13.24.11.2.02.03.13.24.13.24.13.23.13.24.13.23.14.23.13.23.14.23.13.23.14.22.14.23.14.22.14.23.14.22.15.22.14.22.15.22.14.22.15.21.15.22.14.21.15.21.15.22.15.2.16.21.15.21.15.2.16.21.15.2.16.21.16.2.16.2.16.2.16.2.16.2.16.19.16.2.16.19.17.19.16.19.17.18.17.2.16.18.17.18.17.18.17.19.17.18.17.17.18.18.17.18.17.17.18.18.17.17.18.17.18.17.17.17.18.16.18.17.18.16.18.16.18.16.18.16.19.16.18.16.18.15.19.16.18.15.19.15.19.15.18.15.19.14.19.15.19.14.19.14.19.14.19.14.2.14.18.13.2.14.19.13.2.13.19.13.2.13.19.12.2.13.2.12.19.12.2.12.2.12.2.12.2.12.2.1.2.12.2.11.2.11.2.1.2.12.2.1.21.1.2.1.21.1.2.1.21.1.21.1.2.09.22.09.2.09.21.08.2.1.22.08.2.08.22.08.2.08.22.08.21.08.21.07.22.07.2.08.22.07.22.06.21.07.21.06.22.07.22.06.21.06.22.06.21.05.22.06.22.05.22.05.21.05.22.05.22.04.22.05.22.04.22.04.22.04.22.04.22.03.22.04.23.03.22.03.22.03.22.02.23.03.22.02.22.02.23.02.22.02.23.01.22.02h.23l.23.02h.22l.23.01h.23l.22.01h.92l.22-.01.23-.01.23-.01.22-.01.23-.02.23-.01.22-.02.22-.02.23-.02.22-.02.23-.03.22-.03.22-.02.22-.03.22-.04.23-.03.22-.04.22-.03.22-.04.22-.04.22-.04.21-.05.22-.04.22-.05.22-.05.21-.05.22-.06.22-.05.21-.06.22-.05.21-.06.22-.07.2-.06.22-.06.22-.07.2-.07.22-.07.21-.07.21-.07.21-.08.21-.07.21-.08.21-.08.2-.08.22-.08.2-.09.21-.09.2-.08.21-.1.21-.08.2-.1.2-.1.21-.09.2-.1.2-.1.21-.1.2-.1.2-.1.2-.1.2-.11.2-.11.2-.11.2-.11.2-.12.2-.11.2-.12.2-.12.19-.11.2-.13.19-.12.19-.12.2-.13.19-.12.19-.13.19-.13.19-.13.2-.14.18-.13.19-.14.19-.14.19-.13.18-.15.19-.14.18-.14.19-.15.18-.14.19-.15.18-.15.18-.15.18-.15.19-.16.18-.15.18-.16.17-.15.18-.16.18-.16.18-.17.17-.16.18-.16.17-.17.18-.17.17-.17.17-.17.17-.17.17-.17.17-.18.17-.17.17-.18.17-.18.16-.18.17-.18.17-.18.16-.19.16-.18.17-.19.16-.18.16-.2.16-.18.16-.2.16-.19.16-.2.15-.19.16-.2.15-.2.16-.2.15-.2.15-.2.16-.2.15-.2.15-.2.14-.21.15-.21.15-.2.15-.22.14-.21.14-.21.15-.22.14-.21.14-.22.14-.21.14-.22.14-.22.14-.22.13-.22.14-.23.01-.02.12-.2.14-.23.13-.22.13-.23.13-.23.13-.23.13-.23.13-.23.13-.23.12-.24.13-.23.12-.24.13-.23.12-.24.12-.24.12-.24.12-.24.11-.24.12-.25.11-.24.12-.25.11-.24.11-.25.11-.25.11-.25.11-.25.1-.25.12-.25.1-.25.1-.26.1-.25.1-.26.11-.26.1-.25.1-.26.1-.26.1-.26.09-.26.09-.27.1-.26.08-.26.1-.27.08-.26.09-.27.09-.27.08-.27.09-.27.08-.27.08-.27.08-.27.08-.27.08-.28.07-.27.08-.27.07-.28.08-.28.07-.27.07-.28.07-.28.06-.28.07-.28.07-.28.06-.28.06-.29.06-.28.06-.29.06-.28.06-.29.05-.28.06-.29.05-.29.05-.29.05-.28.05-.3.05-.28.05-.3.04-.29.05-.3.04-.28.04-.3.04-.3.04-.29.03-.3.04-.29.03-.3.04-.3.03-.3.03-.29.02-.3.03-.3.03-.3.02-.3.02-.3.02-.3.02-.3.02-.31.02-.3.01-.3.02-.31.01-.3.01-.31.01-.31v-.3l.01-.31v-.31l.01-.31v-1.86l-.01-.3-.01-.31-.01-.3-.01-.32-.02-.3-.01-.3-.02-.31-.01-.3-.02-.31-.02-.3-.02-.3-.03-.3-.02-.31-.03-.3-.02-.3-.03-.3-.03-.3-.03-.3-.04-.3-.03-.3-.04-.3-.03-.29-.04-.3-.04-.29-.04-.3-.04-.29-.05-.29-.04-.29-.05-.3-.05-.28-.05-.3-.05-.28-.05-.3-.06-.28-.05-.29-.06-.28-.05-.29-.06-.28-.06-.29-.01-.03-.05-.25-.07-.29-.06-.28-.06-.28-.07-.28-.07-.28-.07-.28-.06-.28-.08-.27-.07-.28-.07-.28-.08-.27-.07-.28-.08-.27-.08-.27-.08-.28-.08-.27-.08-.27-.09-.27-.08-.26-.09-.27-.08-.27-.1-.26-.08-.27-.1-.26-.08-.27-.1-.26-.1-.26-.09-.26-.1-.26-.1-.26-.1-.26-.1-.25-.1-.26-.08-.2-.01-.06-.1-.25-.1-.25-.11-.26-.1-.25-.11-.25-.11-.25-.11-.25-.11-.25-.11-.24-.11-.25-.12-.24-.11-.25-.11-.24-.12-.24-.1-.22-.02-.02-.11-.24-.12-.24-.12-.24-.12-.24-.12-.24-.12-.23-.13-.24-.12-.23-.12-.23-.13-.23-.13-.24-.12-.22-.13-.23-.13-.23-.13-.23-.02-.02-.11-.2-.13-.23-.14-.22-.13-.22-.13-.23-.14-.22-.13-.22-.14-.22-.14-.21-.13-.22-.14-.22-.14-.2-.15-.22-.14-.21-.14-.22-.15-.2-.14-.21-.15-.2-.14-.22-.15-.2-.15-.2-.15-.2-.15-.2-.15-.2-.15-.2-.16-.2-.15-.2-.16-.2-.15-.19-.16-.2-.06-.07-.1-.11-.15-.2-.16-.19-.15-.19-.16-.19-.16-.19-.16-.18-.16-.19-.16-.18-.16-.19-.17-.18-.16-.18-.17-.18-.16-.18-.17-.17-.17-.18-.17-.17-.16-.17-.17-.17-.17-.17-.18-.17-.17-.17-.17-.17-.18-.16-.17-.16-.18-.17-.17-.16-.18-.16-.18-.15-.18-.16-.18-.15-.18-.16-.18-.15-.18-.15-.18-.15-.19-.15-.18-.14-.18-.15-.19-.14-.19-.14-.18-.15-.2-.13-.18-.14-.19-.14-.19-.13-.19-.14-.2-.13-.18-.13-.2-.13-.19-.13-.2-.12-.19-.13-.2-.12-.2-.12-.19-.12-.2-.12-.2-.11-.2-.12-.19-.12-.2-.12-.2-.11-.2-.12-.2-.1-.2-.12-.2-.1-.2-.11-.2-.1-.21-.11-.2-.1-.21-.1-.2-.1-.21-.1-.21-.1-.21-.1-.2-.09-.22-.09-.2-.09-.22-.08-.21-.09-.21-.08-.22-.09-.21-.08-.22-.08-.21-.08-.22-.07-.21-.08-.22-.07-.22-.07-.22-.07-.22-.07-.21-.06-.23-.07-.22-.06-.22-.06-.22-.06-.22-.06-.23-.06-.22-.05-.23-.05-.13-.03-.1-.02-.22-.05-.22-.05-.23-.05-.23-.05-.23-.04-.23-.05-.23-.04-.23-.04-.23-.03-.23-.04-.23-.03-.24-.03-.23-.03-.24-.03-.23-.03-.24-.02-.23-.02-.24-.02h-.02l-.22-.02h-.24zm.5-3.5l.27-.02.27-.02h.27l.26-.01h.27l.27-.01h1.06l.27.02h.26l.27.02.26.01.27.02.26.02.26.02.27.02.1.01.16.02.26.03.27.03.26.03.26.04.26.04.26.04.27.04.26.05.26.05.26.04.26.06.26.05.25.05.26.06.26.06.26.06.26.07.25.06.26.07.26.07.25.07.26.07.25.08.25.08.26.07.25.09.25.08.26.08.25.1.25.08.25.1.25.09.25.1.25.09.25.1.24.1.25.1.25.1.24.11.25.11.25.11.24.11.24.12.24.12.24.12.24.12.24.13.24.13.24.13.23.13.24.13.24.13.23.14.23.14.24.14.23.14.23.14.23.14.23.15.23.15.23.15.23.15.23.15.22.16.23.15.22.16.23.16.22.16.22.17.22.16.22.17.22.17.22.17.22.17.22.17.22.18.21.17.22.18.2.18.22.18.21.18.22.19.2.18.22.19.2.19.21.19.2.2.21.18.2.2.21.2.2.2.2.2.2.2.2.2.2.2.2.2.2.21.2.21.12.13.07.08.2.21.18.22.2.22.18.21.19.22.18.22.19.23.18.22.19.23.18.22.18.23.18.23.18.23.17.23.18.23.17.24.18.23.17.24.17.24.17.24.17.24.17.24.17.24.17.25.16.25.16.24.17.25.16.25.16.25.14.22.02.03.15.26.16.25.15.26.16.26.15.26.15.26.14.26.15.26.15.27.14.26.15.27.14.27.14.26.14.27.14.27.01.03.13.25.13.27.13.27.14.28.13.28.13.28.12.27.13.28.13.29.12.28.12.28.12.28.12.29.12.29.12.28.02.06.1.23.1.3.12.28.11.3.11.29.1.29.12.3.1.29.1.3.1.3.1.29.1.3.1.3.1.3.1.3.1.3.09.3.09.31.09.3.09.31.08.3.09.32.08.3.08.31.09.31.08.31.07.31.08.32.08.31.07.31.07.32.08.31.07.32.06.32.06.27V62l.07.31.07.32.06.32.06.32.06.33.05.32.06.32.05.32.06.33.05.32.05.33.05.32.04.33.05.33.04.33.04.33.04.33.04.33.04.33.03.33.04.33.03.33.03.34.03.33.03.33.02.34.03.33.02.34.02.34.02.33.01.34.02.34.02.34v.34l.02.34v.34l.02.34v.68l.01.35v1.37l-.01.34-.01.34-.01.34-.01.34-.01.34-.02.34-.01.34-.02.34-.02.34-.02.34-.03.33-.02.34-.03.33-.02.34-.03.33-.03.34-.03.33-.04.33-.03.34-.04.33-.04.33-.04.33-.04.33-.04.33-.05.32-.05.33-.04.33-.05.32-.05.33-.06.32-.05.33-.06.32-.05.32-.06.32-.06.33-.06.32-.07.32-.06.31-.07.32-.06.32-.07.32-.07.31-.08.32-.07.31-.07.31-.08.32-.08.3-.08.32-.08.31-.08.31-.08.3-.09.32-.08.3-.1.3-.08.31-.1.3-.08.31-.1.3-.1.3-.09.3-.1.3-.1.3-.1.3-.1.3-.1.3-.1.3-.1.29-.12.29-.1.3-.12.28-.1.3-.12.28-.11.3-.12.28-.11.29-.12.28-.12.29-.12.28-.12.29-.13.28-.12.28-.12.28-.13.28-.13.27-.13.28-.13.28-.13.27-.13.27-.14.28-.13.27-.14.27-.14.27-.14.27-.14.26-.14.27-.14.26-.15.27-.14.26-.15.26-.15.26-.15.26-.15.26-.15.26-.15.25-.16.26-.15.25-.14.23-.02.02-.15.25-.16.25-.16.25-.16.25-.17.24-.16.25-.16.24-.17.24-.17.25-.16.23-.17.24-.17.24-.18.24-.17.23-.17.24-.18.23-.17.23-.18.23-.18.23-.18.22-.18.23-.18.22-.18.23-.18.22-.19.22-.18.22-.19.21-.19.22-.19.22-.18.21-.2.21-.19.21-.19.21-.2.21-.19.2-.2.21-.2.2-.19.2-.2.2-.2.2-.2.2-.2.2-.2.2-.2.19-.21.2-.2.18-.22.2-.2.18-.21.18-.21.19-.21.18-.21.18-.22.18-.2.18-.22.18-.22.17-.22.18-.21.17-.22.17-.22.17-.22.16-.22.17-.22.16-.23.16-.22.17-.22.15-.23.16-.23.16-.22.15-.23.15-.23.15-.23.15-.23.15-.23.15-.23.14-.24.14-.23.14-.23.14-.24.14-.24.13-.23.14-.24.13-.24.13-.24.13-.24.12-.24.13-.24.12-.25.12-.24.12-.24.12-.25.11-.25.11-.24.12-.25.1-.25.11-.25.1-.25.11-.25.1-.25.1-.25.1-.25.1-.25.1-.26.09-.25.09-.26.09-.25.08-.26.09-.26.08-.25.08-.26.08-.26.08-.26.07-.26.07-.26.07-.26.07-.26.07-.27.06-.26.06-.26.07-.27.05-.26.06-.27.05-.26.06-.27.05-.27.04-.27.05-.26.04-.27.04-.27.04-.27.04-.27.03-.27.04-.27.03-.27.03-.28.02-.27.03-.27.02-.27.02-.28.01-.27.02-.28.01-.27.01-.28.01h-.27l-.28.01h-1.1l-.28-.01h-.12l-.15-.01-.28-.02-.27-.01-.28-.02-.27-.02-.27-.02-.28-.02-.27-.03-.27-.02-.27-.03-.27-.04-.27-.03-.27-.04-.27-.03-.27-.05-.27-.04-.26-.04-.27-.05-.27-.05-.26-.05-.27-.05-.26-.06-.27-.06-.26-.06-.26-.06-.26-.06-.27-.07-.26-.07-.26-.07-.26-.07-.26-.07-.25-.08-.26-.08-.26-.07-.25-.09-.26-.08-.25-.09-.26-.08-.25-.1-.25-.09-.26-.09-.25-.1-.25-.1-.25-.1-.25-.1-.24-.1-.25-.1-.25-.1-.24-.12-.25-.1-.24-.12-.25-.11-.24-.12-.24-.12-.24-.12-.24-.12-.24-.12-.24-.13-.24-.13-.24-.12-.23-.14-.24-.13-.23-.13-.24-.14-.23-.13-.23-.14-.23-.14-.23-.15-.23-.14-.23-.15-.23-.15-.23-.14-.22-.16-.23-.15-.22-.15-.22-.16-.23-.16-.22-.16-.22-.16-.22-.16-.22-.16-.21-.17-.22-.17-.22-.17-.21-.17-.22-.17-.2-.17-.22-.18-.21-.17-.21-.18-.21-.18-.2-.18-.22-.19-.2-.18-.2-.19-.21-.18-.2-.2-.2-.18-.2-.2-.2-.19-.2-.19-.2-.2-.2-.2-.2-.2-.2-.2-.19-.2-.2-.2-.19-.2-.19-.2-.19-.22-.19-.2-.18-.21-.19-.22-.19-.2-.18-.22-.19-.22-.18-.22-.18-.21-.18-.22-.18-.22-.18-.23-.18-.22-.17-.22-.18-.23-.17-.23-.17-.22-.18-.23-.17-.24-.17-.23-.16-.23-.17-.24-.17-.23-.16-.24-.17-.24-.16-.24-.16-.24-.16-.24-.16-.24-.16-.25-.16-.24-.15-.25-.16-.25-.15-.25-.15-.25-.15-.25-.15-.25-.15-.26-.15-.25-.15-.26-.14-.26-.15-.26-.14-.25-.14-.27-.14-.26-.14-.26-.14-.26-.02-.04-.11-.23-.14-.26-.13-.27-.14-.27-.13-.27-.13-.27-.13-.27-.13-.27-.12-.28-.13-.27-.12-.27-.12-.28-.13-.28-.12-.28-.11-.28-.12-.28-.12-.28-.11-.28-.12-.28-.1-.29-.12-.28-.11-.29-.1-.28-.12-.3-.1-.28-.1-.29-.1-.29-.11-.3-.1-.28-.1-.3-.1-.3-.1-.29-.09-.3-.1-.29-.08-.3-.1-.3-.08-.3-.1-.3-.08-.3-.08-.3-.09-.3-.08-.3-.08-.3-.08-.31-.08-.3-.08-.31-.07-.31-.08-.3-.07-.32-.07-.3-.07-.32-.07-.3-.06-.32-.07-.31-.06-.32-.06-.31-.07-.32-.05-.31-.06-.32-.06-.31-.05-.32-.06-.32-.05-.32-.05-.32-.05-.32-.04-.32-.05-.32-.04-.32-.05-.33-.04-.32-.04-.32-.04-.33-.03-.32-.04-.33-.03-.33-.03-.32-.03-.33-.03-.33-.03-.33-.03-.33-.02-.33-.02-.33-.02-.33-.02-.33-.02-.33-.02-.34v-.33l-.02-.33-.01-.34-.01-.33-.01-.34v-.33l-.01-.34v-2.02l.01-.34.01-.34.01-.33.01-.34.02-.33.01-.34.02-.33.02-.33.02-.34.02-.33.02-.33.03-.33.02-.33.03-.33.03-.33.03-.33.03-.33.04-.32.03-.33.04-.33.04-.32.04-.33.04-.32.04-.32.05-.33.05-.32.04-.32.05-.32.05-.32.06-.32.05-.32.06-.32.05-.31.06-.32.06-.32.06-.31.07-.31.06-.32.07-.31.06-.31.07-.31.07-.31.07-.31.08-.31.07-.31.08-.3.07-.31.08-.3.08-.31.08-.3.09-.31.08-.3.09-.3.08-.3.1-.3.08-.3.1-.3.09-.3.09-.3.1-.29.1-.3.09-.29.1-.29.1-.3.1-.28.1-.3.1-.28.11-.29.11-.29.11-.28.11-.29.11-.28.11-.28.12-.29.11-.28.12-.28.12-.28.11-.27.12-.28.13-.28.12-.27.12-.28.13-.27.12-.27.13-.27.13-.27.13-.27.13-.27.13-.27.14-.26.13-.27.14-.26.13-.26.14-.26.14-.26.14-.26.15-.26.14-.26.14-.25.15-.26.15-.25.14-.25.15-.26.15-.25.15-.25.16-.24.15-.25.15-.24.16-.25.16-.24.15-.24.16-.24.16-.24.17-.24.16-.24.16-.23.17-.24.16-.23.17-.23.17-.23.17-.23.17-.23.17-.23.17-.22.17-.23.18-.22.17-.22.18-.22.17-.22.18-.22.18-.21.18-.22.18-.21.19-.21.07-.1.11-.12.18-.2.2-.21.18-.21.18-.2.2-.2.18-.21.2-.2.18-.2.2-.2.19-.2.2-.2.19-.19.2-.19.2-.19.2-.19.19-.19.2-.18.2-.19.2-.18.2-.18.2-.18.21-.18.2-.18.21-.18.21-.17.21-.17.2-.18.22-.17.2-.16.22-.17.21-.17.22-.16.21-.16.22-.16.21-.16.22-.16.22-.15.21-.16.22-.15.22-.15.22-.15.22-.15.23-.14.22-.15.22-.14.23-.14.22-.14.23-.14.23-.13.23-.14.22-.13.23-.13.23-.13.23-.13.24-.12.23-.12.23-.13.24-.12.23-.11.24-.12.23-.12.24-.1.24-.12.23-.1.24-.12.24-.1.24-.1.24-.1.24-.1.25-.1.24-.1.24-.1.25-.09.24-.1.25-.08.24-.09.25-.08.25-.08.24-.09.25-.08.25-.07.25-.08.25-.07.25-.07.25-.07.26-.07.25-.07.25-.06.25-.06.26-.06.25-.06.26-.05.25-.06.26-.05.26-.05.25-.05.26-.04.26-.05.26-.04.26-.04.26-.03.26-.04.26-.03.26-.03.26-.03.26-.03.26-.02.27-.03.26-.02.26-.01.27-.02.26-.01.26-.02h.27l.14-.01h.39l.27-.01h.54l.23-.02h.03z"/></g><path d="M383.76 62.05c0-25.03-25.9-45.35-57.8-45.35-31.91 0-57.82 20.32-57.82 45.35 0 25.04 25.9 45.36 57.81 45.36 8 0 15.9-1.3 23.23-3.82l34.58 26.5-17.88-35.24c11.42-8.56 17.88-20.4 17.88-32.8z" fill="#fff"/><clipPath id="g"><path d="M383.76 62.05c0-25.03-25.9-45.35-57.8-45.35-31.91 0-57.82 20.32-57.82 45.35 0 25.04 25.9 45.36 57.81 45.36 8 0 15.9-1.3 23.23-3.82l34.58 26.5-17.88-35.24c11.42-8.56 17.88-20.4 17.88-32.8z"/></clipPath><g clip-path="url(#g)"><path d="M321.33 78.4a50.17 50.17 0 01-.13-3.52c0-2.67.24-4.92.72-6.74A22.94 22.94 0 01326 59.7c.83-1.07 1.6-2.2 2.3-3.4.72-1.21 1.31-2.57 1.8-4.07.47-1.51.7-3.38.7-5.61 0-1.71-.19-3.2-.58-4.46a8.68 8.68 0 00-1.65-3.13 6.7 6.7 0 00-2.52-1.84c-.97-.4-2.04-.61-3.2-.61-.95 0-1.83.1-2.63.32-.8.22-1.49.52-2.08.92-.6.39-1.05.85-1.37 1.39a3.38 3.38 0 00-.48 1.76c0 .67.16 1.26.48 1.78.32.52.66 1.04 1.02 1.54.36.51.7 1.03 1.02 1.55.32.52.48 1.11.48 1.78 0 .78-.17 1.48-.5 2.1a5.37 5.37 0 01-1.35 1.64 6 6 0 01-2 1.06c-.77.25-1.6.37-2.5.37a7.88 7.88 0 01-5.43-2.13 7.12 7.12 0 01-1.63-2.37 7.59 7.59 0 01-.59-3.02c0-2.58.6-4.77 1.83-6.58a14.62 14.62 0 014.69-4.44 21.42 21.42 0 016.37-2.5c2.33-.52 4.63-.78 6.89-.78 2.98 0 5.75.35 8.28 1.04 2.54.7 4.72 1.7 6.57 2.98a14.17 14.17 0 014.32 4.74 12.76 12.76 0 011.57 6.32c0 1.63-.27 3.08-.79 4.37a14.22 14.22 0 01-2.08 3.57 24.6 24.6 0 01-2.96 3.08c-1.1.97-2.22 1.95-3.37 2.92-1.14.97-2.27 1.99-3.37 3.06a22.48 22.48 0 00-2.95 3.54 17.49 17.49 0 00-2.1 4.3 17.26 17.26 0 00-.77 5.42v1.04c0 .35.01.7.04 1.05h-6.13zm-3.83 9.43c0-.87.19-1.69.55-2.46.36-.76.86-1.43 1.5-2a7.43 7.43 0 019.8 0 6.3 6.3 0 011.48 2c.36.77.54 1.59.54 2.46 0 .87-.18 1.69-.54 2.46a6.3 6.3 0 01-1.48 2c-.62.56-1.35 1-2.2 1.32-.83.32-1.73.48-2.69.48a7.53 7.53 0 01-4.91-1.8 6.14 6.14 0 01-1.5-2 5.68 5.68 0 01-.55-2.46z" fill="none"/><path d="M321.33 78.4a50.17 50.17 0 01-.13-3.52c0-2.67.24-4.92.72-6.74A22.94 22.94 0 01326 59.7c.83-1.07 1.6-2.2 2.3-3.4.72-1.21 1.31-2.57 1.8-4.07.47-1.51.7-3.38.7-5.61 0-1.71-.19-3.2-.58-4.46a8.68 8.68 0 00-1.65-3.13 6.7 6.7 0 00-2.52-1.84c-.97-.4-2.04-.61-3.2-.61-.95 0-1.83.1-2.63.32-.8.22-1.49.52-2.08.92-.6.39-1.05.85-1.37 1.39a3.38 3.38 0 00-.48 1.76c0 .67.16 1.26.48 1.78.32.52.66 1.04 1.02 1.54.36.51.7 1.03 1.02 1.55.32.52.48 1.11.48 1.78 0 .78-.17 1.48-.5 2.1a5.37 5.37 0 01-1.35 1.64 6 6 0 01-2 1.06c-.77.25-1.6.37-2.5.37a7.88 7.88 0 01-5.43-2.13 7.12 7.12 0 01-1.63-2.37 7.59 7.59 0 01-.59-3.02c0-2.58.6-4.77 1.83-6.58a14.62 14.62 0 014.69-4.44 21.42 21.42 0 016.37-2.5c2.33-.52 4.63-.78 6.89-.78 2.98 0 5.75.35 8.28 1.04 2.54.7 4.72 1.7 6.57 2.98a14.17 14.17 0 014.32 4.74 12.76 12.76 0 011.57 6.32c0 1.63-.27 3.08-.79 4.37a14.22 14.22 0 01-2.08 3.57 24.6 24.6 0 01-2.96 3.08c-1.1.97-2.22 1.95-3.37 2.92-1.14.97-2.27 1.99-3.37 3.06a22.48 22.48 0 00-2.95 3.54 17.49 17.49 0 00-2.1 4.3 17.26 17.26 0 00-.77 5.42v1.04c0 .35.01.7.04 1.05h-6.13zm-3.83 9.43c0-.87.19-1.69.55-2.46.36-.76.86-1.43 1.5-2a7.43 7.43 0 019.8 0 6.3 6.3 0 011.48 2c.36.77.54 1.59.54 2.46 0 .87-.18 1.69-.54 2.46a6.3 6.3 0 01-1.48 2c-.62.56-1.35 1-2.2 1.32-.83.32-1.73.48-2.69.48a7.53 7.53 0 01-4.91-1.8 6.14 6.14 0 01-1.5-2 5.68 5.68 0 01-.55-2.46z" fill="#008fd7" fill-rule="nonzero"/></g><path d="M326.73 13.22h.4l.38.01.39.01.39.01h.14l.24.01.4.02.38.01.38.02.39.02.38.02.39.02.38.03.38.03.39.03.38.03.38.03.38.03.38.04.37.04.38.04.38.04.38.04.37.05.38.05.37.05.37.05.38.05.37.05.37.06.37.06.37.06.37.06.37.06.36.07.37.07.36.06.37.07.36.08.37.07.36.08.36.07.36.08.36.08.36.09.07.01.29.07.35.09.36.09.35.09.36.09.35.1.35.09.35.1.35.1.35.1.35.1.35.1.34.1.35.11.34.11.35.11.34.11.2.07.14.05.34.12.34.11.34.12.33.13.34.12.33.12.33.13.34.13.33.13.33.13.33.13.32.13.33.14.33.14.32.14.32.14.32.14.05.02.27.12.32.15.32.15.32.14.31.16.31.15.32.15.3.16.32.16.3.15.31.16.31.16.3.17.3.16.31.17.3.16.3.17.3.17.3.17.3.17.29.18.3.17.28.18.3.18.28.17.29.18.29.19.28.18.29.18.28.19.28.19.28.18.28.2.27.18.28.2.06.04.2.15.28.2.27.2.27.2.26.2.26.2.27.2.26.21.26.2.26.22.25.2.26.22.25.2.25.22.25.21.25.22.25.21.24.22.25.22.24.22.24.22.24.22.24.22.23.23.24.22.23.23.23.23.23.22.23.23.22.23.22.23.23.24.22.23.22.24.21.23.22.24.21.24.21.24.21.23.21.25.21.24.2.24.2.25.2.24.2.25.2.24.2.25.2.25.19.25.19.25.19.25.18.26.19.25.18.26.18.25.18.26.18.26.17.25.18.27.17.25.17.27.17.26.16.26.17.27.16.26.16.27.06.1.1.17.15.26.15.27.15.27.14.28.15.27.14.27.14.28.14.27.14.28.13.27.13.28.13.28.13.28.13.28.12.28.12.28.12.28.12.28.12.29.1.28.12.28.1.29.12.28.1.29.1.29.1.28.1.3.1.28.09.29.09.29.09.29.09.29.08.3.08.28.08.3.08.29.08.3.07.29.07.3.07.29.07.3.06.29.06.3.06.3.06.3.05.3.06.29.05.3.04.3.04.27v.03l.05.3.04.3.03.3.04.3.03.3.02.31.03.3.02.3.02.31.02.3.02.3.01.31.02.3v.31l.01.3v1.54l-.01.3-.01.29v.02l-.02.3V62.97l-.01.3-.01.31v.11l-.01.2-.02.3-.01.3-.02.3-.02.3-.03.31-.02.3-.03.3-.03.3-.04.3-.03.3-.04.3-.04.3-.05.3-.04.3-.05.3-.05.3-.05.3-.06.3-.06.3-.05.3-.07.3-.06.29-.07.3-.07.29-.07.3-.07.29-.08.3-.08.29-.08.29-.08.3-.09.28-.09.3-.09.29-.1.29-.09.29-.1.29-.1.28-.1.3-.1.28-.1.29-.11.28-.11.29-.12.28-.11.29-.12.28-.12.29-.12.28-.13.28-.12.28-.13.28-.13.28-.14.28-.13.28-.14.28-.14.27-.14.28-.14.28-.15.27-.15.28-.15.27-.15.27-.16.27-.15.27-.16.27-.16.27-.17.27-.16.27-.17.27-.17.26-.17.27-.18.26-.17.27-.18.26-.18.26-.19.26-.18.26-.19.26-.19.26-.19.26-.19.25-.2.26-.2.25-.19.26-.2.25-.2.25-.21.25-.2.25-.22.25-.2.25-.22.24-.22.25-.21.24-.22.25-.22.24-.23.24-.22.24-.23.24-.23.24-.23.24-.23.23-.24.24-.24.23-.23.24-.25.23-.24.23-.24.23-.25.23-.25.22-.25.23-.25.22-.26.23-.25.22-.26.22-.26.22-.26.22-.27.22-.26.21-.03.03.73 1.44h.02l16.58 32.23.14.35.08.36.03.38-.05.37-.1.36-.16.34-.22.3-.27.28-.3.22-.35.16-.36.1-.38.05-.38-.02-.37-.09-.35-.14-.33-.2-33.64-25.5-.16.05-.36.12-.36.11-.36.12-.36.1-.37.12-.36.1-.36.1-.37.11-.36.1-.37.1-.37.1-.36.1-.37.09-.37.1-.37.08-.37.1-.37.08-.37.08-.38.08-.37.09-.37.07-.38.08-.37.08-.38.07-.37.07-.38.07-.37.07-.38.06-.38.07-.38.06-.38.06-.38.05-.38.06-.38.05-.38.06-.38.05-.38.05-.38.04-.38.05-.39.04h-.07l-.31.04-.38.04-.39.03-.38.04-.39.03-.38.03-.39.03-.38.03-.39.02-.39.02-.38.02-.39.02-.38.02-.4.02h-.38l-.39.02h-.38l-.4.02h-2.31l-.39-.01h-.38l-.39-.02-.38-.01-.38-.01-.38-.02-.38-.02-.38-.02-.38-.02-.38-.02-.38-.03-.38-.02-.38-.03-.37-.03-.38-.04-.38-.03-.37-.04-.37-.04-.38-.04-.37-.04-.37-.04-.37-.05-.37-.04-.37-.05-.37-.05-.37-.05-.37-.06-.37-.06-.36-.05-.37-.06-.36-.06-.37-.07-.36-.06-.36-.07-.36-.07-.36-.07-.36-.07-.36-.07-.36-.07-.36-.08-.35-.08-.36-.08-.35-.08-.36-.08-.35-.1-.35-.08-.35-.09-.35-.09-.35-.09-.35-.1-.35-.09-.34-.1-.35-.09-.35-.1-.34-.1-.34-.1-.34-.1-.34-.12-.34-.1-.34-.11-.34-.11-.34-.12-.33-.11-.34-.12-.33-.11-.33-.12-.34-.12-.33-.12-.33-.13-.32-.12-.33-.13-.33-.13-.32-.13-.33-.13-.32-.13-.32-.14-.32-.13-.32-.14-.32-.14-.32-.14-.32-.14-.31-.14-.32-.15-.3-.14-.32-.15-.31-.15-.31-.15-.3-.15-.32-.16-.3-.15-.3-.16-.31-.16-.3-.15-.3-.16-.3-.17-.3-.16-.3-.17-.3-.16-.29-.17-.3-.17-.28-.17-.3-.17-.28-.17-.3-.18-.28-.17-.28-.18-.29-.18-.28-.18-.28-.18-.28-.18-.28-.19-.28-.18-.27-.19-.28-.19-.27-.19-.27-.19-.28-.19-.26-.19-.27-.2-.27-.19-.26-.2-.27-.2-.26-.2-.26-.2-.26-.2-.25-.2-.26-.2-.25-.21-.26-.2-.25-.22-.25-.2-.25-.22-.24-.2-.25-.22-.24-.22-.25-.21-.24-.22-.21-.2-.03-.02-.23-.22-.24-.22-.23-.22-.24-.22-.23-.23-.23-.22-.23-.23-.22-.23-.23-.22-.22-.23-.22-.24-.22-.23-.22-.23-.21-.24-.22-.23-.21-.24-.21-.24-.21-.24-.2-.24-.21-.24-.2-.24-.21-.24-.2-.25-.2-.24-.2-.25-.2-.25-.19-.25-.19-.25-.19-.25-.19-.25-.18-.25-.19-.26-.18-.25-.18-.26-.18-.26-.18-.25-.17-.26-.17-.26-.17-.26-.17-.27-.17-.26-.17-.26-.16-.27-.16-.27-.16-.26-.16-.27-.16-.27-.15-.27-.15-.27-.15-.27-.15-.28-.14-.27-.15-.28-.14-.27-.14-.28-.14-.28-.13-.28-.14-.27-.13-.29-.13-.28-.12-.28-.13-.28-.12-.29-.12-.28-.12-.29-.12-.28-.11-.29-.11-.29-.11-.29-.11-.29-.1-.29-.11-.29-.1-.3-.1-.28-.1-.3-.1-.3-.09-.29-.09-.3-.08-.3-.09-.29-.08-.3-.08-.3-.08-.3-.08-.3-.07-.3-.07-.3-.07-.3-.07-.3-.06-.31-.07-.3-.06-.31-.05-.3-.06-.31-.05-.31-.05-.3-.05-.32-.04-.3-.05-.32-.04-.3-.04-.32-.03-.3-.03-.32-.04-.31-.02-.32-.03-.31-.02-.32-.02-.31-.02-.32-.02-.31v-.32l-.02-.31v-.32l-.01-.32v-1.59l.02-.32.01-.31.02-.32.01-.31.02-.32.03-.31.02-.32.03-.3.03-.32.03-.31.04-.32.03-.3.04-.32.05-.3.04-.32.05-.3.05-.31.05-.31.05-.3.06-.32.06-.3.06-.3.07-.31.06-.3.07-.3.07-.31.08-.3.07-.3.08-.3.08-.3.08-.3.09-.3.09-.3.09-.3.09-.3.1-.29.09-.3.1-.29.1-.3.1-.29.1-.29.11-.29.11-.29.12-.29.11-.29.12-.28.12-.3.12-.28.12-.28.12-.29.13-.28.13-.28.13-.29.13-.28.14-.28.14-.28.14-.27.14-.28.14-.28.15-.27.15-.28.15-.27.15-.28.15-.27.16-.27.02-.03.13-.24.16-.27.17-.27.16-.26.17-.27.16-.26.17-.27.18-.26.17-.26.17-.27.18-.26.18-.25.18-.26.19-.26.18-.26.19-.25.19-.26.19-.25.19-.25.2-.25.19-.25.2-.25.2-.25.2-.24.2-.25.2-.24.21-.25.21-.24.21-.24.21-.24.22-.24.21-.24.22-.24.22-.23.22-.24.22-.23.22-.23.23-.23.23-.23.22-.23.23-.23.24-.23.23-.22.24-.22.23-.23.24-.22.24-.22.24-.22.25-.22.24-.21.25-.22.25-.21.24-.22.26-.21.25-.21.25-.21.26-.2.26-.22.25-.2.26-.2.27-.21.26-.2.26-.2.27-.2.27-.2.27-.2.27-.2.27-.19.27-.2.28-.18.27-.2.28-.18.28-.2.28-.18.28-.18.28-.19.29-.18.28-.18.3-.18.28-.18.3-.18.28-.17.3-.18.29-.17.3-.17.29-.17.3-.17.3-.17.3-.16.3-.17.3-.16.3-.16.31-.16.3-.16.32-.16.3-.16.31-.15.32-.15.31-.16.31-.15.32-.14.31-.15.32-.15.32-.14.32-.15.32-.14.32-.14.33-.13.32-.14.33-.14.32-.13.33-.13.33-.14.33-.12.33-.13.33-.13.34-.12.33-.13.34-.12.33-.12.34-.12.34-.11.34-.12.34-.11.34-.12.34-.1.35-.11.34-.11.35-.1.34-.11.35-.1.35-.1.35-.1.35-.1.35-.1.35-.1.36-.08.35-.1.36-.08.35-.1.36-.08.36-.08.36-.09h.06l.3-.08.36-.07.36-.08.36-.08.36-.07.37-.07.36-.07.37-.07.37-.07.36-.06.37-.07.37-.06.37-.06.37-.05.37-.06.37-.05.38-.06.37-.05.38-.05.37-.04.38-.05.37-.04.38-.04.38-.04.38-.04.38-.04.38-.03.38-.03.38-.04.38-.02.39-.03.38-.03.38-.02.39-.02.38-.02.39-.02.39-.01.38-.02h.4l.38-.02h.39l.39-.01H326.74zM382 61.75l-.01-.26-.02-.27-.02-.28-.03-.28-.03-.27-.03-.28-.03-.27-.03-.27-.04-.28-.03-.27-.04-.27-.04-.27-.05-.27-.04-.27-.05-.27-.05-.27-.06-.26-.05-.27-.06-.27-.06-.26-.06-.27-.06-.26v-.02l-.06-.24-.07-.26-.06-.27-.07-.26-.07-.26-.07-.26-.08-.26-.07-.26-.08-.25-.08-.26-.08-.26-.09-.25-.09-.26-.08-.25-.1-.25-.09-.26-.09-.25-.1-.25-.1-.25-.1-.25-.1-.25-.1-.25-.1-.24-.11-.25-.11-.24-.11-.25-.11-.24-.12-.25-.11-.24-.12-.24-.12-.24-.12-.24-.13-.24-.12-.24-.13-.24-.13-.24-.13-.23-.13-.24-.14-.23-.14-.24-.13-.23-.14-.23-.15-.23-.14-.23-.14-.23-.15-.23-.15-.23-.15-.23-.15-.22-.15-.23-.1-.13-.06-.1-.15-.22-.16-.22-.16-.23-.15-.22-.17-.22-.16-.23-.16-.22-.17-.22-.17-.21-.16-.22-.18-.22-.17-.22-.17-.21-.18-.22-.17-.21-.18-.21-.18-.21-.19-.22-.18-.2-.19-.21-.18-.21-.2-.21-.18-.2-.2-.21-.19-.2-.2-.21-.19-.2-.2-.2-.2-.2-.2-.2-.2-.2-.2-.2-.2-.2-.21-.2-.21-.19-.21-.2-.21-.19-.22-.19-.21-.19-.22-.19-.22-.19-.21-.18-.22-.19-.23-.19-.22-.18-.22-.18-.23-.19-.23-.18-.23-.18-.23-.18-.23-.17-.23-.18-.24-.18-.23-.17-.24-.18-.24-.17-.24-.17-.24-.17-.24-.17-.24-.17-.25-.16-.25-.17-.24-.16-.25-.17-.25-.16-.2-.13-.05-.03-.25-.17-.26-.16-.25-.16-.25-.16-.26-.16-.26-.15-.26-.16-.26-.16-.26-.15-.26-.15-.26-.15-.27-.15-.26-.15-.27-.15-.27-.15-.27-.14-.27-.15-.27-.14-.27-.14-.28-.14-.27-.14-.28-.14-.28-.14-.28-.13-.28-.14-.28-.13-.28-.13-.28-.13-.29-.13-.29-.13-.28-.12-.3-.13-.28-.12-.29-.12-.25-.1-.04-.03-.3-.12-.28-.12-.3-.12-.3-.12-.29-.11-.3-.12-.3-.11-.3-.11-.3-.11-.3-.11-.3-.11-.3-.11-.3-.1-.3-.11-.31-.1-.3-.1-.31-.1-.13-.04-.18-.06-.31-.1-.31-.1-.31-.1-.31-.1-.32-.08-.31-.1-.32-.09-.31-.08-.32-.1-.32-.08-.31-.08-.32-.09-.32-.08-.33-.08-.32-.08-.32-.07-.26-.06-.06-.02-.33-.07-.32-.08-.33-.07-.33-.07-.32-.07-.33-.07-.33-.06-.33-.07-.33-.06-.33-.06-.34-.06-.33-.06-.33-.06-.34-.05-.34-.06-.33-.05-.34-.05-.34-.05-.34-.04-.34-.05-.34-.04-.34-.05-.34-.04-.34-.04-.34-.03-.35-.04-.34-.03-.35-.04-.34-.03-.35-.03-.35-.02-.34-.03-.35-.02-.35-.02-.35-.03-.35-.01-.35-.02-.35-.02-.36-.01h-.22l-.13-.01-.35-.01-.36-.01-.35-.01h-.71l-.36-.01h-1.42l-.36.02h-.35l-.35.01-.35.02-.36.01-.35.02-.35.01-.35.02-.35.02-.35.02-.34.03-.35.02-.35.03-.34.03-.35.03-.34.03-.35.04-.34.03-.34.04-.35.04-.34.04-.34.04-.34.05-.34.04-.34.05-.33.05-.34.05-.34.05-.33.06-.34.05-.33.06-.33.06-.34.06-.33.06-.33.06-.33.07-.33.06-.33.07-.32.07-.27.06-.06.01-.33.07-.32.08-.33.07-.32.08-.32.08-.32.07-.32.09-.32.08-.32.08-.32.09-.32.09-.31.08-.32.1-.31.09-.32.09-.31.1-.31.09-.31.1-.31.1-.31.1-.3.1-.32.1-.3.1-.3.1-.31.12-.3.1-.3.11-.3.12-.3.1-.3.12-.3.12-.3.11-.3.12-.29.12-.29.12-.3.12-.28.13-.3.12-.28.13-.29.13-.29.12-.28.13-.28.14-.29.13-.28.13-.28.14-.28.13-.28.14-.28.14-.27.14-.28.14-.27.14-.27.15-.28.14-.27.15-.26.15-.27.15-.27.15-.26.15-.27.15-.26.15-.26.16-.26.15-.26.16-.26.16-.25.16-.26.16-.25.16-.26.16-.25.17-.25.16-.24.17-.25.16-.25.17-.24.17-.24.17-.25.17-.24.18-.23.17-.24.18-.24.17-.23.18-.24.18-.23.18-.23.18-.23.18-.22.18-.23.18-.22.19-.23.18-.22.19-.22.18-.22.2-.22.18-.21.2-.22.18-.2.2-.22.19-.21.2-.2.19-.21.2-.21.19-.2.2-.2.2-.2.2-.2.2-.2.2-.2.2-.2.2-.18.2-.2.21-.18.2-.2.21-.18.21-.18.2-.19.22-.18.2-.18.22-.18.21-.17.21-.18.22-.17.21-.17.22-.17.21-.17.22-.17.22-.16.21-.17.22-.16.22-.16.22-.16.22-.15.23-.16.22-.15.22-.15.23-.15.22-.15.23-.14.22-.15.23-.14.23-.14.23-.14.22-.12.2-.02.03-.13.23-.14.24-.13.23-.13.23-.13.23-.13.24-.12.23-.12.24-.12.23-.12.24-.12.23-.12.24-.11.24-.11.24-.11.24-.11.24-.1.24-.11.24-.1.24-.1.25-.1.24-.1.24-.1.25-.1.24-.08.25-.1.24-.08.25-.09.25-.08.24-.08.25-.08.25-.08.25-.08.25-.07.25-.08.25-.07.25-.06.26-.07.25-.07.25-.06.26-.06.25-.06.26-.05.25-.06.26-.05.25-.05.26-.05.26-.05.26-.04.25-.04.26-.04.26-.04.26-.04.26-.03.26-.03.26-.04.27-.02.26-.03.26-.02.26-.02.27-.02.26-.02.27-.02.26-.01.27-.01.26-.01.27v.27l-.01.26v1.34l.01.27.01.26.02.27.01.26.02.27.02.26.02.27.02.26.03.26.02.27.03.26.03.26.04.26.03.26.04.26.04.26.04.26.04.26.05.26.05.26.05.25.05.26.05.26.06.25.06.26.06.25.06.26.06.25.07.26.06.25.07.25.08.25.07.26.08.25.07.25.08.25.08.25.09.25.08.25.09.24.09.25.09.25.1.24.09.25.1.25.1.24.1.24.1.25.1.24.1.24.11.25.11.24.12.24.11.24.12.24.11.24.12.23.12.24.13.24.12.23.13.24.13.24.13.23.13.23.13.24.14.23.13.23.14.23.14.23.15.23.14.23.15.23.15.23.15.23.15.22.15.23.15.22.16.23.16.22.16.22.16.22.17.23.16.22.17.22.17.21.17.22.17.22.17.21.18.22.18.22.17.21.18.21.19.22.18.2.19.22.18.2.2.22.18.2.2.21.19.2.2.21.19.21.2.2.2.2.2.2.2.21.2.2.21.2.21.2.2.2.03.01.19.18.21.2.22.2.21.19.22.19.22.2.22.18.22.2.22.18.22.19.23.19.23.18.23.19.23.18.23.18.23.18.23.19.24.18.24.17.24.18.24.18.24.17.24.18.25.17.24.18.25.17.25.17.25.17.25.16.25.17.25.17.26.16.26.16.25.17.26.16.26.16.27.16.26.15.26.16.27.16.27.15.26.15.27.15.27.15.28.15.27.15.27.15.28.14.28.15.27.14.28.14.28.14.29.14.28.14.28.14.29.13.29.14.28.13.3.13.28.13.3.13.29.13.29.12.3.13.29.12.3.13.3.12.3.12.3.11.3.12.3.12.3.11.3.11.3.12.31.1.31.11.31.11.31.1.31.11.31.1.31.1.32.1.31.1.32.1.31.1.32.09.32.1.32.08.32.1.32.08.32.09.33.09.32.08.32.08.33.08.33.08.32.08.33.08.33.07.33.07.33.07.34.07.33.07.33.07.34.06.33.07.34.06.33.06.34.06.34.06.34.05.34.06.34.05.34.05.34.05.35.05.34.04.35.05.34.04.35.04.34.04.35.04.35.04.35.03.35.03.35.03.35.03.35.03.35.03.36.02.35.02.35.02.36.02.35.02.36.01.36.02.35.01.36.01h.36l.36.02H327.75l.37-.02h.36l.36-.02.36-.01.36-.02.35-.01.36-.02.36-.02.36-.03.36-.02.36-.03.36-.02.35-.03.36-.03.3-.03h.06l.36-.04.35-.04.36-.04.35-.04.36-.04.35-.05.36-.04.35-.05.36-.05.35-.05.35-.05.35-.06.36-.05.35-.06.35-.06.35-.06.35-.07.35-.06.35-.07.34-.07.35-.07.35-.07.35-.08.34-.07.35-.08.34-.08.35-.08.34-.08.34-.09.34-.08.35-.1.34-.08.34-.1.34-.09.33-.1.34-.09.34-.1.33-.1.34-.1.33-.1.34-.11.33-.1.33-.12.34-.11.4-.1.41-.03.41.03.4.1.38.17.34.23-.14.18 26.84 20.57-13.06-26.08-.26-.51-.13-.33-.07-.34v-.35l.04-.34.11-.34.17-.3.22-.28.26-.23.26-.2.26-.19.25-.2.25-.19.25-.2.25-.2.25-.19.25-.2.24-.2.24-.2.24-.2.24-.2.24-.21.23-.21.24-.2.23-.22.23-.2.22-.22.23-.2.22-.22.22-.21.22-.22.22-.21.22-.22.21-.21.22-.22.2-.22.21-.22.21-.22.2-.22.21-.23.2-.22.2-.23.2-.22.2-.23.19-.22.19-.23.19-.23.19-.23.18-.23.19-.23.18-.23.18-.24.18-.23.17-.24.18-.23.17-.24.17-.23.17-.24.17-.24.16-.24.16-.24.16-.24.16-.24.16-.24.15-.25.16-.24.15-.25.15-.24.14-.25.15-.24.14-.25.14-.25.14-.25.14-.25.13-.24.13-.26.14-.25.12-.25.13-.25.13-.25.12-.26.12-.25.12-.25.11-.26.12-.26.11-.25.11-.26.11-.26.1-.25.11-.26.1-.26.1-.26.1-.26.1-.26.09-.26.1-.26.08-.27.09-.26.08-.26.09-.26.08-.27.08-.26.07-.27.08-.26.07-.27.07-.26.07-.27.07-.27.06-.26.06-.27.06-.27.06-.27.06-.27.05-.27.05-.27.05-.27.05-.27.04-.27.05-.27.04-.27.04-.27.03-.27.04-.28.03-.27.03-.27.03-.27.02-.28.02-.27.02-.28.02-.27.02-.27v-.18l.01-.1.02-.27v-.28l.01-.28v-.27l.01-.27-.02-.29v-.02z"/><path d="M333.42 227.77c0 25.03-24.05 45.35-53.66 45.35-29.62 0-53.66-20.32-53.66-45.35 0-12.39 6-24.24 16.59-32.8l-16.6-35.24 32.1 26.5a62.16 62.16 0 0121.57-3.82c29.61 0 53.66 20.33 53.66 45.36z" fill="#fff"/><clipPath id="h"><path d="M333.42 227.77c0 25.03-24.05 45.35-53.66 45.35-29.62 0-53.66-20.32-53.66-45.35 0-12.39 6-24.24 16.59-32.8l-16.6-35.24 32.1 26.5a62.16 62.16 0 0121.57-3.82c29.61 0 53.66 20.33 53.66 45.36z"/></clipPath><g clip-path="url(#h)"><path d="M278.94 242.7a258.49 258.49 0 00-2.78-19.08c-.4-2.23-.8-4.15-1.17-5.76-.36-1.61-.68-3.14-.93-4.57-.26-1.44-.45-2.9-.6-4.38-.14-1.48-.21-3.2-.21-5.14 0-1.78.24-3.38.72-4.8.47-1.42 1.1-2.62 1.86-3.59a8.3 8.3 0 012.63-2.25c.99-.52 2-.79 3.01-.79 1.02 0 2.03.27 3.01.8a8.32 8.32 0 012.64 2.24c.76.97 1.38 2.17 1.86 3.59a15 15 0 01.72 4.8 53.8 53.8 0 01-.82 9.52c-.25 1.43-.55 2.96-.9 4.57a202.9 202.9 0 00-1.15 5.76 252.46 252.46 0 00-2.77 19.08h-5.12zm-4.35 12.2a6.97 6.97 0 011.98-4.9 7.03 7.03 0 014.9-2.04 6.95 6.95 0 016.43 4.23 6.72 6.72 0 010 5.4 6.65 6.65 0 01-3.7 3.66 7.15 7.15 0 01-7.63-1.45 6.97 6.97 0 01-1.99-4.9z" fill="none"/><path d="M278.94 242.7a258.49 258.49 0 00-2.78-19.08c-.4-2.23-.8-4.15-1.17-5.76-.36-1.61-.68-3.14-.93-4.57-.26-1.44-.45-2.9-.6-4.38-.14-1.48-.21-3.2-.21-5.14 0-1.78.24-3.38.72-4.8.47-1.42 1.1-2.62 1.86-3.59a8.3 8.3 0 012.63-2.25c.99-.52 2-.79 3.01-.79 1.02 0 2.03.27 3.01.8a8.32 8.32 0 012.64 2.24c.76.97 1.38 2.17 1.86 3.59a15 15 0 01.72 4.8 53.8 53.8 0 01-.82 9.52c-.25 1.43-.55 2.96-.9 4.57a202.9 202.9 0 00-1.15 5.76 252.46 252.46 0 00-2.77 19.08h-5.12zm-4.35 12.2a6.97 6.97 0 011.98-4.9 7.03 7.03 0 014.9-2.04 6.95 6.95 0 016.43 4.23 6.72 6.72 0 010 5.4 6.65 6.65 0 01-3.7 3.66 7.15 7.15 0 01-7.63-1.45 6.97 6.97 0 01-1.99-4.9z" fill="#008fd7" fill-rule="nonzero"/></g><path d="M335.05 228.07v.02l.01.29.01.3v.3l.01.31v1.21l-.01.31-.01.3-.02.3-.01.3-.02.31-.02.3-.02.3-.02.3-.03.3-.02.3-.03.3-.04.3-.03.3v.06l-.04.24-.04.3-.04.3-.05.3-.05.3-.05.29-.05.3-.05.29-.06.3-.06.29-.06.29-.06.3-.07.29-.06.29-.07.29-.07.29-.08.29-.07.29-.08.29-.08.29-.08.29-.08.28-.09.3-.09.28-.09.28-.09.29-.1.28-.09.29-.1.28-.1.28-.1.28-.1.29-.11.28-.1.28-.12.28-.11.27-.11.28-.12.28-.12.28-.12.27-.12.28-.12.27-.13.28-.13.27-.13.27-.13.27-.13.27-.13.27-.14.27-.04.07-.1.2-.15.26-.14.27-.15.26-.15.27-.15.26-.15.26-.16.26-.15.26-.16.26-.16.26-.16.26-.17.25-.16.26-.17.25-.17.26-.17.25-.17.25-.18.25-.17.25-.18.25-.18.25-.18.24-.18.25-.19.24-.18.25-.2.24-.18.24-.2.24-.18.24-.2.24-.2.24-.2.24-.2.23-.2.24-.2.23-.2.23-.2.24-.21.23-.21.23-.21.22-.21.23-.22.23-.21.22-.22.23-.22.22-.22.22-.22.22-.22.22-.23.22-.22.22-.23.21-.23.22-.23.21-.23.22-.23.2-.24.22-.24.2-.23.21-.24.21-.24.2-.25.21-.24.2-.24.2-.25.2-.25.2-.07.06-.18.14-.25.2-.25.2-.26.18-.26.2-.26.18-.25.19-.27.19-.26.18-.26.19-.27.18-.26.18-.27.18-.27.18-.27.18-.27.17-.27.18-.27.17-.28.17-.27.17-.28.17-.28.17-.28.17-.28.16-.28.16-.29.17-.28.16-.29.16-.28.15-.3.16-.28.16-.3.15-.28.15-.3.15-.3.15-.29.15-.3.14-.3.15-.3.14-.3.14-.3.14-.3.13-.3.14-.3.13-.31.14-.3.13-.31.13-.31.12-.31.13-.31.12-.32.13-.3.12-.32.12-.32.12h-.01l-.3.11-.32.12-.32.1-.32.12-.32.1-.32.11-.32.11-.33.1-.32.1-.33.1-.32.1-.33.1-.33.1-.33.1-.32.09-.33.09-.34.09-.32.08-.34.09-.34.08-.33.08-.34.08-.33.08-.34.07-.34.08-.34.07-.34.07-.34.07-.34.07-.34.06-.34.07-.35.06-.34.06-.35.06-.34.05-.35.06-.34.05-.35.05-.35.05-.35.05-.35.04-.35.05-.35.04-.35.04-.36.04-.35.04-.35.03-.36.03-.35.03-.36.03-.35.03-.36.03-.36.02-.36.02-.36.02-.35.02-.36.02-.37.01-.36.01h-.06l-.3.01h-.36l-.36.01h-.37l-.36.01H279.03l-.36-.01h-.37l-.36-.02-.36-.01-.36-.01-.36-.02-.36-.02-.36-.02-.36-.02-.36-.02-.35-.03-.36-.02-.36-.03-.35-.03-.36-.03-.35-.04-.35-.04-.36-.03-.35-.04-.35-.04-.35-.05-.35-.04-.35-.05-.35-.05-.35-.05-.35-.05-.34-.06-.35-.05-.34-.06-.35-.06-.34-.06-.34-.07-.35-.06-.34-.07-.34-.07-.34-.07-.34-.07-.33-.07-.34-.08-.34-.07-.34-.08-.33-.08-.33-.08-.34-.09-.05-.01-.28-.07-.33-.1-.33-.08-.33-.1-.33-.09-.33-.09-.33-.1-.32-.1-.33-.1-.32-.1-.33-.1-.32-.1-.32-.1-.32-.12-.32-.1-.32-.11-.32-.12-.32-.11-.31-.12-.32-.11-.31-.12-.31-.12-.32-.12-.3-.13-.32-.12-.3-.13-.31-.13-.31-.13-.3-.13-.31-.13-.3-.13-.3-.14-.31-.14-.3-.14-.3-.14-.3-.14-.3-.14-.3-.14-.29-.15-.3-.15-.29-.15-.29-.15-.29-.15-.29-.15-.29-.16-.28-.15-.29-.16-.29-.16-.28-.16-.28-.16-.28-.17-.28-.16-.28-.17-.28-.16-.28-.17-.27-.17-.28-.17-.27-.18-.27-.17-.27-.18-.27-.17-.27-.18-.27-.18-.26-.18-.27-.19-.26-.18-.26-.19-.26-.18-.26-.2-.26-.18-.25-.19-.26-.2-.25-.19-.26-.19-.25-.2-.25-.2-.24-.19-.25-.2-.25-.2-.24-.2-.24-.2-.24-.2-.24-.22-.24-.2-.24-.21-.24-.2-.23-.22-.23-.21-.23-.22-.23-.2-.23-.22-.23-.22-.22-.22-.23-.22-.22-.22-.22-.22-.22-.22-.22-.23-.22-.22-.21-.23-.21-.22-.22-.23-.2-.23-.21-.23-.21-.23-.2-.24-.21-.23-.2-.23-.2-.24-.2-.24-.2-.24-.2-.23-.2-.24-.18-.25-.2-.24-.19-.24-.18-.25-.19-.24-.18-.25-.19-.25-.18-.25-.18-.25-.17-.25-.18-.25-.17-.25-.18-.25-.17-.26-.17-.26-.16-.25-.17-.26-.16-.26-.17-.26-.16-.26-.15-.26-.16-.26-.16-.27-.15-.26-.15-.27-.15-.26-.15-.27-.14-.27-.15-.27-.14-.27-.14-.27-.13-.26v-.01l-.14-.27-.14-.28-.13-.27-.13-.28-.13-.27-.13-.28-.12-.28-.12-.28-.12-.28-.12-.28-.12-.28-.11-.28-.12-.28-.1-.29-.12-.28-.1-.29-.1-.28-.11-.29-.1-.29-.1-.29-.1-.29-.1-.29-.09-.29-.09-.29-.09-.29-.08-.3-.09-.29-.08-.29-.08-.3-.08-.29-.07-.3-.08-.3-.07-.3-.07-.29-.07-.3-.06-.3-.06-.3-.07-.3-.05-.3-.06-.3-.06-.3-.05-.3-.05-.31-.05-.3-.04-.31-.04-.3-.05-.31-.03-.31-.04-.3-.04-.32-.03-.3-.03-.31-.03-.31-.02-.31-.02-.31-.02-.31-.02-.31-.02-.32-.01-.3-.01-.32-.01-.31v-.32l-.01-.31v-1.26l.01-.3v-.32l.02-.31.02-.31.01-.31.02-.31.02-.31.03-.31.02-.31.03-.31.03-.3.03-.32.04-.3.04-.31.04-.3.04-.32.04-.3.05-.3.05-.31.05-.3.05-.31.06-.3.06-.31.06-.3.06-.3.06-.31.07-.3.07-.3.07-.3.07-.3.08-.3.08-.3.08-.3.08-.3.09-.3.08-.3.1-.3.08-.29.1-.3.1-.29.09-.29.1-.3.1-.29.1-.29.11-.29.1-.29.12-.29.11-.29.11-.29.12-.29.12-.28.12-.29.12-.29.13-.28.13-.29.13-.28.13-.28.13-.28.14-.28.13-.28.14-.28.14-.28.15-.28.14-.28.15-.27.15-.28.15-.28.16-.27.15-.27.16-.27.16-.28.16-.27.16-.26.17-.27.17-.27.17-.27.17-.26.17-.27.18-.26.18-.27.18-.26.18-.26.18-.26.19-.26.18-.25.2-.26.18-.26.2-.25.19-.26.2-.25.2-.25.2-.25.2-.25.2-.25.2-.25.22-.25.2-.24.22-.25.21-.24.22-.24.21-.24.22-.24.22-.24.23-.24.22-.23.23-.24.23-.23.23-.24.1-.1.13-.13.23-.23.24-.23.23-.23.24-.22.24-.23.25-.22.24-.23.25-.22.25-.22.25-.22.17-.15-15.54-33.42-.15-.4-.07-.41v-.42l.06-.42.13-.4.2-.36.26-.34.31-.28.35-.22.39-.17.4-.1.42-.02.42.05.4.11.37.18.34.24 3.84 3.2-.13.15 27.28 22.52.1-.04.34-.11.33-.11.34-.11.33-.1.34-.11.34-.1.34-.1.34-.1.34-.1.34-.1.34-.1.34-.08.35-.1.34-.08.34-.09.35-.08.34-.08.35-.08.34-.08.35-.08.35-.07.35-.07.34-.07.35-.07.35-.07.35-.07.35-.06.35-.06.35-.06.36-.05.35-.06.35-.05.35-.05.36-.05.35-.05.35-.05.36-.04.35-.04.36-.04.35-.04.36-.04.35-.03.36-.03.36-.03.35-.03.36-.03.36-.02.35-.02.36-.02.36-.02.36-.02.36-.01.35-.02h.36l.36-.02h.72l.36-.01H280.47l.36.01.36.01.35.01.36.02.35.01.36.02.35.02.35.02.36.02.35.02.35.03.35.02.35.03.35.03.35.04.34.03.35.04.35.04.34.04.35.04.34.04.35.05.34.05.34.05.35.05.34.05.34.05.34.06.34.06.33.06.34.06.34.06.33.07.34.06.33.07.34.07.33.07.33.08.33.07.33.08.33.08.33.08.33.08.33.08.32.09.33.08.32.1.33.08.32.1.32.09.32.1.32.09.32.1.32.1.32.1.31.1.32.1.31.11.32.1.3.12.32.1.31.12.31.11.31.12.3.12.31.11.31.12.3.13.3.12.31.12.3.13.3.13.3.13.3.13.3.13.3.13.3.14.29.13.3.14.28.14.3.14.29.14.28.15.3.14.28.15.29.15.28.15.28.15.29.15.28.15.28.16.28.15.27.16.28.16.28.16.27.16.27.17.28.16.27.17.27.16.26.17.27.17.27.17.26.18.26.17.26.18.27.17.26.18.25.18.26.18.26.18.25.18.25.19.25.18.26.2.13.1.11.08.25.19.25.19.24.19.25.2.24.19.24.2.24.19.24.2.23.2.24.2.23.2.24.2.23.2.23.21.23.2.22.21.23.21.22.21.23.21.22.22.22.2.21.22.22.22.22.21.21.22.21.22.21.22.21.22.21.22.2.23.21.22.2.23.2.22.2.23.2.23.2.23.2.23.2.23.18.23.2.24.18.23.19.24.19.23.18.24.18.24.18.24.18.24.18.24.18.24.17.25.17.24.17.25.17.25.17.24.17.25.16.25.16.25.16.25.16.25.16.26.15.25.16.26.15.25.15.26.15.26.14.26.15.25.14.26.14.27.14.26.14.26.13.26.14.27.13.26.13.27.13.27.13.27.12.26.12.27.12.27.12.27.12.28.11.27.12.27.1.28.12.27.1.28.11.27.1.28.1.28.1.28.1.28.1.28.1.28.08.28.1.28.08.28.09.29.08.28.08.29.08.28.08.29.07.28.08.29.07.29.07.29.07.29.06.29.06.29.06.29.06.29.06.3.05.29.06.29.05.3.04.29.05.3.04.29.05.3.04.3.03.29.04.3.03.3.03.3.03.3.03.3.02.3.02.3.02.3.02.3.01.3.02.3v.31l.02.3v1.22l.02.3zm-3.26-.86v-.28l-.02-.28V226.34l-.02-.25-.02-.28-.01-.28-.02-.27-.02-.28-.03-.28-.02-.27-.03-.28-.03-.27-.03-.27-.04-.28-.03-.27-.04-.27-.04-.28-.04-.27-.05-.27-.04-.27-.05-.27-.05-.27-.05-.27-.05-.26-.06-.27-.06-.27-.06-.27-.06-.26-.06-.27-.06-.26-.07-.27-.07-.26-.07-.26-.07-.26-.08-.27-.07-.26-.08-.26-.08-.26-.08-.26-.09-.25-.08-.26-.09-.26-.09-.26-.1-.25-.08-.26-.1-.25-.1-.26-.1-.25-.1-.25-.1-.25-.1-.25-.1-.26-.11-.25-.11-.24-.11-.25-.11-.25-.12-.25-.11-.24-.12-.25-.12-.24-.12-.25-.12-.24-.13-.24-.12-.25-.13-.24-.13-.24-.13-.24-.14-.23-.13-.24-.14-.24-.14-.24-.14-.23-.14-.24-.14-.23-.14-.23-.15-.24-.15-.23-.15-.23-.15-.23-.15-.23-.16-.23-.15-.22-.16-.23-.16-.22-.16-.23-.16-.22-.16-.23-.17-.22-.17-.22-.16-.22-.17-.22-.18-.22-.17-.22-.17-.21-.18-.22-.18-.21-.18-.22-.18-.21-.18-.21-.18-.21-.19-.21-.18-.21-.2-.21-.18-.2-.2-.21-.18-.2-.2-.21-.2-.2-.19-.2-.2-.21-.2-.2-.2-.2-.2-.2-.2-.2-.2-.2-.21-.19-.21-.2-.21-.18-.21-.2-.21-.19-.22-.19-.21-.19-.22-.18-.21-.19-.22-.19-.22-.18-.22-.18-.23-.19-.22-.18-.23-.18-.22-.18-.23-.17-.23-.18-.23-.18-.23-.17-.23-.17-.1-.08-.14-.1-.23-.17-.24-.17-.24-.17-.24-.16-.24-.17-.24-.17-.24-.16-.24-.16-.25-.16-.24-.16-.25-.16-.25-.16-.25-.16-.25-.15-.25-.16-.26-.15-.25-.15-.26-.15-.25-.15-.26-.15-.26-.15-.26-.14-.26-.14-.26-.15-.26-.14-.27-.14-.26-.14-.27-.14-.27-.13-.27-.14-.27-.13-.27-.13-.27-.13-.27-.13-.27-.13-.28-.13-.27-.12-.28-.13-.28-.12-.28-.12-.28-.12-.28-.12-.28-.12-.28-.11-.29-.12-.28-.11-.29-.11-.28-.11-.3-.11-.28-.1-.29-.11-.29-.1-.29-.11-.3-.1-.28-.1-.3-.1-.3-.1-.29-.1-.3-.09-.3-.1-.29-.08-.3-.1-.3-.08-.3-.09-.3-.08-.3-.09-.3-.08-.3-.08-.31-.08-.3-.08-.32-.07-.3-.08-.31-.07-.3-.07-.32-.07-.3-.07-.32-.06-.31-.07-.31-.06-.32-.06-.31-.06-.31-.06-.32-.06-.31-.05-.32-.06-.32-.05-.32-.05-.32-.05-.31-.05-.32-.04-.33-.04-.32-.05-.32-.04-.32-.04-.32-.03-.33-.04-.32-.03-.33-.03-.32-.03-.33-.03-.33-.03-.33-.03-.32-.02-.33-.02-.33-.02-.33-.02-.33-.02-.33-.01-.33-.01-.33-.01-.34-.01-.33-.01h-.33l-.34-.01H279.08l-.33.01h-.34l-.33.02-.34.01-.33.02-.34.01-.33.02-.34.02-.33.02-.34.02-.33.03-.33.03-.34.02-.33.03-.33.04-.34.03-.33.04-.33.03-.33.04-.33.04-.33.05-.33.04-.33.05-.33.05-.33.05-.33.05-.33.05-.33.06-.32.06-.33.05-.33.07-.32.06-.33.06-.32.07-.33.07-.32.07-.32.07-.33.07-.32.08-.32.07-.32.08-.32.08-.32.08-.32.09-.32.08-.32.1-.31.08-.32.1-.32.08-.31.1-.32.1-.3.1-.32.09-.32.1-.3.1-.32.1-.3.12-.32.1-.3.11-.31.11-.31.12-.31.11-.38.1-.38.04-.4-.03-.37-.1-.35-.15-.32-.22-23.74-19.39 11.93 25.32.16-.07.16.41.09.44.01.45-.06.44-.14.43-.2.4-.26.36-.33.31-.24.2-.23.19-.23.2-.23.19-.22.2-.23.2-.22.2-.22.19-.22.2-.22.2-.22.2-.21.2-.22.21-.2.2-.22.21-.2.21-.21.2-.11.13-.1.09-.2.2-.2.22-.2.21-.2.21-.2.22-.19.21-.2.22-.18.21-.2.22-.18.22-.19.22-.18.22-.18.22-.18.22-.18.22-.18.23-.17.22-.18.23-.17.22-.17.23-.17.23-.16.22-.17.23-.16.23-.16.23-.16.23-.16.24-.15.23-.16.23-.15.24-.15.23-.15.24-.15.23-.14.24-.14.24-.15.23-.14.24-.13.24-.14.24-.13.24-.14.24-.13.25-.12.24-.13.24-.13.25-.12.24-.12.25-.12.24-.12.25-.11.24-.12.25-.1.25-.12.25-.1.25-.11.25-.1.25-.11.25-.1.25-.1.25-.1.25-.1.25-.09.26-.09.25-.09.26-.09.25-.08.25-.09.26-.08.26-.08.25-.08.26-.07.26-.08.25-.07.26-.07.26-.07.26-.06.26-.07.26-.06.26-.06.26-.06.26-.06.26-.05.26-.06.26-.05.26-.05.27-.04.26-.05.26-.04.26-.04.27-.04.26-.04.27-.04.26-.03.26-.03.27-.03.26-.03.27-.02.27-.03.26-.02.27-.02.26-.02.27-.01.27-.02.26v.27l-.02.27v.27l-.01.26v1.62l.02.27v.27l.02.27.01.27.02.27.02.26.02.27.02.27.03.26.02.27.03.27.03.26.03.26.04.27.03.26.04.26.04.27.04.26.05.26.04.26.05.26.05.26.05.26.06.26.05.25.06.26.06.26.06.26.06.25.06.26.07.25.07.25.07.26.07.25.07.25.08.26.08.25.07.25.08.25.09.25.08.24.09.25.09.25.08.25.1.24.09.25.1.24.1.25.09.24.1.25.1.24.1.24.1.24.12.24.1.24.11.24.12.24.11.24.12.23.11.24.12.24.12.23v.01l.12.23.13.23.12.23.13.23.13.24.13.23.13.23.13.23.14.23.13.22.14.23.14.23.14.22.14.23.15.22.15.22.14.23.15.22.15.22.16.22.15.22.15.22.16.22.16.21.16.22.16.21.17.22.16.21.17.21.16.22.17.2.17.22.18.2.17.21.17.21.18.2.18.21.18.2.18.21.18.2.19.2.18.2.19.2.19.2.18.2.2.2.19.2.2.2.19.19.2.2.2.19.2.19.2.19.2.19.2.19.2.18.2.19.22.19.2.18.21.18.22.19.2.18.22.18.22.18.21.18.22.17.22.18.22.17.22.18.23.17.22.17.23.17.22.17.23.17.23.17.23.16.23.17.24.16.23.17.24.16.23.16.24.16.24.16.24.15.24.16.24.15.25.16.24.15.25.15.24.15.25.15.25.15.25.14.25.15.26.14.25.14.26.15.25.14.26.13.26.14.26.14.26.13.26.14.26.13.26.13.27.13.26.13.27.12.27.13.27.13.26.12.28.12.27.12.27.12.27.12.28.12.27.11.28.11.28.12.28.1.27.12.28.1.29.11.28.1.28.11.28.1.29.1.29.1.28.1.29.1.29.1.29.1.29.09.29.09.3.09.28.08.3.1.3.08.29.08.3.08.29.08.3.08.3.08.3.08.25.06.04.01.3.08.3.07.3.07.31.07.3.07.31.06.3.07.31.06.3.06.31.06.31.06.31.06.31.05.31.06.31.05.31.05.32.05.31.04.31.05.32.04.31.05.32.04.32.04.31.03.32.04.32.03.32.04.32.03.32.02.32.03.32.03.32.02.32.02.33.03.32.01.32.02.33.02.32.01.33.01.33.01.32.01h.33l.33.01H281.07l.33-.02h.33l.32-.02.33-.01.32-.02.33-.02.32-.02.32-.02.33-.02.32-.02.32-.03.32-.02.32-.03.32-.03.32-.03.32-.04.32-.03.32-.04.31-.04.32-.04.31-.04.32-.05.31-.04.32-.05.3-.05.32-.05.31-.05.31-.05.31-.06.31-.05.3-.06.32-.06.3-.06.31-.07.3-.06.31-.07.3-.06.3-.07.31-.07.3-.08.3-.07.3-.07.3-.08.3-.08.3-.08.3-.08.3-.08.29-.08.3-.08.28-.09.3-.09.29-.09.3-.09.28-.09.3-.09.28-.1.29-.1.28-.09.3-.1.28-.1.27-.1h.01l.28-.1.29-.1.28-.1.28-.11.28-.1.28-.12.28-.1.28-.12.27-.11.28-.11.27-.12.28-.12.27-.12.27-.11.27-.12.27-.13.27-.12.26-.12h.01l.27-.13.26-.12.27-.13.26-.13.27-.13.26-.13.26-.13.26-.13.26-.14.26-.13.26-.14.26-.14.25-.14.26-.14.25-.14.25-.14.25-.15.25-.14.25-.15.25-.15.25-.15.24-.15.25-.15.24-.15.24-.16.24-.15.24-.16.24-.16.24-.16.24-.16.23-.16.23-.16.24-.16.23-.17.23-.16.16-.12.07-.05.23-.17.23-.16.23-.17.22-.17.23-.17.22-.17.22-.17.23-.18.22-.17.22-.18.21-.17.22-.18.22-.18.21-.18.21-.18.21-.18.21-.19.21-.18.21-.19.2-.18.21-.19.2-.19.2-.19.2-.19.2-.19.2-.2.2-.19.2-.2.2-.19.19-.2.19-.2.19-.19.19-.2.18-.2.19-.2.18-.2.19-.2.18-.21.18-.2.18-.22.17-.2.18-.21.17-.21.18-.21.17-.21.17-.22.17-.2.16-.22.17-.22.16-.21.17-.22.16-.22.16-.22.15-.22.16-.22.16-.22.15-.22.15-.22.15-.23.15-.22.15-.23.14-.23.15-.22.14-.23.14-.23.1-.17.04-.06.14-.23.14-.23.14-.23.13-.23.14-.23.13-.24.13-.23.13-.24.13-.23.12-.24.13-.24.12-.23.12-.24.12-.24.12-.24.11-.25.12-.24.11-.24.11-.24.11-.25.1-.25.11-.24.1-.25.11-.25.1-.25.1-.24.1-.26.1-.25.09-.25.09-.25.09-.25.09-.26.08-.25.09-.26.08-.25.08-.26.08-.26.08-.26.07-.26.08-.26.07-.26.07-.26.07-.26.06-.26.07-.27.06-.26.06-.27.06-.26.04-.22.01-.05.06-.26.06-.27.05-.27.05-.27.05-.27.05-.27.04-.27.05-.27.04-.27.04-.27.04-.28.03-.27.04-.28.03-.27.03-.28.02-.28.03-.27.02-.28.03-.28.01-.28.02-.27v-.01l.02-.29v-.55z"/></svg>