<svg viewBox="0 0 477 300" xmlns="http://www.w3.org/2000/svg" fill-rule="evenodd" clip-rule="evenodd" stroke-linejoin="round" stroke-miterlimit="1.41"><path fill="none" d="M.37.35h476.12v299.64H.37z"/><ellipse cx="65.47" cy="280.86" rx="19.38" ry="13.29" fill="#b8b8b8"/><path d="M65.23 268.82H65l-.24.01-.24.01-.23.02-.24.01-.23.02-.24.02-.23.02-.23.03-.23.02-.23.03-.23.03-.23.03-.22.03-.23.04-.22.03-.22.04-.22.04-.22.05-.22.04-.22.04-.22.05-.21.05-.22.05-.21.06-.21.05-.21.06-.21.05-.21.06-.2.06-.21.07-.2.06-.2.07-.2.06-.2.07-.2.07-.2.08-.2.07-.19.07-.19.08-.19.08-.19.08-.18.08-.19.08-.18.08-.18.09-.1.05-.08.04-.18.08-.17.1-.18.08-.17.1-.17.09-.17.1-.17.09-.16.1-.17.1-.16.09-.16.1-.16.1-.15.1-.16.1-.15.11-.15.1-.14.11-.15.11-.14.11-.15.11-.14.11-.13.11-.14.11-.13.12-.13.11-.13.12-.13.11-.12.12-.12.12-.12.12-.12.12-.12.12-.11.12-.11.12-.11.12-.1.12-.11.13-.1.12-.1.13-.1.12-.1.13-.08.13-.1.12-.08.13-.09.13-.08.13-.08.13-.08.13-.07.13-.08.13-.07.13-.07.13-.06.13-.06.13-.07.14-.05.13-.06.13-.05.13-.05.14-.05.13-.05.14-.04.13-.04.14-.04.13-.04.14-.03.14-.02.06-.01.07-.02.07-.01.07-.02.06v.07l-.02.07-.01.07-.01.07-.02.07v.07l-.01.07-.01.06-.01.07v.07l-.01.07v.07l-.02.07V280.37l-.01.07V281.14l.01.07v.07l.01.07.01.07v.07l.01.07.01.06.01.07.01.07.01.07.01.07.01.07.01.06.02.07v.07l.02.07.02.07.01.06.02.07.01.07.02.06.02.07.02.07.01.06.04.14.05.13.04.13.04.13.05.14.05.13.06.13.05.13.06.13.06.12.06.13.07.13.07.13.07.12.07.13.07.13.08.12.08.13.08.12.08.12.09.13.09.12.09.12.09.12.1.12.1.12.1.12.1.12.1.12.1.12.11.11.11.12.12.11.11.12.12.1.12.12.12.11.13.11.12.11.13.11.13.11.13.1.14.11.13.1.14.11.14.1.13.1h.01l.15.1.14.1.15.1.15.1.15.1.16.1.15.1.16.08.16.1.16.09.16.09.17.09.16.08.17.09.17.08.17.09.18.08.17.08.18.08.18.08.17.07.19.08.18.07.18.07.19.07.19.07.19.07.19.07.19.06.2.07.19.06.2.06.19.06.2.05.2.06.2.05.2.06.2.05.21.04.2.05.22.05.2.04.22.04.2.04.22.04.21.04.22.03.21.04.22.03.22.03.22.03.22.02.22.03.22.02.22.02.22.02.23.02.22.01.23.01.23.01.22.01.23.01h.23l.23.01h.93l.23-.01.23-.01.23-.01.23-.02.22-.01.23-.02.23-.01.22-.02.22-.03.23-.02.22-.03.22-.02.22-.03.22-.03.22-.04.21-.03.22-.04.21-.04.22-.04.2-.04.22-.04.2-.05.22-.05.2-.04.2-.05.21-.06.2-.05.2-.05.2-.06.2-.06.2-.06.2-.06.2-.06.19-.07.2-.06.18-.07.19-.07.19-.07.18-.07.19-.07.18-.08.18-.07.18-.08.18-.08.17-.08.18-.08.17-.08.17-.09.17-.08.17-.09.16-.08.17-.1.16-.08.16-.1.16-.09.15-.09.16-.1.15-.09.15-.1.13-.08.02-.01.15-.1.14-.1.15-.1.14-.1.13-.1.14-.1.14-.1.13-.1.13-.11.13-.11.12-.1.13-.11.12-.11.12-.11.12-.11.11-.11.12-.11.1-.11.12-.12.1-.1.1-.12.11-.12.1-.11.1-.12.1-.11.09-.12.09-.11.09-.12.08-.12.09-.12.08-.11.08-.12.07-.12.08-.12.07-.12.07-.12.07-.12.06-.12.07-.12.06-.12.06-.12.05-.12.06-.12.05-.12.05-.12.04-.12.05-.12.04-.13.04-.12.04-.12.03-.12.04-.13.03-.12.01-.06.02-.06.01-.06.01-.06.02-.07v-.06l.02-.06.01-.06.01-.06v-.06l.02-.07v-.06l.02-.06v-.12l.02-.07v-.12l.01-.06v-.13l.01-.06V280.54l-.01-.06v-.12l-.01-.07-.01-.06v-.06l-.01-.06-.01-.06-.01-.07-.01-.06-.01-.06-.01-.06-.01-.06-.01-.06-.01-.06-.02-.07v-.06l-.02-.06-.02-.06-.01-.06-.02-.06-.01-.06-.02-.06-.03-.12-.04-.12-.04-.12-.04-.12-.04-.12-.05-.12-.04-.12-.05-.12-.05-.12-.06-.12-.05-.12-.06-.11-.06-.12-.07-.12-.05-.08-.01-.04-.07-.11-.07-.12-.07-.12-.07-.11-.08-.12-.08-.11-.08-.12-.08-.12-.09-.1-.08-.12-.1-.12-.09-.11-.09-.11-.1-.12-.1-.1-.1-.12-.1-.1-.1-.12-.11-.1-.11-.12-.1-.1h-.01l-.11-.11-.12-.11-.12-.11-.11-.1-.13-.11-.12-.1-.12-.11-.13-.1-.04-.04-.09-.07-.13-.1-.13-.11-.14-.1-.13-.1-.14-.11-.14-.1-.14-.1-.04-.03-.1-.07-.15-.1-.15-.1-.14-.1-.15-.1-.16-.1-.15-.1-.16-.1-.15-.09-.16-.09-.17-.1-.16-.08-.17-.1-.16-.08-.15-.08-.02-.01-.17-.1-.17-.09-.17-.09-.18-.09-.17-.09-.18-.08-.18-.09-.18-.08-.19-.09-.18-.08-.19-.08-.19-.08-.19-.08-.19-.07-.2-.08-.19-.07-.2-.07-.2-.07-.2-.07-.2-.07-.2-.07-.2-.06-.2-.07-.16-.04-.06-.02-.2-.07-.21-.06-.21-.07-.22-.06-.21-.06-.22-.06-.21-.06-.22-.06-.22-.05-.22-.05-.23-.06-.22-.04-.23-.05-.22-.05-.23-.04-.2-.04h-.03l-.23-.05-.23-.05-.24-.04-.23-.04-.24-.04-.24-.03-.16-.03h-.32zm.5-2.53l.27-.03.26-.03.26-.03.26-.02.26-.02.26-.02h.04l.22-.01h.26l.26-.01h1.28l.26.01.25.01.25.01.26.02.25.01.25.02.26.03.25.02h.07l.18.03.24.04.25.03.25.04.24.05.24.04.25.05.24.05.24.05.24.05.24.06.24.05.23.06.24.06.23.07.23.06.24.07.23.07.23.07.22.07.23.08.23.08.22.08.22.08h.04l.18.09.22.09.22.1.21.09.21.1.21.1.21.1.21.1.2.1.21.11.2.11.2.11.2.11.2.12.15.09.05.03.2.12.18.12.2.13.18.12.18.13.19.13.18.14.13.1.05.03.17.14.18.14.17.14.16.14.17.15.17.15.16.15.16.15.01.01.15.14.15.15.15.16.15.16.15.16.14.16.14.17.14.16.14.17.13.17.14.17.13.17.12.17.13.18.12.17.12.18.11.18.11.18.11.18.11.19.1.18.03.05.08.14.1.19.09.19.09.2.09.18.08.2.08.2.08.2.08.19.07.2.07.2.06.2.06.2.06.21.05.2.03.1.02.11.03.1.02.11.02.1.02.1.02.11.02.1.02.11.02.11.01.1.02.11.01.1.02.11.01.11.01.1.01.11.01.11.01.1.01.12v.1l.01.11v.1l.01.12v.86l-.01.11v.1l-.02.12v.1l-.01.11-.01.1-.02.11v.11l-.02.1-.02.11-.01.1-.02.12-.01.1-.02.1-.02.11-.02.1-.02.1-.02.11-.03.1-.02.11-.02.1-.03.1-.03.11-.02.1-.06.2-.06.2-.07.21-.06.2-.07.2-.08.2-.08.2-.08.19-.08.2-.09.18-.09.2-.1.18-.09.19-.1.19-.1.18-.1.18-.12.18-.1.18-.12.18-.12.18-.12.17-.12.18-.13.17-.12.17-.13.17-.14.16-.13.17-.14.16-.14.16-.14.16-.15.16-.15.16-.15.16-.15.15-.15.15-.16.15-.16.15-.16.15-.16.14-.17.15-.17.14-.17.14-.17.14-.17.13-.18.14-.18.13-.18.13-.18.13-.18.13-.19.13-.19.12-.19.12-.19.12-.03.02-.16.1-.2.12-.2.12-.2.1-.2.12-.2.11-.2.1-.2.12-.22.1-.2.1-.22.1-.2.1-.22.1-.22.1-.22.09-.21.09-.22.09-.23.09-.22.08-.22.09-.23.08-.23.08-.23.08-.23.07-.23.08-.23.07-.24.07-.23.07-.24.07-.24.06-.24.06-.24.07-.24.05-.24.06-.25.06-.24.05-.25.05-.25.05-.25.04-.25.05-.25.04-.25.04-.25.04-.26.03-.25.04-.26.03-.26.03-.25.03-.26.02-.26.02-.26.02-.27.02-.26.02-.26.01-.27.01-.26.01h-.27l-.26.01h-1.35l-.26-.02-.27-.01-.26-.02-.27-.01-.26-.02-.26-.02-.26-.03-.26-.02-.26-.03-.26-.03-.26-.03-.26-.03-.25-.04-.25-.04-.26-.04-.25-.04-.25-.05-.25-.04-.25-.05-.25-.05-.24-.05-.25-.06-.24-.06-.24-.06-.25-.06-.24-.06-.23-.06-.24-.07-.24-.07-.23-.07-.23-.07-.24-.08-.23-.07-.22-.08-.23-.08-.23-.08-.22-.09-.23-.08-.22-.09-.22-.09-.21-.1-.22-.08-.22-.1-.2-.1-.22-.1-.21-.1-.2-.1-.22-.1-.2-.1-.2-.1-.2-.12-.2-.1-.2-.12-.2-.11-.2-.12-.19-.11-.19-.12-.19-.12-.18-.12-.19-.13-.18-.12-.18-.13-.18-.13-.18-.13-.17-.13h-.01l-.16-.13-.17-.14-.17-.13-.17-.14-.16-.14-.17-.14-.16-.14-.15-.14-.16-.15-.15-.15-.15-.14-.15-.15-.15-.15-.14-.16-.14-.15-.14-.15-.14-.16-.13-.16-.13-.16-.13-.16-.13-.16-.12-.17-.13-.16-.11-.17-.12-.17-.11-.16-.11-.18-.11-.17-.1-.17-.1-.18-.1-.17-.1-.18-.1-.18-.09-.18-.09-.18-.08-.18-.08-.18-.08-.19-.08-.18-.07-.19-.07-.19-.07-.18-.06-.2-.06-.18-.05-.2-.06-.19-.05-.19-.02-.1-.02-.1-.02-.1-.02-.1-.02-.09-.02-.1-.02-.1-.02-.1-.02-.1-.01-.1-.02-.1v-.09l-.02-.1-.01-.1-.02-.1v-.1l-.01-.1-.01-.1-.01-.1v-.1l-.01-.1v-.1l-.01-.1V280.46l.01-.1.01-.1v-.1l.02-.1v-.1l.02-.1v-.1l.02-.1.01-.1.02-.1.01-.1.02-.1.01-.1.02-.1.02-.1.02-.1.02-.1.02-.09.02-.1.02-.1.03-.09.02-.1.03-.1.02-.1.06-.18.05-.19.06-.19.07-.18.07-.19.07-.18.07-.19.08-.18.08-.18.08-.18.09-.18.09-.18.09-.17.1-.18.09-.17.1-.17.1-.17.1-.17.12-.17.1-.17.12-.16.12-.16.12-.17.12-.16.12-.16.13-.15.13-.16.13-.15.14-.16.13-.15.14-.15.14-.15.15-.14.14-.15.15-.14.15-.15.15-.14.16-.14.15-.13.16-.14.17-.13.16-.14.16-.13.17-.13.17-.13.17-.12.17-.13.18-.12.18-.12.18-.12.18-.12.18-.12.18-.12.2-.11.18-.11.19-.11.2-.11.19-.1.2-.11.19-.1.2-.1.2-.1.2-.1.2-.1.2-.1.22-.1.08-.03.12-.05.21-.1.22-.08.2-.09.22-.08.22-.08.22-.08.22-.08.22-.08.22-.08.22-.07.23-.07.22-.07.23-.07.23-.06.23-.07.23-.06.23-.06.24-.06.23-.05.24-.06.23-.05.24-.05.24-.05.24-.04.24-.05.25-.04.24-.04.25-.04.24-.03.25-.04.25-.03.25-.03.25-.02.25-.03.25-.02.25-.02.25-.02.26-.02.25-.01.26-.02h.26l.25-.02h1.31l.08-.01.17-.02z"/><ellipse cx="111.41" cy="280.98" rx="19.38" ry="13.29" fill="#b8b8b8"/><path d="M111.17 268.93h-.16l-.08.01h-.23l-.24.02-.24.02-.23.01-.24.02-.23.02-.23.02-.23.02-.23.03-.23.02-.23.03-.23.04-.22.03-.23.03-.22.04-.23.04-.22.04-.22.04-.22.04-.21.05-.22.05-.22.05-.21.05-.21.05-.21.06-.22.05-.2.06-.21.06-.2.06-.21.06-.2.07-.2.06-.2.07-.2.07-.2.07-.2.07-.2.07-.19.08-.19.08-.19.07-.19.08-.18.08-.19.09-.18.08-.18.09-.11.05-.07.03-.18.09-.18.09-.17.09-.17.09-.17.1-.17.09-.17.1-.17.09-.16.1-.16.1-.16.1-.16.1-.15.1-.16.1-.15.1-.15.11-.15.1-.14.12-.15.1-.14.11-.14.12-.14.1-.13.12-.13.11-.13.12-.13.11-.13.12-.12.12-.13.11-.12.12-.11.12-.12.12-.11.12-.11.13-.11.12-.1.12-.11.12-.1.13-.1.12-.1.13-.1.13-.09.12-.09.13-.08.13-.09.13-.08.12-.08.13-.08.13-.08.13-.07.13-.07.13-.07.14-.06.13-.07.13-.06.13-.06.13-.05.14-.06.13-.05.14-.05.13-.04.13-.05.14-.04.13-.03.14-.04.13-.04.14-.01.07-.02.07-.01.06-.02.07v.07l-.02.07-.01.07-.02.07v.07l-.02.06v.07l-.02.07v.07l-.01.07v.07l-.02.07v.14l-.01.07v.14l-.01.07V281.26l.01.07v.07l.01.07v.06l.01.07.01.07.01.07v.07l.02.07v.07l.02.07v.06l.02.07.01.07.02.07.01.07.02.06.01.07.02.07.01.06.02.07.02.07.01.07.02.06.04.13.04.14.05.13.04.13.05.13.05.13.05.13.06.13.06.13.06.13.06.13.07.13.06.12.07.13.08.13.07.12.08.13.08.12.08.13.08.12.09.12.08.13.1.12.09.12.1.12.09.12.1.12.1.12.1.11.11.12.11.12.11.11.12.12.11.11.12.12.12.1.12.12.12.1.13.12.13.1.13.12.13.1.13.1.14.11.14.1.14.11.13.1.15.1.15.1.15.1.15.1.15.1.15.1.16.09.16.1.16.08.16.1.16.08.16.1.17.08.17.09.17.08.17.08.17.09.18.08.17.08.18.07.18.08.18.07.19.08.18.07.19.07.18.07.2.07.18.06.2.07.19.06.2.06.19.06.2.06.2.06.2.06.2.05.2.05.2.05.21.05.2.05.21.04.21.05.21.04.21.04.22.04.21.04.21.03.22.03.22.04.21.03.22.02.22.03.22.02.23.03.22.02.22.02.23.01.22.02.23.01.22.01.23.01h.23l.23.01h1.38l.23-.02h.23l.23-.02.23-.01.23-.02.22-.02.23-.02.22-.02.22-.02.23-.03.22-.03.22-.03.21-.03.22-.03.22-.04.21-.03.22-.04.21-.04.21-.04.22-.05.2-.04.21-.05.21-.05.2-.05.21-.05.2-.05.2-.06.2-.05.2-.06.2-.06.2-.06.2-.07.19-.06.19-.07.19-.06.19-.07.18-.07.2-.07.17-.08.19-.07.18-.08.18-.07.17-.08.18-.08.18-.08.17-.09.17-.08.17-.08.17-.1.16-.08.17-.09.16-.09.16-.09.16-.09.15-.1.16-.09.15-.1.15-.09.12-.08.03-.01.14-.1.15-.1.14-.1.14-.1.14-.1.14-.1.13-.1.14-.11.13-.1.13-.11.12-.11.13-.1.12-.12.12-.1.12-.11.11-.12.11-.1.12-.12.1-.11.11-.11.1-.12.1-.11.1-.11.1-.12.1-.11.1-.12.08-.12.1-.11.08-.12.08-.12.08-.12.08-.11.08-.12.08-.12.07-.12.07-.12.07-.12.06-.12.06-.12.06-.12.06-.12.06-.12.05-.12.05-.12.05-.13.05-.12.05-.12.04-.12.04-.12.04-.12.03-.13.03-.12.04-.13.01-.05.01-.06.02-.07.01-.06.01-.06.02-.06v-.06l.02-.06v-.07l.02-.06v-.06l.01-.06.01-.06.01-.07v-.06l.01-.06v-.06l.01-.06v-.07l.01-.06v-.13l.01-.06V280.66l-.01-.06v-.06l-.01-.07v-.06l-.01-.06-.01-.06v-.07l-.02-.06v-.06l-.01-.06-.01-.06-.01-.06-.01-.06-.01-.07-.02-.06v-.06l-.02-.06-.01-.06-.02-.06-.01-.06-.02-.06-.01-.06-.02-.06-.03-.13-.04-.12-.04-.12-.04-.12-.04-.12-.05-.12-.05-.11-.05-.12-.05-.12-.05-.12-.06-.12-.06-.12-.06-.12-.06-.11-.05-.09-.02-.03-.06-.12-.07-.11-.07-.12-.08-.12-.07-.11-.08-.12-.08-.11-.08-.12-.09-.11-.09-.12-.09-.11-.09-.11-.1-.12-.09-.1-.1-.12-.1-.11-.1-.11-.1-.11-.11-.11-.11-.11-.1-.1h-.01l-.12-.12-.11-.1-.12-.11-.12-.11-.12-.1-.12-.11-.13-.1-.12-.11-.04-.03-.1-.08-.12-.1-.13-.1-.14-.11-.13-.1-.14-.1-.14-.1-.14-.1-.04-.03-.1-.08-.15-.1-.15-.1-.15-.1-.15-.1-.15-.1-.15-.1-.16-.09-.16-.1-.16-.08-.16-.1-.16-.09-.17-.09-.17-.09-.14-.07-.03-.01-.16-.1-.17-.09-.18-.1-.17-.08-.18-.09-.17-.09-.18-.08-.19-.09-.18-.08-.18-.08-.2-.08-.18-.08-.19-.08-.2-.08-.18-.07-.2-.07-.2-.08-.2-.07-.2-.07-.2-.06-.2-.07-.2-.07-.21-.06-.15-.04-.06-.02-.2-.07-.22-.07-.2-.06-.22-.06-.21-.07-.22-.06-.22-.05-.21-.06-.22-.05-.23-.06-.22-.05-.22-.05-.23-.05-.23-.04-.22-.05-.2-.03h-.03l-.23-.05-.24-.05-.23-.04-.24-.04-.23-.04-.24-.04-.16-.02-.08-.01h-.24zm.5-2.53l.26-.03.26-.03.27-.02.26-.02.26-.03.26-.01h.04l.22-.01.25-.01h.26l.26-.01h1.03l.25.02h.26l.25.02.26.01.25.02.25.02.25.02.25.03h.08l.17.03.25.03.25.04.24.04.25.04.24.05.24.04.24.05.25.05.24.06.23.05.24.06.24.06.23.06.24.06.23.07.23.06.23.07.23.08.23.07.23.07.22.08.23.08.22.08.03.02.19.07.22.1.21.09.22.1.21.1.21.09.21.1.21.1.2.11.21.1.2.12.2.1.2.12.2.12.15.08.05.03.2.12.18.13.2.12.18.13.18.13.18.13.19.13.12.1.05.04.18.14.17.14.17.14.17.14.17.15.16.14.17.15.16.15.01.02.14.14.16.15.15.16.15.16.14.16.15.16.14.16.14.17.14.16.13.17.13.17.13.17.13.18.12.17.12.18.12.18.12.18.11.18.11.18.1.18.11.19.03.05.07.14.1.19.1.19.09.19.08.19.09.2.08.19.08.2.07.2.07.2.07.2.07.2.06.2.06.2.05.2.03.12.02.1.02.1.03.1.02.11.02.1.02.11.02.1.02.11.02.1.01.11.02.1.01.11.02.1v.12l.02.1.01.11.01.1.01.11v.11l.01.1.01.12V280.54l.01.11v.75l-.01.12-.01.1v.11l-.02.1v.12l-.02.1v.11l-.02.1-.01.11-.02.1-.01.12-.02.1-.02.1-.01.11-.02.1-.02.11-.02.1-.03.1-.02.11-.02.1-.03.11-.02.1-.03.1-.03.11-.05.2-.06.2-.07.2-.07.2-.07.2-.07.2-.08.2-.08.2-.08.19-.09.19-.1.19-.08.19-.1.19-.1.18-.1.19-.1.18-.12.18-.1.18-.12.18-.12.17-.12.18-.12.17-.13.17-.13.17-.13.17-.13.17-.13.17-.14.16-.14.16-.15.16-.14.16-.15.16-.15.15-.15.16-.16.15-.15.15-.16.15-.16.14-.17.15-.16.14-.17.14-.17.14-.17.14-.18.14-.17.13-.18.14-.18.13-.18.13-.19.13-.18.12-.19.13-.19.12-.2.12-.02.02-.17.1-.2.12-.19.11-.2.11-.2.12-.2.1-.2.11-.21.11-.2.1-.22.1-.2.1-.22.1-.22.1-.21.1-.22.1-.22.09-.22.09-.22.08-.22.09-.23.08-.22.09-.23.08-.23.07-.23.08-.23.08-.23.07-.24.07-.24.07-.23.06-.24.07-.24.06-.24.06-.24.06-.25.06-.24.05-.25.05-.24.06-.25.04-.25.05-.25.04-.25.05-.25.04-.26.03-.25.04-.26.03-.25.03-.26.03-.26.03-.26.03-.26.02-.26.02-.26.02-.26.01-.26.02H113l-.26.02h-.54l-.26.01H111.07l-.2-.01-.26-.01-.27-.01-.26-.02-.27-.02-.26-.01-.26-.03-.27-.02-.26-.02-.26-.03-.25-.03-.26-.03-.26-.04-.25-.03-.26-.04-.25-.04-.25-.04-.25-.05-.25-.05-.25-.05-.25-.05-.25-.05-.24-.05-.24-.06-.25-.06-.24-.06-.24-.06-.24-.07-.23-.06-.24-.07-.23-.07-.24-.08-.23-.07-.23-.08-.23-.08-.22-.08-.23-.08-.22-.08-.23-.09-.22-.08-.22-.1-.22-.08-.21-.1-.22-.1-.21-.09-.21-.1-.21-.1-.21-.1-.2-.1-.21-.1-.2-.11-.2-.11-.2-.11-.2-.11-.2-.12-.2-.11-.19-.12-.19-.12-.19-.12-.18-.12-.19-.12-.18-.13-.18-.12-.18-.13-.18-.13-.17-.13-.02-.01-.16-.12-.17-.14-.17-.13-.16-.14-.17-.14-.16-.14-.16-.14-.16-.15-.15-.14-.15-.15-.16-.15-.14-.15-.15-.15-.14-.15-.15-.15-.13-.16-.14-.16-.14-.15-.13-.16-.13-.16-.12-.17-.13-.16-.12-.17-.12-.16-.11-.17-.12-.17-.1-.17-.11-.17-.11-.17-.1-.18-.1-.17-.1-.18-.1-.18-.08-.18-.09-.18-.09-.18-.08-.18-.08-.19-.07-.18-.07-.2-.07-.18-.07-.19-.06-.19-.06-.19-.06-.19-.05-.2-.05-.18-.02-.1-.02-.1-.03-.1-.02-.1-.02-.1-.02-.1-.01-.09-.02-.1-.02-.1-.01-.1-.02-.1-.01-.1-.01-.1-.02-.1v-.1l-.02-.1v-.1l-.02-.1v-.2l-.01-.1v-.1l-.01-.1V280.58l.01-.11v-.1l.02-.1v-.1l.01-.1.01-.1.01-.1.02-.1.01-.1.01-.1.02-.1.01-.1.02-.1.02-.1.02-.1.01-.09.02-.1.03-.1.02-.1.02-.09.02-.1.03-.1.02-.09.03-.1.05-.18.06-.2.06-.18.07-.19.06-.18.07-.19.08-.18.07-.18.08-.19.09-.18.08-.17.1-.18.08-.18.1-.17.1-.18.1-.17.1-.17.1-.17.11-.16.12-.17.11-.16.12-.17.12-.16.12-.16.12-.16.13-.16.13-.15.13-.16.13-.15.14-.15.14-.15.14-.15.14-.15.15-.14.15-.15.15-.14.15-.14.16-.14.15-.14.16-.13.16-.14.17-.13.16-.13.17-.13.17-.13.17-.13.17-.12.18-.13.17-.12.18-.12.18-.12.19-.11.18-.12.19-.11.19-.12.19-.1.19-.11.2-.11.19-.1.2-.11.2-.1.2-.1.2-.1.2-.1.2-.1.21-.09.09-.03.12-.06.21-.09.21-.08.22-.1.21-.08.22-.08.21-.08.22-.08.22-.07.23-.08.22-.07.22-.07.23-.07.23-.07.23-.07.23-.06.23-.06.23-.06.23-.06.24-.06.23-.05.24-.05.24-.05.24-.05.24-.05.24-.04.24-.04.25-.04.24-.04.25-.04.25-.03.24-.03.25-.03.25-.03.25-.02.26-.03.25-.02.25-.02.26-.01.25-.02.26-.01.25-.01h.26l.26-.01h.26l.26-.01h.62l.16-.03z"/><path d="M150.6 278.91c17.12-22.61 29.45-52.48 34.74-84.15 5-29.97 3.41-59.72-4.53-84.38l-140.63 1.6c-10.8 19.38-18.52 41.86-22.42 65.16-6.42 38.45-1.91 76.1 12.35 103.15l120.48-1.38z" fill="#c2c2c2"/><path d="M181.3 107.04l.52.12.5.2.46.28.41.35.35.4.28.46.2.5.2.59.18.59.19.6.18.6.18.6.18.6.18.6.17.6.18.61.17.61.16.61.17.62.16.61.16.62.16.61.15.62.16.62.15.62.14.63.15.62.14.63.14.63.14.63.14.63.13.63.13.64.13.63.13.64.12.64.12.64.12.64.12.64.11.65.12.64.1.65.11.65.1.65.11.65.05.31.05.34.1.66.1.65.08.66.1.66.08.66.08.66.09.66.08.66.08.66.07.67.07.66.07.67.07.67.07.67.06.67.06.67.06.67.06.68.05.67.05.68.05.68.05.67.04.68.04.68.04.68.04.69.03.68.03.68.03.69.03.68.02.69.03.68.02.7.01.68.02.7.01.68.01.7.01.68v4.18l-.02.69v.7l-.02.7-.02.7-.02.7-.02.7-.03.7-.03.7-.02.7-.04.7-.03.7-.04.71-.04.7-.04.71-.04.7-.05.71-.05.7-.05.72-.05.7-.06.71-.06.7-.06.72-.06.7-.07.71-.07.71-.07.71-.07.71-.08.72-.08.7-.08.72-.08.7-.01.1-.08.62-.09.71-.09.71-.1.72-.1.7-.1.72-.1.71-.1.72-.1.71-.11.71-.12.72-.11.71-.12.71-.06.36-.06.36-.13.75-.13.75-.14.75-.14.76-.14.75-.15.75-.14.74-.15.75-.16.75-.15.75-.16.74-.15.7v.05l-.17.74-.17.74-.17.74-.18.74-.17.74-.18.74-.18.74-.18.73-.19.74-.19.73-.19.74-.2.73-.19.73-.2.73-.2.73-.2.73-.2.72-.21.73-.21.72-.22.72-.21.73-.22.72-.22.71-.22.72-.01.04-.22.68-.23.71-.24.71-.23.71-.24.71-.24.71-.25.7-.25.71-.24.7-.25.71-.26.7-.25.7-.26.7-.26.7-.26.69-.27.7-.26.68-.27.7-.27.68-.28.7-.27.68-.28.68-.28.68-.28.68-.29.68-.28.68-.3.67-.28.68-.3.67-.3.67-.29.67-.3.66-.3.67-.3.66-.31.66-.3.66-.32.66-.31.66-.31.65-.32.65-.32.65-.32.65-.32.65-.18.35-.15.29-.33.64-.34.64-.33.63-.34.63-.34.64-.34.62-.35.63-.34.63-.35.62-.35.62-.35.62-.35.61-.36.62-.36.61-.36.61-.36.6-.36.61-.37.6-.37.6-.36.6-.38.6-.37.6-.37.59-.38.58-.38.6-.38.57-.38.59-.38.58-.39.57-.39.58-.39.57-.39.57-.14.2-.25.36-.4.57-.4.56-.4.55-.4.56-.41.55-.4.55-.42.54-.4.55-.42.54-.41.54-.42.53-.42.54-.42.53-.42.53-.1.12-.32.4-1.4-1.06 1.4 1.06-.17.2-.2.17-.24.14-.24.1-.26.06-.27.02-2.5.04-64.2 1-53.77.83-.35-.02-.34-.08-.33-.13-.3-.18-.28-.22-.23-.27-.19-.3-.17-.32-.17-.32-.17-.33-.17-.32-.17-.33-.16-.33-.17-.33-.16-.33-.17-.33-.16-.33-.16-.34-.16-.33-.17-.33-.16-.34-.15-.34-.16-.33-.16-.34-.15-.34-.16-.34-.15-.34-.16-.35-.15-.34-.15-.34-.15-.35-.15-.34-.15-.35-.15-.35-.14-.35-.15-.35-.14-.35-.15-.35-.14-.35-.14-.35-.14-.36-.14-.35-.14-.36-.14-.35-.14-.36-.13-.36-.14-.36-.13-.35-.14-.36-.13-.37-.13-.36-.13-.36-.13-.36-.13-.37-.13-.36-.13-.37-.12-.37-.13-.36-.12-.37-.12-.37-.13-.37-.12-.37-.12-.37-.12-.37-.12-.38-.11-.37-.12-.38-.12-.37-.11-.38-.12-.37-.1-.38-.12-.38-.11-.38-.11-.38-.11-.38-.1-.38-.12-.38-.1-.38-.1-.39-.11-.38-.1-.39-.1-.38-.11-.39-.1-.38-.1-.4-.1-.38-.1-.39-.1-.39-.1-.39-.09-.39-.1-.4-.08-.38-.1-.4-.09-.39-.09-.4-.09-.39-.09-.4-.08-.4-.09-.39-.09-.4-.08-.4-.08-.4-.09-.4-.08-.4-.08-.4-.08-.4-.08-.4-.08-.4-.07-.4-.08-.4-.07-.41-.08-.4-.07-.41-.07-.4-.08-.41-.07-.41-.07-.4-.06-.42-.07-.4-.07-.42-.06-.4-.07-.42-.06-.4-.07-.42-.06-.41-.06-.42-.06-.41-.06-.41-.05-.42-.06-.41-.06-.42-.05-.42-.06-.41-.05-.42-.05-.42-.05-.42-.05-.41-.05-.42-.05-.42-.05-.42-.05-.43-.04-.42-.05-.42-.04-.42-.04-.42-.04-.43-.04-.42-.04-.43-.04-.42-.04-.43-.04-.42-.03-.43-.04-.43-.03-.42-.04-.43-.03-.43-.03-.43-.03-.43-.03-.43-.03-.43-.02-.43-.03-.43-.02-.43-.03-.43-.02-.43-.02-.43-.02-.44-.03-.43-.01-.43-.02-.44-.02-.43-.02-.44-.01-.43-.02-.44-.01-.43-.01-.44-.01-.44-.02-.43v-.44l-.01-.44-.01-.44v-.44l-.01-.44v-.43l-.01-.44v-3.98l.01-.44.01-.44.01-.45v-.44l.02-.44.01-.45.01-.44.01-.45.02-.44.01-.45.02-.45.02-.44.01-.45.02-.45.02-.44.02-.45.03-.45.02-.45.02-.44.03-.45.02-.45.03-.45.03-.45.03-.45.03-.45.03-.45.03-.45.03-.45.03-.45.04-.45.04-.45.03-.45.04-.45.04-.45.04-.46.04-.45.04-.45.04-.45.05-.45.04-.46.05-.45.04-.45.05-.46.05-.45.05-.45.05-.46.05-.45.06-.45.05-.46.04-.37.01-.08.06-.46.06-.45.06-.46.05-.45.06-.46.06-.45.07-.46.06-.45.06-.46.07-.45.06-.46.07-.45.07-.46.07-.46.07-.45.07-.46.07-.45.07-.46.08-.46.09-.55.1-.55.09-.56.1-.55.09-.55.1-.55.1-.55.1-.55.1-.55.1-.55.1-.55.12-.55.1-.55.11-.55.11-.55.12-.55.11-.55.11-.54.12-.55.12-.55.12-.54.12-.55.12-.54.12-.55.13-.54.12-.54.13-.55.13-.54.13-.54.13-.54.13-.55.14-.54.13-.54.14-.54.14-.54.14-.53.14-.54.14-.54.15-.54.14-.53.15-.54.14-.54.15-.53.15-.53.16-.54.15-.53.15-.53.16-.54.16-.53.15-.53.16-.53.16-.53.17-.53.16-.52.16-.53.17-.53.17-.53.17-.52.17-.53.17-.52.17-.52.17-.53.18-.52.18-.52.17-.52.18-.52.18-.52.18-.52.19-.52.18-.51.19-.52.18-.52.2-.51.18-.51.2-.52.18-.51.2-.51.2-.51.19-.51.2-.51.2-.51.2-.5.2-.52.2-.5.2-.5.2-.51.2-.5.21-.5.21-.51.21-.5.21-.5.21-.5.22-.5.21-.5.22-.5.21-.49.22-.5.22-.49.22-.49.22-.49.22-.5.23-.48.22-.49.23-.49.23-.49.23-.48.23-.49.23-.48.23-.48.23-.49.24-.48.23-.48.24-.48.24-.47.24-.48.24-.48.24-.47.24-.48.25-.47.24-.47.25-.47.25-.47.25-.47.25-.47.25-.46.25-.47.25-.46.26-.46.24-.37.3-.33.33-.28.38-.23.4-.16.43-.1.44-.05 7.62-.11 86.5-1.27 46.5-.66.54.03zm-48.03 7.12l-83.7.68v-.04l-7.66.1-.17.3-.25.45-.24.45-.24.46-.25.45-.24.45-.24.46-.24.46-.23.46-.24.46-.24.46-.23.46-.23.46-.24.47-.23.46-.23.47-.22.46-.23.47-.23.47-.22.47-.23.47-.22.47-.22.47-.22.48-.22.47-.22.48-.22.48-.22.47-.21.48-.22.48-.2.48-.22.48-.21.49-.21.48-.2.48-.21.49-.21.49-.2.48-.2.49-.21.49-.2.49-.2.49-.2.49-.2.5-.2.49-.19.49-.2.5-.18.49-.2.5-.19.5-.19.49-.18.5-.19.5-.19.5-.18.5-.18.5-.18.5-.18.5-.18.51-.18.5-.18.51-.17.5-.18.51-.17.51-.17.51-.17.5-.17.52-.17.51-.17.51-.16.51-.17.52-.16.5-.16.52-.16.52-.16.51-.16.52-.16.51-.15.52-.16.52-.15.52-.15.52-.15.52-.15.52-.15.52-.14.52-.15.52-.14.52-.15.52-.14.53-.14.52-.14.53-.13.52-.14.53-.13.52-.14.53-.13.53-.13.52-.13.53-.13.53-.12.53-.13.53-.12.53-.13.53-.12.53-.12.53-.12.53-.11.54-.12.53-.11.53-.12.53-.11.54-.11.53-.11.54-.1.53-.11.54-.11.53-.1.54-.1.54-.1.53-.1.54-.1.54-.1.54-.1.53-.1.54-.09.54-.07.45-.08.44-.07.45-.07.44-.07.44-.07.45-.07.44-.07.45-.07.44-.07.44-.06.45-.07.44-.06.45-.06.44-.06.44-.07.44-.06.45-.05.44-.06.44-.01.09-.05.36-.05.44-.06.44-.05.44-.06.45-.05.44-.05.44-.05.44-.05.44-.05.44-.04.44-.05.45-.05.44-.04.44-.04.44-.05.44-.04.44-.04.44-.04.44-.03.44-.04.44-.04.43-.03.44-.04.44-.03.44-.03.44-.04.44-.03.43-.03.44-.03.44-.02.44-.03.43-.03.44-.02.43-.02.44-.03.44-.02.43-.02.44-.02.43-.02.44-.02.43-.01.44-.02.43-.01.43-.02.44-.01.43-.01.43-.02.43v.43l-.02.44v.43l-.01.43v.43l-.01.43v.43l-.01.43V214.34l.02.43v.42l.01.43v.42l.02.43v.42l.02.43.01.42.02.42.01.43.02.42.01.42.02.42.02.42.02.43.02.42.02.42.02.41.03.42.02.42.02.42.03.42.03.42.03.41.02.42.03.41.03.42.04.42.03.41.03.41.04.42.03.41.04.41.03.42.04.4.04.42.04.4.04.42.04.4.05.42.04.4.05.41.04.41.05.41.05.4.04.41.05.4.05.41.06.4.05.41.05.4.05.4.06.41.06.4.05.4.06.4.06.4.06.4.06.4.06.4.06.4.07.4.06.4.07.39.06.4.07.39.07.4.07.38.07.4.07.39.07.4.07.38.07.4.08.38.07.4.08.38.08.39.07.39.08.38.08.39.08.38.09.39.08.38.08.39.09.38.08.38.09.38.09.38.08.38.1.38.08.38.1.38.09.38.09.37.1.38.09.37.1.38.09.37.1.37.1.38.1.37.1.37.1.37.1.37.1.37.1.36.1.37.11.37.1.36.11.37.11.36.11.37.11.36.11.36.11.36.12.36.1.36.12.36.12.36.12.35.11.36.12.36.12.35.12.36.12.35.12.35.12.35.13.35.12.35.13.35.12.35.13.35.13.34.13.35.12.35.14.34.13.34.13.34.13.35.14.34.13.34.14.33.13.34.14.34.14.34.14.33.14.34.14.33.14.33.14.33.15.34.14.33.15.32.14.33.15.33.15.33.15.32.15.33.15.32.15.32.15.32.15.32.16.32.15.32.16.32.16.32.15.31.16.32.03.05 53.54-.41 63.1-.46h1.55l.27-.4.37-.54.38-.55.37-.54.37-.55.37-.56.36-.55.36-.56.37-.56.36-.56.35-.56.36-.57.35-.57.36-.57.22-.37.13-.2.35-.58.35-.58.35-.58.34-.58.35-.58.34-.58.34-.6.34-.58.33-.6.34-.59.33-.6.33-.6.33-.6.32-.6.33-.6.32-.6.32-.61.32-.62.32-.6.31-.62.31-.62.31-.62.31-.62.3-.62.31-.63.3-.62.3-.63.3-.63.3-.63.29-.64.3-.63.28-.64.13-.29.16-.35.3-.64.28-.64.29-.64.28-.64.28-.65.28-.65.28-.65.28-.65.27-.65.27-.66.27-.65.27-.66.26-.66.27-.66.26-.66.26-.67.25-.66.26-.67.25-.67.25-.67.25-.67.24-.67.25-.68.24-.67.24-.68.23-.68.24-.68.23-.68.23-.69.23-.68.22-.69.22-.68.23-.7.21-.68.22-.7.21-.68.22-.7.2-.7.21-.69.2-.7.2-.7.2-.7.2-.66V220l.2-.7.2-.7.2-.7.2-.71.19-.7.19-.71.18-.7.19-.72.18-.7.18-.72.18-.7.17-.72.18-.71.17-.72.16-.71.17-.72.16-.71.16-.72.16-.72.16-.72.15-.72.15-.72.15-.72.14-.73.01-.04.14-.68.14-.72.15-.73.14-.72.13-.73.14-.72.13-.73.13-.73.12-.73.13-.73.12-.73.12-.73.05-.34.06-.35.11-.69.1-.69.12-.7.1-.68.1-.7.1-.68.1-.7.09-.68.09-.7.09-.68.09-.69.08-.69.07-.6.01-.09.08-.68.08-.7.08-.68.07-.69.08-.68.07-.69.06-.69.07-.68.06-.69.06-.68.06-.69.06-.68.05-.68.05-.69.05-.68.04-.68.05-.68.04-.68.04-.68.04-.68.03-.68.03-.68.03-.68.03-.68.02-.67.03-.68.02-.68.01-.67.02-.68.01-.67.01-.67.01-.67V162.05l.01-.67v-3.34l-.02-.66-.01-.67-.01-.66-.02-.67-.02-.66-.02-.66-.02-.66-.03-.66-.03-.66-.03-.66-.03-.65-.04-.66-.03-.65-.04-.66-.05-.65-.04-.65-.05-.65-.05-.65-.05-.65-.05-.65-.06-.65-.05-.64-.07-.64-.06-.65-.06-.64-.07-.64-.07-.64-.07-.64-.08-.63-.07-.64-.08-.63-.08-.64-.09-.63-.08-.63-.1-.63-.08-.63-.05-.32-.05-.3-.1-.63-.09-.62-.1-.62-.1-.62-.1-.62-.1-.62-.12-.62-.1-.61-.12-.62-.12-.6-.11-.62-.12-.6-.13-.62-.12-.6-.13-.6-.13-.61-.13-.6-.13-.6-.14-.6-.13-.6-.14-.59-.15-.6-.14-.59-.15-.59-.15-.58-.15-.59-.15-.59-.16-.58-.16-.58-.16-.58-.16-.58-.17-.57-.16-.58-.15-.48-45.05.4z"/><path d="M69.66 110.93s.72 14.76-11.37 33.71c-30.14 47.24-39 26.87-39 26.87-5.12 19.93-10.93 62.68 10.35 109.27 38.04 4.55 79.94 4.05 120.9-1.21 22.79-33.14 31.88-67.56 35.37-103.67-23.5-7.26-40.77-21.64-45.18-64.18-4.42-.36-4.07-.46-10.64-1.46l2.08 34.45c-17.92-.96-35.2-.4-52.13.82 0 0-.56-32.42 2.44-35.03 3-2.6-12.82.43-12.82.43z" fill="#008fd7"/><clipPath id="a"><path d="M69.66 110.93s.72 14.76-11.37 33.71c-30.14 47.24-39 26.87-39 26.87-5.12 19.93-10.93 62.68 10.35 109.27 38.04 4.55 79.94 4.05 120.9-1.21 22.79-33.14 31.88-67.56 35.37-103.67-23.5-7.26-40.77-21.64-45.18-64.18-4.42-.36-4.07-.46-10.64-1.46l2.08 34.45c-17.92-.96-35.2-.4-52.13.82 0 0-.56-32.42 2.44-35.03 3-2.6-12.82.43-12.82.43z"/></clipPath><g clip-path="url(#a)"><path d="M68.36 146.42a510.54 510.54 0 0177.12-.94c.98 25.69-1.06 49.36-6.17 70.96a442.6 442.6 0 01-81.4 2.21c1.18-25.74 4.47-49.86 10.45-72.23z" fill="#008fd7"/><clipPath id="b"><path d="M68.36 146.42a510.54 510.54 0 0177.12-.94c.98 25.69-1.06 49.36-6.17 70.96a442.6 442.6 0 01-81.4 2.21c1.18-25.74 4.47-49.86 10.45-72.23z"/></clipPath><g clip-path="url(#b)" fill="#fff" fill-rule="nonzero" stroke="#fff" stroke-width="2.5"><path d="M85.16 172.3l10.09-.4c1.33-.05 2.54.05 3.63.3 1.09.26 2 .64 2.76 1.15a4.96 4.96 0 011.69 1.87c.37.74.52 1.56.44 2.47-.07.69-.19 1.3-.38 1.85a4.8 4.8 0 01-.87 1.53c-.39.48-.9.93-1.52 1.36-.62.43-1.4.88-2.33 1.34v.08c.87.1 1.66.3 2.35.62a5.3 5.3 0 011.72 1.22c.47.5.8 1.1 1.02 1.78a6.47 6.47 0 01-.64 4.95 7.67 7.67 0 01-1.95 2.23c-.81.64-1.78 1.15-2.88 1.55-1.11.4-2.33.61-3.67.67l-11.69.45 2.23-25.02zm3.2 11.1l5.37-.2c.85-.04 1.6-.19 2.28-.45a5.74 5.74 0 001.75-1.06c.5-.44.88-.96 1.17-1.55.28-.6.45-1.23.51-1.91a4.4 4.4 0 00-.23-1.98 3.3 3.3 0 00-1.16-1.48c-.55-.4-1.26-.7-2.14-.9-.88-.19-1.95-.26-3.21-.21l-3.48.14-.85 9.6zm-1.05 11.93l4.55-.18c1.22-.05 2.3-.2 3.21-.47.92-.27 1.7-.63 2.32-1.07a4.78 4.78 0 002.03-3.53 6 6 0 00-.18-2.2 3.58 3.58 0 00-1.08-1.71 5.3 5.3 0 00-2.14-1.1c-.9-.25-2.02-.35-3.37-.3l-4.42.18-.92 10.38zM126.9 170.67l-.14 1.62-12.22.48-.8 8.94 8.84-.34-.14 1.62-8.84.35-1.15 12.83-4.2.16 2.22-25.02 16.43-.64z"/></g><path d="M68.36 146.42a510.54 510.54 0 0177.12-.94c.98 25.69-1.06 49.36-6.17 70.96a442.6 442.6 0 01-81.4 2.21c1.18-25.74 4.47-49.86 10.45-72.23z" fill="none" stroke="#000" stroke-width="2.5" stroke-linecap="round" stroke-miterlimit="1.5"/><path d="M78.42 153.75c1.47-.2 2.85.86 3.06 2.39a2.74 2.74 0 01-2.29 3.13 2.76 2.76 0 01-3.06-2.4 2.74 2.74 0 012.29-3.12zM135.88 151.43c1.48-.2 2.85.87 3.07 2.39a2.74 2.74 0 01-2.29 3.13 2.76 2.76 0 01-3.06-2.39 2.74 2.74 0 012.28-3.13z" fill="#ffc800" stroke="#000" stroke-width="2.5" stroke-linecap="round" stroke-miterlimit="1.5"/></g><path d="M69.66 110.93s.72 14.76-11.37 33.71c-30.14 47.24-39 26.87-39 26.87-5.12 19.93-10.93 62.68 10.35 109.27 38.04 4.55 79.94 4.05 120.9-1.21 22.79-33.14 31.88-67.56 35.37-103.67-23.5-7.26-40.77-21.64-45.18-64.18-4.42-.36-4.07-.46-10.64-1.46l2.08 34.45c-17.92-.96-35.2-.4-52.13.82 0 0-.56-32.42 2.44-35.03 3-2.6-12.82.43-12.82.43z" fill="none" stroke="#000" stroke-width="2.5" stroke-linecap="round" stroke-miterlimit="1.5"/><path d="M181.18 109.73c.44-2.23.74-4.48.9-6.76 2.64-35.25-26.77-67.38-65.62-71.7-38.85-4.32-72.52 20.79-75.15 56.04a60 60 0 003.18 24.03l136.7-1.6z" fill="#c2c2c2"/><clipPath id="c"><path d="M181.18 109.73c.44-2.23.74-4.48.9-6.76 2.64-35.25-26.77-67.38-65.62-71.7-38.85-4.32-72.52 20.79-75.15 56.04a60 60 0 003.18 24.03l136.7-1.6z"/></clipPath><g clip-path="url(#c)"><path d="M86.65 84.3c-1.08.82-1.67 1.68-1.77 2.56-.51 4.7 12.89 8.96 29.91 9.51 17.03.56 31.26-2.8 31.78-7.49.12-1.07-.5-2.16-1.84-3.2L86.65 84.3z" fill="#191919"/><clipPath id="d"><path d="M86.65 84.3c-1.08.82-1.67 1.68-1.77 2.56-.51 4.7 12.89 8.96 29.91 9.51 17.03.56 31.26-2.8 31.78-7.49.12-1.07-.5-2.16-1.84-3.2L86.65 84.3z"/></clipPath><g clip-path="url(#d)"><path d="M96.19 87.42c.03 2.9 8.41 5.49 18.94 5.83 10.78.36 19.8-1.77 20.12-4.74l.01-.18-39.07-.91z" fill="#fff"/></g><path d="M104 71.33c-.27-7.7-5.44-14.16-11.95-14.88-6.94-.77-12.88 5.26-13.24 13.46-.03.46-.03.93-.01 1.39l25.2.03z" fill="#191919"/><clipPath id="e"><path d="M104 71.33c-.27-7.7-5.44-14.16-11.95-14.88-6.94-.77-12.88 5.26-13.24 13.46-.03.46-.03.93-.01 1.39l25.2.03z"/></clipPath><g clip-path="url(#e)"><path d="M90.17 68.6c.43-3.76.2-6.69-.53-6.77-.8-.09-1.88 3.15-2.43 7.22l-.1.76 3.06-1.2z" fill="#fff"/></g><path d="M145.14 72.6c-.25-7.29-5.14-13.39-11.3-14.07-6.56-.73-12.17 4.97-12.52 12.73-.02.43-.02.87 0 1.3l23.82.04z" fill="#191919"/><clipPath id="f"><path d="M145.14 72.6c-.25-7.29-5.14-13.39-11.3-14.07-6.56-.73-12.17 4.97-12.52 12.73-.02.43-.02.87 0 1.3l23.82.04z"/></clipPath><g clip-path="url(#f)"><path d="M131.67 70c.42-3.78.08-6.71-.79-6.81-.93-.1-2.14 3.12-2.7 7.19l-.08.76 3.57-1.15z" fill="#fff"/></g></g><path d="M108.38 27.47H109.3l.46.02h.47l.47.02.46.02.47.02.47.02.47.02.47.03.47.03.47.03.48.04.47.03.47.05.47.04.48.05.47.05.48.05.47.05.47.06.47.06.48.06.47.07.46.07.47.07.47.07.47.07.46.08.46.08.47.09.46.08.46.1.46.08.46.1.46.1.45.09.46.1.46.1.45.11.45.1.45.12.46.11.45.12.44.12.45.12.45.12.44.12.45.13.44.13.44.13.44.14.44.14.44.14.44.14.43.14.44.15.43.15.44.15.43.15.4.15h.03l.43.17.42.16.43.16.42.17.43.16.42.17.42.18.42.17.42.17.41.18.42.18.41.19.42.18.41.19.41.19.4.19.42.2.4.19.4.2.41.2.4.2.4.2.4.21.4.2.4.22.4.21.38.22.4.21.39.22.38.22.4.22.38.23.38.22.38.23.39.23.38.24.37.23.38.24.38.23.37.24.37.25.1.06.27.18.37.25.37.24.36.25.36.26.37.25.36.26.35.25.36.26.36.26.35.27.35.26.35.27.35.27.35.27.34.27.35.27.34.28.34.27.33.28.34.28.34.29.33.28.33.29.33.28.33.3.32.28.33.3.32.3.32.29.32.3.31.3.32.3.2.2.1.1.32.3.3.3.31.32.3.3.3.32.3.31.3.32.3.31.3.32.29.32.29.32.28.32.29.32.25.29.03.04.28.33.28.33.28.33.27.33.27.33.27.34.27.34.27.33.26.34.26.34.26.35.26.34.25.34.25.34v.01l.26.35.24.35.25.35.24.35.24.36.24.35.23.36.23.36.23.36.23.36.23.36.22.36.22.37.22.36.22.37.22.36.21.37.21.37.2.37.21.37.2.38.2.37.2.38.2.37.2.38.19.38.19.38.07.14.11.24.18.38.18.39.17.38.18.4.17.38.16.39.17.39.16.39.16.39.16.39.15.4.16.38.15.4.14.4.15.4.14.39.14.4.14.4.13.4.14.4.13.4.12.4.13.4.12.4.12.4.12.41.11.4.11.41.11.4.1.42.1.4.11.41.1.41.1.41.09.41.09.41.08.42.09.4.08.42.08.42.07.41.08.41.07.42.07.42.06.41.06.42.06.42.06.41v.02l.05.4.05.42.04.42.04.42.04.42.03.42.03.43.03.42.03.42.02.42.02.42.02.43.01.42.02.42v.43l.01.42v1.7l-.02.42v.43l-.02.43-.02.42-.02.43-.03.42-.02.43-.03.42-.03.43-.04.43-.04.42-.04.43-.04.43-.05.42-.03.22-.01.1-.02.12-.03.22-.03.22-.03.22-.03.22-.03.22-.04.22-.03.21-.04.22-.03.22-.04.22-.04.22-.03.21-.04.22-.04.22-.04.21-.04.22-.05.22-.04.21-.04.22-.05.21-.04.22-.05.22-.05.21-.04.22-.05.2-.05.22-.05.22-.05.21-.03.12-.02.1-.06.2-1.72-.33 1.72.34-.08.28-.13.27-.17.25-.21.2-.25.18-.27.13-.3.08-.29.03-1.54.03-39.82.73-95.32 1.72-.41-.02-.22-.05-.19-.04-.38-.15-.36-.21-.32-.27-.27-.3-.23-.35-.16-.38-.13-.38-.13-.38-.13-.39-.12-.38-.13-.38-.12-.39-.12-.38-.11-.39-.12-.39-.1-.38-.11-.39-.11-.39-.1-.39-.1-.38-.1-.4-.1-.38-.1-.4-.08-.38-.09-.4-.09-.38-.08-.4-.08-.39-.08-.39-.07-.39-.08-.39-.07-.4-.07-.39-.06-.39-.06-.4-.07-.39-.05-.39-.06-.4-.05-.39-.05-.4-.05-.39-.05-.39-.04-.4-.04-.39-.04-.4-.03-.39-.04-.4-.03-.4-.03-.39-.02-.4-.02-.39-.02-.4-.02-.39-.02-.4v-.4l-.02-.39v-.4l-.01-.39V90.26l.01-.39.01-.4.02-.4.01-.39.02-.4.02-.39.02-.4.03-.39.03-.43.04-.43.03-.43.04-.43.05-.43.04-.43.05-.43.05-.42.06-.43.06-.42.06-.42.06-.43.07-.42.07-.42.07-.42.07-.41.08-.42.08-.42.08-.41.1-.41.08-.42.1-.4.09-.42.1-.4.1-.42.1-.4.1-.41.11-.4.11-.4.12-.41.11-.4.12-.4.12-.4.13-.4.13-.4.13-.4.13-.39.13-.39.14-.4.14-.38.15-.4.14-.38.15-.39.15-.38.15-.39.16-.38.16-.38.16-.38.16-.38.17-.38.17-.38.17-.37.17-.38.18-.37.18-.37.18-.37.18-.37.19-.36.19-.37.19-.36.2-.37.19-.36.2-.36.2-.36.2-.35.2-.36.21-.35.21-.36.21-.35.1-.16.12-.19.21-.35.22-.34.23-.35.22-.34.23-.35.22-.34.23-.34.24-.33.23-.34.24-.33.24-.34.24-.33.24-.33.25-.33.25-.32.25-.33.25-.32.26-.33.25-.32.26-.31.26-.32.27-.32.26-.31.27-.31.27-.31.27-.31.27-.31.28-.3.27-.3.28-.31.29-.3.28-.3.28-.3.3-.3.28-.29.3-.29.29-.29.3-.29.29-.28.3-.29.3-.28.3-.28.3-.28.31-.28.31-.28.31-.27.31-.27.32-.27.31-.27.32-.27.32-.26.32-.27.33-.26.32-.26.33-.25.33-.26.33-.25.33-.25.33-.25.34-.25.33-.25.34-.24.34-.24.34-.24.35-.24.34-.24.35-.23.35-.24.35-.23.35-.22.36-.23.35-.23.36-.22.36-.22.36-.22.36-.21.36-.22.37-.21.36-.21.37-.2.37-.22.37-.2.37-.2.37-.2.38-.2.38-.2.37-.19.38-.19.39-.19.38-.19.38-.18.39-.19.38-.18.4-.18.38-.17.4-.18.38-.17.4-.17.4-.17.39-.16.4-.17.4-.16.4-.16.4-.15.4-.16.4-.15.4-.15.41-.15.41-.15.41-.14.41-.14.41-.14.42-.14.4-.13.42-.13.42-.13.42-.13.42-.13.42-.12.42-.12.42-.12.42-.11.43-.12.42-.1.43-.12.43-.1.42-.1.43-.1.25-.07.18-.04.44-.1.43-.09.43-.09.44-.09.43-.09.44-.08.44-.08.44-.08.44-.08.44-.07.44-.08.44-.07.44-.06.45-.07.44-.06.45-.06.45-.06.45-.05.44-.05.45-.05.45-.05.46-.04.45-.05.45-.03.45-.04.46-.04.45-.03.46-.03.46-.02.46-.03.45-.02.46-.02.46-.01.46-.01.47-.01.46-.01h.46l.46-.01h.47zm-1.33 6.64h-.84l-.43.01-.42.02h-.42l-.42.02-.42.02-.42.02-.42.02-.42.03-.41.03-.42.03-.41.03-.42.03-.41.04-.42.04-.4.04-.42.04-.41.05-.41.05-.4.05-.42.05-.4.06-.41.06-.4.06-.41.06-.4.06-.4.07-.41.07-.4.07-.4.07-.4.08-.4.08-.4.08-.4.08-.4.09-.16.03-.23.05-.39.1-.4.08-.38.1-.4.1-.39.09-.38.1-.4.1-.38.1-.38.1-.39.12-.38.1-.39.12-.38.12-.38.11-.38.12-.38.12-.37.12-.38.13-.37.13-.38.13-.37.13-.37.13-.37.13-.37.14-.37.14-.37.14-.36.15-.37.14-.36.15-.36.15-.36.15-.36.15-.36.16-.36.16-.35.15-.36.17-.35.16-.35.16-.35.17-.35.17-.35.17-.35.17-.34.18-.35.17-.34.18-.34.18-.34.19-.34.18-.33.19-.34.18-.33.2-.34.19-.33.19-.33.2-.33.2-.32.2-.33.2-.32.2-.32.2-.33.2-.32.21-.31.21-.32.22-.32.2-.3.22-.32.22-.31.22-.31.22-.3.22-.31.23-.3.22-.31.23-.3.23-.3.23-.3.23-.3.23-.29.24-.3.24-.28.24-.3.24-.28.24-.29.24-.28.25-.28.25-.28.24-.28.26-.28.25-.28.25-.27.26-.27.25-.27.26-.27.26-.27.26-.26.27-.27.26-.26.27-.26.27-.26.27-.25.27-.26.27-.25.27-.25.28-.25.28-.25.27-.24.28-.25.29-.24.28-.24.28-.23.29-.24.29-.23.29-.24.29-.22.29-.23.29-.23.3-.22.3-.22.29-.22.3-.22.3-.22.3-.21.3-.21.3-.21.31-.21.31-.2.3-.2.32-.21.31-.2.31-.1.17-.1.15-.2.31-.19.32-.19.32-.19.32-.18.32-.19.32-.18.32-.18.32-.18.33-.18.33-.17.32-.17.33-.17.34-.17.33-.17.33-.16.34-.16.33-.16.34-.16.34-.15.34-.15.34-.15.34-.15.34-.14.35-.15.34-.14.35-.14.35-.13.34-.13.35-.14.36-.12.35-.13.35-.13.36-.12.35-.12.36-.11.36-.12.36-.11.36-.1.36-.12.36-.1.37-.1.36-.1.37-.1.37-.1.36-.09.37-.09.37-.09.38-.08.37-.08.37-.08.38-.08.37-.08.38-.07.38-.07.38-.07.38-.06.38-.07.38-.05.38-.06.39-.06.38-.05.39-.05.38-.04.4-.05.38-.04.4-.04.38-.03.4-.04.39-.02.36-.03.35-.02.36-.02.36-.02.36-.02.36-.01.36-.01.36-.01.36-.01.36V93.27l.02.36V94l.02.36.02.36.02.37.02.36.02.36.03.36.03.36.03.36.03.36.03.36.04.36.04.36.04.36.05.36.04.36.05.36.05.36.06.36.05.36.06.36.06.36.06.36.07.36.07.36.07.36.07.36.07.36.08.35.08.36.08.36.08.36.09.36.09.35.09.36.09.36.1.35.1.36.1.35.1.36.1.35.1.33h.04l94.09-.5 39.09-.2v-.02l.02-.2.03-.2.02-.22.02-.2.02-.2.02-.21.02-.2.01-.21.02-.2.02-.21.01-.2.02-.22.01-.2.01-.2.02-.21v-.2l.02-.21v-.21l.02-.2v-.21l.01-.2.01-.21v-.21l.01-.12v-.09l.01-.2.01-.4v-.4l.01-.4V100.03l-.01-.4-.01-.39-.02-.4-.02-.39-.01-.39-.03-.39-.02-.4-.03-.38-.03-.4-.03-.38-.04-.4-.04-.38-.04-.39-.04-.39-.05-.38-.05-.39-.05-.39-.05-.38-.06-.38-.06-.39-.06-.38-.06-.38-.07-.38-.07-.38-.07-.38-.08-.38-.07-.37-.08-.39-.08-.37-.07-.38-.09-.38-.08-.37-.09-.38-.09-.37-.09-.37-.1-.38-.09-.37-.1-.37-.1-.37-.1-.37-.1-.37-.12-.36-.1-.37-.12-.37-.12-.36-.12-.37-.12-.36-.12-.36-.12-.37-.13-.36-.13-.36-.13-.36-.14-.35-.13-.36-.14-.36-.14-.35-.15-.36-.14-.35-.15-.36-.15-.35-.15-.35-.16-.35-.15-.35-.16-.35-.17-.35-.16-.34-.16-.35-.17-.34-.17-.35-.17-.34-.18-.34-.18-.34-.17-.34-.19-.34-.18-.33-.11-.21-.07-.13-.18-.34-.19-.34-.19-.33-.19-.34-.19-.33-.19-.33-.2-.33-.2-.33-.2-.33-.2-.33-.2-.33-.2-.32-.2-.33-.22-.32-.21-.33-.22-.32-.21-.32-.22-.32-.22-.31-.22-.32-.22-.32-.23-.31-.23-.31-.23-.32-.23-.3-.23-.32-.24-.3v-.02l-.23-.3-.24-.3-.24-.31-.24-.3-.24-.31-.25-.3-.24-.3-.25-.3-.25-.3-.25-.3-.26-.3-.25-.3-.26-.29-.26-.3-.03-.03-.23-.25-.26-.3-.26-.29-.27-.29-.26-.28-.27-.3-.27-.28-.27-.28-.28-.28-.27-.28-.28-.28-.28-.28-.28-.28-.29-.27-.1-.1-.18-.18-.28-.27-.29-.28-.29-.27-.29-.27-.3-.26-.28-.27-.3-.27-.3-.26-.3-.26-.3-.26-.3-.26-.3-.26-.3-.26-.31-.25-.31-.26-.31-.25-.31-.25-.32-.25-.31-.24-.32-.25-.32-.24-.32-.25-.32-.24-.32-.23-.33-.24-.32-.24-.33-.23-.33-.23-.33-.24-.33-.22-.34-.23-.33-.23-.24-.16-.1-.06-.34-.22-.34-.22-.34-.22-.34-.22-.34-.22-.35-.21-.35-.21-.34-.22-.35-.2-.36-.21-.35-.2-.35-.21-.36-.2-.35-.2-.36-.2-.36-.2-.36-.2-.36-.18-.37-.2-.36-.18-.37-.2-.37-.18-.37-.18-.37-.18-.37-.18-.37-.18-.37-.17-.38-.18-.38-.17-.37-.17-.38-.17-.38-.16-.39-.17-.38-.16-.38-.16-.39-.15-.39-.16-.38-.15-.4-.16-.38-.15-.4-.14-.01-.01-.38-.14-.39-.14-.4-.15-.39-.13-.4-.14-.4-.14-.4-.13-.4-.13-.4-.13-.4-.13-.4-.13-.4-.12-.42-.12-.4-.12-.41-.11-.41-.12-.41-.11-.41-.1-.41-.12-.42-.1-.41-.1-.42-.1-.41-.1-.42-.1-.42-.1-.42-.09-.42-.09-.42-.08-.43-.09-.42-.08-.42-.08-.43-.08-.43-.08-.42-.07-.43-.07-.43-.07-.43-.06-.43-.07-.43-.06-.44-.06-.43-.06-.43-.05-.44-.05-.44-.05-.43-.05-.44-.04-.43-.04-.43-.04-.44-.04-.43-.03-.43-.03-.43-.03-.43-.03-.43-.02-.43-.02-.43-.02-.43-.02-.43-.01-.43-.01-.43-.01h-.42l-.43-.01h-.85z"/><path d="M38.2 64.77c5.94-1.02 11.22.77 11.77 4 .55 3.21-3.84 6.65-9.79 7.66-5.95 1.02-11.22-.77-11.77-4-.55-3.21 3.83-6.65 9.79-7.66z" fill="#008fd7"/><path d="M38.31 66.24l-.06.01-.06.02-.13.03-.13.03-.12.03-.13.03-.12.03-.13.04-.12.03-.12.04-.12.03-.12.04-.12.03-.12.04-.12.04-.12.04-.12.04-.11.04-.12.04-.11.04-.11.04-.12.04-.1.05-.12.04-.11.05-.1.04-.12.05-.1.04-.11.05-.1.05-.11.04-.1.05-.1.05-.1.05-.1.05-.1.05-.1.05-.1.05-.1.05-.1.05-.1.05-.08.06-.1.05-.09.05-.02.02-.07.04-.09.05-.08.05-.1.06-.08.05-.08.06-.09.05-.08.06-.08.05-.08.06-.08.05-.07.06-.08.06-.07.05-.08.06-.07.06-.07.05-.07.06-.07.06-.07.06-.06.05-.07.06-.06.06-.06.06-.07.05-.05.06-.06.06-.06.05-.05.06-.06.06-.05.05-.05.06-.05.06-.05.05-.05.06-.04.06-.05.05-.04.06-.04.05-.04.06-.04.05-.03.05-.04.06-.03.05-.04.05-.03.05-.03.06-.03.05-.02.05-.03.05-.02.04-.03.05-.02.05-.02.05-.02.04-.01.05-.02.04-.02.05-.01.04-.01.04-.01.05-.02.04v.04l-.01.04-.01.04v.03l-.01.04v.04l-.01.03V71.96l.01.03v.03l.01.02.01.03v.03l.02.03v.03l.01.03.01.03.01.02.02.03v.03l.02.03.02.02v.03l.02.03.02.02.02.03.01.03.02.03.02.02.02.03.02.03.03.03.02.03.02.03.03.03.03.03.02.03.03.03.03.03.04.03.03.03.03.03.04.03.04.03.03.03.04.03.04.03.05.03.04.04.05.03.04.03.05.03.05.03.05.03.05.03.05.03.06.03.06.03.05.03.06.03.06.03.06.03.07.03.06.03.06.03.07.03.07.03.07.02.07.03.07.03.07.02.08.03.07.02.08.03.08.02.08.03.08.02.08.02h.01l.07.03.08.02.09.02.08.02.09.02.08.02.1.02.08.02.1.02.08.01.1.02.09.02.1.01.09.01.1.02.1.01.09.01.1.02h.1l.1.02h.1l.1.02h.1l.1.01h.11l.1.01.11.01H35.82l.11.01h.89l.1-.01h.12l.12-.01h.11l.12-.01.11-.01.12-.01.11-.01.12-.01.12-.02.12-.01.11-.01.12-.02.12-.01.12-.02.12-.02.12-.01.12-.02.12-.02.12-.02.12-.03.12-.02.12-.02.1-.02h.02l.13-.03.12-.03.12-.02.12-.03.12-.03.12-.03.12-.03.11-.03.12-.03.12-.03.11-.03.12-.03.11-.04.12-.03.1-.04.12-.03.11-.04.11-.03.11-.04.11-.04.1-.04.12-.04.1-.04.1-.04.11-.04.1-.04.1-.04.11-.04.1-.04.1-.05.1-.04.1-.04.1-.05.1-.04.09-.05.1-.04.08-.05.1-.05.09-.04.09-.05.09-.05.08-.04.1-.05.08-.05.08-.05.09-.05.08-.05.08-.05.08-.05.08-.05.08-.05.07-.05.08-.05.07-.05.08-.05.07-.05.07-.05.05-.04.02-.01.07-.05.06-.05.07-.05.06-.05.07-.05.06-.06.06-.05.06-.05.06-.05.05-.05.06-.05.05-.05.05-.05.06-.05.05-.05.04-.04.05-.05.05-.05.04-.05.04-.05.04-.04.04-.05.04-.05.04-.04.03-.05.04-.04.03-.05.03-.04.03-.04.03-.05.03-.04.02-.04.03-.04.02-.04.02-.04.02-.03.02-.04.02-.04.02-.03.01-.03.02-.04v-.03l.02-.03.01-.03.01-.03.01-.02v-.03l.01-.03.01-.02v-.02l.01-.03v-.05l.01-.02v-.13l-.01-.01v-.02l-.01-.02v-.01l-.01-.01v-.01l-.01-.02-.01-.01v-.01l-.01-.01v-.01l-.01-.01v-.01l-.02-.01v-.01l-.01-.02-.02-.02-.01-.02-.01-.01-.01-.02-.02-.01-.01-.02-.02-.02-.01-.01-.02-.02-.02-.02-.02-.02-.02-.02-.02-.02-.03-.03-.02-.02-.03-.02-.02-.02-.04-.03-.03-.02-.03-.03-.03-.02-.04-.03-.04-.03-.03-.02-.04-.03-.04-.03-.05-.02-.04-.03-.05-.03-.04-.02-.05-.03-.05-.03-.05-.02-.06-.03-.05-.03-.06-.03-.05-.02-.06-.03-.03-.01-.03-.02-.06-.03-.06-.02-.06-.03-.07-.03-.06-.03-.07-.03-.07-.02-.05-.02-.02-.01-.07-.03-.07-.03-.07-.03-.08-.03-.07-.03-.08-.03-.08-.02-.02-.01-.05-.02-.08-.04-.08-.03-.09-.03-.08-.03-.08-.03-.09-.03-.08-.03-.1-.03-.08-.02-.09-.03-.1-.03-.08-.03-.1-.02h-.02l-.07-.03-.1-.04-.1-.03-.09-.03-.1-.04-.1-.03-.1-.03-.1-.03-.1-.03-.1-.03-.1-.03-.11-.02-.1-.03-.12-.03-.1-.02-.11-.03-.11-.02-.12-.03-.1-.02-.12-.02-.12-.03-.11-.02h-.05l-.07-.02-.11-.03-.12-.03-.12-.03-.12-.03-.12-.02-.13-.03-.12-.02-.12-.03-.13-.02-.12-.03-.13-.02-.13-.02-.12-.02-.13-.02h-.05l-.08-.02-.14-.03-.13-.02-.13-.02-.14-.03-.13-.02-.1-.01h-.04l-.13.02zm-.22-2.99l.14-.06.15-.07.14-.06.14-.06.15-.06.09-.04.05-.02.15-.05.14-.05.15-.06.15-.04.14-.05.15-.05.14-.04.15-.04.15-.05.14-.04.15-.04.15-.04.14-.04.15-.03.08-.02.07-.01.14-.03.15-.02.15-.02.14-.02.15-.02.14-.02.15-.02.15-.02.14-.01.15-.02h.14l.15-.02.14-.01.15-.01h.14l.15-.02H43.9l.14-.01H44.47l.14.02.14.01.14.02.14.01.14.02.14.01.14.02.13.02.14.02.14.02.13.03.14.02.09.02h.04l.13.04.13.03.14.03.13.04.13.03.13.04.13.04.04.01.08.03.13.05.12.04.13.05.12.05.13.05.12.05.12.05.07.03.05.02.12.06.12.06.12.06.12.06.11.06.12.07.11.06.11.07.12.07.1.07.12.07.1.07.12.07.1.08.11.08.1.08.1.08.11.08.1.08.1.09.1.08.04.04.06.05.1.1.1.09.09.1.09.09.1.1.08.1.09.1.08.1.09.11.08.1.08.12.08.11.08.11.07.12.07.12.07.12.07.12.07.12.06.12.06.13.06.13.05.13.05.13.05.13.05.14.04.13.04.14.04.14.03.14.04.14.02.14.02.1v.04l.03.14.01.14.02.15v.14l.02.14V69.56l-.02.14-.01.14-.02.13-.01.14-.03.14-.02.13-.03.14-.03.13-.03.14-.03.13-.04.13-.04.13-.04.12-.05.13-.05.13-.04.12-.06.12-.05.12-.06.12-.05.12-.06.12-.06.12-.07.11-.06.11-.07.12-.07.1-.07.12-.07.1-.07.11-.08.1-.07.11-.08.1-.08.1-.08.1-.08.1-.09.1-.08.1-.09.1-.08.1-.1.1-.08.09-.1.09-.09.09-.09.09-.1.09-.09.09-.1.09-.1.08-.1.09-.1.08-.1.09-.1.08-.1.08-.1.08-.11.08-.1.08-.12.08-.1.08-.11.07-.12.08-.1.07-.12.08-.02.01-.1.06-.1.07-.13.07-.11.07-.12.07-.12.07-.12.07-.12.07-.12.06-.12.07-.13.06-.12.06-.13.07-.12.06-.13.06-.13.06-.13.06-.13.06-.13.06-.13.05-.13.06-.13.05-.14.06-.13.05-.14.05-.13.05-.14.06-.14.05-.14.04-.13.05-.14.05-.14.05-.15.04-.14.05-.14.04-.14.04-.15.05-.14.04-.15.04-.15.04-.14.03-.15.04-.15.04-.15.03-.15.04-.15.03-.15.03-.15.04-.15.03-.16.03-.15.02-.15.03-.16.03-.15.02-.16.03-.15.02-.16.03-.16.02h-.02l-.13.02-.16.02-.16.01-.15.02-.16.02-.15.01-.16.01-.15.02h-.15l-.16.02h-.15l-.15.01-.16.01h-.15l-.15.01H36.8l-.15-.01h-.14l-.15-.01-.14-.01-.14-.01-.15-.01-.14-.02-.14-.01-.15-.01-.14-.02-.14-.01-.14-.02-.14-.02-.13-.02-.14-.02-.14-.02-.14-.02-.13-.02-.14-.03-.13-.02-.14-.03-.13-.03-.13-.02-.13-.03-.13-.03-.13-.03-.13-.04-.13-.03-.13-.03-.13-.04-.12-.03-.13-.04-.13-.04-.12-.04-.12-.04-.12-.04-.13-.04-.1-.03-.02-.01-.12-.05-.12-.04-.11-.05-.12-.05-.12-.04-.11-.05-.12-.05-.11-.05-.11-.06-.12-.05-.1-.06-.12-.05-.1-.06-.11-.06-.11-.06-.1-.06-.11-.06-.1-.06-.1-.06-.11-.07-.1-.06-.1-.07-.1-.07-.1-.07-.1-.07-.09-.07-.1-.08-.09-.07-.09-.08-.09-.08-.09-.07-.08-.08-.09-.09-.09-.08-.08-.08-.08-.09-.08-.09-.08-.09-.08-.09-.07-.09-.08-.09-.07-.1-.07-.1-.07-.09-.07-.1-.06-.1-.07-.1-.06-.1-.06-.1-.06-.11-.05-.1-.05-.12-.05-.1-.05-.12-.05-.11-.04-.11-.04-.12-.04-.11-.04-.12-.03-.12-.03-.12-.03-.12-.02-.12-.02-.12-.02-.12-.02-.12-.01-.12-.01-.12-.01-.13v-.6l.01-.12.01-.12.02-.12.01-.12.02-.12.02-.11.03-.12.03-.11.02-.12.04-.11.03-.11.04-.11.03-.11.04-.11.05-.11.04-.11.05-.1.04-.11.05-.1.06-.11.05-.1.05-.1.06-.1.06-.1.06-.1.06-.1.07-.1.06-.1.07-.1.06-.08.07-.1.07-.09.08-.1.07-.08.08-.1.07-.08.08-.09.08-.08.08-.09.08-.09.08-.08.09-.08.08-.09.09-.08.09-.08.08-.08.1-.08.09-.08.09-.07.1-.08.09-.08.1-.07.09-.08.1-.07.1-.08.1-.07.1-.07.1-.07.1-.07.1-.07.11-.07.1-.07.11-.06.11-.07.11-.07.11-.06.11-.07.12-.06.1-.06.12-.06.12-.07.11-.06.12-.06.12-.06.09-.04.03-.01.12-.06.12-.06.12-.05.12-.06.12-.05.13-.06.12-.05.13-.05.12-.05.13-.05.13-.05.13-.05.13-.05.13-.05.13-.04.13-.05.14-.04.13-.05.13-.04.14-.04.13-.04.14-.04.14-.04.14-.04.13-.04.14-.04.14-.03.14-.04.15-.03.14-.04.14-.03.14-.03.15-.03.14-.03.15-.03.14-.03.15-.03.15-.02.14-.03.15-.02.15-.02.15-.03h.07l.08-.02.15-.02.05-.02.1-.05z" fill="#008fd7"/><path d="M105.49 7.59l104.46 1.73-97.99 36.25L7.5 43.84 105.5 7.59z"/><path d="M104.54 10.11L61.94 26.2l-39.76 15 25.25.25 62.6.67 1.35.02 55.05-20.37-.08-.3 22.49-8.44-10-.16-6.84-.13-6.73-.17-12.96-.43-22.79-1.04-16.48-.97-7.23-.5h-.02l-1.25.48zm8.58-4.81l16.5-.42 22.82-.28h12.96l6.73.05 6.84.1 16.3.29 14.75.29.68.07.67.2.62.3.56.4.48.5.39.56.28.63.13.51.04.16.05.68-.06.69-.18.66-.3.62-.4.56-.48.48-.56.4-.62.28-42.97 15.68-55.2 20.08-.4.12-.42.07-.42.02-.56-.02-63.47-1.43v-.25l-40.43-.67-.47-.06-.47-.14-.43-.2-.38-.3-.33-.34-.27-.4-.2-.43-.11-.46-.03-.48.04-.47.13-.45.2-.43.28-.38.34-.33.38-.27.43-.2L60.31 21.8 103.12 6.3l1.66-.6.24-.08.25-.04h.25l.36-.02 7.24-.25z"/><path d="M114.9 20.64l-7.18-3.47-20.67 4.81-15.77 4.68-8.04 2.59-5.75 2.69-4.64 3-4.74 3.88-4.97 5.96-5.04 9.82-1.5 9.79-.64 8.42.15 27.77 18.8-2.92-10.82-25.4-2.06-14.77 5.3-15.65 8.16-8.6 7.75-4 12.95-4.04 13.43-3.82 8.27-1.92 9.52-.61 1.6.33 3.22 1.3 2.67.16z" fill="#008fd7"/><path d="M116.6 18.97l.26.31.2.36.15.38.07.4v.42l-.07.4-.14.39-.2.35-.26.32-.3.27-.36.2-.38.16-.4.08h-.41l-1.44-.07-1.24-.06-.38-.05-.38-.1-3.02-1.18-1.07-.2-3.29.2-3.7 1.12-12.08 3.53-1.33.47-7.95 2.62-4.14 1.3-2.05.62-2.1.7-5.6 1.78-3.68 1.71-1.51.7-4.16 2.66-4.22 3.4-.03.03-1.25 1.47-4.77 14.15.19.02 1.52 10.88.13-.02.39 2.6v-.01l10.64 24.96.23-.1.2.6.11.64v.64l-.1.64-.21.6-.31.57-.4.51-.47.44-.55.35-.6.26-.62.16-11.46 1.87-7.33 1.19-.7.05-.7-.06-.67-.19-.64-.3-.58-.4-.5-.5-.4-.57-.31-.64-.2-.69-.07-.7-.37-27.96.23-3.43.36-5.34 1.45-9.97.16-.7.28-.68 5.2-10.31 5.5-6.7.03-.04 5.27-4.35 5.11-3.35 1.84-.87 4.47-2.1 6.1-1.99 2.28-.72 2.1-.61 4.29-1.2 8.27-2.2 1.4-.33 14.42-2.63 6.65-1.06.54-.03.52.07.51.11-.01.05.45.23 1.72.97 4.96 2.88.25.14.35.21.31.27zm-76.26 54l-.08 22.88 2.56-.38 6.59-.98-8.65-20.82-.15-.45-.09-.47-.1-.74-.08.95z" fill="#008fd7"/><path d="M402.17 77.86l14.1 3.12c-1.51 10.03 1.47 16.18 11.42 16.29 7.46-1.3 12.46-4.75 12.67-12.37-1.92-10.35-9.8-16.8-19.1-19.5-11.27-.42-15.3 6.47-19.1 12.45z" fill="#404040"/><path d="M401.38 79.16l-.03-.01-.22-.17-.18-.2-.14-.22-.1-.24-.06-.26-.01-.27.03-.26.08-.26.13-.23.22-.38.12-.2.35-.57.18-.3.17-.28.18-.3.19-.3.18-.29.19-.3.19-.29.2-.3.19-.29.2-.3.1-.14.1-.15.1-.15.1-.15.11-.14.1-.15.11-.15.1-.14.12-.15.1-.15.12-.14.1-.15.12-.14.11-.15.12-.14.12-.14.11-.15.12-.14.12-.14.12-.14.13-.14.12-.14.13-.14.12-.14.13-.14.13-.14.13-.13.14-.14.13-.13.14-.14.13-.13.14-.13.14-.13.15-.13.14-.13.15-.13.15-.13.14-.12.16-.13.15-.12.1-.08.05-.04.16-.13.16-.12.16-.11.16-.12.17-.12.16-.1.17-.12.17-.11.17-.11.18-.1.17-.12.18-.1.18-.1.18-.1.19-.1.18-.1.19-.1.19-.1.2-.08.19-.1.2-.08.19-.09.2-.08.2-.09.2-.08.22-.07.2-.08.22-.07.2-.07.23-.07.21-.07.22-.07.23-.06.22-.06.23-.06.23-.05.23-.06.23-.05.24-.05.23-.04.24-.05.25-.04.24-.03.25-.04.25-.03.25-.04.25-.02.26-.03.26-.02.26-.02.26-.02.27-.02.26-.01.27-.01h.28l.27-.01H421.33l.26.03.25.05.22.07.23.06.24.07.22.07.23.07.23.07.23.07.23.07.23.08.22.08.23.07.22.08.23.09.22.08.23.08.22.09.22.09.22.09.23.09.22.09.22.1.21.09.22.1.22.1.22.1.21.1.22.1.21.1.22.11.2.1.22.12.21.1.21.12.21.11.2.12.22.12.2.12.2.12.21.12.2.12.21.13.2.12.2.13.2.13.2.13.2.13.2.14.2.14.19.13.19.14.2.14.18.15.2.14.18.15.19.14.19.15.18.15.19.16.18.15.18.16.18.15.18.16.18.16.17.17.18.16.17.17.17.16.06.06.11.11.17.17.17.17.17.18.16.17.17.18.16.18.16.18.16.18.15.19.16.18.15.2.16.18.15.2.15.18.14.2.15.2.14.19.15.2.14.2.13.2.14.2.14.21.13.2.13.22.13.2.13.22.13.21.12.22.12.21.12.22.12.22.12.23.11.22.11.22.12.23.1.23.1.23.11.23.1.23.1.24.1.23.1.24.1.24.09.24.09.25.08.24.09.25.08.24.08.25.08.25.08.25.07.26.07.25.07.26.07.26.06.26.06.26.06.26.06.26.1.53v.48l-.01.2v.2l-.02.2-.01.2-.01.2-.02.2-.02.2-.02.19-.02.19-.02.2-.01.04-.02.14-.03.2-.03.18-.03.19-.04.19-.03.18-.04.19-.05.18-.04.18-.04.18-.05.18-.05.18-.05.18-.06.17-.05.18-.06.17-.06.17-.06.17-.07.17-.06.17-.07.17-.07.16-.08.17-.07.16-.08.16-.08.16-.08.16-.08.15-.09.16-.08.15-.1.16-.08.15-.1.15-.09.15-.1.14-.1.15-.1.14-.1.14-.1.14-.1.14-.11.14-.11.14-.11.13-.11.13-.12.13-.11.13-.12.13-.12.13-.12.12-.12.12-.13.12-.12.12-.13.12-.13.12-.13.11-.13.12-.13.1-.13.12-.14.1-.13.11-.14.1-.14.11-.14.1-.14.1-.14.1-.15.1-.14.1-.15.09-.15.1-.14.08-.15.1-.15.08-.16.09-.15.08-.15.09-.16.08-.15.08-.16.08-.16.08-.15.08-.16.07-.16.08-.17.07-.16.07-.16.07-.17.07-.16.07-.17.07-.16.06-.17.07-.17.06-.17.06-.17.06-.17.06-.17.06-.17.06-.18.06-.17.05-.18.05-.17.06-.18.05-.18.05-.1.03-.08.02-.18.05-.18.05-.18.04-.18.05-.18.04-.18.05-.19.04-.18.04-.19.04-.18.04-.19.04-.19.04-.18.03-.46.09-.52-.01h-.51l-.26-.02h-.25l-.25-.02-.25-.02-.24-.02-.25-.02-.24-.02-.24-.03-.24-.03-.24-.03-.23-.04-.24-.04-.23-.04-.23-.04-.23-.04-.22-.05-.23-.05-.22-.06-.22-.06-.22-.06-.21-.06-.22-.06-.21-.07-.21-.07-.21-.08-.21-.08-.2-.08-.21-.08-.2-.09-.2-.09-.2-.09-.2-.1-.18-.1-.2-.1-.18-.1-.19-.1-.18-.12-.19-.11-.17-.12-.18-.12-.17-.12-.18-.13-.17-.13-.16-.13-.17-.13-.16-.14-.15-.14-.16-.14-.15-.15-.15-.15-.15-.15-.14-.15-.14-.16-.14-.16-.1-.11-.04-.05-.13-.16-.12-.17-.13-.16-.12-.17-.12-.18-.12-.17-.11-.18-.1-.18-.12-.18-.1-.18-.1-.18-.1-.19-.1-.18-.08-.2-.1-.18-.08-.2-.08-.19-.08-.2-.07-.19-.08-.2-.07-.2-.07-.2-.06-.2-.06-.2-.06-.2-.06-.2-.06-.22-.05-.2-.05-.21-.04-.21-.05-.21-.02-.1-.02-.12-.04-.2-.03-.22-.04-.22-.03-.22-.03-.21-.02-.22-.03-.22-.02-.22-.02-.23-.02-.22-.01-.22-.01-.23-.02-.23v-.22l-.01-.23V84.67l.01-.24.02-.24v-.23l.03-.24.01-.24.02-.24.01-.1-5.4-1.7-3.91-1.4-1.7-.66-.1-.03-.25-.08-.2-.1zm18.17-11.8h-.22l-.22.01-.22.01-.22.01-.21.02-.22.01-.2.02-.21.02-.2.02-.2.03-.2.02-.2.03-.2.03-.2.03-.18.04-.2.03-.18.04-.18.04-.18.04-.18.04-.18.05-.18.04-.17.05-.17.05-.17.06-.17.05-.17.05-.16.06-.16.06-.16.06-.16.06-.16.07-.16.06-.15.07-.15.07-.15.07-.15.07-.15.07-.15.07-.14.08-.15.08-.14.07-.14.09-.14.08-.14.08-.14.08-.13.09-.14.09-.13.08-.13.1-.14.09-.13.09-.04.03-.08.06-.13.1-.13.1-.13.1-.12.09-.12.1-.13.1-.12.1-.12.1-.12.11-.12.1-.12.11-.11.11-.12.11-.12.11-.11.11-.11.12-.12.11-.11.12-.11.11-.11.12-.11.11-.11.12-.1.12-.12.12-.1.13-.11.12-.1.12-.11.13-.1.12-.1.13-.11.12-.1.13-.1.13-.1.13-.1.13-.1.13-.1.13-.1.13-.1.13-.1.13-.2.27-.2.27-.19.27-.19.27-.19.28-.19.27-.08.12 4.86.55 6.78.99.39.07.46.13.44.2.4.28.34.34.29.39.22.44.14.47.06.49-.01.5-.03.22-.02.22v.04l-.02.17-.02.21-.02.21-.02.2-.01.22-.02.2-.01.2v.12l-.02.08-.01.2-.01.2-.01.19-.01.2-.01.18v.2l-.01.18v.36l-.01.18V86.27l.01.17.01.16.01.17.01.16.02.16.01.15.02.16.01.15.02.15.02.15.02.15.03.14.02.14.01.08.01.06.03.14.03.13.03.13.03.13.03.13.03.13.03.12.04.13.03.11.04.12.04.12.04.11.04.11.04.11.05.1.04.11.05.1.04.1.05.1.05.1.05.1.05.1.05.08.05.1.06.08.05.1.06.08.05.08.06.08.06.08.06.08.02.02.05.06.06.08.06.07.07.08.07.07.06.07.07.07.08.07.07.07.07.07.08.07.08.06.08.07.08.06.08.06.09.07.09.06.09.06.09.06.1.06.09.05.1.06.1.06.1.05.11.06.11.05.11.05.11.05.12.05.12.05.12.05.13.04.13.05.13.04.13.05.14.04.14.04.14.04.15.03.14.04.16.04.15.03.16.03.16.03.16.03.17.03.17.02.17.03.18.02.18.02.18.02.19.02.19.01.19.02.2.01.2.01h.19l.16-.02.15-.03.16-.03.15-.03.16-.03.15-.03.15-.03.15-.03.15-.04.14-.03.15-.03.15-.04.05-.01.09-.02.14-.04.14-.04.14-.03.14-.04.14-.04.14-.04.13-.04.13-.04.14-.04.13-.04.13-.05.13-.04.12-.04.13-.05.12-.04.13-.05.12-.05.12-.04.12-.05.12-.05.12-.05.11-.05.11-.05.12-.05.1-.06.12-.05.1-.05.12-.06.1-.05.1-.06.11-.05.1-.06.1-.06.1-.06.1-.05.1-.06.1-.06.09-.06.09-.07.1-.06.08-.06.09-.06.09-.07.08-.06.09-.07.08-.06.09-.07.08-.07.08-.06.08-.07.07-.07.08-.07.08-.07.07-.07.07-.08.08-.07.07-.07.07-.08.06-.07.07-.08.07-.08.06-.07.07-.08.06-.08.06-.08.07-.08.06-.09.05-.08.06-.08.06-.09.06-.09.05-.08.06-.1.05-.08.05-.1.05-.09.05-.09.05-.1.05-.09.05-.1.04-.1.05-.1.04-.1.04-.1.05-.1.04-.1.04-.11.04-.11.03-.11.04-.11.04-.12.03-.11.04-.12.03-.12.03-.12.03-.12.03-.12.03-.12.02-.13.03-.13.02-.13.02-.1v-.03l.03-.13.02-.14.02-.14.01-.13.02-.14.02-.15.01-.14.01-.15.01-.15v-.08l-.01-.12-.04-.21-.05-.22-.04-.2-.05-.22-.05-.21-.05-.21-.05-.2-.05-.21-.06-.2-.06-.21-.06-.2-.06-.2-.06-.2-.07-.2-.06-.2-.07-.2-.07-.2-.08-.18-.07-.2-.08-.19-.07-.19-.08-.18-.08-.2-.08-.18-.09-.18-.08-.19-.1-.18-.08-.18-.1-.18-.08-.18-.1-.18-.1-.17-.09-.18-.1-.17-.1-.17-.1-.18-.1-.17-.11-.16-.1-.17-.11-.17-.11-.17-.12-.16-.1-.16-.12-.17-.12-.16-.12-.16-.11-.16-.13-.15-.12-.16-.12-.15-.12-.16-.13-.15-.13-.15-.13-.15-.13-.15-.13-.15-.13-.15-.14-.15-.09-.09-.04-.05-.14-.14-.14-.15-.14-.14-.14-.14-.14-.14-.15-.14-.14-.14-.15-.13-.15-.14-.14-.13-.15-.13-.16-.13-.15-.13-.15-.13-.16-.13-.16-.13-.15-.12-.16-.13-.16-.12-.16-.12-.17-.12-.16-.12-.17-.12-.16-.12-.17-.11-.17-.12-.17-.11-.17-.12-.17-.1-.17-.12-.18-.1-.17-.11-.18-.11-.17-.1-.18-.1-.18-.11-.18-.1-.18-.1-.18-.1-.18-.1-.19-.1-.18-.1-.19-.09-.19-.1-.18-.09-.2-.09-.18-.09-.19-.08-.2-.1-.18-.08-.2-.08-.19-.09-.2-.08-.19-.08-.2-.08-.19-.08-.2-.07-.2-.08-.2-.07-.2-.08-.2-.07-.2-.07-.2-.07-.2-.07-.2-.07-.2-.06-.2-.01h-.24l-.23-.02H419.55z"/><path d="M416.82 80.97l-17.18-4.17-8.38 13.2 33.9 7.27c-8.67-3.61-10.7-9.27-8.33-16.3z" fill="#404040"/><path d="M417.65 79.69l.2.15.17.18.14.21.1.23.07.25.03.25-.02.25-.06.25-.05.16-.05.15-.04.15-.04.16-.04.15-.04.15-.04.15-.03.14-.04.15-.03.15-.03.15-.03.14-.03.14-.02.15-.03.14-.02.14-.02.14-.02.14-.02.14-.01.14-.02.14-.01.14-.01.13-.01.14-.01.13-.01.13v.27l-.01.13v.51l.01.13v.12l.02.12v.13l.02.12.01.12.02.12.01.12.02.12.02.12.02.12.02.11.03.12.02.12.03.1.03.12.03.12.03.1.03.12.04.1.03.12.04.1.04.12.04.1.04.11.05.1.04.12.05.1.05.1.05.1.05.11.06.1.05.1.06.11.06.1.06.1.06.1.06.1.07.1.07.1.06.1.08.1.07.1.07.1.08.1.08.1.08.09.08.1.08.1.09.09.09.1.09.09.09.1.1.09.09.09.1.1.1.09.1.09.1.09.11.1.11.08.11.1.12.08.11.1.12.08.12.1.12.08.13.1.12.08.13.09.13.08.14.1.13.08.14.08.14.09.15.08.14.09.15.08.15.08.15.09.16.08.15.08.16.08.17.08.16.08.17.08.17.08.17.08.18.08.17.08.18.07h.02l.4.1-.03.06.17.07.2.08.31.16.29.21.24.26.2.3.14.33.08.35.02.36-.04.36-.1.35-.17.32-.21.3-.27.24-.3.2-.34.15-.36.1-.37.01-.36-.04-8.44-1.64-15.42-3.01-10.18-2.01-.42-.12-.4-.19-.37-.25-.33-.3-.27-.36-.22-.39-.15-.43-.08-.44v-.45l.07-.45.13-.44.21-.4 6.51-10.26-.12-.08 1.84-2.95.28-.38.34-.34.38-.28.15-.07.27-.14.45-.15.47-.07h.48l.47.07 1.1.27 1.5.38 1.46.4 2.8.84 4.88 1.7 3.48 1.39 1.52.65.08.04.24.08.22.11zm-16.77.86v-.02l-2.34 3.62-2.7 4.08 6.1 1.41L416.28 93l-.03-.04-.1-.15-.1-.14-.08-.15-.1-.15-.08-.14-.08-.15-.08-.15-.08-.15-.08-.15-.08-.15-.07-.16-.07-.15-.07-.15-.02-.06-.04-.1-.06-.15-.06-.16-.06-.16-.06-.16-.05-.15-.05-.16-.05-.16-.05-.16-.04-.16-.04-.16-.04-.16-.04-.17-.03-.16-.03-.16-.03-.16-.03-.17-.02-.16-.03-.17-.02-.16-.02-.16-.01-.17-.02-.17v-.16l-.02-.17v-.16l-.01-.17V85.8l.01-.17.01-.17.02-.17v-.16l.03-.17.01-.17.02-.17.02-.17.03-.17.02-.17.03-.17.03-.17.03-.17.03-.18.04-.17.03-.17.04-.17.04-.17.05-.17.04-.17-2.75-.17-3.95-.45-2.2-.37-1.14-.23-1.16-.26v-.02l-2.53-.61-.17.26z"/><path d="M422.7 65.32c-23.14-1.45-34.2 36.55-34.64 58.13-1 48.2 46.12 88.3 31 119.98l-100.24-32.86c13.84-30.8-10.61-60.18-12.1-97.5-.93-23.13 10.19-58.56 33.47-60.75 18.28 2.6 62.5 9.1 82.51 13z" fill="#b3b3b3"/><path d="M340.45 50.48l1.8.26 1.92.28 2.07.3 2.19.33 2.3.35 2.41.36 2.5.37 2.6.4 2.68.4 2.42.37.32.05 2.8.43 2.85.44 2.9.45 2.93.45 2.95.46 2.96.47 1.49.24 1.49.23 1.48.24 1.48.24 1.48.23 1.48.24 1.47.24 1.46.24 1.45.23 1.45.24 1.43.24 1.43.23 1.4.24 1.4.23 1.39.23 1.37.23 1.35.23 1.33.23 1.31.23 1.3.22 1.27.22 1.25.22 1.22.22 1.2.22 1.17.2 1.15.22 1.12.2 1.09.2 1.06.2.75.15.27.05 1 .2.95.18.25.07.23.11.21.15.18.18.15.2.12.23.07.25.03.25v.26l-.06.25-.1.24-.13.21-.16.2-.2.16-.22.13-.2.07-.04.02-.25.05h-1.5l-.13.01h-.12l-.12.02h-.12l-.12.01-.12.01h-.12l-.12.02-.12.01-.12.01-.12.02h-.12l-.12.02-.11.02-.12.01-.12.02-.12.02-.11.01-.12.02-.11.02-.12.02-.12.03-.11.02-.12.02-.11.02-.11.03-.12.02-.11.03-.12.02-.1.03-.12.03-.11.02-.12.03-.1.03-.12.03-.11.03-.11.04-.11.03-.11.03-.11.04-.11.03-.11.04-.11.03-.11.04-.1.04-.12.03-.1.04-.11.04-.11.04-.1.04-.12.04-.1.05-.1.04-.12.04-.1.05-.1.04-.11.05-.1.04-.11.05-.1.05-.11.05-.1.05-.11.04-.1.06-.1.05-.05.02-.06.03-.1.05-.1.05-.11.05-.1.06-.2.1-.21.12-.2.11-.2.12-.2.12-.2.12-.2.12-.2.13-.2.13-.2.13-.2.13-.19.14-.19.14-.2.14-.18.15-.2.14-.19.15-.18.15-.2.16-.18.15-.19.16-.18.16-.19.16-.18.17-.18.17-.18.16-.18.18-.18.17-.18.18-.18.18-.18.18-.18.18-.17.18-.17.2-.18.18-.17.2-.17.19-.17.19-.17.2-.17.2-.17.2-.17.2-.16.2-.17.22-.16.2-.17.22-.16.2-.16.23-.16.21-.16.22-.16.22-.16.22-.16.23-.15.22-.15.23-.16.23-.15.23-.15.24-.15.23-.15.24-.15.23-.15.24-.15.25-.15.24-.14.24-.15.25-.14.25-.14.24-.14.25-.14.26-.14.25-.14.25-.14.26-.13.26-.01.01-.13.25-.14.25-.13.26-.14.27-.13.26-.14.26-.13.27-.13.27-.13.26-.13.27-.12.27-.13.27-.13.28-.12.27-.13.28-.12.27-.12.28-.12.28-.12.27-.12.28-.12.29-.12.28-.11.28-.12.28-.11.29-.12.28-.1.29-.12.29-.1.28-.12.3-.1.28-.11.3-.11.28-.1.3-.11.29-.1.29-.1.3-.1.29-.1.3-.1.29-.1.3-.1.29-.1.3-.1.3-.09.3-.1.29-.08.3-.1.3-.09.3-.08.3-.1.3-.08.3-.09.3-.08.3-.09.3-.08.3-.08.3-.08.3-.09.3-.07.31-.08.3-.08.3-.08.3-.07.31-.08.3-.07.3-.08.3-.07.31-.07.3-.07.3-.07.3-.06.31-.07.3-.07.3-.06.3-.06.31-.07.3-.06.3-.06.3-.06.3-.06.3-.06.3-.05.3-.06.3-.06.3-.05.3-.05.3-.06.3-.05.3-.05.3-.05.3-.04.29-.01.05-.04.24-.05.3-.05.3-.05.29-.04.29-.05.3-.04.28-.04.3-.04.28-.05.3-.04.28-.03.29-.04.29-.04.28-.04.29-.03.28-.03.29-.04.28-.03.28-.03.29-.03.28-.03.27-.03.28-.03.28-.02.28-.03.27-.02.27-.03.28-.02.27-.02.27-.02.27-.02.27-.02.26-.02.27-.02.26-.01.27-.02.26-.01.26-.01.26-.02.26v.25l-.02.26v.25l-.02.25v.25l-.01.25v.25l-.01.25v.48l-.01.27V125.41l.01.27v.26l.01.27.01.27v.27l.02.27v.27l.02.27v.27l.02.27.02.26.01.27.02.27.01.27.02.26.02.27.02.27.02.27.02.26.02.27.03.27.02.26.02.27.03.26.03.27.03.27.02.26.03.27.03.26.04.27.03.26.03.27.01.1.02.16.04.27.03.26.04.27.04.26.03.27.04.26.04.26.04.27.04.26.04.27.05.26.04.26.04.27.05.26.04.26.05.26.05.27.05.26.04.26.05.26.05.27.06.26.05.26.05.26.05.26.06.27.05.26.06.26.06.26.05.26.06.25v.01l.06.26.06.26.06.26.06.26.06.26.13.52.12.52.13.52.13.52.14.52.14.52.14.51.14.52.15.52.15.51.15.52.15.51.16.52.16.5.16.52.16.51.17.52.16.5.17.52.17.5.18.52.17.5.18.52.18.5.19.51.18.5.19.52.18.5.2.5.19.51.19.5.2.51.19.5.2.5.2.5.05.14.15.37.2.5.2.5.21.5.2.5.22.5.2.5.22.5.21.5.21.5.22.49.21.5.22.49.22.5.22.49.22.49.22.5.22.48.23.5.22.49.22.49.23.49.22.49.23.49.23.48.23.5.22.48.46.97.46.97.47.97.46.97.46.96.47.96.46.96.47.95.93 1.91.5 1.03.42.87.46.94.46.94.45.95.46.93.45.94.44.93.45.93.44.93.43.93.22.46.21.47.22.46.21.46.21.46.21.46.21.46.2.46.21.46.2.45.21.46.2.46.2.45.2.46.2.45.2.46.18.45.2.46.18.45.2.45.18.46.18.45.18.45.18.45.18.45.17.45.18.45.17.45.17.45.16.44.17.45.16.45.16.44.16.45.15.45.15.44.15.45.15.44.14.44.15.45.13.44.14.44.13.45.13.44.13.44.13.44.12.44.12.44.11.44.11.44.11.44.1.44.06.22.05.22.05.22.05.21.05.22.04.22.05.22.05.22.04.22.04.22.05.22.04.21.04.22.04.22.04.22.04.22.04.21.03.22.04.22.03.22.04.21.03.22.03.22.03.22.03.21.03.22.03.22.03.21.02.22.03.22.02.22.02.21.03.22.02.22.02.21.02.22.01.22.02.21.02.22.01.21.02.22v.22l.02.21.01.22v.21l.02.22v.21l.01.22v.43l.01.21v1.29l-.01.22-.01.21v.21l-.02.22v.21l-.02.22-.01.21-.02.21-.01.22-.02.21-.02.21-.02.22-.02.21-.02.21-.02.22-.03.2-.02.22-.03.21-.03.22-.02.2-.04.22-.03.21-.03.21-.04.21-.03.22-.04.2-.04.22-.04.2-.04.22-.04.21-.04.21-.05.21-.05.21-.05.21-.04.21-.06.21-.05.21-.05.2-.06.22-.05.2-.06.22-.06.2-.06.21-.06.21-.07.2-.06.22-.07.2-.07.21-.07.2-.07.22-.07.2-.07.2-.08.21-.08.21-.08.2-.08.21-.08.2-.08.21-.08.2-.09.21-.09.2-.09.2-.09.21-.09.2-.1.2-.09.21-.09.2-.23.4-.29.35-.34.3-.38.24-.42.18-.44.11-.46.04-.45-.04-.45-.1-3.7-1.23-77.56-25.67-18.88-6.26-.39-.17-.35-.23-.32-.28-.26-.33-.2-.37-.13-.4-.07-.41v-.42l.07-.41.14-.4.08-.17.08-.17.07-.17.08-.18.07-.17.08-.17.07-.17.07-.17.07-.17.07-.17.07-.17.07-.17.06-.17.07-.17.07-.17.06-.17.07-.17.06-.17.06-.17.06-.18.06-.17.06-.17.06-.17.06-.17.06-.17.06-.17.05-.17.06-.17.05-.17.06-.17.05-.17.05-.16.1-.35.1-.34.1-.34.1-.34.09-.34.09-.34.08-.33.09-.34.08-.34.07-.34.08-.34.07-.34.07-.34.06-.34.07-.34.06-.34.05-.34.06-.34.05-.34.05-.34.05-.34.05-.34.04-.34.04-.34.04-.34.03-.35.03-.34.03-.34.03-.34.03-.34.02-.34.02-.34.02-.35.01-.34.02-.34v-.34l.02-.35v-.34l.01-.34v-1.72l-.02-.35v-.34l-.02-.35-.01-.34-.02-.35-.02-.34-.02-.35-.02-.34-.03-.35-.02-.35-.03-.35-.03-.34-.03-.35-.04-.35-.03-.35-.04-.35-.04-.35-.04-.34-.04-.35-.05-.35-.04-.35-.05-.36-.05-.35-.05-.35-.06-.35-.05-.35-.06-.35-.05-.36-.06-.35-.06-.35-.07-.36-.06-.35-.07-.36-.06-.35-.07-.36-.07-.35-.07-.36-.07-.35-.08-.36-.07-.36-.08-.35-.08-.36-.08-.36-.08-.36-.08-.36-.08-.36-.09-.36-.08-.36-.09-.36-.09-.36-.08-.36-.1-.36-.08-.36-.1-.37-.09-.36-.1-.36-.09-.37-.1-.36-.1-.37-.09-.36-.1-.37-.1-.36-.2-.73-.2-.74-.21-.74-.21-.73-.22-.74-.21-.75-.22-.74-.22-.75-.23-.74-.22-.75-.23-.75-.23-.76-.23-.75-.46-1.52-.47-1.52-.02-.07-.44-1.46-.47-1.54-.24-.78-.23-.77-.23-.78-.24-.78-.23-.78-.23-.79-.23-.79-.22-.78-.23-.8-.22-.8-.22-.79-.22-.8-.11-.4-.11-.4-.1-.4-.12-.4-.1-.4-.1-.4-.11-.41-.1-.4-.11-.41-.1-.4-.1-.41-.1-.41-.1-.4-.1-.42-.1-.4-.1-.41-.1-.41-.1-.42-.09-.4-.1-.42-.09-.41-.09-.42-.09-.41-.09-.42-.08-.41-.09-.42-.09-.42-.08-.41-.08-.42-.09-.42-.08-.42-.08-.42-.07-.42-.08-.42-.08-.43-.07-.42-.07-.43-.07-.42-.07-.43-.07-.42-.07-.43-.06-.43-.07-.43-.06-.42-.06-.43-.06-.44-.06-.43-.05-.43-.06-.43-.05-.44-.05-.43-.05-.43-.04-.44-.05-.44-.04-.44-.04-.43-.04-.44-.04-.44-.04-.44-.03-.44-.03-.45-.03-.44-.03-.44-.02-.45-.03-.44-.02-.45-.02-.44-.02-.45v-.28l-.01-.28-.01-.29v-.28l-.01-.29V111.16l-.01-.28V109.42l.01-.29.01-.3v-.29l.02-.3v-.29l.02-.3v-.3l.02-.3.02-.29.01-.3.02-.3.02-.3.01-.3.02-.3.03-.31.02-.3.02-.3.03-.31.02-.3.03-.31.03-.31.03-.3.03-.32.03-.3.03-.31.03-.31.04-.31.03-.31.04-.31.04-.31.04-.32.04-.3.04-.32.04-.31.05-.32.04-.31.05-.31.04-.32.05-.31.05-.32.05-.31.05-.32.06-.31.05-.32.05-.31.06-.32.06-.31.06-.32.06-.32.06-.31.06-.32.06-.31.07-.32.06-.32.07-.31.06-.32.07-.32.07-.31.07-.32.07-.32.08-.31.07-.32.08-.32.07-.31.08-.32.08-.31.08-.32.08-.32.08-.31.09-.32.08-.31.09-.32.08-.31.1-.31.08-.32.09-.31.1-.32.08-.3.1-.32.1-.31.09-.32.1-.3.1-.32.1-.3.1-.32.1-.31.1-.3.1-.32.1-.3.11-.31.1-.31.12-.3.1-.31.12-.31.1-.3.12-.31.11-.3.12-.3.12-.31.11-.3.12-.3.12-.3.12-.3.13-.3.12-.3.12-.3.13-.3.13-.3.12-.29.13-.29.13-.3.13-.29.14-.29.13-.29.14-.29.13-.29.14-.29.14-.28.14-.29.14-.28.14-.29.14-.28.15-.28.14-.28.15-.28.15-.28.15-.28.15-.28.15-.27.15-.28.15-.27.16-.27.16-.27.15-.27.16-.27.16-.27.16-.27.16-.26.17-.26.16-.27.17-.26.16-.26.17-.25.17-.26.17-.26.17-.25.18-.25.17-.25.18-.25.17-.25.18-.25.18-.24.18-.25.18-.24.19-.24.18-.24.18-.24.2-.23.18-.24.19-.23.19-.23.2-.23.18-.23.2-.22.2-.23.19-.22.2-.22.2-.22.2-.21.2-.22.2-.21.2-.21.21-.21.2-.21.21-.2.21-.21.21-.2.22-.2.21-.2.21-.2.22-.19.22-.2.21-.18.22-.19.22-.18.23-.19.22-.18.23-.18.22-.18.23-.17.23-.17.23-.17.23-.17.23-.17.24-.16.23-.16.24-.16.23-.16.24-.15.24-.15.25-.15.24-.15.24-.14.25-.14.25-.14.24-.14.25-.13.26-.14.25-.13.25-.12.26-.13.25-.12.26-.12.26-.11.26-.11.26-.11.26-.11.27-.1.26-.1.27-.1.26-.1.27-.1.27-.09.27-.08.28-.09.27-.08.28-.08.27-.07.14-.04.14-.04.14-.03.14-.04.14-.03.14-.03.14-.03.14-.04.14-.03.14-.03.14-.03.14-.02.15-.03.14-.03.14-.02.14-.03.15-.02.14-.03.15-.02.14-.02.14-.02.15-.02.14-.02.15-.02.14-.02.15-.01.15-.02.14-.02.15-.01.14-.01.22-.01.22.02zm-.34 3.71l-.12.02-.13.01-.12.02-.13.01-.12.02-.12.02-.13.02-.12.01-.12.02-.13.02-.12.03-.12.02-.12.02-.12.02-.12.03-.13.02-.12.03-.12.02-.12.03-.12.02-.12.03-.12.03-.12.03-.11.03-.12.03-.12.03-.12.03-.11.03-.24.07-.24.07-.23.07-.23.07-.23.08-.23.08-.23.08-.23.08-.23.09-.22.09-.23.09-.22.1-.22.09-.23.1-.22.1-.22.1-.22.1-.22.12-.21.1-.22.12-.22.12-.21.11-.22.12-.2.13-.22.12-.21.13-.21.13-.21.13-.2.13-.22.14-.2.14-.2.14-.21.14-.2.14-.21.15-.2.15-.2.15-.2.15-.2.16-.2.16-.2.16-.2.16-.19.16-.2.17-.19.17-.2.17-.18.17-.2.17-.18.18-.2.18-.18.18-.19.18-.19.18-.18.2-.19.18-.18.19-.18.19-.18.2-.18.19-.18.2-.18.2-.18.2-.18.2-.17.2-.18.21-.17.21-.17.21-.18.21-.17.22-.17.21-.17.22-.16.22-.17.22-.17.22-.16.22-.17.23-.16.23-.16.22-.16.23-.16.24-.16.23-.16.23-.16.24-.15.24-.16.24-.15.24-.15.24-.16.24-.15.24-.15.25-.15.25-.14.25-.15.25-.15.25-.14.25-.15.26-.14.25-.14.26-.14.26-.14.26-.14.26-.14.26-.13.26-.14.26-.13.27-.14.27-.13.26-.13.27-.13.27-.13.27-.13.27-.13.28-.12.27-.13.27-.12.28-.13.28-.12.27-.12.28-.12.28-.12.28-.12.28-.11.28-.12.29-.11.28-.12.28-.11.29-.11.29-.11.28-.11.29-.11.29-.1.29-.11.29-.1.29-.11.29-.1.29-.1.3-.1.28-.1.3-.1.3-.1.29-.1.3-.1.29-.1.3-.09.29-.09.3-.09.3-.09.3-.09.29-.09.3-.08.3-.09.3-.08.3-.09.3-.08.3-.08.3-.08.3-.08.3-.08.3-.08.3-.07.3-.08.3-.07.31-.08.3-.07.3-.07.3-.07.31-.07.3-.07.3-.06.31-.07.3-.06.3-.06.31-.07.3-.06.3-.06.31-.06.3-.05.3-.06.31-.06.3-.05.3-.05.3-.06.31-.05.3-.05.3-.05.3-.05.3-.04.31-.05.3-.04.3-.05.3-.04.3-.04.3-.04.3-.04.3-.04.3-.04.3-.03.3-.04.3-.03.3-.04.29-.03.3-.03.3-.03.29-.03.3-.02.29-.03.29-.03.3-.02.28-.02.3-.03.29-.02.29-.02.29-.02.29-.01.28-.02.3-.02.28-.01.29-.02.28v.29l-.02.28-.01.28-.01.28v.28l-.01.29-.01.27v.28l-.01.28v2.18l.01.27v.27l.02.27v.26l.02.26v.27l.03.42.02.43.02.42.03.43.03.42.03.43.03.42.03.42.04.42.03.42.04.42.04.42.05.42.04.42.05.42.05.42.04.41.06.42.05.41.05.42.06.41.06.42.06.41.06.41.06.42.07.4.06.42.07.4.07.42.07.4.07.42.07.4.08.41.07.4.08.42.08.4.08.4.08.41.08.4.09.41.08.4.09.4.08.41.1.4.08.4.1.4.08.4.1.4.09.4.1.4.1.4.09.4.1.4.1.4.1.4.1.4.1.39.1.4.1.4.1.39.11.39.1.4.11.39.11.4.1.38.12.4.1.39.12.39.22.78.22.78.23.78.23.78.23.78.23.77.23.78.24.77.23.77.24.77.24.77.23.76.48 1.53.46 1.46.02.07.48 1.52.47 1.52.24.75.23.76.24.75.23.76.23.75.23.76.23.75.22.75.22.75.22.75.22.75.22.75.2.74.11.38.1.37.1.38.11.37.1.37.1.38.1.37.1.37.1.38.1.37.09.37.1.37.09.38.09.37.09.37.09.37.09.38.09.37.08.37.09.37.08.38.08.37.08.37.08.37.08.37.08.38.08.37.07.37.07.37.07.37.07.38.07.37.07.37.06.37.07.37.06.38.06.37.06.37.06.37.05.38.05.37.06.37.05.37.04.38.05.37.05.37.04.37.04.38.04.37.03.37.04.37.03.38.03.37.03.37.03.38.02.37.03.37.02.38.01.37.02.37.01.38.02.37v.38l.01.37v2.25l-.02.37v.38l-.02.37-.02.38-.02.37-.02.38-.03.37-.03.38-.03.37-.03.38-.04.38-.03.37-.05.38-.04.38-.05.37-.05.38-.05.38-.06.37-.06.38-.06.38-.06.37-.07.38-.07.38-.07.38-.08.37-.08.38-.08.38-.09.38-.09.38-.09.37-.1.38-.1.38-.1.38-.1.38-.1.38-.12.37-.06.2-.06.18-.05.2-.06.18-.06.19-.07.19-.06.19-.06.19-.06.19-.07.19-.06.19-.07.19-.07.19-.07.19-.07.19-.06.19-.08.19-.07.19-.03.08 18.35 6.02.02-.08 73.39 23.8 3.53 1.15.03-.1.06-.16.06-.17.06-.17.06-.18.06-.17.05-.17.06-.17.05-.17.05-.17.05-.18.05-.17.05-.17.05-.17.04-.18.05-.17.04-.17.04-.18.04-.17.04-.17.04-.18.04-.17.04-.18.03-.17.04-.18.03-.17.03-.18.03-.17.03-.18.03-.18.03-.17.03-.18.02-.18.03-.17.02-.18.02-.18.03-.18.02-.17.02-.18.01-.18.02-.18.02-.18.01-.18.02-.18v-.18l.02-.18.01-.18.01-.18.01-.18v-.18l.02-.18v-.55l.01-.18V229.03l-.01-.18v-.19l-.01-.18-.01-.2-.01-.18-.01-.18-.01-.2-.01-.18-.02-.18-.01-.2-.01-.18-.02-.19-.02-.19-.01-.19-.02-.19-.02-.18-.02-.2-.02-.18-.03-.2-.02-.19-.02-.19-.03-.19-.02-.19-.03-.2-.03-.18-.03-.2-.03-.19-.03-.2-.03-.18-.03-.2-.03-.2-.04-.19-.03-.2-.04-.19-.03-.2-.04-.19-.04-.2-.04-.19-.04-.2-.04-.2-.04-.19-.04-.2-.04-.2-.05-.2-.04-.19-.05-.2-.04-.2-.05-.2-.05-.2-.1-.4-.1-.4-.1-.4-.11-.4-.11-.4-.11-.41-.12-.4-.12-.41-.12-.41-.13-.41-.13-.41-.13-.41-.13-.42-.14-.41-.14-.42-.14-.41-.15-.42-.15-.42-.15-.42-.15-.42-.15-.42-.16-.43-.16-.42-.17-.42-.16-.43-.17-.43-.17-.43-.17-.42-.17-.44-.18-.43-.18-.43-.18-.43-.18-.44-.19-.43-.18-.44-.2-.44-.18-.43-.2-.44-.19-.44-.2-.45-.2-.44-.2-.44-.2-.45-.2-.44-.2-.45-.2-.45-.21-.44-.21-.45-.21-.45-.22-.46-.21-.45-.21-.45-.44-.91-.44-.91-.44-.92-.44-.92-.45-.93-.46-.92-.46-.94-.46-.93-.46-.94-.43-.87-.5-1.02-.94-1.91-.47-.96-.47-.96-.47-.97-.48-.97-.47-.97-.47-.98-.47-.98-.47-.98-.23-.5-.24-.5-.23-.49-.23-.5-.23-.5-.23-.5-.24-.5-.23-.5-.23-.5-.22-.5-.23-.5-.23-.5-.23-.5-.22-.51-.23-.51-.22-.5-.22-.52-.22-.5-.22-.52-.22-.51-.22-.51-.22-.52-.21-.51-.22-.52-.2-.51-.22-.52-.15-.38-.06-.14-.2-.52-.21-.52-.2-.52-.21-.52-.2-.52-.2-.53-.2-.52-.2-.53-.2-.53-.19-.53-.19-.52-.19-.53-.18-.54-.19-.53-.18-.53-.18-.53-.18-.54-.18-.53-.17-.54-.17-.54-.17-.54-.17-.54-.16-.54-.17-.54-.16-.54-.16-.54-.15-.55-.15-.54-.15-.55-.15-.55-.14-.55-.15-.55-.13-.55-.14-.55-.13-.55-.07-.28-.06-.27-.07-.28-.06-.28-.06-.27v-.01l-.06-.27-.06-.28-.06-.28-.06-.28-.06-.28-.06-.28-.05-.28-.06-.27-.05-.28-.06-.28-.05-.28-.05-.29-.05-.28-.05-.28-.05-.28-.05-.28-.05-.28-.05-.28-.04-.29-.05-.28-.04-.28-.05-.28-.04-.29-.04-.28-.04-.28-.04-.29-.04-.28-.04-.29-.04-.28-.03-.29-.04-.28-.02-.18-.01-.1-.04-.3-.03-.28-.03-.28-.03-.29-.03-.29-.03-.28-.02-.29-.03-.29-.02-.28-.03-.3-.02-.28-.02-.29-.02-.29-.02-.28-.02-.3-.02-.28-.02-.3-.01-.28-.02-.3-.01-.28-.01-.3-.02-.28v-.3l-.02-.28v-.3l-.01-.28v-.3l-.01-.29v-.29l-.01-.3V124.28l.02-.3v-.29l.01-.29v-.26l.02-.27v-.27l.02-.27.01-.27.02-.27.01-.27.02-.27.01-.28.02-.27.02-.28.02-.28.02-.28.02-.28.02-.28.03-.29.02-.28.03-.29.03-.28.02-.29.03-.29.03-.29.03-.29.03-.29.04-.3.03-.28.04-.3.03-.3.04-.29.04-.3.04-.3.04-.3.04-.3.04-.3.04-.3.05-.3.04-.3.05-.3.05-.3.04-.3.05-.31.05-.31.05-.3.06-.31.05-.31.05-.31.06-.3.06-.32.05-.3.05-.27.01-.05.06-.3.07-.32.06-.31.06-.31.07-.31.07-.32.06-.31.07-.31.07-.32.07-.31.08-.32.07-.31.07-.31.08-.32.07-.31.08-.32.08-.32.08-.31.08-.32.08-.31.08-.32.09-.31.08-.32.09-.32.08-.31.09-.32.09-.31.09-.32.09-.32.09-.31.1-.32.09-.31.1-.32.09-.32.1-.31.1-.32.09-.31.1-.32.1-.31.1-.31.1-.32.11-.31.1-.31.11-.32.11-.31.1-.31.12-.31.1-.31.12-.31.11-.32.12-.3.11-.31.12-.31.11-.31.12-.31.12-.3.12-.31.12-.31.12-.3.13-.31.12-.3.13-.3.12-.3.13-.31.13-.3.13-.3.13-.3.13-.3.14-.3.13-.3.14-.3.13-.29.14-.3.14-.29.14-.29.14-.29.14-.29.14-.29.15-.29.14-.29.15-.28.15-.29.14-.28.15-.29.15-.28.16-.28.15-.28.15-.28.16-.27.15-.28.16-.28.15-.25v-.02l.17-.27.16-.27.17-.27.16-.27.17-.26.17-.27.16-.26.17-.26.17-.26.18-.26.17-.26.17-.25.18-.25.17-.26.18-.25.18-.25.18-.24.18-.25.18-.24.18-.25.19-.24.18-.24.2-.23.18-.24.19-.23.19-.23.19-.23.2-.23.19-.23.19-.22.2-.23.2-.22.2-.21.2-.22.2-.22.2-.2.2-.22.2-.2.2-.21.21-.2.21-.2.21-.2.21-.2.21-.2.22-.2.21-.19.22-.18.21-.19.22-.18.22-.19.22-.18.22-.17.23-.18.22-.17.23-.17.22-.16.23-.17.23-.16.23-.16.23-.16.23-.15.24-.15.23-.15.24-.15.24-.14.24-.14.24-.14.24-.13.24-.13.25-.13.24-.13.25-.12.25-.12.24-.12.13-.05.13-.06.12-.06.13-.05.08-.04.04-.02.13-.05.13-.05.13-.05.12-.05.06-.02-.43-.08-1.22-.2-1.25-.21-1.26-.21-1.3-.22-1.3-.21-1.34-.22-1.35-.22-1.36-.22-1.38-.22-1.4-.22-1.41-.22-1.43-.23-1.43-.22-1.45-.23-1.45-.22-1.46-.23-1.47-.22-1.48-.23-1.47-.22-1.49-.23-1.48-.22-1.49-.23-1.48-.22-2.97-.44-2.95-.44-2.93-.43-2.9-.43-2.85-.41-2.8-.41-.32-.05-2.43-.35-2.67-.38-2.6-.37-2.5-.36-2.41-.34-2.3-.33-2.2-.3-2.06-.3-1.93-.27-1.56-.21h-.05z"/><path d="M368.28 235.6l-14.44 34.8 9.29-3.38 6.97 14.06 6.02-38.45" fill="#ffc800"/><path d="M363.9 264.49l.4.16.36.23.32.28.27.33.21.37.96 1.98-.15.07 2.83 5.73 3.4-19.28 2.03-11.52.08-.45v-.01l.63-1 1.11-.28h.02l.98.62.29 1.13v.01l-.06.45-1.59 11.6-3.64 26.52-.08.37-.15.36-.13.21-.07.12-.26.3-.3.24-.34.2-.37.12-.39.07h-.4l-.39-.06-.38-.13-.35-.19-.31-.25-.27-.3-.21-.34h-.01l-4.28-8.25-1.83-3.63-.02.05-7.06 2.58.04.13-.44.13-.46.05-.46-.02-.46-.1-.43-.17-.19-.11-.2-.13-.36-.3-.3-.37-.24-.4-.17-.45-.1-.46v-.47l.06-.47.14-.46 3.5-8.76 1.99-4.92 1.58-3.85.68-1.61.7-1.57 1.42-3 2.7-5.2 2.1-3.7.97-1.6.05-.07 2-.83.82 2-.02.1-.45 1.8-1.13 4.1-1.78 5.58-1.12 3.12-.61 1.61-.66 1.62-1.61 3.84-2.08 4.88-1.2 2.78 3.18-1.12.42-.1.43-.05.43.03.42.1z"/><path d="M389.53 239.3l15.78 42.2-10.98-6.6-6.44 8.94-7.42-39.6" fill="#ffc800"/><path d="M390.08 237.95l.88.81.06.1.94 1.73 2.05 3.99 2.63 5.6 1.38 3.22.68 1.69.66 1.72 1.53 4.14 1.91 5.26 4.74 13.16.4 1.14.12.45.05.46-.03.46-.11.44-.18.42-.24.39-.3.34-.36.28-.39.23-.42.15-.45.08-.45.01-.44-.06-.42-.14-.4-.2-6.32-3.94v-.06l-2.58-1.55-.01-.05-5.2 7-.26.3-.3.25-.35.19-.37.13-.38.06-.39.01-.38-.06-.36-.12-.34-.18-.3-.24-.26-.28-.2-.31-.16-.35-.1-.37-4.57-27.06-2.04-12.2-.08-.47v-.01l.25-1.15.96-.63h.02l1.12.24.65.98.1.48 2.5 12.11 4.46 21.67 3.38-4.69-.1-.07.26-.32.31-.27.35-.22.39-.16.4-.09.42-.02.42.04.4.12.39.18 1.43.83 2.75 1.61-2.66-6.84-2-5.23-1.56-4.12-.64-1.73-.59-1.72-1.08-3.34-1.69-5.95-1.07-4.35-.42-1.93-.02-.1.13-1.2.76-.76.02-.01 1.07.08z"/><path d="M378.3 182.92c10.33 2.81 18.71 18.82 18.71 35.71 0 16.9-8.38 28.32-18.7 25.5-10.33-2.81-18.72-18.81-18.72-35.7 0-16.9 8.39-28.33 18.71-25.51z" fill="#ffc800"/><path d="M375.23 180.92h.39l.14.01.13.01.13.01.13.01.14.01.13.02.14.01.13.02.13.02.14.02.13.02.14.02.13.02.13.03.14.03.13.02.14.03.12.03h.01l.14.04.13.03.14.04.13.03.14.04.13.02.14.03.14.03.14.03.14.03.14.03.14.03.13.03.14.04.14.04.14.03.14.04.14.04.13.05.14.04.14.04.14.05.13.05.14.04.14.05.13.06.05.01.09.04.14.05.13.06.14.06.13.06.13.06.14.06.13.06.14.07.13.06.13.07.14.07.13.07.13.07.14.07.13.07.13.07.13.08.13.08.13.07.13.08.14.08.13.08.13.08.13.08.12.09.13.08.13.09.13.08.13.1.13.08.13.1.12.08.13.1.13.09.12.1.13.09.13.1.12.1.13.1.12.09.13.1.12.1.03.02.1.09.11.1.12.11.12.1.12.12.12.1.12.12.12.11.12.11.12.12.12.11.11.12.12.11.12.12.11.12.12.12.11.12.12.12.11.12.12.13.1.12.12.12.11.13.12.13.11.12.11.13.11.13.11.13.11.13.11.13.11.13.11.14.11.13.1.14.12.13.1.14.11.13.1.14.11.14.1.14.11.14.1.14.11.14.1.15.11.14.1.15.2.28.21.3.2.3.04.05.16.25.18.3.2.32.18.3.18.32.18.32.18.32.18.32.18.33.17.33.17.33.17.33.17.34.11.24.05.1.16.34.15.34.16.35.15.35.15.35.14.36.07.16.08.2.13.35.14.37.13.36.13.36.13.37.13.37.02.07.1.3.11.38.12.37.11.38.11.38.1.38.11.38.1.39.1.38.1.4.1.38.09.4.09.38.08.4.09.39.05.29.03.1.07.4.08.4.07.4.07.4.06.4.06.4.06.41.06.4.06.41.05.4.05.42.04.4.04.42.04.4.04.42.03.41.03.41.03.42.02.36v.05l.02.42.02.41.02.42V216.96l.01.2v.63l.01.21v1.05l-.01.2v.21l-.01.21v.2l-.02.21v.21l-.01.2-.01.21-.01.2-.01.2-.01.21-.02.2-.01.2-.01.2-.02.2-.02.2-.01.2-.02.2-.02.2-.02.2-.01.2-.03.2-.02.2-.02.2-.02.19-.02.2-.03.19-.02.2-.03.18-.02.2-.03.19-.03.19-.03.2-.03.18-.03.2-.03.18-.03.19-.03.19-.03.18-.04.19-.03.19-.04.18-.03.19-.04.18-.04.18-.04.19-.03.18-.04.18-.04.18-.04.18-.05.18-.04.18-.04.18-.04.18-.05.17-.04.18-.05.18-.05.17-.04.18-.05.17-.05.17-.05.18-.05.17-.05.17-.05.17-.05.17-.05.17-.06.17-.05.16-.06.17-.05.17-.06.16-.05.17-.06.16-.06.17-.06.16-.06.16-.06.16-.06.16-.06.16-.06.16-.07.16-.06.16-.06.16-.07.15v.02l-.06.14-.07.15-.07.16-.06.15-.07.15-.07.15-.07.15-.07.15-.07.15-.07.15-.08.15-.07.15-.07.14-.08.15-.07.14-.08.15-.07.14-.08.14-.08.14-.08.15-.07.14-.08.13-.08.14-.08.14-.09.14-.08.13-.08.14-.08.13-.09.14-.08.13-.09.13-.08.13-.09.13-.09.13-.08.13-.1.12-.08.13-.09.13-.09.12-.09.12-.1.13-.08.12-.1.12-.09.12-.1.12-.09.12-.1.12-.09.11-.1.12-.1.11-.1.12-.09.11-.1.11-.1.11-.1.11-.1.11-.1.11-.1.1-.1.11-.1.1-.11.11-.1.1-.11.1-.1.11-.12.1-.1.1-.11.1-.1.1-.12.1-.1.09-.12.09-.1.1-.12.08-.11.1-.12.08-.1.1-.12.08-.12.09-.11.08-.12.09-.12.08-.11.08-.12.08-.12.08-.12.08-.12.08-.12.07-.12.08-.12.07-.12.08-.12.07-.13.07-.12.07-.12.07-.13.06-.12.07-.13.06-.12.06-.13.07-.13.06-.13.06-.12.05-.13.06-.13.05-.13.06-.13.05-.13.05-.14.05-.13.05-.13.05-.13.04-.14.05-.13.04-.13.04-.14.04-.13.04-.14.04-.14.04-.13.03-.14.03-.14.04-.13.03-.14.03-.14.02-.14.03-.14.02-.14.03-.14.02-.14.02-.14.02-.14.02-.14.01-.14.02h-.14l-.14.02-.14.01h-.15l-.14.01-.14.01h-1l-.15-.01-.14-.01-.14-.01-.15-.01-.14-.02h-.15l-.14-.03-.15-.01-.14-.02-.15-.02-.14-.02-.14-.03-.15-.02-.14-.03-.15-.03-.14-.03-.15-.03-.14-.03-.15-.04-.14-.03-.15-.04-.14-.04-.15-.04-.14-.04-.15-.04-.14-.05-.12-.04h-.02l-.15-.05-.14-.05-.14-.05-.14-.05-.14-.05-.14-.06-.14-.05-.14-.06-.14-.06-.14-.06-.14-.06-.14-.06-.14-.06-.13-.06-.14-.07-.14-.07-.13-.06-.14-.07-.13-.07-.14-.07-.13-.08-.13-.07-.14-.08-.13-.07-.13-.08-.13-.08-.13-.08-.13-.08-.13-.08-.13-.08-.13-.09-.13-.08-.13-.09-.13-.08-.12-.1-.13-.08-.13-.1-.12-.08-.13-.1-.12-.09-.13-.1-.12-.09-.12-.1-.12-.1-.13-.09-.12-.1-.12-.1-.12-.1-.12-.1-.12-.1-.12-.11-.12-.1-.12-.11-.11-.11-.12-.1-.12-.12-.11-.1-.12-.12-.12-.1-.11-.12-.11-.12-.12-.11-.11-.12-.11-.11-.12-.12-.1-.12-.12-.12-.11-.12-.11-.12-.11-.12-.11-.12-.11-.12-.1-.13-.12-.12-.1-.13-.11-.12-.1-.13-.11-.13-.1-.13-.11-.13-.1-.13-.11-.13-.1-.13-.1-.14-.11-.13-.1-.13-.1-.14-.1-.14-.1-.13-.1-.14-.1-.14-.1-.14-.1-.14-.1-.14-.1-.14-.1-.14-.1-.14-.09-.15-.1-.14-.09-.15-.1-.14-.09-.15-.09-.15-.1-.14-.08-.15-.1-.15-.18-.3-.18-.3-.18-.31-.17-.3-.18-.32-.17-.31-.17-.32-.16-.32-.17-.32-.16-.32-.16-.33-.16-.33-.16-.33-.15-.33-.16-.34-.15-.34-.14-.34-.15-.34-.14-.34-.14-.35-.14-.35-.04-.09-.1-.26-.13-.35-.13-.36-.13-.35-.13-.36-.12-.36-.12-.36-.12-.37-.12-.36-.11-.37-.11-.37-.11-.37-.11-.38-.1-.37-.1-.38-.1-.37-.1-.38-.1-.38-.09-.39-.09-.38-.08-.38-.09-.4-.08-.38-.08-.39-.07-.39-.07-.39-.07-.4-.07-.39-.07-.39-.06-.4-.06-.4-.05-.4-.06-.4-.05-.4-.05-.4-.04-.4-.04-.4-.04-.4-.04-.4-.03-.41-.03-.4-.03-.41-.02-.4-.02-.42-.02-.4-.02-.41v-.41l-.01-.2v-.21l-.01-.2v-2.06l.02-.2V207.2l.02-.2v-.2l.01-.21.01-.2.02-.2v-.2l.02-.2.01-.2.02-.2.01-.2.02-.2.01-.19.02-.2.02-.19.02-.2.01-.19.02-.2.03-.19.02-.19.02-.2.02-.18.03-.2.02-.18.02-.2.03-.18.03-.2.02-.18.03-.19.03-.18.03-.19.03-.18.03-.19.03-.18.03-.19.04-.18.03-.18.04-.18.03-.19.04-.18.03-.18.04-.17.04-.18.04-.18.04-.18.04-.18.04-.17.04-.18.04-.17.04-.17.05-.18.04-.17.04-.17.05-.17.04-.17.05-.17.05-.17.05-.17.05-.17.04-.17.05-.16.06-.17.05-.16.05-.17.05-.16.05-.17.06-.16.05-.16.06-.16.05-.16.06-.16.06-.16.05-.16.06-.15.06-.16.06-.16.06-.15.06-.15.06-.16.07-.15.06-.15.06-.15.07-.15.06-.15.07-.15.06-.15.07-.15.06-.14.07-.15.07-.14.07-.15.07-.14.07-.14.07-.15.07-.14.07-.14.08-.14.07-.14.07-.13.08-.14.07-.14.08-.13.07-.14.08-.13.08-.13.07-.13.08-.14.08-.13.08-.13.08-.12.06-.1.02-.03.08-.13.08-.12.09-.13.08-.12.08-.13.09-.12.08-.12.09-.12.08-.12.1-.12.08-.12.09-.12.08-.11.1-.12.08-.11.1-.12.08-.1.1-.12.09-.11.09-.1.1-.12.08-.1.1-.11.1-.1.09-.11.1-.1.09-.11.1-.1.1-.1.09-.1.1-.1.1-.1.1-.1.1-.1.1-.1.1-.09.1-.09.1-.1.1-.08.1-.1.11-.08.1-.09.1-.09.11-.08.1-.09.11-.08.11-.09.1-.08.12-.08.1-.08.11-.08.11-.07.11-.08.11-.08.11-.07.11-.07.12-.07.1-.08.12-.07.12-.06.1-.07.12-.07.12-.06.11-.07.12-.06.11-.06.12-.06.12-.06.11-.06.12-.06.12-.05.12-.06.12-.05.12-.05.12-.05.12-.05.12-.05.12-.05.12-.04.13-.05.12-.04.12-.04.13-.04.12-.04.12-.04.13-.04.12-.03.13-.04.12-.03.13-.03.12-.03.13-.03.13-.03.13-.02.12-.03.13-.02.13-.03.13-.02.13-.02.12-.01.13-.02.13-.02.13-.01.13-.01.13-.01.13-.01.13-.01.14-.01h.13l.13-.01h.53zm2.46 3.42l-.11-.02-.1-.03-.11-.02h-.01l-.1-.02-.1-.02-.1-.02-.11-.02-.1-.01-.11-.02-.1-.01-.1-.01-.1-.02h-.11l-.1-.02h-.1l-.1-.01h-.1l-.11-.01h-.1l-.1-.01h-.7l-.1.01h-.09l-.1.01-.1.01-.1.01-.09.01-.1.01-.09.01-.1.02-.1.01-.09.02-.1.01-.09.02-.09.02-.1.02-.09.02-.1.02-.09.02-.09.02-.1.03-.08.02-.1.03-.09.03-.09.03-.1.02-.08.03-.1.03-.08.04-.1.03-.09.03-.09.04-.09.03-.09.04-.09.04-.08.04-.1.04-.08.04-.09.04-.09.04-.09.04-.09.05-.08.04-.09.05-.09.05-.08.05-.1.05-.08.05-.08.05-.09.05-.09.05-.08.06-.09.05-.08.06-.09.05-.08.06-.08.06-.09.06-.08.06-.09.06-.08.07-.08.06-.09.06-.08.07-.08.07-.08.06-.08.07-.08.07-.09.07-.08.07-.08.08-.08.07-.08.07-.08.08-.08.08-.08.07-.07.08-.08.08-.08.08-.08.08-.08.08-.07.08-.08.09-.08.08-.07.09-.08.09-.08.08-.07.09-.08.09-.07.09-.07.1-.08.08-.07.1-.08.09-.07.1-.07.09-.07.1-.07.1-.08.1-.07.1-.07.1-.07.1-.07.1-.07.1-.07.1-.06.1-.07.11-.07.1-.07.12-.06.1-.07.11-.07.11-.01.03-.05.08-.07.12-.06.1-.07.12-.06.12-.07.11-.06.12-.06.11-.06.12-.07.12-.06.12-.06.12-.06.12-.06.12-.06.12-.06.13-.06.12-.06.13-.05.12-.06.13-.06.13-.05.13-.06.12-.05.13-.06.14-.05.13-.06.13-.05.13-.05.14-.06.13-.05.14-.05.13-.05.14-.05.14-.05.14-.05.14-.05.14-.04.14-.05.14-.05.14-.04.14-.05.15-.05.14-.04.15-.04.14-.05.15-.04.15-.04.15-.05.15-.04.15-.04.15-.04.15-.04.15-.04.15-.04.15-.03.16-.04.15-.04.16-.03.15-.04.16-.03.16-.04.16-.03.16-.03.16-.04.16-.03.16-.03.16-.03.16-.03.16-.03.17-.03.16-.03.17-.02.16-.03.17-.03.16-.02.17-.03.17-.02.17-.02.17-.03.17-.02.17-.02.17-.02.17-.02.17-.02.17-.02.18-.02.17-.02.18-.01.17-.02.18-.01.17-.02.18-.01.18-.02.18v.17l-.02.18-.01.18-.01.18-.01.18-.01.19-.01.18v.18l-.02.18v.37l-.01.19v.18l-.01.19v2.07l.01.2v.18l.02.2v.18l.01.19.01.19.01.19.02.38.02.37.03.38.03.38.03.37.04.37.04.38.04.37.04.37.05.38.05.37.05.37.05.36.06.37.06.37.06.36.06.37.07.36.07.36.07.37.08.36.07.35.08.36.08.36.09.35.09.35.08.36.1.35.09.34.1.35.1.35.1.34.1.34.1.34.1.34.12.34.1.33.12.33.12.33.11.33.12.33.13.33.12.32.13.32.12.32.13.31.1.24.03.08.14.31.13.31.14.3.14.31.14.3.14.3.14.3.15.3.15.3.15.28.15.29.15.28.16.29.15.28.16.27.16.28.16.27.16.27.16.26.17.26.17.26.08.13.08.13.09.13.08.12.09.13.08.12.09.13.08.12.09.12.09.12.08.12.09.12.09.12.08.12.1.12.08.11.09.12.09.11.09.12.09.11.09.11.09.12.09.1.09.12.09.1.09.11.09.11.1.1.08.11.1.1.09.11.09.1.1.1.09.1.09.1.1.1.09.1.09.1.1.1.09.1.1.09.09.1.1.08.09.1.1.09.09.09.1.08.09.1.1.08.09.09.1.08.1.09.09.08.1.08.09.08.1.08.1.08.09.08.1.08.1.07.1.08.09.07.1.08.1.07.09.07.1.07.1.07.1.07.1.07.09.06.1.07.1.06.1.06.09.07.1.06.1.06.1.06.1.06.09.05.1.06.1.05.1.06.1.05.1.05.09.05.1.05.1.05.1.05.1.05.09.04.1.05.1.04.1.05.1.04.09.04.1.04.1.04.1.03.1.04.09.04.1.03.1.03.1.04.09.03.1.03.1.03.1.03.09.02.1.03.1.03.1.02.09.02.1.03.09.02.1.02.1.02.09.02.09.01.1.02.09.01.1.02.08.01.1.01.09.01.09.01.1.01.08.01h.1l.08.01h.1l.08.01H381.74l.08-.01h.09l.08-.01.09-.01.09-.01.08-.01.09-.01.08-.01.08-.02h.09l.08-.02.09-.02.08-.01.08-.02.09-.02.08-.02.08-.02.08-.02.09-.02.08-.02.08-.02.08-.03.08-.02.08-.03.09-.02.08-.03.08-.03.08-.03.08-.03.08-.03.08-.03.08-.03.08-.04.08-.03.08-.04.08-.03.08-.04.08-.04.08-.04.07-.04.08-.04.08-.04.08-.04.08-.04.08-.05.07-.04.08-.05.08-.05.08-.04.07-.05.08-.05.08-.05.08-.05.07-.06.08-.05.08-.06.07-.05.08-.06.08-.05.07-.06.08-.06.07-.06.08-.06.07-.06.08-.07.07-.06.08-.06.07-.07.08-.07.07-.06.07-.07.08-.07.07-.07.08-.07.07-.07.07-.08.07-.07.08-.08.07-.07.07-.08.07-.08.07-.08.08-.08.07-.08.07-.08.07-.08.07-.08.07-.09.07-.08.07-.09.07-.09.07-.08.06-.1.07-.08.07-.1.07-.08.07-.1.06-.09.07-.1.07-.09.06-.1.07-.1.06-.1.07-.09.06-.1.07-.1.06-.1.07-.1.06-.1.06-.11.07-.1.06-.11.06-.11.06-.1.06-.12.06-.1.07-.12.06-.1.06-.12.05-.11.06-.12.06-.11.06-.12.06-.12.05-.11.06-.12.06-.12.05-.12.06-.12.05-.12.06-.12.05-.13.06-.12.05-.13.05-.12.06-.13.05-.13.05-.12.05-.12v-.01l.05-.13.05-.13.05-.13.05-.13.05-.14.05-.13.05-.14.04-.13.05-.14.05-.13.04-.14.05-.14.04-.14.05-.14.04-.14.04-.14.05-.14.04-.14.04-.15.04-.14.04-.15.04-.14.04-.15.04-.15.04-.14.04-.15.04-.15.03-.15.04-.15.03-.16.04-.15.03-.15.04-.15.03-.16.03-.15.04-.16.03-.16.03-.15.03-.16.03-.16.03-.16.03-.16.02-.16.03-.16.03-.16.02-.16.03-.17.02-.16.03-.16.02-.17.02-.16.03-.17.02-.17.02-.16.02-.17.02-.17.02-.17.02-.17.02-.17.01-.17.02-.17.02-.18.01-.17.02-.17v-.18l.02-.17.01-.18.02-.17v-.18l.02-.18v-.17l.02-.18v-.18l.01-.18.01-.18v-.18l.01-.18v-.18l.01-.18v-.55l.01-.19V218.26l-.01-.19v-.38l-.01-.18-.01-.18v-.19l-.02-.18v-.19l-.02-.37-.03-.37-.02-.37v-.05l-.03-.32-.03-.37-.03-.37-.03-.36-.04-.37-.04-.37-.04-.36-.05-.37-.05-.36-.05-.36-.05-.36-.06-.36-.05-.36-.07-.36-.06-.36-.06-.36-.07-.35-.07-.35-.08-.36-.02-.1-.05-.25-.08-.35-.08-.35-.08-.35-.08-.34-.09-.35-.08-.34-.1-.34-.09-.34-.1-.34-.09-.34-.1-.33-.1-.34-.1-.33-.11-.33-.09-.27-.02-.06-.1-.32-.11-.33-.11-.32-.12-.33-.11-.32-.12-.31-.06-.17-.05-.15-.12-.32-.12-.3-.12-.32-.12-.3-.13-.32-.12-.3-.04-.09-.09-.21-.12-.3-.13-.3-.13-.3-.13-.3-.13-.3-.14-.28-.13-.3-.14-.28-.14-.28-.14-.28-.14-.28-.15-.27-.12-.23-.02-.05-.14-.27-.14-.27-.15-.27-.07-.14-.07-.13-.08-.13-.07-.13-.07-.13-.08-.13-.07-.13-.08-.13-.08-.13-.07-.12-.08-.13-.07-.13-.08-.12-.08-.13-.08-.12-.08-.12-.07-.12-.08-.13-.08-.12-.08-.12-.08-.11-.08-.12-.08-.12-.09-.12-.08-.11-.08-.12-.08-.11-.08-.11-.09-.12-.08-.1-.08-.12-.09-.1-.08-.12-.09-.1-.08-.11-.09-.11-.08-.1-.09-.11-.08-.1-.1-.11-.08-.1-.08-.1-.1-.1-.08-.1-.09-.1-.07-.08-.02-.02-.08-.1-.09-.1-.08-.1-.1-.1-.08-.1-.09-.09-.08-.1-.1-.09-.08-.1-.09-.08-.09-.1-.09-.09-.09-.09-.09-.09-.09-.08-.09-.09-.09-.09-.09-.08-.09-.09-.1-.08-.08-.08-.1-.08-.09-.08-.09-.08-.1-.08-.09-.08-.09-.08-.1-.07-.09-.08-.1-.07-.09-.07-.1-.08-.09-.07-.1-.07-.09-.07-.1-.06-.09-.07-.1-.07-.1-.06-.09-.07-.1-.06-.1-.06-.06-.05-.03-.02-.1-.06-.1-.06-.1-.06-.1-.06-.09-.06-.1-.06-.1-.05-.1-.06-.1-.06-.1-.05-.1-.05-.1-.05-.1-.05-.1-.05-.1-.05-.1-.05-.1-.05-.1-.04-.1-.05-.1-.04-.11-.05-.1-.02-.11-.03z"/><path d="M331.55 78.46l-11.81 15.91 6.72 1.26-.35 1.2-8.83-1.66.14-.46 11.48-15.5-6.52-1.21.35-1.2 8.82 1.66zM330.4 97.95a1.9 1.9 0 01-1.2-.8c-.33-.44-.56-1-.69-1.68a8.74 8.74 0 01-.1-2.32c.06-.87.23-1.77.5-2.72.34-1.13.74-2.17 1.2-3.1.45-.93.93-1.72 1.45-2.36a5.83 5.83 0 011.6-1.44c.55-.32 1.1-.43 1.62-.33.47.09.85.33 1.15.74.3.4.5.9.62 1.5s.15 1.28.1 2.03c-.06.75-.2 1.52-.44 2.3l-5.35-1c-.28.95-.48 1.84-.6 2.68-.11.83-.15 1.57-.1 2.2.05.63.18 1.14.39 1.54.2.39.5.61.87.68.3.06.63.02.98-.13.34-.14.67-.35 1-.63a6.1 6.1 0 001.65-2.22l.3.43c-.32.71-.68 1.37-1.1 1.96-.42.6-.85 1.1-1.3 1.52-.45.42-.89.73-1.33.94-.44.2-.85.28-1.22.2zm4.36-9.65a7.8 7.8 0 00.3-1.52c.04-.48.03-.9-.04-1.28a2.28 2.28 0 00-.35-.9.98.98 0 00-.64-.43 1 1 0 00-.7.17c-.25.15-.5.38-.76.69-.25.3-.5.68-.74 1.13-.23.44-.44.93-.62 1.46l3.55.68zM341.21 84.4l.22.05-.67 2.93a7.72 7.72 0 011.6-1.9c.27-.22.54-.38.81-.48.27-.1.52-.13.76-.08.2.04.4.13.57.28.17.15.3.36.41.63l-1.15 2.29a2.1 2.1 0 00-.15-.55 1.23 1.23 0 00-.22-.35.78.78 0 00-.3-.2l-.32-.08a1.1 1.1 0 00-.57.05c-.2.07-.4.19-.62.36-.21.17-.43.4-.65.68-.23.28-.45.63-.67 1.02l-2.93 9.88-1.42-.27 4.05-13.67 1.25-.58zM349.38 81.13l.4.07-1.42 4.82 1.6.3-.36 1.2-1.6-.3-2.96 10c-.07.2-.1.4-.12.6-.02.2-.01.37.02.52.02.15.07.27.14.37.07.1.16.15.27.17.16.03.33-.02.5-.15.19-.13.36-.3.52-.52l.22.54c-.39.62-.8 1.09-1.22 1.4-.43.33-.87.44-1.33.36a.81.81 0 01-.55-.36c-.13-.2-.21-.45-.24-.76-.03-.32-.01-.68.05-1.09.06-.41.17-.86.31-1.35l2.97-9.99-1.25-.23.16-.53 1.44-.44 1.2-4.03 1.25-.6zM352.1 87.3l1.23-.62.42.08-4.29 14.44-1.42-.26 4.05-13.65zm1.65-6a3.32 3.32 0 01.57-1.09c.12-.13.24-.23.37-.3a.53.53 0 01.35-.06c.11.02.2.08.28.18.07.1.12.24.15.4.04.16.04.34.03.54a3.07 3.07 0 01-.37 1.25c-.1.19-.21.35-.33.48-.12.13-.24.23-.36.3a.53.53 0 01-.35.06.44.44 0 01-.28-.18.98.98 0 01-.16-.4 2.09 2.09 0 01-.02-.54c.01-.2.05-.41.12-.64zM361.36 89.73l-3.5-.65-3.85 12.98-1.43-.27 3.85-12.98-1.49-.28.36-1.2 1.5.28.48-1.64c.23-.77.51-1.49.85-2.14.35-.65.71-1.2 1.1-1.67.4-.45.8-.8 1.2-1.03.42-.24.8-.32 1.18-.25.3.05.55.19.76.4.22.22.39.5.51.86l-1.08 1.2c0-.38-.06-.7-.16-.97a.7.7 0 00-.55-.48c-.15-.03-.32.03-.5.16-.17.14-.34.33-.51.58a8.1 8.1 0 00-.87 1.9l-.99 3.34 4.91.93-4.2 14.18-1.42-.27 3.85-12.98zm1.86-6.65a3.23 3.23 0 01.57-1.1c.12-.12.24-.22.36-.29a.53.53 0 01.36-.06c.1.02.2.08.27.18.08.1.13.23.16.4.03.16.04.34.02.54a3 3 0 01-.37 1.25c-.1.18-.2.34-.32.47a1.3 1.3 0 01-.36.3.53.53 0 01-.36.07.44.44 0 01-.28-.19.98.98 0 01-.15-.39 2.04 2.04 0 01-.03-.55 3 3 0 01.13-.63zM365.35 95.25l5.3-5.05.93.18-4.75 4.56 1.3 9.76-1.88-.35-1.1-8.4-2.3 7.76-1.44-.27 6.12-20.6 1.26-.62.4.08-3.84 12.95zM373.67 105.74a1.98 1.98 0 01-.24-.87 3.3 3.3 0 01.15-1.2c-.24.23-.48.45-.72.7-.24.23-.5.44-.75.62a3.1 3.1 0 01-.78.41c-.28.1-.56.12-.87.06-.28-.05-.5-.19-.68-.41-.17-.22-.29-.5-.35-.85a4.35 4.35 0 01-.03-1.19 7.57 7.57 0 01.96-3.04 6.27 6.27 0 013.06-2.73c.39-.18.78-.33 1.17-.45l1.13-.33.26-.88c.2-.65.33-1.2.42-1.65.08-.45.12-.82.1-1.12-.02-.29-.09-.5-.2-.65a.8.8 0 00-.5-.27.9.9 0 00-.62.13c-.21.12-.42.3-.63.55-.2.24-.4.52-.6.87-.18.34-.34.7-.5 1.1l-1.3-.25c.22-.6.5-1.13.81-1.58.32-.44.66-.8 1.02-1.08s.74-.48 1.13-.59c.4-.11.77-.13 1.13-.06.47.08.84.25 1.1.49.27.24.45.54.54.9.1.35.12.77.06 1.26-.06.48-.17 1-.33 1.56l-2.6 8.76a3.3 3.3 0 00-.15 1.19 2 2 0 00.24.87l-1.43-.27zm1.78-8.38a10.54 10.54 0 00-1.58.77c-.27.16-.54.35-.8.55a5.76 5.76 0 00-1.34 1.5 4.97 4.97 0 00-.59 2.8c.04.26.11.46.21.62.1.16.23.26.38.29.16.03.32.01.49-.04.17-.06.34-.15.52-.26a17.53 17.53 0 001.14-.93l1.57-5.3zM383.88 87.6l.4.07-1.42 4.82 1.6.3-.36 1.2-1.6-.3-2.96 10c-.06.2-.1.4-.12.6-.01.2 0 .36.02.52.03.15.07.27.14.37.07.1.17.15.28.17.16.03.32-.02.5-.15s.35-.3.52-.52l.22.54c-.4.62-.8 1.09-1.23 1.4-.42.33-.87.44-1.33.36a.81.81 0 01-.55-.36c-.13-.2-.21-.45-.24-.76-.03-.32 0-.68.05-1.09.07-.41.17-.86.32-1.35l2.96-9.99-1.25-.23.16-.53 1.45-.44 1.2-4.03 1.24-.6z" fill-rule="nonzero" stroke="#000" stroke-width="1.38"/><path d="M328.74 110.83l.75.08.76.12 1.8.32 2.3.44 5.71 1.16 6.67 1.38 6.94 1.47 12.07 2.6 5.01 1.1.2.04.99.65.27 1.1v.02l-.62.95-1.15.3-.2-.03-5.1-.64-12.24-1.55-7.04-.91-6.75-.9-5.77-.81-2.3-.35-1.82-.29-.76-.14-.73-.18-1.42-.4-2.44-.93-1.74-.82-.76-.42-.04-.02-1.25-1.76 1.77-1.25.04-.01.85-.14 1.92-.2 2.61-.07 1.47.09zM326.82 124.97l1.3.13.67.1.68.14 1.6.38 2.01.5 5.04 1.33 5.87 1.58 6.12 1.67 10.62 2.95 4.42 1.24.18.05.94.7.21 1.12v.02l-.67.91-1.16.24-.18-.04-4.52-.78-10.86-1.92-6.24-1.12-5.98-1.1-5.11-.98-2.05-.42-1.6-.34-.67-.17-.65-.2-1.23-.44-2.13-1-1.5-.87-.64-.43-.04-.02-1.15-1.83 1.83-1.16h.04l.77-.12 1.73-.14 2.35.02zM338.46 146.19l.59.1.6.12 1.39.36 1.77.47 4.42 1.25 5.14 1.49 5.36 1.58 9.3 2.79 3.87 1.17.16.05.93.72.2 1.11v.02l-.69.9-1.16.22-.16-.03-3.97-.72-9.56-1.76-5.5-1.03-5.25-1.01-4.5-.9-1.8-.39-1.4-.32-.58-.16-.57-.18-1.08-.43-1.84-.95-1.3-.86-.56-.42-.03-.02-1.12-1.85 1.84-1.13h.04l.68-.12 1.55-.17 2.08-.01 1.15.1zM339.92 165.87l.22.04.5.13.63.19 1.56.53 1.81.66 1.89.71 3.27 1.28 1.35.54.06.02 1.16 1.83-1.83 1.16h-.06l-1.46-.1-3.5-.24-2.01-.16-1.92-.18-1.64-.19-.65-.1-.5-.1-.22-.05-.2-.1-.36-.24-.6-.65-.39-.62-.16-.33-.01-.01.67-2.99.02-.01.28-.22.62-.4.82-.33.43-.07h.22z"/></svg>