<?xml version="1.0" encoding="UTF-8" standalone="no"?><!DOCTYPE svg PUBLIC "-//W3C//DTD SVG 1.1//EN" "http://www.w3.org/Graphics/SVG/1.1/DTD/svg11.dtd"><svg width="100%" height="100%" viewBox="0 0 201 200" version="1.1" xmlns="http://www.w3.org/2000/svg" xmlns:xlink="http://www.w3.org/1999/xlink" xml:space="preserve" style="fill-rule:evenodd;clip-rule:evenodd;stroke-linejoin:round;stroke-miterlimit:1.41421;"><g id="Bot"><path d="M98.637,0.982c55.283,0 101.116,44.433 102.285,99.162c1.169,54.73 -42.764,99.163 -98.047,99.163c-55.283,0 -101.115,-44.433 -102.285,-99.163c-1.169,-54.729 42.764,-99.162 98.047,-99.162Z" style="fill:#dbdbdb;"/><clipPath id="_clip1"><path d="M98.637,0.982c55.283,0 101.116,44.433 102.285,99.162c1.169,54.73 -42.764,99.163 -98.047,99.163c-55.283,0 -101.115,-44.433 -102.285,-99.163c-1.169,-54.729 42.764,-99.162 98.047,-99.162Z"/></clipPath><g clip-path="url(#_clip1)"><path d="M146.642,295.505c16.762,-22.68 28.718,-52.539 33.692,-84.138c4.704,-29.893 2.87,-59.516 -5.202,-84.008l-139.229,2.897c-10.516,19.397 -17.982,41.858 -21.64,65.106c-6.036,38.353 -1.253,75.819 13.103,102.625l119.276,-2.482Z" style="fill:#bababa;"/><path d="M147.677,296.921l-0.228,0.141l-0.246,0.104l-0.259,0.067l-0.266,0.025l-2.478,0.063l-63.788,1.592l-53,1.313l-0.352,-0.02l-0.344,-0.074l-0.329,-0.127l-0.305,-0.177l-0.273,-0.223l-0.236,-0.263l-0.191,-0.297l0,0l-0.171,-0.318l-0.171,-0.322l-0.171,-0.322l-0.17,-0.324l-0.169,-0.325l-0.169,-0.325l-0.167,-0.327l-0.166,-0.327l-0.166,-0.329l-0.164,-0.329l-0.164,-0.331l-0.163,-0.331l-0.161,-0.332l-0.161,-0.333l-0.16,-0.334l-0.159,-0.335l-0.159,-0.336l-0.157,-0.337l-0.156,-0.337l-0.156,-0.339l-0.154,-0.34l-0.154,-0.34l-0.152,-0.341l-0.152,-0.342l-0.151,-0.343l-0.15,-0.344l-0.149,-0.345l-0.148,-0.346l-0.147,-0.346l-0.147,-0.348l-0.145,-0.348l-0.145,-0.349l-0.143,-0.35l-0.143,-0.351l-0.142,-0.352l-0.14,-0.353l-0.14,-0.353l-0.139,-0.354l-0.138,-0.355l-0.138,-0.356l-0.136,-0.357l-0.135,-0.358l-0.135,-0.358l-0.133,-0.359l-0.133,-0.361l-0.131,-0.36l-0.131,-0.362l-0.13,-0.363l-0.129,-0.363l-0.128,-0.364l-0.127,-0.365l-0.126,-0.366l-0.125,-0.366l-0.124,-0.367l-0.124,-0.368l-0.122,-0.369l-0.122,-0.37l-0.12,-0.37l-0.12,-0.371l-0.119,-0.372l-0.118,-0.373l-0.117,-0.373l-0.116,-0.374l-0.115,-0.375l-0.114,-0.376l-0.113,-0.376l-0.112,-0.377l-0.112,-0.378l-0.11,-0.379l-0.11,-0.379l-0.108,-0.38l-0.108,-0.381l-0.107,-0.382l-0.105,-0.382l-0.105,-0.383l-0.104,-0.383l-0.103,-0.385l-0.102,-0.385l-0.102,-0.386l-0.1,-0.386l-0.099,-0.387l-0.099,-0.388l-0.097,-0.389l-0.097,-0.389l-0.095,-0.39l-0.095,-0.39l-0.094,-0.391l-0.092,-0.392l-0.092,-0.393l-0.091,-0.393l-0.09,-0.394l-0.089,-0.395l-0.089,-0.395l-0.087,-0.395l-0.086,-0.397l-0.085,-0.397l-0.085,-0.398l-0.083,-0.398l-0.083,-0.399l-0.081,-0.4l-0.081,-0.4l-0.08,-0.401l-0.079,-0.401l-0.078,-0.403l-0.076,-0.402l-0.076,-0.404l-0.076,-0.403l-0.074,-0.405l-0.073,-0.405l-0.072,-0.406l-0.071,-0.406l-0.071,-0.407l-0.069,-0.407l-0.069,-0.408l-0.067,-0.409l-0.067,-0.409l-0.065,-0.41l-0.065,-0.41l-0.064,-0.411l-0.063,-0.412l-0.062,-0.412l-0.06,-0.412l-0.06,-0.413l-0.06,-0.414l-0.058,-0.414l-0.057,-0.415l-0.056,-0.415l-0.055,-0.416l-0.055,-0.416l-0.053,-0.417l-0.052,-0.417l-0.052,-0.418l-0.05,-0.418l-0.05,-0.419l-0.049,-0.42l-0.047,-0.42l-0.047,-0.42l-0.046,-0.421l-0.045,-0.421l-0.044,-0.422l-0.043,-0.422l-0.042,-0.423l-0.041,-0.424l-0.04,-0.423l-0.039,-0.425l-0.038,-0.424l-0.037,-0.426l-0.036,-0.425l-0.036,-0.426l-0.034,-0.427l-0.034,-0.427l-0.032,-0.427l-0.031,-0.428l-0.031,-0.429l-0.03,-0.428l-0.028,-0.43l-0.028,-0.429l-0.027,-0.43l-0.025,-0.431l-0.025,-0.431l-0.024,-0.431l-0.023,-0.432l-0.022,-0.432l-0.021,-0.433l-0.02,-0.433l-0.019,-0.433l-0.018,-0.434l-0.017,-0.434l-0.016,-0.434l-0.015,-0.435l-0.014,-0.436l-0.014,-0.435l-0.012,-0.436l-0.011,-0.437l-0.011,-0.437l-0.009,-0.437l-0.008,-0.437l-0.008,-0.438l-0.006,-0.439l-0.006,-0.438l-0.005,-0.439l-0.003,-0.439l-0.003,-0.44l-0.001,-0.44l-0.001,-0.44l0,-0.441l0.001,-0.441l0.003,-0.441l0.003,-0.442l0.004,-0.442l0.005,-0.442l0.006,-0.443l0.007,-0.443l0.008,-0.443l0.009,-0.443l0.01,-0.444l0.011,-0.444l0.012,-0.444l0.013,-0.445l0.014,-0.445l0.015,-0.445l0.016,-0.446l0.017,-0.445l0.018,-0.446l0.018,-0.447l0.02,-0.446l0.021,-0.447l0.022,-0.447l0.022,-0.447l0.024,-0.448l0.025,-0.448l0.025,-0.448l0.027,-0.448l0.028,-0.449l0.028,-0.448l0.03,-0.449l0.031,-0.45l0.031,-0.449l0.033,-0.45l0.033,-0.45l0.035,-0.45l0.035,-0.45l0.037,-0.45l0.037,-0.451l0.039,-0.451l0.039,-0.451l0.04,-0.451l0.042,-0.452l0.042,-0.451l0.044,-0.452l0.044,-0.452l0.045,-0.452l0.047,-0.453l0.047,-0.452l0.049,-0.453l0.049,-0.453l0.05,-0.453l0.008,-0.067l0.044,-0.386l0.052,-0.453l0.054,-0.454l0.054,-0.453l0.056,-0.454l0.056,-0.454l0.057,-0.454l0.059,-0.454l0.059,-0.454l0.061,-0.454l0.061,-0.455l0.063,-0.454l0.063,-0.455l0.064,-0.455l0.066,-0.455l0.066,-0.455l0.068,-0.455l0.068,-0.455l0.07,-0.455l0.085,-0.552l0.087,-0.551l0.088,-0.552l0.09,-0.551l0.091,-0.55l0.093,-0.551l0.094,-0.55l0.095,-0.549l0.097,-0.55l0.098,-0.549l0.099,-0.548l0.101,-0.549l0.102,-0.548l0.104,-0.547l0.105,-0.547l0.107,-0.547l0.107,-0.547l0.11,-0.546l0.11,-0.545l0.112,-0.545l0.113,-0.545l0.115,-0.545l0.116,-0.544l0.118,-0.543l0.118,-0.543l0.12,-0.543l0.122,-0.542l0.123,-0.542l0.124,-0.541l0.126,-0.541l0.126,-0.54l0.129,-0.54l0.129,-0.54l0.131,-0.538l0.133,-0.539l0.133,-0.538l0.135,-0.537l0.136,-0.537l0.138,-0.536l0.139,-0.536l0.14,-0.535l0.142,-0.535l0.143,-0.534l0.144,-0.533l0.146,-0.533l0.147,-0.533l0.148,-0.532l0.149,-0.531l0.151,-0.531l0.152,-0.53l0.154,-0.529l0.155,-0.529l0.156,-0.528l0.157,-0.528l0.159,-0.527l0.16,-0.526l0.161,-0.526l0.163,-0.525l0.163,-0.524l0.166,-0.524l0.166,-0.523l0.168,-0.522l0.169,-0.522l0.17,-0.521l0.172,-0.521l0.172,-0.519l0.175,-0.519l0.175,-0.518l0.177,-0.518l0.178,-0.517l0.179,-0.516l0.18,-0.515l0.182,-0.514l0.183,-0.514l0.184,-0.513l0.186,-0.512l0.187,-0.512l0.188,-0.511l0.189,-0.51l0.191,-0.509l0.191,-0.508l0.193,-0.508l0.195,-0.506l0.195,-0.506l0.197,-0.505l0.198,-0.505l0.199,-0.503l0.201,-0.503l0.201,-0.501l0.203,-0.501l0.205,-0.5l0.205,-0.499l0.207,-0.499l0.207,-0.497l0.209,-0.497l0.211,-0.495l0.211,-0.495l0.213,-0.494l0.214,-0.493l0.215,-0.492l0.216,-0.491l0.218,-0.49l0.219,-0.489l0.22,-0.488l0.221,-0.487l0.222,-0.487l0.224,-0.485l0.224,-0.484l0.226,-0.484l0.228,-0.482l0.228,-0.482l0.229,-0.48l0.231,-0.48l0.232,-0.478l0.233,-0.478l0.234,-0.476l0.236,-0.475l0.236,-0.475l0.238,-0.473l0.239,-0.472l0.24,-0.471l0.242,-0.47l0.242,-0.47l0.244,-0.468l0.245,-0.466l0.245,-0.466l0.248,-0.465l0.246,-0.46l0.238,-0.37l-0.001,-0.001l0.29,-0.332l0.337,-0.284l0.376,-0.231l0.406,-0.172l0.428,-0.108l0.439,-0.044l7.523,-0.184l85.93,-2.07l45.767,-1.077l0.535,0.031l0.524,0.115l0.499,0.197l0.462,0.274l0.413,0.344l0.353,0.405l0.284,0.456l0.207,0.496l0.001,0l0.191,0.582l0.192,0.59l0.19,0.593l0.188,0.595l0.185,0.596l0.182,0.598l0.18,0.6l0.178,0.601l0.176,0.604l0.173,0.605l0.171,0.606l0.168,0.609l0.166,0.61l0.164,0.612l0.161,0.613l0.159,0.615l0.157,0.617l0.154,0.618l0.152,0.62l0.149,0.622l0.147,0.623l0.145,0.624l0.143,0.626l0.14,0.628l0.137,0.629l0.135,0.631l0.133,0.632l0.131,0.634l0.128,0.635l0.126,0.636l0.123,0.638l0.121,0.64l0.119,0.641l0.116,0.642l0.114,0.644l0.112,0.644l0.109,0.647l0.107,0.647l0.105,0.649l0.003,0.022l0.098,0.629l0.099,0.651l0.097,0.653l0.095,0.655l0.092,0.655l0.089,0.657l0.088,0.658l0.085,0.659l0.082,0.66l0.08,0.662l0.078,0.662l0.076,0.664l0.073,0.665l0.07,0.666l0.069,0.668l0.066,0.668l0.063,0.67l0.061,0.67l0.059,0.672l0.057,0.672l0.054,0.674l0.051,0.675l0.05,0.675l0.046,0.677l0.045,0.678l0.042,0.679l0.04,0.679l0.037,0.681l0.035,0.681l0.033,0.683l0.03,0.683l0.028,0.684l0.025,0.685l0.023,0.686l0.021,0.687l0.018,0.688l0.016,0.688l0.013,0.689l0.011,0.69l0.009,0.691l0.006,0.692l0.004,0.692l0.002,0.693l0,0.024l-0.002,0.67l-0.004,0.694l-0.006,0.696l-0.009,0.696l-0.011,0.696l-0.014,0.697l-0.016,0.698l-0.019,0.699l-0.02,0.699l-0.024,0.699l-0.025,0.701l-0.028,0.7l-0.031,0.702l-0.033,0.702l-0.035,0.702l-0.037,0.703l-0.041,0.704l-0.042,0.704l-0.045,0.704l-0.047,0.705l-0.05,0.706l-0.052,0.705l-0.055,0.707l-0.057,0.706l-0.059,0.707l-0.062,0.708l-0.064,0.708l-0.066,0.708l-0.069,0.708l-0.072,0.709l-0.074,0.709l-0.076,0.71l-0.034,0.31l-0.046,0.399l-0.083,0.71l-0.085,0.71l-0.088,0.71l-0.091,0.711l-0.093,0.71l-0.095,0.711l-0.097,0.711l-0.1,0.711l-0.103,0.712l-0.105,0.711l-0.107,0.712l-0.11,0.712l-0.087,0.553l-0.026,0.159l-0.124,0.751l-0.126,0.751l-0.129,0.75l-0.132,0.75l-0.134,0.749l-0.137,0.748l-0.139,0.747l-0.142,0.747l-0.144,0.745l-0.147,0.745l-0.15,0.744l-0.152,0.744l-0.026,0.125l-0.131,0.616l-0.161,0.741l-0.163,0.74l-0.165,0.739l-0.168,0.738l-0.171,0.737l-0.172,0.736l-0.176,0.735l-0.178,0.734l-0.18,0.732l-0.183,0.732l-0.185,0.731l-0.188,0.73l-0.19,0.729l-0.192,0.727l-0.195,0.727l-0.197,0.725l-0.2,0.724l-0.202,0.723l-0.204,0.722l-0.207,0.721l-0.209,0.72l-0.212,0.718l-0.214,0.717l-0.047,0.156l-0.174,0.558l-0.224,0.713l-0.226,0.712l-0.229,0.71l-0.231,0.709l-0.234,0.707l-0.235,0.706l-0.238,0.705l-0.241,0.703l-0.242,0.702l-0.245,0.701l-0.247,0.699l-0.25,0.697l-0.251,0.696l-0.254,0.695l-0.256,0.693l-0.259,0.691l-0.26,0.69l-0.263,0.689l-0.265,0.687l-0.267,0.685l-0.27,0.683l-0.271,0.682l-0.274,0.681l-0.276,0.679l-0.278,0.677l-0.281,0.675l-0.282,0.674l-0.285,0.672l-0.286,0.67l-0.289,0.668l-0.291,0.667l-0.294,0.665l-0.295,0.663l-0.297,0.662l-0.3,0.659l-0.302,0.658l-0.303,0.656l-0.306,0.654l-0.308,0.652l-0.31,0.65l-0.312,0.649l-0.314,0.646l-0.197,0.401l-0.121,0.242l-0.324,0.64l-0.325,0.638l-0.328,0.636l-0.329,0.634l-0.332,0.632l-0.333,0.63l-0.336,0.628l-0.337,0.626l-0.339,0.623l-0.342,0.621l-0.343,0.62l-0.345,0.617l-0.348,0.615l-0.349,0.613l-0.351,0.61l-0.353,0.608l-0.355,0.606l-0.357,0.604l-0.358,0.602l-0.361,0.599l-0.363,0.597l-0.364,0.595l-0.366,0.592l-0.368,0.59l-0.37,0.588l-0.372,0.585l-0.374,0.583l-0.376,0.58l-0.377,0.578l-0.379,0.576l-0.381,0.573l-0.383,0.571l-0.146,0.216l-0.241,0.351l-0.389,0.563l-0.392,0.561l-0.393,0.559l-0.395,0.556l-0.397,0.553l-0.398,0.551l-0.401,0.548l-0.402,0.546l-0.403,0.542l-0.406,0.541l-0.407,0.537l-0.408,0.535l-0.411,0.532l-0.412,0.53l-0.102,0.13l-0.311,0.392l-0.174,0.203l-0.203,0.174Zm-19.313,-165.345l-83.14,1.447l0,-0.033l-7.557,0.156l-0.159,0.298l-0.239,0.451l-0.238,0.453l-0.237,0.453l-0.236,0.455l-0.235,0.455l-0.234,0.457l-0.232,0.458l-0.232,0.458l-0.23,0.46l-0.23,0.461l-0.228,0.462l-0.227,0.463l-0.226,0.464l-0.225,0.465l-0.223,0.466l-0.223,0.467l-0.222,0.469l-0.22,0.469l-0.219,0.47l-0.218,0.471l-0.217,0.472l-0.216,0.473l-0.215,0.474l-0.213,0.475l-0.212,0.476l-0.212,0.477l-0.21,0.478l-0.209,0.478l-0.207,0.48l-0.207,0.481l-0.205,0.481l-0.205,0.482l-0.203,0.484l-0.202,0.484l-0.201,0.485l-0.199,0.486l-0.199,0.487l-0.197,0.488l-0.196,0.488l-0.195,0.49l-0.194,0.49l-0.192,0.491l-0.191,0.492l-0.191,0.493l-0.189,0.493l-0.187,0.495l-0.187,0.495l-0.185,0.496l-0.184,0.497l-0.183,0.498l-0.182,0.498l-0.181,0.499l-0.179,0.5l-0.178,0.501l-0.177,0.501l-0.176,0.503l-0.174,0.503l-0.173,0.503l-0.172,0.505l-0.171,0.505l-0.17,0.506l-0.168,0.506l-0.167,0.507l-0.166,0.508l-0.164,0.509l-0.164,0.509l-0.162,0.51l-0.161,0.511l-0.159,0.511l-0.159,0.512l-0.157,0.513l-0.156,0.513l-0.154,0.514l-0.153,0.515l-0.153,0.515l-0.15,0.516l-0.15,0.516l-0.148,0.517l-0.147,0.518l-0.146,0.518l-0.144,0.519l-0.143,0.519l-0.142,0.52l-0.141,0.521l-0.139,0.521l-0.138,0.521l-0.137,0.523l-0.135,0.522l-0.135,0.523l-0.132,0.524l-0.132,0.524l-0.13,0.525l-0.129,0.525l-0.128,0.526l-0.126,0.526l-0.125,0.527l-0.124,0.527l-0.122,0.528l-0.121,0.528l-0.12,0.529l-0.118,0.529l-0.118,0.529l-0.115,0.53l-0.115,0.531l-0.113,0.531l-0.112,0.531l-0.11,0.531l-0.109,0.532l-0.108,0.533l-0.106,0.533l-0.106,0.533l-0.103,0.534l-0.103,0.533l-0.101,0.535l-0.099,0.534l-0.099,0.536l-0.097,0.535l-0.095,0.536l-0.095,0.536l-0.092,0.536l-0.092,0.537l-0.09,0.537l-0.089,0.537l-0.087,0.538l-0.071,0.443l-0.07,0.444l-0.07,0.443l-0.068,0.443l-0.067,0.444l-0.066,0.443l-0.065,0.443l-0.064,0.443l-0.064,0.442l-0.062,0.443l-0.061,0.443l-0.06,0.442l-0.06,0.443l-0.058,0.442l-0.057,0.442l-0.057,0.442l-0.055,0.442l-0.055,0.442l-0.045,0.376l-0.008,0.065l-0.053,0.442l-0.052,0.441l-0.05,0.441l-0.05,0.441l-0.049,0.441l-0.048,0.44l-0.047,0.441l-0.045,0.44l-0.045,0.44l-0.044,0.44l-0.043,0.44l-0.042,0.44l-0.041,0.439l-0.04,0.439l-0.04,0.439l-0.038,0.439l-0.037,0.439l-0.036,0.438l-0.035,0.439l-0.035,0.438l-0.033,0.437l-0.032,0.438l-0.032,0.437l-0.03,0.438l-0.03,0.437l-0.028,0.436l-0.028,0.437l-0.027,0.436l-0.025,0.436l-0.025,0.436l-0.024,0.435l-0.022,0.435l-0.022,0.435l-0.021,0.435l-0.02,0.435l-0.019,0.434l-0.018,0.434l-0.017,0.433l-0.016,0.434l-0.015,0.433l-0.014,0.433l-0.014,0.432l-0.012,0.432l-0.011,0.432l-0.011,0.432l-0.009,0.431l-0.009,0.431l-0.007,0.431l-0.007,0.43l-0.005,0.43l-0.005,0.43l-0.004,0.429l-0.003,0.43l-0.001,0.428l-0.001,0.429l0,0.428l0.001,0.428l0.002,0.427l0.003,0.427l0.003,0.427l0.005,0.426l0.006,0.426l0.007,0.426l0.007,0.425l0.009,0.425l0.009,0.424l0.011,0.425l0.011,0.423l0.012,0.424l0.014,0.423l0.014,0.422l0.015,0.423l0.016,0.421l0.017,0.422l0.018,0.421l0.019,0.42l0.02,0.42l0.02,0.42l0.022,0.42l0.023,0.418l0.023,0.419l0.025,0.418l0.025,0.418l0.027,0.417l0.027,0.417l0.028,0.416l0.029,0.416l0.03,0.415l0.032,0.415l0.031,0.415l0.033,0.414l0.034,0.413l0.035,0.413l0.036,0.413l0.036,0.412l0.038,0.412l0.038,0.411l0.04,0.41l0.04,0.411l0.041,0.409l0.042,0.409l0.043,0.409l0.044,0.408l0.045,0.408l0.046,0.407l0.047,0.407l0.048,0.406l0.048,0.406l0.05,0.405l0.05,0.404l0.052,0.404l0.052,0.404l0.053,0.403l0.054,0.402l0.055,0.402l0.056,0.401l0.057,0.401l0.058,0.4l0.059,0.4l0.06,0.399l0.06,0.398l0.062,0.398l0.062,0.397l0.063,0.397l0.064,0.396l0.066,0.396l0.066,0.395l0.067,0.394l0.067,0.394l0.069,0.393l0.07,0.393l0.07,0.392l0.072,0.391l0.072,0.391l0.074,0.39l0.074,0.389l0.075,0.389l0.076,0.389l0.077,0.387l0.078,0.387l0.079,0.386l0.079,0.386l0.081,0.385l0.081,0.385l0.083,0.383l0.083,0.383l0.084,0.383l0.085,0.382l0.086,0.381l0.087,0.38l0.088,0.38l0.088,0.379l0.09,0.378l0.09,0.378l0.092,0.377l0.092,0.376l0.093,0.376l0.094,0.375l0.095,0.374l0.096,0.373l0.097,0.373l0.097,0.372l0.099,0.372l0.099,0.37l0.101,0.37l0.101,0.369l0.102,0.369l0.103,0.367l0.104,0.367l0.104,0.367l0.106,0.365l0.107,0.365l0.107,0.364l0.108,0.363l0.109,0.362l0.11,0.362l0.111,0.361l0.112,0.36l0.113,0.359l0.114,0.359l0.114,0.358l0.115,0.357l0.117,0.356l0.117,0.355l0.118,0.355l0.119,0.354l0.119,0.353l0.121,0.352l0.121,0.352l0.123,0.35l0.123,0.35l0.124,0.349l0.125,0.348l0.126,0.347l0.127,0.347l0.128,0.346l0.128,0.344l0.129,0.344l0.131,0.344l0.131,0.342l0.132,0.341l0.133,0.341l0.133,0.339l0.135,0.339l0.135,0.338l0.137,0.337l0.137,0.337l0.138,0.335l0.139,0.335l0.14,0.333l0.14,0.333l0.142,0.332l0.142,0.331l0.143,0.33l0.144,0.329l0.145,0.328l0.146,0.327l0.147,0.327l0.147,0.325l0.149,0.325l0.149,0.323l0.15,0.323l0.151,0.322l0.152,0.321l0.153,0.32l0.153,0.319l0.154,0.318l0.156,0.317l0.156,0.316l0.157,0.315l0.157,0.315l0.159,0.313l0.16,0.312l0.019,0.038l52.787,-0.894l62.664,-1.038l1.536,-0.026l0.262,-0.385l0.366,-0.544l0.364,-0.546l0.363,-0.549l0.361,-0.552l0.359,-0.554l0.357,-0.556l0.355,-0.558l0.353,-0.561l0.352,-0.564l0.349,-0.565l0.348,-0.568l0.345,-0.57l0.344,-0.573l0.212,-0.356l0.131,-0.218l0.343,-0.575l0.341,-0.577l0.339,-0.579l0.338,-0.582l0.335,-0.584l0.334,-0.586l0.331,-0.588l0.33,-0.591l0.327,-0.593l0.326,-0.594l0.324,-0.597l0.321,-0.599l0.32,-0.601l0.318,-0.603l0.316,-0.606l0.313,-0.607l0.312,-0.609l0.31,-0.611l0.308,-0.614l0.305,-0.615l0.304,-0.617l0.302,-0.619l0.299,-0.621l0.298,-0.623l0.295,-0.625l0.294,-0.627l0.291,-0.629l0.29,-0.63l0.287,-0.632l0.285,-0.635l0.283,-0.636l0.281,-0.637l0.106,-0.242l0.176,-0.396l0.283,-0.639l0.28,-0.641l0.278,-0.642l0.275,-0.644l0.274,-0.646l0.272,-0.648l0.269,-0.649l0.268,-0.651l0.265,-0.653l0.263,-0.654l0.261,-0.656l0.259,-0.657l0.257,-0.66l0.255,-0.66l0.252,-0.663l0.25,-0.663l0.249,-0.666l0.246,-0.667l0.243,-0.668l0.242,-0.67l0.239,-0.671l0.237,-0.673l0.235,-0.675l0.233,-0.675l0.231,-0.677l0.228,-0.679l0.226,-0.68l0.224,-0.681l0.222,-0.683l0.219,-0.684l0.217,-0.685l0.215,-0.686l0.213,-0.688l0.21,-0.689l0.208,-0.691l0.206,-0.691l0.204,-0.693l0.201,-0.694l0.199,-0.695l0.196,-0.697l0.195,-0.697l0.192,-0.699l0.148,-0.547l0.043,-0.152l0.192,-0.7l0.191,-0.7l0.188,-0.702l0.186,-0.702l0.184,-0.704l0.181,-0.705l0.179,-0.706l0.177,-0.706l0.174,-0.708l0.172,-0.709l0.169,-0.71l0.167,-0.711l0.165,-0.712l0.162,-0.712l0.16,-0.714l0.157,-0.715l0.155,-0.715l0.153,-0.716l0.15,-0.718l0.148,-0.718l0.146,-0.718l0.143,-0.72l0.14,-0.72l0.115,-0.6l0.024,-0.122l0.139,-0.721l0.137,-0.722l0.134,-0.723l0.131,-0.723l0.13,-0.724l0.127,-0.725l0.124,-0.726l0.122,-0.726l0.119,-0.727l0.117,-0.728l0.114,-0.728l0.112,-0.729l0.023,-0.154l0.082,-0.535l0.104,-0.69l0.101,-0.689l0.099,-0.689l0.096,-0.688l0.095,-0.689l0.091,-0.688l0.09,-0.688l0.087,-0.688l0.085,-0.688l0.082,-0.687l0.08,-0.687l0.078,-0.687l0.042,-0.386l0.034,-0.301l0.075,-0.686l0.073,-0.685l0.07,-0.686l0.068,-0.685l0.066,-0.684l0.063,-0.685l0.061,-0.684l0.058,-0.683l0.057,-0.683l0.054,-0.683l0.051,-0.682l0.049,-0.682l0.047,-0.681l0.045,-0.681l0.042,-0.68l0.04,-0.68l0.038,-0.679l0.035,-0.679l0.033,-0.678l0.031,-0.678l0.028,-0.677l0.026,-0.676l0.023,-0.676l0.022,-0.675l0.019,-0.675l0.016,-0.674l0.015,-0.673l0.012,-0.672l0.009,-0.672l0.008,-0.671l0.005,-0.671l0.003,-0.646l0,-0.023l0.001,-0.669l-0.001,-0.668l-0.004,-0.668l-0.005,-0.666l-0.008,-0.666l-0.011,-0.665l-0.013,-0.664l-0.015,-0.663l-0.017,-0.663l-0.019,-0.661l-0.022,-0.661l-0.025,-0.659l-0.026,-0.659l-0.029,-0.658l-0.031,-0.657l-0.033,-0.656l-0.036,-0.655l-0.038,-0.654l-0.04,-0.652l-0.043,-0.652l-0.045,-0.651l-0.047,-0.65l-0.049,-0.649l-0.052,-0.647l-0.054,-0.647l-0.057,-0.645l-0.058,-0.645l-0.061,-0.643l-0.063,-0.642l-0.066,-0.641l-0.068,-0.64l-0.07,-0.638l-0.072,-0.637l-0.074,-0.637l-0.077,-0.634l-0.079,-0.634l-0.082,-0.632l-0.083,-0.631l-0.086,-0.63l-0.089,-0.628l-0.09,-0.628l-0.093,-0.625l-0.092,-0.604l-0.003,-0.021l-0.097,-0.623l-0.099,-0.622l-0.101,-0.62l-0.103,-0.619l-0.106,-0.618l-0.108,-0.616l-0.11,-0.615l-0.113,-0.613l-0.115,-0.611l-0.117,-0.611l-0.119,-0.609l-0.122,-0.607l-0.123,-0.605l-0.127,-0.605l-0.128,-0.602l-0.13,-0.601l-0.133,-0.6l-0.135,-0.597l-0.137,-0.597l-0.14,-0.594l-0.142,-0.593l-0.144,-0.592l-0.146,-0.589l-0.148,-0.588l-0.151,-0.586l-0.153,-0.585l-0.155,-0.582l-0.157,-0.582l-0.16,-0.579l-0.161,-0.577l-0.164,-0.576l-0.167,-0.574l-0.168,-0.572l-0.171,-0.57l-0.142,-0.467l-44.306,0.804Z"/><path d="M176.275,125.082c0.466,-2.434 0.8,-4.896 1.001,-7.375c3.113,-38.466 -25.878,-73.404 -64.699,-77.971c-38.822,-4.568 -72.868,22.953 -75.981,61.418c-0.71,8.773 0.258,17.664 2.853,26.205l136.826,-2.277Z" style="fill:#b8b8b8;"/><clipPath id="_clip2"><path d="M176.275,125.082c0.466,-2.434 0.8,-4.896 1.001,-7.375c3.113,-38.466 -25.878,-73.404 -64.699,-77.971c-38.822,-4.568 -72.868,22.953 -75.981,61.418c-0.71,8.773 0.258,17.664 2.853,26.205l136.826,-2.277Z"/></clipPath><g clip-path="url(#_clip2)"><path d="M82.014,97.708c-1.087,0.887 -1.695,1.83 -1.804,2.794c-0.579,5.119 12.777,9.716 29.806,10.259c17.03,0.544 31.326,-3.172 31.905,-8.291c0.133,-1.173 -0.476,-2.359 -1.795,-3.496l-58.112,-1.266Z" style="fill:#191919;"/><clipPath id="_clip3"><path d="M82.014,97.708c-1.087,0.887 -1.695,1.83 -1.804,2.794c-0.579,5.119 12.777,9.716 29.806,10.259c17.03,0.544 31.326,-3.172 31.905,-8.291c0.133,-1.173 -0.476,-2.359 -1.795,-3.496l-58.112,-1.266Z"/></clipPath><g clip-path="url(#_clip3)"><path d="M91.521,101.06c-0.005,3.176 8.347,5.962 18.88,6.298c10.781,0.344 19.831,-2.008 20.198,-5.249c0.007,-0.065 0.011,-0.131 0.011,-0.197l-39.089,-0.852Z" style="fill:#fff;"/></g><path d="M99.552,83.487c-0.159,-8.412 -5.249,-15.429 -11.746,-16.194c-6.944,-0.817 -12.968,5.789 -13.444,14.742c-0.026,0.501 -0.035,1.005 -0.025,1.508l25.215,-0.056Z" style="fill:#191919;"/><clipPath id="_clip4"><path d="M99.552,83.487c-0.159,-8.412 -5.249,-15.429 -11.746,-16.194c-6.944,-0.817 -12.968,5.789 -13.444,14.742c-0.026,0.501 -0.035,1.005 -0.025,1.508l25.215,-0.056Z"/></clipPath><g clip-path="url(#_clip4)"><path d="M85.751,80.564c0.484,-4.113 0.295,-7.304 -0.439,-7.391c-0.79,-0.093 -1.923,3.441 -2.528,7.885c-0.038,0.278 -0.073,0.555 -0.106,0.831l3.073,-1.325Z" style="fill:#fff;"/></g><path d="M140.709,84.714c-0.15,-7.952 -4.962,-14.587 -11.105,-15.309c-6.564,-0.773 -12.259,5.472 -12.709,13.936c-0.025,0.474 -0.033,0.95 -0.024,1.426l23.838,-0.053Z" style="fill:#191919;"/><clipPath id="_clip5"><path d="M140.709,84.714c-0.15,-7.952 -4.962,-14.587 -11.105,-15.309c-6.564,-0.773 -12.259,5.472 -12.709,13.936c-0.025,0.474 -0.033,0.95 -0.024,1.426l23.838,-0.053Z"/></clipPath><g clip-path="url(#_clip5)"><path d="M127.272,81.92c0.47,-4.115 0.167,-7.32 -0.701,-7.422c-0.935,-0.11 -2.186,3.41 -2.792,7.854c-0.038,0.278 -0.072,0.555 -0.104,0.831l3.597,-1.263Z" style="fill:#fff;"/></g></g><path d="M177.918,125.697l-0.129,0.271l-0.172,0.244l-0.212,0.212l-0.244,0.172l-0.271,0.129l-0.288,0.08l-0.298,0.031l-1.596,0.037l-41.097,0.949l-94.119,2.144l-0.421,-0.025l-0.412,-0.093l-0.391,-0.158l-0.362,-0.219l-0.322,-0.275l-0.273,-0.324l-0.218,-0.363l-0.156,-0.395l-0.001,0.001l-0.124,-0.408l-0.125,-0.415l-0.123,-0.415l-0.12,-0.417l-0.117,-0.416l-0.002,-0.007l-0.113,-0.41l-0.112,-0.418l-0.11,-0.418l-0.108,-0.419l-0.105,-0.419l-0.102,-0.42l-0.1,-0.42l-0.098,-0.42l-0.095,-0.421l-0.092,-0.421l-0.09,-0.422l-0.088,-0.422l-0.085,-0.423l-0.083,-0.423l-0.08,-0.423l-0.078,-0.423l-0.075,-0.424l-0.072,-0.424l-0.071,-0.425l-0.067,-0.425l-0.065,-0.425l-0.063,-0.425l-0.06,-0.426l-0.058,-0.426l-0.055,-0.426l-0.053,-0.427l-0.05,-0.426l-0.047,-0.427l-0.046,-0.427l-0.042,-0.427l-0.04,-0.428l-0.038,-0.427l-0.035,-0.428l-0.032,-0.428l-0.03,-0.428l-0.028,-0.428l-0.025,-0.429l-0.022,-0.428l-0.02,-0.429l-0.018,-0.428l-0.014,-0.429l-0.013,-0.428l-0.01,-0.429l-0.007,-0.429l-0.005,-0.429l-0.002,-0.429l0.001,-0.429l0.003,-0.428l0.005,-0.429l0.008,-0.429l0.01,-0.429l0.014,-0.428l0.015,-0.429l0.018,-0.429l0.021,-0.428l0.023,-0.428l0.026,-0.429l0.029,-0.428l0.031,-0.428l0.036,-0.468l0.04,-0.467l0.043,-0.467l0.045,-0.465l0.049,-0.464l0.051,-0.464l0.054,-0.462l0.058,-0.461l0.06,-0.46l0.063,-0.46l0.066,-0.458l0.068,-0.457l0.072,-0.456l0.074,-0.454l0.077,-0.454l0.08,-0.453l0.083,-0.451l0.086,-0.451l0.088,-0.449l0.091,-0.448l0.094,-0.447l0.097,-0.446l0.099,-0.445l0.102,-0.443l0.105,-0.443l0.108,-0.441l0.11,-0.44l0.113,-0.438l0.116,-0.438l0.119,-0.436l0.121,-0.435l0.123,-0.434l0.127,-0.433l0.129,-0.431l0.132,-0.43l0.134,-0.429l0.137,-0.427l0.14,-0.426l0.142,-0.425l0.145,-0.424l0.147,-0.422l0.15,-0.421l0.152,-0.419l0.155,-0.419l0.158,-0.417l0.16,-0.415l0.163,-0.414l0.165,-0.413l0.167,-0.411l0.17,-0.41l0.173,-0.409l0.175,-0.407l0.178,-0.406l0.18,-0.404l0.182,-0.403l0.185,-0.401l0.187,-0.4l0.19,-0.399l0.192,-0.397l0.195,-0.395l0.197,-0.394l0.199,-0.393l0.202,-0.391l0.204,-0.389l0.206,-0.388l0.209,-0.387l0.211,-0.385l0.213,-0.383l0.216,-0.382l0.218,-0.38l0.22,-0.379l0.223,-0.377l0.138,-0.23l0.087,-0.145l0.227,-0.374l0.23,-0.372l0.231,-0.371l0.234,-0.369l0.237,-0.367l0.238,-0.366l0.241,-0.364l0.242,-0.362l0.245,-0.361l0.248,-0.359l0.249,-0.357l0.251,-0.356l0.254,-0.353l0.256,-0.353l0.258,-0.35l0.26,-0.349l0.262,-0.347l0.264,-0.345l0.266,-0.344l0.269,-0.342l0.27,-0.34l0.273,-0.338l0.274,-0.336l0.277,-0.335l0.278,-0.333l0.281,-0.331l0.283,-0.329l0.284,-0.328l0.287,-0.326l0.288,-0.323l0.291,-0.322l0.292,-0.32l0.295,-0.319l0.296,-0.316l0.299,-0.315l0.3,-0.312l0.302,-0.311l0.304,-0.309l0.306,-0.307l0.308,-0.305l0.31,-0.303l0.311,-0.301l0.314,-0.299l0.315,-0.297l0.317,-0.295l0.319,-0.294l0.321,-0.291l0.322,-0.289l0.325,-0.288l0.326,-0.285l0.328,-0.283l0.329,-0.282l0.332,-0.279l0.333,-0.277l0.335,-0.276l0.336,-0.273l0.339,-0.271l0.34,-0.269l0.342,-0.267l0.343,-0.265l0.345,-0.263l0.347,-0.261l0.348,-0.258l0.35,-0.257l0.352,-0.254l0.354,-0.253l0.355,-0.25l0.356,-0.248l0.358,-0.246l0.36,-0.244l0.362,-0.241l0.362,-0.239l0.365,-0.238l0.366,-0.235l0.368,-0.232l0.369,-0.231l0.37,-0.228l0.373,-0.227l0.373,-0.224l0.376,-0.221l0.376,-0.22l0.378,-0.217l0.38,-0.215l0.381,-0.212l0.383,-0.211l0.384,-0.208l0.385,-0.206l0.387,-0.203l0.388,-0.201l0.389,-0.199l0.391,-0.197l0.393,-0.194l0.394,-0.192l0.395,-0.189l0.396,-0.187l0.398,-0.185l0.399,-0.183l0.4,-0.18l0.402,-0.177l0.403,-0.175l0.405,-0.173l0.405,-0.171l0.407,-0.168l0.408,-0.165l0.41,-0.163l0.41,-0.161l0.412,-0.158l0.413,-0.156l0.415,-0.153l0.415,-0.151l0.417,-0.148l0.418,-0.146l0.419,-0.143l0.42,-0.141l0.421,-0.138l0.423,-0.136l0.424,-0.133l0.424,-0.131l0.426,-0.128l0.427,-0.125l0.428,-0.123l0.43,-0.12l0.43,-0.118l0.431,-0.115l0.432,-0.113l0.434,-0.11l0.434,-0.107l0.311,-0.075l0.125,-0.03l0.436,-0.102l0.438,-0.099l0.438,-0.096l0.44,-0.094l0.441,-0.091l0.441,-0.088l0.442,-0.086l0.444,-0.083l0.444,-0.08l0.445,-0.078l0.446,-0.075l0.447,-0.072l0.448,-0.069l0.449,-0.067l0.449,-0.064l0.451,-0.061l0.451,-0.058l0.452,-0.056l0.453,-0.053l0.454,-0.05l0.455,-0.047l0.455,-0.045l0.456,-0.041l0.457,-0.039l0.458,-0.036l0.459,-0.033l0.459,-0.031l0.46,-0.027l0.46,-0.025l0.462,-0.021l0.462,-0.019l0.463,-0.016l0.463,-0.013l0.464,-0.011l0.465,-0.007l0.465,-0.004l0.466,-0.002l0.467,0.002l0.467,0.004l0.468,0.008l0.469,0.01l0.469,0.013l0.47,0.017l0.47,0.019l0.471,0.022l0.471,0.025l0.472,0.028l0.472,0.032l0.473,0.034l0.474,0.037l0.474,0.04l0.474,0.044l0.475,0.046l0.475,0.049l0.476,0.053l0.476,0.055l0.474,0.059l0.474,0.061l0.473,0.064l0.472,0.067l0.47,0.07l0.47,0.073l0.469,0.075l0.468,0.079l0.467,0.081l0.466,0.084l0.465,0.087l0.464,0.089l0.463,0.093l0.462,0.095l0.461,0.098l0.46,0.101l0.459,0.103l0.458,0.107l0.456,0.108l0.456,0.112l0.454,0.115l0.454,0.117l0.452,0.119l0.451,0.123l0.45,0.125l0.449,0.128l0.448,0.13l0.446,0.133l0.446,0.136l0.444,0.138l0.443,0.141l0.442,0.144l0.441,0.146l0.439,0.148l0.438,0.152l0.437,0.153l0.436,0.157l0.435,0.159l0.433,0.161l0.432,0.164l0.431,0.166l0.429,0.169l0.428,0.172l0.427,0.173l0.426,0.177l0.424,0.179l0.4,0.171l0.023,0.01l0.422,0.184l0.42,0.187l0.418,0.189l0.418,0.191l0.416,0.194l0.414,0.196l0.413,0.199l0.412,0.201l0.41,0.203l0.409,0.206l0.408,0.208l0.406,0.21l0.405,0.212l0.403,0.215l0.402,0.218l0.4,0.219l0.399,0.222l0.397,0.224l0.396,0.226l0.395,0.229l0.392,0.23l0.392,0.233l0.39,0.235l0.388,0.238l0.387,0.239l0.385,0.242l0.384,0.244l0.382,0.246l0.38,0.248l0.379,0.251l0.378,0.252l0.375,0.255l0.375,0.256l0.372,0.259l0.371,0.261l0.369,0.263l0.368,0.265l0.366,0.267l0.364,0.269l0.363,0.272l0.361,0.273l0.359,0.275l0.046,0.035l0.312,0.243l0.355,0.28l0.354,0.282l0.352,0.283l0.351,0.286l0.348,0.288l0.347,0.29l0.345,0.291l0.344,0.294l0.341,0.295l0.34,0.298l0.338,0.299l0.336,0.301l0.335,0.303l0.333,0.305l0.33,0.307l0.329,0.308l0.328,0.311l0.325,0.312l0.323,0.314l0.322,0.316l0.32,0.318l0.318,0.319l0.316,0.321l0.314,0.323l0.312,0.325l0.311,0.327l0.308,0.328l0.306,0.33l0.305,0.332l0.303,0.333l0.3,0.335l0.299,0.337l0.184,0.21l0.112,0.129l0.294,0.342l0.291,0.343l0.29,0.344l0.287,0.347l0.285,0.348l0.284,0.349l0.281,0.351l0.279,0.353l0.277,0.354l0.276,0.356l0.273,0.358l0.271,0.359l0.269,0.36l0.19,0.259l0.076,0.104l0.263,0.365l0.26,0.366l0.259,0.368l0.256,0.37l0.255,0.37l0.252,0.373l0.25,0.374l0.247,0.375l0.246,0.376l0.243,0.378l0.242,0.38l0.239,0.381l0.236,0.382l0.138,0.224l0.096,0.16l0.229,0.387l0.228,0.387l0.225,0.39l0.223,0.39l0.22,0.392l0.219,0.393l0.216,0.394l0.213,0.396l0.212,0.397l0.209,0.398l0.206,0.399l0.205,0.4l0.202,0.402l0.2,0.403l0.197,0.404l0.195,0.405l0.193,0.406l0.19,0.408l0.188,0.409l0.185,0.409l0.183,0.411l0.181,0.412l0.178,0.414l0.176,0.414l0.173,0.415l0.171,0.416l0.047,0.116l0.118,0.303l0.161,0.421l0.159,0.421l0.156,0.423l0.154,0.423l0.151,0.424l0.149,0.426l0.146,0.426l0.143,0.427l0.141,0.428l0.139,0.429l0.136,0.43l0.133,0.43l0.131,0.432l0.128,0.432l0.126,0.434l0.123,0.434l0.12,0.434l0.118,0.436l0.115,0.437l0.113,0.437l0.11,0.438l0.107,0.439l0.105,0.439l0.102,0.441l0.099,0.441l0.097,0.442l0.094,0.442l0.091,0.443l0.089,0.444l0.086,0.445l0.083,0.445l0.081,0.446l0.078,0.447l0.075,0.447l0.072,0.448l0.07,0.448l0.066,0.449l0.065,0.45l0.061,0.45l0.058,0.451l0.056,0.452l0.053,0.451l0.05,0.453l0.048,0.453l0.045,0.453l0.033,0.365l0.007,0.09l0.034,0.455l0.03,0.455l0.028,0.456l0.025,0.457l0.022,0.456l0.019,0.457l0.016,0.458l0.014,0.458l0.01,0.458l0.008,0.458l0.004,0.459l0.002,0.459l-0.001,0.46l-0.004,0.459l-0.007,0.46l-0.01,0.461l-0.012,0.46l-0.016,0.461l-0.019,0.461l-0.022,0.461l-0.024,0.461l-0.028,0.462l-0.03,0.462l-0.034,0.461l-0.036,0.463l-0.04,0.462l-0.042,0.462l-0.046,0.463l-0.048,0.462l-0.052,0.463l-0.055,0.461l-0.029,0.24l-0.03,0.239l-0.031,0.238l-0.003,0.023l-0.031,0.215l-0.034,0.238l-0.036,0.238l-0.036,0.237l-0.037,0.238l-0.038,0.237l-0.038,0.237l-0.04,0.236l-0.04,0.237l-0.041,0.236l-0.041,0.236l-0.043,0.236l-0.043,0.235l-0.044,0.236l-0.045,0.235l-0.046,0.235l-0.046,0.235l-0.048,0.234l-0.048,0.235l-0.048,0.234l-0.05,0.234l-0.05,0.233l-0.051,0.234l-0.052,0.233l-0.053,0.233l-0.054,0.233l-0.054,0.232l-0.034,0.145l-0.021,0.087l-0.057,0.229l-0.08,0.288Zm-74.313,-83.144l-0.423,0.003l-0.423,0.006l-0.422,0.008l-0.421,0.011l-0.421,0.013l-0.42,0.016l-0.419,0.019l-0.419,0.021l-0.418,0.024l-0.418,0.027l-0.417,0.029l-0.416,0.032l-0.415,0.034l-0.415,0.037l-0.414,0.039l-0.413,0.042l-0.413,0.044l-0.411,0.047l-0.411,0.05l-0.411,0.052l-0.409,0.055l-0.409,0.057l-0.408,0.059l-0.407,0.062l-0.406,0.065l-0.406,0.067l-0.405,0.069l-0.403,0.072l-0.404,0.075l-0.402,0.077l-0.401,0.079l-0.401,0.082l-0.399,0.084l-0.399,0.087l-0.398,0.089l-0.114,0.026l-0.283,0.065l-0.396,0.093l-0.395,0.096l-0.395,0.098l-0.393,0.101l-0.393,0.103l-0.391,0.105l-0.391,0.108l-0.389,0.11l-0.389,0.112l-0.388,0.115l-0.387,0.117l-0.385,0.119l-0.385,0.122l-0.384,0.124l-0.382,0.127l-0.382,0.128l-0.381,0.131l-0.379,0.133l-0.379,0.136l-0.377,0.137l-0.376,0.14l-0.376,0.143l-0.374,0.144l-0.373,0.147l-0.372,0.149l-0.371,0.151l-0.37,0.153l-0.368,0.156l-0.368,0.158l-0.366,0.16l-0.365,0.162l-0.364,0.164l-0.363,0.167l-0.361,0.169l-0.361,0.171l-0.359,0.173l-0.358,0.175l-0.357,0.177l-0.355,0.18l-0.354,0.181l-0.353,0.184l-0.352,0.186l-0.351,0.188l-0.349,0.19l-0.348,0.192l-0.346,0.194l-0.346,0.197l-0.344,0.198l-0.342,0.2l-0.341,0.203l-0.34,0.204l-0.339,0.207l-0.337,0.209l-0.336,0.21l-0.335,0.213l-0.333,0.215l-0.332,0.216l-0.33,0.219l-0.329,0.221l-0.327,0.222l-0.326,0.225l-0.325,0.227l-0.323,0.228l-0.322,0.231l-0.32,0.232l-0.319,0.235l-0.317,0.236l-0.316,0.238l-0.314,0.241l-0.313,0.242l-0.311,0.244l-0.31,0.246l-0.308,0.247l-0.307,0.25l-0.305,0.252l-0.303,0.253l-0.302,0.256l-0.3,0.257l-0.299,0.259l-0.297,0.261l-0.295,0.263l-0.294,0.264l-0.293,0.266l-0.29,0.269l-0.289,0.27l-0.287,0.272l-0.286,0.273l-0.284,0.276l-0.282,0.277l-0.281,0.279l-0.279,0.28l-0.277,0.283l-0.275,0.284l-0.274,0.286l-0.272,0.288l-0.27,0.289l-0.268,0.291l-0.267,0.293l-0.265,0.295l-0.263,0.296l-0.261,0.298l-0.26,0.3l-0.257,0.301l-0.256,0.303l-0.254,0.305l-0.252,0.306l-0.251,0.308l-0.248,0.31l-0.247,0.311l-0.244,0.313l-0.243,0.315l-0.241,0.316l-0.239,0.318l-0.237,0.319l-0.236,0.321l-0.233,0.323l-0.231,0.324l-0.23,0.325l-0.227,0.328l-0.226,0.329l-0.223,0.33l-0.222,0.332l-0.219,0.333l-0.218,0.336l-0.215,0.336l-0.214,0.338l-0.211,0.34l-0.081,0.132l-0.129,0.209l-0.207,0.342l-0.206,0.344l-0.203,0.346l-0.201,0.347l-0.2,0.348l-0.197,0.35l-0.195,0.352l-0.193,0.352l-0.191,0.355l-0.189,0.355l-0.186,0.358l-0.185,0.358l-0.182,0.36l-0.18,0.362l-0.178,0.362l-0.176,0.365l-0.174,0.365l-0.171,0.367l-0.169,0.369l-0.167,0.369l-0.165,0.371l-0.162,0.373l-0.161,0.374l-0.158,0.375l-0.155,0.377l-0.154,0.377l-0.151,0.38l-0.149,0.38l-0.147,0.382l-0.144,0.383l-0.142,0.385l-0.14,0.385l-0.137,0.387l-0.135,0.389l-0.133,0.389l-0.13,0.391l-0.128,0.392l-0.125,0.393l-0.123,0.395l-0.121,0.396l-0.118,0.397l-0.116,0.398l-0.114,0.4l-0.111,0.401l-0.108,0.402l-0.107,0.403l-0.103,0.404l-0.101,0.406l-0.099,0.407l-0.096,0.407l-0.094,0.41l-0.091,0.41l-0.089,0.411l-0.086,0.413l-0.084,0.414l-0.081,0.414l-0.078,0.416l-0.076,0.418l-0.074,0.418l-0.07,0.419l-0.069,0.421l-0.065,0.421l-0.063,0.423l-0.061,0.424l-0.057,0.425l-0.055,0.426l-0.053,0.427l-0.049,0.428l-0.048,0.429l-0.044,0.43l-0.042,0.431l-0.039,0.433l-0.033,0.394l-0.031,0.395l-0.028,0.395l-0.026,0.395l-0.024,0.395l-0.021,0.396l-0.019,0.395l-0.017,0.396l-0.014,0.396l-0.012,0.396l-0.01,0.396l-0.007,0.396l-0.005,0.396l-0.003,0.397l0,0.396l0.002,0.396l0.004,0.397l0.007,0.396l0.009,0.397l0.012,0.396l0.014,0.397l0.016,0.397l0.018,0.396l0.021,0.397l0.023,0.396l0.026,0.396l0.028,0.397l0.03,0.396l0.032,0.396l0.035,0.396l0.037,0.396l0.04,0.396l0.042,0.396l0.044,0.395l0.046,0.396l0.049,0.395l0.051,0.395l0.054,0.395l0.056,0.395l0.058,0.394l0.06,0.395l0.063,0.394l0.065,0.394l0.068,0.394l0.069,0.393l0.073,0.393l0.074,0.393l0.077,0.393l0.079,0.392l0.081,0.392l0.084,0.392l0.086,0.391l0.088,0.391l0.091,0.391l0.093,0.39l0.095,0.39l0.097,0.39l0.1,0.389l0.103,0.389l0.019,0.073l92.925,-0.981l40.321,-0.406l0.052,0l0.019,-0.165l0.025,-0.225l0.025,-0.226l0.024,-0.225l0.023,-0.225l0.022,-0.226l0.022,-0.225l0.02,-0.225l0.02,-0.226l0.02,-0.226l0.018,-0.225l0.018,-0.226l0.017,-0.226l0.016,-0.225l0.015,-0.226l0.015,-0.226l0.014,-0.226l0.013,-0.226l0.012,-0.226l0.012,-0.226l0.011,-0.226l0.01,-0.226l0.008,-0.205l0.001,-0.021l0.011,-0.226l0.01,-0.226l0.009,-0.225l0.015,-0.44l0.013,-0.438l0.01,-0.437l0.007,-0.437l0.004,-0.436l0.001,-0.435l-0.001,-0.435l-0.004,-0.434l-0.007,-0.434l-0.01,-0.433l-0.013,-0.432l-0.015,-0.432l-0.018,-0.431l-0.021,-0.43l-0.023,-0.43l-0.026,-0.429l-0.029,-0.428l-0.031,-0.428l-0.035,-0.427l-0.036,-0.426l-0.04,-0.425l-0.042,-0.425l-0.045,-0.424l-0.047,-0.423l-0.05,-0.423l-0.053,-0.422l-0.055,-0.42l-0.058,-0.421l-0.06,-0.419l-0.063,-0.419l-0.066,-0.417l-0.013,-0.083l-0.05,-0.335l-0.065,-0.417l-0.068,-0.416l-0.07,-0.415l-0.073,-0.415l-0.075,-0.414l-0.078,-0.413l-0.08,-0.412l-0.082,-0.411l-0.086,-0.411l-0.087,-0.409l-0.09,-0.409l-0.093,-0.408l-0.095,-0.407l-0.098,-0.407l-0.099,-0.405l-0.103,-0.405l-0.105,-0.404l-0.107,-0.402l-0.109,-0.402l-0.112,-0.401l-0.115,-0.4l-0.116,-0.4l-0.119,-0.398l-0.122,-0.397l-0.124,-0.396l-0.126,-0.396l-0.128,-0.394l-0.131,-0.394l-0.133,-0.392l-0.135,-0.391l-0.138,-0.391l-0.14,-0.389l-0.142,-0.389l-0.145,-0.387l-0.147,-0.386l-0.149,-0.386l-0.151,-0.384l-0.154,-0.383l-0.155,-0.382l-0.158,-0.381l-0.16,-0.38l-0.163,-0.379l-0.164,-0.378l-0.167,-0.376l-0.169,-0.376l-0.124,-0.27l-0.046,-0.104l-0.168,-0.376l-0.171,-0.374l-0.173,-0.373l-0.175,-0.372l-0.177,-0.371l-0.179,-0.37l-0.182,-0.368l-0.183,-0.368l-0.186,-0.366l-0.188,-0.365l-0.19,-0.364l-0.192,-0.363l-0.194,-0.362l-0.196,-0.36l-0.198,-0.359l-0.2,-0.358l-0.203,-0.357l-0.204,-0.355l-0.207,-0.355l-0.208,-0.353l-0.211,-0.351l-0.212,-0.351l-0.215,-0.349l-0.216,-0.348l-0.219,-0.346l-0.22,-0.346l-0.092,-0.142l-0.129,-0.203l-0.222,-0.344l-0.224,-0.343l-0.225,-0.342l-0.228,-0.34l-0.23,-0.339l-0.231,-0.338l-0.234,-0.337l-0.235,-0.335l-0.237,-0.333l-0.24,-0.333l-0.241,-0.33l-0.243,-0.33l-0.245,-0.328l-0.071,-0.094l-0.175,-0.234l-0.246,-0.326l-0.249,-0.326l-0.251,-0.324l-0.252,-0.322l-0.254,-0.321l-0.257,-0.32l-0.258,-0.318l-0.259,-0.317l-0.262,-0.315l-0.264,-0.313l-0.265,-0.313l-0.267,-0.31l-0.269,-0.309l-0.103,-0.118l-0.167,-0.191l-0.271,-0.307l-0.273,-0.306l-0.274,-0.304l-0.277,-0.303l-0.278,-0.301l-0.28,-0.3l-0.282,-0.298l-0.283,-0.297l-0.285,-0.294l-0.287,-0.294l-0.289,-0.291l-0.29,-0.291l-0.292,-0.288l-0.294,-0.287l-0.296,-0.285l-0.297,-0.283l-0.299,-0.282l-0.3,-0.28l-0.302,-0.279l-0.304,-0.276l-0.305,-0.276l-0.307,-0.273l-0.309,-0.271l-0.31,-0.27l-0.312,-0.268l-0.314,-0.267l-0.315,-0.264l-0.317,-0.263l-0.318,-0.261l-0.32,-0.26l-0.321,-0.257l-0.323,-0.256l-0.284,-0.221l-0.041,-0.033l-0.325,-0.252l-0.327,-0.251l-0.329,-0.249l-0.33,-0.247l-0.332,-0.245l-0.333,-0.244l-0.335,-0.241l-0.336,-0.24l-0.338,-0.237l-0.339,-0.236l-0.341,-0.234l-0.342,-0.232l-0.344,-0.23l-0.345,-0.228l-0.346,-0.226l-0.348,-0.224l-0.349,-0.222l-0.351,-0.221l-0.352,-0.218l-0.354,-0.216l-0.355,-0.214l-0.356,-0.213l-0.358,-0.21l-0.359,-0.208l-0.36,-0.206l-0.362,-0.204l-0.363,-0.202l-0.365,-0.2l-0.365,-0.198l-0.368,-0.196l-0.368,-0.193l-0.37,-0.192l-0.371,-0.189l-0.372,-0.188l-0.374,-0.185l-0.375,-0.183l-0.376,-0.181l-0.377,-0.178l-0.379,-0.177l-0.38,-0.174l-0.381,-0.172l-0.383,-0.17l-0.021,-0.01l-0.362,-0.159l-0.385,-0.166l-0.386,-0.164l-0.387,-0.161l-0.388,-0.16l-0.39,-0.157l-0.391,-0.155l-0.391,-0.152l-0.394,-0.151l-0.394,-0.148l-0.395,-0.145l-0.397,-0.144l-0.397,-0.141l-0.399,-0.139l-0.4,-0.136l-0.401,-0.134l-0.403,-0.132l-0.403,-0.13l-0.404,-0.127l-0.406,-0.124l-0.406,-0.123l-0.408,-0.12l-0.409,-0.117l-0.41,-0.115l-0.411,-0.113l-0.412,-0.11l-0.413,-0.108l-0.414,-0.105l-0.415,-0.103l-0.416,-0.101l-0.417,-0.098l-0.418,-0.095l-0.419,-0.093l-0.421,-0.09l-0.421,-0.088l-0.422,-0.086l-0.423,-0.083l-0.424,-0.08l-0.425,-0.078l-0.426,-0.075l-0.427,-0.073l-0.428,-0.07l-0.429,-0.067l-0.43,-0.065l-0.43,-0.062l-0.432,-0.06l-0.432,-0.057l-0.434,-0.054l-0.434,-0.052l-0.433,-0.049l-0.433,-0.046l-0.432,-0.043l-0.432,-0.041l-0.431,-0.037l-0.431,-0.035l-0.43,-0.033l-0.43,-0.029l-0.43,-0.027l-0.429,-0.024l-0.428,-0.021l-0.428,-0.019l-0.427,-0.015l-0.427,-0.014l-0.426,-0.01l-0.425,-0.008l-0.425,-0.005l-0.425,-0.002l-0.424,0Z"/></g></g></svg>