<?xml version="1.0" encoding="UTF-8" standalone="no"?><!DOCTYPE svg PUBLIC "-//W3C//DTD SVG 1.1//EN" "http://www.w3.org/Graphics/SVG/1.1/DTD/svg11.dtd"><svg width="100%" height="100%" viewBox="0 0 185 30" version="1.1" xmlns="http://www.w3.org/2000/svg" xmlns:xlink="http://www.w3.org/1999/xlink" xml:space="preserve" xmlns:serif="http://www.serif.com/" style="fill-rule:evenodd;clip-rule:evenodd;stroke-linejoin:round;stroke-miterlimit:2;"><rect id="Artboard1" x="0" y="0.17" width="184.3" height="29.5" style="fill:none;"/><g><g><path d="M93,13.67l2.5,-6.5l0.9,0l2.7,6.5l-1,0l-0.8,-2l-2.7,0l-0.7,2l-0.9,0Zm1.9,-2.6l2.2,0l-0.7,-1.8c-0.2,-0.5 -0.4,-1 -0.5,-1.3c-0.1,0.4 -0.2,0.8 -0.4,1.2l-0.6,1.9Z" style="fill:#959595;fill-rule:nonzero;"/><path d="M102.8,13.67l0,-0.7c-0.4,0.5 -0.9,0.8 -1.5,0.8c-0.3,0 -0.5,-0.1 -0.8,-0.2c-0.2,-0.1 -0.4,-0.2 -0.5,-0.4c-0.1,-0.2 -0.2,-0.4 -0.2,-0.6l0,-3.6l0.8,0l0,3.4c0.1,0.2 0.2,0.4 0.3,0.5c0.2,0.1 0.4,0.2 0.6,0.2c0.2,0 0.5,-0.1 0.7,-0.2c0.2,-0.1 0.4,-0.3 0.4,-0.5c0.1,-0.2 0.1,-0.5 0.1,-0.9l0,-2.5l0.8,0l0,4.7l-0.7,0Z" style="fill:#959595;fill-rule:nonzero;"/><path d="M104.4,12.27l0.8,-0.1c0,0.3 0.2,0.6 0.4,0.7c0.2,0.2 0.5,0.3 0.8,0.3c0.4,0 0.6,-0.1 0.8,-0.2c0.2,-0.1 0.3,-0.3 0.3,-0.5c0,-0.2 -0.1,-0.3 -0.2,-0.4c-0.1,-0.1 -0.4,-0.2 -0.8,-0.3c-0.6,-0.1 -1,-0.3 -1.2,-0.4c-0.2,-0.1 -0.4,-0.3 -0.5,-0.4c-0.1,-0.2 -0.2,-0.4 -0.2,-0.6c0,-0.2 0,-0.4 0.1,-0.6c0.1,-0.2 0.2,-0.3 0.4,-0.4c0.1,-0.1 0.3,-0.2 0.5,-0.2c0.2,-0.1 0.4,-0.1 0.7,-0.1c0.4,0 0.7,0.1 1,0.2c0.3,0.1 0.5,0.3 0.6,0.4c0.1,0.2 0.2,0.4 0.3,0.7l-0.8,0.1c0,-0.2 -0.1,-0.4 -0.3,-0.6c-0.2,-0.1 -0.4,-0.2 -0.7,-0.2c-0.4,0 -0.6,0.1 -0.8,0.2c-0.2,0.1 -0.2,0.3 -0.2,0.4c0,0.1 0,0.2 0.1,0.3c0.1,0.1 0.2,0.2 0.3,0.2c0.1,0 0.3,0.1 0.7,0.2c0.6,0.2 1,0.3 1.2,0.4c0.2,0.1 0.4,0.2 0.5,0.4c0.1,0.2 0.2,0.4 0.2,0.7c0,0.3 -0.1,0.5 -0.2,0.8c-0.2,0.2 -0.4,0.4 -0.7,0.5c-0.3,0.1 -0.6,0.2 -1,0.2c-0.6,0 -1.1,-0.1 -1.4,-0.4c-0.4,-0.4 -0.6,-0.8 -0.7,-1.3Z" style="fill:#959595;fill-rule:nonzero;"/><path d="M109.1,14.07l0.8,0.1c-0,0.2 0.1,0.4 0.3,0.5c0.2,0.1 0.5,0.2 0.8,0.2c0.4,0 0.7,-0.1 0.9,-0.2c0.2,-0.1 0.3,-0.4 0.4,-0.6c-0,-0.2 0.1,-0.5 0.1,-1c-0.3,0.4 -0.8,0.6 -1.3,0.6c-0.6,0 -1.1,-0.2 -1.5,-0.7c-0.4,-0.5 -0.5,-1 -0.5,-1.7c-0,-0.4 0.1,-0.9 0.2,-1.2c0.2,-0.4 0.4,-0.7 0.7,-0.9c0.3,-0.2 0.7,-0.3 1.1,-0.3c0.6,0 1,0.2 1.4,0.7l-0,-0.6l0.7,0l-0,4.1c-0,0.7 -0.1,1.3 -0.2,1.6c-0.1,0.3 -0.4,0.5 -0.7,0.7c-0.3,0.2 -0.7,0.3 -1.2,0.3c-0.6,0 -1,-0.1 -1.4,-0.4c-0.4,-0.3 -0.6,-0.7 -0.6,-1.2Zm0.7,-2.8c-0,0.6 0.1,1.1 0.4,1.4c0.2,0.3 0.6,0.4 0.9,0.4c0.4,0 0.7,-0.1 0.9,-0.4c0.2,-0.3 0.4,-0.7 0.4,-1.3c-0,-0.6 -0.1,-1 -0.4,-1.3c-0.3,-0.3 -0.6,-0.4 -0.9,-0.4c-0.4,0 -0.7,0.1 -0.9,0.4c-0.3,0.2 -0.4,0.6 -0.4,1.2Z" style="fill:#959595;fill-rule:nonzero;"/><rect x="114.3" y="7.17" width="0.8" height="6.5" style="fill:#959595;fill-rule:nonzero;"/><path d="M119.6,12.17l0.8,0.1c-0.1,0.5 -0.4,0.9 -0.7,1.1c-0.4,0.3 -0.8,0.4 -1.3,0.4c-0.7,0 -1.2,-0.2 -1.6,-0.6c-0.4,-0.4 -0.6,-1 -0.6,-1.8c-0,-0.8 0.2,-1.4 0.6,-1.8c0.4,-0.4 0.9,-0.7 1.6,-0.7c0.6,0 1.1,0.2 1.5,0.6c0.4,0.4 0.6,1 0.6,1.8l-0,0.2l-3.5,0c-0,0.5 0.2,0.9 0.4,1.2c0.3,0.3 0.6,0.4 1,0.4c0.3,0 0.5,-0.1 0.7,-0.2c0.2,-0.1 0.4,-0.3 0.5,-0.7Zm-2.6,-1.3l2.6,0c-0,-0.4 -0.1,-0.7 -0.3,-0.9c-0.3,-0.3 -0.6,-0.5 -1,-0.5c-0.4,0 -0.7,0.1 -0.9,0.4c-0.3,0.3 -0.4,0.6 -0.4,1Z" style="fill:#959595;fill-rule:nonzero;"/><path d="M121.4,8.17l0,-1l0.8,0l0,1l-0.8,0Zm0,5.5l0,-4.7l0.8,0l0,4.7l-0.8,0Z" style="fill:#959595;fill-rule:nonzero;"/><path d="M126.5,11.97l0.8,0.1c-0.1,0.5 -0.3,1 -0.7,1.3c-0.4,0.3 -0.8,0.5 -1.3,0.5c-0.6,0 -1.2,-0.2 -1.6,-0.6c-0.4,-0.4 -0.6,-1 -0.6,-1.8c0,-0.5 0.1,-1 0.3,-1.3c0.2,-0.4 0.4,-0.7 0.8,-0.9c0.3,-0.2 0.7,-0.3 1.1,-0.3c0.5,0 0.9,0.1 1.3,0.4c0.3,0.3 0.5,0.6 0.6,1.1l-0.8,0.1c-0.1,-0.3 -0.2,-0.6 -0.4,-0.7c-0.2,-0.2 -0.4,-0.2 -0.7,-0.2c-0.4,0 -0.7,0.1 -1,0.4c-0.3,0.3 -0.4,0.7 -0.4,1.4c0,0.6 0.1,1.1 0.4,1.4c0.2,0.3 0.6,0.4 0.9,0.4c0.3,0 0.6,-0.1 0.8,-0.3c0.3,-0.3 0.4,-0.6 0.5,-1Z" style="fill:#959595;fill-rule:nonzero;"/><path d="M128,13.77l0,-6.6l0.8,0l0,2.3c0.4,-0.4 0.8,-0.6 1.4,-0.6c0.3,0 0.7,0.1 0.9,0.2c0.3,0.1 0.4,0.3 0.6,0.6c0.1,0.2 0.2,0.6 0.2,1.1l0,3l-0.9,0l0,-3c0,-0.4 -0.1,-0.7 -0.3,-0.9c-0.2,-0.2 -0.4,-0.3 -0.7,-0.3c-0.2,0 -0.5,0.1 -0.7,0.2c-0.2,0.1 -0.4,0.3 -0.4,0.5c-0.1,0.2 -0.1,0.5 -0.1,0.9l0,2.6l-0.8,0Z" style="fill:#959595;fill-rule:nonzero;"/><path d="M132.7,12.27l0.8,-0.1c0,0.3 0.2,0.6 0.4,0.7c0.2,0.2 0.5,0.3 0.8,0.3c0.4,0 0.6,-0.1 0.8,-0.2c0.2,-0.1 0.3,-0.3 0.3,-0.5c0,-0.2 -0.1,-0.3 -0.2,-0.4c-0.1,-0.1 -0.4,-0.2 -0.8,-0.3c-0.6,-0.1 -1,-0.3 -1.2,-0.4c-0.2,-0.1 -0.4,-0.3 -0.5,-0.4c-0.1,-0.2 -0.2,-0.4 -0.2,-0.6c0,-0.2 0,-0.4 0.1,-0.6c0.1,-0.2 0.2,-0.3 0.4,-0.4c0.1,-0.1 0.3,-0.2 0.5,-0.2c0.2,-0.1 0.4,-0.1 0.7,-0.1c0.4,0 0.7,0.1 1,0.2c0.3,0.1 0.5,0.3 0.6,0.4c0.1,0.2 0.2,0.4 0.3,0.7l-0.8,0.1c0,-0.2 -0.1,-0.4 -0.3,-0.6c-0.2,-0.1 -0.4,-0.2 -0.7,-0.2c-0.4,0 -0.6,0.1 -0.8,0.2c-0.2,0.1 -0.2,0.3 -0.2,0.4c0,0.1 0,0.2 0.1,0.3c0.1,0.1 0.2,0.2 0.3,0.2c0.1,0 0.3,0.1 0.7,0.2c0.6,0.2 1,0.3 1.2,0.4c0.2,0.1 0.4,0.2 0.5,0.4c0.1,0.2 0.2,0.4 0.2,0.7c0,0.3 -0.1,0.5 -0.2,0.8c-0.2,0.2 -0.4,0.4 -0.7,0.5c-0.3,0.1 -0.6,0.2 -1,0.2c-0.6,0 -1.1,-0.1 -1.4,-0.4c-0.4,-0.4 -0.6,-0.8 -0.7,-1.3Z" style="fill:#959595;fill-rule:nonzero;"/><path d="M137.5,13.67l0,-6.5l0.8,0l0,3.7l1.9,-1.9l1,0l-1.8,1.7l2,3l-1,0l-1.6,-2.4l-0.6,0.5l0,1.9l-0.7,0Z" style="fill:#959595;fill-rule:nonzero;"/><path d="M145.1,13.17c-0.3,0.3 -0.6,0.4 -0.9,0.5c-0.3,0.1 -0.6,0.2 -0.9,0.2c-0.5,0 -0.9,-0.1 -1.2,-0.4c-0.3,-0.3 -0.4,-0.6 -0.4,-1c0,-0.2 0.1,-0.4 0.2,-0.6c0.1,-0.2 0.2,-0.3 0.4,-0.5c0.2,-0.1 0.4,-0.2 0.6,-0.3c0.2,0 0.4,-0.1 0.7,-0.1c0.6,-0.1 1.1,-0.2 1.4,-0.3l0,-0.2c0,-0.3 -0.1,-0.6 -0.2,-0.7c-0.2,-0.2 -0.5,-0.3 -0.9,-0.3c-0.4,0 -0.7,0.1 -0.8,0.2c-0.2,0.1 -0.3,0.4 -0.4,0.7l-0.8,-0.1c0.1,-0.3 0.2,-0.6 0.4,-0.8c0.2,-0.2 0.4,-0.4 0.7,-0.5c0.3,-0.1 0.7,-0.2 1.1,-0.2c0.4,0 0.7,0 1,0.1c0.3,0.1 0.4,0.2 0.6,0.4c0.1,0.1 0.2,0.3 0.2,0.5l0,1.8c0,0.7 0,1.2 0.1,1.4c0,0.2 0.1,0.4 0.2,0.6l-0.8,0c-0.2,0 -0.2,-0.2 -0.3,-0.4Zm0,-1.8c-0.3,0.1 -0.7,0.2 -1.3,0.3c-0.3,0 -0.6,0.1 -0.7,0.2c-0.1,0.1 -0.2,0.1 -0.3,0.3c-0.1,0.1 -0.1,0.2 -0.1,0.4c0,0.2 0.1,0.4 0.2,0.5c0.2,0.1 0.4,0.2 0.7,0.2c0.3,0 0.6,-0.1 0.8,-0.2c0.2,-0.1 0.4,-0.3 0.5,-0.6c0.1,-0.2 0.1,-0.4 0.1,-0.8l0,-0.3l0.1,0Z" style="fill:#959595;fill-rule:nonzero;"/><path d="M146.8,12.27l0.8,-0.1c0,0.3 0.2,0.6 0.4,0.7c0.2,0.2 0.5,0.3 0.8,0.3c0.4,0 0.6,-0.1 0.8,-0.2c0.2,-0.1 0.3,-0.3 0.3,-0.5c0,-0.2 -0.1,-0.3 -0.2,-0.4c-0.1,-0.1 -0.4,-0.2 -0.8,-0.3c-0.6,-0.1 -1,-0.3 -1.2,-0.4c-0.2,-0.1 -0.4,-0.3 -0.5,-0.4c-0.1,-0.2 -0.2,-0.4 -0.2,-0.6c0,-0.2 0,-0.4 0.1,-0.6c0.1,-0.2 0.2,-0.3 0.4,-0.4c0.1,-0.1 0.3,-0.2 0.5,-0.2c0.2,-0.1 0.4,-0.1 0.7,-0.1c0.4,0 0.7,0.1 1,0.2c0.3,0.1 0.5,0.3 0.6,0.4c0.1,0.2 0.2,0.4 0.3,0.7l-0.8,0.1c0,-0.2 -0.1,-0.4 -0.3,-0.6c-0.2,-0.1 -0.4,-0.2 -0.7,-0.2c-0.4,0 -0.6,0.1 -0.8,0.2c-0.2,0.1 -0.2,0.3 -0.2,0.4c0,0.1 0,0.2 0.1,0.3c0.1,0.1 0.2,0.2 0.3,0.2c0.1,0 0.3,0.1 0.7,0.2c0.6,0.2 1,0.3 1.2,0.4c0.2,0.1 0.4,0.2 0.5,0.4c0.1,0.2 0.2,0.4 0.2,0.7c0,0.3 -0.1,0.5 -0.2,0.8c-0.2,0.2 -0.4,0.4 -0.7,0.5c-0.3,0.1 -0.6,0.2 -1,0.2c-0.6,0 -1.1,-0.1 -1.4,-0.4c-0.4,-0.4 -0.6,-0.8 -0.7,-1.3Z" style="fill:#959595;fill-rule:nonzero;"/><path d="M151.3,12.27l0.8,-0.1c0,0.3 0.2,0.6 0.4,0.7c0.2,0.2 0.5,0.3 0.8,0.3c0.4,0 0.6,-0.1 0.8,-0.2c0.2,-0.1 0.3,-0.3 0.3,-0.5c0,-0.2 -0.1,-0.3 -0.2,-0.4c-0.1,-0.1 -0.4,-0.2 -0.8,-0.3c-0.6,-0.1 -1,-0.3 -1.2,-0.4c-0.2,-0.1 -0.4,-0.3 -0.5,-0.4c-0.1,-0.2 -0.2,-0.4 -0.2,-0.6c0,-0.2 0,-0.4 0.1,-0.6c0.1,-0.2 0.2,-0.3 0.4,-0.4c0.1,-0.1 0.3,-0.2 0.5,-0.2c0.2,-0.1 0.4,-0.1 0.7,-0.1c0.4,0 0.7,0.1 1,0.2c0.3,0.1 0.5,0.3 0.6,0.4c0.1,0.2 0.2,0.4 0.3,0.7l-0.8,0.1c0,-0.2 -0.1,-0.4 -0.3,-0.6c-0.2,-0.1 -0.4,-0.2 -0.7,-0.2c-0.4,0 -0.6,0.1 -0.8,0.2c-0.2,0.1 -0.2,0.3 -0.2,0.4c0,0.1 0,0.2 0.1,0.3c0.1,0.1 0.2,0.2 0.3,0.2c0.1,0 0.3,0.1 0.7,0.2c0.6,0.2 1,0.3 1.2,0.4c0.2,0.1 0.4,0.2 0.5,0.4c0.1,0.2 0.2,0.4 0.2,0.7c0,0.3 -0.1,0.5 -0.2,0.8c-0.2,0.2 -0.4,0.4 -0.7,0.5c-0.3,0.1 -0.6,0.2 -1,0.2c-0.6,0 -1.1,-0.1 -1.4,-0.4c-0.4,-0.4 -0.6,-0.8 -0.7,-1.3Z" style="fill:#959595;fill-rule:nonzero;"/><path d="M159.4,12.17l0.8,0.1c-0.1,0.5 -0.4,0.9 -0.7,1.1c-0.4,0.3 -0.8,0.4 -1.3,0.4c-0.7,0 -1.2,-0.2 -1.6,-0.6c-0.4,-0.4 -0.6,-1 -0.6,-1.8c0,-0.8 0.2,-1.4 0.6,-1.8c0.4,-0.4 0.9,-0.7 1.6,-0.7c0.6,0 1.1,0.2 1.5,0.6c0.4,0.4 0.6,1 0.6,1.8l0,0.2l-3.5,0c0,0.5 0.2,0.9 0.4,1.2c0.3,0.3 0.6,0.4 1,0.4c0.3,0 0.5,-0.1 0.7,-0.2c0.2,-0.1 0.4,-0.3 0.5,-0.7Zm-2.6,-1.3l2.6,0c0,-0.4 -0.1,-0.7 -0.3,-0.9c-0.3,-0.3 -0.6,-0.5 -1,-0.5c-0.4,0 -0.7,0.1 -0.9,0.4c-0.2,0.3 -0.4,0.6 -0.4,1Z" style="fill:#959595;fill-rule:nonzero;"/><path d="M96.7,23.37l0,-0.6c-0.3,0.5 -0.7,0.7 -1.3,0.7c-0.4,0 -0.7,-0.1 -1,-0.3c-0.3,-0.2 -0.6,-0.5 -0.7,-0.9c-0.2,-0.4 -0.3,-0.8 -0.3,-1.3c0,-0.5 0.1,-0.9 0.2,-1.3c0.2,-0.4 0.4,-0.7 0.7,-0.9c0.3,-0.2 0.7,-0.3 1.1,-0.3c0.3,0 0.5,0.1 0.8,0.2c0.2,0.1 0.4,0.3 0.5,0.5l0,-2.3l0.8,0l0,6.5l-0.8,0Zm-2.5,-2.4c0,0.6 0.1,1.1 0.4,1.4c0.3,0.3 0.6,0.4 0.9,0.4c0.3,0 0.6,-0.1 0.9,-0.4c0.2,-0.3 0.4,-0.7 0.4,-1.3c0,-0.6 -0.1,-1.1 -0.4,-1.4c-0.2,-0.3 -0.6,-0.5 -0.9,-0.5c-0.4,0 -0.7,0.1 -0.9,0.4c-0.3,0.4 -0.4,0.8 -0.4,1.4Z" style="fill:#959595;fill-rule:nonzero;"/><path d="M101.9,21.87l0.8,0.1c-0.1,0.5 -0.4,0.9 -0.7,1.1c-0.4,0.3 -0.8,0.4 -1.3,0.4c-0.7,0 -1.2,-0.2 -1.6,-0.6c-0.4,-0.4 -0.6,-1 -0.6,-1.8c0,-0.8 0.2,-1.4 0.6,-1.8c0.4,-0.4 0.9,-0.7 1.6,-0.7c0.6,0 1.1,0.2 1.5,0.6c0.4,0.4 0.6,1 0.6,1.8l0,0.2l-3.5,0c0,0.5 0.2,0.9 0.4,1.2c0.3,0.3 0.6,0.4 1,0.4c0.3,0 0.5,-0.1 0.7,-0.2c0.2,-0.1 0.4,-0.4 0.5,-0.7Zm-2.6,-1.3l2.6,0c-0,-0.4 -0.1,-0.7 -0.3,-0.9c-0.3,-0.3 -0.6,-0.5 -1,-0.5c-0.4,0 -0.7,0.1 -0.9,0.4c-0.2,0.3 -0.4,0.6 -0.4,1Z" style="fill:#959595;fill-rule:nonzero;"/><path d="M103.4,21.97l0.8,-0.1c0,0.3 0.2,0.6 0.4,0.7c0.2,0.2 0.5,0.3 0.8,0.3c0.4,0 0.6,-0.1 0.8,-0.2c0.2,-0.1 0.3,-0.3 0.3,-0.5c0,-0.2 -0.1,-0.3 -0.2,-0.4c-0.1,-0.1 -0.4,-0.2 -0.8,-0.3c-0.6,-0.1 -1,-0.3 -1.2,-0.4c-0.2,-0.1 -0.4,-0.3 -0.5,-0.4c-0.1,-0.2 -0.2,-0.4 -0.2,-0.6c0,-0.2 0,-0.4 0.1,-0.6c0.1,-0.2 0.2,-0.3 0.4,-0.4c0.1,-0.1 0.3,-0.2 0.5,-0.2c0.2,-0.1 0.4,-0.1 0.7,-0.1c0.4,0 0.7,0.1 1,0.2c0.3,0.1 0.5,0.3 0.6,0.4c0.1,0.2 0.2,0.4 0.3,0.7l-0.8,0.1c0,-0.2 -0.1,-0.4 -0.3,-0.6c-0.2,-0.1 -0.4,-0.2 -0.7,-0.2c-0.4,0 -0.6,0.1 -0.8,0.2c-0.2,0.1 -0.2,0.3 -0.2,0.4c0,0.1 0,0.2 0.1,0.3c0.1,0.1 0.2,0.2 0.3,0.2c0.1,0 0.3,0.1 0.7,0.2c0.6,0.2 1,0.3 1.2,0.4c0.2,0.1 0.4,0.2 0.5,0.4c0.1,0.2 0.2,0.4 0.2,0.7c0,0.3 -0.1,0.5 -0.2,0.8c-0.2,0.2 -0.4,0.4 -0.7,0.5c-0.3,0.1 -0.6,0.2 -1,0.2c-0.6,0 -1.1,-0.1 -1.4,-0.4c-0.4,-0.4 -0.6,-0.8 -0.7,-1.3Z" style="fill:#959595;fill-rule:nonzero;"/><path d="M110.9,23.37l0,-6.5l0.9,0l0,3.2l3.2,-3.2l1.2,0l-2.7,2.6l2.8,3.9l-1.1,0l-2.3,-3.3l-1.1,1l0,2.3l-0.9,0Z" style="fill:#959595;fill-rule:nonzero;"/><path d="M119.9,22.77c-0.3,0.3 -0.6,0.4 -0.9,0.5c-0.3,0.1 -0.6,0.2 -0.9,0.2c-0.5,0 -0.9,-0.1 -1.2,-0.4c-0.3,-0.3 -0.4,-0.6 -0.4,-1c0,-0.2 0.1,-0.4 0.2,-0.6c0.1,-0.2 0.2,-0.3 0.4,-0.5c0.2,-0.1 0.4,-0.2 0.6,-0.3c0.2,0 0.4,-0.1 0.7,-0.1c0.6,-0.1 1.1,-0.2 1.4,-0.3l0,-0.2c0,-0.3 -0.1,-0.6 -0.2,-0.7c-0.2,-0.2 -0.5,-0.3 -0.9,-0.3c-0.4,0 -0.7,0.1 -0.8,0.2c-0.2,0.1 -0.3,0.4 -0.4,0.7l-0.8,-0.1c0.1,-0.3 0.2,-0.6 0.4,-0.8c0.2,-0.2 0.4,-0.4 0.7,-0.5c0.3,-0.1 0.7,-0.2 1.1,-0.2c0.4,0 0.7,0 1,0.1c0.3,0.1 0.4,0.2 0.6,0.4c0.1,0.1 0.2,0.3 0.2,0.5l0,1.8c0,0.7 0,1.2 0.1,1.4c0,0.2 0.1,0.4 0.2,0.6l-0.8,0c-0.2,0 -0.2,-0.2 -0.3,-0.4Zm0,-1.8c-0.3,0.1 -0.7,0.2 -1.3,0.3c-0.3,0 -0.6,0.1 -0.7,0.2c-0.1,0.1 -0.2,0.1 -0.3,0.3c-0.1,0.1 -0.1,0.2 -0.1,0.4c0,0.2 0.1,0.4 0.2,0.5c0.2,0.1 0.4,0.2 0.7,0.2c0.3,0 0.6,-0.1 0.8,-0.2c0.2,-0.1 0.4,-0.3 0.5,-0.6c0.1,-0.2 0.1,-0.4 0.1,-0.8l0,-0.3l0.1,0Z" style="fill:#959595;fill-rule:nonzero;"/><path d="M121.9,23.47l0,-4.8l0.7,0l0,0.7c0.3,-0.5 0.8,-0.8 1.5,-0.8c0.3,0 0.5,0.1 0.8,0.2c0.2,0.1 0.4,0.2 0.5,0.4c0.1,0.2 0.2,0.4 0.2,0.6l0,3.7l-0.8,0l0,-2.9c0,-0.3 0,-0.6 -0.1,-0.7c-0.1,-0.2 -0.2,-0.3 -0.3,-0.4c-0.2,-0.1 -0.3,-0.1 -0.6,-0.1c-0.3,0 -0.6,0.1 -0.9,0.3c-0.2,0.2 -0.4,0.6 -0.4,1.2l0,2.6l-0.6,0Z" style="fill:#959595;fill-rule:nonzero;"/><path d="M128.7,22.67l0.1,0.7c-0.2,0 -0.4,0.1 -0.6,0.1c-0.3,0 -0.5,0 -0.7,-0.1c-0.2,-0.1 -0.3,-0.2 -0.3,-0.4c-0.1,-0.1 -0.1,-0.5 -0.1,-0.9l0,-2.7l-0.6,0l0,-0.6l0.6,0l0,-1.2l0.8,-0.5l0,1.6l0.8,0l0,0.6l-0.8,0l0,3.2c0,0.1 0.1,0.1 0.1,0.2c0.1,0 0.2,0.1 0.3,0.1c0.1,-0.1 0.2,-0.1 0.4,-0.1Z" style="fill:#959595;fill-rule:nonzero;"/><path d="M129.2,20.97c0,-0.9 0.2,-1.5 0.7,-1.9c0.4,-0.3 0.9,-0.5 1.5,-0.5c0.6,0 1.2,0.2 1.6,0.6c0.4,0.4 0.6,1 0.6,1.8c0,0.6 -0.1,1.1 -0.3,1.4c-0.2,0.3 -0.4,0.6 -0.8,0.8c-0.3,0.2 -0.7,0.3 -1.1,0.3c-0.7,0 -1.2,-0.2 -1.6,-0.6c-0.4,-0.5 -0.6,-1.1 -0.6,-1.9Zm0.8,0c0,0.6 0.1,1.1 0.4,1.4c0.3,0.3 0.6,0.4 1,0.4c0.4,0 0.7,-0.2 1,-0.5c0.3,-0.3 0.4,-0.8 0.4,-1.4c0,-0.6 -0.1,-1 -0.4,-1.3c-0.3,-0.3 -0.6,-0.4 -1,-0.4c-0.4,0 -0.7,0.1 -1,0.4c-0.3,0.4 -0.4,0.8 -0.4,1.4Z" style="fill:#959595;fill-rule:nonzero;"/><path d="M134.5,23.47l0,-4.8l0.7,0l0,0.7c0.3,-0.5 0.8,-0.8 1.5,-0.8c0.3,0 0.5,0.1 0.8,0.2c0.2,0.1 0.4,0.2 0.5,0.4c0.1,0.2 0.2,0.4 0.2,0.6l0,3.7l-0.8,0l0,-2.9c0,-0.3 0,-0.6 -0.1,-0.7c-0.1,-0.2 -0.2,-0.3 -0.3,-0.4c-0.2,-0.1 -0.3,-0.1 -0.6,-0.1c-0.3,0 -0.6,0.1 -0.9,0.3c-0.2,0.2 -0.4,0.6 -0.4,1.2l0,2.6l-0.6,0Z" style="fill:#959595;fill-rule:nonzero;"/><path d="M139.2,21.97l0.8,-0.1c-0,0.3 0.2,0.6 0.4,0.7c0.2,0.2 0.5,0.3 0.8,0.3c0.4,0 0.6,-0.1 0.8,-0.2c0.2,-0.1 0.3,-0.3 0.3,-0.5c-0,-0.2 -0.1,-0.3 -0.2,-0.4c-0.1,-0.1 -0.4,-0.2 -0.8,-0.3c-0.6,-0.1 -1,-0.3 -1.2,-0.4c-0.2,-0.1 -0.4,-0.3 -0.5,-0.4c-0.1,-0.2 -0.2,-0.4 -0.2,-0.6c-0,-0.2 -0,-0.4 0.1,-0.6c0.1,-0.2 0.2,-0.3 0.4,-0.4c0.1,-0.1 0.3,-0.2 0.5,-0.2c0.2,-0.1 0.4,-0.1 0.7,-0.1c0.4,0 0.7,0.1 1,0.2c0.3,0.1 0.5,0.3 0.6,0.4c0.1,0.2 0.2,0.4 0.3,0.7l-0.8,0.1c-0,-0.2 -0.1,-0.4 -0.3,-0.6c-0.2,-0.1 -0.4,-0.2 -0.7,-0.2c-0.4,0 -0.6,0.1 -0.8,0.2c-0.2,0.1 -0.2,0.3 -0.2,0.4c-0,0.1 -0,0.2 0.1,0.3c0.1,0.1 0.2,0.2 0.3,0.2c0.1,0 0.3,0.1 0.7,0.2c0.6,0.2 1,0.3 1.2,0.4c0.2,0.1 0.4,0.2 0.5,0.4c0.1,0.2 0.2,0.4 0.2,0.7c-0,0.3 -0.1,0.5 -0.2,0.8c-0.2,0.2 -0.4,0.4 -0.7,0.5c-0.3,0.1 -0.6,0.2 -1,0.2c-0.6,0 -1.1,-0.1 -1.4,-0.4c-0.4,-0.4 -0.6,-0.8 -0.7,-1.3Z" style="fill:#959595;fill-rule:nonzero;"/><path d="M146.4,21.27l0.8,-0.1c0,0.3 0.1,0.6 0.3,0.8c0.1,0.2 0.4,0.4 0.7,0.5c0.3,0.1 0.6,0.2 1,0.2c0.3,0 0.6,0 0.9,-0.1c0.3,-0.1 0.4,-0.2 0.6,-0.4c0.1,-0.2 0.2,-0.4 0.2,-0.6c0,-0.2 -0.1,-0.4 -0.2,-0.5c-0.1,-0.2 -0.3,-0.3 -0.6,-0.4c-0.2,-0.1 -0.6,-0.2 -1.2,-0.3c-0.6,-0.1 -1,-0.3 -1.3,-0.4c-0.3,-0.2 -0.5,-0.4 -0.7,-0.6c-0.2,-0.2 -0.2,-0.5 -0.2,-0.8c0,-0.3 0.1,-0.6 0.3,-0.9c0.2,-0.3 0.5,-0.5 0.8,-0.6c0.4,-0.1 0.8,-0.2 1.2,-0.2c0.5,0 0.9,0.1 1.3,0.2c0.4,0.2 0.7,0.4 0.8,0.7c0.2,0.3 0.3,0.6 0.3,1l-0.8,0.1c0,-0.4 -0.2,-0.7 -0.4,-0.9c-0.3,-0.2 -0.6,-0.3 -1.1,-0.3c-0.5,0 -0.9,0.1 -1.1,0.3c-0.2,0.2 -0.4,0.4 -0.4,0.7c0,0.2 0.1,0.4 0.3,0.6c0.2,0.2 0.6,0.3 1.3,0.5c0.7,0.2 1.2,0.3 1.4,0.4c0.4,0.2 0.7,0.4 0.8,0.7c0.2,0.3 0.3,0.6 0.3,0.9c0,0.3 -0.1,0.7 -0.3,1c-0.2,0.3 -0.5,0.5 -0.9,0.7c-0.4,0.2 -0.8,0.3 -1.3,0.3c-0.6,0 -1.1,-0.1 -1.5,-0.3c-0.4,-0.2 -0.7,-0.4 -0.9,-0.8c-0.2,-0.6 -0.4,-1 -0.4,-1.4Z" style="fill:#959595;fill-rule:nonzero;"/><path d="M152.4,20.97c0,-0.9 0.2,-1.5 0.7,-1.9c0.4,-0.3 0.9,-0.5 1.5,-0.5c0.6,0 1.2,0.2 1.6,0.6c0.4,0.4 0.6,1 0.6,1.8c0,0.6 -0.1,1.1 -0.3,1.4c-0.2,0.3 -0.4,0.6 -0.8,0.8c-0.3,0.2 -0.7,0.3 -1.1,0.3c-0.7,0 -1.2,-0.2 -1.6,-0.6c-0.4,-0.5 -0.6,-1.1 -0.6,-1.9Zm0.8,0c0,0.6 0.1,1.1 0.4,1.4c0.3,0.3 0.6,0.4 1,0.4c0.4,0 0.7,-0.2 1,-0.5c0.3,-0.3 0.4,-0.8 0.4,-1.4c0,-0.6 -0.1,-1 -0.4,-1.3c-0.3,-0.3 -0.6,-0.4 -1,-0.4c-0.4,0 -0.7,0.1 -1,0.4c-0.3,0.4 -0.4,0.8 -0.4,1.4Z" style="fill:#959595;fill-rule:nonzero;"/><rect x="157.7" y="16.87" width="0.8" height="6.5" style="fill:#959595;fill-rule:nonzero;"/><path d="M159.4,20.97c0,-0.9 0.2,-1.5 0.7,-1.9c0.4,-0.3 0.9,-0.5 1.5,-0.5c0.6,0 1.2,0.2 1.6,0.6c0.4,0.4 0.6,1 0.6,1.8c0,0.6 -0.1,1.1 -0.3,1.4c-0.2,0.3 -0.4,0.6 -0.8,0.8c-0.3,0.2 -0.7,0.3 -1.1,0.3c-0.7,0 -1.2,-0.2 -1.6,-0.6c-0.4,-0.5 -0.6,-1.1 -0.6,-1.9Zm0.9,0c0,0.6 0.1,1.1 0.4,1.4c0.3,0.3 0.6,0.4 1,0.4c0.4,0 0.7,-0.2 1,-0.5c0.3,-0.3 0.4,-0.8 0.4,-1.4c0,-0.6 -0.1,-1 -0.4,-1.3c-0.3,-0.3 -0.6,-0.4 -1,-0.4c-0.4,0 -0.7,0.1 -1,0.4c-0.3,0.4 -0.4,0.8 -0.4,1.4Z" style="fill:#959595;fill-rule:nonzero;"/><path d="M166.5,22.67l0.1,0.7c-0.2,0 -0.4,0.1 -0.6,0.1c-0.3,0 -0.5,0 -0.7,-0.1c-0.2,-0.1 -0.3,-0.2 -0.3,-0.4c-0.1,-0.1 -0.1,-0.5 -0.1,-0.9l0,-2.7l-0.6,0l0,-0.6l0.6,0l0,-1.2l0.8,-0.5l0,1.6l0.8,0l0,0.6l-0.8,0l0,3.2c0,0.1 0.1,0.1 0.1,0.2c0.1,0 0.2,0.1 0.3,0.1c0.2,-0.1 0.3,-0.1 0.4,-0.1Z" style="fill:#959595;fill-rule:nonzero;"/><path d="M167.3,23.47l0,-6.6l0.8,0l0,2.3c0.4,-0.4 0.8,-0.6 1.4,-0.6c0.3,0 0.7,0.1 0.9,0.2c0.2,0.1 0.4,0.3 0.6,0.6c0.1,0.2 0.2,0.6 0.2,1.1l0,3l-0.8,0l0,-3c0,-0.4 -0.1,-0.7 -0.3,-0.9c-0.2,-0.2 -0.4,-0.3 -0.7,-0.3c-0.2,0 -0.5,0.1 -0.7,0.2c-0.2,0.1 -0.4,0.3 -0.4,0.5c-0.1,0.2 -0.1,0.5 -0.1,0.9l0,2.6l-0.9,0Z" style="fill:#959595;fill-rule:nonzero;"/><path d="M175.4,23.37l0,-0.7c-0.4,0.5 -0.9,0.8 -1.5,0.8c-0.3,0 -0.5,-0.1 -0.8,-0.2c-0.2,-0.1 -0.4,-0.2 -0.5,-0.4c-0.1,-0.2 -0.2,-0.4 -0.2,-0.6l0,-3.6l0.8,0l0,3.4c0.1,0.2 0.2,0.4 0.3,0.5c0.2,0.1 0.4,0.2 0.6,0.2c0.2,0 0.5,-0.1 0.7,-0.2c0.2,-0.1 0.4,-0.3 0.4,-0.5c0.1,-0.2 0.1,-0.5 0.1,-0.9l0,-2.5l0.8,0l0,4.7l-0.7,0Z" style="fill:#959595;fill-rule:nonzero;"/><path d="M177.4,23.37l0,-4.7l0.7,0l0,0.7c0.2,-0.3 0.4,-0.6 0.5,-0.7c0.2,-0.1 0.3,-0.2 0.5,-0.2c0.3,0 0.5,0.1 0.8,0.3l-0.3,0.7c-0.2,-0.1 -0.4,-0.2 -0.6,-0.2c-0.2,0 -0.3,0.1 -0.5,0.2c-0.1,0.1 -0.2,0.3 -0.3,0.4c-0.1,0.3 -0.1,0.6 -0.1,0.9l0,2.5l-0.7,0l0,0.1Z" style="fill:#959595;fill-rule:nonzero;"/><path d="M180.4,23.47l0,-4.8l0.7,0l0,0.7c0.3,-0.5 0.8,-0.8 1.5,-0.8c0.3,0 0.5,0.1 0.8,0.2c0.2,0.1 0.4,0.2 0.5,0.4c0.1,0.2 0.2,0.4 0.2,0.6l0,3.7l-0.8,0l0,-2.9c0,-0.3 0,-0.6 -0.1,-0.7c-0.1,-0.2 -0.2,-0.3 -0.3,-0.4c-0.2,-0.1 -0.3,-0.1 -0.6,-0.1c-0.3,0 -0.6,0.1 -0.9,0.3c-0.2,0.2 -0.4,0.6 -0.4,1.2l0,2.6l-0.6,0Z" style="fill:#959595;fill-rule:nonzero;"/></g><g><g><rect x="88.2" y="0.17" width="0.6" height="29.5" style="fill:#959595;"/></g></g><g><path d="M6.5,10.57l6.7,0l6.5,12.8l-5.9,0l-0.9,-2.2l-6.6,0l-1,2.1l-5.3,0l6.5,-12.7Zm5.1,7.9l-2,-4.5l-2.1,4.5l4.1,0Z" style="fill:#959595;fill-rule:nonzero;"/><path d="M21.1,10.57l5.4,0l0,12.8l-5.4,0l0,-12.8Zm5.4,6.1l4.6,-6.1l6.6,0l-5.1,5.8l5.7,7l-6.8,0l-5,-6.7Z" style="fill:#959595;fill-rule:nonzero;"/><g><path d="M40.4,16.47c-0.5,-0.4 -0.7,-1 -0.8,-1.5l0,4.3l5.3,0c0,0.7 0.2,1.2 0.5,1.6c0.4,0.3 0.8,0.5 1.5,0.5c1.1,0 2.3,-0.3 2.3,-1.3c0,-0.2 -0.1,-0.4 -0.2,-0.6c-0.8,-0.9 -6.9,-1.5 -8.6,-3Z" style="fill:#959595;fill-rule:nonzero;"/><path d="M39.5,20.97l0,2.4l3.1,0c-2,-0.5 -2.8,-1.4 -3.1,-2.4Z" style="fill:#959595;fill-rule:nonzero;"/><path d="M39.5,0.57l0,13c0.4,-2.3 3,-3.3 7.6,-3.3c5.4,0 7.1,1.5 7.1,4.1l-5.2,0c0,-0.7 -0.3,-1.2 -0.7,-1.4c-0.4,-0.3 -0.9,-0.4 -1.6,-0.4c-1.1,0 -1.7,0.4 -1.7,1.1c0,0.2 0.1,0.4 0.2,0.6c0.8,0.8 6.7,1.4 8.4,2.9c0.5,0.4 1,1.1 1,2.4c0,1.8 -1.2,3.2 -4.1,3.8l11.1,0c-3.7,-0.9 -5.2,-3.3 -5.2,-6.4c0,-2.5 1,-4.3 2.5,-5.3c1.2,-0.9 2.8,-1.4 6.1,-1.4c6.2,0 8.5,2.9 8.5,6.7c0,2 -0.6,3.5 -1.7,4.5c-0.9,0.8 -2.1,1.5 -3.6,1.9l14.1,0l0,-22.8l-42.8,0Z" style="fill:#959595;fill-rule:nonzero;"/><path d="M68.2,16.97c0,-2.6 -1.3,-3.8 -3.1,-3.8c-1.8,0 -3.1,1.2 -3.1,3.8c0,2.6 1.3,3.8 3.1,3.8c1.8,0 3.1,-1.2 3.1,-3.8Z" style="fill:#959595;fill-rule:nonzero;"/></g></g></g></svg>