<svg clip-rule="evenodd" fill-rule="evenodd" stroke-linejoin="round" stroke-miterlimit="2" viewBox="0 0 185 30" xmlns="http://www.w3.org/2000/svg"><path d="m0 .17h184.3v29.5h-184.3z" fill="none"/><g fill="#959595"><path d="m93 13.67 2.5-6.5h.9l2.7 6.5h-1l-.8-2h-2.7l-.7 2zm1.9-2.6h2.2l-.7-1.8c-.2-.5-.4-1-.5-1.3-.1.4-.2.8-.4 1.2z" fill-rule="nonzero"/><path d="m102.8 13.67v-.7c-.4.5-.9.8-1.5.8-.3 0-.5-.1-.8-.2-.2-.1-.4-.2-.5-.4s-.2-.4-.2-.6v-3.6h.8v3.4c.1.2.2.4.3.5.2.1.4.2.6.2s.5-.1.7-.2.4-.3.4-.5c.1-.2.1-.5.1-.9v-2.5h.8v4.7z" fill-rule="nonzero"/><path d="m104.4 12.27.8-.1c0 .3.2.6.4.7.2.2.5.3.8.3.4 0 .6-.1.8-.2s.3-.3.3-.5-.1-.3-.2-.4-.4-.2-.8-.3c-.6-.1-1-.3-1.2-.4s-.4-.3-.5-.4c-.1-.2-.2-.4-.2-.6s0-.4.1-.6.2-.3.4-.4c.1-.1.3-.2.5-.2.2-.1.4-.1.7-.1.4 0 .7.1 1 .2s.5.3.6.4c.1.2.2.4.3.7l-.8.1c0-.2-.1-.4-.3-.6-.2-.1-.4-.2-.7-.2-.4 0-.6.1-.8.2s-.2.3-.2.4 0 .2.1.3.2.2.3.2.3.1.7.2c.6.2 1 .3 1.2.4s.4.2.5.4.2.4.2.7-.1.5-.2.8c-.2.2-.4.4-.7.5s-.6.2-1 .2c-.6 0-1.1-.1-1.4-.4-.4-.4-.6-.8-.7-1.3z" fill-rule="nonzero"/><path d="m109.1 14.07.8.1c0 .2.1.4.3.5s.5.2.8.2c.4 0 .7-.1.9-.2s.3-.4.4-.6c0-.2.1-.5.1-1-.3.4-.8.6-1.3.6-.6 0-1.1-.2-1.5-.7s-.5-1-.5-1.7c0-.4.1-.9.2-1.2.2-.4.4-.7.7-.9s.7-.3 1.1-.3c.6 0 1 .2 1.4.7v-.6h.7v4.1c0 .7-.1 1.3-.2 1.6s-.4.5-.7.7-.7.3-1.2.3c-.6 0-1-.1-1.4-.4s-.6-.7-.6-1.2zm.7-2.8c0 .6.1 1.1.4 1.4.2.3.6.4.9.4.4 0 .7-.1.9-.4s.4-.7.4-1.3-.1-1-.4-1.3-.6-.4-.9-.4c-.4 0-.7.1-.9.4-.3.2-.4.6-.4 1.2z" fill-rule="nonzero"/><path d="m114.3 7.17h.8v6.5h-.8z" fill-rule="nonzero"/><path d="m119.6 12.17.8.1c-.1.5-.4.9-.7 1.1-.4.3-.8.4-1.3.4-.7 0-1.2-.2-1.6-.6s-.6-1-.6-1.8.2-1.4.6-1.8.9-.7 1.6-.7c.6 0 1.1.2 1.5.6s.6 1 .6 1.8v.2h-3.5c0 .5.2.9.4 1.2.3.3.6.4 1 .4.3 0 .5-.1.7-.2s.4-.3.5-.7zm-2.6-1.3h2.6c0-.4-.1-.7-.3-.9-.3-.3-.6-.5-1-.5s-.7.1-.9.4c-.3.3-.4.6-.4 1z" fill-rule="nonzero"/><path d="m121.4 8.17v-1h.8v1zm0 5.5v-4.7h.8v4.7z" fill-rule="nonzero"/><path d="m126.5 11.97.8.1c-.1.5-.3 1-.7 1.3s-.8.5-1.3.5c-.6 0-1.2-.2-1.6-.6s-.6-1-.6-1.8c0-.5.1-1 .3-1.3.2-.4.4-.7.8-.9.3-.2.7-.3 1.1-.3.5 0 .9.1 1.3.4.3.3.5.6.6 1.1l-.8.1c-.1-.3-.2-.6-.4-.7-.2-.2-.4-.2-.7-.2-.4 0-.7.1-1 .4s-.4.7-.4 1.4c0 .6.1 1.1.4 1.4.2.3.6.4.9.4s.6-.1.8-.3c.3-.3.4-.6.5-1z" fill-rule="nonzero"/><path d="m128 13.77v-6.6h.8v2.3c.4-.4.8-.6 1.4-.6.3 0 .7.1.9.2.3.1.4.3.6.6.1.2.2.6.2 1.1v3h-.9v-3c0-.4-.1-.7-.3-.9s-.4-.3-.7-.3c-.2 0-.5.1-.7.2s-.4.3-.4.5c-.1.2-.1.5-.1.9v2.6z" fill-rule="nonzero"/><path d="m132.7 12.27.8-.1c0 .3.2.6.4.7.2.2.5.3.8.3.4 0 .6-.1.8-.2s.3-.3.3-.5-.1-.3-.2-.4-.4-.2-.8-.3c-.6-.1-1-.3-1.2-.4s-.4-.3-.5-.4c-.1-.2-.2-.4-.2-.6s0-.4.1-.6.2-.3.4-.4c.1-.1.3-.2.5-.2.2-.1.4-.1.7-.1.4 0 .7.1 1 .2s.5.3.6.4c.1.2.2.4.3.7l-.8.1c0-.2-.1-.4-.3-.6-.2-.1-.4-.2-.7-.2-.4 0-.6.1-.8.2s-.2.3-.2.4 0 .2.1.3.2.2.3.2.3.1.7.2c.6.2 1 .3 1.2.4s.4.2.5.4.2.4.2.7-.1.5-.2.8c-.2.2-.4.4-.7.5s-.6.2-1 .2c-.6 0-1.1-.1-1.4-.4-.4-.4-.6-.8-.7-1.3z" fill-rule="nonzero"/><path d="m137.5 13.67v-6.5h.8v3.7l1.9-1.9h1l-1.8 1.7 2 3h-1l-1.6-2.4-.6.5v1.9z" fill-rule="nonzero"/><path d="m145.1 13.17c-.3.3-.6.4-.9.5s-.6.2-.9.2c-.5 0-.9-.1-1.2-.4s-.4-.6-.4-1c0-.2.1-.4.2-.6s.2-.3.4-.5c.2-.1.4-.2.6-.3.2 0 .4-.1.7-.1.6-.1 1.1-.2 1.4-.3v-.2c0-.3-.1-.6-.2-.7-.2-.2-.5-.3-.9-.3s-.7.1-.8.2c-.2.1-.3.4-.4.7l-.8-.1c.1-.3.2-.6.4-.8s.4-.4.7-.5.7-.2 1.1-.2.7 0 1 .1.4.2.6.4c.1.1.2.3.2.5v1.8c0 .7 0 1.2.1 1.4 0 .2.1.4.2.6h-.8c-.2 0-.2-.2-.3-.4zm0-1.8c-.3.1-.7.2-1.3.3-.3 0-.6.1-.7.2s-.2.1-.3.3c-.1.1-.1.2-.1.4s.1.4.2.5c.2.1.4.2.7.2s.6-.1.8-.2.4-.3.5-.6c.1-.2.1-.4.1-.8v-.3z" fill-rule="nonzero"/><path d="m146.8 12.27.8-.1c0 .3.2.6.4.7.2.2.5.3.8.3.4 0 .6-.1.8-.2s.3-.3.3-.5-.1-.3-.2-.4-.4-.2-.8-.3c-.6-.1-1-.3-1.2-.4s-.4-.3-.5-.4c-.1-.2-.2-.4-.2-.6s0-.4.1-.6.2-.3.4-.4c.1-.1.3-.2.5-.2.2-.1.4-.1.7-.1.4 0 .7.1 1 .2s.5.3.6.4c.1.2.2.4.3.7l-.8.1c0-.2-.1-.4-.3-.6-.2-.1-.4-.2-.7-.2-.4 0-.6.1-.8.2s-.2.3-.2.4 0 .2.1.3.2.2.3.2.3.1.7.2c.6.2 1 .3 1.2.4s.4.2.5.4.2.4.2.7-.1.5-.2.8c-.2.2-.4.4-.7.5s-.6.2-1 .2c-.6 0-1.1-.1-1.4-.4-.4-.4-.6-.8-.7-1.3z" fill-rule="nonzero"/><path d="m151.3 12.27.8-.1c0 .3.2.6.4.7.2.2.5.3.8.3.4 0 .6-.1.8-.2s.3-.3.3-.5-.1-.3-.2-.4-.4-.2-.8-.3c-.6-.1-1-.3-1.2-.4s-.4-.3-.5-.4c-.1-.2-.2-.4-.2-.6s0-.4.1-.6.2-.3.4-.4c.1-.1.3-.2.5-.2.2-.1.4-.1.7-.1.4 0 .7.1 1 .2s.5.3.6.4c.1.2.2.4.3.7l-.8.1c0-.2-.1-.4-.3-.6-.2-.1-.4-.2-.7-.2-.4 0-.6.1-.8.2s-.2.3-.2.4 0 .2.1.3.2.2.3.2.3.1.7.2c.6.2 1 .3 1.2.4s.4.2.5.4.2.4.2.7-.1.5-.2.8c-.2.2-.4.4-.7.5s-.6.2-1 .2c-.6 0-1.1-.1-1.4-.4-.4-.4-.6-.8-.7-1.3z" fill-rule="nonzero"/><path d="m159.4 12.17.8.1c-.1.5-.4.9-.7 1.1-.4.3-.8.4-1.3.4-.7 0-1.2-.2-1.6-.6s-.6-1-.6-1.8.2-1.4.6-1.8.9-.7 1.6-.7c.6 0 1.1.2 1.5.6s.6 1 .6 1.8v.2h-3.5c0 .5.2.9.4 1.2.3.3.6.4 1 .4.3 0 .5-.1.7-.2s.4-.3.5-.7zm-2.6-1.3h2.6c0-.4-.1-.7-.3-.9-.3-.3-.6-.5-1-.5s-.7.1-.9.4-.4.6-.4 1z" fill-rule="nonzero"/><path d="m96.7 23.37v-.6c-.3.5-.7.7-1.3.7-.4 0-.7-.1-1-.3s-.6-.5-.7-.9c-.2-.4-.3-.8-.3-1.3s.1-.9.2-1.3c.2-.4.4-.7.7-.9s.7-.3 1.1-.3c.3 0 .5.1.8.2.2.1.4.3.5.5v-2.3h.8v6.5zm-2.5-2.4c0 .6.1 1.1.4 1.4s.6.4.9.4.6-.1.9-.4c.2-.3.4-.7.4-1.3s-.1-1.1-.4-1.4c-.2-.3-.6-.5-.9-.5-.4 0-.7.1-.9.4-.3.4-.4.8-.4 1.4z" fill-rule="nonzero"/><path d="m101.9 21.87.8.1c-.1.5-.4.9-.7 1.1-.4.3-.8.4-1.3.4-.7 0-1.2-.2-1.6-.6s-.6-1-.6-1.8.2-1.4.6-1.8.9-.7 1.6-.7c.6 0 1.1.2 1.5.6s.6 1 .6 1.8v.2h-3.5c0 .5.2.9.4 1.2.3.3.6.4 1 .4.3 0 .5-.1.7-.2s.4-.4.5-.7zm-2.6-1.3h2.6c0-.4-.1-.7-.3-.9-.3-.3-.6-.5-1-.5s-.7.1-.9.4-.4.6-.4 1z" fill-rule="nonzero"/><path d="m103.4 21.97.8-.1c0 .3.2.6.4.7.2.2.5.3.8.3.4 0 .6-.1.8-.2s.3-.3.3-.5-.1-.3-.2-.4-.4-.2-.8-.3c-.6-.1-1-.3-1.2-.4s-.4-.3-.5-.4c-.1-.2-.2-.4-.2-.6s0-.4.1-.6.2-.3.4-.4c.1-.1.3-.2.5-.2.2-.1.4-.1.7-.1.4 0 .7.1 1 .2s.5.3.6.4c.1.2.2.4.3.7l-.8.1c0-.2-.1-.4-.3-.6-.2-.1-.4-.2-.7-.2-.4 0-.6.1-.8.2s-.2.3-.2.4 0 .2.1.3.2.2.3.2.3.1.7.2c.6.2 1 .3 1.2.4s.4.2.5.4.2.4.2.7-.1.5-.2.8c-.2.2-.4.4-.7.5s-.6.2-1 .2c-.6 0-1.1-.1-1.4-.4-.4-.4-.6-.8-.7-1.3z" fill-rule="nonzero"/><path d="m110.9 23.37v-6.5h.9v3.2l3.2-3.2h1.2l-2.7 2.6 2.8 3.9h-1.1l-2.3-3.3-1.1 1v2.3z" fill-rule="nonzero"/><path d="m119.9 22.77c-.3.3-.6.4-.9.5s-.6.2-.9.2c-.5 0-.9-.1-1.2-.4s-.4-.6-.4-1c0-.2.1-.4.2-.6s.2-.3.4-.5c.2-.1.4-.2.6-.3.2 0 .4-.1.7-.1.6-.1 1.1-.2 1.4-.3v-.2c0-.3-.1-.6-.2-.7-.2-.2-.5-.3-.9-.3s-.7.1-.8.2c-.2.1-.3.4-.4.7l-.8-.1c.1-.3.2-.6.4-.8s.4-.4.7-.5.7-.2 1.1-.2.7 0 1 .1.4.2.6.4c.1.1.2.3.2.5v1.8c0 .7 0 1.2.1 1.4 0 .2.1.4.2.6h-.8c-.2 0-.2-.2-.3-.4zm0-1.8c-.3.1-.7.2-1.3.3-.3 0-.6.1-.7.2s-.2.1-.3.3c-.1.1-.1.2-.1.4s.1.4.2.5c.2.1.4.2.7.2s.6-.1.8-.2.4-.3.5-.6c.1-.2.1-.4.1-.8v-.3z" fill-rule="nonzero"/><path d="m121.9 23.47v-4.8h.7v.7c.3-.5.8-.8 1.5-.8.3 0 .5.1.8.2.2.1.4.2.5.4s.2.4.2.6v3.7h-.8v-2.9c0-.3 0-.6-.1-.7-.1-.2-.2-.3-.3-.4-.2-.1-.3-.1-.6-.1s-.6.1-.9.3c-.2.2-.4.6-.4 1.2v2.6z" fill-rule="nonzero"/><path d="m128.7 22.67.1.7c-.2 0-.4.1-.6.1-.3 0-.5 0-.7-.1s-.3-.2-.3-.4c-.1-.1-.1-.5-.1-.9v-2.7h-.6v-.6h.6v-1.2l.8-.5v1.6h.8v.6h-.8v3.2c0 .1.1.1.1.2.1 0 .2.1.3.1.1-.1.2-.1.4-.1z" fill-rule="nonzero"/><path d="m129.2 20.97c0-.9.2-1.5.7-1.9.4-.3.9-.5 1.5-.5s1.2.2 1.6.6.6 1 .6 1.8c0 .6-.1 1.1-.3 1.4s-.4.6-.8.8c-.3.2-.7.3-1.1.3-.7 0-1.2-.2-1.6-.6-.4-.5-.6-1.1-.6-1.9zm.8 0c0 .6.1 1.1.4 1.4s.6.4 1 .4.7-.2 1-.5.4-.8.4-1.4-.1-1-.4-1.3-.6-.4-1-.4-.7.1-1 .4c-.3.4-.4.8-.4 1.4z" fill-rule="nonzero"/><path d="m134.5 23.47v-4.8h.7v.7c.3-.5.8-.8 1.5-.8.3 0 .5.1.8.2.2.1.4.2.5.4s.2.4.2.6v3.7h-.8v-2.9c0-.3 0-.6-.1-.7-.1-.2-.2-.3-.3-.4-.2-.1-.3-.1-.6-.1s-.6.1-.9.3c-.2.2-.4.6-.4 1.2v2.6z" fill-rule="nonzero"/><path d="m139.2 21.97.8-.1c0 .3.2.6.4.7.2.2.5.3.8.3.4 0 .6-.1.8-.2s.3-.3.3-.5-.1-.3-.2-.4-.4-.2-.8-.3c-.6-.1-1-.3-1.2-.4s-.4-.3-.5-.4c-.1-.2-.2-.4-.2-.6s0-.4.1-.6.2-.3.4-.4c.1-.1.3-.2.5-.2.2-.1.4-.1.7-.1.4 0 .7.1 1 .2s.5.3.6.4c.1.2.2.4.3.7l-.8.1c0-.2-.1-.4-.3-.6-.2-.1-.4-.2-.7-.2-.4 0-.6.1-.8.2s-.2.3-.2.4 0 .2.1.3.2.2.3.2.3.1.7.2c.6.2 1 .3 1.2.4s.4.2.5.4.2.4.2.7-.1.5-.2.8c-.2.2-.4.4-.7.5s-.6.2-1 .2c-.6 0-1.1-.1-1.4-.4-.4-.4-.6-.8-.7-1.3z" fill-rule="nonzero"/><path d="m146.4 21.27.8-.1c0 .3.1.6.3.8.1.2.4.4.7.5s.6.2 1 .2c.3 0 .6 0 .9-.1s.4-.2.6-.4c.1-.2.2-.4.2-.6s-.1-.4-.2-.5c-.1-.2-.3-.3-.6-.4-.2-.1-.6-.2-1.2-.3s-1-.3-1.3-.4c-.3-.2-.5-.4-.7-.6s-.2-.5-.2-.8.1-.6.3-.9.5-.5.8-.6c.4-.1.8-.2 1.2-.2.5 0 .9.1 1.3.2.4.2.7.4.8.7.2.3.3.6.3 1l-.8.1c0-.4-.2-.7-.4-.9-.3-.2-.6-.3-1.1-.3s-.9.1-1.1.3-.4.4-.4.7c0 .2.1.4.3.6s.6.3 1.3.5 1.2.3 1.4.4c.4.2.7.4.8.7.2.3.3.6.3.9s-.1.7-.3 1-.5.5-.9.7-.8.3-1.3.3c-.6 0-1.1-.1-1.5-.3s-.7-.4-.9-.8c-.2-.6-.4-1-.4-1.4z" fill-rule="nonzero"/><path d="m152.4 20.97c0-.9.2-1.5.7-1.9.4-.3.9-.5 1.5-.5s1.2.2 1.6.6.6 1 .6 1.8c0 .6-.1 1.1-.3 1.4s-.4.6-.8.8c-.3.2-.7.3-1.1.3-.7 0-1.2-.2-1.6-.6-.4-.5-.6-1.1-.6-1.9zm.8 0c0 .6.1 1.1.4 1.4s.6.4 1 .4.7-.2 1-.5.4-.8.4-1.4-.1-1-.4-1.3-.6-.4-1-.4-.7.1-1 .4c-.3.4-.4.8-.4 1.4z" fill-rule="nonzero"/><path d="m157.7 16.87h.8v6.5h-.8z" fill-rule="nonzero"/><path d="m159.4 20.97c0-.9.2-1.5.7-1.9.4-.3.9-.5 1.5-.5s1.2.2 1.6.6.6 1 .6 1.8c0 .6-.1 1.1-.3 1.4s-.4.6-.8.8c-.3.2-.7.3-1.1.3-.7 0-1.2-.2-1.6-.6-.4-.5-.6-1.1-.6-1.9zm.9 0c0 .6.1 1.1.4 1.4s.6.4 1 .4.7-.2 1-.5.4-.8.4-1.4-.1-1-.4-1.3-.6-.4-1-.4-.7.1-1 .4c-.3.4-.4.8-.4 1.4z" fill-rule="nonzero"/><path d="m166.5 22.67.1.7c-.2 0-.4.1-.6.1-.3 0-.5 0-.7-.1s-.3-.2-.3-.4c-.1-.1-.1-.5-.1-.9v-2.7h-.6v-.6h.6v-1.2l.8-.5v1.6h.8v.6h-.8v3.2c0 .1.1.1.1.2.1 0 .2.1.3.1.2-.1.3-.1.4-.1z" fill-rule="nonzero"/><path d="m167.3 23.47v-6.6h.8v2.3c.4-.4.8-.6 1.4-.6.3 0 .7.1.9.2s.4.3.6.6c.1.2.2.6.2 1.1v3h-.8v-3c0-.4-.1-.7-.3-.9s-.4-.3-.7-.3c-.2 0-.5.1-.7.2s-.4.3-.4.5c-.1.2-.1.5-.1.9v2.6z" fill-rule="nonzero"/><path d="m175.4 23.37v-.7c-.4.5-.9.8-1.5.8-.3 0-.5-.1-.8-.2-.2-.1-.4-.2-.5-.4s-.2-.4-.2-.6v-3.6h.8v3.4c.1.2.2.4.3.5.2.1.4.2.6.2s.5-.1.7-.2.4-.3.4-.5c.1-.2.1-.5.1-.9v-2.5h.8v4.7z" fill-rule="nonzero"/><path d="m177.4 23.37v-4.7h.7v.7c.2-.3.4-.6.5-.7.2-.1.3-.2.5-.2.3 0 .5.1.8.3l-.3.7c-.2-.1-.4-.2-.6-.2s-.3.1-.5.2c-.1.1-.2.3-.3.4-.1.3-.1.6-.1.9v2.5h-.7z" fill-rule="nonzero"/><path d="m180.4 23.47v-4.8h.7v.7c.3-.5.8-.8 1.5-.8.3 0 .5.1.8.2.2.1.4.2.5.4s.2.4.2.6v3.7h-.8v-2.9c0-.3 0-.6-.1-.7-.1-.2-.2-.3-.3-.4-.2-.1-.3-.1-.6-.1s-.6.1-.9.3c-.2.2-.4.6-.4 1.2v2.6z" fill-rule="nonzero"/><path d="m88.2.17h.6v29.5h-.6z"/><path d="m6.5 10.57h6.7l6.5 12.8h-5.9l-.9-2.2h-6.6l-1 2.1h-5.3zm5.1 7.9-2-4.5-2.1 4.5z" fill-rule="nonzero"/><path d="m21.1 10.57h5.4v12.8h-5.4zm5.4 6.1 4.6-6.1h6.6l-5.1 5.8 5.7 7h-6.8z" fill-rule="nonzero"/><path d="m40.4 16.47c-.5-.4-.7-1-.8-1.5v4.3h5.3c0 .7.2 1.2.5 1.6.4.3.8.5 1.5.5 1.1 0 2.3-.3 2.3-1.3 0-.2-.1-.4-.2-.6-.8-.9-6.9-1.5-8.6-3z" fill-rule="nonzero"/><path d="m39.5 20.97v2.4h3.1c-2-.5-2.8-1.4-3.1-2.4z" fill-rule="nonzero"/><path d="m39.5.57v13c.4-2.3 3-3.3 7.6-3.3 5.4 0 7.1 1.5 7.1 4.1h-5.2c0-.7-.3-1.2-.7-1.4-.4-.3-.9-.4-1.6-.4-1.1 0-1.7.4-1.7 1.1 0 .2.1.4.2.6.8.8 6.7 1.4 8.4 2.9.5.4 1 1.1 1 2.4 0 1.8-1.2 3.2-4.1 3.8h11.1c-3.7-.9-5.2-3.3-5.2-6.4 0-2.5 1-4.3 2.5-5.3 1.2-.9 2.8-1.4 6.1-1.4 6.2 0 8.5 2.9 8.5 6.7 0 2-.6 3.5-1.7 4.5-.9.8-2.1 1.5-3.6 1.9h14.1v-22.8h-42.8z" fill-rule="nonzero"/><path d="m68.2 16.97c0-2.6-1.3-3.8-3.1-3.8s-3.1 1.2-3.1 3.8 1.3 3.8 3.1 3.8 3.1-1.2 3.1-3.8z" fill-rule="nonzero"/></g></svg>