<?xml version="1.0" encoding="UTF-8" standalone="no"?><!DOCTYPE svg PUBLIC "-//W3C//DTD SVG 1.1//EN" "http://www.w3.org/Graphics/SVG/1.1/DTD/svg11.dtd"><svg width="100%" height="100%" viewBox="0 0 522 384" version="1.1" xmlns="http://www.w3.org/2000/svg" xmlns:xlink="http://www.w3.org/1999/xlink" xml:space="preserve" xmlns:serif="http://www.serif.com/" style="fill-rule:evenodd;clip-rule:evenodd;stroke-linejoin:round;stroke-miterlimit:2;"><rect x="0" y="0" width="520.849" height="383.76" style="fill:none;"/><g><clipPath id="_clip1"><rect x="0" y="0" width="520.849" height="383.76"/></clipPath><g clip-path="url(#_clip1)"><path d="M136.579,371.952l96.995,4.566c0,0 275.616,-96.762 270.635,-117.575c-4.981,-20.812 -105.483,-38.675 -105.483,-38.675l-262.147,151.684Z" style="fill:#9b9b9b;"/><path d="M114.461,176.165c0,0 0.993,-0.061 2.901,-0.366c0.803,-0.129 1.751,-0.275 2.841,-0.553c3.179,-0.81 7.49,-2.357 12.785,-4.058c46.207,-14.844 164.017,-53.318 164.017,-53.318c0.875,-0.279 1.358,-1.216 1.079,-2.09c-0.28,-0.874 -1.216,-1.357 -2.09,-1.078c0,0 -118.304,36.93 -164.562,51.614c-5.301,1.683 -9.71,2.921 -12.771,4.103c-1.049,0.405 -1.906,0.836 -2.635,1.196c-1.732,0.857 -2.576,1.383 -2.576,1.383c-0.874,0.279 -1.358,1.215 -1.078,2.089c0.279,0.875 1.215,1.358 2.089,1.078Z"/><path d="M115.846,181.711l181.882,-59.421l3.807,60.137l-179.947,60.624l-5.742,-61.34Z" style="fill:#9b9b9b;"/><path d="M115.32,180.134l0.01,-0.003c-0,-0 3.879,-1.73 10.678,-4.285c2.126,-0.799 4.552,-1.631 7.224,-2.534c45.91,-15.51 163.776,-53.227 163.776,-53.227c0.682,-0.223 1.429,-0.118 2.022,0.285c0.594,0.403 0.968,1.057 1.013,1.773l3.69,60.145c0.063,0.995 -0.55,1.908 -1.495,2.226l-180.076,60.241c-0.521,0.175 -1.093,0.103 -1.554,-0.197c-0.46,-0.299 -0.758,-0.792 -0.81,-1.339l-5.607,-61.353l-0.005,-0.05l-0.001,-0.028l-0,-0.017l-0.002,-0.037l0.001,-0.014c-0.001,-0.046 0.001,-0.092 0.005,-0.137l-0,-0.011l0.001,-0.011c0.005,-0.048 0.011,-0.096 0.02,-0.144l-0,-0.005l0.002,-0.005l0.007,-0.04l0.017,-0.066l0.011,-0.045l0.006,-0.018l0.007,-0.028l0.025,-0.065l0.013,-0.041l0.008,-0.017l0.011,-0.028l0.028,-0.059l0.019,-0.041l0.01,-0.019l0.013,-0.026l0.03,-0.049l0.026,-0.045l0.014,-0.021l0.013,-0.021l0.031,-0.041l0.034,-0.048l0.018,-0.021l0.013,-0.018l0.031,-0.033l0.042,-0.049l0.022,-0.021l0.013,-0.015l0.032,-0.028l0.049,-0.048l0.024,-0.018l0.013,-0.013l0.037,-0.027l0.054,-0.043l0.034,-0.022l0.004,-0.004l0.004,-0.002c0.04,-0.027 0.082,-0.052 0.125,-0.075l0.009,-0.006l0.01,-0.005c0.04,-0.021 0.081,-0.041 0.124,-0.058l0.013,-0.007l0.034,-0.013l0.009,-0.004l0.007,-0.002l0.026,-0.01l0.038,-0.013Zm180.29,-54.694c-18.182,6.057 -118.817,39.542 -160.773,52.786c-2.69,0.849 -5.139,1.609 -7.327,2.219c-4.716,1.316 -8.139,2.151 -9.87,2.555l5.52,57.62l176.068,-59.735l-3.618,-55.445Z"/><path d="M122.017,175.613l0.665,11.58l24.992,9.339l10.129,-7.579" style="fill:#fff;"/><path d="M147.406,194.345l9.401,-6.723c0.735,-0.55 1.778,-0.399 2.328,0.335c0.549,0.735 0.399,1.778 -0.335,2.328l-9.967,7.797c-0.527,0.395 -1.22,0.494 -1.837,0.263l-25.177,-8.844c-0.914,-0.342 -1.541,-1.191 -1.597,-2.166c0,0 -0.419,-5.88 -0.649,-9.258c-0.014,-0.203 -0.053,-0.396 -0.039,-0.579c0.018,-0.225 0.065,-0.409 0.135,-0.589c0.371,-0.948 0.688,-1.201 0.688,-1.201c-0.053,-0.916 0.648,-1.703 1.564,-1.755c0.916,-0.053 1.703,0.648 1.756,1.564c0,0 0.343,0.215 0.82,1.115c0.09,0.17 0.158,0.348 0.201,0.569c0.036,0.18 0.019,0.377 0.029,0.58c0.107,2.289 0.259,5.728 0.346,7.711l22.333,8.853Z"/><path d="M113.101,160.385l8.305,7.215c0,0 15.759,-1.892 20.651,2.082c4.891,3.973 14.369,15.962 15.8,18.916c1.431,2.955 -32.763,-7.222 -35.64,-9.38c-2.877,-2.158 3.506,19.325 3.506,19.325" style="fill:#fff;"/><path d="M153.906,186.592c-1.344,-1.829 -3.191,-4.147 -5.146,-6.46c-2.893,-3.422 -6.035,-6.823 -8.228,-8.573c-1.431,-1.145 -4.006,-1.537 -6.695,-1.756c-5.757,-0.468 -12.126,0.338 -12.126,0.338c-0.717,0.086 -1.438,-0.135 -1.983,-0.609c0,0 -3.573,-2.716 -5.785,-5.083c-0.431,-0.461 -0.739,-0.923 -1.024,-1.338c-0.619,-0.897 -0.909,-1.471 -0.909,-1.471c-0.692,-0.602 -0.766,-1.653 -0.164,-2.345c0.602,-0.693 1.653,-0.767 2.345,-0.165c0,0 0.609,0.207 1.584,0.694c0.45,0.224 0.951,0.465 1.467,0.827c1.86,1.303 3.983,3.245 5.086,4.29c2.263,-0.196 7.294,-0.523 11.945,-0.081c3.788,0.36 7.313,1.3 9.308,2.945c2.332,1.927 5.681,5.629 8.737,9.371c3.57,4.372 6.737,8.796 7.526,10.46c0.463,0.978 0.301,1.782 -0.113,2.426c-0.295,0.458 -0.833,0.99 -1.824,1.18c-0.687,0.131 -2.003,0.093 -3.759,-0.202c-7.361,-1.24 -24.256,-6.513 -30.689,-9.177c0.719,5.322 3.858,16.206 3.858,16.206c0.261,0.88 -0.241,1.806 -1.12,2.067c-0.88,0.262 -1.806,-0.24 -2.067,-1.12c0,0 -4.18,-13.688 -4.482,-18.351c-0.091,-1.399 0.286,-2.326 0.619,-2.718c0.347,-0.409 0.78,-0.627 1.261,-0.709c0.466,-0.08 1.096,-0.029 1.805,0.493c2.132,1.568 21.77,7.341 30.573,8.861Zm-32.737,-5.839l-0.067,-0.048c0.022,0.018 0.045,0.034 0.067,0.048Z"/><path d="M113.364,167.558c0,-0.039 0.108,-0.2 0.645,-0.766c0.069,-0.074 0.112,-0.09 0.225,-0.119c0.096,-0.025 0.206,0.017 0.32,0.032c1.075,0.141 2.751,0.514 4.175,1.465c1.582,1.057 2.982,2.664 3.144,5.247c0.099,1.707 -0.239,3.279 -0.89,4.636c-1.45,3.024 -4.096,4.955 -4.096,4.955c-0.716,0.574 -1.763,0.459 -2.338,-0.256c-0.574,-0.716 -0.459,-1.763 0.256,-2.338c0,0 1.349,-1.292 2.201,-3.187c0.428,-0.951 0.662,-2.083 0.447,-3.29c-0.112,-0.643 -0.486,-1.04 -0.876,-1.34c-0.462,-0.355 -1.036,-0.476 -1.526,-0.603c-0.523,-0.135 -1.043,-0.073 -1.299,-0.248c-0.924,-0.629 -0.296,-0.865 -0.296,-0.865c-0.917,0.014 -1.673,-0.72 -1.687,-1.638c-0.013,-0.903 0.698,-1.649 1.595,-1.685Z"/><path d="M300.145,97.648c21.401,-18.503 1.037,-73.831 43.171,-73.695c32.852,0.106 19.965,39.001 27.193,66.695c7.229,27.693 31.987,49.443 31.671,70.866c-0.316,21.423 -9.13,115.032 -9.13,115.032l-15.171,5.503" style="fill:#9b9b9b;"/><path d="M391.445,275.313c0.642,-7.072 4.303,-47.707 6.669,-79.397c1.12,-15.001 1.951,-27.992 2.027,-34.432c0.057,-4.751 -1.215,-9.509 -3.245,-14.357c-7.047,-16.823 -22.942,-34.613 -28.561,-55.912c-2.81,-10.652 -2.71,-22.947 -3.295,-34.105c-0.423,-8.059 -1.179,-15.5 -3.926,-21.127c-2.896,-5.932 -8.179,-9.572 -17.806,-9.579c-11.348,-0.013 -17.741,4.291 -21.554,10.943c-3.803,6.635 -5.175,15.383 -6.432,24.287c-1.298,9.191 -2.311,18.605 -5.506,26.211c-0.554,1.317 -1.169,2.583 -1.894,3.762c-1.779,2.894 -3.989,5.339 -6.69,7.299c-0.694,0.6 -1.745,0.524 -2.345,-0.17c-0.6,-0.695 -0.524,-1.745 0.17,-2.346c1.699,-1.75 2.929,-3.796 4.039,-5.991c0.719,-1.423 1.334,-2.92 1.918,-4.476c2.765,-7.37 3.983,-16.245 5.247,-25.011c1.381,-9.575 3.026,-18.946 7.144,-26.069c4.629,-8.004 12.234,-13.413 25.918,-13.341c12.062,0.069 18.503,4.943 22.094,12.393c2.958,6.137 3.869,14.213 4.284,22.982c0.515,10.859 0.302,22.825 2.983,33.203c5.451,21.11 21.176,38.758 28.059,55.448c2.231,5.409 3.568,10.727 3.475,16.016c-0.114,6.487 -1.021,19.568 -2.236,34.672c-2.801,34.843 -7.231,80.49 -7.231,80.49c-0.062,0.658 -0.497,1.221 -1.119,1.446l-15.186,5.46c-0.863,0.313 -1.817,-0.134 -2.13,-0.996c-0.313,-0.863 0.133,-1.817 0.996,-2.13l14.133,-5.173Z"/><path d="M317.132,41.368c-7.619,85.82 -19.226,41.571 -26.016,79.528c-9.753,54.525 -8.521,112.513 -8.521,112.513l95.284,48.64c0,0 13.209,-110.535 5.999,-127.293c-7.209,-16.758 -16.896,-28.807 -27.982,-57.516c-11.199,-29.002 5.702,-68.213 -22.972,-67.327c-15.44,0.476 -15.476,7.894 -15.792,11.455Z" style="fill:#fff;"/><path d="M315.475,41.221c-0.646,4.437 -1.337,8.493 -1.911,12.264c-0.442,2.901 -0.836,5.614 -1.202,8.156c-2.224,15.485 -4.177,24.314 -6.445,29.608c-2.687,6.272 -5.523,7.167 -8.133,9.091c-3.329,2.454 -6.671,6.116 -9.158,20.11c-3.416,19.242 -5.474,38.911 -6.699,56.334c-2.262,32.168 -1.698,56.676 -1.698,56.676c0.019,0.87 0.514,1.661 1.29,2.057l95.364,48.483c0.638,0.326 1.395,0.319 2.027,-0.018c0.632,-0.337 1.059,-0.962 1.144,-1.673c0,-0 6.037,-51.263 7.61,-89.319c0.755,-18.259 0.386,-33.535 -1.981,-39.01c-4.904,-11.342 -10.933,-20.53 -17.775,-34.163c-3.256,-6.488 -6.698,-13.994 -10.289,-23.243c-7.053,-18.165 -2.971,-40.387 -6.149,-54.11c-1.1,-4.749 -3.039,-8.546 -6.318,-11.035c-2.878,-2.184 -6.82,-3.398 -12.28,-3.219c-7.113,0.233 -11.183,1.915 -13.571,3.957c-3.422,2.927 -3.621,6.702 -3.826,9.054Zm60.598,237.44c1.359,-11.649 6.073,-53.524 7.525,-85.847c0.783,-17.439 0.718,-32.043 -1.525,-37.281c-4.834,-11.294 -10.802,-20.445 -17.554,-34.023c-3.278,-6.591 -6.74,-14.214 -10.347,-23.605c-7.055,-18.371 -2.947,-40.788 -6.107,-54.659c-0.882,-3.873 -2.339,-7.035 -5.004,-9.072c-2.352,-1.799 -5.609,-2.689 -10.084,-2.559c-5.994,0.174 -9.48,1.394 -11.498,3.108c-2.551,2.166 -2.533,5.044 -2.691,6.792c-0.088,3.055 -0.164,5.933 -0.308,8.672c-0.163,3.081 -0.354,5.962 -0.624,8.663c-1.162,11.611 -2.857,19.859 -4.404,25.856c-3.843,14.897 -8.117,16.642 -12.009,19.299c-3.01,2.055 -5.585,4.83 -7.836,17.336c-3.435,19.055 -5.518,38.536 -6.782,55.795c-2.008,27.406 -1.942,49.21 -1.884,54.818l91.132,46.707Z"/><path d="M287.787,186.848l14.274,-48.193l28.569,-22.023l27.672,16.258l4.96,6.236l-9.771,2.891l5.358,4.216l-8.793,2.852l7.01,5.984l-9.649,3.519l6.757,6.915" style="fill:#fff;"/><path d="M304.171,140.08c-1.201,4.191 -7.249,25.261 -11.059,37.861c-0.544,1.799 -0.988,3.445 -1.5,4.798c-0.346,0.91 -0.722,1.662 -1.039,2.313c-0.724,1.488 -1.192,2.268 -1.192,2.268c-0.261,0.88 -1.187,1.382 -2.067,1.122c-0.879,-0.261 -1.382,-1.187 -1.122,-2.067c0,-0 0.032,-0.908 0.235,-2.551c0.089,-0.719 0.183,-1.554 0.39,-2.506c0.306,-1.413 0.83,-3.035 1.354,-4.841c4.086,-14.087 11.569,-38.51 11.569,-38.51c0.145,-0.488 0.44,-0.918 0.843,-1.229l28.687,-21.87c0.72,-0.555 1.704,-0.617 2.488,-0.156l27.58,16.414c0.217,0.128 0.408,0.294 0.565,0.491l4.922,6.265c0.413,0.52 0.541,1.211 0.342,1.844c-0.2,0.634 -0.702,1.126 -1.338,1.315l-6.204,1.795l2.395,1.908c0.55,0.432 0.817,1.132 0.694,1.821c-0.123,0.689 -0.615,1.254 -1.281,1.47l-5.688,1.807l4.479,3.871c0.482,0.411 0.71,1.048 0.597,1.673c-0.113,0.624 -0.548,1.141 -1.144,1.358l-7.17,2.566l4.856,5.031c0.641,0.656 0.629,1.71 -0.027,2.351c-0.657,0.641 -1.71,0.629 -2.352,-0.027l-6.798,-6.874c-0.409,-0.418 -0.577,-1.015 -0.447,-1.585c0.129,-0.57 0.539,-1.035 1.088,-1.235l6.753,-2.509l-4.718,-3.979c-0.506,-0.432 -0.739,-1.104 -0.609,-1.757c0.13,-0.653 0.602,-1.185 1.236,-1.39l5.393,-1.786l-2.588,-2.011c-0.569,-0.448 -0.841,-1.175 -0.705,-1.886c0.137,-0.711 0.658,-1.287 1.352,-1.492l6.907,-2.09l-2.901,-3.602l-26.134,-15.157l-26.642,20.768Z"/><path d="M355.689,132.531c0,0 7.575,1.677 9.944,-1.708c2.37,-3.384 20.832,-34.309 16.891,-41.181c-3.941,-6.873 -8.318,-5.82 -10.014,-4.584c-1.696,1.236 -4.784,8.002 -9.186,7.12c-4.402,-0.883 -28.075,-3.194 -31.134,-6.99c-3.058,-3.796 4.871,-9.634 3.064,-11.65c-3.921,-4.375 -11.744,-1.905 -13.727,-2.306l-5.738,25.68" style="fill:#9b9b9b;"/><path d="M323,73.021l-5.588,24.254c-0.2,0.896 -1.09,1.46 -1.985,1.26c-0.896,-0.2 -1.46,-1.09 -1.26,-1.985l5.568,-25.718c0.218,-0.976 1.177,-1.598 2.156,-1.4c0.412,0.081 1.137,-0.05 2.044,-0.146c1.838,-0.196 4.214,-0.428 6.509,-0.109c2.331,0.323 4.563,1.215 6.248,3.072c0.707,0.777 0.939,1.768 0.657,2.964c-0.336,1.422 -1.872,3.455 -3.017,5.531c-0.312,0.565 -0.583,1.135 -0.74,1.697c-0.145,0.523 -0.192,1.039 0.169,1.481c0.286,0.351 0.888,0.603 1.643,0.912c1.566,0.64 3.724,1.208 6.146,1.728c8.207,1.763 19.33,2.882 22.21,3.441c0.966,0.188 1.76,-0.408 2.501,-1.075c1.183,-1.064 2.167,-2.498 2.984,-3.596c0.727,-0.975 1.392,-1.737 1.917,-2.124c1.361,-1.004 3.916,-1.965 6.912,-0.893c2.015,0.721 4.343,2.441 6.5,6.151c0.737,1.269 1.035,3.13 0.785,5.437c-0.289,2.662 -1.289,6.065 -2.718,9.751c-4.52,11.664 -13.307,26.349 -14.9,28.645c-1.165,1.674 -3.111,2.712 -5.304,3.019c-1,0.14 -2.042,0.188 -3.004,0.047c-2.337,-0.344 -4.103,-1.211 -4.103,-1.211c-0.896,-0.198 -1.462,-1.087 -1.264,-1.983c0.198,-0.896 1.087,-1.462 1.983,-1.264c0,0 1.55,-0.164 3.459,-0.384c0.668,-0.077 1.371,-0.161 2.055,-0.3c0.764,-0.155 1.549,-0.288 1.962,-0.876c1.37,-1.939 8.172,-13.122 12.832,-23.415c1.898,-4.194 3.453,-8.229 4.071,-11.401c0.312,-1.601 0.507,-2.899 0.046,-3.714c-1.092,-1.93 -2.184,-3.133 -3.263,-3.787c-1.435,-0.87 -2.719,-0.578 -3.353,-0.121c-0.461,0.331 -1.003,1.206 -1.719,2.14c-1.141,1.489 -2.528,3.133 -4.106,4.171c-1.553,1.021 -3.277,1.518 -5.145,1.132c-2.882,-0.596 -14.027,-1.855 -22.237,-3.728c-2.69,-0.613 -5.078,-1.296 -6.813,-2.032c-1.543,-0.655 -2.639,-1.411 -3.218,-2.139c-1.339,-1.685 -1.411,-3.606 -0.709,-5.582c0.619,-1.738 1.906,-3.537 2.878,-5.076c0.26,-0.412 0.545,-0.994 0.693,-1.31c-0.999,-0.934 -2.279,-1.362 -3.584,-1.561c-2.493,-0.38 -5.099,-0.05 -6.898,0.097Z"/><path d="M299.051,136.513c2.546,4.156 19.437,5.439 22.34,3.661c2.904,-1.779 4.321,-6.137 7.672,-7.242c3.351,-1.105 22.778,1.895 26.626,-0.401c3.848,-2.297 24.274,-43.721 18.722,-44.475c-5.552,-0.753 -8.064,9.436 -12.062,9.919c-3.999,0.483 -35.975,-4.153 -38.058,-10.834c-2.083,-6.681 4.207,-10.584 3.869,-12.131c-0.338,-1.546 -3.851,-4.184 -7.012,-3.739c-3.16,0.444 -7.068,4.034 -8.543,8.935c-1.476,4.901 -0.592,8.563 -2.664,13.403c-2.072,4.84 -4.939,5.531 -5.691,9.307c-0.752,3.776 -6.805,30.975 -5.199,33.597Z" style="fill:#fff;"/><path d="M297.633,137.381c0.693,1.543 2.704,3.041 5.492,4.186c1.17,0.48 2.494,0.846 3.878,1.14c4.164,0.883 8.866,0.99 11.927,0.679c1.748,-0.177 3.073,-0.582 3.799,-1.028c2.181,-1.341 3.658,-3.959 5.524,-5.882c0.471,-0.485 0.97,-0.92 1.606,-1.131c0.591,-0.197 1.818,-0.158 3.396,-0.118c4.775,0.121 12.116,0.802 17.258,0.653c2.938,-0.086 5.264,-0.533 6.436,-1.238c0.691,-0.414 1.905,-1.728 3.276,-3.838c4.373,-6.735 12.139,-22.504 15.59,-32.735c1.257,-3.725 1.922,-6.791 1.82,-8.581c-0.137,-2.384 -1.373,-3.484 -2.918,-3.688c-1.717,-0.227 -3.246,0.209 -4.63,1.108c-2.166,1.407 -3.949,4.166 -5.64,6.481c-0.474,0.65 -0.94,1.255 -1.426,1.733c-0.315,0.311 -0.586,0.609 -0.938,0.653c-2.244,0.279 -13.612,-1.148 -23.153,-3.596c-3.991,-1.024 -7.664,-2.223 -10.18,-3.594c-1.258,-0.686 -2.248,-1.272 -2.496,-2.056c-0.483,-1.528 -0.405,-2.869 -0.049,-4.03c0.662,-2.156 2.153,-3.757 2.958,-4.885c0.879,-1.23 1.111,-2.314 0.951,-3.031c-0.271,-1.218 -1.772,-3.084 -3.975,-4.224c-1.585,-0.82 -3.474,-1.293 -5.264,-1.034c-1.775,0.257 -3.767,1.268 -5.546,2.926c-1.945,1.813 -3.66,4.389 -4.554,7.405c-1.06,3.574 -0.914,6.497 -1.493,9.678c-0.206,1.128 -0.514,2.293 -1.044,3.546c-1.582,3.738 -3.677,4.947 -4.841,7.102c-0.402,0.745 -0.722,1.575 -0.918,2.581c-0.536,2.749 -3.809,17.847 -4.958,26.962c-0.305,2.413 -0.459,4.427 -0.397,5.732c0.049,1.015 0.267,1.732 0.509,2.124Zm28.338,-62.274c-0.089,-0.086 -0.194,-0.176 -0.301,-0.274c-0.507,-0.471 -1.195,-0.924 -1.96,-1.237c-0.723,-0.297 -1.518,-0.484 -2.288,-0.379c-1.384,0.188 -2.912,1.206 -4.236,2.676c-1.172,1.3 -2.172,2.968 -2.752,4.864c-1.044,3.415 -0.895,6.221 -1.475,9.262c-0.263,1.376 -0.655,2.795 -1.315,4.32c-1.68,3.878 -3.828,5.148 -5.059,7.382c-0.245,0.445 -0.44,0.944 -0.563,1.548c-0.431,2.12 -2.571,11.642 -4.075,20.027c-0.751,4.191 -1.347,8.091 -1.472,10.599c-0.042,0.851 -0.314,1.98 0.053,1.865c0.048,-0.015 -0.04,-0.083 -0.059,-0.116c0.269,0.327 0.773,0.44 1.319,0.665c0.82,0.337 1.831,0.511 2.952,0.739c0.841,0.171 1.738,0.312 2.665,0.47c0.89,0.151 1.801,0.329 2.722,0.453c2.759,0.369 5.557,0.495 7.677,0.358c1.03,-0.067 1.852,-0.097 2.249,-0.34c0.915,-0.558 1.606,-1.478 2.319,-2.392c1.012,-1.298 2.025,-2.621 3.234,-3.599c0.797,-0.645 1.673,-1.156 2.661,-1.479c0.898,-0.293 2.744,-0.421 5.132,-0.345c4.7,0.148 11.922,0.873 16.986,0.756c1.78,-0.041 3.236,-0.075 3.986,-0.481c0.117,-0.139 1.069,-1.28 1.758,-2.325c2.028,-3.077 4.81,-8.122 7.538,-13.625c3.791,-7.647 7.491,-16.175 8.883,-21.544c0.222,-0.855 0.352,-1.794 0.423,-2.473c-0.228,0.099 -0.445,0.233 -0.656,0.386c-0.76,0.553 -1.435,1.34 -2.086,2.181c-1.762,2.276 -3.373,4.873 -5.103,6.103c-0.804,0.572 -1.644,0.921 -2.514,1.023c-2.726,0.318 -18.046,-1.634 -28.745,-5.041c-3.385,-1.078 -6.315,-2.307 -8.299,-3.622c-1.761,-1.166 -2.849,-2.479 -3.242,-3.759c-0.755,-2.457 -0.594,-4.606 -0.007,-6.463c0.789,-2.499 2.934,-5.295 3.65,-6.183Z"/><path d="M314.039,108.694c1.225,4.309 32.08,14.051 37.725,11.701c5.644,-2.349 12.1,-9.284 8.852,-11.676c-3.247,-2.392 -37.816,-12.362 -41.733,-10.394c-3.917,1.968 -5.546,7.9 -4.844,10.369Z" style="fill:#808080;"/><g><clipPath id="_clip2"><path d="M314.039,108.694c1.225,4.309 32.08,14.051 37.725,11.701c5.644,-2.349 12.1,-9.284 8.852,-11.676c-3.247,-2.392 -37.816,-12.362 -41.733,-10.394c-3.917,1.968 -5.546,7.9 -4.844,10.369Z"/></clipPath><g clip-path="url(#_clip2)"><path d="M326.71,98.802c0,0 -7.794,4.096 -5.218,7.811c2.577,3.715 35.272,10.689 35.272,10.689l9.748,-11.181l-39.802,-7.319Z" style="fill:#fff;"/><path d="M327.01,97.167c-0.366,-0.067 -0.744,-0.01 -1.074,0.163c0,0 -0.687,0.088 -1.782,0.436c-0.519,0.165 -1.066,0.401 -1.634,0.748c-1.068,0.653 -2.018,1.688 -2.758,2.702c-1.552,2.126 -1.983,4.55 -0.37,6.854c0.432,0.617 1.328,1.39 2.717,2.098c1.951,0.994 5.118,2.105 8.782,3.186c10.572,3.121 25.406,6.137 25.406,6.137c0.795,0.17 1.62,-0.105 2.155,-0.718l9.639,-11.275c0.494,-0.568 0.646,-1.357 0.398,-2.067c-0.248,-0.711 -0.858,-1.234 -1.599,-1.37l-39.88,-6.894Zm0.248,3.436c-0.238,0.335 -0.66,0.895 -1.239,1.534c-0.21,0.233 -0.439,0.464 -0.689,0.695c-0.484,0.446 -1.021,0.889 -1.401,1.408c-0.2,0.273 -0.498,0.532 -0.386,0.821c0.019,0.025 0.035,0.074 0.05,0.095c-0.022,-0.032 -0.039,-0.063 -0.05,-0.095c-0.01,-0.014 -0.021,-0.019 -0.034,-0.007c-0.284,0.275 0.816,0.547 1.508,0.875c2.462,1.167 6.469,2.474 10.815,3.735c7.896,2.293 16.883,4.41 20.139,5.159l6.535,-7.349l-35.248,-6.871Z"/></g></g><path d="M312.44,109.149c-0.017,0.78 0.532,1.618 1.436,2.786c0.291,0.376 0.654,0.731 1.112,1.087c2.497,1.944 7.257,3.682 12.357,5.407c6.707,2.267 14.3,4.108 19.38,4.572c2.666,0.243 4.752,0.06 5.938,-0.446c3.796,-1.619 7.9,-5.107 9.779,-8.205c1.848,-3.049 1.649,-5.828 -0.523,-7.399c-1.93,-1.394 -14.42,-5.361 -25.545,-8.015c-5.454,-1.3 -10.567,-2.305 -13.892,-2.583c-2.134,-0.179 -3.675,0.007 -4.399,0.38c-2.131,1.097 -3.73,3.137 -4.702,5.356c-1.152,2.63 -1.412,5.464 -0.941,7.06Zm46.832,1.309c-1.917,-1.367 -13.532,-5.066 -23.84,-7.735c-5.213,-1.35 -10.1,-2.425 -13.288,-2.755c-1.188,-0.123 -2.053,-0.251 -2.461,-0.051c-1.444,0.707 -2.48,2.11 -3.161,3.585c-0.811,1.758 -1.178,3.639 -0.886,4.727c0,-0.05 0.15,-0.152 0.113,-0.107c-0.11,0.133 0.356,0.024 0.573,0.13c0.293,0.143 0.646,0.186 1.025,0.365c0.485,0.229 1.013,0.515 1.606,0.814c4.154,2.099 11.04,4.762 17.579,6.577c3.949,1.096 7.744,1.937 10.666,2.253c1.639,0.177 2.931,0.273 3.667,-0.026c1.671,-0.678 3.423,-1.809 4.915,-3.092c1.418,-1.218 2.62,-2.554 3.211,-3.785c0.108,-0.225 0.197,-0.441 0.246,-0.65c0.017,-0.075 0.03,-0.193 0.035,-0.25Z"/><path d="M219.769,197.423c0,0 0.295,-0.723 -0.966,-0.064c-0.214,0.112 -0.315,0.485 -0.509,0.846c-1.705,3.159 -5.511,11.47 -5.511,11.47c-0.454,0.797 -0.176,1.813 0.621,2.268c0.797,0.454 1.814,0.176 2.268,-0.621c0,0 5.214,-7.508 7.064,-10.584c0.211,-0.351 0.482,-0.628 0.469,-0.869c-0.075,-1.421 -0.547,-0.799 -0.547,-0.799c0.454,-0.798 0.176,-1.814 -0.621,-2.268c-0.797,-0.455 -1.813,-0.177 -2.268,0.621Z"/><path d="M204.04,155.027c3.177,-2.59 13.075,-6.447 17.554,-6.114l6.667,2.167l-12.443,21.352l12.804,10.493l15.334,-18.522l5.118,-0.781c0,-0 10.98,14.367 -1.535,27.538c-7.902,8.317 -21.749,6.895 -21.749,6.895" style="fill:#9b9b9b;"/><path d="M221.137,151.439c-1.586,-0.039 -3.828,0.509 -6.145,1.241c-2.065,0.652 -4.121,1.612 -5.971,2.327c-0.867,0.335 -1.681,0.539 -2.403,0.799c-0.591,0.212 -1.101,0.307 -1.527,0.509c-0.711,0.58 -1.759,0.474 -2.339,-0.238c-0.58,-0.711 -0.473,-1.759 0.238,-2.339c0.699,-0.87 1.721,-1.876 3.136,-2.877c0.423,-0.299 0.896,-0.556 1.392,-0.807c0.686,-0.349 1.435,-0.635 2.191,-0.938c4.286,-1.714 9.202,-2.963 12.073,-2.74c0.204,0.015 0.404,0.054 0.598,0.117l6.656,2.202c0.721,0.234 1.298,0.782 1.568,1.491c0.27,0.709 0.206,1.501 -0.176,2.157l-11.553,19.558l9.462,7.858l14.006,-16.69c0.328,-0.396 0.789,-0.657 1.297,-0.735l5.124,-0.743c0.742,-0.114 1.487,0.187 1.943,0.783c0,0 5.105,6.75 4.756,15.421c-0.185,4.574 -1.841,9.7 -6.593,14.629c-3.154,3.271 -7.143,5.151 -10.953,6.186c-6.433,1.747 -12.297,1.099 -12.297,1.099c-0.913,-0.094 -1.578,-0.911 -1.484,-1.824c0.093,-0.913 0.911,-1.578 1.823,-1.484c0,0 5.269,0.491 11.016,-1.16c3.219,-0.926 6.6,-2.532 9.234,-5.345c3.895,-4.16 5.267,-8.42 5.365,-12.23c0.139,-5.417 -2.252,-9.902 -3.458,-11.809l-3.043,0.487l-14.715,18.018c-0.791,0.955 -2.205,1.092 -3.164,0.306l-12.873,-10.409c-0.897,-0.735 -1.128,-2.014 -0.543,-3.016l10.76,-18.719l-3.401,-1.085Z"/><path d="M182.561,220.68l20.343,-32.543c0,0 -9.847,-10.895 -4.067,-25.762c5.78,-14.866 23.451,-11.283 23.451,-11.283l-14.418,22.26l17.166,13.905l18.92,-22.854c0,0 11.524,12.521 -2.312,26.09c-10.823,10.614 -24.576,7.273 -24.576,7.273l-9.266,14.798" style="fill:#fff;"/><path d="M199.818,188.257c-1.513,-2.148 -4.008,-6.395 -4.915,-12.05c-0.677,-4.217 -0.487,-9.221 1.67,-14.712c2.398,-6.096 6.553,-9.445 10.878,-11.238c7.388,-3.063 15.297,-1.435 15.297,-1.435c0.751,0.152 1.378,0.666 1.675,1.373c0.297,0.706 0.226,1.514 -0.191,2.157l-13.424,20.545l13.945,11.387l17.67,-21.15c0.366,-0.442 0.906,-0.705 1.481,-0.72c0.574,-0.015 1.127,0.219 1.516,0.642c0,0 5.79,6.32 4.869,15.035c-0.439,4.16 -2.378,8.905 -7.342,13.73c-3.942,3.831 -8.235,5.946 -12.189,7.064c-5.659,1.6 -10.62,1.157 -12.849,0.809l-8.698,13.753c-0.487,0.777 -1.514,1.013 -2.292,0.526c-0.777,-0.487 -1.013,-1.513 -0.526,-2.291l9.199,-14.84c0.398,-0.635 1.158,-0.945 1.887,-0.768c0,0 5.593,1.307 12.284,-0.649c3.441,-1.007 7.17,-2.886 10.579,-6.26c4.106,-4.063 5.781,-7.987 6.116,-11.461c0.425,-4.392 -1.271,-8.005 -2.578,-10.071l-17.209,20.977c-0.742,0.897 -2.067,1.029 -2.971,0.296l-17.222,-13.836c-0.878,-0.712 -1.079,-1.971 -0.464,-2.92l12.268,-19.107c-2.427,-0.045 -5.777,0.227 -8.996,1.592c-3.276,1.389 -6.398,3.973 -8.184,8.621c-1.749,4.544 -1.894,8.673 -1.312,12.15c1.13,6.758 4.984,11.041 4.984,11.041c0.756,0.835 0.865,2.071 0.268,3.026c-0,0 -9.992,16.761 -16.249,26.051c-0.457,0.679 -0.914,1.299 -1.355,1.868c-2.031,2.612 -3.467,4.169 -3.467,4.169c-0.486,0.778 -1.513,1.015 -2.291,0.528c-0.778,-0.486 -1.015,-1.513 -0.529,-2.291c-0,-0 0.771,-1.973 2.23,-4.942c0.317,-0.647 0.675,-1.329 1.085,-2.037c4.6,-7.947 12.613,-20.35 15.352,-24.562Z"/><path d="M133.172,208.133l-1.297,-55.934l10.729,-0.22l-1.77,65.974l-7.662,-9.82Z" style="fill:#fff;"/><path d="M131.513,208.247l-0.003,-0.075c0,0 -0.467,-1.146 -0.843,-3.339c-0.113,-0.657 -0.163,-1.406 -0.208,-2.233c-0.784,-14.149 -0.897,-50.348 -0.897,-50.348c-0.015,-0.615 0.216,-1.21 0.641,-1.654c0.426,-0.444 1.01,-0.701 1.625,-0.713l10.73,-0.147c0.613,-0.013 1.204,0.226 1.636,0.661c0.432,0.435 0.668,1.027 0.651,1.64l-2.254,65.961c-0.02,0.742 -0.503,1.39 -1.207,1.622c-0.705,0.232 -1.479,-0.003 -1.935,-0.588l-7.588,-9.878l-0.045,-0.06l-0.001,-0.002l0,-0.001c-0.03,-0.041 -0.057,-0.084 -0.082,-0.128l-0.006,-0.009c-0.025,-0.044 -0.047,-0.088 -0.067,-0.133l-0.005,-0.008l-0.002,-0.005c-0.017,-0.039 -0.033,-0.078 -0.046,-0.118c-0.015,-0.04 -0.028,-0.08 -0.039,-0.121l-0.002,-0.006l-0.002,-0.008c-0.012,-0.048 -0.023,-0.096 -0.031,-0.146l-0.001,-0.003l-0.001,-0.007c-0.008,-0.05 -0.014,-0.101 -0.017,-0.152l-0.001,-0.001l-0,-0.001Zm3.44,-0.544l4.22,5.325l1.144,-58.744l-6.032,0.164c0.34,8.183 1.449,36.016 1.341,48.032c-0.008,0.828 -0.022,1.579 -0.104,2.241c-0.183,1.465 -0.426,2.471 -0.569,2.982Z"/><path d="M137.211,154.766c1.709,0.252 4.008,0.029 6.344,-0.525c0.88,-0.208 1.744,-0.503 2.569,-0.808c3.14,-1.163 5.659,-2.576 5.659,-2.576c1.077,-0.556 1.62,-1.788 1.304,-2.958c0,0 -0.639,-2.353 -1.063,-4.621c-0.194,-1.038 -0.356,-2.053 -0.341,-2.746c0.023,-1.053 0.298,-2.535 0.694,-3.991c0.384,-1.408 0.875,-2.797 1.424,-3.715c0.866,-1.452 4.433,-9.068 7.311,-20.309c1.554,-6.069 2.914,-13.206 3.548,-20.994c0.934,-11.528 -0.294,-21.049 -3.481,-27.617c-3.329,-6.863 -8.721,-10.71 -16.044,-10.713c-3.544,-0.002 -7.051,1.62 -10.25,4.616c-3.251,3.044 -6.225,7.532 -8.626,12.951c-4.58,10.334 -7.127,24.08 -5.846,37.2c0.623,6.383 1.308,11.255 1.981,15.017c1.197,6.704 2.354,9.935 3.05,11.9c0.343,0.969 0.608,1.488 0.54,2.111c-0.072,0.66 -0.772,1.002 -1.396,1.445c-1.149,0.815 -2.393,1.616 -3.139,2.59c-0.618,0.808 -0.97,1.72 -0.922,2.791c0.08,1.798 1.908,4.769 5.192,7.127c2.931,2.106 6.963,3.806 11.492,3.825Zm10.378,-7.654c-0.201,-0.861 -0.426,-1.889 -0.611,-2.901c-0.263,-1.434 -0.437,-2.842 -0.413,-3.801c0.036,-1.376 0.366,-3.319 0.893,-5.22c0.526,-1.897 1.246,-3.746 1.992,-4.98c0.818,-1.35 4.122,-8.462 6.883,-18.934c1.536,-5.825 2.9,-12.676 3.567,-20.159c0.939,-10.51 0.03,-19.223 -2.828,-25.24c-2.467,-5.193 -6.437,-8.228 -11.958,-8.276c-2.531,-0.022 -4.981,1.258 -7.285,3.379c-2.919,2.687 -5.557,6.691 -7.739,11.498c-4.417,9.733 -6.932,22.709 -5.836,35.125c0.553,6.262 1.179,11.043 1.804,14.737c1.081,6.387 2.148,9.473 2.793,11.348c0.578,1.681 0.819,2.628 0.691,3.706c-0.116,0.978 -0.564,1.826 -1.261,2.569c-0.813,0.869 -2.03,1.589 -3.089,2.359c-0.556,0.404 -1.191,0.713 -1.169,1.352c0.016,0.451 0.327,0.995 0.764,1.608c0.912,1.282 2.435,2.68 4.37,3.822c2.234,1.318 5.016,2.296 8.083,2.337c1.04,-0.141 2.211,-0.718 3.524,-1.27c1.143,-0.48 2.31,-1.038 3.438,-1.54c1.275,-0.567 2.466,-1.103 3.387,-1.519Z"/><path d="M46.221,87.177c-1.22,-0.528 -1.828,-1.478 -1.812,-2.817c0.012,-1.083 0.813,-2.91 2.353,-4.749c1.707,-2.037 4.218,-4.281 6.435,-5.619c1.694,-1.021 3.29,-1.509 4.404,-1.403c0.803,0.077 1.969,0.458 3.327,1.208c2.466,1.361 5.832,3.939 8.933,7.14c3.426,3.535 6.53,7.812 7.835,11.969c0.288,0.871 -0.186,1.812 -1.057,2.1c-0.871,0.288 -1.812,-0.185 -2.1,-1.057c-1.268,-3.653 -4.185,-7.331 -7.317,-10.377c-2.433,-2.367 -5.015,-4.34 -7.122,-5.6c-1.209,-0.722 -2.192,-1.221 -2.83,-1.263c-0.199,-0.013 -0.422,0.118 -0.69,0.237c-0.571,0.254 -1.194,0.65 -1.84,1.118c-1.95,1.413 -4.416,4.547 -5.379,5.821c0.762,0.657 1.681,1.632 2.648,2.889c2.828,3.673 6.669,9.884 9.203,15.078c1.276,2.616 2.359,4.97 2.606,6.708c0.05,0.352 0.09,0.673 0.051,0.974c-0.083,0.629 -0.08,1.104 -0.313,1.501c-0.464,0.789 -0.521,1.446 -1.143,1.652c-0.234,0.077 -0.326,0.306 -0.573,0.317c-0.801,0.448 -1.815,0.161 -2.263,-0.639c-0.421,-0.752 -0.194,-1.692 0.498,-2.174c-0.177,0.046 -0.421,-0.003 -0.424,0.189c-0.001,0.059 -0.146,0.028 -0.138,0.092c0.012,0.09 -0.395,0.024 -0.284,-0.02c0.1,-0.041 -0.182,-0.122 -0.226,-0.242c-0.095,-0.259 -0.212,-0.549 -0.32,-0.889c-1.439,-4.516 -6.126,-13.567 -9.745,-18.782c-0.811,-1.169 -1.545,-2.147 -2.16,-2.817c-0.207,-0.226 -0.52,-0.512 -0.557,-0.545Z"/><path d="M4.138,118.103c0.022,0.098 0.23,0.959 0.511,1.584c0.72,1.597 1.99,3.601 3.54,5.816c4.346,6.21 10.863,13.93 14.697,19.029c1.716,2.287 5.123,5.212 9.084,8.277c6.536,5.058 14.693,10.241 19.7,13.693c0.729,0.503 1.396,0.96 1.944,1.426c1.79,1.522 2.631,2.583 2.631,2.583c0.78,0.484 1.021,1.51 0.537,2.29c-0.483,0.78 -1.509,1.02 -2.289,0.537c0,-0 -0.757,-0.203 -2.115,-0.736c-0.587,-0.23 -1.259,-0.501 -2.016,-0.886c-0.483,-0.246 -0.978,-0.552 -1.505,-0.879c-3.498,-2.166 -8.208,-5.43 -12.95,-8.844c-7.08,-5.098 -14.084,-10.736 -16.904,-14.58c-4.418,-6.033 -12.431,-15.685 -16.479,-22.322c-1.368,-2.243 -2.299,-4.195 -2.626,-5.622c-0.223,-0.973 -0.206,-1.797 -0.026,-2.446c0.636,-2.287 2.371,-4.614 4.495,-6.339c2.447,-1.987 5.371,-3.119 7.495,-2.889c0.949,0.104 2.298,0.784 3.819,2.156c4.222,3.813 11.332,13.477 19.462,20.357c9.308,7.877 18.792,14.256 23.367,16.482c0.421,0.205 0.865,0.473 1.2,0.64c0.204,-0.139 0.442,-0.232 0.703,-0.266c0.91,-0.121 1.746,0.52 1.866,1.43c0.097,0.694 -0.134,1.2 -0.47,1.578c-0.314,0.353 -0.833,0.671 -1.644,0.654c-0.591,-0.012 -1.671,-0.319 -3.109,-0.993c-4.747,-2.228 -14.63,-8.638 -24.338,-16.619c-2.448,-2.012 -4.812,-4.267 -7.041,-6.547c-4.79,-4.9 -8.94,-9.922 -11.93,-12.804c-0.651,-0.628 -1.237,-1.144 -1.757,-1.512c-0.205,-0.146 -0.523,-0.308 -0.609,-0.351c-1.256,-0.091 -2.854,0.835 -4.271,2.016c-1.364,1.137 -2.555,2.599 -2.972,4.087Zm55.7,29.388c0.251,0.114 0.416,0.145 0.421,0.001c0.009,-0.248 -0.197,-0.165 -0.421,-0.001Z"/><path d="M173.986,198.568l28.312,-12.827l-7.054,12.746l-24.523,13.299" style="fill:#fff;"/><path d="M196.973,190.857c-5.927,2.854 -14.572,6.951 -19.09,8.781c-0.428,0.174 -0.813,0.344 -1.179,0.409c-1.373,0.243 -2.032,0.036 -2.032,0.036c-0.835,0.379 -1.821,0.007 -2.2,-0.828c-0.379,-0.836 -0.008,-1.822 0.828,-2.201c0,0 0.278,-0.632 1.366,-1.503c0.291,-0.233 0.673,-0.41 1.086,-0.618c7.033,-3.536 25.606,-11.267 25.606,-11.267c0.894,-0.405 1.948,-0.192 2.614,0.53c0.666,0.721 0.795,1.789 0.319,2.648l-7.228,12.65c-0.192,0.347 -0.479,0.631 -0.828,0.82l-24.721,12.934c-0.807,0.437 -1.817,0.137 -2.255,-0.669c-0.437,-0.807 -0.137,-1.817 0.669,-2.255l23.769,-13.353l3.276,-6.114Z"/><path d="M190.211,148.927c0,0 12.339,-3.562 12.873,-3.63c0.534,-0.067 10.198,-17.873 10.198,-17.873l-5.488,-6.958" style="fill:#808080;"/><path d="M211.023,127.559l-4.534,-6.063c-0.569,-0.721 -0.445,-1.767 0.276,-2.335c0.72,-0.568 1.766,-0.445 2.335,0.276l5.666,6.817c0.468,0.593 0.537,1.408 0.177,2.072c0,0 -6.107,11.932 -8.703,16.482c-0.515,0.902 -0.926,1.544 -1.147,1.834c-0.671,0.882 -1.446,0.983 -1.708,1.022c-0.414,0.059 -7.995,3.031 -11.183,3.345c-0.165,0.016 -0.29,-0.009 -0.429,-0.043c-0.915,-0.223 -1.1,-0.441 -1.1,-0.441c-0.882,0.254 -1.804,-0.255 -2.059,-1.136c-0.254,-0.882 0.255,-1.804 1.136,-2.059c0,0 0.042,-0.284 0.699,-0.96c0.1,-0.103 0.193,-0.19 0.342,-0.265c2.47,-1.231 8.524,-2.519 10.965,-2.99c0.147,-0.215 0.318,-0.47 0.477,-0.721c2.27,-3.577 7.102,-11.912 8.79,-14.835Z"/><path d="M235.916,165.065l11.369,-2.614c0,0 2.652,-14.524 -0.962,-22.208c-3.613,-7.684 -9.024,-18.985 -9.024,-18.985c0,0 9.271,5.495 15.805,17.952c6.535,12.458 7.215,17.915 7.215,17.915c0,0 -0.365,-31.631 -21.445,-51.124c-21.08,-19.494 -51.029,-15.26 -54.527,-17.575c-3.497,-2.315 0.106,-4.134 -2.307,-6.021c-2.412,-1.886 -34.295,-7.529 -34.295,-7.529l-9.058,6.901l-9.894,27.781c0,0 19.003,-2.644 24.525,9.428c5.521,12.072 0.338,12.024 3.056,16.499c2.719,4.475 30.73,14.733 32.932,14.258c2.202,-0.475 12.741,-24.527 16.35,-24.664c3.609,-0.137 13.615,4.01 17.796,11.756c4.181,7.745 12.464,28.23 12.464,28.23Z" style="fill:#fff;"/><path d="M205.92,126.864c-0.241,0.246 -1.563,1.615 -2.473,2.971c-3.481,5.187 -7.991,14.393 -10.674,18.642c-0.653,1.033 -1.227,1.806 -1.666,2.246c-0.528,0.53 -1.04,0.758 -1.409,0.838c-0.408,0.089 -1.472,0.031 -2.991,-0.354c-3.82,-0.969 -11.725,-3.755 -18.662,-6.749c-4.302,-1.856 -8.231,-3.801 -10.634,-5.437c-1.343,-0.915 -2.258,-1.802 -2.7,-2.526c-1.348,-2.207 -1.264,-3.593 -0.983,-5.274c0.204,-1.219 0.575,-2.674 -0.032,-5.359c-0.355,-1.569 -1.024,-3.526 -2.185,-6.05c-1.487,-3.23 -4.109,-5.217 -6.992,-6.456c-6.95,-2.987 -15.443,-1.764 -15.443,-1.764c-0.711,0.099 -1.422,-0.181 -1.876,-0.737c-0.453,-0.557 -0.583,-1.31 -0.342,-1.986l9.828,-27.804c0.138,-0.388 0.386,-0.728 0.714,-0.977l9.043,-6.921c0.477,-0.364 1.085,-0.511 1.676,-0.407c-0,0 14.067,2.46 24.257,4.668c3.456,0.748 6.473,1.472 8.38,2.062c1.356,0.421 2.266,0.862 2.654,1.165c0.931,0.725 1.363,1.481 1.583,2.206c0.208,0.685 0.21,1.373 0.108,2.073c-0.051,0.353 -0.213,0.707 -0.151,1.086c0.032,0.194 0.253,0.297 0.572,0.502c0.066,0.017 0.674,0.176 1.158,0.244c1.183,0.165 2.79,0.265 4.728,0.386c6.757,0.42 17.314,1.054 28.21,4.848c7.126,2.481 14.388,6.307 20.86,12.267c7.807,7.189 12.901,15.974 16.21,24.316c5.943,14.987 6.105,28.514 6.105,28.514c0.016,1.313 -0.997,2.409 -2.307,2.497c-1.309,0.089 -2.46,-0.86 -2.623,-2.163c-0,0 -0.3,-2.121 -2.157,-6.774c-1.055,-2.642 -2.592,-6.048 -4.823,-10.282c-1.792,-3.403 -3.799,-6.258 -5.749,-8.599l3.514,7.374c1.284,2.724 1.896,6.215 2.085,9.716c0.193,3.596 -0.005,7.199 -0.326,9.847c-0.307,2.525 -0.695,4.181 -0.695,4.181c-0.177,0.97 -0.914,1.741 -1.874,1.961l-11.549,1.83c-0.797,0.183 -1.608,-0.239 -1.914,-0.997c-0,0 -3.576,-8.781 -7.218,-17.001c-1.894,-4.274 -3.805,-8.396 -5.233,-11.028c-1.651,-3.04 -4.291,-5.461 -7.018,-7.244c-3.464,-2.264 -7.064,-3.536 -8.986,-3.551Zm-57.63,-49.706l-7.817,5.93l-8.687,24.209c3.52,-0.098 9.287,0.166 14.332,2.363c3.743,1.63 7.092,4.286 9.007,8.5c1.296,2.853 2.026,5.07 2.417,6.842c0.598,2.705 0.447,4.453 0.224,5.841c-0.21,1.3 -0.644,2.116 0.272,3.632c0.364,0.602 1.366,1.265 2.69,2.071c2.266,1.377 5.432,2.915 8.841,4.405c6.713,2.936 14.363,5.685 18.064,6.642c0.359,0.093 0.75,0.172 1.041,0.226c0.39,-0.534 1.218,-1.696 1.872,-2.805c2.661,-4.506 6.475,-11.984 9.568,-16.677c1.247,-1.891 2.411,-3.355 3.348,-4.122c0.78,-0.639 1.525,-0.902 2.127,-0.924c2.275,-0.081 6.894,1.299 11.253,4.178c3.179,2.101 6.224,4.975 8.138,8.541c1.448,2.698 3.386,6.921 5.302,11.302c2.751,6.289 5.462,12.905 6.607,15.724l8.133,-2.47c0.069,-0.634 0.153,-1.453 0.241,-2.402c0.225,-2.435 0.493,-5.73 0.322,-9.026c-0.145,-2.806 -0.561,-5.618 -1.586,-7.802l-8.998,-18.977c-0.485,-1.013 -0.25,-2.223 0.578,-2.981c0.828,-0.757 2.054,-0.884 3.019,-0.312c0,-0 4.54,2.67 9.617,8.528c1.951,2.251 3.987,4.979 5.872,8.211c-0.55,-1.773 -1.181,-3.597 -1.906,-5.445c-3.036,-7.747 -7.7,-15.929 -14.91,-22.625c-5.941,-5.517 -12.626,-9.057 -19.183,-11.372c-12.553,-4.431 -24.665,-4.425 -30.536,-4.984c-2.211,-0.21 -3.729,-0.614 -4.44,-1.087c-1.249,-0.831 -1.879,-1.666 -2.225,-2.425c-0.418,-0.919 -0.461,-1.794 -0.349,-2.65c0.034,-0.259 0.083,-0.514 0.128,-0.767c0.012,-0.069 0.025,-0.174 0.035,-0.256c-0.221,-0.087 -1.113,-0.43 -1.897,-0.659c-2.512,-0.734 -6.495,-1.641 -10.785,-2.544c-7.921,-1.668 -16.88,-3.316 -19.729,-3.833Z"/><path d="M260.056,155.484c0,0 0.866,-0.162 -0.515,-0.8c-0.198,-0.091 -0.52,0.05 -0.883,0.118c-3.187,0.597 -11.165,2.698 -11.165,2.698c-0.906,0.146 -1.524,0.999 -1.378,1.905c0.145,0.906 0.999,1.524 1.905,1.378c0,-0 8.235,-0.501 11.448,-0.931c0.366,-0.049 0.716,-0.015 0.876,-0.164c1.112,-1.038 0.238,-0.921 0.238,-0.921c0.907,-0.145 1.524,-0.999 1.379,-1.905c-0.146,-0.906 -0.999,-1.524 -1.905,-1.378Z"/><path d="M160.593,86.795c-0.168,-0.078 -0.466,-0.211 -0.722,-0.295c-1.623,-0.534 -4.291,-1.023 -7.184,-1.454c-6.511,-0.968 -14.128,-1.611 -14.128,-1.611c-0.915,-0.071 -1.6,-0.871 -1.53,-1.785c0.071,-0.915 0.871,-1.601 1.786,-1.53c0,0 12.297,0.863 19.186,2.194c1.774,0.343 3.215,0.736 4.086,1.13c0.886,0.401 1.383,0.934 1.612,1.358c0.416,0.769 0.838,1.805 1.214,2.854c0.442,1.236 0.821,2.491 1.055,3.302c1.219,0.529 3.69,1.551 6.052,2.239c1.543,0.45 3.01,0.853 3.86,0.601c2.286,-0.675 3.256,-2.118 5.075,-3.088c0.539,-0.287 1.132,-0.543 1.81,-0.757c0.552,-0.175 1.581,-0.197 2.985,0.161c3.117,0.797 9.178,3.473 15.996,7.125c8.221,4.403 17.561,10.226 24.141,15.746c4.693,3.939 9.03,10.836 12.646,18.299c4.229,8.73 7.652,18.169 9.41,24.243c0.266,0.919 0.52,1.755 0.647,2.518c0.419,2.524 0.302,3.979 0.302,3.979c0.236,0.887 -0.293,1.798 -1.18,2.034c-0.887,0.236 -1.798,-0.293 -2.034,-1.18c0,0 -0.813,-1.15 -1.816,-3.422c-0.305,-0.691 -0.554,-1.505 -0.851,-2.392c-1.949,-5.829 -4.923,-15.115 -8.948,-23.643c-3.222,-6.826 -6.988,-13.22 -11.217,-16.858c-5.237,-4.508 -12.327,-9.231 -19.105,-13.205c-6.407,-3.756 -12.533,-6.845 -16.565,-8.43c-1.444,-0.569 -3.149,-0.98 -3.379,-1.035c-2.197,0.71 -3.199,2.095 -4.987,2.992c-0.547,0.275 -1.148,0.52 -1.836,0.713c-1.1,0.308 -2.847,0.179 -4.764,-0.314c-3.867,-0.995 -8.618,-3.252 -8.618,-3.252c-0.509,-0.239 -0.885,-0.692 -1.026,-1.237c0,0 -0.495,-1.981 -1.156,-3.913c-0.255,-0.747 -0.532,-1.489 -0.817,-2.087Z"/><path d="M142.453,216.675l19.954,-76.982l23.696,9.416l-18.458,74.98l-17.413,9.526l-7.779,-16.94Z" style="fill:#fff;"/><path d="M140.813,216.402c0.008,-0.048 0.018,-0.096 0.03,-0.144c-0,-0 0.048,-1.759 0.498,-4.8c0.139,-0.937 0.343,-1.983 0.604,-3.13c4.472,-19.638 18.197,-69.222 18.197,-69.222c0.169,-0.649 0.608,-1.195 1.206,-1.499c0.599,-0.303 1.299,-0.335 1.922,-0.087l23.655,9.521c1.034,0.41 1.606,1.521 1.34,2.6l-18.82,74.891c-0.124,0.505 -0.455,0.934 -0.911,1.184l-17.46,9.439c-0.427,0.234 -0.932,0.28 -1.394,0.126c-0.462,-0.153 -0.84,-0.491 -1.044,-0.933l-7.694,-16.979c-0.021,-0.045 -0.039,-0.09 -0.055,-0.135l-0.003,-0.007c-0.017,-0.048 -0.031,-0.096 -0.043,-0.145l-0.003,-0.011c-0.012,-0.048 -0.022,-0.096 -0.029,-0.145l-0.002,-0.009l-0,-0.007l-0.004,-0.021l-0.005,-0.067l-0.007,-0.067l-0,-0.021l-0.001,-0.007l0.001,-0.009c-0.002,-0.049 -0.001,-0.098 0.002,-0.148l-0,-0.004l0.001,-0.007c0.004,-0.05 0.009,-0.1 0.018,-0.15l-0,-0.003l0.001,-0.004Zm23.234,-73.553c-2.543,10.457 -12.23,50.067 -17.096,66.777c-0.329,1.129 -0.659,2.142 -0.993,3.029c-0.75,1.991 -1.37,3.351 -1.681,4l6.752,14.512l15.004,-8.305l17.452,-72.389l-19.438,-7.624Z"/><path d="M282.604,27.057c-8.264,-0.04 -16.606,7.325 -15.036,45.485c1.569,38.161 0.072,67.754 14.195,67.429c14.123,-0.326 18.033,0.922 19.372,-54.753c1.263,-52.506 -2.08,-58.08 -18.531,-58.161Z" style="fill:#fff;"/><path d="M282.613,25.395c-2.145,-0.287 -4.301,-0.066 -6.451,0.849c-0.854,0.363 -1.671,0.889 -2.466,1.542c-1.899,1.559 -3.58,3.994 -4.992,7.448c-2.819,6.898 -4.444,18.475 -3.619,37.41c1.135,25.369 0.971,46.99 4.754,58.707c2.33,7.218 6.191,10.994 11.976,10.839c5.531,-0.148 9.621,-0.282 12.712,-2.793c1.858,-1.51 3.429,-3.876 4.631,-7.757c2.312,-7.464 3.429,-21.151 3.931,-46.375c0.516,-25.999 -0.087,-40.625 -2.733,-48.789c-3.021,-9.317 -8.447,-11.075 -17.743,-11.081Zm-0.017,3.325c7.514,0.069 12.047,1.271 14.425,8.822c2.515,7.987 2.877,22.267 2.16,47.629c-0.693,24.584 -1.806,37.925 -4.117,45.183c-0.891,2.799 -1.917,4.574 -3.268,5.656c-2.445,1.956 -5.734,1.657 -10.084,1.741c-2.345,0.045 -4.079,-1.067 -5.413,-3.059c-1.756,-2.623 -2.856,-6.561 -3.65,-11.516c-1.953,-12.189 -1.828,-30.216 -2.599,-50.736c-0.543,-14.099 0.269,-23.894 1.939,-30.622c1.213,-4.889 2.913,-7.955 4.789,-9.934c1.009,-1.064 1.986,-1.862 3.11,-2.334c0.896,-0.376 1.766,-0.702 2.708,-0.83Z"/><path d="M280.235,139.882l-1.84,48.763l9.392,-1.797l1.574,-47.412" style="fill:#fff;"/><path d="M285.712,185.038l1.987,-45.657c0.031,-0.917 0.8,-1.637 1.717,-1.607c0.917,0.031 1.637,0.8 1.607,1.717l-1.086,47.428c-0.033,1.005 -0.758,1.853 -1.746,2.042l-9.375,1.884c-0.671,0.128 -1.363,-0.056 -1.881,-0.501c-0.518,-0.445 -0.805,-1.101 -0.779,-1.784c0,0 0.924,-31.546 1.316,-43.9c0.014,-0.43 0.003,-0.839 0.041,-1.219c0.045,-0.447 0.111,-0.848 0.206,-1.213c0.427,-1.642 0.855,-2.409 0.855,-2.409c0.034,-0.917 0.807,-1.634 1.724,-1.599c0.917,0.035 1.633,0.807 1.599,1.724c0,0 0.368,0.797 0.671,2.467c0.067,0.371 0.102,0.776 0.113,1.225c0.01,0.382 -0.032,0.789 -0.051,1.219c-0.442,10.115 -1.5,33.101 -1.868,41.083l4.95,-0.9Z"/><path d="M298.803,133.811l-48.605,-81.672c0,0 8.468,-15.917 4.706,-29.255c-4.852,-17.204 -23.369,-20.74 -23.369,-20.74l5.803,30.263l-29.918,5.986l-7.008,-29.558c0,0 -18.363,20.016 -5.872,37.948c13.232,18.996 30.121,12.113 30.121,12.113l67.717,112.449" style="fill:#fff;"/><path d="M234.661,30.615l-5.438,-28.028c-0.147,-0.766 0.096,-1.555 0.647,-2.107c0.551,-0.551 1.34,-0.794 2.106,-0.648c0,0 8.353,1.563 15.66,7.691c4.024,3.374 7.728,8.117 9.601,14.703c1.207,4.248 1.283,8.74 0.764,12.964c-0.921,7.501 -3.718,14.126 -4.982,16.825c4.112,6.817 25.649,42.557 38.283,64.141c1.395,2.383 2.7,4.583 3.784,6.596c3.317,6.161 5.146,10.209 5.146,10.209c0.469,0.789 0.21,1.81 -0.579,2.279c-0.788,0.469 -1.81,0.21 -2.279,-0.578c0,0 -2.686,-3.538 -6.52,-9.392c-1.252,-1.913 -2.562,-4.109 -3.992,-6.472c-14.357,-23.731 -38.794,-65.391 -38.794,-65.391c-0.444,-0.745 -0.466,-1.667 -0.059,-2.432c0,0 3.186,-5.978 4.676,-13.57c0.857,-4.363 1.171,-9.276 -0.113,-13.863c-1.548,-5.533 -4.649,-9.52 -8.013,-12.366c-3.524,-2.98 -7.332,-4.732 -9.996,-5.695l5.022,26.496c0.237,1.233 -0.566,2.427 -1.798,2.674l-29.931,5.921c-1.173,0.235 -2.322,-0.502 -2.598,-1.666l-5.921,-25.215c-2.177,3.09 -5.097,8.037 -6.395,13.786c-1.265,5.603 -0.96,11.995 3.29,18.128c3.915,5.649 8.16,8.886 12.159,10.639c8.362,3.665 15.524,0.821 15.524,0.821c0.902,-0.368 1.938,-0.024 2.44,0.811l67.448,112.612c0.473,0.786 0.219,1.808 -0.567,2.282c-0.786,0.473 -1.809,0.219 -2.282,-0.567l-67.178,-110.95c-2.954,0.799 -9.574,1.906 -16.997,-1.305c-4.559,-1.972 -9.446,-5.582 -13.931,-11.987c-3.969,-5.669 -5.085,-11.54 -4.68,-17.009c0.957,-12.93 10.654,-23.576 10.654,-23.576c0.54,-0.588 1.361,-0.83 2.134,-0.629c0.772,0.201 1.371,0.813 1.555,1.59l6.571,27.453l25.579,-5.175Z"/><path d="M206.726,35.706c0,0 -0.041,0.067 0.557,0.431c0.169,0.103 0.247,0.207 0.518,0.24c0.522,0.065 1.24,-0.216 2.112,-0.402c7.613,-1.623 26.909,-6.347 26.909,-6.347c0.899,-0.182 1.482,-1.06 1.3,-1.959c-0.181,-0.9 -1.059,-1.483 -1.958,-1.301c0,0 -19.617,3.135 -27.264,4.594c-0.875,0.167 -1.646,0.186 -2.102,0.448c-0.237,0.136 -0.268,0.262 -0.384,0.423c-0.411,0.567 -0.346,0.613 -0.346,0.613c-0.9,0.182 -1.483,1.06 -1.301,1.959c0.182,0.9 1.06,1.483 1.959,1.301Z"/><path d="M101.357,96.252l229.679,-58.105c0,0 11.521,-2.397 11.496,9.799c-0.025,12.121 -7.805,13.974 -7.805,13.974l-222.964,61.976" style="fill:#9b9b9b;"/><path d="M331.529,40.324c-3.201,0.817 -149.049,38.038 -206.571,52.619c-2.465,0.625 -4.761,1.233 -6.891,1.739c-1.65,0.391 -3.193,0.739 -4.627,1.03c-7.387,1.503 -11.675,2.152 -11.675,2.152c-0.889,0.225 -1.794,-0.314 -2.019,-1.204c-0.226,-0.89 0.314,-1.795 1.204,-2.02c0,0 4.08,-1.468 11.293,-3.658c1.4,-0.426 2.923,-0.854 4.56,-1.294c2.114,-0.568 4.424,-1.125 6.889,-1.748c58.176,-14.688 206.797,-51.956 206.797,-51.956c0.03,-0.007 0.061,-0.015 0.092,-0.021c0,0 6.149,-1.206 10.308,2.245c2.123,1.762 3.859,4.707 3.839,9.743c-0.021,5.163 -1.338,8.653 -2.907,11.013c-2.595,3.902 -5.978,4.903 -6.519,5.041l-223.094,61.493c-0.884,0.246 -1.801,-0.272 -2.047,-1.157c-0.246,-0.884 0.272,-1.801 1.156,-2.047l222.83,-62.458c0.026,-0.007 0.053,-0.014 0.079,-0.02c0,0 2.889,-0.809 4.665,-4.493c0.86,-1.782 1.444,-4.181 1.444,-7.382c0.001,-3.229 -0.901,-5.196 -2.267,-6.321c-2.497,-2.055 -6.126,-1.382 -6.539,-1.296Z"/><path d="M257.397,171.817l-0.684,25.313l11.631,-4.031l0.134,-21.849" style="fill:#fff;"/><path d="M266.315,191.59l0.5,-20.35c0.006,-0.917 0.756,-1.658 1.673,-1.652c0.918,0.005 1.658,0.755 1.653,1.673l0.269,21.851c-0.006,0.875 -0.562,1.652 -1.39,1.939l-11.561,4.229c-0.706,0.244 -1.487,0.127 -2.09,-0.314c-0.602,-0.442 -0.95,-1.151 -0.93,-1.897c0,0 -0.173,-16.394 0.308,-22.791c0.029,-0.376 0.042,-0.721 0.139,-1.009c0.394,-1.163 0.849,-1.497 0.849,-1.497c0.025,-0.918 0.79,-1.642 1.707,-1.617c0.918,0.024 1.642,0.789 1.617,1.707c0,0 0.437,0.358 0.767,1.54c0.082,0.293 0.077,0.638 0.085,1.016c0.097,4.618 -0.424,14.397 -0.725,19.508l7.129,-2.336Z"/><path d="M263.9,172.962c6.107,0.048 12.26,-10.695 12.26,-10.695l3.106,-82.691c0,-0 1.545,-11.382 -13.962,-12.227c-15.508,-0.846 -17.08,11.702 -17.08,11.702l0.85,84.571c0,-0 2.884,9.245 14.826,9.34Z" style="fill:#fff;"/><path d="M281.558,79.722l-2.829,82.642c-0.015,0.415 -0.131,0.82 -0.338,1.181c0,-0 -2.066,3.821 -5.195,6.974c-0.527,0.532 -1.084,1.042 -1.677,1.497c-0.627,0.483 -1.264,0.931 -1.939,1.287c-1.905,1.003 -3.828,1.594 -5.693,1.321c-4.219,-0.014 -7.406,-1.098 -9.796,-2.529c-5.198,-3.112 -6.684,-7.953 -6.684,-7.953c-0.05,-0.162 -0.077,-0.332 -0.079,-0.502l-1.227,-84.568c-0.001,-0.095 0.005,-0.19 0.017,-0.285c0,-0 0.802,-6.802 7.044,-10.836c2.804,-1.812 6.734,-3.092 12.262,-2.812c6.858,0.347 10.748,2.645 13.004,5.165c3.452,3.858 3.217,8.499 3.13,9.418Zm-7.939,81.758l3.352,-81.991c0.002,-0.074 0.009,-0.148 0.019,-0.222c0,-0 0.556,-4.259 -3.154,-7.078c-1.818,-1.38 -4.565,-2.391 -8.653,-2.63c-4.346,-0.255 -7.466,0.635 -9.683,2.043c-4.118,2.615 -5.028,6.891 -5.153,7.609l0.471,84.104c0.315,0.815 1.653,3.796 5.037,5.864c1.958,1.196 4.584,2.077 8.058,2.12c0.805,-0.112 1.475,-0.616 2.208,-1.123c0.747,-0.517 1.409,-1.204 2.097,-1.905c0.42,-0.427 0.827,-0.872 1.231,-1.316c1.955,-2.144 3.53,-4.481 4.17,-5.475Z"/><path d="M271.839,74.432c0.962,4.797 -15.358,4.579 -15.139,-1.394c0.218,-5.972 14.868,0.045 15.139,1.394Z" style="fill:#fff;"/><path d="M273.469,74.105c-0.068,-0.401 -0.536,-1.196 -1.625,-1.92c-2.142,-1.423 -7.464,-3.61 -11.285,-3.772c-3.506,-0.149 -5.83,1.362 -6.038,4.545c-0.134,2.102 0.956,3.827 2.827,5.105c1.651,1.128 4.039,1.845 6.477,2.104c2.239,0.237 4.512,0.054 6.255,-0.466c1.309,-0.39 2.365,-0.999 3.059,-1.724c0.406,-0.425 0.806,-0.863 0.922,-1.39c0.043,-0.196 0.146,-0.352 0.108,-0.548c-0.035,-0.178 0.06,-0.286 -0.018,-0.452c-0.065,-0.135 0.015,-0.221 -0.066,-0.349c-0.062,-0.098 0.001,-0.174 -0.074,-0.264c-0.296,-0.359 -0.117,-0.588 -0.542,-0.869Zm-3.212,0.972c0.034,0.202 0.092,0.394 0.208,0.259c0.079,-0.092 -0.025,-0.175 -0.208,-0.259Zm-1.127,-0.47c-1.805,-0.839 -4.654,-1.768 -7.149,-2.059c-0.816,-0.095 -1.587,-0.106 -2.253,-0.009c-0.436,0.064 -0.846,0.138 -0.849,0.579c-0.006,0.525 0.459,0.815 0.942,1.108c0.754,0.458 1.74,0.728 2.785,0.911c2.249,0.396 4.817,0.245 6.391,-0.478l0.133,-0.052Zm0.313,-0.147c0.027,-0.027 0.032,-0.055 0.002,-0.084c-0.034,-0.033 -0.019,0.017 -0.002,0.084Z"/><path d="M150.494,366.392l227.385,-84.343" style="fill:none;"/><path d="M151.072,367.951c0,0 1.249,-0.2 3.596,-0.765c0.997,-0.24 2.179,-0.519 3.528,-0.948c3.958,-1.26 9.33,-3.426 15.925,-5.883c57.56,-21.44 204.336,-76.747 204.336,-76.747c0.86,-0.319 1.3,-1.277 0.981,-2.137c-0.32,-0.861 -1.277,-1.3 -2.138,-0.981c0,0 -147.339,53.788 -204.957,75.071c-6.603,2.438 -12.088,4.3 -15.909,5.925c-1.303,0.555 -2.381,1.114 -3.293,1.582c-2.148,1.103 -3.226,1.765 -3.226,1.765c-0.86,0.32 -1.299,1.277 -0.98,2.137c0.319,0.861 1.277,1.3 2.137,0.981Z"/><path d="M385.72,165.467l-7.841,116.582l-230.466,85.258l5.801,-124.795l232.506,-77.045Z" style="fill:#9b9b9b;"/><path d="M385.707,163.805c0.042,-0.001 0.083,0 0.124,0.003l0.011,0.001l0.01,0l0.017,0.003c0.048,0.004 0.094,0.01 0.14,0.018l0.003,0l0.006,0.002c0.254,0.046 0.486,0.148 0.683,0.295l0.035,0.024l0.002,0.002l0.002,0.001l0.032,0.028c0.191,0.155 0.349,0.353 0.457,0.587l0.003,0.006l0.001,0.003c0.019,0.042 0.037,0.085 0.052,0.13l0.007,0.016l0.003,0.011l0.003,0.009c0.013,0.04 0.025,0.079 0.034,0.119l0.005,0.018l0.005,0.02l0.001,0.007l0.003,0.015l0.008,0.038l0.003,0.018l0.003,0.011l0.009,0.067l0.002,0.016l0.003,0.03l0.003,0.022l0,0.011l0.002,0.019l0.002,0.039l0.001,0.015l0,0.007l0.001,0.021l-0.001,0.018c0.001,0.041 0,0.082 -0.003,0.124c0,-0 -0.026,6.465 -0.357,16.371c-0.073,2.181 -0.176,4.526 -0.315,7.005c-1.919,34.045 -6.316,93.263 -6.316,93.263c-0.067,0.99 -0.708,1.848 -1.639,2.192l-230.573,84.967c-0.694,0.257 -1.471,0.149 -2.069,-0.289c-0.597,-0.437 -0.936,-1.144 -0.902,-1.884l5.978,-124.786c0.04,-0.84 0.592,-1.568 1.39,-1.833l232.6,-76.689l0.001,-0.001l0.003,-0.001l0.017,-0.005c0.039,-0.013 0.079,-0.025 0.119,-0.034l0.017,-0.005l0.021,-0.005l0.007,-0.001l0.015,-0.003l0.038,-0.008l0.018,-0.003l0.011,-0.003l0.022,-0.003l0.03,-0.005l0.015,-0.001l0.015,-0.002l0.031,-0.003l0.022,-0.003l0.011,-0l0.019,-0.002l0.038,-0.002l0.015,-0.001l0.008,-0l0.021,-0.001l0.017,0.001Zm-1.961,4.072l-228.567,76.12l-5.411,120.081l225.697,-83.819c0.592,-9.731 3.734,-60.977 6.132,-91.647c0.193,-2.476 0.405,-4.814 0.625,-6.985c0.626,-6.183 1.19,-11.009 1.524,-13.75Z"/><path d="M150.327,233.833l222.65,-72.675l12.743,4.309l-232.506,77.045l-2.887,-8.679Z" style="fill:#fff;"/><path d="M149.811,232.252c-0.421,0.138 -0.77,0.437 -0.969,0.832c-0.199,0.396 -0.233,0.854 -0.093,1.274l2.868,8.686c0.294,0.881 1.245,1.358 2.127,1.066l232.671,-76.547c0.901,-0.298 1.51,-1.14 1.513,-2.089c0.003,-0.95 -0.601,-1.795 -1.501,-2.099l-12.734,-4.334c-0.457,-0.154 -0.951,-0.157 -1.409,-0.007c0,0 -144.101,46.682 -200.493,65.078c-2.39,0.78 -4.63,1.486 -6.677,2.189c-1.585,0.544 -3.058,1.07 -4.41,1.584c-6.966,2.647 -10.893,4.367 -10.893,4.367Zm223.159,-68.739c-10.867,3.574 -145.487,47.84 -199.578,65.506c-2.389,0.78 -4.614,1.532 -6.682,2.171c-1.601,0.496 -3.1,0.94 -4.496,1.323c-4.543,1.248 -7.888,2.077 -9.732,2.518l1.794,5.353l224.489,-74.924l-5.795,-1.947Z"/><path d="M151.05,356.51l227.987,-84.657" style="fill:none;"/><path d="M151.629,358.069c0,0 1.252,-0.203 3.605,-0.771c0.999,-0.241 2.184,-0.521 3.538,-0.952c3.967,-1.265 9.353,-3.439 15.967,-5.905c57.712,-21.519 204.877,-77.029 204.877,-77.029c0.86,-0.319 1.299,-1.277 0.98,-2.137c-0.319,-0.861 -1.277,-1.3 -2.137,-0.98c0,0 -147.73,53.99 -205.501,75.352c-6.62,2.448 -12.119,4.317 -15.951,5.948c-1.306,0.556 -2.387,1.117 -3.302,1.587c-2.153,1.105 -3.234,1.769 -3.234,1.769c-0.86,0.32 -1.299,1.277 -0.98,2.138c0.32,0.86 1.277,1.299 2.138,0.98Z"/><path d="M130.8,372.24l19.694,-5.848c0,0 4.862,-82.476 3.972,-114.187c-0.853,-30.377 -28.895,-45.559 -39.134,-71.765c-6.759,-17.301 7.056,-86.003 -24.614,-88.737c-17.899,-1.545 -24.256,8.374 -27.085,12.264" style="fill:#9b9b9b;"/><path d="M148.032,364.407c0.45,-7.633 2.192,-37.846 3.289,-66.59c0.671,-17.573 1.11,-34.596 0.833,-45.547c-0.218,-8.624 -2.741,-15.971 -6.421,-22.7c-9.154,-16.742 -25.155,-29.846 -32.332,-48.376c-1.719,-4.439 -2.186,-12.129 -2.316,-21.243c-0.213,-14.865 0.361,-33.669 -3.282,-47.69c-2.665,-10.257 -7.555,-17.936 -17.237,-18.802c-6.203,-0.556 -10.947,0.327 -14.598,1.878c-6.283,2.671 -9.295,7.292 -10.99,9.608c-0.54,0.742 -1.581,0.906 -2.323,0.366c-0.742,-0.54 -0.906,-1.58 -0.367,-2.322c1.888,-2.613 5.294,-7.756 12.331,-10.8c4.057,-1.755 9.333,-2.817 16.251,-2.241c11.251,0.935 17.351,9.474 20.522,21.368c3.802,14.263 3.396,33.421 3.708,48.565c0.175,8.496 0.535,15.676 2.163,19.804c7.222,18.328 23.23,31.177 32.399,47.722c4.056,7.318 6.825,15.326 7.115,24.733c0.341,11.022 0.014,28.16 -0.577,45.852c-1.112,33.292 -3.136,68.552 -3.136,68.552c-0.063,1.082 -0.798,2.008 -1.837,2.317c0,-0 -3.899,1.258 -8.268,2.467c-1.183,0.326 -2.398,0.646 -3.586,0.914c-4.299,0.969 -8.1,1.592 -8.1,1.592c-0.879,0.261 -1.806,-0.241 -2.067,-1.121c-0.261,-0.879 0.241,-1.806 1.121,-2.067c0,-0 3.525,-1.553 7.655,-3.086c1.143,-0.424 2.335,-0.82 3.504,-1.191c2.559,-0.813 4.989,-1.52 6.546,-1.962Z"/><path d="M130.8,372.24l-117.36,-56.4c0,0 -0.841,-92.287 -0.96,-105.12c-0.119,-12.833 23.471,-7.842 41.04,-35.52c17.569,-27.678 -5.763,-75.474 20.16,-76.32c39.604,-1.292 10.363,63.609 24.96,93c14.597,29.391 32.51,34.33 33.84,61.8c1.33,27.47 -1.68,118.56 -1.68,118.56Z" style="fill:#fff;"/><path d="M130.08,373.739c0.506,0.243 1.101,0.214 1.582,-0.077c0.48,-0.291 0.781,-0.806 0.8,-1.367c0,-0 1.288,-37.146 1.885,-71.157c0.339,-19.299 0.453,-37.591 -0.013,-47.548c-0.417,-8.916 -2.53,-15.548 -5.685,-21.388c-6.672,-12.355 -18.253,-21.004 -28.242,-41.2c-3.766,-7.614 -4.428,-17.691 -4.206,-28.333c0.327,-15.676 2.604,-32.549 0.73,-45.076c-0.977,-6.535 -3.095,-11.936 -6.934,-15.601c-3.654,-3.488 -8.888,-5.489 -16.387,-5.255c-8.259,0.257 -12.252,4.589 -14.086,11.439c-2.257,8.428 -0.86,21.185 -0.943,34.356c-0.069,11.028 -1.197,22.377 -6.976,31.453c-9.855,15.476 -21.676,20.334 -29.845,24.116c-4.086,1.892 -7.325,3.617 -9.282,5.934c-1.515,1.794 -2.369,3.924 -2.347,6.707l0.818,105.121c0.009,0.949 0.556,1.811 1.412,2.222c0,-0 59.485,28.982 93.848,45.204c3.421,1.615 6.59,3.108 9.455,4.374c8.747,3.865 14.416,6.076 14.416,6.076Zm-0.859,-4.296c0.277,-9.18 1.162,-39.872 1.568,-68.362c0.275,-19.204 0.333,-37.406 -0.163,-47.311c-0.413,-8.243 -2.368,-14.375 -5.302,-19.765c-6.734,-12.372 -18.365,-21.02 -28.451,-41.247c-4.041,-8.104 -4.915,-18.823 -4.715,-30.167c0.271,-15.431 2.516,-32.047 0.631,-44.372c-0.84,-5.487 -2.481,-10.085 -5.716,-13.154c-2.965,-2.813 -7.257,-4.248 -13.323,-4.042c-5.918,0.202 -8.734,3.358 -10.034,8.269c-2.161,8.165 -0.655,20.512 -0.697,33.262c-0.04,11.877 -1.388,24.069 -7.584,33.861c-3.549,5.609 -7.341,9.924 -11.139,13.34c-9.001,8.096 -18.036,11.083 -23.991,14.238c-3.249,1.721 -5.512,3.347 -5.476,6.705l1.085,103.559c9.183,4.356 61.478,29.184 92.533,44.374c3.399,1.662 6.545,3.204 9.323,4.65c5.162,2.687 9.134,4.867 11.451,6.162Z"/><g><path d="M368.821,207.775c0.357,-7.615 -4.801,-11.936 -11.51,-9.643l-174.072,59.493c-6.709,2.293 -12.446,10.337 -12.802,17.952l-1.292,27.595c-0.357,7.615 4.801,11.935 11.51,9.642l52.319,-17.881l-2.109,17.009l31.866,-27.179l91.996,-31.442c6.709,-2.293 12.446,-10.337 12.803,-17.952l1.291,-27.594l0,-0Z" style="fill:#722ed1;"/><g><g><path d="M303.986,246.987c-2.875,2.141 -4.284,2.948 -6.325,3.646c-2.495,0.852 -3.99,-0.591 -3.866,-3.927c0.174,-3.714 1.814,-6.048 4.666,-7.022c1.49,-0.51 2.9,-0.666 5.393,-0.794l2.025,-5.795c-2.366,-0.53 -4.895,-0.317 -7.39,0.535c-6.416,2.193 -10.468,7.704 -10.818,15.169c-0.344,7.356 3.319,10.157 9.411,8.075c2.981,-1.019 5.446,-2.585 8.608,-5.439l-1.704,-4.448l-0,0Z" style="fill:#fff;fill-rule:nonzero;"/><path d="M314.18,227.435l-5.865,2.005l-1.108,23.648l5.865,-2.005l0.474,-10.114c0.824,-1.258 1.698,-2.208 2.702,-2.552c1.199,-0.409 1.431,0.09 1.343,1.966l-0.436,9.305l5.865,-2.005l0.534,-11.401c0.227,-4.854 -0.945,-6.372 -4.25,-5.242c-1.782,0.609 -3.345,1.976 -5.514,4.707l0.39,-8.312l-0,0Z" style="fill:#fff;fill-rule:nonzero;"/><path d="M327.653,233.868c2.227,-1.268 3.925,-2.101 5.059,-2.489c1.587,-0.542 1.94,0.097 1.868,1.642l-2.755,0.941c-4.439,1.517 -6.757,4.047 -6.935,7.835c-0.205,4.376 1.615,5.021 4.887,3.903c1.718,-0.587 3.12,-1.935 4.391,-3.89l-0.098,2.097l5.8,-1.983l0.51,-10.886c0.243,-5.185 -1.632,-6.68 -6.331,-5.074c-1.588,0.543 -3.186,1.306 -7.064,3.79l0.668,4.114l-0,0Zm6.78,2.279l-0.105,2.243c-0.643,0.799 -1.41,1.532 -2.35,1.853c-1.005,0.343 -1.654,-0.086 -1.604,-1.153c0.055,-1.176 0.819,-1.836 2.115,-2.279l1.944,-0.664Z" style="fill:#fff;fill-rule:nonzero;"/><path d="M353.197,232.412c-0.747,0.291 -1.33,0.491 -2.011,0.723c-1.458,0.499 -1.778,-0.152 -1.716,-1.476l0.248,-5.296l3.694,-1.262l0.257,-5.48l-3.694,1.262l0.179,-3.824l-5.866,2.004l-0.179,3.825l-2.138,0.731l-0.257,5.48l2.139,-0.731l-0.262,5.59c-0.239,5.112 1.288,6.544 5.079,5.248c1.75,-0.598 3.785,-1.836 4.923,-2.985l-0.396,-3.809Z" style="fill:#fff;fill-rule:nonzero;"/></g><g><path d="M184.455,272.966l-1.05,22.434l8.781,-3.001c5.8,-1.983 8.878,-5.061 9.067,-9.107c0.14,-2.979 -1.106,-4.29 -3.758,-4.18c1.721,-1.348 2.856,-3.111 2.958,-5.281c0.198,-4.229 -2.356,-5.528 -7.443,-3.789l-8.555,2.924l-0,-0Zm5.648,6.719l0.16,-3.421l2.495,-0.852c1.394,-0.477 1.985,-0.172 1.93,1.005c-0.052,1.103 -0.664,1.928 -1.701,2.282l-2.884,0.986Zm-0.384,8.201l0.179,-3.825l2.884,-0.986c1.523,-0.52 2.334,-0.146 2.279,1.031c-0.065,1.397 -0.838,2.241 -2.555,2.827l-2.787,0.953Z" style="fill:#fff;fill-rule:nonzero;"/><path d="M218.563,283.384l0.838,-17.911l-5.865,2.005l-0.489,10.445c-0.792,1.247 -1.732,2.256 -2.704,2.588c-1.199,0.41 -1.429,-0.126 -1.341,-2.002l0.451,-9.636l-5.865,2.005l-0.534,11.401c-0.227,4.854 1.495,6.22 4.8,5.09c1.782,-0.609 2.828,-1.835 4.942,-4.077l-0.098,2.096l5.865,-2.004l-0,-0Z" style="fill:#fff;fill-rule:nonzero;"/><path d="M228.322,256.779l-5.866,2.005l-1.107,23.648l5.865,-2.005l0.095,-2.023c1.161,1.087 1.996,1.634 4.394,0.815c3.273,-1.119 6.288,-4.9 6.601,-11.593c0.296,-6.326 -1.553,-8.372 -5.409,-7.054c-1.815,0.62 -3.307,1.854 -4.945,4.151l0.372,-7.944l-0,0Zm-0.596,12.725c0.831,-1.406 1.668,-2.271 2.738,-2.636c1.426,-0.488 2.155,0.276 2.04,2.74c-0.131,2.795 -1.03,4.297 -2.521,4.806c-1.199,0.41 -1.854,0.091 -2.452,-0.754l0.195,-4.156Z" style="fill:#fff;fill-rule:nonzero;"/><path d="M246.889,250.434l-5.865,2.004l-1.107,23.648l5.865,-2.005l0.094,-2.023c1.161,1.087 1.997,1.634 4.394,0.815c3.273,-1.119 6.288,-4.899 6.601,-11.593c0.296,-6.326 -1.553,-8.372 -5.409,-7.054c-1.814,0.621 -3.307,1.854 -4.945,4.151l0.372,-7.944l-0,0.001Zm-0.596,12.724c0.831,-1.405 1.669,-2.271 2.738,-2.636c1.426,-0.487 2.155,0.276 2.04,2.741c-0.131,2.795 -1.03,4.296 -2.521,4.806c-1.199,0.409 -1.853,0.09 -2.451,-0.755l0.194,-4.156Z" style="fill:#fff;fill-rule:nonzero;"/><path d="M265.456,244.088l-5.865,2.004l-1.107,23.648l5.865,-2.005l1.107,-23.647Z" style="fill:#fff;"/><path d="M280.458,256.005c-2.059,1.754 -3.475,2.708 -5.613,3.439c-1.588,0.542 -2.365,0.121 -2.578,-1.472l9.754,-3.333c0.145,-1.063 0.209,-1.736 0.246,-2.545c0.259,-5.517 -2.482,-7.584 -7.051,-6.022c-5.088,1.739 -8.256,6.079 -8.542,12.184c-0.279,5.957 2.682,8.094 7.672,6.388c2.69,-0.919 4.965,-2.529 7.587,-5.415l-1.475,-3.224l0,0Zm-8.056,-1.589c0.352,-2.074 1.272,-3.33 2.6,-3.784c1.491,-0.509 2.253,0.244 2.228,2.134l-4.828,1.65Z" style="fill:#fff;fill-rule:nonzero;"/></g></g></g></g></g></svg>