<svg clip-rule="evenodd" fill-rule="evenodd" stroke-linejoin="round" stroke-miterlimit="1.41"
  height="120" width="612" viewBox="0 0 102 20" xmlns="http://www.w3.org/2000/svg">
  <path
    d="m32.33 4.95h1.57v2.25c.38-1.05 1.28-2.4 3-2.4h.6v1.65h-.52c-2.1 0-3 1.43-3 3.83v4.87h-1.58zm10.12 1.13c-1.88 0-3.3 1.2-3.3 3.67 0 2.33.98 3.9 3.23 3.9 1.57 0 3.37-1.2 3.37-3.98 0-1.72-1.05-3.6-3.3-3.6m3.3-1.12h1.58v9.15c0 3.15-1.5 5.18-5.18 5.18-2.47 0-4.12-1.2-4.35-3.3h1.73c.15.82.67 1.95 2.62 1.95 2.93 0 3.68-1.95 3.68-4.28v-.82a3.9 3.9 0 0 1 -3.68 2.25c-3 0-4.65-2.25-4.65-5.18 0-3.15 2.18-5.17 4.88-5.17 1.35 0 2.7.75 3.45 2.02-.08 0-.08-1.8-.08-1.8zm3.3 0h1.57v10.13h-1.57v-10.14zm.82-4.88c.68 0 1.2.53 1.2 1.2 0 .68-.52 1.2-1.2 1.2-.67 0-1.2-.52-1.2-1.2 0-.67.53-1.2 1.2-1.2m29.26 15.53c-2.03 0-5.4-1.05-5.4-7.88 0-3.75 1.5-7.72 5.62-7.72 2.02 0 3.67 1.27 4.05 3.08l.07.22h-1.27v-.15c-.3-1.27-1.65-1.95-2.78-1.95-3.52 0-4.27 3.98-4.42 6.3a4.86 4.86 0 0 1 4.2-2.48c2.77 0 4.8 2.26 4.8 5.26 0 3.22-2.03 5.32-4.88 5.32zm.07-9.3c-2.17 0-3.83 1.8-3.83 4.12 0 2.4 1.5 4.05 3.75 4.05 2.18 0 3.6-1.65 3.6-4.2 0-2.32-1.5-3.97-3.52-3.97zm11.55 9.3c-3.3 0-5.47-3.15-5.47-7.8s2.25-7.8 5.47-7.8c3.23 0 5.47 3.15 5.47 7.8s-2.17 7.8-5.47 7.8zm0-14.32c-2.55 0-4.28 2.7-4.28 6.6 0 3.97 1.73 6.6 4.28 6.6s4.28-2.7 4.28-6.6c0-3.98-1.8-6.6-4.28-6.6zm8.17 3.67a2.4 2.4 0 0 1 -2.47-2.48 2.44 2.44 0 1 1 4.87 0 2.34 2.34 0 0 1 -2.4 2.48zm0-4.13c-.9 0-1.65.76-1.65 1.73 0 .98.75 1.73 1.65 1.73s1.65-.75 1.65-1.73c.08-.97-.67-1.72-1.64-1.72zm-29.02 6.68a3.63 3.63 0 0 0 2.25-3.45c0-2.4-1.8-4.05-4.42-4.05-2.63 0-4.35 1.5-4.5 3.9v.15h1.27v-.15c.08-1.65 1.35-2.7 3.23-2.7 1.8 0 3.15 1.12 3.15 2.77 0 1.8-1.28 2.93-3.38 3h-.15v1.2h.15c1.35.08 3.68.6 3.68 3.15 0 1.58-1.28 3.15-3.6 3.15-1.88 0-3.23-.97-3.6-2.47h-1.28c.08.82.45 1.57 1.05 2.17.9.9 2.4 1.5 3.83 1.5 2.85 0 4.87-1.8 4.87-4.42a3.57 3.57 0 0 0 -2.55-3.75zm-51.45 1.5v6.08h1.57v-6.77c0-2.85-2.1-3.6-3.97-3.6 0 0-2.55-.07-3.45 2.03v-1.72h-1.58v10.13h1.58v-5.63c0-2.02 1.05-3.14 2.77-3.3.83-.14 3.08-.3 3.08 2.78zm43.28.97c0-3.45-1.95-5.25-4.88-5.25-3 0-4.88 2.33-4.88 5.7 0 2.86 1.96 5.03 4.8 5.03 2.1 0 3.53-.97 4.43-2.62.07-.15.15-.23.22-.45.08-.23.08-.38.08-.38h-1.73a3.04 3.04 0 0 1 -3 1.95c-1.72 0-3.15-1.2-3.15-3.6h7.96l.15-.37zm-7.88-.82c.15-1.43 1.05-3 3.15-3 1.8 0 2.92 1.2 3.15 3zm-22.87.82c0-3.45-1.95-5.25-4.88-5.25-3 0-4.88 2.33-4.88 5.7 0 2.86 1.96 5.03 4.8 5.03 2.1 0 3.53-.97 4.43-2.62.08-.15.15-.23.23-.45.07-.23.07-.38.07-.38h-1.72a3.04 3.04 0 0 1 -3 1.95c-1.73 0-3.15-1.2-3.15-3.6h7.95l.15-.37zm-7.95-.82c.15-1.43 1.05-3 3.15-3 1.8 0 2.92 1.2 3.15 3zm-13.28.82c0-3.45-1.95-5.25-4.88-5.25-3 0-4.87 2.33-4.87 5.7 0 2.86 1.95 5.03 4.8 5.03 2.1 0 3.52-.97 4.42-2.62.08-.15.15-.23.23-.45.07-.23.07-.38.07-.38h-1.72a3.04 3.04 0 0 1 -3 1.95c-1.73 0-3.15-1.2-3.15-3.6h7.95l.15-.37zm-7.88-.82c.15-1.43 1.05-3 3.15-3 1.8 0 2.93 1.2 3.16 3h-6.3z"
    fill="#a0a0a0" fill-rule="nonzero" />
</svg>