<svg xmlns="http://www.w3.org/2000/svg" viewBox="15 15 120 58"><g fill="#a1a1a1"><path d="M17.01 65.76h42.52v4.54H17.01zM59.53 27.38h1.59v2.33l2-2.33h1.96l-2.25 2.4 2.53 3.67h-1.97l-1.63-2.55-.64.68v1.87h-1.59v-6.07zM65.84 30.4c.02-.58.3-.95.68-1.18.4-.22.9-.3 1.4-.3 1.05 0 2.06.22 2.06 1.47v1.93c0 .38 0 .78.17 1.13H68.7a1.74 1.74 0 01-.09-.41c-.37.39-.92.54-1.45.54-.84 0-1.5-.43-1.5-1.34 0-1.43 1.56-1.32 2.56-1.53.25-.05.39-.13.39-.4 0-.33-.4-.46-.7-.46-.4 0-.66.18-.72.55h-1.35zm1.87 2.29c.68 0 .91-.4.88-1.3-.2.12-.58.15-.9.23-.32.08-.59.22-.59.57s.28.5.6.5zM71.09 29.04h1.4v.6h.02c.26-.45.86-.73 1.38-.73 1.47 0 1.6 1.07 1.6 1.71v2.83h-1.45v-2.13c0-.6.07-1.22-.72-1.22-.55 0-.79.46-.79.95v2.4H71.1v-4.4zM79.2 29.98h-.9v2c0 .35.2.43.52.43l.37-.02v1.06c-.26.01-.52.04-.79.04-1.23 0-1.54-.35-1.54-1.55v-1.96h-.73v-.94h.73v-1.33h1.44v1.33h.9v.94zM82.02 28.91a2.26 2.26 0 012.33 2.34c0 1.33-.96 2.33-2.33 2.33s-2.32-1-2.32-2.33.96-2.34 2.32-2.34zm0 3.56c.68 0 .89-.66.89-1.22s-.21-1.23-.89-1.23-.87.67-.87 1.23.2 1.22.87 1.22zM85.24 29.04h1.4v.6h.02c.26-.45.86-.73 1.39-.73 1.47 0 1.59 1.07 1.59 1.71v2.83h-1.45v-2.13c0-.6.07-1.22-.72-1.22-.55 0-.78.46-.78.95v2.4h-1.45v-4.4zM93.33 27.38h2.84c1.05-.01 2.2.26 2.2 1.52 0 .55-.33 1-.8 1.23.64.19 1.04.75 1.04 1.44 0 1.44-1.06 1.88-2.36 1.88h-2.92v-6.07zm1.58 2.4h1.23c.27 0 .64-.15.64-.59 0-.44-.31-.58-.64-.58H94.9v1.16zm0 2.4h1.27c.5 0 .85-.17.85-.67 0-.54-.37-.72-.85-.72h-1.27v1.4zM100.8 31.6c.02.6.37 1 .98 1 .35 0 .69-.16.82-.48h1.35c-.26 1.02-1.2 1.46-2.19 1.46-1.44 0-2.41-.87-2.41-2.35a2.32 2.32 0 012.38-2.32c1.58 0 2.37 1.2 2.3 2.69h-3.24zm1.78-.8c-.02-.5-.37-.9-.85-.9-.51 0-.85.36-.94.9h1.8zM104.91 29.04h1.4v.77h.02c.22-.56.7-.85 1.33-.85.11 0 .23 0 .34.03v1.32a2.01 2.01 0 00-.55-.09c-.72 0-1.1.5-1.1 1.05v2.18h-1.44v-4.4zM108.63 29.04h1.4v.6h.01c.27-.45.86-.73 1.39-.73 1.47 0 1.59 1.07 1.59 1.71v2.83h-1.45v-2.13c0-.6.07-1.22-.72-1.22-.54 0-.78.46-.78.95v2.4h-1.44v-4.4zM63.56 40.32c-.08-.61-.56-.93-1.22-.93-1.02 0-1.41.9-1.41 1.8s.39 1.8 1.4 1.8c.75 0 1.17-.42 1.23-1.12h1.58c-.08 1.56-1.23 2.48-2.77 2.48-1.83 0-3.02-1.4-3.02-3.16s1.19-3.16 3.02-3.16c1.31 0 2.73.83 2.77 2.3h-1.58zM66 41.17c.02-.58.3-.95.69-1.18.39-.22.9-.3 1.4-.3 1.04 0 2.06.22 2.06 1.47v1.93c0 .38 0 .78.17 1.13h-1.46a1.74 1.74 0 01-.08-.41c-.38.39-.93.54-1.46.54-.84 0-1.5-.42-1.5-1.33 0-1.44 1.56-1.33 2.57-1.53.24-.05.38-.14.38-.41 0-.33-.4-.46-.7-.46-.4 0-.65.18-.72.55H66zm1.87 2.29c.69 0 .92-.4.88-1.3-.2.13-.58.15-.9.24-.31.07-.59.2-.59.56 0 .35.28.5.6.5zM71.25 39.81h1.4v.6h.02c.26-.45.86-.73 1.39-.73 1.47 0 1.59 1.08 1.59 1.71v2.83H74.2V42.1c0-.6.07-1.22-.72-1.22-.55 0-.78.46-.78.95v2.4h-1.45v-4.4zM79.36 40.75h-.9v2c0 .35.2.43.52.43l.38-.02v1.06c-.27.01-.53.05-.8.05-1.23 0-1.54-.36-1.54-1.56v-1.96h-.73v-.94h.73v-1.33h1.44v1.33h.9v.94zM82.19 39.68a2.26 2.26 0 012.33 2.34c0 1.33-.97 2.33-2.33 2.33s-2.32-1-2.32-2.33c0-1.32.95-2.34 2.32-2.34zm0 3.57c.67 0 .88-.67.88-1.23s-.21-1.23-.88-1.23-.88.67-.88 1.23.2 1.23.88 1.23zM85.4 39.81h1.4v.6h.02c.27-.45.86-.73 1.39-.73 1.47 0 1.59 1.08 1.59 1.71v2.83h-1.45V42.1c0-.6.07-1.22-.72-1.22-.54 0-.78.46-.78.95v2.4H85.4v-4.4zM97.8 44.22h-1.37v-.5h-.02c-.28.41-.7.63-1.21.63-1.39 0-1.98-1.19-1.98-2.43 0-1.15.62-2.24 1.87-2.24.54 0 .96.2 1.25.6h.02v-2.13h1.44v6.07zm-3.13-2.25c0 .6.22 1.28.88 1.28.7 0 .86-.68.86-1.24 0-.63-.23-1.22-.86-1.22-.66 0-.88.62-.88 1.18zM100.15 42.37c.02.6.37 1 .98 1 .35 0 .7-.16.83-.48h1.35c-.26 1.02-1.2 1.46-2.2 1.46-1.43 0-2.4-.87-2.4-2.35a2.32 2.32 0 012.37-2.32c1.58 0 2.37 1.2 2.3 2.69h-3.23zm1.79-.8c-.02-.5-.37-.9-.86-.9-.5 0-.85.36-.93.9h1.79zM106.84 38.15h2.84c1.05-.01 2.2.26 2.2 1.53 0 .54-.33.98-.8 1.22.64.19 1.04.75 1.04 1.44 0 1.44-1.06 1.88-2.36 1.88h-2.92v-6.07zm1.59 2.4h1.22c.27 0 .65-.15.65-.59 0-.44-.32-.58-.65-.58h-1.22v1.16zm0 2.4h1.26c.5 0 .85-.17.85-.67 0-.54-.37-.72-.85-.72h-1.26v1.4zM114.3 42.37c.03.6.38 1 .99 1 .35 0 .69-.16.82-.48h1.35c-.26 1.02-1.2 1.46-2.19 1.46-1.43 0-2.41-.87-2.41-2.35a2.32 2.32 0 012.38-2.32c1.58 0 2.37 1.2 2.3 2.69h-3.24zm1.8-.8c-.03-.5-.38-.9-.86-.9-.51 0-.85.36-.94.9h1.8zM118.43 39.81h1.4v.78h.01c.22-.57.71-.86 1.33-.86.11 0 .23 0 .34.03v1.32a2.01 2.01 0 00-.55-.09c-.72 0-1.09.5-1.09 1.05v2.18h-1.44v-4.4zM122.14 39.81h1.4v.6h.02c.26-.45.85-.73 1.38-.73 1.47 0 1.6 1.08 1.6 1.71v2.83h-1.45V42.1c0-.6.06-1.22-.73-1.22-.54 0-.78.46-.78.95v2.4h-1.44v-4.4zM128.85 42.37c.02.6.37 1 .98 1 .35 0 .69-.16.83-.48H132c-.27 1.02-1.2 1.46-2.2 1.46-1.43 0-2.4-.87-2.4-2.35a2.32 2.32 0 012.37-2.32c1.58 0 2.37 1.2 2.3 2.69h-3.23zm1.79-.8c-.03-.5-.37-.9-.86-.9-.5 0-.85.36-.93.9h1.79zM21.56 33.22l1.4.98c.3.2.27.6.16.81-.1.2-.43.3-.7.12l-.86-.6v.71l3 2.13c.45.32.7.95.7 1.52v2.6l.04.95s-.6-.93-1.58-1.17l-.05 2.28 2 .32c.19.03.38-.05.5-.2l1.99-2.65.58.1-.25.4a1.2 1.2 0 000 1.24l1.65 2.66v.1s-.63-.98-1.6-1.21l-.07 2.28 1.95.31c.21.03.43-.08.5-.28l.75-1.75c-.58-1.06-1.03-1.68-.66-2.77l-1.27-.83 1.96.31-.1.23c-.22.5-.6 1.11.08 2.28.7 1.2 1.31 2.18 1.41 2.36.1.18.35.67.93.76-.64 0-1.43-.23-2.17.77l1.92 1.25 1.4-1.77c.16-.2.23-.44.2-.69l-.5-4.69.82.12-.14-.94c-.07-.48-.34-.91-.74-1.18l-6.25-4.23v-.26a.5.5 0 00-.25-.46l-1.7-.9a.6.6 0 00-.28-.06c.1-.05.19-.13.25-.24a.6.6 0 00-1.07-.56.57.57 0 00-.06.33.47.47 0 00-.17-.2l-1.07-.56c-.26-.14-.37.1-.38.13l-.05.12-2.3-1.3v.08c0 .12.08.18.08.37v.88zm2.65.34a.29.29 0 110 .57.29.29 0 010-.57z"/><path d="M20.43 33.35l2.32 1.63v-.25l-1.87-1.43c-.55-.42-.27-1.15.13-1.3-.55-.03-.87.16-.98.41-.12.3-.02.64.4.94zM24.85 39.03c0-.49-.07-1-.56-1.4l-2.5.58c-.15.03-.3.13-.3.13.3-.85.22-1.46.07-1.7l-.22-.35-1.76 1.44 1.22 1.78c.17.25.43.42.73.47l3.32.52v-1.47zM19.61 37.26c-.25-.33-.7-.52-.7-.52l.47.7.23-.18zM20 36.94c-.26-.32-.72-.5-.72-.5l.48.7.24-.2zM20.38 36.63c-.26-.32-.71-.5-.71-.5l.48.69.23-.19zM20.53 36.5l.23-.18c-.25-.33-.71-.51-.71-.51l.48.7zM21.14 36c-.25-.32-.7-.5-.7-.5l.47.7.23-.2zM23.37 41.53v-.29c-.49-.01-.87.2-.87.2l.87.1zM23.36 42.03v-.3c-.49 0-.87.2-.87.2l.87.1zM23.34 42.52l.01-.3c-.49 0-.87.21-.87.21l.86.1zM23.33 43.02l.01-.3c-.49 0-.87.2-.87.2l.86.1zM23.32 43.51v-.3c-.48 0-.86.21-.86.21l.86.1zM28.18 44.57v-.3c-.48 0-.86.2-.86.2l.86.1zM28.17 45.06v-.3c-.48 0-.87.21-.87.21l.87.09zM28.16 45.55v-.29c-.48-.01-.87.2-.87.2l.87.1zM28.15 46.05v-.3c-.49 0-.87.2-.87.2l.87.1zM28.14 46.54v-.3c-.49 0-.87.21-.87.21l.87.1zM31.64 48.26c-.27.4-.28.85-.28.85l.53-.7-.25-.15zM32.05 48.53c-.26.4-.28.85-.28.85l.53-.7-.25-.15zM32.47 48.8c-.27.4-.29.85-.29.85l.54-.7-.25-.15zM32.88 49.07c-.26.4-.28.84-.28.84l.53-.68-.25-.16zM33.01 50.18l.53-.69-.24-.16c-.27.41-.29.85-.29.85z"/><path d="M17 44.07c0 6.03 4.9 10.94 10.9 10.94s10.88-4.9 10.88-10.94v-15.1H17v15.1zm.8 0V41.8l15.67 10.72a9.99 9.99 0 01-5.58 1.7c-5.56 0-10.09-4.55-10.09-10.15zm20.18-5.01l-13.71-9.3h13.71v9.3zm-15.12-9.3l15.12 10.26v4.05c0 3.22-1.5 6.09-3.83 7.95L17.8 40.84V29.76h5.06zM36.69 19c-.32.29-.57.7-.57 1.24 0 .23.05.37.13.48-.74.23-1.25.9-1.25 1.73 0 .75.35 1.54 1.4 1.86-.2.28-.7.52-1.25.52a1.9 1.9 0 01-1.73-1.12 1.36 1.36 0 10-1.02 0 1.76 1.76 0 01-1.65 1.12c-.63 0-1.03-.16-1.38-.59a1.81 1.81 0 001.45-1.79c0-.92-.53-1.5-1.23-1.74.15-.26.2-.44.2-.75 0-.64-.2-.93-.7-1.53l-.44-.5c-.22-.27-.59-.64-.76-.92-.17.28-.53.65-.76.92l-.43.5c-.5.6-.7.89-.7 1.53 0 .3.05.5.2.75-.7.24-1.23.82-1.23 1.74 0 .7.41 1.54 1.44 1.8-.35.42-.75.58-1.38.58-.77 0-1.36-.46-1.64-1.12a1.36 1.36 0 10-1.03 0 1.9 1.9 0 01-1.72 1.12c-.56 0-1.05-.24-1.26-.52a1.84 1.84 0 001.4-1.86c0-.84-.5-1.5-1.25-1.73.09-.11.14-.25.14-.48 0-.54-.25-.95-.57-1.25a49.03 49.03 0 00-2.49-1.98c.29 1.54.4 2.68.4 3.6v7.57H38.78V20.6c0-.92.1-2.06.4-3.6 0 0-1.78 1.33-2.49 1.98zm-4.35 3.45a.57.57 0 111.14 0 .57.57 0 01-1.14 0zm-10.03 0a.57.57 0 111.13 0 .57.57 0 01-1.13 0zm15.67-1.84v6.77H17.8v-6.77a7.6 7.6 0 00-.26-1.98l.96.84c.28.25.37.67.37.85 0 .49-.06.68-.35 1.05 0 0 .06-.04.35-.04.56 0 1.12.47 1.12 1.12 0 .66-.48 1.17-1.1 1.17-.38 0-.54-.07-.54-.07a2.3 2.3 0 002.29 1.96c.96 0 1.8-.54 2.24-1.32.44.78 1.19 1.32 2.15 1.32 1.35 0 2.25-.86 2.48-2.05 0 0-.24.1-.62.1-.63 0-1.12-.46-1.12-1.11 0-.7.5-1.16 1.11-1.16.22 0 .33.01.5.06a1.94 1.94 0 01-.32-.4 1.52 1.52 0 01-.27-.92c0-.49.34-.9.73-1.38.17-.2.27-.32.37-.48.1.16.2.28.37.48.4.48.74.9.74 1.38 0 .43-.1.65-.27.92-.1.15-.2.28-.33.4.17-.05.29-.06.5-.06.6 0 1.12.46 1.12 1.16 0 .65-.5 1.1-1.12 1.1-.39 0-.62-.1-.62-.1a2.42 2.42 0 002.47 2.06c.97 0 1.72-.54 2.16-1.32a2.57 2.57 0 002.24 1.32 2.3 2.3 0 002.28-1.96s-.15.07-.54.07c-.62 0-1.1-.5-1.1-1.17 0-.65.56-1.12 1.12-1.12.3 0 .36.04.36.04-.3-.37-.35-.56-.35-1.05 0-.18.09-.6.37-.85l.95-.84a7.6 7.6 0 00-.26 1.98z"/></g></svg>