<svg viewBox="0 0 500 113" xmlns="http://www.w3.org/2000/svg"><g fill="#a1a1a1"><path d="m13.26 59.88a46.22 46.22 0 1 1 92.44 0h3.25a49.47 49.47 0 1 0 -98.95 0z"/><path d="m55.11 60.21h3.9v34.49h-3.9v-34.5zm29.69 34.48h-3.91v-4.26c-2.13 1.9-4.88 4.8-8.88 4.8-4.03 0-6.52-2.45-6.47-7.42v-19.34h3.9v17.92c0 2.67.62 5.28 3.86 5.28 3.64 0 6-2.66 7.59-4.52v-18.68h3.9v26.22m23.11-26.22v3.01l-14.32 20.1h14.64v3.1h-19.3v-2.96l14.46-20.15h-13.88v-3.1zm7.1 14.11c.18 7.05 3.47 9.54 6.97 9.54 4.26 0 5.9-3.2 6.3-4.62l3.42 1.2c-1.69 4.04-4.93 6.52-9.72 6.52-9.31 0-11.05-8.34-11.05-13.66 0-5.28 1.74-13.63 11.05-13.63 7.54 0 10.25 6.53 10.25 12.7v1.95h-17.21m13.13-2.93c0-4.7-2.13-8.6-6.3-8.6-4.08 0-6.3 3.23-6.83 8.6zm8.87-11.18h3.9v4.66h.1c2.3-3.2 5.37-4.93 8.65-4.93v3.9c-1.95 0-5.46 0-8.74 4.4v18.19h-3.9v-26.22m16.41 0h3.9v4.26c2.13-1.91 4.89-4.8 8.88-4.8 4.04 0 6.52 2.45 6.48 7.41v19.36h-3.9v-17.94c0-2.66-.63-5.28-3.87-5.28-3.64 0-5.99 2.67-7.59 4.53v18.68h-3.9zm28.13 14.11c.18 7.05 3.46 9.54 6.96 9.54 4.26 0 5.9-3.2 6.3-4.62l3.42 1.2c-1.69 4.04-4.92 6.52-9.72 6.52-9.31 0-11.04-8.34-11.04-13.66 0-5.28 1.73-13.63 11.04-13.63 7.55 0 10.25 6.53 10.25 12.7v1.95zm13.13-2.93c0-4.7-2.13-8.6-6.3-8.6-4.08 0-6.3 3.23-6.83 8.6zm8.88-11.18h3.9v4.66h.09c2.3-3.2 5.37-4.93 8.65-4.93v3.9c-1.95 0-5.46 0-8.74 4.4v18.19h-3.9z"/><path d="m232.49 60.21v19.93l10.12-11.67h4.96l-10.87 12.11 11.63 14.1h-5.06l-10.7-13.48h-.08v13.5h-3.9v-34.5h3.9m18.81 14.3c1.2-3.15 3.15-6.57 9.5-6.57 7.76 0 8.78 5.28 8.78 9.9v13.8c0 .57 0 1.6.22 3.06h-4.12v-4.44h-.1c-2.52 3.33-5.1 4.7-8.2 4.7-5.41 0-7.32-3.99-7.32-7.4 0-6 4.61-9.01 11.85-9.01h3.77v-1.69c0-1.77 0-5.99-5.1-5.99-3.25 0-4.75 1.82-5.9 4.66zm11.54 6.97c-5.6 0-8.88 1.77-8.88 5.72 0 2.4 1.16 4.66 4.4 4.66 1.6 0 3.72-.4 7.32-4.48v-5.9zm12.6-13h3.9v4.26c2.13-1.91 4.88-4.8 8.87-4.8 4.04 0 6.53 2.45 6.48 7.41v19.36h-3.9v-17.94c0-2.66-.62-5.28-3.86-5.28-3.64 0-6 2.67-7.59 4.53v18.68h-3.9zm27.33-4.4 3.9-1.64v8.12h6.17v2.93h-6.17v14.46c0 2.18.22 4.18 3.1 4.18a7.8 7.8 0 0 0 3.29-.76v3.1c-1.46.58-3.02.76-3.68.76-5.64 0-6.61-3.86-6.61-6.79v-14.95h-3.95v-2.93h3.95zm12.33 17.49c0-6.75 3.02-13.63 11.05-13.63 9.32 0 11.05 8.35 11.05 13.63 0 6.79-3.02 13.66-11.05 13.66-9.32 0-11.05-8.34-11.05-13.66m4.08-.05c0 5.15 1.42 10.6 6.97 10.6 5.54 0 6.96-5.45 6.96-10.6 0-5.06-1.42-10.47-6.96-10.47-5.55 0-6.97 5.41-6.97 10.47m22.81-13.04h3.9v4.26c2.13-1.91 4.88-4.8 8.88-4.8 4.03 0 6.52 2.45 6.47 7.41v19.36h-3.9v-17.94c0-2.66-.62-5.28-3.86-5.28-3.64 0-5.99 2.67-7.59 4.53v18.68h-3.89v-26.22m26.88 19.03c.97 2.75 2.66 4.62 5.94 4.62 4.17 0 5.41-2.67 5.41-4.4 0-2.66-2-3.63-5.28-4.66l-1.95-.62c-3.55-1.1-6.7-2.84-6.7-7.23 0-5.32 5.02-7.28 8.83-7.28 5.95 0 7.5 3.82 8.39 5.95l-3.42 1.2a5.06 5.06 0 0 0 -5.1-4.04c-2.53 0-4.8 1.24-4.8 3.95 0 2 .94 2.88 3.82 3.9l3.6 1.25c4.34 1.5 6.52 3.37 6.52 7.4 0 2.93-1.95 7.68-9.41 7.68-4.35 0-8.2-2.17-9.31-6.61l3.46-1.1m21.33-.01c.98 2.75 2.67 4.62 5.95 4.62 4.17 0 5.41-2.67 5.41-4.4 0-2.66-2-3.63-5.28-4.66l-1.95-.62c-3.55-1.1-6.7-2.84-6.7-7.23 0-5.32 5.02-7.28 8.83-7.28 5.95 0 7.5 3.82 8.39 5.95l-3.42 1.2a5.06 5.06 0 0 0 -5.1-4.04c-2.53 0-4.8 1.24-4.8 3.95 0 2 .94 2.88 3.82 3.9l3.6 1.25c4.34 1.5 6.52 3.37 6.52 7.4 0 2.93-1.95 7.68-9.4 7.68-4.35 0-8.21-2.17-9.32-6.61l3.45-1.1m19.93-19.04h3.9v3.41h.09a8.38 8.38 0 0 1 7.19-3.95c5.9 0 9.5 5.06 9.5 13.76 0 10.6-5.1 13.53-9.15 13.53-2.61 0-4.83-.8-7.63-3.95v11.67h-3.9zm3.9 19.56c1.42 2 3.82 3.9 6.35 3.9 5.63 0 6.34-6.56 6.34-9.97 0-4.3-.93-10.74-6.39-10.74a7.23 7.23 0 0 0 -6.3 3.95zm21.66-27.82h4.34v3.9h-4.35v-3.9zm.22 8.26h3.9v26.22h-3.9zm12.28-4.4 3.9-1.64v8.12h6.18v2.93h-6.17v14.46c0 2.18.22 4.18 3.1 4.18a7.8 7.8 0 0 0 3.29-.76v3.1c-1.47.58-3.02.76-3.69.76-5.63 0-6.6-3.86-6.6-6.79v-14.95h-3.95v-2.93h3.94zm13.45 10.43c1.2-3.15 3.15-6.57 9.5-6.57 7.76 0 8.78 5.28 8.78 9.9v13.8c0 .57 0 1.6.22 3.06h-4.13v-4.44h-.09c-2.52 3.33-5.1 4.7-8.2 4.7-5.42 0-7.32-3.99-7.32-7.4 0-6 4.6-9.01 11.84-9.01h3.77v-1.69c0-1.77 0-5.99-5.1-5.99-3.24 0-4.75 1.82-5.9 4.66zm11.53 6.97c-5.59 0-8.87 1.77-8.87 5.72 0 2.4 1.15 4.66 4.4 4.66 1.59 0 3.72-.4 7.31-4.48v-5.9zm12.92-21.26h3.9v34.49h-3.9v-34.5z"/></g></svg>