<svg viewBox="0 0 398 67" xmlns="http://www.w3.org/2000/svg" fill-rule="evenodd" clip-rule="evenodd" stroke-linejoin="round" stroke-miterlimit="1.41"><path fill="none" d="M0-2.25h397.66v67.5H0z"/><path d="M50.48 36.16c0-7.75-5.37-11.8-12.26-11.8-5.63 0-8.21 3.91-9.4 5.64-2.39-3.78-4.7-5.64-9.8-5.64-6.24 0-8.82 3.78-10 6.1h-.14v-5.17H0v35.25h9.28V39.07c0-3.84 1.39-6.89 5.76-6.89 5.56 0 5.56 4.17 5.56 7.16v21.2h9.28V39.4c0-4.17 1.65-7.22 6.29-7.22 2.71 0 5.03 1.72 5.03 6.95v21.4h9.27V36.16zM85.66 34.57c0-8.68-9.07-10.2-14.05-10.2-7.22 0-14.7 1.52-15.76 12.32h8.94c.27-2.06 1.06-4.9 5.7-4.9 2.38 0 6.1.2 6.1 4.1 0 1.99-1.8 2.59-3.26 2.78L65 39.93c-5.9.86-10.27 4.38-10.27 11.27 0 7.28 5.43 10.28 10.73 10.28 6.3 0 9.27-2.93 11.4-5.12.2 1.99.32 2.52.85 4.18h10v-1.4c-1.12-.4-2.05-1.32-2.05-5.5V34.57zm-9.07 13.31c0 4.31-4.18 6.96-8.28 6.96-1.8 0-4.3-1-4.3-4.24 0-3.84 2.84-4.7 6.29-5.3 3.84-.6 5.36-1.19 6.3-1.92v4.5h-.01zM111.63 42.59l11.6-17.3h-10.94l-5.82 10.27-5.96-10.27H89.25l11.53 17.3-12 17.95h11.2l6.09-10.6 6.09 10.6h11.46l-11.99-17.95z" fill="#a0a0a0" fill-rule="nonzero"/><path d="M158.51 42.91c0-12.72-8.54-18.54-18.01-18.54-9.48 0-18.02 5.82-18.02 18.54 0 12.73 8.54 18.57 18.02 18.57 9.47 0 18.01-5.84 18.01-18.57zm-9.53 0c0 4.51-1.33 10.74-8.48 10.74s-8.48-6.23-8.48-10.74c0-4.5 1.33-10.73 8.48-10.73s8.47 6.23 8.47 10.73zM195.02 36.16c0-7.75-5.36-11.8-12.25-11.8-6.7 0-9.34 3.98-10.6 6.1h-.13v-5.17h-8.88v35.25h9.27v-20.2c0-5.38 3.19-8.16 7.29-8.16 5.9 0 6.03 4.38 6.03 6.95v21.4h9.27V36.16zM273.15 36.16c0-7.75-5.36-11.8-12.25-11.8-5.63 0-8.21 3.91-9.41 5.64-2.38-3.78-4.7-5.64-9.8-5.64-6.23 0-8.81 3.78-10 6.1h-.13v-5.17h-8.88v35.25h9.28V39.07c0-3.84 1.39-6.89 5.76-6.89 5.56 0 5.56 4.17 5.56 7.16v21.2h9.27V39.4c0-4.17 1.66-7.22 6.3-7.22 2.71 0 5.03 1.72 5.03 6.95v21.4h9.28V36.16zM313.77 42.91c0-12.72-8.55-18.54-18.02-18.54-9.47 0-18.02 5.82-18.02 18.54 0 12.73 8.55 18.57 18.02 18.57 9.47 0 18.02-5.84 18.02-18.57zm-9.54 0c0 4.51-1.33 10.74-8.48 10.74s-8.48-6.23-8.48-10.74c0-4.5 1.33-10.73 8.48-10.73s8.48 6.23 8.48 10.73zM328.81 15.75h-9.27v9.54h-4.76v6.63h4.76v21.4c0 4.57 1.46 7.63 9.48 7.63h1.18c1.46 0 2.92-.07 4.37-.14v-7.03c-.66.07-1.32.14-1.92.14-3.77 0-3.84-.8-3.84-2.85V31.92h5.76V25.3h-5.76v-9.54zM372.61 42.91c0-12.72-8.54-18.54-18.02-18.54-9.46 0-18.01 5.82-18.01 18.54 0 12.73 8.54 18.57 18.01 18.57 9.48 0 18.02-5.84 18.02-18.57zm-9.54 0c0 4.51-1.33 10.74-8.48 10.74s-8.48-6.23-8.48-10.74c0-4.5 1.33-10.73 8.48-10.73s8.48 6.23 8.48 10.73zM377.2 60.54h9.27V42.18c0-3.9 1.32-8.4 8.54-8.4.86 0 1.85 0 2.65.12v-9.4c-.6-.07-1.2-.14-1.8-.14-5.62 0-7.74 3.45-9.66 7.02h-.13v-6.1h-8.87v35.26z" fill="#a0a0a0" fill-rule="nonzero"/></svg>