<?xml version="1.0" encoding="UTF-8" standalone="no"?><!DOCTYPE svg PUBLIC "-//W3C//DTD SVG 1.1//EN" "http://www.w3.org/Graphics/SVG/1.1/DTD/svg11.dtd"><svg width="100%" height="100%" viewBox="0 0 136 198" version="1.1" xmlns="http://www.w3.org/2000/svg" xmlns:xlink="http://www.w3.org/1999/xlink" xml:space="preserve" xmlns:serif="http://www.serif.com/" style="fill-rule:evenodd;clip-rule:evenodd;stroke-linecap:round;stroke-linejoin:round;stroke-miterlimit:1.5;"><rect id="Pit" x="0.978" y="0.369" width="134.472" height="197.152" style="fill:none;"/><g><ellipse cx="41.299" cy="184.283" rx="13.903" ry="9.539" style="fill:#b8b8b8;"/><path d="M41.131,175.995l-0.11,0.004l-0.058,0.002l-0.168,0.008l-0.167,0.01l-0.166,0.011l-0.165,0.012l-0.165,0.014l-0.164,0.015l-0.163,0.016l-0.163,0.018l-0.162,0.019l-0.161,0.021l-0.161,0.022l-0.159,0.023l-0.159,0.024l-0.158,0.026l-0.157,0.027l-0.156,0.028l-0.156,0.03l-0.155,0.031l-0.153,0.032l-0.153,0.033l-0.152,0.035l-0.151,0.036l-0.15,0.037l-0.15,0.038l-0.148,0.039l-0.147,0.041l-0.146,0.041l-0.145,0.043l-0.145,0.044l-0.143,0.045l-0.142,0.046l-0.141,0.047l-0.14,0.049l-0.139,0.049l-0.138,0.051l-0.137,0.051l-0.135,0.053l-0.135,0.053l-0.133,0.055l-0.132,0.055l-0.131,0.057l-0.13,0.057l-0.128,0.059l-0.128,0.059l-0.126,0.061l-0.074,0.037l-0.05,0.024l-0.124,0.062l-0.122,0.063l-0.121,0.064l-0.12,0.064l-0.119,0.066l-0.117,0.066l-0.115,0.067l-0.115,0.068l-0.113,0.069l-0.111,0.07l-0.111,0.07l-0.109,0.071l-0.107,0.072l-0.106,0.072l-0.104,0.074l-0.104,0.074l-0.101,0.074l-0.1,0.076l-0.099,0.075l-0.097,0.077l-0.096,0.077l-0.094,0.078l-0.092,0.078l-0.091,0.079l-0.09,0.08l-0.087,0.08l-0.087,0.08l-0.084,0.081l-0.083,0.082l-0.082,0.082l-0.08,0.082l-0.078,0.083l-0.077,0.083l-0.075,0.084l-0.073,0.084l-0.072,0.084l-0.07,0.085l-0.068,0.085l-0.067,0.086l-0.065,0.085l-0.063,0.087l-0.062,0.086l-0.06,0.086l-0.058,0.087l-0.057,0.087l-0.054,0.088l-0.054,0.087l-0.051,0.088l-0.05,0.088l-0.048,0.088l-0.047,0.088l-0.044,0.088l-0.043,0.089l-0.042,0.088l-0.04,0.089l-0.038,0.089l-0.036,0.089l-0.034,0.089l-0.033,0.089l-0.032,0.089l-0.029,0.089l-0.028,0.09l-0.027,0.089l-0.024,0.09l-0.023,0.09l-0.022,0.089l-0.019,0.09l-0.018,0.09l-0.017,0.09l-0.014,0.091l-0.013,0.09l-0.012,0.091l-0.009,0.09l-0.008,0.091l-0.007,0.091l-0.004,0.091l-0.004,0.091l-0.001,0.092l0,0.092l0.003,0.092l0.003,0.092l0.006,0.091l0.007,0.091l0.008,0.091l0.011,0.09l0.012,0.09l0.014,0.089l0.015,0.089l0.017,0.089l0.018,0.088l0.02,0.088l0.022,0.088l0.023,0.088l0.025,0.087l0.026,0.087l0.028,0.086l0.03,0.087l0.031,0.086l0.033,0.086l0.034,0.085l0.036,0.086l0.038,0.085l0.039,0.085l0.04,0.084l0.043,0.084l0.043,0.085l0.046,0.083l0.047,0.084l0.049,0.083l0.05,0.083l0.052,0.083l0.053,0.082l0.055,0.083l0.057,0.081l0.058,0.082l0.06,0.081l0.061,0.081l0.063,0.08l0.065,0.081l0.066,0.079l0.067,0.08l0.07,0.079l0.071,0.078l0.072,0.078l0.074,0.078l0.075,0.077l0.077,0.077l0.079,0.077l0.08,0.075l0.082,0.076l0.083,0.075l0.084,0.074l0.087,0.074l0.087,0.073l0.089,0.072l0.091,0.072l0.092,0.072l0.093,0.07l0.095,0.07l0.097,0.07l0.091,0.064l0.006,0.005l0.099,0.068l0.101,0.068l0.102,0.067l0.103,0.066l0.104,0.065l0.106,0.065l0.107,0.064l0.109,0.063l0.11,0.062l0.111,0.062l0.112,0.061l0.114,0.059l0.115,0.059l0.116,0.059l0.117,0.057l0.119,0.056l0.12,0.056l0.121,0.055l0.122,0.053l0.123,0.053l0.125,0.052l0.125,0.051l0.127,0.05l0.128,0.049l0.129,0.048l0.13,0.047l0.131,0.046l0.132,0.044l0.133,0.044l0.134,0.043l0.135,0.042l0.137,0.04l0.137,0.04l0.138,0.039l0.139,0.037l0.14,0.036l0.14,0.035l0.142,0.034l0.143,0.033l0.143,0.032l0.144,0.03l0.146,0.03l0.145,0.028l0.147,0.027l0.148,0.025l0.148,0.025l0.149,0.023l0.15,0.022l0.151,0.021l0.151,0.02l0.152,0.018l0.153,0.017l0.153,0.016l0.154,0.014l0.155,0.013l0.155,0.012l0.156,0.011l0.156,0.009l0.157,0.008l0.158,0.006l0.158,0.005l0.159,0.004l0.159,0.002l0.16,0.001l0.16,0l0.118,-0.001l0.043,-0.001l0.161,-0.003l0.162,-0.004l0.16,-0.006l0.16,-0.007l0.16,-0.008l0.158,-0.01l0.158,-0.011l0.158,-0.012l0.156,-0.014l0.156,-0.015l0.156,-0.016l0.154,-0.018l0.154,-0.019l0.153,-0.02l0.153,-0.022l0.151,-0.022l0.151,-0.024l0.15,-0.025l0.149,-0.027l0.148,-0.027l0.147,-0.029l0.147,-0.03l0.146,-0.031l0.144,-0.033l0.144,-0.033l0.143,-0.035l0.142,-0.035l0.141,-0.037l0.14,-0.038l0.14,-0.039l0.138,-0.04l0.137,-0.041l0.136,-0.042l0.135,-0.044l0.134,-0.044l0.133,-0.045l0.132,-0.046l0.13,-0.048l0.13,-0.048l0.128,-0.049l0.128,-0.05l0.126,-0.051l0.125,-0.052l0.124,-0.053l0.123,-0.054l0.121,-0.055l0.12,-0.055l0.119,-0.057l0.118,-0.057l0.117,-0.058l0.115,-0.059l0.114,-0.06l0.112,-0.06l0.112,-0.061l0.109,-0.062l0.109,-0.063l0.107,-0.063l0.106,-0.064l0.105,-0.065l0.103,-0.065l0.101,-0.066l0.084,-0.056l0.017,-0.011l0.099,-0.067l0.097,-0.067l0.097,-0.068l0.094,-0.069l0.094,-0.069l0.091,-0.07l0.091,-0.07l0.088,-0.071l0.088,-0.071l0.085,-0.072l0.085,-0.072l0.082,-0.072l0.081,-0.073l0.08,-0.073l0.078,-0.074l0.076,-0.074l0.075,-0.074l0.073,-0.075l0.072,-0.075l0.07,-0.075l0.069,-0.075l0.066,-0.076l0.066,-0.076l0.063,-0.076l0.062,-0.076l0.061,-0.077l0.059,-0.076l0.057,-0.077l0.055,-0.077l0.054,-0.077l0.053,-0.077l0.05,-0.077l0.05,-0.077l0.047,-0.077l0.046,-0.077l0.045,-0.077l0.042,-0.077l0.042,-0.077l0.039,-0.078l0.038,-0.077l0.037,-0.077l0.035,-0.077l0.033,-0.077l0.032,-0.076l0.031,-0.077l0.029,-0.077l0.027,-0.077l0.026,-0.077l0.024,-0.076l0.023,-0.077l0.022,-0.076l0.02,-0.077l0.018,-0.076l0.018,-0.077l0.015,-0.076l0.015,-0.077l0.013,-0.076l0.011,-0.077l0.01,-0.077l0.009,-0.076l0.007,-0.077l0.006,-0.077l0.004,-0.077l0.003,-0.078l0.002,-0.077l0,-0.078l-0.001,-0.078l-0.001,-0.019l-0.002,-0.059l-0.003,-0.078l-0.005,-0.077l-0.007,-0.077l-0.007,-0.077l-0.009,-0.076l-0.011,-0.076l-0.012,-0.076l-0.013,-0.075l-0.015,-0.076l-0.016,-0.075l-0.018,-0.075l-0.018,-0.075l-0.021,-0.075l-0.021,-0.075l-0.023,-0.075l-0.025,-0.074l-0.026,-0.075l-0.027,-0.074l-0.029,-0.075l-0.03,-0.074l-0.031,-0.075l-0.033,-0.074l-0.035,-0.074l-0.036,-0.075l-0.037,-0.074l-0.039,-0.074l-0.041,-0.074l-0.03,-0.054l-0.012,-0.02l-0.042,-0.075l-0.045,-0.074l-0.046,-0.075l-0.047,-0.074l-0.049,-0.074l-0.05,-0.074l-0.052,-0.074l-0.054,-0.074l-0.055,-0.074l-0.057,-0.074l-0.058,-0.073l-0.06,-0.074l-0.061,-0.073l-0.063,-0.073l-0.065,-0.073l-0.066,-0.073l-0.068,-0.072l-0.069,-0.072l-0.071,-0.072l-0.072,-0.071l-0.067,-0.065l-0.007,-0.007l-0.073,-0.072l-0.076,-0.072l-0.077,-0.072l-0.078,-0.071l-0.081,-0.072l-0.081,-0.07l-0.083,-0.071l-0.085,-0.069l-0.025,-0.021l-0.06,-0.051l-0.086,-0.071l-0.087,-0.071l-0.089,-0.07l-0.091,-0.07l-0.092,-0.07l-0.093,-0.069l-0.095,-0.069l-0.024,-0.016l-0.071,-0.054l-0.096,-0.071l-0.098,-0.07l-0.098,-0.07l-0.101,-0.069l-0.102,-0.069l-0.103,-0.068l-0.105,-0.068l-0.106,-0.067l-0.108,-0.066l-0.109,-0.065l-0.11,-0.065l-0.112,-0.064l-0.113,-0.064l-0.098,-0.053l-0.017,-0.01l-0.113,-0.069l-0.114,-0.067l-0.116,-0.067l-0.118,-0.066l-0.119,-0.066l-0.12,-0.065l-0.122,-0.064l-0.123,-0.063l-0.124,-0.062l-0.126,-0.061l-0.127,-0.061l-0.129,-0.06l-0.129,-0.059l-0.132,-0.058l-0.132,-0.057l-0.133,-0.056l-0.135,-0.055l-0.136,-0.054l-0.138,-0.053l-0.138,-0.053l-0.14,-0.051l-0.141,-0.05l-0.142,-0.049l-0.102,-0.034l-0.041,-0.016l-0.143,-0.055l-0.144,-0.054l-0.146,-0.053l-0.146,-0.052l-0.148,-0.05l-0.149,-0.05l-0.151,-0.048l-0.151,-0.048l-0.153,-0.046l-0.154,-0.045l-0.155,-0.043l-0.156,-0.043l-0.158,-0.041l-0.158,-0.041l-0.16,-0.038l-0.134,-0.032l-0.027,-0.007l-0.161,-0.042l-0.163,-0.041l-0.164,-0.04l-0.165,-0.038l-0.166,-0.038l-0.167,-0.035l-0.115,-0.023l-0.058,-0.012l-0.164,0.005Zm0.359,-2.531l0.191,-0.031l0.191,-0.029l0.19,-0.028l0.191,-0.026l0.191,-0.024l0.191,-0.022l0.031,-0.004l0.159,-0.012l0.19,-0.013l0.19,-0.011l0.19,-0.01l0.189,-0.007l0.189,-0.007l0.189,-0.004l0.189,-0.003l0.189,-0.001l0.188,0.001l0.188,0.002l0.187,0.004l0.187,0.006l0.187,0.008l0.186,0.009l0.186,0.011l0.054,0.003l0.131,0.015l0.183,0.021l0.183,0.024l0.182,0.025l0.182,0.027l0.181,0.028l0.181,0.03l0.18,0.032l0.179,0.033l0.178,0.035l0.178,0.036l0.177,0.038l0.177,0.04l0.175,0.041l0.175,0.043l0.175,0.044l0.173,0.046l0.173,0.047l0.172,0.049l0.171,0.051l0.17,0.052l0.17,0.054l0.168,0.055l0.168,0.057l0.024,0.009l0.14,0.055l0.163,0.066l0.162,0.068l0.161,0.069l0.16,0.071l0.159,0.072l0.157,0.074l0.157,0.075l0.155,0.077l0.155,0.078l0.153,0.08l0.152,0.081l0.151,0.083l0.15,0.084l0.112,0.065l0.036,0.021l0.145,0.091l0.144,0.092l0.142,0.093l0.141,0.095l0.14,0.096l0.139,0.097l0.137,0.099l0.096,0.072l0.039,0.029l0.132,0.105l0.131,0.105l0.13,0.107l0.127,0.108l0.127,0.11l0.125,0.111l0.123,0.112l0.121,0.114l0.011,0.01l0.108,0.106l0.117,0.118l0.115,0.12l0.113,0.12l0.112,0.122l0.11,0.124l0.108,0.124l0.106,0.126l0.104,0.128l0.103,0.128l0.1,0.13l0.099,0.131l0.097,0.133l0.094,0.134l0.093,0.135l0.091,0.136l0.088,0.138l0.087,0.139l0.084,0.14l0.082,0.142l0.08,0.142l0.021,0.039l0.056,0.106l0.075,0.145l0.072,0.147l0.07,0.148l0.068,0.149l0.065,0.15l0.063,0.152l0.06,0.152l0.057,0.154l0.055,0.154l0.053,0.156l0.05,0.157l0.047,0.157l0.044,0.159l0.042,0.159l0.039,0.161l0.036,0.161l0.033,0.162l0.03,0.163l0.028,0.164l0.024,0.164l0.022,0.165l0.018,0.165l0.016,0.167l0.012,0.166l0.009,0.168l0.007,0.167l0.003,0.168l0,0.128l0,0.041l-0.003,0.168l-0.007,0.168l-0.01,0.167l-0.013,0.167l-0.016,0.166l-0.018,0.166l-0.022,0.165l-0.025,0.164l-0.028,0.163l-0.03,0.162l-0.034,0.162l-0.036,0.161l-0.039,0.159l-0.042,0.159l-0.045,0.158l-0.047,0.157l-0.05,0.155l-0.053,0.155l-0.055,0.154l-0.058,0.152l-0.061,0.151l-0.062,0.15l-0.066,0.149l-0.067,0.148l-0.071,0.146l-0.072,0.145l-0.075,0.144l-0.077,0.143l-0.079,0.141l-0.082,0.14l-0.083,0.139l-0.086,0.138l-0.088,0.136l-0.09,0.135l-0.092,0.133l-0.094,0.132l-0.096,0.131l-0.097,0.13l-0.1,0.128l-0.102,0.127l-0.103,0.125l-0.106,0.124l-0.107,0.123l-0.109,0.121l-0.111,0.12l-0.112,0.119l-0.114,0.117l-0.116,0.116l-0.117,0.115l-0.119,0.113l-0.121,0.112l-0.122,0.11l-0.124,0.109l-0.125,0.108l-0.127,0.107l-0.129,0.105l-0.13,0.104l-0.131,0.102l-0.133,0.101l-0.134,0.1l-0.136,0.098l-0.137,0.097l-0.138,0.095l-0.14,0.095l-0.141,0.093l-0.142,0.091l-0.144,0.09l-0.024,0.015l-0.122,0.074l-0.146,0.087l-0.148,0.085l-0.149,0.084l-0.151,0.083l-0.151,0.082l-0.153,0.08l-0.154,0.078l-0.155,0.078l-0.156,0.076l-0.158,0.074l-0.158,0.073l-0.16,0.072l-0.161,0.07l-0.162,0.069l-0.163,0.067l-0.164,0.066l-0.165,0.065l-0.166,0.063l-0.167,0.062l-0.169,0.06l-0.169,0.059l-0.17,0.057l-0.171,0.056l-0.172,0.055l-0.173,0.053l-0.174,0.051l-0.175,0.051l-0.176,0.048l-0.177,0.047l-0.177,0.046l-0.179,0.044l-0.179,0.043l-0.18,0.041l-0.181,0.039l-0.182,0.038l-0.183,0.037l-0.183,0.035l-0.184,0.033l-0.185,0.032l-0.186,0.03l-0.186,0.029l-0.188,0.027l-0.187,0.025l-0.189,0.024l-0.189,0.023l-0.19,0.02l-0.191,0.019l-0.191,0.018l-0.192,0.016l-0.192,0.014l-0.194,0.012l-0.193,0.011l-0.195,0.01l-0.194,0.007l-0.196,0.006l-0.196,0.004l-0.196,0.003l-0.197,0l-0.198,-0.001l-0.198,-0.002l-0.197,-0.005l-0.053,-0.001l-0.145,-0.005l-0.196,-0.008l-0.196,-0.01l-0.196,-0.012l-0.194,-0.013l-0.194,-0.015l-0.194,-0.016l-0.192,-0.018l-0.192,-0.02l-0.191,-0.021l-0.191,-0.023l-0.19,-0.025l-0.188,-0.026l-0.189,-0.028l-0.187,-0.029l-0.186,-0.031l-0.186,-0.032l-0.185,-0.034l-0.184,-0.035l-0.183,-0.037l-0.182,-0.039l-0.182,-0.04l-0.18,-0.041l-0.18,-0.043l-0.179,-0.044l-0.177,-0.046l-0.177,-0.048l-0.176,-0.048l-0.175,-0.051l-0.174,-0.051l-0.173,-0.053l-0.172,-0.055l-0.17,-0.056l-0.17,-0.057l-0.169,-0.058l-0.168,-0.06l-0.166,-0.062l-0.166,-0.063l-0.164,-0.064l-0.164,-0.065l-0.162,-0.067l-0.161,-0.068l-0.16,-0.07l-0.159,-0.07l-0.157,-0.072l-0.157,-0.074l-0.155,-0.075l-0.154,-0.076l-0.153,-0.077l-0.151,-0.078l-0.151,-0.08l-0.149,-0.081l-0.148,-0.083l-0.146,-0.084l-0.145,-0.084l-0.144,-0.087l-0.142,-0.087l-0.142,-0.089l-0.139,-0.089l-0.139,-0.092l-0.137,-0.092l-0.135,-0.093l-0.135,-0.095l-0.132,-0.096l-0.132,-0.097l-0.129,-0.099l-0.009,-0.006l-0.12,-0.093l-0.126,-0.101l-0.125,-0.102l-0.124,-0.104l-0.122,-0.104l-0.121,-0.106l-0.118,-0.106l-0.118,-0.108l-0.115,-0.109l-0.114,-0.111l-0.113,-0.111l-0.11,-0.113l-0.109,-0.113l-0.108,-0.115l-0.105,-0.116l-0.104,-0.117l-0.102,-0.118l-0.1,-0.119l-0.099,-0.121l-0.096,-0.121l-0.095,-0.123l-0.092,-0.124l-0.091,-0.125l-0.089,-0.125l-0.087,-0.127l-0.085,-0.128l-0.083,-0.129l-0.081,-0.13l-0.079,-0.132l-0.076,-0.132l-0.075,-0.133l-0.072,-0.134l-0.071,-0.135l-0.068,-0.137l-0.065,-0.137l-0.064,-0.138l-0.061,-0.139l-0.059,-0.14l-0.057,-0.141l-0.054,-0.142l-0.052,-0.142l-0.049,-0.144l-0.047,-0.144l-0.045,-0.145l-0.042,-0.146l-0.039,-0.147l-0.037,-0.147l-0.034,-0.148l-0.032,-0.149l-0.029,-0.149l-0.026,-0.15l-0.024,-0.151l-0.021,-0.151l-0.018,-0.152l-0.016,-0.152l-0.012,-0.153l-0.01,-0.153l-0.007,-0.154l-0.005,-0.153l-0.001,-0.155l0.002,-0.154l0.004,-0.155l0.007,-0.154l0.01,-0.153l0.013,-0.153l0.015,-0.152l0.019,-0.151l0.021,-0.151l0.023,-0.151l0.027,-0.149l0.029,-0.149l0.032,-0.148l0.034,-0.147l0.037,-0.146l0.039,-0.145l0.042,-0.145l0.045,-0.143l0.047,-0.143l0.049,-0.142l0.052,-0.14l0.054,-0.14l0.056,-0.139l0.059,-0.138l0.061,-0.136l0.064,-0.136l0.065,-0.134l0.068,-0.134l0.07,-0.132l0.072,-0.132l0.074,-0.13l0.076,-0.129l0.078,-0.128l0.081,-0.126l0.082,-0.126l0.084,-0.124l0.087,-0.124l0.088,-0.122l0.09,-0.121l0.092,-0.12l0.093,-0.118l0.096,-0.118l0.097,-0.116l0.099,-0.115l0.101,-0.114l0.103,-0.113l0.104,-0.111l0.106,-0.11l0.107,-0.109l0.11,-0.108l0.11,-0.107l0.113,-0.105l0.114,-0.105l0.115,-0.103l0.118,-0.101l0.118,-0.101l0.12,-0.099l0.122,-0.098l0.123,-0.097l0.125,-0.096l0.126,-0.094l0.127,-0.094l0.129,-0.092l0.13,-0.09l0.132,-0.09l0.133,-0.088l0.134,-0.087l0.135,-0.086l0.137,-0.084l0.139,-0.083l0.139,-0.082l0.141,-0.081l0.142,-0.079l0.143,-0.078l0.144,-0.077l0.146,-0.076l0.147,-0.074l0.148,-0.073l0.149,-0.072l0.15,-0.07l0.152,-0.069l0.152,-0.068l0.062,-0.026l0.092,-0.04l0.155,-0.065l0.156,-0.063l0.157,-0.063l0.158,-0.061l0.159,-0.059l0.16,-0.058l0.161,-0.057l0.162,-0.055l0.163,-0.055l0.164,-0.052l0.165,-0.052l0.166,-0.049l0.167,-0.049l0.168,-0.047l0.169,-0.046l0.169,-0.044l0.171,-0.043l0.171,-0.041l0.172,-0.04l0.173,-0.038l0.174,-0.038l0.175,-0.035l0.175,-0.034l0.177,-0.033l0.177,-0.031l0.177,-0.03l0.179,-0.028l0.179,-0.026l0.18,-0.025l0.181,-0.024l0.181,-0.022l0.182,-0.02l0.183,-0.019l0.183,-0.018l0.184,-0.016l0.184,-0.014l0.186,-0.013l0.185,-0.011l0.187,-0.009l0.187,-0.008l0.187,-0.006l0.188,-0.005l0.188,-0.003l0.189,-0.001l0.19,0l0.065,0.001l0.125,0.001l0.195,0.004l0.063,-0.012l0.123,-0.022Z"/><ellipse cx="74.259" cy="184.366" rx="13.903" ry="9.539" style="fill:#b8b8b8;"/><path d="M74.091,176.078l-0.11,0.004l-0.058,0.002l-0.168,0.008l-0.167,0.01l-0.166,0.011l-0.165,0.012l-0.165,0.014l-0.164,0.015l-0.163,0.016l-0.163,0.018l-0.162,0.019l-0.161,0.021l-0.161,0.022l-0.159,0.023l-0.159,0.024l-0.158,0.026l-0.157,0.027l-0.156,0.028l-0.156,0.03l-0.155,0.031l-0.153,0.032l-0.153,0.033l-0.152,0.035l-0.151,0.036l-0.15,0.037l-0.15,0.038l-0.148,0.039l-0.147,0.041l-0.146,0.041l-0.145,0.043l-0.145,0.044l-0.143,0.045l-0.142,0.046l-0.141,0.047l-0.14,0.049l-0.139,0.049l-0.138,0.051l-0.137,0.051l-0.135,0.053l-0.135,0.053l-0.133,0.055l-0.132,0.055l-0.131,0.057l-0.13,0.057l-0.128,0.059l-0.128,0.059l-0.126,0.061l-0.074,0.037l-0.05,0.024l-0.124,0.062l-0.122,0.063l-0.121,0.064l-0.12,0.064l-0.119,0.066l-0.117,0.066l-0.115,0.067l-0.115,0.068l-0.113,0.069l-0.111,0.07l-0.111,0.07l-0.109,0.071l-0.107,0.072l-0.106,0.072l-0.104,0.074l-0.104,0.074l-0.101,0.074l-0.1,0.076l-0.099,0.075l-0.097,0.077l-0.096,0.077l-0.094,0.078l-0.092,0.078l-0.091,0.079l-0.09,0.08l-0.087,0.08l-0.087,0.08l-0.084,0.081l-0.083,0.082l-0.082,0.082l-0.08,0.082l-0.078,0.083l-0.077,0.083l-0.075,0.084l-0.073,0.084l-0.072,0.084l-0.07,0.085l-0.068,0.085l-0.067,0.086l-0.065,0.085l-0.063,0.087l-0.062,0.086l-0.06,0.086l-0.058,0.087l-0.057,0.087l-0.054,0.088l-0.054,0.087l-0.051,0.088l-0.05,0.088l-0.048,0.088l-0.047,0.088l-0.044,0.088l-0.043,0.089l-0.042,0.088l-0.04,0.089l-0.038,0.089l-0.036,0.089l-0.034,0.089l-0.033,0.089l-0.032,0.089l-0.029,0.089l-0.028,0.09l-0.027,0.089l-0.024,0.09l-0.023,0.09l-0.022,0.089l-0.019,0.09l-0.018,0.09l-0.017,0.09l-0.014,0.091l-0.013,0.09l-0.012,0.091l-0.009,0.09l-0.008,0.091l-0.007,0.091l-0.004,0.091l-0.004,0.091l-0.001,0.092l0,0.092l0.003,0.092l0.003,0.092l0.006,0.091l0.007,0.091l0.008,0.091l0.011,0.09l0.012,0.09l0.014,0.089l0.015,0.089l0.017,0.089l0.018,0.088l0.02,0.089l0.022,0.087l0.023,0.088l0.025,0.087l0.026,0.087l0.028,0.086l0.03,0.087l0.031,0.086l0.033,0.086l0.034,0.085l0.036,0.086l0.038,0.085l0.039,0.085l0.04,0.084l0.043,0.084l0.043,0.085l0.046,0.083l0.047,0.084l0.049,0.083l0.05,0.083l0.052,0.083l0.053,0.082l0.055,0.083l0.057,0.081l0.058,0.082l0.06,0.081l0.061,0.081l0.063,0.08l0.065,0.081l0.066,0.079l0.067,0.08l0.07,0.079l0.071,0.078l0.072,0.078l0.074,0.078l0.075,0.077l0.077,0.077l0.079,0.077l0.08,0.075l0.082,0.076l0.083,0.075l0.084,0.074l0.087,0.074l0.087,0.073l0.089,0.072l0.091,0.072l0.092,0.072l0.093,0.07l0.095,0.07l0.097,0.07l0.091,0.064l0.006,0.005l0.099,0.068l0.101,0.068l0.102,0.067l0.103,0.066l0.104,0.065l0.106,0.065l0.107,0.064l0.109,0.063l0.11,0.062l0.111,0.062l0.112,0.061l0.114,0.059l0.115,0.06l0.116,0.058l0.117,0.057l0.119,0.056l0.12,0.056l0.121,0.055l0.122,0.053l0.123,0.053l0.125,0.052l0.125,0.051l0.127,0.05l0.128,0.049l0.129,0.048l0.13,0.047l0.131,0.046l0.132,0.044l0.133,0.044l0.134,0.043l0.135,0.042l0.137,0.04l0.137,0.04l0.138,0.039l0.139,0.037l0.14,0.036l0.14,0.035l0.142,0.034l0.143,0.033l0.143,0.032l0.144,0.03l0.146,0.03l0.145,0.028l0.147,0.027l0.148,0.025l0.148,0.025l0.149,0.023l0.15,0.022l0.151,0.021l0.151,0.02l0.152,0.018l0.153,0.017l0.153,0.016l0.154,0.014l0.155,0.013l0.155,0.012l0.156,0.011l0.156,0.009l0.157,0.008l0.158,0.006l0.158,0.005l0.159,0.004l0.159,0.002l0.16,0.001l0.16,0l0.118,-0.001l0.043,-0.001l0.161,-0.003l0.162,-0.004l0.16,-0.006l0.16,-0.007l0.16,-0.008l0.158,-0.01l0.158,-0.011l0.158,-0.012l0.156,-0.014l0.156,-0.015l0.156,-0.016l0.154,-0.018l0.154,-0.019l0.153,-0.02l0.153,-0.022l0.151,-0.022l0.151,-0.024l0.15,-0.025l0.149,-0.027l0.148,-0.027l0.147,-0.029l0.147,-0.03l0.146,-0.031l0.144,-0.033l0.144,-0.033l0.143,-0.035l0.142,-0.035l0.141,-0.037l0.14,-0.038l0.14,-0.039l0.138,-0.04l0.137,-0.041l0.136,-0.042l0.135,-0.044l0.134,-0.044l0.133,-0.045l0.132,-0.046l0.13,-0.048l0.13,-0.048l0.129,-0.049l0.127,-0.05l0.126,-0.051l0.125,-0.052l0.124,-0.053l0.123,-0.054l0.121,-0.055l0.12,-0.055l0.119,-0.057l0.118,-0.057l0.117,-0.058l0.115,-0.059l0.114,-0.06l0.112,-0.06l0.112,-0.061l0.109,-0.062l0.109,-0.063l0.107,-0.063l0.106,-0.064l0.105,-0.065l0.103,-0.065l0.101,-0.066l0.084,-0.056l0.017,-0.011l0.099,-0.067l0.097,-0.067l0.097,-0.068l0.094,-0.069l0.094,-0.069l0.091,-0.07l0.091,-0.07l0.088,-0.071l0.088,-0.071l0.085,-0.071l0.085,-0.073l0.082,-0.072l0.081,-0.073l0.08,-0.073l0.078,-0.074l0.076,-0.074l0.075,-0.074l0.073,-0.075l0.072,-0.075l0.07,-0.075l0.069,-0.075l0.066,-0.076l0.066,-0.076l0.063,-0.076l0.062,-0.076l0.061,-0.077l0.059,-0.076l0.057,-0.077l0.055,-0.077l0.054,-0.077l0.053,-0.077l0.05,-0.077l0.05,-0.077l0.047,-0.077l0.046,-0.077l0.045,-0.077l0.042,-0.077l0.042,-0.077l0.039,-0.077l0.038,-0.078l0.037,-0.077l0.035,-0.077l0.033,-0.077l0.032,-0.076l0.031,-0.077l0.029,-0.077l0.027,-0.077l0.026,-0.076l0.024,-0.077l0.023,-0.077l0.022,-0.076l0.02,-0.077l0.018,-0.076l0.018,-0.077l0.015,-0.076l0.015,-0.077l0.013,-0.076l0.011,-0.077l0.01,-0.077l0.009,-0.076l0.007,-0.077l0.006,-0.077l0.004,-0.077l0.003,-0.078l0.002,-0.077l0,-0.078l-0.001,-0.078l-0.001,-0.019l-0.002,-0.059l-0.003,-0.078l-0.005,-0.077l-0.007,-0.077l-0.007,-0.077l-0.009,-0.076l-0.011,-0.076l-0.012,-0.076l-0.013,-0.075l-0.015,-0.076l-0.016,-0.075l-0.018,-0.075l-0.018,-0.075l-0.021,-0.075l-0.021,-0.075l-0.023,-0.075l-0.025,-0.074l-0.026,-0.075l-0.027,-0.074l-0.029,-0.075l-0.03,-0.074l-0.031,-0.075l-0.033,-0.074l-0.035,-0.074l-0.036,-0.074l-0.037,-0.075l-0.039,-0.074l-0.041,-0.074l-0.03,-0.054l-0.012,-0.02l-0.042,-0.075l-0.045,-0.074l-0.046,-0.075l-0.047,-0.074l-0.049,-0.074l-0.05,-0.074l-0.052,-0.074l-0.054,-0.074l-0.055,-0.074l-0.057,-0.074l-0.058,-0.073l-0.06,-0.074l-0.061,-0.073l-0.063,-0.073l-0.065,-0.073l-0.066,-0.073l-0.068,-0.072l-0.069,-0.072l-0.071,-0.072l-0.072,-0.071l-0.067,-0.065l-0.007,-0.007l-0.073,-0.072l-0.076,-0.072l-0.077,-0.072l-0.078,-0.071l-0.081,-0.072l-0.081,-0.07l-0.083,-0.071l-0.085,-0.069l-0.025,-0.021l-0.06,-0.051l-0.086,-0.071l-0.087,-0.071l-0.089,-0.07l-0.091,-0.07l-0.092,-0.07l-0.093,-0.069l-0.095,-0.069l-0.024,-0.016l-0.071,-0.054l-0.096,-0.071l-0.098,-0.07l-0.098,-0.07l-0.101,-0.069l-0.102,-0.069l-0.103,-0.068l-0.105,-0.068l-0.106,-0.067l-0.108,-0.066l-0.109,-0.065l-0.11,-0.065l-0.112,-0.064l-0.113,-0.064l-0.098,-0.053l-0.017,-0.01l-0.113,-0.069l-0.114,-0.067l-0.116,-0.067l-0.118,-0.066l-0.119,-0.066l-0.12,-0.065l-0.122,-0.064l-0.123,-0.063l-0.124,-0.062l-0.126,-0.061l-0.127,-0.061l-0.129,-0.06l-0.129,-0.059l-0.132,-0.058l-0.132,-0.057l-0.133,-0.056l-0.135,-0.055l-0.136,-0.054l-0.138,-0.053l-0.138,-0.053l-0.14,-0.051l-0.141,-0.05l-0.142,-0.049l-0.102,-0.034l-0.041,-0.016l-0.143,-0.055l-0.144,-0.054l-0.146,-0.053l-0.146,-0.052l-0.148,-0.05l-0.149,-0.05l-0.151,-0.048l-0.151,-0.048l-0.153,-0.046l-0.154,-0.045l-0.155,-0.043l-0.156,-0.043l-0.158,-0.041l-0.158,-0.041l-0.16,-0.038l-0.134,-0.032l-0.027,-0.007l-0.161,-0.042l-0.163,-0.041l-0.164,-0.04l-0.165,-0.038l-0.166,-0.037l-0.167,-0.036l-0.115,-0.023l-0.058,-0.012l-0.164,0.005Zm0.359,-2.531l0.191,-0.031l0.191,-0.029l0.191,-0.028l0.19,-0.026l0.191,-0.024l0.191,-0.022l0.031,-0.004l0.159,-0.012l0.19,-0.013l0.19,-0.011l0.19,-0.01l0.189,-0.007l0.189,-0.007l0.189,-0.004l0.189,-0.003l0.189,-0.001l0.188,0.001l0.188,0.002l0.187,0.004l0.187,0.006l0.187,0.008l0.186,0.009l0.186,0.011l0.054,0.003l0.131,0.015l0.183,0.022l0.183,0.023l0.182,0.025l0.182,0.027l0.181,0.028l0.181,0.03l0.18,0.032l0.179,0.033l0.178,0.035l0.178,0.036l0.177,0.038l0.177,0.04l0.175,0.041l0.175,0.043l0.175,0.044l0.173,0.046l0.173,0.047l0.172,0.049l0.171,0.051l0.17,0.052l0.17,0.054l0.168,0.055l0.168,0.057l0.024,0.009l0.14,0.055l0.163,0.066l0.162,0.068l0.161,0.069l0.16,0.071l0.159,0.072l0.157,0.074l0.157,0.075l0.155,0.077l0.155,0.078l0.153,0.08l0.152,0.081l0.151,0.083l0.15,0.084l0.112,0.065l0.036,0.021l0.145,0.091l0.144,0.092l0.142,0.093l0.141,0.095l0.14,0.096l0.139,0.097l0.137,0.099l0.096,0.072l0.039,0.029l0.132,0.105l0.131,0.105l0.13,0.107l0.127,0.108l0.127,0.11l0.125,0.111l0.123,0.112l0.121,0.114l0.011,0.01l0.108,0.106l0.117,0.118l0.115,0.12l0.113,0.12l0.112,0.122l0.11,0.124l0.108,0.124l0.106,0.126l0.104,0.128l0.103,0.128l0.1,0.13l0.099,0.131l0.097,0.133l0.094,0.134l0.093,0.135l0.091,0.136l0.088,0.138l0.087,0.139l0.084,0.14l0.082,0.142l0.08,0.142l0.021,0.039l0.056,0.106l0.075,0.145l0.072,0.147l0.07,0.148l0.068,0.149l0.065,0.15l0.063,0.152l0.06,0.152l0.057,0.154l0.055,0.154l0.053,0.156l0.05,0.157l0.047,0.157l0.044,0.159l0.042,0.159l0.039,0.161l0.036,0.161l0.033,0.162l0.03,0.163l0.028,0.164l0.024,0.164l0.022,0.165l0.018,0.165l0.016,0.167l0.012,0.166l0.01,0.168l0.006,0.167l0.003,0.168l0,0.128l0,0.041l-0.003,0.168l-0.007,0.168l-0.01,0.167l-0.013,0.167l-0.016,0.166l-0.018,0.166l-0.022,0.165l-0.025,0.164l-0.028,0.163l-0.03,0.162l-0.034,0.162l-0.036,0.161l-0.039,0.159l-0.042,0.159l-0.045,0.158l-0.047,0.157l-0.05,0.155l-0.053,0.155l-0.055,0.154l-0.058,0.152l-0.061,0.151l-0.062,0.15l-0.066,0.149l-0.067,0.148l-0.071,0.146l-0.072,0.145l-0.075,0.144l-0.077,0.143l-0.079,0.141l-0.082,0.14l-0.083,0.139l-0.086,0.138l-0.088,0.136l-0.09,0.135l-0.092,0.133l-0.094,0.132l-0.096,0.131l-0.097,0.13l-0.1,0.128l-0.102,0.127l-0.103,0.125l-0.106,0.124l-0.107,0.123l-0.109,0.121l-0.11,0.12l-0.113,0.119l-0.114,0.117l-0.116,0.116l-0.117,0.115l-0.119,0.113l-0.121,0.112l-0.122,0.11l-0.124,0.11l-0.125,0.107l-0.127,0.107l-0.129,0.105l-0.13,0.104l-0.131,0.102l-0.133,0.101l-0.134,0.1l-0.136,0.098l-0.137,0.097l-0.138,0.095l-0.14,0.095l-0.141,0.093l-0.142,0.091l-0.144,0.09l-0.024,0.015l-0.122,0.074l-0.146,0.087l-0.148,0.085l-0.149,0.084l-0.151,0.083l-0.151,0.082l-0.153,0.08l-0.154,0.078l-0.155,0.078l-0.156,0.076l-0.158,0.074l-0.158,0.073l-0.16,0.072l-0.161,0.07l-0.162,0.069l-0.163,0.067l-0.164,0.066l-0.165,0.065l-0.166,0.063l-0.167,0.062l-0.169,0.06l-0.169,0.059l-0.17,0.057l-0.171,0.056l-0.172,0.055l-0.173,0.053l-0.174,0.051l-0.175,0.051l-0.176,0.048l-0.177,0.047l-0.177,0.046l-0.179,0.044l-0.179,0.043l-0.18,0.041l-0.181,0.039l-0.182,0.038l-0.183,0.037l-0.183,0.035l-0.184,0.033l-0.185,0.032l-0.186,0.03l-0.186,0.029l-0.188,0.027l-0.187,0.025l-0.189,0.024l-0.189,0.023l-0.19,0.02l-0.191,0.019l-0.191,0.018l-0.192,0.016l-0.192,0.014l-0.194,0.013l-0.193,0.01l-0.195,0.01l-0.194,0.007l-0.196,0.006l-0.196,0.004l-0.196,0.003l-0.197,0l-0.198,-0.001l-0.198,-0.002l-0.197,-0.005l-0.053,-0.001l-0.145,-0.005l-0.196,-0.008l-0.196,-0.01l-0.196,-0.012l-0.194,-0.013l-0.194,-0.015l-0.194,-0.016l-0.192,-0.018l-0.192,-0.02l-0.191,-0.021l-0.191,-0.023l-0.19,-0.025l-0.188,-0.026l-0.189,-0.028l-0.187,-0.029l-0.186,-0.031l-0.186,-0.032l-0.185,-0.034l-0.184,-0.035l-0.183,-0.037l-0.182,-0.039l-0.182,-0.04l-0.18,-0.041l-0.18,-0.043l-0.179,-0.044l-0.177,-0.046l-0.177,-0.048l-0.176,-0.048l-0.175,-0.051l-0.174,-0.051l-0.173,-0.053l-0.172,-0.055l-0.17,-0.055l-0.17,-0.058l-0.169,-0.058l-0.168,-0.06l-0.166,-0.062l-0.166,-0.063l-0.164,-0.064l-0.164,-0.065l-0.162,-0.067l-0.161,-0.068l-0.16,-0.07l-0.159,-0.07l-0.157,-0.072l-0.157,-0.074l-0.155,-0.075l-0.154,-0.076l-0.153,-0.077l-0.151,-0.078l-0.151,-0.08l-0.149,-0.081l-0.148,-0.083l-0.146,-0.084l-0.145,-0.084l-0.144,-0.087l-0.142,-0.087l-0.142,-0.089l-0.139,-0.089l-0.139,-0.092l-0.137,-0.092l-0.135,-0.093l-0.135,-0.095l-0.132,-0.096l-0.132,-0.097l-0.129,-0.099l-0.009,-0.006l-0.12,-0.093l-0.126,-0.101l-0.125,-0.102l-0.124,-0.104l-0.122,-0.104l-0.121,-0.106l-0.118,-0.106l-0.118,-0.108l-0.115,-0.109l-0.114,-0.111l-0.113,-0.111l-0.11,-0.113l-0.109,-0.113l-0.108,-0.115l-0.105,-0.116l-0.104,-0.117l-0.102,-0.118l-0.1,-0.119l-0.099,-0.121l-0.096,-0.121l-0.095,-0.123l-0.092,-0.124l-0.091,-0.124l-0.089,-0.126l-0.087,-0.127l-0.085,-0.128l-0.083,-0.129l-0.081,-0.13l-0.079,-0.132l-0.076,-0.132l-0.075,-0.133l-0.072,-0.134l-0.071,-0.135l-0.068,-0.137l-0.065,-0.137l-0.064,-0.138l-0.061,-0.139l-0.059,-0.14l-0.057,-0.141l-0.054,-0.141l-0.052,-0.143l-0.049,-0.144l-0.047,-0.144l-0.045,-0.145l-0.042,-0.146l-0.039,-0.147l-0.037,-0.147l-0.034,-0.148l-0.032,-0.149l-0.029,-0.149l-0.026,-0.15l-0.024,-0.151l-0.021,-0.151l-0.018,-0.152l-0.016,-0.152l-0.012,-0.153l-0.01,-0.153l-0.007,-0.154l-0.005,-0.153l-0.001,-0.155l0.002,-0.154l0.004,-0.155l0.007,-0.154l0.01,-0.153l0.013,-0.153l0.015,-0.152l0.019,-0.151l0.021,-0.151l0.023,-0.15l0.027,-0.15l0.029,-0.149l0.032,-0.148l0.034,-0.147l0.037,-0.146l0.039,-0.145l0.042,-0.145l0.045,-0.143l0.047,-0.143l0.049,-0.142l0.052,-0.14l0.054,-0.14l0.056,-0.139l0.059,-0.138l0.061,-0.136l0.064,-0.136l0.065,-0.134l0.068,-0.134l0.07,-0.132l0.072,-0.132l0.074,-0.13l0.076,-0.129l0.079,-0.128l0.08,-0.126l0.082,-0.126l0.084,-0.124l0.087,-0.124l0.088,-0.122l0.09,-0.121l0.092,-0.12l0.093,-0.118l0.096,-0.118l0.097,-0.116l0.099,-0.115l0.101,-0.114l0.103,-0.113l0.104,-0.111l0.106,-0.11l0.107,-0.109l0.11,-0.108l0.11,-0.107l0.113,-0.105l0.114,-0.105l0.115,-0.103l0.118,-0.101l0.118,-0.101l0.12,-0.099l0.122,-0.098l0.123,-0.097l0.125,-0.096l0.126,-0.094l0.127,-0.094l0.129,-0.092l0.13,-0.09l0.132,-0.09l0.133,-0.088l0.134,-0.087l0.135,-0.086l0.137,-0.084l0.139,-0.083l0.139,-0.082l0.141,-0.081l0.142,-0.079l0.143,-0.078l0.144,-0.077l0.146,-0.076l0.147,-0.074l0.148,-0.073l0.149,-0.072l0.15,-0.07l0.152,-0.069l0.152,-0.068l0.062,-0.026l0.092,-0.04l0.155,-0.065l0.156,-0.063l0.157,-0.063l0.158,-0.061l0.159,-0.059l0.16,-0.058l0.161,-0.057l0.162,-0.055l0.163,-0.055l0.164,-0.052l0.165,-0.051l0.166,-0.05l0.167,-0.049l0.168,-0.047l0.169,-0.046l0.169,-0.044l0.171,-0.043l0.171,-0.041l0.172,-0.04l0.173,-0.038l0.174,-0.038l0.175,-0.035l0.175,-0.034l0.177,-0.033l0.177,-0.031l0.177,-0.03l0.179,-0.028l0.179,-0.026l0.18,-0.025l0.181,-0.024l0.181,-0.022l0.182,-0.02l0.183,-0.019l0.183,-0.018l0.184,-0.016l0.184,-0.014l0.186,-0.013l0.185,-0.011l0.187,-0.009l0.187,-0.008l0.187,-0.006l0.188,-0.005l0.188,-0.003l0.189,-0.001l0.19,0l0.065,0.001l0.125,0.001l0.195,0.004l0.063,-0.012l0.123,-0.022Z"/><path d="M102.372,182.883c12.286,-16.224 21.133,-37.65 24.931,-60.377c3.593,-21.5 2.447,-42.849 -3.252,-60.545l-100.903,1.155c-7.739,13.901 -13.287,30.029 -16.082,46.75c-4.61,27.584 -1.374,54.602 8.863,74.007l86.443,-0.99Z" style="fill:#c2c2c2;"/><path d="M103.392,184.31l-0.229,0.139l-0.246,0.101l-0.259,0.064l-0.266,0.023l-1.802,0.031l-46.391,0.796l-38.245,0.646l-0.35,-0.022l-0.343,-0.076l-0.326,-0.129l-0.303,-0.179l-0.272,-0.224l-0.233,-0.264l-0.189,-0.297l-0.001,0l-0.122,-0.231l-0.124,-0.235l-0.123,-0.235l-0.123,-0.236l-0.121,-0.237l-0.122,-0.237l-0.12,-0.238l-0.12,-0.239l-0.119,-0.239l-0.119,-0.24l-0.117,-0.241l-0.118,-0.242l-0.116,-0.242l-0.116,-0.243l-0.115,-0.243l-0.114,-0.244l-0.114,-0.245l-0.113,-0.245l-0.113,-0.246l-0.112,-0.247l-0.111,-0.247l-0.11,-0.248l-0.11,-0.249l-0.109,-0.249l-0.108,-0.25l-0.108,-0.25l-0.107,-0.251l-0.106,-0.252l-0.106,-0.252l-0.105,-0.253l-0.104,-0.254l-0.104,-0.254l-0.103,-0.255l-0.102,-0.255l-0.102,-0.256l-0.101,-0.257l-0.1,-0.257l-0.1,-0.258l-0.099,-0.258l-0.098,-0.259l-0.098,-0.26l-0.097,-0.26l-0.096,-0.261l-0.096,-0.261l-0.094,-0.262l-0.095,-0.263l-0.093,-0.263l-0.093,-0.263l-0.092,-0.265l-0.092,-0.264l-0.091,-0.266l-0.09,-0.266l-0.089,-0.266l-0.089,-0.267l-0.088,-0.268l-0.088,-0.268l-0.086,-0.269l-0.086,-0.269l-0.086,-0.27l-0.084,-0.27l-0.085,-0.271l-0.083,-0.271l-0.083,-0.272l-0.082,-0.273l-0.081,-0.273l-0.081,-0.273l-0.08,-0.274l-0.079,-0.275l-0.078,-0.275l-0.078,-0.276l-0.078,-0.276l-0.076,-0.277l-0.076,-0.277l-0.075,-0.277l-0.075,-0.279l-0.074,-0.278l-0.073,-0.28l-0.072,-0.279l-0.072,-0.28l-0.071,-0.281l-0.071,-0.281l-0.069,-0.282l-0.07,-0.282l-0.068,-0.283l-0.068,-0.283l-0.067,-0.283l-0.066,-0.284l-0.066,-0.285l-0.065,-0.285l-0.064,-0.285l-0.064,-0.286l-0.063,-0.288l-0.123,-0.573l-0.121,-0.576l-0.119,-0.578l-0.115,-0.579l-0.113,-0.582l-0.11,-0.583l-0.107,-0.585l-0.105,-0.586l-0.102,-0.589l-0.099,-0.589l-0.096,-0.592l-0.094,-0.593l-0.09,-0.595l-0.089,-0.596l-0.085,-0.598l-0.082,-0.6l-0.08,-0.601l-0.077,-0.602l-0.074,-0.604l-0.072,-0.606l-0.068,-0.607l-0.066,-0.608l-0.063,-0.61l-0.061,-0.611l-0.057,-0.613l-0.055,-0.613l-0.052,-0.616l-0.049,-0.616l-0.046,-0.618l-0.044,-0.619l-0.041,-0.621l-0.038,-0.621l-0.035,-0.623l-0.032,-0.624l-0.03,-0.625l-0.027,-0.627l-0.024,-0.627l-0.021,-0.629l-0.018,-0.629l-0.016,-0.631l-0.013,-0.632l-0.01,-0.633l-0.007,-0.634l-0.004,-0.634l-0.001,-0.636l0.001,-0.637l0.004,-0.638l0.007,-0.639l0.01,-0.639l0.013,-0.641l0.015,-0.641l0.019,-0.642l0.021,-0.643l0.024,-0.644l0.027,-0.644l0.03,-0.646l0.033,-0.646l0.035,-0.647l0.039,-0.647l0.041,-0.648l0.044,-0.649l0.047,-0.65l0.05,-0.65l0.052,-0.651l0.056,-0.651l0.058,-0.652l0.062,-0.652l0.064,-0.653l0.067,-0.654l0.07,-0.654l0.073,-0.654l0.076,-0.655l0.032,-0.265l0.047,-0.39l0.082,-0.656l0.084,-0.656l0.088,-0.656l0.09,-0.657l0.094,-0.657l0.096,-0.658l0.1,-0.657l0.102,-0.658l0.105,-0.657l0.065,-0.4l0.066,-0.399l0.067,-0.399l0.068,-0.398l0.07,-0.398l0.07,-0.398l0.071,-0.397l0.072,-0.398l0.074,-0.397l0.074,-0.396l0.075,-0.397l0.077,-0.396l0.077,-0.396l0.078,-0.396l0.08,-0.396l0.08,-0.395l0.081,-0.395l0.083,-0.394l0.083,-0.395l0.084,-0.394l0.086,-0.393l0.086,-0.394l0.087,-0.393l0.089,-0.393l0.089,-0.392l0.09,-0.392l0.092,-0.392l0.092,-0.392l0.093,-0.391l0.094,-0.39l0.096,-0.391l0.096,-0.39l0.097,-0.39l0.098,-0.389l0.099,-0.389l0.1,-0.389l0.101,-0.388l0.102,-0.388l0.104,-0.387l0.103,-0.387l0.105,-0.387l0.106,-0.386l0.107,-0.386l0.108,-0.385l0.109,-0.385l0.11,-0.385l0.11,-0.384l0.112,-0.384l0.113,-0.383l0.113,-0.383l0.115,-0.383l0.115,-0.382l0.117,-0.381l0.117,-0.381l0.118,-0.381l0.12,-0.38l0.12,-0.38l0.121,-0.379l0.122,-0.379l0.123,-0.378l0.124,-0.378l0.125,-0.377l0.126,-0.377l0.127,-0.376l0.127,-0.376l0.129,-0.375l0.129,-0.375l0.131,-0.374l0.131,-0.374l0.133,-0.373l0.133,-0.373l0.134,-0.372l0.135,-0.372l0.136,-0.371l0.137,-0.37l0.138,-0.37l0.139,-0.369l0.139,-0.369l0.141,-0.368l0.141,-0.368l0.143,-0.367l0.143,-0.367l0.144,-0.366l0.145,-0.365l0.146,-0.365l0.147,-0.364l0.148,-0.363l0.149,-0.363l0.149,-0.362l0.151,-0.362l0.151,-0.361l0.152,-0.36l0.153,-0.36l0.154,-0.359l0.155,-0.359l0.156,-0.358l0.157,-0.357l0.158,-0.356l0.158,-0.356l0.159,-0.355l0.161,-0.355l0.161,-0.354l0.162,-0.353l0.163,-0.352l0.163,-0.352l0.165,-0.351l0.165,-0.351l0.167,-0.349l0.167,-0.349l0.168,-0.349l0.169,-0.347l0.17,-0.347l0.171,-0.346l0.171,-0.345l0.173,-0.345l0.173,-0.344l0.174,-0.343l0.175,-0.343l0.176,-0.341l0.176,-0.341l0.178,-0.34l0.178,-0.34l0.18,-0.338l0.18,-0.338l0.181,-0.337l0.181,-0.336l0.183,-0.336l0.182,-0.331l0.241,-0.367l-0.001,-0.001l0.293,-0.328l0.339,-0.281l0.378,-0.227l0.407,-0.167l0.428,-0.105l0.439,-0.04l4.981,-0.082l62.851,-1.002l33.067,-0.501l0.534,0.035l0.522,0.12l0.496,0.2l0.459,0.277l0.409,0.347l0.349,0.406l0.281,0.458l0.204,0.496l0.001,0l0.136,0.422l0.137,0.431l0.136,0.432l0.134,0.434l0.132,0.434l0.13,0.436l0.128,0.437l0.127,0.439l0.125,0.44l0.124,0.44l0.121,0.443l0.12,0.443l0.118,0.444l0.116,0.446l0.115,0.447l0.113,0.448l0.111,0.449l0.109,0.45l0.108,0.451l0.106,0.453l0.104,0.453l0.102,0.455l0.101,0.456l0.099,0.457l0.097,0.458l0.095,0.459l0.094,0.46l0.092,0.461l0.09,0.462l0.089,0.463l0.086,0.464l0.085,0.465l0.083,0.466l0.082,0.467l0.08,0.468l0.078,0.469l0.076,0.47l0.074,0.471l0.035,0.225l0.038,0.247l0.07,0.473l0.069,0.474l0.067,0.474l0.065,0.476l0.064,0.476l0.062,0.478l0.06,0.478l0.058,0.479l0.056,0.48l0.055,0.48l0.053,0.482l0.052,0.482l0.049,0.483l0.048,0.484l0.046,0.485l0.044,0.485l0.043,0.486l0.041,0.487l0.039,0.488l0.037,0.489l0.036,0.489l0.034,0.49l0.032,0.49l0.03,0.491l0.029,0.492l0.027,0.493l0.025,0.493l0.023,0.494l0.022,0.495l0.02,0.495l0.018,0.496l0.016,0.497l0.015,0.497l0.013,0.498l0.011,0.498l0.009,0.499l0.008,0.499l0.006,0.5l0.004,0.501l0.003,0.501l0,0.502l-0.001,0.502l-0.002,0.312l-0.001,0.19l-0.005,0.504l-0.007,0.503l-0.009,0.504l-0.011,0.505l-0.012,0.505l-0.014,0.506l-0.016,0.506l-0.018,0.506l-0.019,0.507l-0.021,0.507l-0.023,0.508l-0.025,0.508l-0.026,0.508l-0.028,0.509l-0.03,0.509l-0.032,0.509l-0.033,0.51l-0.036,0.51l-0.036,0.511l-0.039,0.511l-0.041,0.511l-0.042,0.511l-0.044,0.512l-0.046,0.512l-0.047,0.512l-0.049,0.513l-0.051,0.512l-0.053,0.513l-0.055,0.514l-0.056,0.513l-0.058,0.514l-0.06,0.514l-0.008,0.064l-0.055,0.449l-0.066,0.514l-0.067,0.514l-0.069,0.515l-0.07,0.514l-0.073,0.514l-0.074,0.515l-0.076,0.515l-0.078,0.515l-0.079,0.515l-0.082,0.515l-0.083,0.515l-0.084,0.515l-0.044,0.26l-0.044,0.255l-0.096,0.544l-0.098,0.543l-0.1,0.543l-0.102,0.542l-0.104,0.542l-0.105,0.541l-0.107,0.54l-0.109,0.54l-0.111,0.539l-0.113,0.539l-0.115,0.538l-0.11,0.508l-0.007,0.03l-0.122,0.536l-0.123,0.535l-0.126,0.535l-0.127,0.534l-0.129,0.533l-0.131,0.532l-0.133,0.532l-0.134,0.531l-0.136,0.53l-0.138,0.53l-0.14,0.528l-0.142,0.528l-0.143,0.527l-0.145,0.527l-0.147,0.525l-0.148,0.525l-0.151,0.523l-0.152,0.523l-0.153,0.522l-0.156,0.521l-0.157,0.521l-0.159,0.519l-0.161,0.519l-0.162,0.517l-0.009,0.028l-0.16,0.487l-0.172,0.514l-0.173,0.513l-0.174,0.512l-0.176,0.511l-0.178,0.51l-0.18,0.509l-0.181,0.508l-0.183,0.506l-0.185,0.506l-0.186,0.505l-0.188,0.503l-0.189,0.503l-0.191,0.501l-0.193,0.5l-0.194,0.499l-0.196,0.498l-0.198,0.497l-0.199,0.496l-0.2,0.494l-0.203,0.494l-0.204,0.492l-0.205,0.491l-0.207,0.489l-0.209,0.489l-0.21,0.487l-0.212,0.486l-0.213,0.485l-0.215,0.483l-0.216,0.482l-0.218,0.481l-0.219,0.48l-0.221,0.478l-0.223,0.477l-0.224,0.475l-0.226,0.475l-0.227,0.473l-0.228,0.471l-0.23,0.47l-0.232,0.469l-0.233,0.467l-0.234,0.466l-0.236,0.465l-0.131,0.255l-0.109,0.207l-0.244,0.459l-0.246,0.458l-0.247,0.456l-0.248,0.454l-0.25,0.453l-0.251,0.452l-0.253,0.45l-0.254,0.448l-0.256,0.447l-0.257,0.446l-0.258,0.443l-0.26,0.442l-0.261,0.441l-0.262,0.439l-0.264,0.437l-0.265,0.436l-0.267,0.434l-0.268,0.432l-0.269,0.43l-0.271,0.429l-0.272,0.428l-0.273,0.425l-0.275,0.424l-0.276,0.422l-0.277,0.42l-0.278,0.419l-0.28,0.417l-0.282,0.415l-0.282,0.413l-0.284,0.412l-0.285,0.409l-0.286,0.408l-0.105,0.147l-0.185,0.258l-0.292,0.402l-0.294,0.4l-0.294,0.398l-0.296,0.397l-0.297,0.394l-0.299,0.393l-0.299,0.39l-0.301,0.389l-0.302,0.386l-0.303,0.385l-0.304,0.383l-0.306,0.381l-0.307,0.379l-0.308,0.376l-0.076,0.093l-0.231,0.278l-0.177,0.2l-0.204,0.171Zm-13.437,-118.715l-60.06,0.405l-0.001,-0.034l-5.012,0.056l-0.062,0.114l-0.175,0.322l-0.174,0.323l-0.173,0.323l-0.172,0.324l-0.172,0.325l-0.171,0.326l-0.17,0.327l-0.169,0.327l-0.168,0.328l-0.168,0.329l-0.167,0.33l-0.166,0.33l-0.165,0.331l-0.164,0.332l-0.164,0.333l-0.163,0.333l-0.162,0.334l-0.161,0.335l-0.161,0.336l-0.159,0.336l-0.159,0.337l-0.158,0.338l-0.157,0.338l-0.157,0.339l-0.155,0.34l-0.155,0.341l-0.154,0.341l-0.153,0.342l-0.152,0.342l-0.152,0.343l-0.15,0.344l-0.15,0.345l-0.149,0.345l-0.148,0.346l-0.148,0.346l-0.146,0.347l-0.146,0.348l-0.144,0.348l-0.144,0.349l-0.143,0.35l-0.143,0.35l-0.141,0.351l-0.14,0.352l-0.14,0.352l-0.139,0.352l-0.138,0.354l-0.137,0.354l-0.136,0.354l-0.136,0.355l-0.134,0.356l-0.134,0.356l-0.133,0.356l-0.132,0.358l-0.131,0.358l-0.13,0.358l-0.129,0.359l-0.129,0.359l-0.127,0.36l-0.127,0.361l-0.126,0.361l-0.125,0.362l-0.124,0.362l-0.123,0.362l-0.122,0.364l-0.122,0.363l-0.12,0.364l-0.12,0.365l-0.118,0.365l-0.118,0.366l-0.117,0.366l-0.116,0.366l-0.115,0.367l-0.114,0.368l-0.114,0.368l-0.112,0.368l-0.112,0.369l-0.11,0.369l-0.11,0.37l-0.109,0.37l-0.107,0.371l-0.107,0.371l-0.106,0.371l-0.105,0.372l-0.105,0.372l-0.103,0.373l-0.102,0.373l-0.101,0.374l-0.101,0.374l-0.099,0.374l-0.099,0.374l-0.098,0.375l-0.096,0.376l-0.096,0.376l-0.095,0.376l-0.094,0.376l-0.093,0.377l-0.092,0.377l-0.091,0.378l-0.09,0.378l-0.089,0.378l-0.088,0.379l-0.088,0.378l-0.086,0.38l-0.085,0.379l-0.085,0.38l-0.083,0.38l-0.083,0.38l-0.081,0.381l-0.081,0.381l-0.079,0.382l-0.079,0.381l-0.078,0.382l-0.076,0.382l-0.076,0.383l-0.075,0.382l-0.073,0.383l-0.073,0.383l-0.072,0.384l-0.071,0.383l-0.07,0.384l-0.069,0.385l-0.067,0.384l-0.067,0.383l-0.108,0.636l-0.106,0.635l-0.102,0.634l-0.1,0.634l-0.097,0.633l-0.094,0.634l-0.091,0.633l-0.088,0.632l-0.086,0.633l-0.049,0.376l-0.034,0.256l-0.08,0.631l-0.077,0.632l-0.075,0.63l-0.072,0.631l-0.069,0.63l-0.066,0.629l-0.064,0.629l-0.06,0.628l-0.058,0.628l-0.055,0.627l-0.053,0.626l-0.049,0.626l-0.047,0.626l-0.044,0.624l-0.041,0.624l-0.039,0.623l-0.035,0.623l-0.033,0.622l-0.03,0.621l-0.028,0.62l-0.025,0.62l-0.021,0.618l-0.02,0.618l-0.016,0.617l-0.014,0.616l-0.011,0.615l-0.008,0.614l-0.005,0.613l-0.003,0.613l0,0.611l0.003,0.61l0.005,0.61l0.008,0.608l0.011,0.607l0.014,0.606l0.016,0.605l0.02,0.604l0.021,0.602l0.025,0.602l0.027,0.6l0.03,0.599l0.033,0.598l0.035,0.596l0.038,0.596l0.041,0.594l0.043,0.592l0.046,0.592l0.049,0.59l0.052,0.588l0.054,0.587l0.057,0.586l0.059,0.585l0.062,0.582l0.065,0.582l0.068,0.58l0.07,0.578l0.073,0.577l0.075,0.575l0.078,0.574l0.081,0.572l0.084,0.57l0.086,0.569l0.088,0.567l0.092,0.565l0.094,0.564l0.096,0.562l0.1,0.56l0.102,0.558l0.104,0.557l0.107,0.555l0.11,0.553l0.113,0.552l0.057,0.274l0.058,0.274l0.058,0.274l0.059,0.273l0.06,0.273l0.06,0.273l0.061,0.272l0.062,0.271l0.063,0.271l0.063,0.271l0.063,0.27l0.065,0.269l0.065,0.269l0.065,0.269l0.067,0.268l0.066,0.267l0.068,0.267l0.068,0.267l0.069,0.266l0.07,0.265l0.07,0.265l0.071,0.264l0.071,0.264l0.072,0.263l0.073,0.263l0.073,0.263l0.074,0.261l0.075,0.262l0.075,0.26l0.076,0.26l0.077,0.26l0.077,0.259l0.078,0.258l0.078,0.258l0.079,0.258l0.08,0.256l0.081,0.257l0.081,0.255l0.081,0.256l0.083,0.254l0.083,0.254l0.083,0.253l0.084,0.253l0.085,0.252l0.086,0.252l0.086,0.251l0.087,0.251l0.087,0.25l0.088,0.249l0.089,0.249l0.089,0.248l0.09,0.247l0.09,0.247l0.092,0.247l0.091,0.245l0.093,0.245l0.093,0.245l0.094,0.244l0.094,0.243l0.095,0.243l0.095,0.242l0.097,0.241l0.096,0.241l0.098,0.24l0.098,0.239l0.099,0.239l0.099,0.238l0.1,0.238l0.1,0.237l0.102,0.236l0.101,0.236l0.103,0.235l0.103,0.234l0.104,0.234l0.104,0.233l0.105,0.232l0.105,0.232l0.107,0.231l0.106,0.231l0.108,0.229l0.108,0.229l0.108,0.229l0.11,0.227l0.109,0.228l0.111,0.226l0.111,0.226l0.071,0.142l38.015,-0.234l45.269,-0.253l0.849,-0.004l0.06,-0.088l0.262,-0.391l0.262,-0.393l0.26,-0.395l0.259,-0.396l0.257,-0.398l0.256,-0.4l0.255,-0.402l0.253,-0.403l0.252,-0.405l0.25,-0.406l0.249,-0.408l0.248,-0.41l0.246,-0.411l0.156,-0.264l0.09,-0.149l0.247,-0.412l0.245,-0.414l0.244,-0.416l0.243,-0.417l0.241,-0.419l0.239,-0.421l0.239,-0.422l0.237,-0.423l0.235,-0.425l0.234,-0.427l0.233,-0.428l0.231,-0.43l0.23,-0.431l0.228,-0.432l0.227,-0.434l0.225,-0.436l0.224,-0.437l0.223,-0.438l0.221,-0.44l0.219,-0.441l0.219,-0.443l0.216,-0.444l0.215,-0.445l0.214,-0.447l0.212,-0.448l0.211,-0.449l0.209,-0.451l0.208,-0.452l0.206,-0.453l0.205,-0.455l0.203,-0.456l0.202,-0.457l0.09,-0.206l0.113,-0.251l0.204,-0.457l0.203,-0.459l0.201,-0.46l0.199,-0.461l0.198,-0.462l0.196,-0.463l0.195,-0.465l0.194,-0.466l0.191,-0.467l0.191,-0.468l0.188,-0.47l0.188,-0.47l0.185,-0.472l0.185,-0.473l0.182,-0.474l0.181,-0.475l0.18,-0.476l0.177,-0.478l0.177,-0.478l0.174,-0.48l0.174,-0.48l0.171,-0.482l0.17,-0.482l0.169,-0.484l0.166,-0.484l0.166,-0.486l0.163,-0.487l0.162,-0.487l0.16,-0.489l0.159,-0.489l0.157,-0.491l0.156,-0.491l0.154,-0.492l0.152,-0.493l0.15,-0.494l0.149,-0.495l0.148,-0.496l0.145,-0.497l0.144,-0.497l0.142,-0.499l0.141,-0.499l0.139,-0.5l0.13,-0.474l0.008,-0.026l0.141,-0.5l0.139,-0.501l0.138,-0.501l0.136,-0.503l0.135,-0.503l0.133,-0.504l0.131,-0.504l0.129,-0.506l0.128,-0.506l0.126,-0.507l0.124,-0.507l0.123,-0.508l0.12,-0.509l0.12,-0.51l0.117,-0.51l0.116,-0.511l0.114,-0.511l0.112,-0.512l0.11,-0.513l0.109,-0.514l0.107,-0.514l0.105,-0.514l0.104,-0.515l0.101,-0.516l0.006,-0.029l0.098,-0.486l0.101,-0.516l0.1,-0.517l0.098,-0.517l0.097,-0.518l0.094,-0.518l0.093,-0.518l0.091,-0.52l0.089,-0.519l0.088,-0.52l0.085,-0.521l0.084,-0.521l0.038,-0.244l0.041,-0.249l0.078,-0.492l0.077,-0.493l0.075,-0.492l0.073,-0.492l0.072,-0.492l0.07,-0.492l0.068,-0.492l0.067,-0.492l0.064,-0.491l0.064,-0.491l0.061,-0.491l0.06,-0.491l0.05,-0.429l0.008,-0.062l0.058,-0.49l0.057,-0.49l0.055,-0.49l0.053,-0.49l0.052,-0.489l0.05,-0.489l0.048,-0.489l0.046,-0.489l0.045,-0.488l0.043,-0.488l0.042,-0.488l0.04,-0.487l0.038,-0.487l0.036,-0.487l0.035,-0.486l0.033,-0.486l0.031,-0.486l0.03,-0.485l0.028,-0.485l0.026,-0.484l0.025,-0.484l0.023,-0.484l0.021,-0.483l0.02,-0.483l0.018,-0.482l0.016,-0.482l0.015,-0.482l0.013,-0.48l0.011,-0.481l0.01,-0.48l0.008,-0.479l0.006,-0.479l0.002,-0.181l0.003,-0.297l0.004,-0.478l0.001,-0.477l0.001,-0.477l-0.002,-0.476l-0.003,-0.476l-0.004,-0.475l-0.007,-0.474l-0.008,-0.474l-0.009,-0.473l-0.012,-0.472l-0.013,-0.472l-0.014,-0.471l-0.017,-0.471l-0.018,-0.469l-0.019,-0.469l-0.022,-0.469l-0.023,-0.468l-0.024,-0.467l-0.027,-0.466l-0.028,-0.465l-0.029,-0.465l-0.031,-0.464l-0.033,-0.464l-0.035,-0.462l-0.036,-0.462l-0.038,-0.461l-0.039,-0.46l-0.041,-0.459l-0.043,-0.459l-0.045,-0.457l-0.046,-0.457l-0.047,-0.456l-0.05,-0.455l-0.051,-0.454l-0.053,-0.453l-0.054,-0.453l-0.056,-0.451l-0.057,-0.45l-0.059,-0.45l-0.061,-0.449l-0.063,-0.447l-0.064,-0.447l-0.034,-0.233l-0.031,-0.213l-0.067,-0.445l-0.069,-0.443l-0.07,-0.443l-0.072,-0.442l-0.073,-0.441l-0.075,-0.44l-0.076,-0.438l-0.079,-0.438l-0.08,-0.436l-0.081,-0.436l-0.083,-0.434l-0.085,-0.434l-0.086,-0.432l-0.088,-0.431l-0.09,-0.43l-0.091,-0.429l-0.093,-0.428l-0.094,-0.426l-0.096,-0.425l-0.098,-0.425l-0.099,-0.423l-0.101,-0.421l-0.102,-0.421l-0.105,-0.419l-0.105,-0.419l-0.108,-0.416l-0.108,-0.416l-0.111,-0.414l-0.112,-0.414l-0.114,-0.411l-0.115,-0.411l-0.117,-0.409l-0.022,-0.077l-31.595,0.248Z"/><path d="M44.305,62.359c0,0 0.513,10.593 -8.161,24.19c-21.621,33.89 -27.977,19.273 -27.977,19.273c-3.677,14.304 -7.843,44.975 7.426,78.403c27.289,3.264 57.355,2.907 86.739,-0.868c16.354,-23.776 22.879,-48.471 25.381,-74.385c-16.865,-5.206 -29.255,-15.527 -32.42,-46.047c-3.17,-0.255 -2.916,-0.326 -7.63,-1.044l1.49,24.713c-12.853,-0.684 -25.261,-0.289 -37.4,0.587c0,0 -0.403,-23.261 1.749,-25.128c2.152,-1.868 -9.197,0.306 -9.197,0.306Z" style="fill:#008fd7;stroke:#000;stroke-width:2.5px;"/><path d="M124.319,61.499c0.312,-1.6 0.53,-3.218 0.651,-4.849c1.887,-25.292 -19.212,-48.344 -47.087,-51.446c-27.874,-3.101 -52.037,14.914 -53.923,40.206c-0.431,5.769 0.343,11.619 2.281,17.243l98.078,-1.154Z" style="fill:#c2c2c2;"/><clipPath id="_clip1"><path d="M124.319,61.499c0.312,-1.6 0.53,-3.218 0.651,-4.849c1.887,-25.292 -19.212,-48.344 -47.087,-51.446c-27.874,-3.101 -52.037,14.914 -53.923,40.206c-0.431,5.769 0.343,11.619 2.281,17.243l98.078,-1.154Z"/></clipPath><g clip-path="url(#_clip1)"><path d="M56.492,43.258c-0.771,0.58 -1.199,1.199 -1.269,1.833c-0.369,3.365 9.248,6.423 21.463,6.823c12.214,0.4 22.43,-2.008 22.799,-5.374c0.085,-0.771 -0.362,-1.553 -1.318,-2.304l-41.675,-0.978Z" style="fill:#191919;"/><clipPath id="_clip2"><path d="M56.492,43.258c-0.771,0.58 -1.199,1.199 -1.269,1.833c-0.369,3.365 9.248,6.423 21.463,6.823c12.214,0.4 22.43,-2.008 22.799,-5.374c0.085,-0.771 -0.362,-1.553 -1.318,-2.304l-41.675,-0.978Z"/></clipPath><g clip-path="url(#_clip2)"><path d="M63.338,45.487c0.025,2.088 6.038,3.942 13.593,4.189c7.732,0.253 14.2,-1.271 14.434,-3.402c0.004,-0.043 0.006,-0.086 0.006,-0.129l-28.033,-0.658Z" style="fill:#fff;"/></g><path d="M68.938,33.948c-0.19,-5.533 -3.902,-10.161 -8.567,-10.68c-4.986,-0.555 -9.245,3.774 -9.506,9.662c-0.014,0.329 -0.016,0.661 -0.005,0.992l18.078,0.026Z" style="fill:#191919;"/><clipPath id="_clip3"><path d="M68.938,33.948c-0.19,-5.533 -3.902,-10.161 -8.567,-10.68c-4.986,-0.555 -9.245,3.774 -9.506,9.662c-0.014,0.329 -0.016,0.661 -0.005,0.992l18.078,0.026Z"/></clipPath><g clip-path="url(#_clip3)"><path d="M59.017,31.991c0.31,-2.704 0.146,-4.804 -0.381,-4.862c-0.567,-0.063 -1.348,2.258 -1.742,5.18c-0.025,0.182 -0.047,0.364 -0.068,0.546l2.191,-0.864Z" style="fill:#fff;"/></g><path d="M98.457,34.859c-0.179,-5.231 -3.688,-9.607 -8.099,-10.098c-4.714,-0.524 -8.741,3.569 -8.987,9.135c-0.014,0.312 -0.015,0.625 -0.005,0.938l17.091,0.025Z" style="fill:#191919;"/><clipPath id="_clip4"><path d="M98.457,34.859c-0.179,-5.231 -3.688,-9.607 -8.099,-10.098c-4.714,-0.524 -8.741,3.569 -8.987,9.135c-0.014,0.312 -0.015,0.625 -0.005,0.938l17.091,0.025Z"/></clipPath><g clip-path="url(#_clip4)"><path d="M88.798,32.987c0.3,-2.705 0.054,-4.814 -0.569,-4.883c-0.672,-0.075 -1.537,2.237 -1.931,5.159c-0.025,0.182 -0.047,0.364 -0.067,0.546l2.567,-0.822Z" style="fill:#fff;"/></g></g><path d="M125.831,62.388l-0.174,0.245l-0.213,0.211l-0.245,0.172l-0.272,0.128l-0.289,0.08l-0.298,0.029l-1.118,0.024l-28.771,0.603l-68.179,1.4l-0.411,-0.024l-0.403,-0.089l-0.384,-0.15l-0.104,-0.061l-0.252,-0.148l-0.32,-0.262l-0.275,-0.309l-0.223,-0.349l-0.166,-0.38l-0.001,0l-0.094,-0.271l-0.096,-0.279l-0.094,-0.279l-0.092,-0.28l-0.09,-0.28l-0.088,-0.28l-0.087,-0.281l-0.085,-0.281l-0.083,-0.282l-0.081,-0.281l-0.08,-0.283l-0.077,-0.282l-0.076,-0.283l-0.074,-0.283l-0.073,-0.283l-0.07,-0.284l-0.069,-0.284l-0.066,-0.284l-0.065,-0.285l-0.064,-0.285l-0.061,-0.285l-0.06,-0.285l-0.057,-0.286l-0.056,-0.285l-0.054,-0.286l-0.052,-0.287l-0.051,-0.286l-0.048,-0.287l-0.047,-0.287l-0.045,-0.287l-0.043,-0.287l-0.041,-0.287l-0.04,-0.288l-0.037,-0.287l-0.036,-0.288l-0.034,-0.288l-0.032,-0.288l-0.03,-0.289l-0.029,-0.288l-0.026,-0.288l-0.025,-0.289l-0.022,-0.289l-0.021,-0.288l-0.019,-0.289l-0.018,-0.289l-0.015,-0.289l-0.014,-0.289l-0.011,-0.289l-0.01,-0.289l-0.008,-0.289l-0.006,-0.29l-0.004,-0.289l-0.003,-0.289l0,-0.289l0.001,-0.289l0.004,-0.29l0.005,-0.289l0.007,-0.289l0.009,-0.289l0.011,-0.289l0.012,-0.289l0.015,-0.289l0.016,-0.289l0.019,-0.289l0.022,-0.315l0.024,-0.315l0.027,-0.315l0.028,-0.314l0.031,-0.313l0.033,-0.313l0.035,-0.311l0.038,-0.312l0.039,-0.31l0.042,-0.31l0.043,-0.309l0.046,-0.308l0.048,-0.308l0.05,-0.307l0.052,-0.306l0.054,-0.306l0.056,-0.304l0.059,-0.304l0.06,-0.304l0.063,-0.302l0.064,-0.302l0.067,-0.301l0.068,-0.3l0.071,-0.299l0.072,-0.299l0.075,-0.297l0.077,-0.297l0.078,-0.297l0.081,-0.295l0.083,-0.294l0.084,-0.294l0.087,-0.293l0.089,-0.292l0.09,-0.291l0.093,-0.29l0.094,-0.289l0.096,-0.289l0.099,-0.288l0.1,-0.286l0.102,-0.286l0.104,-0.285l0.106,-0.284l0.108,-0.283l0.11,-0.283l0.111,-0.281l0.114,-0.28l0.115,-0.28l0.117,-0.278l0.12,-0.278l0.12,-0.276l0.123,-0.276l0.125,-0.274l0.126,-0.274l0.129,-0.273l0.13,-0.271l0.131,-0.271l0.134,-0.27l0.135,-0.269l0.138,-0.267l0.139,-0.267l0.14,-0.266l0.143,-0.264l0.144,-0.264l0.146,-0.262l0.148,-0.262l0.149,-0.26l0.151,-0.26l0.153,-0.258l0.155,-0.257l0.072,-0.119l0.084,-0.137l0.158,-0.255l0.16,-0.254l0.162,-0.253l0.163,-0.252l0.164,-0.25l0.167,-0.25l0.168,-0.248l0.17,-0.248l0.171,-0.246l0.173,-0.245l0.175,-0.243l0.176,-0.243l0.178,-0.242l0.179,-0.24l0.181,-0.239l0.182,-0.238l0.185,-0.237l0.185,-0.236l0.187,-0.235l0.189,-0.233l0.191,-0.232l0.191,-0.231l0.194,-0.23l0.195,-0.228l0.196,-0.228l0.198,-0.226l0.199,-0.225l0.201,-0.224l0.202,-0.222l0.204,-0.221l0.205,-0.22l0.207,-0.219l0.208,-0.217l0.21,-0.216l0.211,-0.215l0.212,-0.214l0.214,-0.212l0.216,-0.211l0.216,-0.21l0.219,-0.209l0.219,-0.207l0.221,-0.206l0.222,-0.204l0.224,-0.204l0.225,-0.201l0.226,-0.201l0.228,-0.199l0.229,-0.198l0.23,-0.197l0.232,-0.195l0.233,-0.194l0.234,-0.193l0.236,-0.191l0.237,-0.19l0.238,-0.188l0.24,-0.187l0.24,-0.186l0.242,-0.184l0.244,-0.183l0.244,-0.182l0.246,-0.18l0.247,-0.179l0.248,-0.177l0.25,-0.176l0.251,-0.175l0.251,-0.173l0.254,-0.171l0.254,-0.171l0.255,-0.168l0.257,-0.168l0.258,-0.165l0.259,-0.165l0.26,-0.163l0.262,-0.161l0.262,-0.16l0.264,-0.159l0.265,-0.157l0.265,-0.156l0.267,-0.154l0.269,-0.152l0.269,-0.151l0.27,-0.15l0.272,-0.148l0.272,-0.146l0.274,-0.145l0.274,-0.144l0.276,-0.142l0.277,-0.14l0.278,-0.139l0.279,-0.138l0.28,-0.135l0.28,-0.135l0.282,-0.132l0.283,-0.131l0.284,-0.13l0.285,-0.128l0.286,-0.126l0.287,-0.125l0.288,-0.123l0.289,-0.122l0.29,-0.12l0.291,-0.118l0.292,-0.117l0.292,-0.115l0.294,-0.114l0.295,-0.112l0.295,-0.11l0.297,-0.108l0.297,-0.107l0.298,-0.106l0.299,-0.103l0.3,-0.102l0.301,-0.101l0.302,-0.099l0.303,-0.097l0.303,-0.095l0.305,-0.094l0.305,-0.091l0.306,-0.091l0.307,-0.088l0.307,-0.087l0.309,-0.085l0.309,-0.084l0.31,-0.081l0.311,-0.08l0.312,-0.079l0.313,-0.076l0.313,-0.075l0.18,-0.042l0.134,-0.031l0.315,-0.071l0.316,-0.069l0.316,-0.067l0.317,-0.066l0.318,-0.064l0.318,-0.062l0.32,-0.06l0.32,-0.058l0.32,-0.057l0.322,-0.055l0.322,-0.053l0.323,-0.051l0.323,-0.05l0.324,-0.047l0.325,-0.046l0.325,-0.044l0.326,-0.042l0.327,-0.041l0.327,-0.038l0.328,-0.037l0.329,-0.034l0.329,-0.033l0.33,-0.031l0.33,-0.03l0.331,-0.027l0.331,-0.025l0.333,-0.024l0.332,-0.021l0.333,-0.02l0.334,-0.018l0.334,-0.016l0.335,-0.014l0.336,-0.012l0.336,-0.01l0.336,-0.008l0.337,-0.007l0.337,-0.004l0.338,-0.002l0.338,-0.001l0.339,0.002l0.34,0.003l0.339,0.005l0.341,0.008l0.34,0.009l0.341,0.011l0.342,0.014l0.342,0.015l0.342,0.017l0.343,0.019l0.343,0.022l0.344,0.023l0.344,0.025l0.344,0.027l0.345,0.03l0.345,0.031l0.346,0.033l0.346,0.036l0.345,0.037l0.345,0.04l0.345,0.041l0.344,0.043l0.343,0.045l0.342,0.047l0.342,0.049l0.341,0.051l0.341,0.053l0.34,0.054l0.339,0.057l0.338,0.058l0.338,0.06l0.337,0.062l0.336,0.064l0.336,0.066l0.335,0.067l0.334,0.07l0.334,0.071l0.332,0.073l0.332,0.075l0.331,0.076l0.331,0.079l0.329,0.08l0.329,0.082l0.328,0.084l0.328,0.085l0.326,0.088l0.326,0.089l0.325,0.091l0.324,0.092l0.323,0.095l0.323,0.096l0.321,0.098l0.321,0.099l0.32,0.101l0.319,0.103l0.318,0.105l0.318,0.106l0.316,0.108l0.316,0.11l0.315,0.111l0.297,0.107l0.016,0.006l0.313,0.116l0.312,0.117l0.311,0.118l0.31,0.12l0.309,0.122l0.308,0.124l0.307,0.125l0.306,0.126l0.306,0.129l0.304,0.13l0.303,0.131l0.303,0.133l0.301,0.135l0.301,0.136l0.299,0.138l0.299,0.139l0.297,0.141l0.297,0.143l0.295,0.144l0.295,0.145l0.293,0.147l0.292,0.149l0.292,0.15l0.29,0.152l0.289,0.153l0.288,0.154l0.288,0.156l0.286,0.158l0.285,0.159l0.283,0.161l0.283,0.162l0.282,0.163l0.281,0.165l0.279,0.166l0.279,0.168l0.277,0.17l0.276,0.17l0.275,0.172l0.274,0.174l0.273,0.175l0.271,0.176l0.078,0.051l0.193,0.127l0.269,0.18l0.267,0.181l0.267,0.182l0.265,0.184l0.264,0.185l0.263,0.187l0.262,0.188l0.261,0.189l0.259,0.191l0.258,0.191l0.257,0.194l0.256,0.194l0.254,0.196l0.254,0.197l0.252,0.198l0.25,0.2l0.25,0.201l0.248,0.202l0.247,0.204l0.246,0.205l0.244,0.206l0.243,0.207l0.242,0.209l0.24,0.209l0.239,0.211l0.238,0.213l0.237,0.213l0.235,0.215l0.234,0.216l0.232,0.217l0.231,0.218l0.23,0.22l0.15,0.144l0.078,0.077l0.226,0.223l0.224,0.224l0.223,0.226l0.222,0.226l0.22,0.228l0.219,0.229l0.217,0.23l0.216,0.231l0.215,0.232l0.213,0.234l0.211,0.234l0.21,0.236l0.209,0.236l0.18,0.207l0.027,0.031l0.204,0.241l0.203,0.241l0.201,0.243l0.199,0.243l0.198,0.244l0.197,0.246l0.195,0.247l0.193,0.247l0.192,0.249l0.19,0.249l0.189,0.251l0.187,0.251l0.186,0.253l0.178,0.244l0.006,0.009l0.18,0.256l0.179,0.258l0.177,0.258l0.175,0.259l0.173,0.26l0.172,0.26l0.171,0.262l0.169,0.263l0.167,0.263l0.165,0.264l0.164,0.266l0.162,0.266l0.161,0.267l0.159,0.267l0.157,0.269l0.155,0.269l0.154,0.271l0.152,0.271l0.151,0.272l0.149,0.272l0.147,0.274l0.145,0.274l0.144,0.275l0.141,0.276l0.141,0.276l0.138,0.278l0.137,0.278l0.051,0.106l0.081,0.174l0.128,0.282l0.127,0.282l0.125,0.283l0.123,0.284l0.122,0.285l0.119,0.285l0.118,0.286l0.116,0.286l0.114,0.287l0.112,0.288l0.111,0.288l0.108,0.289l0.107,0.289l0.105,0.29l0.103,0.291l0.101,0.291l0.1,0.292l0.097,0.292l0.095,0.293l0.094,0.293l0.092,0.294l0.09,0.295l0.087,0.295l0.086,0.295l0.085,0.296l0.082,0.297l0.08,0.297l0.078,0.297l0.076,0.298l0.075,0.298l0.072,0.299l0.071,0.299l0.068,0.3l0.067,0.3l0.064,0.301l0.063,0.301l0.06,0.301l0.059,0.302l0.057,0.302l0.054,0.303l0.053,0.303l0.05,0.303l0.049,0.304l0.046,0.304l0.045,0.304l0.042,0.305l0.041,0.305l0.038,0.305l0.001,0.009l0.03,0.298l0.029,0.307l0.027,0.307l0.025,0.307l0.023,0.307l0.021,0.308l0.018,0.308l0.017,0.308l0.014,0.308l0.012,0.308l0.01,0.309l0.008,0.308l0.006,0.309l0.004,0.309l0.002,0.309l-0.001,0.309l-0.002,0.309l-0.005,0.31l-0.007,0.309l-0.009,0.31l-0.011,0.309l-0.014,0.31l-0.015,0.31l-0.018,0.309l-0.02,0.31l-0.022,0.31l-0.024,0.31l-0.027,0.31l-0.028,0.31l-0.031,0.31l-0.033,0.309l-0.035,0.31l-0.038,0.31l-0.039,0.31l-0.031,0.227l-0.014,0.092l-0.049,0.319l-0.052,0.318l-0.054,0.317l-0.056,0.317l-0.059,0.316l-0.061,0.316l-0.063,0.314l-0.066,0.314l-0.067,0.314l-0.071,0.312l-0.072,0.312l-0.075,0.311l-0.077,0.311l-0.079,0.31l-0.022,0.082l-0.059,0.22l-0.082,0.288l-0.129,0.271Zm-54.689,-54.214l-0.299,0.002l-0.298,0.003l-0.298,0.006l-0.297,0.007l-0.297,0.008l-0.297,0.011l-0.295,0.012l-0.296,0.013l-0.295,0.016l-0.294,0.017l-0.294,0.019l-0.293,0.02l-0.293,0.022l-0.292,0.024l-0.292,0.026l-0.291,0.027l-0.29,0.028l-0.29,0.031l-0.29,0.032l-0.289,0.033l-0.288,0.036l-0.288,0.037l-0.287,0.038l-0.286,0.04l-0.286,0.042l-0.285,0.043l-0.285,0.045l-0.284,0.047l-0.283,0.048l-0.283,0.05l-0.282,0.051l-0.282,0.053l-0.281,0.054l-0.28,0.056l-0.279,0.058l-0.279,0.059l-0.118,0.025l-0.16,0.035l-0.278,0.062l-0.277,0.063l-0.276,0.065l-0.275,0.066l-0.275,0.068l-0.274,0.07l-0.273,0.071l-0.273,0.072l-0.272,0.074l-0.271,0.076l-0.27,0.077l-0.27,0.078l-0.269,0.08l-0.268,0.082l-0.267,0.083l-0.267,0.084l-0.266,0.086l-0.265,0.087l-0.264,0.089l-0.263,0.09l-0.263,0.092l-0.262,0.093l-0.261,0.095l-0.26,0.096l-0.259,0.097l-0.259,0.099l-0.257,0.1l-0.257,0.102l-0.256,0.103l-0.255,0.105l-0.254,0.106l-0.254,0.107l-0.252,0.109l-0.252,0.11l-0.25,0.112l-0.25,0.112l-0.249,0.115l-0.248,0.115l-0.247,0.117l-0.246,0.119l-0.245,0.119l-0.244,0.121l-0.244,0.123l-0.242,0.124l-0.241,0.125l-0.241,0.126l-0.239,0.128l-0.239,0.129l-0.237,0.13l-0.237,0.132l-0.235,0.133l-0.235,0.134l-0.233,0.136l-0.232,0.137l-0.232,0.138l-0.23,0.139l-0.23,0.141l-0.228,0.142l-0.227,0.143l-0.227,0.145l-0.225,0.146l-0.224,0.147l-0.223,0.148l-0.222,0.15l-0.221,0.15l-0.22,0.152l-0.219,0.154l-0.217,0.154l-0.217,0.156l-0.215,0.157l-0.215,0.158l-0.213,0.159l-0.212,0.161l-0.211,0.161l-0.209,0.163l-0.209,0.164l-0.208,0.166l-0.206,0.166l-0.205,0.168l-0.204,0.168l-0.203,0.17l-0.201,0.171l-0.201,0.173l-0.199,0.173l-0.198,0.175l-0.197,0.175l-0.195,0.177l-0.195,0.178l-0.193,0.179l-0.192,0.18l-0.19,0.181l-0.19,0.183l-0.188,0.183l-0.187,0.185l-0.186,0.186l-0.184,0.186l-0.183,0.188l-0.182,0.189l-0.18,0.19l-0.18,0.191l-0.178,0.193l-0.176,0.193l-0.175,0.194l-0.174,0.195l-0.173,0.197l-0.172,0.197l-0.17,0.199l-0.168,0.199l-0.168,0.201l-0.166,0.201l-0.164,0.203l-0.163,0.203l-0.162,0.205l-0.161,0.206l-0.159,0.206l-0.158,0.208l-0.156,0.208l-0.155,0.21l-0.154,0.211l-0.152,0.211l-0.15,0.213l-0.15,0.213l-0.148,0.215l-0.146,0.215l-0.145,0.217l-0.144,0.217l-0.142,0.218l-0.14,0.219l-0.075,0.119l-0.065,0.102l-0.137,0.221l-0.137,0.222l-0.135,0.223l-0.133,0.223l-0.132,0.225l-0.131,0.226l-0.129,0.226l-0.127,0.228l-0.126,0.228l-0.125,0.23l-0.123,0.23l-0.121,0.231l-0.12,0.232l-0.118,0.233l-0.117,0.234l-0.115,0.234l-0.114,0.236l-0.112,0.236l-0.11,0.237l-0.109,0.239l-0.107,0.239l-0.106,0.239l-0.104,0.241l-0.103,0.242l-0.101,0.242l-0.099,0.243l-0.098,0.244l-0.096,0.245l-0.094,0.246l-0.093,0.247l-0.091,0.247l-0.09,0.248l-0.088,0.249l-0.086,0.25l-0.085,0.251l-0.082,0.251l-0.082,0.253l-0.079,0.253l-0.078,0.254l-0.076,0.254l-0.075,0.256l-0.072,0.256l-0.071,0.257l-0.069,0.258l-0.068,0.259l-0.066,0.259l-0.064,0.26l-0.062,0.261l-0.061,0.262l-0.058,0.262l-0.057,0.263l-0.056,0.264l-0.053,0.265l-0.052,0.266l-0.05,0.266l-0.048,0.267l-0.046,0.267l-0.045,0.269l-0.042,0.269l-0.041,0.27l-0.039,0.271l-0.037,0.271l-0.035,0.272l-0.034,0.273l-0.032,0.273l-0.029,0.274l-0.028,0.275l-0.026,0.276l-0.024,0.277l-0.02,0.251l-0.019,0.253l-0.017,0.252l-0.015,0.253l-0.014,0.252l-0.012,0.253l-0.01,0.253l-0.009,0.253l-0.007,0.253l-0.006,0.253l-0.004,0.254l-0.002,0.253l0,0.254l0.001,0.253l0.002,0.254l0.005,0.254l0.006,0.253l0.007,0.254l0.009,0.254l0.011,0.254l0.013,0.254l0.014,0.254l0.016,0.254l0.017,0.254l0.019,0.254l0.021,0.253l0.022,0.254l0.024,0.254l0.026,0.254l0.027,0.254l0.029,0.254l0.03,0.254l0.032,0.254l0.034,0.253l0.035,0.254l0.037,0.254l0.039,0.253l0.04,0.253l0.042,0.254l0.043,0.253l0.046,0.253l0.046,0.253l0.049,0.253l0.05,0.253l0.051,0.253l0.054,0.252l0.054,0.253l0.057,0.252l0.058,0.252l0.06,0.252l0.061,0.252l0.063,0.252l0.065,0.251l0.066,0.251l0.068,0.251l0.069,0.251l0.062,0.217l66.968,-0.196l27.578,-0.063l0.003,-0.044l0.023,-0.292l0.02,-0.292l0.018,-0.292l0.016,-0.292l0.014,-0.292l0.012,-0.292l0.009,-0.292l0.007,-0.292l0.005,-0.292l0.003,-0.291l0,-0.085l0.004,-0.207l0.002,-0.283l0.001,-0.282l-0.002,-0.282l-0.003,-0.281l-0.005,-0.281l-0.008,-0.281l-0.009,-0.28l-0.011,-0.279l-0.014,-0.279l-0.015,-0.279l-0.017,-0.278l-0.019,-0.277l-0.021,-0.277l-0.022,-0.277l-0.025,-0.276l-0.027,-0.275l-0.028,-0.275l-0.03,-0.274l-0.032,-0.274l-0.034,-0.274l-0.036,-0.273l-0.038,-0.272l-0.039,-0.272l-0.042,-0.271l-0.043,-0.27l-0.045,-0.27l-0.047,-0.27l-0.048,-0.269l-0.051,-0.268l-0.052,-0.268l-0.054,-0.267l-0.055,-0.267l-0.058,-0.266l-0.057,-0.258l-0.002,-0.007l-0.056,-0.266l-0.057,-0.265l-0.059,-0.265l-0.061,-0.264l-0.063,-0.263l-0.064,-0.263l-0.067,-0.263l-0.068,-0.262l-0.069,-0.261l-0.071,-0.261l-0.073,-0.26l-0.075,-0.26l-0.077,-0.259l-0.078,-0.258l-0.079,-0.258l-0.082,-0.257l-0.083,-0.257l-0.085,-0.256l-0.086,-0.255l-0.088,-0.255l-0.09,-0.254l-0.091,-0.254l-0.093,-0.253l-0.094,-0.252l-0.097,-0.252l-0.097,-0.251l-0.1,-0.25l-0.101,-0.25l-0.102,-0.249l-0.104,-0.248l-0.106,-0.248l-0.108,-0.247l-0.108,-0.246l-0.111,-0.246l-0.112,-0.245l-0.113,-0.244l-0.115,-0.243l-0.117,-0.243l-0.118,-0.242l-0.12,-0.242l-0.121,-0.24l-0.123,-0.24l-0.124,-0.24l-0.126,-0.238l-0.127,-0.238l-0.129,-0.237l-0.13,-0.236l-0.132,-0.235l-0.082,-0.146l-0.049,-0.09l-0.13,-0.236l-0.132,-0.236l-0.133,-0.235l-0.135,-0.234l-0.136,-0.233l-0.137,-0.233l-0.139,-0.232l-0.141,-0.231l-0.142,-0.23l-0.143,-0.23l-0.145,-0.229l-0.146,-0.228l-0.148,-0.227l-0.149,-0.226l-0.15,-0.226l-0.152,-0.225l-0.154,-0.224l-0.154,-0.223l-0.156,-0.223l-0.158,-0.221l-0.159,-0.221l-0.16,-0.22l-0.162,-0.219l-0.163,-0.218l-0.164,-0.218l-0.166,-0.216l-0.167,-0.216l-0.006,-0.008l-0.16,-0.209l-0.167,-0.216l-0.169,-0.215l-0.17,-0.214l-0.171,-0.213l-0.173,-0.212l-0.174,-0.212l-0.175,-0.21l-0.177,-0.21l-0.178,-0.209l-0.179,-0.208l-0.18,-0.207l-0.182,-0.206l-0.183,-0.205l-0.024,-0.027l-0.159,-0.179l-0.184,-0.205l-0.186,-0.204l-0.186,-0.203l-0.188,-0.202l-0.189,-0.201l-0.19,-0.2l-0.192,-0.2l-0.193,-0.198l-0.194,-0.197l-0.195,-0.197l-0.197,-0.195l-0.198,-0.195l-0.199,-0.193l-0.069,-0.066l-0.131,-0.128l-0.2,-0.192l-0.202,-0.192l-0.202,-0.191l-0.204,-0.19l-0.205,-0.189l-0.207,-0.188l-0.207,-0.186l-0.209,-0.186l-0.21,-0.185l-0.211,-0.183l-0.213,-0.183l-0.213,-0.182l-0.215,-0.18l-0.216,-0.179l-0.217,-0.179l-0.218,-0.177l-0.22,-0.176l-0.22,-0.175l-0.222,-0.174l-0.223,-0.173l-0.223,-0.172l-0.225,-0.17l-0.227,-0.17l-0.227,-0.168l-0.228,-0.167l-0.23,-0.166l-0.23,-0.165l-0.232,-0.164l-0.233,-0.163l-0.233,-0.161l-0.235,-0.16l-0.236,-0.159l-0.169,-0.113l-0.068,-0.045l-0.238,-0.158l-0.238,-0.156l-0.24,-0.154l-0.241,-0.154l-0.242,-0.152l-0.243,-0.152l-0.244,-0.15l-0.245,-0.148l-0.246,-0.148l-0.247,-0.146l-0.248,-0.145l-0.249,-0.144l-0.25,-0.142l-0.251,-0.141l-0.251,-0.14l-0.253,-0.139l-0.254,-0.137l-0.255,-0.136l-0.256,-0.135l-0.257,-0.133l-0.258,-0.132l-0.258,-0.131l-0.26,-0.129l-0.26,-0.128l-0.262,-0.127l-0.262,-0.125l-0.264,-0.124l-0.264,-0.123l-0.265,-0.121l-0.266,-0.12l-0.267,-0.119l-0.268,-0.117l-0.269,-0.116l-0.269,-0.114l-0.271,-0.113l-0.271,-0.111l-0.273,-0.11l-0.273,-0.109l-0.274,-0.107l-0.274,-0.106l-0.276,-0.105l-0.015,-0.005l-0.261,-0.098l-0.277,-0.102l-0.278,-0.1l-0.279,-0.1l-0.28,-0.097l-0.28,-0.096l-0.281,-0.095l-0.282,-0.093l-0.283,-0.092l-0.284,-0.09l-0.284,-0.089l-0.285,-0.087l-0.286,-0.085l-0.287,-0.085l-0.288,-0.082l-0.288,-0.081l-0.289,-0.08l-0.29,-0.077l-0.29,-0.077l-0.292,-0.075l-0.292,-0.073l-0.292,-0.072l-0.294,-0.07l-0.294,-0.068l-0.295,-0.067l-0.296,-0.065l-0.296,-0.064l-0.297,-0.062l-0.298,-0.06l-0.298,-0.059l-0.3,-0.058l-0.299,-0.055l-0.301,-0.054l-0.301,-0.052l-0.302,-0.051l-0.302,-0.049l-0.304,-0.047l-0.303,-0.046l-0.305,-0.044l-0.305,-0.042l-0.306,-0.04l-0.306,-0.039l-0.307,-0.037l-0.307,-0.036l-0.307,-0.033l-0.306,-0.032l-0.306,-0.03l-0.306,-0.028l-0.306,-0.026l-0.305,-0.025l-0.304,-0.022l-0.304,-0.021l-0.304,-0.02l-0.304,-0.017l-0.303,-0.016l-0.302,-0.013l-0.303,-0.012l-0.301,-0.011l-0.302,-0.008l-0.301,-0.007l-0.3,-0.005l-0.3,-0.004l-0.3,-0.001l-0.299,0Z"/></g><path d="M47.345,119.934l10.086,-0.393c1.335,-0.053 2.546,0.047 3.634,0.3c1.088,0.252 2.008,0.633 2.759,1.142c0.752,0.51 1.314,1.134 1.688,1.871c0.373,0.738 0.52,1.56 0.439,2.465c-0.062,0.692 -0.186,1.312 -0.373,1.858c-0.186,0.546 -0.476,1.056 -0.87,1.529c-0.393,0.473 -0.901,0.925 -1.523,1.357c-0.622,0.432 -1.399,0.879 -2.331,1.342l-0.007,0.075c0.882,0.103 1.667,0.311 2.354,0.623c0.688,0.311 1.263,0.718 1.727,1.22c0.463,0.503 0.802,1.097 1.017,1.785c0.215,0.687 0.285,1.446 0.211,2.276c-0.084,0.944 -0.367,1.836 -0.849,2.676c-0.483,0.84 -1.132,1.58 -1.949,2.22c-0.816,0.639 -1.778,1.157 -2.886,1.551c-1.108,0.394 -2.329,0.617 -3.664,0.67l-11.691,0.456l2.228,-25.023Zm3.209,11.102l5.364,-0.21c0.844,-0.033 1.603,-0.181 2.279,-0.446c0.676,-0.265 1.26,-0.616 1.751,-1.056c0.491,-0.439 0.878,-0.955 1.164,-1.55c0.285,-0.594 0.457,-1.23 0.518,-1.91c0.065,-0.729 -0.015,-1.388 -0.238,-1.974c-0.224,-0.587 -0.61,-1.083 -1.157,-1.488c-0.548,-0.405 -1.262,-0.703 -2.142,-0.894c-0.88,-0.191 -1.949,-0.262 -3.209,-0.213l-3.475,0.136l-0.855,9.605Zm-1.062,11.926l4.552,-0.178c1.221,-0.047 2.292,-0.205 3.213,-0.473c0.921,-0.268 1.693,-0.624 2.317,-1.068c0.623,-0.445 1.102,-0.968 1.438,-1.57c0.336,-0.603 0.535,-1.256 0.598,-1.961c0.071,-0.792 0.01,-1.523 -0.181,-2.193c-0.191,-0.669 -0.551,-1.241 -1.08,-1.716c-0.529,-0.474 -1.243,-0.838 -2.143,-1.092c-0.899,-0.253 -2.023,-0.353 -3.37,-0.3l-4.42,0.172l-0.924,10.379Z" style="fill:#fff;fill-rule:nonzero;stroke:#fff;stroke-width:2.5px;stroke-linecap:butt;stroke-miterlimit:1.41421;"/><path d="M89.086,118.304l-0.144,1.623l-12.22,0.477l-0.797,8.945l8.84,-0.345l-0.145,1.623l-8.839,0.345l-1.143,12.832l-4.212,0.165l2.228,-25.023l16.432,-0.642Z" style="fill:#fff;fill-rule:nonzero;stroke:#fff;stroke-width:2.5px;stroke-linecap:butt;stroke-miterlimit:1.41421;"/></svg>