<?xml version="1.0" encoding="UTF-8" standalone="no"?><!DOCTYPE svg PUBLIC "-//W3C//DTD SVG 1.1//EN" "http://www.w3.org/Graphics/SVG/1.1/DTD/svg11.dtd"><svg width="100%" height="100%" viewBox="0 0 56 56" version="1.1" xmlns="http://www.w3.org/2000/svg" xmlns:xlink="http://www.w3.org/1999/xlink" xml:space="preserve" xmlns:serif="http://www.serif.com/" style="fill-rule:evenodd;clip-rule:evenodd;stroke-linejoin:round;stroke-miterlimit:2;"><g id="Logo"><path d="M25.773,23.62l0,-12.62l-13.569,0l0,9.584l-9.204,-0l0,13.094l9.204,0l0,9.584l13.569,-0l0,-12.62l-3.226,-0l-0,9.583l-7.117,0l0,-9.583l-9.204,-0l0,-7.022l9.204,0l0,-9.584l7.117,0l-0,9.584l3.226,0Z" style="fill:#a1a1a1;fill-rule:nonzero;"/><path d="M44.335,22.486c0,2.29 -1.889,4.076 -4.286,4.076l-3.648,-0l-0,-7.876l3.648,-0c2.489,-0 4.286,1.602 4.286,3.8Zm-2.719,-11.486l-13.945,0l-0,32.262l8.73,-0l-0,-9.584l5.215,0c6.406,0 11.384,-4.888 11.384,-11.202c-0,-6.36 -5.07,-11.476 -11.384,-11.476Z" style="fill:#a1a1a1;fill-rule:nonzero;"/></g></svg>