<svg viewBox="0 0 717 144" xmlns="http://www.w3.org/2000/svg" fill-rule="evenodd" clip-rule="evenodd" stroke-linejoin="round" stroke-miterlimit="1.41"><path fill="none" d="M0 0h717.32v144.51H0z"/><clipPath id="a"><path d="M0 0h717.32v144.51H0z"/></clipPath><g fill="#a1a1a1" fill-rule="nonzero" stroke="#a1a1a1" clip-path="url(#a)"><path d="M277.92 102.7h11.27V10h-11.27v-2.5h43.59c15.3 0 39.98 2.5 39.98 22.9 0 16.8-18.58 22.35-32.61 23.32v.28c20.41 1.8 30.4 9.71 30.7 24.56.2 21.8 2.19 23.87 7.72 23.87 1.41 0 3.47-.83 5.03-1.8l.92 2.08c-4.82 3.61-11.62 4.72-16.87 4.72-14.88 0-18.5-10.55-18.5-25.82 0-22.34-5.38-25.67-19.7-25.95h-7.37v47.05h11.69v2.5h-44.58v-2.5zm32.88-49.55h7.8c15.95-.83 20-6.94 19.57-24.28 0-17.21-5.4-18.88-17.23-18.88h-10.13v43.16M374.24 102.7h9.57V46.63h-9.57v-2.5h9.86c5.67 0 15.95 0 18.85-3.6v62.17h9.64v2.5h-38.35v-2.5zm19.14-94.65c6.24 0 11.27 5 11.27 11.24s-5.03 11.24-11.27 11.24c-6.23 0-11.2-5-11.2-11.24 0-6.25 4.96-11.24 11.2-11.24M413.94 102.7h9.57V46.63h-9.57v-2.5h9.85c5.67 0 15.95 0 18.86-3.6v14.85h.28c3.76-8.06 12.9-12.91 22.26-12.91 13.18 0 19.56 6.52 19.56 21.51v38.72h9.57v2.5h-36.65v-2.5h7.94V58.84c0-9.7-4.18-11.37-8.22-11.37-7.8 0-14.74 10.12-14.74 17.2v38.03h8.22v2.5h-36.93v-2.5"/><path d="M530.9 92.71c13.6-.28 20.27 5.83 20.27 19.3 0 16.92-12.62 29.97-31.9 29.97-15.38 0-27.5-7.91-27.5-18.18 0-6.66 6.38-12.21 11.98-13.75v-.27c-5.89-1.67-9.08-6.94-9.08-13.88 0-11.52 8.5-15.27 13.9-15.96v-.28c-7.38-3.33-11.49-9.3-11.49-16.93 0-12.63 12.48-20.26 24.1-20.26 7.8 0 13.33 2.07 17.37 5 2.62-3.06 6.1-6.11 10.7-6.11 4.18 0 9.43 2.5 9.43 7.35 0 3.75-2.48 7.08-6.95 7.08-4.18 0-6.38-3.2-6.38-6.38 0-2.78.85-4.58 3.76-6.11v-.28c-5.39.7-6.66 3.75-9.14 6.25 3.82 3.33 5.95 9.57 5.95 14.02 0 13.18-12.76 19.98-24.74 19.98-2.2 0-3.97-.28-5.67-.83a17.33 17.33 0 00-4.53-.84c-5.32 0-11.27 3.75-11.27 7.22 0 3.75 4.67 3.89 8.15 3.89h23.03zm-24.96 17.49c-3.75 4.02-5.8 8.05-5.8 14.15.27 6.66 7.08 15.13 19.55 15.13 14.04 0 26.51-9.44 26.51-19.57 0-8.47-4.6-9.71-18.5-9.71h-21.76zm24.17-47.47c-.14-15.96-2.26-17.77-8.78-17.77-7.23 0-8.44 6.11-8.44 17.35 0 16.66 2.9 18.46 8.44 18.46 5.03 0 8.64-.97 8.78-18.04M559.53 102.7h9.57V46.63h-9.57v-2.5h9.85c5.67 0 15.95 0 18.86-3.6v62.17h9.57v2.5h-38.28v-2.5zm19.14-94.65c6.24 0 11.27 5 11.27 11.24s-5.03 11.24-11.27 11.24c-6.24 0-11.27-5-11.27-11.24 0-6.25 5.03-11.24 11.27-11.24M617.8 71.61v11.66c0 9.44 1.41 20.26 14.31 20.26 10.85 0 18.86-8.05 21.9-20.96h2.49c-3.05 13.75-11.49 24.3-28.57 24.3-17.72 0-30.97-13.47-30.97-31.51 0-18.74 14.17-32.9 30.55-32.9 14.6-.27 28.5 14.16 28.63 29.15H617.8zm17.5-2.5V57.18c0-7.64-2.05-12.22-8.71-12.22-4.75 0-8.8 2.92-8.8 12.22V69.1h17.51"/><path d="M655.43 102.7H665V46.63h-9.57v-2.5H665c5.67 0 15.95 0 18.86-3.6v14.15h.28c2.62-6.94 9.43-13.05 18.36-13.05 6.52 0 10.91 4.03 10.91 10.7 0 5.26-3.9 10.12-10.56 10.12-5.38 0-9.42-3.6-9.42-9.02 0-3.47.99-5.69 3.33-8.19h-.57c-8.72 3.9-12.05 11.38-12.05 22.07v35.4h12.76v2.49h-41.47v-2.5M5.37 44.78a42.4 42.4 0 1142.39 42.4 42.4 42.4 0 01-42.39-42.4zm42.4 22.04a22.04 22.04 0 100-44.08 22.04 22.04 0 100 44.09"/><path d="M5.37 44.78a42.4 42.4 0 1142.39 42.4 42.4 42.4 0 01-42.39-42.4zm42.4 22.04a22.04 22.04 0 100-44.08 22.04 22.04 0 100 44.09z" stroke-width="1.24" stroke-linejoin="miter" stroke-miterlimit="4"/><path d="M92.7 44.78c0-23.42 19-42.4 42.39-42.4a42.4 42.4 0 010 84.8 42.4 42.4 0 01-42.39-42.4zm42.39 22.04a22.04 22.04 0 100-44.08 22.04 22.04 0 100 44.09"/><path d="M92.7 44.78c0-23.42 19-42.4 42.39-42.4a42.4 42.4 0 010 84.8 42.4 42.4 0 01-42.39-42.4zm42.39 22.04a22.04 22.04 0 100-44.08 22.04 22.04 0 100 44.09z" stroke-width="1.24" stroke-linejoin="miter" stroke-miterlimit="4"/><path d="M179.74 44.78c0-23.42 19-42.4 42.4-42.4a42.36 42.36 0 0142.38 42.4 42.36 42.36 0 01-42.39 42.4 42.4 42.4 0 01-42.39-42.4zm42.1 22.04a22.04 22.04 0 100-44.08 22.04 22.04 0 100 44.09"/><path d="M179.74 44.78c0-23.42 19-42.4 42.4-42.4a42.36 42.36 0 0142.38 42.4 42.36 42.36 0 01-42.39 42.4 42.4 42.4 0 01-42.39-42.4zm42.1 22.04a22.04 22.04 0 100-44.08 22.04 22.04 0 100 44.09z" stroke-width="1.24" stroke-linejoin="miter" stroke-miterlimit="4"/></g></svg>