<?xml version="1.0" encoding="UTF-8" standalone="no"?><!DOCTYPE svg PUBLIC "-//W3C//DTD SVG 1.1//EN" "http://www.w3.org/Graphics/SVG/1.1/DTD/svg11.dtd"><svg width="100%" height="100%" viewBox="0 0 717 144" version="1.1" xmlns="http://www.w3.org/2000/svg" xmlns:xlink="http://www.w3.org/1999/xlink" xml:space="preserve" xmlns:serif="http://www.serif.com/" style="fill-rule:evenodd;clip-rule:evenodd;stroke-linejoin:round;stroke-miterlimit:1.41421;"><rect id="Artboard1" x="0" y="0" width="717.316" height="144.506" style="fill:none;"/><clipPath id="_clip1"><rect x="0" y="0" width="717.316" height="144.506"/></clipPath><g clip-path="url(#_clip1)"><g id="g3160"><path id="path2715" d="M277.916,102.704l11.27,0l0,-92.714l-11.27,0l0,-2.502l43.592,0c15.311,0 39.978,2.502 39.978,22.902c0,16.792 -18.572,22.349 -32.606,23.32l0,0.277c20.414,1.8 30.408,9.718 30.692,24.568c0.212,21.789 2.197,23.866 7.726,23.866c1.417,0 3.473,-0.83 5.032,-1.801l0.922,2.084c-4.82,3.608 -11.625,4.714 -16.87,4.714c-14.885,0 -18.5,-10.547 -18.5,-25.815c0,-22.343 -5.387,-25.674 -19.705,-25.95l-7.372,0l0,47.051l11.695,0l0,2.495l-44.584,0l0,-2.495Zm32.889,-49.554l7.797,0c15.948,-0.829 19.989,-6.939 19.563,-24.284c0,-17.21 -5.387,-18.876 -17.224,-18.876l-10.136,0l0,43.16" style="fill:#a1a1a1;fill-rule:nonzero;stroke:#a1a1a1;stroke-width:1px;"/><path id="path2717" d="M374.244,102.704l9.569,0l0,-56.075l-9.569,0l0,-2.495l9.853,0c5.67,0 15.948,0 18.855,-3.608l0,62.178l9.64,0l0,2.495l-38.348,0l0,-2.495Zm19.138,-94.656c6.238,0 11.271,4.997 11.271,11.242c0,6.245 -5.033,11.242 -11.271,11.242c-6.237,0 -11.199,-4.997 -11.199,-11.242c0,-6.245 4.962,-11.242 11.199,-11.242" style="fill:#a1a1a1;fill-rule:nonzero;stroke:#a1a1a1;stroke-width:1px;"/><path id="path2719" d="M413.938,102.704l9.569,0l0,-56.075l-9.569,0l0,-2.495l9.853,0c5.67,0 15.948,0 18.855,-3.608l0,14.85l0.283,0c3.757,-8.052 12.901,-12.907 22.257,-12.907c13.184,0 19.563,6.521 19.563,21.512l0,38.723l9.57,0l0,2.495l-36.646,0l0,-2.495l7.938,0l0,-43.862c0,-9.711 -4.182,-11.376 -8.222,-11.376c-7.797,0 -14.743,10.129 -14.743,17.21l0,38.028l8.222,0l0,2.495l-36.93,0l0,-2.495" style="fill:#a1a1a1;fill-rule:nonzero;stroke:#a1a1a1;stroke-width:1px;"/><path id="path2721" d="M530.894,92.71c13.609,-0.277 20.272,5.826 20.272,19.294c0,16.926 -12.617,29.976 -31.897,29.976c-15.381,0 -27.502,-7.911 -27.502,-18.181c0,-6.663 6.379,-12.213 11.979,-13.744l0,-0.277c-5.883,-1.666 -9.073,-6.939 -9.073,-13.879c0,-11.518 8.506,-15.268 13.893,-15.962l0,-0.277c-7.372,-3.331 -11.483,-9.299 -11.483,-16.933c0,-12.624 12.475,-20.258 24.1,-20.258c7.797,0 13.326,2.076 17.366,4.997c2.623,-3.055 6.096,-6.11 10.703,-6.11c4.182,0 9.427,2.502 9.427,7.357c0,3.743 -2.48,7.074 -6.946,7.074c-4.182,0 -6.379,-3.189 -6.379,-6.379c0,-2.779 0.85,-4.579 3.756,-6.11l0,-0.277c-5.387,0.695 -6.663,3.75 -9.143,6.245c3.827,3.332 5.954,9.576 5.954,14.021c0,13.184 -12.759,19.981 -24.738,19.981c-2.197,0 -3.97,-0.276 -5.671,-0.829c-1.488,-0.418 -3.048,-0.836 -4.536,-0.836c-5.316,0 -11.27,3.749 -11.27,7.222c0,3.743 4.678,3.885 8.151,3.885l23.037,0Zm-24.951,17.486c-3.757,4.026 -5.812,8.053 -5.812,14.156c0.283,6.662 7.088,15.126 19.563,15.126c14.035,0 26.51,-9.435 26.51,-19.564c0,-8.47 -4.607,-9.718 -18.5,-9.718l-21.761,0Zm24.171,-47.469c-0.142,-15.956 -2.268,-17.763 -8.789,-17.763c-7.23,0 -8.435,6.11 -8.435,17.351c0,16.651 2.906,18.458 8.435,18.458c5.032,0 8.647,-0.971 8.789,-18.046" style="fill:#a1a1a1;fill-rule:nonzero;stroke:#a1a1a1;stroke-width:1px;"/><path id="path2723" d="M559.53,102.704l9.569,0l0,-56.075l-9.569,0l0,-2.495l9.853,0c5.67,0 15.948,0 18.854,-3.608l0,62.178l9.569,0l0,2.495l-38.276,0l0,-2.495Zm19.138,-94.656c6.238,0 11.27,4.997 11.27,11.242c0,6.245 -5.032,11.242 -11.27,11.242c-6.237,0 -11.27,-4.997 -11.27,-11.242c0,-6.245 5.033,-11.242 11.27,-11.242" style="fill:#a1a1a1;fill-rule:nonzero;stroke:#a1a1a1;stroke-width:1px;"/><path id="path2725" d="M617.795,71.615l0,11.653c0,9.442 1.418,20.265 14.318,20.265c10.845,0 18.855,-8.052 21.903,-20.959l2.481,0c-3.048,13.744 -11.483,24.291 -28.566,24.291c-17.72,0 -30.975,-13.461 -30.975,-31.507c0,-18.734 14.176,-32.889 30.55,-32.889c14.602,-0.277 28.495,14.155 28.636,29.146l-38.347,0Zm17.508,-2.502l0,-11.936c0,-7.634 -2.056,-12.213 -8.718,-12.213c-4.75,0 -8.79,2.913 -8.79,12.213l0,11.936l17.508,0" style="fill:#a1a1a1;fill-rule:nonzero;stroke:#a1a1a1;stroke-width:1px;"/><path id="path2727" d="M655.434,102.704l9.569,0l0,-56.075l-9.569,0l0,-2.495l9.569,0c5.67,0 15.948,0 18.854,-3.608l0,14.155l0.284,0c2.622,-6.939 9.427,-13.049 18.358,-13.049c6.521,0 10.916,4.026 10.916,10.689c0,5.274 -3.898,10.129 -10.561,10.129c-5.387,0 -9.428,-3.608 -9.428,-9.023c0,-3.466 0.993,-5.685 3.332,-8.187l-0.567,0c-8.719,3.891 -12.05,11.384 -12.05,22.073l0,35.391l12.759,0l0,2.495l-41.466,0l0,-2.495" style="fill:#a1a1a1;fill-rule:nonzero;stroke:#a1a1a1;stroke-width:1px;"/><path id="path2729" d="M5.374,44.779c0,-23.419 18.996,-42.401 42.387,-42.401c23.391,0 42.388,18.982 42.388,42.401c0,23.413 -18.997,42.395 -42.388,42.395c-23.391,0 -42.387,-18.982 -42.387,-42.395Zm42.387,22.045c12.192,0 22.045,-9.874 22.045,-22.045c0,-12.177 -9.853,-22.044 -22.045,-22.044c-12.191,0 -22.044,9.867 -22.044,22.044c0,12.171 9.853,22.045 22.044,22.045" style="fill:#a1a1a1;fill-rule:nonzero;stroke:#a1a1a1;stroke-width:1px;"/><path id="path2737" d="M5.374,44.779c0,-23.419 18.996,-42.401 42.387,-42.401c23.391,0 42.388,18.982 42.388,42.401c0,23.413 -18.997,42.395 -42.388,42.395c-23.391,0 -42.387,-18.982 -42.387,-42.395Zm42.387,22.045c12.192,0 22.045,-9.874 22.045,-22.045c0,-12.177 -9.853,-22.044 -22.045,-22.044c-12.191,0 -22.044,9.867 -22.044,22.044c0,12.171 9.853,22.045 22.044,22.045Z" style="fill:#a1a1a1;fill-rule:nonzero;stroke:#a1a1a1;stroke-width:1.24px;stroke-linejoin:miter;stroke-miterlimit:4;"/><path id="path2739" d="M92.701,44.779c0,-23.419 18.996,-42.401 42.387,-42.401c23.391,0 42.388,18.982 42.388,42.401c0,23.413 -18.997,42.395 -42.388,42.395c-23.391,0 -42.387,-18.982 -42.387,-42.395Zm42.387,22.045c12.192,0 22.044,-9.874 22.044,-22.045c0,-12.177 -9.852,-22.044 -22.044,-22.044c-12.192,0 -22.044,9.867 -22.044,22.044c0,12.171 9.852,22.045 22.044,22.045" style="fill:#a1a1a1;fill-rule:nonzero;stroke:#a1a1a1;stroke-width:1px;"/><path id="path2747" d="M92.701,44.779c0,-23.419 18.996,-42.401 42.387,-42.401c23.391,0 42.388,18.982 42.388,42.401c0,23.413 -18.997,42.395 -42.388,42.395c-23.391,0 -42.387,-18.982 -42.387,-42.395Zm42.387,22.045c12.192,0 22.044,-9.874 22.044,-22.045c0,-12.177 -9.852,-22.044 -22.044,-22.044c-12.192,0 -22.044,9.867 -22.044,22.044c0,12.171 9.852,22.045 22.044,22.045Z" style="fill:#a1a1a1;fill-rule:nonzero;stroke:#a1a1a1;stroke-width:1.24px;stroke-linejoin:miter;stroke-miterlimit:4;"/><path id="path2749" d="M179.744,44.779c0,-23.419 18.996,-42.401 42.387,-42.401c23.462,0 42.388,18.982 42.388,42.401c0,23.413 -18.926,42.395 -42.388,42.395c-23.391,0 -42.387,-18.982 -42.387,-42.395Zm42.104,22.045c12.192,0 22.044,-9.874 22.044,-22.045c0,-12.177 -9.852,-22.044 -22.044,-22.044c-12.192,0 -22.045,9.867 -22.045,22.044c0,12.171 9.853,22.045 22.045,22.045" style="fill:#a1a1a1;fill-rule:nonzero;stroke:#a1a1a1;stroke-width:1px;"/><path id="path2757" d="M179.744,44.779c0,-23.419 18.996,-42.401 42.387,-42.401c23.462,0 42.388,18.982 42.388,42.401c0,23.413 -18.926,42.395 -42.388,42.395c-23.391,0 -42.387,-18.982 -42.387,-42.395Zm42.104,22.045c12.192,0 22.044,-9.874 22.044,-22.045c0,-12.177 -9.852,-22.044 -22.044,-22.044c-12.192,0 -22.045,9.867 -22.045,22.044c0,12.171 9.853,22.045 22.045,22.045Z" style="fill:#a1a1a1;fill-rule:nonzero;stroke:#a1a1a1;stroke-width:1.24px;stroke-linejoin:miter;stroke-miterlimit:4;"/></g></g></svg>