<svg viewBox="0 0 196 42" xmlns="http://www.w3.org/2000/svg" fill-rule="evenodd" clip-rule="evenodd" stroke-linejoin="round" stroke-miterlimit="1.41"><g fill="#a0a0a0" fill-rule="nonzero"><path d="M191.96 17.08H178.6c.22-3.98 2.55-7.5 6.75-7.5 5.25 0 6.6 3.45 6.6 7.5m-6.6-11.03c-6.38 0-11.1 4.8-11.1 13.28 0 9.07 4.35 13.05 11.55 13.05 2.55 0 5.32-.38 7.65-1.8.45-.23.52-.45.3-.98l-.98-2.02c-.22-.45-.45-.45-.9-.23a12.53 12.53 0 01-5.7 1.35c-4.2 0-7.57-2.17-7.65-8.25h13.8c1.95 0 3.6-.75 3.6-3.75-.07-6.3-3.22-10.65-10.57-10.65m-26.33 3.83v15.9c0 4.5 1.73 6.6 6.75 6.6.9 0 3.3-.08 5.18-.68.52-.22.45-.45.37-.82l-.45-2.18c-.07-.3-.15-.45-.75-.37-1.05.15-2.85.3-3.67.3-2.33 0-3.23-.98-3.23-3.15V9.88h5.33c.6 0 .67-.23.67-.68V7.25c0-.45-.07-.75-.67-.75h-5.33V.65c0-.6-.3-.75-.75-.6l-1.57.6c-.53.23-.75.3-.9.98l-.6 3.45s-.08.37-.08.52c0 .15-.07.68-.07.68s-.3.07-.53.07c-.22.08-.6.15-.6.15l-2.62.53c-.53.15-.68.3-.68.82v1.43c0 .37.08.67.68.67h3.52v-.07zm-12.6 18.07c-2.02.75-4.87.9-6 .9-3.45 0-6.07-.97-6.07-4.5 0-4.57 4.2-4.95 6.52-4.95h5.55v8.55zm4.28 1.5v-15c0-5.4-2.85-8.4-9.23-8.4-2.62 0-6.07.38-8.47 1.43-.45.22-.53.45-.45.82l.6 2.1c.15.53.45.53.97.3 1.58-.45 4.5-.97 6.68-.97 4.72 0 5.7 2.02 5.7 5.02v1.05h-5.85c-7.65 0-10.5 4.13-10.5 8.55 0 4.2 2.1 7.95 10.35 7.95 3 0 6.67-.37 9.52-1.65.45-.15.68-.52.68-1.2M114.56 6.13c-8.1 0-11.7 5.62-11.7 13.42 0 7.5 3.3 12.83 10.87 12.83 1.35 0 3.9-.15 6.45-1.28v.45c0 2.48-.82 4.05-2.32 5.25-1.8 1.5-5.1 1.58-6.15 1.58-.45 0-.53.3-.53.6.08 1.12.38 2.47.38 2.47.07.45.22.6.9.6.75 0 5.4 0 8.02-2.17 2.85-2.33 3.98-5.25 3.98-10.13V8.53c0-.45-.15-.75-.6-.9-2.78-1.13-6.23-1.5-9.3-1.5m5.77 21.67c-2.4.75-4.87.98-6.07.98-4.43 0-7.05-3.15-7.05-9.45 0-6.9 3.07-9.6 7.57-9.6 1.5 0 3.68.22 5.55.82V27.8zM92.96 27.95c-2.03.75-4.88.9-6 .9-3.45 0-6.08-.97-6.08-4.5 0-4.57 4.2-4.95 6.53-4.95h5.55v8.55zm4.27 1.5v-15c0-5.4-2.85-8.4-9.22-8.4-2.63 0-6.08.38-8.48 1.43-.45.22-.52.45-.45.82l.6 2.1c.15.53.45.53.98.3 1.57-.45 4.5-.97 6.67-.97 4.73 0 5.7 2.02 5.7 5.02v1.05h-5.85c-7.65 0-10.5 4.13-10.5 8.55 0 4.2 2.1 7.95 10.35 7.95 3 0 6.68-.37 9.53-1.65.45-.15.67-.52.67-1.2m-26.1 1.65V18.2c0-8.7-3.45-12.15-11.7-12.15-1.57 0-4.65.23-6.07.45-2.33.3-3 1.5-3 3.68V31.1c0 .6.3.75.75.75h2.62c.53 0 .75-.07.75-.75V10.18c2.1-.3 3.83-.38 4.58-.38 6.22 0 7.8 2.85 7.8 8.63v12.75c0 .6.22.75.75.75h2.62c.75-.08.9-.23.9-.83m-31.2-3.15c-2.02.75-4.87.9-6 .9-3.45 0-6.07-.97-6.07-4.5 0-4.57 4.2-4.95 6.52-4.95h5.55v8.55zm4.28 1.5v-15c0-5.4-2.85-8.4-9.23-8.4-2.62 0-6.07.38-8.47 1.43-.45.22-.53.45-.45.82l.6 2.1c.15.53.45.53.97.3 1.58-.45 4.5-.97 6.68-.97 4.72 0 5.7 2.02 5.7 5.02v1.05h-5.85c-7.65 0-10.5 4.13-10.5 8.55 0 4.2 2.1 7.95 10.35 7.95 3 0 6.67-.37 9.52-1.65.45-.15.68-.52.68-1.2m-25.43-4.42c0-4.5-3.82-6.23-7.8-7.73-4.12-1.57-5.7-2.4-5.7-4.57 0-1.73 1.58-3.15 4.35-3.15 2.18 0 3.83.22 6.38 1.2.3.15.52.22.75-.23l.9-2.25c.07-.3 0-.75-.38-.9a20.27 20.27 0 00-7.57-1.42c-5.55 0-8.55 2.85-8.55 6.9 0 3.82 2.32 5.47 7.72 7.42 3.75 1.35 5.93 2.48 5.93 4.8 0 2.33-1.95 3.6-5.03 3.6-2.25 0-5.17-.52-7.72-1.72-.6-.23-.9-.08-1.05.37L.1 29.3c-.23.53-.08.83.3.98 2.62 1.42 6.37 1.95 9.3 1.95 5.1.15 9.07-2.25 9.07-7.2"/></g></svg>