<svg clip-rule="evenodd" fill-rule="evenodd" stroke-linejoin="round" stroke-miterlimit="2" viewBox="0 0 318 60" xmlns="http://www.w3.org/2000/svg"><path d="m.967 0h316.1v88.749h-316.1z" fill="none"/><path d="m.967 0h316.1v81.5h-316.1z" fill="none"/><g fill="#9c9c9c" fill-rule="nonzero"><path d="m83.967 39c-.3 0-.6.1-.9.2-.4-1.4-.8-2.8-1.1-4.2l1.6-2.2c.2-.3 2.9-3.7 2.9-6.9 0-4.7-4-4.8-4.4-4.8-1 0-2.5.4-3.4 1.6-.9 1.1-1.1 2.6-.7 4.4.1.3 1 3.9 2 7.5l-1.6 2.1-3.5-13.4 8-5.9c2.2-1.7 3.5-4.4 3.5-7.2 0-4.3-3-8-7.1-8.9v-.9l-1.6-.4v1l-4.6-.3h-1.5v3.7h1.5c.4 0 .8.4.8.8s-.4.8-.8.8l-5-.5.4 1.6 4.5.4h.1c1.3 0 2.3-1 2.3-2.3s-1-2.3-2.3-2.3v-.6l4.5.3v4.3c0 .5-.2.9-.5 1.2s-.8.5-1.3.4l-5.1-.3.4 1.5c-1.4.9-2.6 2.1-3.5 3.4l-2-4.3c.3-.5.4-1.1.4-1.6 0-2-1.6-3.6-3.6-3.6-1.3 0-2.4.6-3 1.6l.4-4.2h-32.1l.3 4.3c-.6-1-1.8-1.6-3-1.6-2 0-3.6 1.6-3.6 3.6 0 .6.1 1.1.4 1.6l-2 4.3c-.9-1.4-2.1-2.5-3.5-3.4l.4-1.5-5.1.3c-.5 0-.9-.1-1.3-.4-.3-.5-.4-.9-.4-1.4v-4.3l4.5-.3v.6c-1.3 0-2.3 1.1-2.3 2.3 0 1.3 1 2.3 2.3 2.3h.1l4.5-.3.4-1.6-5 .5c-.4 0-.8-.4-.8-.8s.4-.8.8-.8h1.5v-3.6h-1.5l-4.5.2v-1l-1.6.4v.8c-4.2.9-7.1 4.6-7.1 8.9 0 2.8 1.3 5.5 3.5 7.2l8 5.9-3.5 13.5-1.6-2.1c1-3.5 1.9-7.1 2-7.5.4-1.8.2-3.3-.7-4.4-.9-1.2-2.4-1.6-3.4-1.6-.5 0-4.5.2-4.5 4.9 0 3.1 2.7 6.5 2.9 6.9l1.6 2.1c-.4 1.4-.8 2.8-1.1 4.2-.2-.1-.5-.2-.8-.2-1.2 0-2.2 1-2.2 2.2s1 2.2 2.2 2.2c1 0 1.9-.7 2.1-1.6.1-.5.7-2.5 1.3-4.8l1.6 2.1-4.2 15.8c-.1.3-.1.5-.1.8 0 2 1.6 3.6 3.6 3.6s3.6-1.6 3.6-3.6c0-.9-.3-1.7-.9-2.4l3.7-6 7.4 10.4c.7 1 1.8 1.5 3 1.5 2 0 3.6-1.6 3.6-3.6s-1.6-3.6-3.6-3.6h-.2l-5-14.2c-.5-1.3-1.6-2.2-3-2.4h-.6l3.4-7.4 4.5 3.3c.6.5 1.4.8 2.2.8.2 0 .4 0 .7-.1l1.3 13.1c.4 3.6 2.3 7.1 5.3 9.8 3.1 2.8 6.8 4.3 10.6 4.3s7.6-1.5 10.6-4.3c3-2.7 4.9-6.3 5.3-9.8l1.2-13c.2 0 .4.1.7.1.8 0 1.6-.3 2.2-.8l4.5-3.3 3.4 7.4h-.6c-1.4.2-2.5 1.1-3 2.4l-5 14.2h-.2c-2 0-3.6 1.6-3.6 3.6s1.6 3.6 3.6 3.6c1.2 0 2.3-.6 3-1.5l7.4-10.4 3.7 6c-.8.6-1.1 1.4-1.1 2.3 0 2 1.6 3.6 3.6 3.6s3.6-1.6 3.6-3.6c0-.3 0-.5-.1-.8l-4.1-15.8 1.6-2.1c.6 2.3 1.2 4.3 1.3 4.8.2.9 1.1 1.6 2.1 1.6 1.2 0 2.2-1 2.2-2.2s-1-2.2-2.2-2.2zm-77.8-6.3-.7-1c-.7-.9-2.5-3.6-2.5-5.7 0-2.6 1.8-2.9 2.5-2.9.6 0 1.4.2 2 .9.5.6.6 1.6.4 2.8-.2.2-.9 2.7-1.7 5.9zm56.4-27.2c1 0 1.7.8 1.7 1.7 0 .4-.1.7-.3 1l-.3.4 3.1 6.5c-.4 1.1-.7 2.2-.7 3.4l-5-10.8c-.1-.2-.1-.4-.1-.6-.2-.8.6-1.6 1.6-1.6zm-10.7 4.8h-4.4v-2.1h4.5zm-5.9 0h-4.4v-2.1h4.4zm-5.9 0h-4.4l-.1-2.1h4.4zm-6 0h-4.1l-.2-2.1h4.3zm23.4 1.6-.2 2.5h-27l-.2-2.5zm.1-1.6h-4.2l.1-2.1h4.3zm-2.4-7.7-.1 2.7h1.5l.1-2.7h1.5l-.3 4.1h-4.4l.1-4.1zm-6.1 0-.1 2.7h1.5l.1-2.7h1.5l-.1 4.1h-4.5l.1-4.1zm-6.1 0v2.7h1.5v-2.7h1.5v4.1h-4.5l-.1-4.1zm-6.1 0 .1 2.7h1.5l-.1-2.7h1.6v4.1h-4.5l-.1-4.1zm-6.1 0 .2 2.7h1.5l-.1-2.7h1.5l.1 4.1h-4.4l-.3-4.1zm-2.5 6.1.6 7.2h29.8l.6-7.2 6.5 14-3.3 2.4c-.2-.1-.5-.1-.8-.1l.6-6.5h-37l.6 6.5c-.3 0-.6 0-.9.1l-3.3-2.4zm1.1 18.7h3.9l2.5 2.4h-6.4c.1-.4.2-.8.2-1.2s-.1-.8-.2-1.2zm-1-1.5c-.1-.1-.3-.3-.5-.4l-.3-3.6 4.1 3.9h-3.3zm-4.5-17.2-.3-.4c-.2-.3-.3-.7-.3-1 0-1 .8-1.7 1.7-1.7 1 0 1.7.8 1.7 1.7 0 .2 0 .4-.1.6l-5 10.8c-.1-1.2-.3-2.3-.7-3.4zm-7.7 28.7c.4.1 1.2.3 1.5 1.2l5.6 15.8.9-.3c.2-.1.4-.1.5-.1 1 0 1.7.8 1.7 1.7s-.8 1.7-1.7 1.7c-.6 0-1.1-.3-1.4-.7l-7.8-11.1.5-.9c.3-.6.5-1.2.5-1.8 0-1.6-1.1-3-2.6-3.4l.8-1.8c.3-.2.9-.4 1.5-.3zm-4.5 2.4 1.1 1.5h.3c.9 0 1.6.7 1.6 1.6 0 .3-.1.6-.2.8l-6.3 10 .8.5c.5.3.8.9.8 1.4 0 1-.8 1.7-1.7 1.7s-1.7-.8-1.7-1.7v-.4l8.1-30.9 3.4 2.5zm14.3-9.5c-.4 0-.8-.1-1.1-.4l-19-14.1c-1.8-1.4-2.8-3.5-2.8-5.7 0-3.3 2.2-6.1 5.2-7v3.6c0 .9.4 1.7 1 2.3.6.7 1.4 1 2.2 1h.2l1.4-.1c.3.1.6.2.7.2 3.8 1.5 6.3 5.2 6.3 9.3 0 .6-.1 1.3-.2 1.9l-4-2.9-.5 2 9.3 6.9.5-.2c.4-.2.9-.2 1.4 0 .6.3 1.1.9 1.1 1.6 0 .6-.3 1.1-.8 1.4-.3.1-.6.2-.9.2zm2.4 1h8.9l2.5 2.4h-11.1zm.4 3.9h12.6l2.5 2.4h-14.8zm.4 3.9h16.3l2.5 2.4h-18.6zm.6 6-.2-2h20l2.5 2.4h-22.3zm.3 1.9h23.5l2.5 2.4h-25c-.4-.8-.7-1.6-1-2.4zm13.7 10.5c-2.8 0-5.6-1-7.9-2.6h15.8c-2.3 1.6-5.1 2.6-7.9 2.6zm9.7-4.2h-19.5c-.8-.7-1.4-1.5-2-2.4h23.6c-.6.9-1.3 1.7-2.1 2.4zm4.3-8.2c-.1.9-.3 1.8-.6 2.7l-28.5-27.4h31.5l-.5 5.1c-1 .7-1.7 1.8-1.7 3.1 0 1 .4 2 1.1 2.6zm4.9-15.2c-.3.3-.7.4-1.1.4-.3 0-.7-.1-1-.3-.5-.3-.8-.9-.8-1.4 0-.7.4-1.3 1.1-1.6.4-.2.9-.2 1.4 0l.5.2 9.3-6.9-.5-2-4 2.9c-.1-.6-.2-1.2-.2-1.9 0-4.1 2.5-7.7 6.3-9.3.1 0 .4-.1.7-.2l1.4.1h.2c.8 0 1.6-.3 2.2-.9s1-1.4 1-2.3v-3.6c3.1.9 5.2 3.7 5.2 7 0 2.2-1 4.3-2.8 5.7zm1.6 26.8c-.3.5-.9.7-1.4.7-1 0-1.7-.8-1.7-1.7s.8-1.7 1.7-1.7c.2 0 .4 0 .5.1l.9.3 5.6-15.8c.3-.9 1.1-1.1 1.5-1.2.6-.1 1.2.1 1.4.3l.8 1.8c-1.5.4-2.6 1.8-2.6 3.5 0 .6.2 1.3.5 1.8l.5.9zm17-1.3v.4c0 1-.8 1.7-1.7 1.7s-1.7-.8-1.7-1.7c0-.6.3-1.1.8-1.4l.8-.5-6.3-10c-.2-.3-.2-.5-.2-.8 0-.9.7-1.6 1.6-1.6h.3l1.1-1.5-6-12.9 3.4-2.5zm-1.5-28.7c-.3-1.3-.2-2.2.4-2.8.5-.6 1.4-.9 2-.9.8 0 2.5.3 2.5 2.9 0 2.5-2.5 5.6-2.5 5.7l-.8 1c-.8-3.1-1.5-5.6-1.6-5.9z"/><path d="m113.167 2.2c2.2 0 3.9.5 5.2 1.5s1.9 2.4 1.9 4.2h-3.8c0-.9-.4-1.6-.9-2-.6-.4-1.4-.7-2.6-.7-.8 0-1.5.2-2 .5s-.8.9-.8 1.5c0 .5.2.9.5 1.1s.7.4 1.3.6 1.6.4 3 .8c1.5.4 2.6.8 3.4 1.2s1.4 1 1.8 1.7.6 1.5.6 2.5c0 1.1-.3 2.1-.9 3s-1.5 1.6-2.6 2-2.4.7-3.9.7c-2.2 0-4-.6-5.5-1.7-1.4-1.1-2.1-2.6-2.1-4.6v-.1h3.8c0 1 .4 1.9 1.1 2.4.7.6 1.7.9 2.8.9 1 0 1.9-.2 2.5-.6s1-.9 1-1.7c0-.5-.2-.9-.5-1.2s-.8-.6-1.4-.8-1.6-.5-2.9-.8c-1.6-.4-2.8-.8-3.5-1.3s-1.3-1-1.7-1.6-.6-1.4-.6-2.3c0-1.1.3-2.1 1-2.9.6-.8 1.5-1.4 2.5-1.8 1.1-.3 2.2-.5 3.3-.5z"/><path d="m127.367 3.7v3.9h2.6v2.4h-2.6v6.4c0 .6.1 1 .3 1.2s.6.3 1.2.3c.4 0 .8 0 1.1-.1v2.8c-.5.1-1.2.1-2.1.1-1.4 0-2.4-.2-3-.7-.7-.5-1-1.3-1-2.4v-7.7h-2.1v-2.4h2.1v-3.8z"/><path d="m138.067 7.2c3.8 0 5.6 1.2 5.6 3.7v6.8c0 1.3.1 2.2.5 2.7h-3.6c-.1-.4-.2-.8-.2-1.2-1 1.1-2.5 1.6-4.3 1.6-1.3 0-2.4-.3-3.2-1s-1.2-1.6-1.2-2.8.4-2.1 1.1-2.7c.8-.7 2.2-1.1 4.2-1.3 1.4-.1 2.3-.3 2.7-.6.4-.2.6-.6.6-1 0-.6-.2-1-.5-1.3-.4-.3-.9-.4-1.8-.4-.7 0-1.3.2-1.7.5s-.6.8-.7 1.5h-3.6c.1-1.4.7-2.5 1.8-3.2 1-.9 2.5-1.3 4.3-1.3zm-3 9.6c0 1.1.7 1.6 2.2 1.6 1.9 0 2.9-1 2.9-2.9v-1.4c-.3.3-1 .5-2.1.6-1 .1-1.7.3-2.2.6-.5.4-.8.8-.8 1.5z"/><path d="m158.967 2.6v17.8h-3.4v-1.6c-.8 1.3-2.1 2-3.9 2s-3.2-.6-4.2-1.9-1.6-3-1.6-5 .5-3.6 1.6-4.8 2.4-1.9 4.1-1.9c.8 0 1.5.2 2.2.5s1.2.8 1.6 1.4h.1v-6.5zm-9.6 11.4c0 1.2.3 2.2.8 3 .6.8 1.3 1.2 2.3 1.2s1.8-.4 2.3-1.1.8-1.8.8-3.1-.3-2.3-.8-3-1.3-1.1-2.3-1.1-1.8.4-2.3 1.1-.8 1.7-.8 3z"/><path d="m166.467 3.7v3.9h2.6v2.4h-2.6v6.4c0 .6.1 1 .3 1.2s.6.3 1.2.3c.4 0 .8 0 1.1-.1v2.8c-.5.1-1.2.1-2.1.1-1.4 0-2.4-.2-3-.7-.7-.5-1-1.3-1-2.4v-7.7h-2.1v-2.4h2.1v-3.8z"/><path d="m190.967 2.6v3.1l-9.6 11.4h9.8v3.3h-15v-3.1l9.6-11.4h-8.8v-3.3z"/><path d="m196.567 7.5v7.3c0 1 .2 1.8.5 2.3s.9.8 1.8.8c1 0 1.7-.3 2.1-.9s.6-1.5.6-2.8v-6.7h3.5v12.9h-3.4v-1.8h-.1c-.9 1.4-2.2 2.1-4 2.1-1.7 0-2.9-.4-3.6-1.3s-1.1-2.2-1.1-4v-8zm1.7-4.9v2.9h-3.4v-2.9zm5.1 0v2.9h-3.4v-2.9z"/><path d="m215.667 7.2c.3 0 .6 0 .8.1v3.3c-.4-.1-.8-.1-1.3-.1-2.3 0-3.5 1.4-3.5 4.1v5.8h-3.5v-12.9h3.4v2.4c.3-.8.9-1.5 1.7-2 .7-.5 1.5-.7 2.4-.7z"/><path d="m221.867 2.6v2.9h-3.5v-2.9zm0 4.9v12.9h-3.5v-12.9z"/><path d="m230.667 7.2c1.8 0 3.2.4 4.3 1.3s1.7 2.1 1.8 3.6h-3.5c-.2-1.5-1.1-2.2-2.6-2.2-.9 0-1.7.4-2.2 1.1-.5.8-.8 1.8-.8 3s.3 2.2.8 2.9 1.2 1.1 2.2 1.1c1.6 0 2.6-.9 2.8-2.6h3.4c-.2 1.7-.9 3-2 3.9s-2.5 1.4-4.2 1.4c-1.9 0-3.5-.6-4.7-1.8s-1.8-2.8-1.8-4.8c0-2.1.6-3.8 1.8-5.1 1.1-1.2 2.7-1.8 4.7-1.8z"/><path d="m242.467 2.6v6.7h.1c.4-.7.9-1.2 1.6-1.6s1.4-.6 2.2-.6c1.6 0 2.8.4 3.6 1.2.7.8 1.1 2.1 1.1 3.9v8.1h-3.5v-7.3c0-1-.2-1.8-.5-2.3s-.9-.8-1.8-.8c-1 0-1.6.3-2.1.9-.4.6-.7 1.5-.7 2.8v6.8h-3.5v-17.8c-.1 0 3.5 0 3.5 0z"/><path d="m118.167 33.2v2h-9.3v5.6h8.1v2h-8.1v8.1h-2.4v-17.7z"/><path d="m122.267 33.2v2.6h-2.1v-2.6zm0 4.9v12.8h-2.1v-12.8z"/><path d="m131.667 37.8c2.9 0 4.4 1.5 4.4 4.6v8.5h-2.1v-8.8c0-.7-.2-1.3-.7-1.8s-1.1-.7-2-.7c-1.2 0-2.1.4-2.8 1.1s-1 1.7-1 2.9v7.3h-2.1v-12.8h2v2c1-1.6 2.4-2.3 4.3-2.3z"/><path d="m144.367 37.8c3.2 0 4.8 1.1 4.8 3.4v7.4c0 .5.2.7.7.7.2 0 .4 0 .6-.1v1.6c-.4.2-.9.3-1.5.3-1.2 0-1.8-.7-1.8-2-1.1 1.3-2.6 2-4.5 2-1.3 0-2.4-.3-3.1-.9-.8-.6-1.1-1.5-1.1-2.7 0-1.1.4-2 1.1-2.7s2.5-1.2 5.2-1.5c.9-.1 1.5-.3 1.9-.5.3-.2.5-.6.5-1.1 0-1.4-1-2.1-2.9-2.1-1 0-1.8.2-2.3.6s-.8 1-.9 1.8h-2.1c.1-2.8 1.9-4.2 5.4-4.2zm-3.7 9.6c0 .6.2 1.1.6 1.4s1 .5 1.8.5c1.1 0 2.1-.3 2.8-.8.7-.6 1.1-1.2 1.1-2v-2.2c-.4.3-.9.4-1.5.5l-2.2.3c-.9.1-1.6.4-2.1.8-.3.3-.5.9-.5 1.5z"/><path d="m158.667 37.8c2.9 0 4.4 1.5 4.4 4.6v8.5h-2.1v-8.8c0-.7-.2-1.3-.7-1.8s-1.1-.7-2-.7c-1.2 0-2.1.4-2.8 1.1s-1 1.7-1 2.9v7.3h-2.1v-12.8h2v2c1.1-1.6 2.5-2.3 4.3-2.3z"/><path d="m175.367 38.1v1.4l-7.8 9.5h8.2v1.9h-10.8v-1.6l7.7-9.3h-7.2v-1.9z"/><path d="m188.967 33.2v17.7h-2.1v-1.7c-.3.7-.9 1.2-1.6 1.5s-1.6.5-2.5.5c-1.8 0-3.2-.6-4.3-1.9-1.1-1.2-1.6-2.9-1.6-4.9s.5-3.6 1.6-4.8c1-1.2 2.5-1.8 4.3-1.8.8 0 1.6.2 2.4.5s1.4.8 1.7 1.5v-6.6zm-9.9 11.4c0 1.4.4 2.5 1.1 3.4s1.7 1.3 2.9 1.3 2.2-.4 2.9-1.3 1.1-2.1 1.1-3.5c0-1.5-.4-2.6-1.1-3.5s-1.7-1.3-3-1.3c-1.2 0-2.2.4-2.8 1.3-.8.8-1.1 2-1.1 3.6z"/><path d="m197.467 37.8c1.8 0 3.2.7 4.3 2 1 1.3 1.5 3 1.5 5.1v.2h-9.6v.1c0 1.2.4 2.2 1.1 3s1.7 1.1 2.9 1.1c1.8 0 2.9-.8 3.3-2.5h2.1c-.3 1.4-.9 2.5-1.9 3.3-1 .7-2.2 1.1-3.6 1.1-2 0-3.5-.7-4.6-2s-1.6-2.9-1.6-4.8.6-3.5 1.7-4.7c1.2-1.3 2.7-1.9 4.4-1.9zm3.6 5.4c-.1-1-.4-1.9-1.1-2.6s-1.5-1-2.6-1c-1 0-1.8.3-2.5 1s-1.1 1.5-1.2 2.6z"/><path d="m211.867 37.8c1.8 0 3.3.6 4.3 1.8 1.1 1.2 1.6 2.9 1.6 4.9s-.5 3.6-1.6 4.8-2.5 1.8-4.3 1.8c-.8 0-1.6-.2-2.3-.5-.8-.3-1.4-.8-1.8-1.5v6.6h-2.1v-17.6h2.1v1.7c.7-1.4 2.1-2 4.1-2zm-4.2 6.7c0 1.5.4 2.7 1.1 3.5.7.9 1.7 1.3 3 1.3 1.2 0 2.2-.4 2.8-1.3.7-.9 1-2.1 1-3.7 0-1.4-.4-2.5-1.1-3.4s-1.7-1.3-2.9-1.3-2.1.4-2.8 1.3c-.8.9-1.1 2.1-1.1 3.6z"/><path d="m225.367 37.8c3.2 0 4.8 1.1 4.8 3.4v7.4c0 .5.2.7.7.7.2 0 .4 0 .6-.1v1.6c-.4.2-.9.3-1.5.3-1.2 0-1.8-.7-1.8-2-1.1 1.3-2.6 2-4.5 2-1.3 0-2.4-.3-3.1-.9-.8-.6-1.1-1.5-1.1-2.7 0-1.1.4-2 1.1-2.7s2.5-1.2 5.2-1.5c.9-.1 1.5-.3 1.9-.5.3-.2.5-.6.5-1.1 0-1.4-1-2.1-2.9-2.1-1 0-1.8.2-2.3.6s-.8 1-.9 1.8h-2.1c.1-2.8 2-4.2 5.4-4.2zm-3.7 9.6c0 .6.2 1.1.6 1.4s1 .5 1.8.5c1.1 0 2.1-.3 2.8-.8.7-.6 1.1-1.2 1.1-2v-2.2c-.4.3-.9.4-1.5.5l-2.2.3c-.9.1-1.6.4-2.1.8-.3.3-.5.9-.5 1.5z"/><path d="m240.267 37.8v2.2c-1.6 0-2.8.4-3.5 1.3-.8.8-1.1 2.1-1.1 3.9v5.7h-2.1v-12.8h2v2.7c1-2 2.4-3 4.4-3z"/><path d="m245.667 34.2v3.8h2.6v1.9h-2.6v8c0 .4.1.7.2.8.1.2.5.2 1.1.2h1.2v1.9h-1.7c-1.1 0-1.9-.2-2.3-.5-.4-.4-.6-1.1-.6-2.1v-8.3h-2.2v-1.9h2.2v-3.8z"/><path d="m255.367 37.8c1.8 0 3.2.7 4.3 2 1 1.3 1.5 3 1.5 5.1v.2h-9.6v.1c0 1.2.4 2.2 1.1 3s1.7 1.1 2.9 1.1c1.8 0 2.9-.8 3.3-2.5h2.1c-.3 1.4-.9 2.5-1.9 3.3-1 .7-2.2 1.1-3.6 1.1-2 0-3.5-.7-4.6-2s-1.6-2.9-1.6-4.8.6-3.5 1.7-4.7c1.2-1.3 2.7-1.9 4.4-1.9zm3.6 5.4c-.1-1-.4-1.9-1.1-2.6s-1.5-1-2.6-1c-1 0-1.8.3-2.5 1s-1.1 1.5-1.2 2.6z"/><path d="m269.667 37.8c1.9 0 3 .7 3.5 2.2.4-.7 1-1.2 1.7-1.6s1.5-.6 2.3-.6c1.5 0 2.5.3 3.2 1s1 1.5 1 2.7v9.5h-2.1v-8.5c0-.9-.2-1.6-.6-2.1s-1-.7-1.9-.7c-1 0-1.8.3-2.4.9s-.9 1.4-.9 2.3v8.1h-2.1v-8.5c0-.9-.2-1.6-.6-2.1s-1-.7-1.8-.7c-.6 0-1.2.1-1.7.4s-.9.7-1.3 1.3-.5 1.1-.5 1.5v8h-2.1v-12.8h2v1.9c1.1-1.5 2.5-2.2 4.3-2.2z"/><path d="m289.867 37.8c1.8 0 3.2.7 4.3 2 1 1.3 1.5 3 1.5 5.1v.2h-9.6v.1c0 1.2.4 2.2 1.1 3s1.7 1.1 2.9 1.1c1.8 0 2.9-.8 3.3-2.5h2.1c-.3 1.4-.9 2.5-1.9 3.3-1 .7-2.2 1.1-3.6 1.1-2 0-3.5-.7-4.6-2s-1.6-2.9-1.6-4.8.6-3.5 1.7-4.7c1.2-1.3 2.7-1.9 4.4-1.9zm3.6 5.4c-.1-1-.4-1.9-1.1-2.6s-1.5-1-2.6-1c-1 0-1.8.3-2.5 1s-1.1 1.5-1.2 2.6z"/><path d="m304.267 37.8c2.9 0 4.4 1.5 4.4 4.6v8.5h-2.1v-8.8c0-.7-.2-1.3-.7-1.8s-1.1-.7-2-.7c-1.2 0-2.1.4-2.8 1.1s-1 1.7-1 2.9v7.3h-2.1v-12.8h2v2c1-1.6 2.4-2.3 4.3-2.3z"/><path d="m314.467 34.2v3.8h2.6v1.9h-2.6v8c0 .4.1.7.2.8.1.2.5.2 1.1.2h1.2v1.9h-1.7c-1.1 0-1.9-.2-2.3-.5-.4-.4-.6-1.1-.6-2.1v-8.3h-2.2v-1.9h2.2v-3.8z"/></g></svg>