<svg viewBox="0 0 63 16" xmlns="http://www.w3.org/2000/svg" fill-rule="evenodd" clip-rule="evenodd" stroke-linejoin="round" stroke-miterlimit="1.41"><path fill="none" d="M0 0h62.87v15.79H0z"/><g fill="#a0a0a0" fill-rule="nonzero"><path d="M4.89 10.39c0 .7.3 1.3.8 1.6.5.3 1.1.5 1.8.5.9 0 2.3-.4 2.3-1.6 0-1.1-1.5-1.4-2.3-1.6-3-.8-6.8-.8-6.8-4.8-.1-3.3 3.7-4.3 6.5-4.3 3.2 0 6.6.9 6.7 4.7h-4.3c0-.6-.2-1-.6-1.3-.5-.2-1-.3-1.6-.3-.8 0-2.1.1-2.1 1.1 0 1.4 3.2 1.6 5.4 2.1 3 .6 3.7 2.7 3.7 3.9 0 3.9-3.7 5.2-7 5.2-3.5 0-7-1.2-7.2-5.2h4.7zM30.99 15.29h-4.7v-2h-.1c-.9 1.5-2.8 2.4-4.5 2.4-4.2 0-5.4-2.4-5.4-6.3V.59h4.8v8.5c0 1.9.8 2.6 2.4 2.6 1 0 2.6-.7 2.6-3.3V.59h4.8v14.7h.1zM42.49 15.29h-5.6L32.09.59h4.9l2.7 9.7h.1l2.7-9.7h4.9l-4.9 14.7zM48.29 5.09c.1-1.9 1-3.1 2.3-3.9 1.3-.7 3-1 4.7-1 3.5 0 6.8.8 6.8 4.9v6.4c0 1.2 0 2.6.6 3.8h-4.8c-.2-.5-.2-.9-.3-1.4-1.2 1.3-3.1 1.8-4.8 1.8-2.8 0-5-1.4-5-4.4 0-4.8 5.2-4.4 8.5-5.1.8-.2 1.3-.5 1.3-1.4 0-1.1-1.3-1.5-2.3-1.5-1.3 0-2.2.6-2.4 1.8h-4.6zm6.2 7.6c2.3 0 3-1.3 2.9-4.3-.7.4-1.9.5-3 .8-1.1.3-2 .7-2 1.9.1 1.2 1 1.6 2.1 1.6"/></g></svg>