<svg clip-rule="evenodd" fill-rule="evenodd" stroke-linejoin="round" stroke-miterlimit="2" viewBox="0 0 522 384" xmlns="http://www.w3.org/2000/svg" xmlns:xlink="http://www.w3.org/1999/xlink"><clipPath id="a"><path clip-rule="evenodd" d="m0 0h520.849v383.76h-520.849z"/></clipPath><clipPath id="b"><path clip-rule="evenodd" d="m314.039 108.694c1.225 4.309 32.08 14.051 37.725 11.701 5.644-2.349 12.1-9.284 8.852-11.676-3.247-2.392-37.816-12.362-41.733-10.394s-5.546 7.9-4.844 10.369z"/></clipPath><path d="m0 0h520.849v383.76h-520.849z" fill="none"/><g clip-path="url(#a)"><path d="m136.579 371.952 96.995 4.566s275.616-96.762 270.635-117.575c-4.981-20.812-105.483-38.675-105.483-38.675z" fill="#9b9b9b"/><path d="m114.461 176.165s.993-.061 2.901-.366c.803-.129 1.751-.275 2.841-.553 3.179-.81 7.49-2.357 12.785-4.058 46.207-14.844 164.017-53.318 164.017-53.318.875-.279 1.358-1.216 1.079-2.09-.28-.874-1.216-1.357-2.09-1.078 0 0-118.304 36.93-164.562 51.614-5.301 1.683-9.71 2.921-12.771 4.103-1.049.405-1.906.836-2.635 1.196-1.732.857-2.576 1.383-2.576 1.383-.874.279-1.358 1.215-1.078 2.089.279.875 1.215 1.358 2.089 1.078z"/><path d="m115.846 181.711 181.882-59.421 3.807 60.137-179.947 60.624z" fill="#9b9b9b"/><path d="m115.32 180.134.01-.003s3.879-1.73 10.678-4.285c2.126-.799 4.552-1.631 7.224-2.534 45.91-15.51 163.776-53.227 163.776-53.227.682-.223 1.429-.118 2.022.285.594.403.968 1.057 1.013 1.773l3.69 60.145c.063.995-.55 1.908-1.495 2.226l-180.076 60.241c-.521.175-1.093.103-1.554-.197-.46-.299-.758-.792-.81-1.339l-5.607-61.353-.001-.01-.004-.04-.001-.028v-.007-.01l-.002-.037.001-.014c-.001-.046.001-.092.005-.137v-.011l.001-.011c.005-.048.011-.096.02-.144v-.005l.002-.005.007-.04.017-.066.011-.045.006-.018.007-.028.025-.065.013-.041.008-.017.011-.028.028-.059.019-.041.01-.019.013-.026.03-.049.026-.045.014-.021.013-.021.031-.041.034-.048.018-.021.013-.018.031-.033.042-.049.022-.021.013-.015.032-.028.049-.048.024-.018.013-.013.037-.027.054-.043.034-.022.004-.004.004-.002c.04-.027.082-.052.125-.075l.009-.006.01-.005c.04-.021.081-.041.124-.058l.013-.007.034-.013.009-.004.007-.002.026-.01.038-.013zm180.29-54.694c-18.182 6.057-118.817 39.542-160.773 52.786-2.69.849-5.139 1.609-7.327 2.219-4.716 1.316-8.139 2.151-9.87 2.555l5.52 57.62 176.068-59.735z"/><path d="m122.017 175.613.665 11.58 24.992 9.339 10.129-7.579" fill="#fff"/><path d="m147.406 194.345 9.401-6.723c.735-.55 1.778-.399 2.328.335.549.735.399 1.778-.335 2.328l-9.967 7.797c-.527.395-1.22.494-1.837.263l-25.177-8.844c-.914-.342-1.541-1.191-1.597-2.166 0 0-.419-5.88-.649-9.258-.014-.203-.053-.396-.039-.579.018-.225.065-.409.135-.589.371-.948.688-1.201.688-1.201-.053-.916.648-1.703 1.564-1.755.916-.053 1.703.648 1.756 1.564 0 0 .343.215.82 1.115.09.17.158.348.201.569.036.18.019.377.029.58.107 2.289.259 5.728.346 7.711z"/><path d="m113.101 160.385 8.305 7.215s15.759-1.892 20.651 2.082c4.891 3.973 14.369 15.962 15.8 18.916 1.431 2.955-32.763-7.222-35.64-9.38s3.506 19.325 3.506 19.325" fill="#fff"/><path d="m153.906 186.592c-1.344-1.829-3.191-4.147-5.146-6.46-2.893-3.422-6.035-6.823-8.228-8.573-1.431-1.145-4.006-1.537-6.695-1.756-5.757-.468-12.126.338-12.126.338-.717.086-1.438-.135-1.983-.609 0 0-3.573-2.716-5.785-5.083-.431-.461-.739-.923-1.024-1.338-.619-.897-.909-1.471-.909-1.471-.692-.602-.766-1.653-.164-2.345.602-.693 1.653-.767 2.345-.165 0 0 .609.207 1.584.694.45.224.951.465 1.467.827 1.86 1.303 3.983 3.245 5.086 4.29 2.263-.196 7.294-.523 11.945-.081 3.788.36 7.313 1.3 9.308 2.945 2.332 1.927 5.681 5.629 8.737 9.371 3.57 4.372 6.737 8.796 7.526 10.46.463.978.301 1.782-.113 2.426-.295.458-.833.99-1.824 1.18-.687.131-2.003.093-3.759-.202-7.361-1.24-24.256-6.513-30.689-9.177.719 5.322 3.858 16.206 3.858 16.206.261.88-.241 1.806-1.12 2.067-.88.262-1.806-.24-2.067-1.12 0 0-4.18-13.688-4.482-18.351-.091-1.399.286-2.326.619-2.718.347-.409.78-.627 1.261-.709.466-.08 1.096-.029 1.805.493 2.132 1.568 21.77 7.341 30.573 8.861zm-32.737-5.839-.067-.048c.022.018.045.034.067.048z"/><path d="m113.364 167.558c0-.039.108-.2.645-.766.069-.074.112-.09.225-.119.096-.025.206.017.32.032 1.075.141 2.751.514 4.175 1.465 1.582 1.057 2.982 2.664 3.144 5.247.099 1.707-.239 3.279-.89 4.636-1.45 3.024-4.096 4.955-4.096 4.955-.716.574-1.763.459-2.338-.256-.574-.716-.459-1.763.256-2.338 0 0 1.349-1.292 2.201-3.187.428-.951.662-2.083.447-3.29-.112-.643-.486-1.04-.876-1.34-.462-.355-1.036-.476-1.526-.603-.523-.135-1.043-.073-1.299-.248-.924-.629-.296-.865-.296-.865-.917.014-1.673-.72-1.687-1.638-.013-.903.698-1.649 1.595-1.685z"/><path d="m300.145 97.648c21.401-18.503 1.037-73.831 43.171-73.695 32.852.106 19.965 39.001 27.193 66.695 7.229 27.693 31.987 49.443 31.671 70.866s-9.13 115.032-9.13 115.032l-15.171 5.503" fill="#9b9b9b"/><path d="m391.445 275.313c.642-7.072 4.303-47.707 6.669-79.397 1.12-15.001 1.951-27.992 2.027-34.432.057-4.751-1.215-9.509-3.245-14.357-7.047-16.823-22.942-34.613-28.561-55.912-2.81-10.652-2.71-22.947-3.295-34.105-.423-8.059-1.179-15.5-3.926-21.127-2.896-5.932-8.179-9.572-17.806-9.579-11.348-.013-17.741 4.291-21.554 10.943-3.803 6.635-5.175 15.383-6.432 24.287-1.298 9.191-2.311 18.605-5.506 26.211-.554 1.317-1.169 2.583-1.894 3.762-1.779 2.894-3.989 5.339-6.69 7.299-.694.6-1.745.524-2.345-.17-.6-.695-.524-1.745.17-2.346 1.699-1.75 2.929-3.796 4.039-5.991.719-1.423 1.334-2.92 1.918-4.476 2.765-7.37 3.983-16.245 5.247-25.011 1.381-9.575 3.026-18.946 7.144-26.069 4.629-8.004 12.234-13.413 25.918-13.341 12.062.069 18.503 4.943 22.094 12.393 2.958 6.137 3.869 14.213 4.284 22.982.515 10.859.302 22.825 2.983 33.203 5.451 21.11 21.176 38.758 28.059 55.448 2.231 5.409 3.568 10.727 3.475 16.016-.114 6.487-1.021 19.568-2.236 34.672-2.801 34.843-7.231 80.49-7.231 80.49-.062.658-.497 1.221-1.119 1.446l-15.186 5.46c-.863.313-1.817-.134-2.13-.996-.313-.863.133-1.817.996-2.13z"/><path d="m317.132 41.368c-7.619 85.82-19.226 41.571-26.016 79.528-9.753 54.525-8.521 112.513-8.521 112.513l95.284 48.64s13.209-110.535 5.999-127.293c-7.209-16.758-16.896-28.807-27.982-57.516-11.199-29.002 5.702-68.213-22.972-67.327-15.44.476-15.476 7.894-15.792 11.455z" fill="#fff"/><path d="m315.475 41.221c-.646 4.437-1.337 8.493-1.911 12.264-.442 2.901-.836 5.614-1.202 8.156-2.224 15.485-4.177 24.314-6.445 29.608-2.687 6.272-5.523 7.167-8.133 9.091-3.329 2.454-6.671 6.116-9.158 20.11-3.416 19.242-5.474 38.911-6.699 56.334-2.262 32.168-1.698 56.676-1.698 56.676.019.87.514 1.661 1.29 2.057l95.364 48.483c.638.326 1.395.319 2.027-.018s1.059-.962 1.144-1.673c0 0 6.037-51.263 7.61-89.319.755-18.259.386-33.535-1.981-39.01-4.904-11.342-10.933-20.53-17.775-34.163-3.256-6.488-6.698-13.994-10.289-23.243-7.053-18.165-2.971-40.387-6.149-54.11-1.1-4.749-3.039-8.546-6.318-11.035-2.878-2.184-6.82-3.398-12.28-3.219-7.113.233-11.183 1.915-13.571 3.957-3.422 2.927-3.621 6.702-3.826 9.054zm60.598 237.44c1.359-11.649 6.073-53.524 7.525-85.847.783-17.439.718-32.043-1.525-37.281-4.834-11.294-10.802-20.445-17.554-34.023-3.278-6.591-6.74-14.214-10.347-23.605-7.055-18.371-2.947-40.788-6.107-54.659-.882-3.873-2.339-7.035-5.004-9.072-2.352-1.799-5.609-2.689-10.084-2.559-5.994.174-9.48 1.394-11.498 3.108-2.551 2.166-2.533 5.044-2.691 6.792-.088 3.055-.164 5.933-.308 8.672-.163 3.081-.354 5.962-.624 8.663-1.162 11.611-2.857 19.859-4.404 25.856-3.843 14.897-8.117 16.642-12.009 19.299-3.01 2.055-5.585 4.83-7.836 17.336-3.435 19.055-5.518 38.536-6.782 55.795-2.008 27.406-1.942 49.21-1.884 54.818z"/><path d="m287.787 186.848 14.274-48.193 28.569-22.023 27.672 16.258 4.96 6.236-9.771 2.891 5.358 4.216-8.793 2.852 7.01 5.984-9.649 3.519 6.757 6.915" fill="#fff"/><path d="m304.171 140.08c-1.201 4.191-7.249 25.261-11.059 37.861-.544 1.799-.988 3.445-1.5 4.798-.346.91-.722 1.662-1.039 2.313-.724 1.488-1.192 2.268-1.192 2.268-.261.88-1.187 1.382-2.067 1.122-.879-.261-1.382-1.187-1.122-2.067 0 0 .032-.908.235-2.551.089-.719.183-1.554.39-2.506.306-1.413.83-3.035 1.354-4.841 4.086-14.087 11.569-38.51 11.569-38.51.145-.488.44-.918.843-1.229l28.687-21.87c.72-.555 1.704-.617 2.488-.156l27.58 16.414c.217.128.408.294.565.491l4.922 6.265c.413.52.541 1.211.342 1.844-.2.634-.702 1.126-1.338 1.315l-6.204 1.795 2.395 1.908c.55.432.817 1.132.694 1.821s-.615 1.254-1.281 1.47l-5.688 1.807 4.479 3.871c.482.411.71 1.048.597 1.673-.113.624-.548 1.141-1.144 1.358l-7.17 2.566 4.856 5.031c.641.656.629 1.71-.027 2.351-.657.641-1.71.629-2.352-.027l-6.798-6.874c-.409-.418-.577-1.015-.447-1.585.129-.57.539-1.035 1.088-1.235l6.753-2.509-4.718-3.979c-.506-.432-.739-1.104-.609-1.757s.602-1.185 1.236-1.39l5.393-1.786-2.588-2.011c-.569-.448-.841-1.175-.705-1.886.137-.711.658-1.287 1.352-1.492l6.907-2.09-2.901-3.602-26.134-15.157z"/><path d="m355.689 132.531s7.575 1.677 9.944-1.708c2.37-3.384 20.832-34.309 16.891-41.181-3.941-6.873-8.318-5.82-10.014-4.584s-4.784 8.002-9.186 7.12c-4.402-.883-28.075-3.194-31.134-6.99-3.058-3.796 4.871-9.634 3.064-11.65-3.921-4.375-11.744-1.905-13.727-2.306l-5.738 25.68" fill="#9b9b9b"/><path d="m323 73.021-5.588 24.254c-.2.896-1.09 1.46-1.985 1.26-.896-.2-1.46-1.09-1.26-1.985l5.568-25.718c.218-.976 1.177-1.598 2.156-1.4.412.081 1.137-.05 2.044-.146 1.838-.196 4.214-.428 6.509-.109 2.331.323 4.563 1.215 6.248 3.072.707.777.939 1.768.657 2.964-.336 1.422-1.872 3.455-3.017 5.531-.312.565-.583 1.135-.74 1.697-.145.523-.192 1.039.169 1.481.286.351.888.603 1.643.912 1.566.64 3.724 1.208 6.146 1.728 8.207 1.763 19.33 2.882 22.21 3.441.966.188 1.76-.408 2.501-1.075 1.183-1.064 2.167-2.498 2.984-3.596.727-.975 1.392-1.737 1.917-2.124 1.361-1.004 3.916-1.965 6.912-.893 2.015.721 4.343 2.441 6.5 6.151.737 1.269 1.035 3.13.785 5.437-.289 2.662-1.289 6.065-2.718 9.751-4.52 11.664-13.307 26.349-14.9 28.645-1.165 1.674-3.111 2.712-5.304 3.019-1 .14-2.042.188-3.004.047-2.337-.344-4.103-1.211-4.103-1.211-.896-.198-1.462-1.087-1.264-1.983s1.087-1.462 1.983-1.264c0 0 1.55-.164 3.459-.384.668-.077 1.371-.161 2.055-.3.764-.155 1.549-.288 1.962-.876 1.37-1.939 8.172-13.122 12.832-23.415 1.898-4.194 3.453-8.229 4.071-11.401.312-1.601.507-2.899.046-3.714-1.092-1.93-2.184-3.133-3.263-3.787-1.435-.87-2.719-.578-3.353-.121-.461.331-1.003 1.206-1.719 2.14-1.141 1.489-2.528 3.133-4.106 4.171-1.553 1.021-3.277 1.518-5.145 1.132-2.882-.596-14.027-1.855-22.237-3.728-2.69-.613-5.078-1.296-6.813-2.032-1.543-.655-2.639-1.411-3.218-2.139-1.339-1.685-1.411-3.606-.709-5.582.619-1.738 1.906-3.537 2.878-5.076.26-.412.545-.994.693-1.31-.999-.934-2.279-1.362-3.584-1.561-2.493-.38-5.099-.05-6.898.097z"/><path d="m299.051 136.513c2.546 4.156 19.437 5.439 22.34 3.661 2.904-1.779 4.321-6.137 7.672-7.242s22.778 1.895 26.626-.401c3.848-2.297 24.274-43.721 18.722-44.475-5.552-.753-8.064 9.436-12.062 9.919-3.999.483-35.975-4.153-38.058-10.834s4.207-10.584 3.869-12.131c-.338-1.546-3.851-4.184-7.012-3.739-3.16.444-7.068 4.034-8.543 8.935-1.476 4.901-.592 8.563-2.664 13.403s-4.939 5.531-5.691 9.307-6.805 30.975-5.199 33.597z" fill="#fff"/><path d="m297.633 137.381c.693 1.543 2.704 3.041 5.492 4.186 1.17.48 2.494.846 3.878 1.14 4.164.883 8.866.99 11.927.679 1.748-.177 3.073-.582 3.799-1.028 2.181-1.341 3.658-3.959 5.524-5.882.471-.485.97-.92 1.606-1.131.591-.197 1.818-.158 3.396-.118 4.775.121 12.116.802 17.258.653 2.938-.086 5.264-.533 6.436-1.238.691-.414 1.905-1.728 3.276-3.838 4.373-6.735 12.139-22.504 15.59-32.735 1.257-3.725 1.922-6.791 1.82-8.581-.137-2.384-1.373-3.484-2.918-3.688-1.717-.227-3.246.209-4.63 1.108-2.166 1.407-3.949 4.166-5.64 6.481-.474.65-.94 1.255-1.426 1.733-.315.311-.586.609-.938.653-2.244.279-13.612-1.148-23.153-3.596-3.991-1.024-7.664-2.223-10.18-3.594-1.258-.686-2.248-1.272-2.496-2.056-.483-1.528-.405-2.869-.049-4.03.662-2.156 2.153-3.757 2.958-4.885.879-1.23 1.111-2.314.951-3.031-.271-1.218-1.772-3.084-3.975-4.224-1.585-.82-3.474-1.293-5.264-1.034-1.775.257-3.767 1.268-5.546 2.926-1.945 1.813-3.66 4.389-4.554 7.405-1.06 3.574-.914 6.497-1.493 9.678-.206 1.128-.514 2.293-1.044 3.546-1.582 3.738-3.677 4.947-4.841 7.102-.402.745-.722 1.575-.918 2.581-.536 2.749-3.809 17.847-4.958 26.962-.305 2.413-.459 4.427-.397 5.732.049 1.015.267 1.732.509 2.124zm28.338-62.274c-.089-.086-.194-.176-.301-.274-.507-.471-1.195-.924-1.96-1.237-.723-.297-1.518-.484-2.288-.379-1.384.188-2.912 1.206-4.236 2.676-1.172 1.3-2.172 2.968-2.752 4.864-1.044 3.415-.895 6.221-1.475 9.262-.263 1.376-.655 2.795-1.315 4.32-1.68 3.878-3.828 5.148-5.059 7.382-.245.445-.44.944-.563 1.548-.431 2.12-2.571 11.642-4.075 20.027-.751 4.191-1.347 8.091-1.472 10.599-.042.851-.314 1.98.053 1.865.048-.015-.04-.083-.059-.116.269.327.773.44 1.319.665.82.337 1.831.511 2.952.739.841.171 1.738.312 2.665.47.89.151 1.801.329 2.722.453 2.759.369 5.557.495 7.677.358 1.03-.067 1.852-.097 2.249-.34.915-.558 1.606-1.478 2.319-2.392 1.012-1.298 2.025-2.621 3.234-3.599.797-.645 1.673-1.156 2.661-1.479.898-.293 2.744-.421 5.132-.345 4.7.148 11.922.873 16.986.756 1.78-.041 3.236-.075 3.986-.481.117-.139 1.069-1.28 1.758-2.325 2.028-3.077 4.81-8.122 7.538-13.625 3.791-7.647 7.491-16.175 8.883-21.544.222-.855.352-1.794.423-2.473-.228.099-.445.233-.656.386-.76.553-1.435 1.34-2.086 2.181-1.762 2.276-3.373 4.873-5.103 6.103-.804.572-1.644.921-2.514 1.023-2.726.318-18.046-1.634-28.745-5.041-3.385-1.078-6.315-2.307-8.299-3.622-1.761-1.166-2.849-2.479-3.242-3.759-.755-2.457-.594-4.606-.007-6.463.789-2.499 2.934-5.295 3.65-6.183z"/><path d="m314.039 108.694c1.225 4.309 32.08 14.051 37.725 11.701 5.644-2.349 12.1-9.284 8.852-11.676-3.247-2.392-37.816-12.362-41.733-10.394s-5.546 7.9-4.844 10.369z" fill="#808080"/><g clip-path="url(#b)"><path d="m326.71 98.802s-7.794 4.096-5.218 7.811c2.577 3.715 35.272 10.689 35.272 10.689l9.748-11.181z" fill="#fff"/><path d="m327.01 97.167c-.366-.067-.744-.01-1.074.163 0 0-.687.088-1.782.436-.519.165-1.066.401-1.634.748-1.068.653-2.018 1.688-2.758 2.702-1.552 2.126-1.983 4.55-.37 6.854.432.617 1.328 1.39 2.717 2.098 1.951.994 5.118 2.105 8.782 3.186 10.572 3.121 25.406 6.137 25.406 6.137.795.17 1.62-.105 2.155-.718l9.639-11.275c.494-.568.646-1.357.398-2.067-.248-.711-.858-1.234-1.599-1.37zm.248 3.436c-.238.335-.66.895-1.239 1.534-.21.233-.439.464-.689.695-.484.446-1.021.889-1.401 1.408-.2.273-.498.532-.386.821.019.025.035.074.05.095-.022-.032-.039-.063-.05-.095-.01-.014-.021-.019-.034-.007-.284.275.816.547 1.508.875 2.462 1.167 6.469 2.474 10.815 3.735 7.896 2.293 16.883 4.41 20.139 5.159l6.535-7.349z"/></g><path d="m312.44 109.149c-.017.78.532 1.618 1.436 2.786.291.376.654.731 1.112 1.087 2.497 1.944 7.257 3.682 12.357 5.407 6.707 2.267 14.3 4.108 19.38 4.572 2.666.243 4.752.06 5.938-.446 3.796-1.619 7.9-5.107 9.779-8.205 1.848-3.049 1.649-5.828-.523-7.399-1.93-1.394-14.42-5.361-25.545-8.015-5.454-1.3-10.567-2.305-13.892-2.583-2.134-.179-3.675.007-4.399.38-2.131 1.097-3.73 3.137-4.702 5.356-1.152 2.63-1.412 5.464-.941 7.06zm46.832 1.309c-1.917-1.367-13.532-5.066-23.84-7.735-5.213-1.35-10.1-2.425-13.288-2.755-1.188-.123-2.053-.251-2.461-.051-1.444.707-2.48 2.11-3.161 3.585-.811 1.758-1.178 3.639-.886 4.727 0-.05.15-.152.113-.107-.11.133.356.024.573.13.293.143.646.186 1.025.365.485.229 1.013.515 1.606.814 4.154 2.099 11.04 4.762 17.579 6.577 3.949 1.096 7.744 1.937 10.666 2.253 1.639.177 2.931.273 3.667-.026 1.671-.678 3.423-1.809 4.915-3.092 1.418-1.218 2.62-2.554 3.211-3.785.108-.225.197-.441.246-.65.017-.075.03-.193.035-.25z"/><path d="m219.769 197.423s.295-.723-.966-.064c-.214.112-.315.485-.509.846-1.705 3.159-5.511 11.47-5.511 11.47-.454.797-.176 1.813.621 2.268.797.454 1.814.176 2.268-.621 0 0 5.214-7.508 7.064-10.584.211-.351.482-.628.469-.869-.075-1.421-.547-.799-.547-.799.454-.798.176-1.814-.621-2.268-.797-.455-1.813-.177-2.268.621z"/><path d="m204.04 155.027c3.177-2.59 13.075-6.447 17.554-6.114l6.667 2.167-12.443 21.352 12.804 10.493 15.334-18.522 5.118-.781s10.98 14.367-1.535 27.538c-7.902 8.317-21.749 6.895-21.749 6.895" fill="#9b9b9b"/><path d="m221.137 151.439c-1.586-.039-3.828.509-6.145 1.241-2.065.652-4.121 1.612-5.971 2.327-.867.335-1.681.539-2.403.799-.591.212-1.101.307-1.527.509-.711.58-1.759.474-2.339-.238-.58-.711-.473-1.759.238-2.339.699-.87 1.721-1.876 3.136-2.877.423-.299.896-.556 1.392-.807.686-.349 1.435-.635 2.191-.938 4.286-1.714 9.202-2.963 12.073-2.74.204.015.404.054.598.117l6.656 2.202c.721.234 1.298.782 1.568 1.491s.206 1.501-.176 2.157l-11.553 19.558 9.462 7.858 14.006-16.69c.328-.396.789-.657 1.297-.735l5.124-.743c.742-.114 1.487.187 1.943.783 0 0 5.105 6.75 4.756 15.421-.185 4.574-1.841 9.7-6.593 14.629-3.154 3.271-7.143 5.151-10.953 6.186-6.433 1.747-12.297 1.099-12.297 1.099-.913-.094-1.578-.911-1.484-1.824.093-.913.911-1.578 1.823-1.484 0 0 5.269.491 11.016-1.16 3.219-.926 6.6-2.532 9.234-5.345 3.895-4.16 5.267-8.42 5.365-12.23.139-5.417-2.252-9.902-3.458-11.809l-3.043.487-14.715 18.018c-.791.955-2.205 1.092-3.164.306l-12.873-10.409c-.897-.735-1.128-2.014-.543-3.016l10.76-18.719z"/><path d="m182.561 220.68 20.343-32.543s-9.847-10.895-4.067-25.762c5.78-14.866 23.451-11.283 23.451-11.283l-14.418 22.26 17.166 13.905 18.92-22.854s11.524 12.521-2.312 26.09c-10.823 10.614-24.576 7.273-24.576 7.273l-9.266 14.798" fill="#fff"/><path d="m199.818 188.257c-1.513-2.148-4.008-6.395-4.915-12.05-.677-4.217-.487-9.221 1.67-14.712 2.398-6.096 6.553-9.445 10.878-11.238 7.388-3.063 15.297-1.435 15.297-1.435.751.152 1.378.666 1.675 1.373.297.706.226 1.514-.191 2.157l-13.424 20.545 13.945 11.387 17.67-21.15c.366-.442.906-.705 1.481-.72.574-.015 1.127.219 1.516.642 0 0 5.79 6.32 4.869 15.035-.439 4.16-2.378 8.905-7.342 13.73-3.942 3.831-8.235 5.946-12.189 7.064-5.659 1.6-10.62 1.157-12.849.809l-8.698 13.753c-.487.777-1.514 1.013-2.292.526-.777-.487-1.013-1.513-.526-2.291l9.199-14.84c.398-.635 1.158-.945 1.887-.768 0 0 5.593 1.307 12.284-.649 3.441-1.007 7.17-2.886 10.579-6.26 4.106-4.063 5.781-7.987 6.116-11.461.425-4.392-1.271-8.005-2.578-10.071l-17.209 20.977c-.742.897-2.067 1.029-2.971.296l-17.222-13.836c-.878-.712-1.079-1.971-.464-2.92l12.268-19.107c-2.427-.045-5.777.227-8.996 1.592-3.276 1.389-6.398 3.973-8.184 8.621-1.749 4.544-1.894 8.673-1.312 12.15 1.13 6.758 4.984 11.041 4.984 11.041.756.835.865 2.071.268 3.026 0 0-9.992 16.761-16.249 26.051-.457.679-.914 1.299-1.355 1.868-2.031 2.612-3.467 4.169-3.467 4.169-.486.778-1.513 1.015-2.291.528-.778-.486-1.015-1.513-.529-2.291 0 0 .771-1.973 2.23-4.942.317-.647.675-1.329 1.085-2.037 4.6-7.947 12.613-20.35 15.352-24.562z"/><path d="m133.172 208.133-1.297-55.934 10.729-.22-1.77 65.974z" fill="#fff"/><path d="m131.513 208.247-.003-.075s-.467-1.146-.843-3.339c-.113-.657-.163-1.406-.208-2.233-.784-14.149-.897-50.348-.897-50.348-.015-.615.216-1.21.641-1.654.426-.444 1.01-.701 1.625-.713l10.73-.147c.613-.013 1.204.226 1.636.661s.668 1.027.651 1.64l-2.254 65.961c-.02.742-.503 1.39-1.207 1.622-.705.232-1.479-.003-1.935-.588l-7.588-9.878-.045-.06-.001-.002v-.001c-.03-.041-.057-.084-.082-.128l-.004-.006-.002-.003c-.025-.044-.047-.088-.067-.133l-.005-.008-.002-.005c-.017-.039-.033-.078-.046-.118-.015-.04-.028-.08-.039-.121l-.002-.006-.002-.008c-.012-.048-.023-.096-.031-.146l-.001-.003-.001-.007c-.008-.05-.014-.101-.017-.152l-.001-.001zm3.44-.544 4.22 5.325 1.144-58.744-6.032.164c.34 8.183 1.449 36.016 1.341 48.032-.008.828-.022 1.579-.104 2.241-.183 1.465-.426 2.471-.569 2.982z"/><path d="m137.211 154.766c1.709.252 4.008.029 6.344-.525.88-.208 1.744-.503 2.569-.808 3.14-1.163 5.659-2.576 5.659-2.576 1.077-.556 1.62-1.788 1.304-2.958 0 0-.639-2.353-1.063-4.621-.194-1.038-.356-2.053-.341-2.746.023-1.053.298-2.535.694-3.991.384-1.408.875-2.797 1.424-3.715.866-1.452 4.433-9.068 7.311-20.309 1.554-6.069 2.914-13.206 3.548-20.994.934-11.528-.294-21.049-3.481-27.617-3.329-6.863-8.721-10.71-16.044-10.713-3.544-.002-7.051 1.62-10.25 4.616-3.251 3.044-6.225 7.532-8.626 12.951-4.58 10.334-7.127 24.08-5.846 37.2.623 6.383 1.308 11.255 1.981 15.017 1.197 6.704 2.354 9.935 3.05 11.9.343.969.608 1.488.54 2.111-.072.66-.772 1.002-1.396 1.445-1.149.815-2.393 1.616-3.139 2.59-.618.808-.97 1.72-.922 2.791.08 1.798 1.908 4.769 5.192 7.127 2.931 2.106 6.963 3.806 11.492 3.825zm10.378-7.654c-.201-.861-.426-1.889-.611-2.901-.263-1.434-.437-2.842-.413-3.801.036-1.376.366-3.319.893-5.22.526-1.897 1.246-3.746 1.992-4.98.818-1.35 4.122-8.462 6.883-18.934 1.536-5.825 2.9-12.676 3.567-20.159.939-10.51.03-19.223-2.828-25.24-2.467-5.193-6.437-8.228-11.958-8.276-2.531-.022-4.981 1.258-7.285 3.379-2.919 2.687-5.557 6.691-7.739 11.498-4.417 9.733-6.932 22.709-5.836 35.125.553 6.262 1.179 11.043 1.804 14.737 1.081 6.387 2.148 9.473 2.793 11.348.578 1.681.819 2.628.691 3.706-.116.978-.564 1.826-1.261 2.569-.813.869-2.03 1.589-3.089 2.359-.556.404-1.191.713-1.169 1.352.016.451.327.995.764 1.608.912 1.282 2.435 2.68 4.37 3.822 2.234 1.318 5.016 2.296 8.083 2.337 1.04-.141 2.211-.718 3.524-1.27 1.143-.48 2.31-1.038 3.438-1.54 1.275-.567 2.466-1.103 3.387-1.519z"/><path d="m46.221 87.177c-1.22-.528-1.828-1.478-1.812-2.817.012-1.083.813-2.91 2.353-4.749 1.707-2.037 4.218-4.281 6.435-5.619 1.694-1.021 3.29-1.509 4.404-1.403.803.077 1.969.458 3.327 1.208 2.466 1.361 5.832 3.939 8.933 7.14 3.426 3.535 6.53 7.812 7.835 11.969.288.871-.186 1.812-1.057 2.1s-1.812-.185-2.1-1.057c-1.268-3.653-4.185-7.331-7.317-10.377-2.433-2.367-5.015-4.34-7.122-5.6-1.209-.722-2.192-1.221-2.83-1.263-.199-.013-.422.118-.69.237-.571.254-1.194.65-1.84 1.118-1.95 1.413-4.416 4.547-5.379 5.821.762.657 1.681 1.632 2.648 2.889 2.828 3.673 6.669 9.884 9.203 15.078 1.276 2.616 2.359 4.97 2.606 6.708.05.352.09.673.051.974-.083.629-.08 1.104-.313 1.501-.464.789-.521 1.446-1.143 1.652-.234.077-.326.306-.573.317-.801.448-1.815.161-2.263-.639-.421-.752-.194-1.692.498-2.174-.177.046-.421-.003-.424.189-.001.059-.146.028-.138.092.012.09-.395.024-.284-.02.1-.041-.182-.122-.226-.242-.095-.259-.212-.549-.32-.889-1.439-4.516-6.126-13.567-9.745-18.782-.811-1.169-1.545-2.147-2.16-2.817-.207-.226-.52-.512-.557-.545z"/><path d="m4.138 118.103c.022.098.23.959.511 1.584.72 1.597 1.99 3.601 3.54 5.816 4.346 6.21 10.863 13.93 14.697 19.029 1.716 2.287 5.123 5.212 9.084 8.277 6.536 5.058 14.693 10.241 19.7 13.693.729.503 1.396.96 1.944 1.426 1.79 1.522 2.631 2.583 2.631 2.583.78.484 1.021 1.51.537 2.29-.483.78-1.509 1.02-2.289.537 0 0-.757-.203-2.115-.736-.587-.23-1.259-.501-2.016-.886-.483-.246-.978-.552-1.505-.879-3.498-2.166-8.208-5.43-12.95-8.844-7.08-5.098-14.084-10.736-16.904-14.58-4.418-6.033-12.431-15.685-16.479-22.322-1.368-2.243-2.299-4.195-2.626-5.622-.223-.973-.206-1.797-.026-2.446.636-2.287 2.371-4.614 4.495-6.339 2.447-1.987 5.371-3.119 7.495-2.889.949.104 2.298.784 3.819 2.156 4.222 3.813 11.332 13.477 19.462 20.357 9.308 7.877 18.792 14.256 23.367 16.482.421.205.865.473 1.2.64.204-.139.442-.232.703-.266.91-.121 1.746.52 1.866 1.43.097.694-.134 1.2-.47 1.578-.314.353-.833.671-1.644.654-.591-.012-1.671-.319-3.109-.993-4.747-2.228-14.63-8.638-24.338-16.619-2.448-2.012-4.812-4.267-7.041-6.547-4.79-4.9-8.94-9.922-11.93-12.804-.651-.628-1.237-1.144-1.757-1.512-.205-.146-.523-.308-.609-.351-1.256-.091-2.854.835-4.271 2.016-1.364 1.137-2.555 2.599-2.972 4.087zm55.7 29.388c.251.114.416.145.421.001.009-.248-.197-.165-.421-.001z"/><path d="m173.986 198.568 28.312-12.827-7.054 12.746-24.523 13.299" fill="#fff"/><path d="m196.973 190.857c-5.927 2.854-14.572 6.951-19.09 8.781-.428.174-.813.344-1.179.409-1.373.243-2.032.036-2.032.036-.835.379-1.821.007-2.2-.828-.379-.836-.008-1.822.828-2.201 0 0 .278-.632 1.366-1.503.291-.233.673-.41 1.086-.618 7.033-3.536 25.606-11.267 25.606-11.267.894-.405 1.948-.192 2.614.53.666.721.795 1.789.319 2.648l-7.228 12.65c-.192.347-.479.631-.828.82l-24.721 12.934c-.807.437-1.817.137-2.255-.669-.437-.807-.137-1.817.669-2.255l23.769-13.353z"/><path d="m190.211 148.927s12.339-3.562 12.873-3.63c.534-.067 10.198-17.873 10.198-17.873l-5.488-6.958" fill="#808080"/><path d="m211.023 127.559-4.534-6.063c-.569-.721-.445-1.767.276-2.335.72-.568 1.766-.445 2.335.276l5.666 6.817c.468.593.537 1.408.177 2.072 0 0-6.107 11.932-8.703 16.482-.515.902-.926 1.544-1.147 1.834-.671.882-1.446.983-1.708 1.022-.414.059-7.995 3.031-11.183 3.345-.165.016-.29-.009-.429-.043-.915-.223-1.1-.441-1.1-.441-.882.254-1.804-.255-2.059-1.136-.254-.882.255-1.804 1.136-2.059 0 0 .042-.284.699-.96.1-.103.193-.19.342-.265 2.47-1.231 8.524-2.519 10.965-2.99.147-.215.318-.47.477-.721 2.27-3.577 7.102-11.912 8.79-14.835z"/><path d="m235.916 165.065 11.369-2.614s2.652-14.524-.962-22.208c-3.613-7.684-9.024-18.985-9.024-18.985s9.271 5.495 15.805 17.952c6.535 12.458 7.215 17.915 7.215 17.915s-.365-31.631-21.445-51.124c-21.08-19.494-51.029-15.26-54.527-17.575-3.497-2.315.106-4.134-2.307-6.021-2.412-1.886-34.295-7.529-34.295-7.529l-9.058 6.901-9.894 27.781s19.003-2.644 24.525 9.428c5.521 12.072.338 12.024 3.056 16.499 2.719 4.475 30.73 14.733 32.932 14.258s12.741-24.527 16.35-24.664 13.615 4.01 17.796 11.756c4.181 7.745 12.464 28.23 12.464 28.23z" fill="#fff"/><path d="m205.92 126.864c-.241.246-1.563 1.615-2.473 2.971-3.481 5.187-7.991 14.393-10.674 18.642-.653 1.033-1.227 1.806-1.666 2.246-.528.53-1.04.758-1.409.838-.408.089-1.472.031-2.991-.354-3.82-.969-11.725-3.755-18.662-6.749-4.302-1.856-8.231-3.801-10.634-5.437-1.343-.915-2.258-1.802-2.7-2.526-1.348-2.207-1.264-3.593-.983-5.274.204-1.219.575-2.674-.032-5.359-.355-1.569-1.024-3.526-2.185-6.05-1.487-3.23-4.109-5.217-6.992-6.456-6.95-2.987-15.443-1.764-15.443-1.764-.711.099-1.422-.181-1.876-.737-.453-.557-.583-1.31-.342-1.986l9.828-27.804c.138-.388.386-.728.714-.977l9.043-6.921c.477-.364 1.085-.511 1.676-.407 0 0 14.067 2.46 24.257 4.668 3.456.748 6.473 1.472 8.38 2.062 1.356.421 2.266.862 2.654 1.165.931.725 1.363 1.481 1.583 2.206.208.685.21 1.373.108 2.073-.051.353-.213.707-.151 1.086.032.194.253.297.572.502.066.017.674.176 1.158.244 1.183.165 2.79.265 4.728.386 6.757.42 17.314 1.054 28.21 4.848 7.126 2.481 14.388 6.307 20.86 12.267 7.807 7.189 12.901 15.974 16.21 24.316 5.943 14.987 6.105 28.514 6.105 28.514.016 1.313-.997 2.409-2.307 2.497-1.309.089-2.46-.86-2.623-2.163 0 0-.3-2.121-2.157-6.774-1.055-2.642-2.592-6.048-4.823-10.282-1.792-3.403-3.799-6.258-5.749-8.599l3.514 7.374c1.284 2.724 1.896 6.215 2.085 9.716.193 3.596-.005 7.199-.326 9.847-.307 2.525-.695 4.181-.695 4.181-.177.97-.914 1.741-1.874 1.961l-11.549 1.83c-.797.183-1.608-.239-1.914-.997 0 0-3.576-8.781-7.218-17.001-1.894-4.274-3.805-8.396-5.233-11.028-1.651-3.04-4.291-5.461-7.018-7.244-3.464-2.264-7.064-3.536-8.986-3.551zm-57.63-49.706-7.817 5.93-8.687 24.209c3.52-.098 9.287.166 14.332 2.363 3.743 1.63 7.092 4.286 9.007 8.5 1.296 2.853 2.026 5.07 2.417 6.842.598 2.705.447 4.453.224 5.841-.21 1.3-.644 2.116.272 3.632.364.602 1.366 1.265 2.69 2.071 2.266 1.377 5.432 2.915 8.841 4.405 6.713 2.936 14.363 5.685 18.064 6.642.359.093.75.172 1.041.226.39-.534 1.218-1.696 1.872-2.805 2.661-4.506 6.475-11.984 9.568-16.677 1.247-1.891 2.411-3.355 3.348-4.122.78-.639 1.525-.902 2.127-.924 2.275-.081 6.894 1.299 11.253 4.178 3.179 2.101 6.224 4.975 8.138 8.541 1.448 2.698 3.386 6.921 5.302 11.302 2.751 6.289 5.462 12.905 6.607 15.724l8.133-2.47c.069-.634.153-1.453.241-2.402.225-2.435.493-5.73.322-9.026-.145-2.806-.561-5.618-1.586-7.802l-8.998-18.977c-.485-1.013-.25-2.223.578-2.981.828-.757 2.054-.884 3.019-.312 0 0 4.54 2.67 9.617 8.528 1.951 2.251 3.987 4.979 5.872 8.211-.55-1.773-1.181-3.597-1.906-5.445-3.036-7.747-7.7-15.929-14.91-22.625-5.941-5.517-12.626-9.057-19.183-11.372-12.553-4.431-24.665-4.425-30.536-4.984-2.211-.21-3.729-.614-4.44-1.087-1.249-.831-1.879-1.666-2.225-2.425-.418-.919-.461-1.794-.349-2.65.034-.259.083-.514.128-.767.012-.069.025-.174.035-.256-.221-.087-1.113-.43-1.897-.659-2.512-.734-6.495-1.641-10.785-2.544-7.921-1.668-16.88-3.316-19.729-3.833z"/><path d="m260.056 155.484s.866-.162-.515-.8c-.198-.091-.52.05-.883.118-3.187.597-11.165 2.698-11.165 2.698-.906.146-1.524.999-1.378 1.905.145.906.999 1.524 1.905 1.378 0 0 8.235-.501 11.448-.931.366-.049.716-.015.876-.164 1.112-1.038.238-.921.238-.921.907-.145 1.524-.999 1.379-1.905-.146-.906-.999-1.524-1.905-1.378z"/><path d="m160.593 86.795c-.168-.078-.466-.211-.722-.295-1.623-.534-4.291-1.023-7.184-1.454-6.511-.968-14.128-1.611-14.128-1.611-.915-.071-1.6-.871-1.53-1.785.071-.915.871-1.601 1.786-1.53 0 0 12.297.863 19.186 2.194 1.774.343 3.215.736 4.086 1.13.886.401 1.383.934 1.612 1.358.416.769.838 1.805 1.214 2.854.442 1.236.821 2.491 1.055 3.302 1.219.529 3.69 1.551 6.052 2.239 1.543.45 3.01.853 3.86.601 2.286-.675 3.256-2.118 5.075-3.088.539-.287 1.132-.543 1.81-.757.552-.175 1.581-.197 2.985.161 3.117.797 9.178 3.473 15.996 7.125 8.221 4.403 17.561 10.226 24.141 15.746 4.693 3.939 9.03 10.836 12.646 18.299 4.229 8.73 7.652 18.169 9.41 24.243.266.919.52 1.755.647 2.518.419 2.524.302 3.979.302 3.979.236.887-.293 1.798-1.18 2.034s-1.798-.293-2.034-1.18c0 0-.813-1.15-1.816-3.422-.305-.691-.554-1.505-.851-2.392-1.949-5.829-4.923-15.115-8.948-23.643-3.222-6.826-6.988-13.22-11.217-16.858-5.237-4.508-12.327-9.231-19.105-13.205-6.407-3.756-12.533-6.845-16.565-8.43-1.444-.569-3.149-.98-3.379-1.035-2.197.71-3.199 2.095-4.987 2.992-.547.275-1.148.52-1.836.713-1.1.308-2.847.179-4.764-.314-3.867-.995-8.618-3.252-8.618-3.252-.509-.239-.885-.692-1.026-1.237 0 0-.495-1.981-1.156-3.913-.255-.747-.532-1.489-.817-2.087z"/><path d="m142.453 216.675 19.954-76.982 23.696 9.416-18.458 74.98-17.413 9.526z" fill="#fff"/><path d="m140.813 216.402c.008-.048.018-.096.03-.144 0 0 .048-1.759.498-4.8.139-.937.343-1.983.604-3.13 4.472-19.638 18.197-69.222 18.197-69.222.169-.649.608-1.195 1.206-1.499.599-.303 1.299-.335 1.922-.087l23.655 9.521c1.034.41 1.606 1.521 1.34 2.6l-18.82 74.891c-.124.505-.455.934-.911 1.184l-17.46 9.439c-.427.234-.932.28-1.394.126-.462-.153-.84-.491-1.044-.933l-7.694-16.979c-.021-.045-.039-.09-.055-.135l-.002-.005-.001-.002c-.017-.048-.031-.096-.043-.145l-.002-.007-.001-.004c-.012-.048-.022-.096-.029-.145l-.002-.009v-.007l-.004-.021-.005-.067-.007-.067v-.021l-.001-.007.001-.009c-.002-.049-.001-.098.002-.148v-.004l.001-.007c.004-.05.009-.1.018-.15v-.003zm23.234-73.553c-2.543 10.457-12.23 50.067-17.096 66.777-.329 1.129-.659 2.142-.993 3.029-.75 1.991-1.37 3.351-1.681 4l6.752 14.512 15.004-8.305 17.452-72.389z"/><path d="m282.604 27.057c-8.264-.04-16.606 7.325-15.036 45.485 1.569 38.161.072 67.754 14.195 67.429 14.123-.326 18.033.922 19.372-54.753 1.263-52.506-2.08-58.08-18.531-58.161z" fill="#fff"/><path d="m282.613 25.395c-2.145-.287-4.301-.066-6.451.849-.854.363-1.671.889-2.466 1.542-1.899 1.559-3.58 3.994-4.992 7.448-2.819 6.898-4.444 18.475-3.619 37.41 1.135 25.369.971 46.99 4.754 58.707 2.33 7.218 6.191 10.994 11.976 10.839 5.531-.148 9.621-.282 12.712-2.793 1.858-1.51 3.429-3.876 4.631-7.757 2.312-7.464 3.429-21.151 3.931-46.375.516-25.999-.087-40.625-2.733-48.789-3.021-9.317-8.447-11.075-17.743-11.081zm-.017 3.325c7.514.069 12.047 1.271 14.425 8.822 2.515 7.987 2.877 22.267 2.16 47.629-.693 24.584-1.806 37.925-4.117 45.183-.891 2.799-1.917 4.574-3.268 5.656-2.445 1.956-5.734 1.657-10.084 1.741-2.345.045-4.079-1.067-5.413-3.059-1.756-2.623-2.856-6.561-3.65-11.516-1.953-12.189-1.828-30.216-2.599-50.736-.543-14.099.269-23.894 1.939-30.622 1.213-4.889 2.913-7.955 4.789-9.934 1.009-1.064 1.986-1.862 3.11-2.334.896-.376 1.766-.702 2.708-.83z"/><path d="m280.235 139.882-1.84 48.763 9.392-1.797 1.574-47.412" fill="#fff"/><path d="m285.712 185.038 1.987-45.657c.031-.917.8-1.637 1.717-1.607.917.031 1.637.8 1.607 1.717l-1.086 47.428c-.033 1.005-.758 1.853-1.746 2.042l-9.375 1.884c-.671.128-1.363-.056-1.881-.501s-.805-1.101-.779-1.784c0 0 .924-31.546 1.316-43.9.014-.43.003-.839.041-1.219.045-.447.111-.848.206-1.213.427-1.642.855-2.409.855-2.409.034-.917.807-1.634 1.724-1.599s1.633.807 1.599 1.724c0 0 .368.797.671 2.467.067.371.102.776.113 1.225.01.382-.032.789-.051 1.219-.442 10.115-1.5 33.101-1.868 41.083z"/><path d="m298.803 133.811-48.605-81.672s8.468-15.917 4.706-29.255c-4.852-17.204-23.369-20.74-23.369-20.74l5.803 30.263-29.918 5.986-7.008-29.558s-18.363 20.016-5.872 37.948c13.232 18.996 30.121 12.113 30.121 12.113l67.717 112.449" fill="#fff"/><path d="m234.661 30.615-5.438-28.028c-.147-.766.096-1.555.647-2.107.551-.551 1.34-.794 2.106-.648 0 0 8.353 1.563 15.66 7.691 4.024 3.374 7.728 8.117 9.601 14.703 1.207 4.248 1.283 8.74.764 12.964-.921 7.501-3.718 14.126-4.982 16.825 4.112 6.817 25.649 42.557 38.283 64.141 1.395 2.383 2.7 4.583 3.784 6.596 3.317 6.161 5.146 10.209 5.146 10.209.469.789.21 1.81-.579 2.279-.788.469-1.81.21-2.279-.578 0 0-2.686-3.538-6.52-9.392-1.252-1.913-2.562-4.109-3.992-6.472-14.357-23.731-38.794-65.391-38.794-65.391-.444-.745-.466-1.667-.059-2.432 0 0 3.186-5.978 4.676-13.57.857-4.363 1.171-9.276-.113-13.863-1.548-5.533-4.649-9.52-8.013-12.366-3.524-2.98-7.332-4.732-9.996-5.695l5.022 26.496c.237 1.233-.566 2.427-1.798 2.674l-29.931 5.921c-1.173.235-2.322-.502-2.598-1.666l-5.921-25.215c-2.177 3.09-5.097 8.037-6.395 13.786-1.265 5.603-.96 11.995 3.29 18.128 3.915 5.649 8.16 8.886 12.159 10.639 8.362 3.665 15.524.821 15.524.821.902-.368 1.938-.024 2.44.811l67.448 112.612c.473.786.219 1.808-.567 2.282-.786.473-1.809.219-2.282-.567l-67.178-110.95c-2.954.799-9.574 1.906-16.997-1.305-4.559-1.972-9.446-5.582-13.931-11.987-3.969-5.669-5.085-11.54-4.68-17.009.957-12.93 10.654-23.576 10.654-23.576.54-.588 1.361-.83 2.134-.629.772.201 1.371.813 1.555 1.59l6.571 27.453z"/><path d="m206.726 35.706s-.041.067.557.431c.169.103.247.207.518.24.522.065 1.24-.216 2.112-.402 7.613-1.623 26.909-6.347 26.909-6.347.899-.182 1.482-1.06 1.3-1.959-.181-.9-1.059-1.483-1.958-1.301 0 0-19.617 3.135-27.264 4.594-.875.167-1.646.186-2.102.448-.237.136-.268.262-.384.423-.411.567-.346.613-.346.613-.9.182-1.483 1.06-1.301 1.959.182.9 1.06 1.483 1.959 1.301z"/><path d="m101.357 96.252 229.679-58.105s11.521-2.397 11.496 9.799c-.025 12.121-7.805 13.974-7.805 13.974l-222.964 61.976" fill="#9b9b9b"/><path d="m331.529 40.324c-3.201.817-149.049 38.038-206.571 52.619-2.465.625-4.761 1.233-6.891 1.739-1.65.391-3.193.739-4.627 1.03-7.387 1.503-11.675 2.152-11.675 2.152-.889.225-1.794-.314-2.019-1.204-.226-.89.314-1.795 1.204-2.02 0 0 4.08-1.468 11.293-3.658 1.4-.426 2.923-.854 4.56-1.294 2.114-.568 4.424-1.125 6.889-1.748 58.176-14.688 206.797-51.956 206.797-51.956.03-.007.061-.015.092-.021 0 0 6.149-1.206 10.308 2.245 2.123 1.762 3.859 4.707 3.839 9.743-.021 5.163-1.338 8.653-2.907 11.013-2.595 3.902-5.978 4.903-6.519 5.041l-223.094 61.493c-.884.246-1.801-.272-2.047-1.157-.246-.884.272-1.801 1.156-2.047l222.83-62.458c.026-.007.053-.014.079-.02 0 0 2.889-.809 4.665-4.493.86-1.782 1.444-4.181 1.444-7.382.001-3.229-.901-5.196-2.267-6.321-2.497-2.055-6.126-1.382-6.539-1.296z"/><path d="m257.397 171.817-.684 25.313 11.631-4.031.134-21.849" fill="#fff"/><path d="m266.315 191.59.5-20.35c.006-.917.756-1.658 1.673-1.652.918.005 1.658.755 1.653 1.673l.269 21.851c-.006.875-.562 1.652-1.39 1.939l-11.561 4.229c-.706.244-1.487.127-2.09-.314-.602-.442-.95-1.151-.93-1.897 0 0-.173-16.394.308-22.791.029-.376.042-.721.139-1.009.394-1.163.849-1.497.849-1.497.025-.918.79-1.642 1.707-1.617.918.024 1.642.789 1.617 1.707 0 0 .437.358.767 1.54.082.293.077.638.085 1.016.097 4.618-.424 14.397-.725 19.508z"/><path d="m263.9 172.962c6.107.048 12.26-10.695 12.26-10.695l3.106-82.691s1.545-11.382-13.962-12.227c-15.508-.846-17.08 11.702-17.08 11.702l.85 84.571s2.884 9.245 14.826 9.34z" fill="#fff"/><path d="m281.558 79.722-2.829 82.642c-.015.415-.131.82-.338 1.181 0 0-2.066 3.821-5.195 6.974-.527.532-1.084 1.042-1.677 1.497-.627.483-1.264.931-1.939 1.287-1.905 1.003-3.828 1.594-5.693 1.321-4.219-.014-7.406-1.098-9.796-2.529-5.198-3.112-6.684-7.953-6.684-7.953-.05-.162-.077-.332-.079-.502l-1.227-84.568c-.001-.095.005-.19.017-.285 0 0 .802-6.802 7.044-10.836 2.804-1.812 6.734-3.092 12.262-2.812 6.858.347 10.748 2.645 13.004 5.165 3.452 3.858 3.217 8.499 3.13 9.418zm-7.939 81.758 3.352-81.991c.002-.074.009-.148.019-.222 0 0 .556-4.259-3.154-7.078-1.818-1.38-4.565-2.391-8.653-2.63-4.346-.255-7.466.635-9.683 2.043-4.118 2.615-5.028 6.891-5.153 7.609l.471 84.104c.315.815 1.653 3.796 5.037 5.864 1.958 1.196 4.584 2.077 8.058 2.12.805-.112 1.475-.616 2.208-1.123.747-.517 1.409-1.204 2.097-1.905.42-.427.827-.872 1.231-1.316 1.955-2.144 3.53-4.481 4.17-5.475z"/><path d="m271.839 74.432c.962 4.797-15.358 4.579-15.139-1.394.218-5.972 14.868.045 15.139 1.394z" fill="#fff"/><path d="m273.469 74.105c-.068-.401-.536-1.196-1.625-1.92-2.142-1.423-7.464-3.61-11.285-3.772-3.506-.149-5.83 1.362-6.038 4.545-.134 2.102.956 3.827 2.827 5.105 1.651 1.128 4.039 1.845 6.477 2.104 2.239.237 4.512.054 6.255-.466 1.309-.39 2.365-.999 3.059-1.724.406-.425.806-.863.922-1.39.043-.196.146-.352.108-.548-.035-.178.06-.286-.018-.452-.065-.135.015-.221-.066-.349-.062-.098.001-.174-.074-.264-.296-.359-.117-.588-.542-.869zm-3.212.972c.034.202.092.394.208.259.079-.092-.025-.175-.208-.259zm-1.127-.47c-1.805-.839-4.654-1.768-7.149-2.059-.816-.095-1.587-.106-2.253-.009-.436.064-.846.138-.849.579-.006.525.459.815.942 1.108.754.458 1.74.728 2.785.911 2.249.396 4.817.245 6.391-.478zm.313-.147c.027-.027.032-.055.002-.084-.034-.033-.019.017-.002.084z"/><path d="m150.494 366.392 227.385-84.343" fill="none"/><path d="m151.072 367.951s1.249-.2 3.596-.765c.997-.24 2.179-.519 3.528-.948 3.958-1.26 9.33-3.426 15.925-5.883 57.56-21.44 204.336-76.747 204.336-76.747.86-.319 1.3-1.277.981-2.137-.32-.861-1.277-1.3-2.138-.981 0 0-147.339 53.788-204.957 75.071-6.603 2.438-12.088 4.3-15.909 5.925-1.303.555-2.381 1.114-3.293 1.582-2.148 1.103-3.226 1.765-3.226 1.765-.86.32-1.299 1.277-.98 2.137.319.861 1.277 1.3 2.137.981z"/><path d="m385.72 165.467-7.841 116.582-230.466 85.258 5.801-124.795z" fill="#9b9b9b"/><path d="m385.707 163.805c.042-.001.083 0 .124.003l.011.001h.01l.017.003c.048.004.094.01.14.018h.003l.006.002c.254.046.486.148.683.295l.035.024.002.002.002.001.032.028c.191.155.349.353.457.587l.003.006.001.003c.019.042.037.085.052.13l.007.016.003.011.003.009c.013.04.025.079.034.119l.005.018.005.02.001.007.003.015.008.038.003.018.003.011.003.022.004.03.002.015.002.016.003.03.003.022v.011l.002.019.002.039.001.015v.007l.001.021-.001.018c.001.041 0 .082-.003.124 0 0-.026 6.465-.357 16.371-.073 2.181-.176 4.526-.315 7.005-1.919 34.045-6.316 93.263-6.316 93.263-.067.99-.708 1.848-1.639 2.192l-230.573 84.967c-.694.257-1.471.149-2.069-.289-.597-.437-.936-1.144-.902-1.884l5.978-124.786c.04-.84.592-1.568 1.39-1.833l232.6-76.689.001-.001.003-.001.017-.005c.039-.013.079-.025.119-.034l.017-.005.021-.005.007-.001.015-.003.038-.008.018-.003.011-.003.022-.003.03-.005.015-.001.015-.002.031-.003.022-.003h.011l.019-.002.038-.002.015-.001h.008l.021-.001zm-1.961 4.072-228.567 76.12-5.411 120.081 225.697-83.819c.592-9.731 3.734-60.977 6.132-91.647.193-2.476.405-4.814.625-6.985.626-6.183 1.19-11.009 1.524-13.75z"/><path d="m150.327 233.833 222.65-72.675 12.743 4.309-232.506 77.045z" fill="#fff"/><path d="m149.811 232.252c-.421.138-.77.437-.969.832-.199.396-.233.854-.093 1.274l2.868 8.686c.294.881 1.245 1.358 2.127 1.066l232.671-76.547c.901-.298 1.51-1.14 1.513-2.089.003-.95-.601-1.795-1.501-2.099l-12.734-4.334c-.457-.154-.951-.157-1.409-.007 0 0-144.101 46.682-200.493 65.078-2.39.78-4.63 1.486-6.677 2.189-1.585.544-3.058 1.07-4.41 1.584-6.966 2.647-10.893 4.367-10.893 4.367zm223.159-68.739c-10.867 3.574-145.487 47.84-199.578 65.506-2.389.78-4.614 1.532-6.682 2.171-1.601.496-3.1.94-4.496 1.323-4.543 1.248-7.888 2.077-9.732 2.518l1.794 5.353 224.489-74.924z"/><path d="m151.05 356.51 227.987-84.657" fill="none"/><path d="m151.629 358.069s1.252-.203 3.605-.771c.999-.241 2.184-.521 3.538-.952 3.967-1.265 9.353-3.439 15.967-5.905 57.712-21.519 204.877-77.029 204.877-77.029.86-.319 1.299-1.277.98-2.137-.319-.861-1.277-1.3-2.137-.98 0 0-147.73 53.99-205.501 75.352-6.62 2.448-12.119 4.317-15.951 5.948-1.306.556-2.387 1.117-3.302 1.587-2.153 1.105-3.234 1.769-3.234 1.769-.86.32-1.299 1.277-.98 2.138.32.86 1.277 1.299 2.138.98z"/><path d="m130.8 372.24 19.694-5.848s4.862-82.476 3.972-114.187c-.853-30.377-28.895-45.559-39.134-71.765-6.759-17.301 7.056-86.003-24.614-88.737-17.899-1.545-24.256 8.374-27.085 12.264" fill="#9b9b9b"/><path d="m148.032 364.407c.45-7.633 2.192-37.846 3.289-66.59.671-17.573 1.11-34.596.833-45.547-.218-8.624-2.741-15.971-6.421-22.7-9.154-16.742-25.155-29.846-32.332-48.376-1.719-4.439-2.186-12.129-2.316-21.243-.213-14.865.361-33.669-3.282-47.69-2.665-10.257-7.555-17.936-17.237-18.802-6.203-.556-10.947.327-14.598 1.878-6.283 2.671-9.295 7.292-10.99 9.608-.54.742-1.581.906-2.323.366s-.906-1.58-.367-2.322c1.888-2.613 5.294-7.756 12.331-10.8 4.057-1.755 9.333-2.817 16.251-2.241 11.251.935 17.351 9.474 20.522 21.368 3.802 14.263 3.396 33.421 3.708 48.565.175 8.496.535 15.676 2.163 19.804 7.222 18.328 23.23 31.177 32.399 47.722 4.056 7.318 6.825 15.326 7.115 24.733.341 11.022.014 28.16-.577 45.852-1.112 33.292-3.136 68.552-3.136 68.552-.063 1.082-.798 2.008-1.837 2.317 0 0-3.899 1.258-8.268 2.467-1.183.326-2.398.646-3.586.914-4.299.969-8.1 1.592-8.1 1.592-.879.261-1.806-.241-2.067-1.121-.261-.879.241-1.806 1.121-2.067 0 0 3.525-1.553 7.655-3.086 1.143-.424 2.335-.82 3.504-1.191 2.559-.813 4.989-1.52 6.546-1.962z"/><path d="m130.8 372.24-117.36-56.4s-.841-92.287-.96-105.12 23.471-7.842 41.04-35.52-5.763-75.474 20.16-76.32c39.604-1.292 10.363 63.609 24.96 93s32.51 34.33 33.84 61.8-1.68 118.56-1.68 118.56z" fill="#fff"/><path d="m130.08 373.739c.506.243 1.101.214 1.582-.077.48-.291.781-.806.8-1.367 0 0 1.288-37.146 1.885-71.157.339-19.299.453-37.591-.013-47.548-.417-8.916-2.53-15.548-5.685-21.388-6.672-12.355-18.253-21.004-28.242-41.2-3.766-7.614-4.428-17.691-4.206-28.333.327-15.676 2.604-32.549.73-45.076-.977-6.535-3.095-11.936-6.934-15.601-3.654-3.488-8.888-5.489-16.387-5.255-8.259.257-12.252 4.589-14.086 11.439-2.257 8.428-.86 21.185-.943 34.356-.069 11.028-1.197 22.377-6.976 31.453-9.855 15.476-21.676 20.334-29.845 24.116-4.086 1.892-7.325 3.617-9.282 5.934-1.515 1.794-2.369 3.924-2.347 6.707l.818 105.121c.009.949.556 1.811 1.412 2.222 0 0 59.485 28.982 93.848 45.204 3.421 1.615 6.59 3.108 9.455 4.374 8.747 3.865 14.416 6.076 14.416 6.076zm-.859-4.296c.277-9.18 1.162-39.872 1.568-68.362.275-19.204.333-37.406-.163-47.311-.413-8.243-2.368-14.375-5.302-19.765-6.734-12.372-18.365-21.02-28.451-41.247-4.041-8.104-4.915-18.823-4.715-30.167.271-15.431 2.516-32.047.631-44.372-.84-5.487-2.481-10.085-5.716-13.154-2.965-2.813-7.257-4.248-13.323-4.042-5.918.202-8.734 3.358-10.034 8.269-2.161 8.165-.655 20.512-.697 33.262-.04 11.877-1.388 24.069-7.584 33.861-3.549 5.609-7.341 9.924-11.139 13.34-9.001 8.096-18.036 11.083-23.991 14.238-3.249 1.721-5.512 3.347-5.476 6.705l1.085 103.559c9.183 4.356 61.478 29.184 92.533 44.374 3.399 1.662 6.545 3.204 9.323 4.65 5.162 2.687 9.134 4.867 11.451 6.162z"/></g></svg>