<svg viewBox="0 0 561 341" xmlns="http://www.w3.org/2000/svg" fill-rule="evenodd" clip-rule="evenodd" stroke-linejoin="round" stroke-miterlimit="1.41"><path fill="none" d="M.31 1h560v340H.31z"/><ellipse cx="91.16" cy="292.26" rx="19.38" ry="13.29" fill="#b8b8b8"/><path d="M90.92 280.21h-.15l-.09.01h-.24l-.23.02-.24.01-.23.02-.24.02-.23.02-.23.02-.23.02-.23.03-.23.02-.23.03-.23.04-.22.03-.23.03-.22.04-.23.04-.22.04-.22.04-.22.04-.21.05-.22.05-.22.05-.21.05-.21.05-.22.06-.2.05-.21.06-.21.06-.2.06-.21.06-.2.07-.2.06-.21.07-.2.07-.2.07-.2.07-.19.07-.19.08-.19.08-.19.07-.19.08-.18.08-.19.09-.18.08-.18.09-.11.05-.07.03-.18.09-.18.09-.17.09-.17.09-.18.1-.16.09-.17.1-.17.09-.16.1-.16.1-.16.1-.16.1-.15.1-.16.1-.15.1-.15.11-.15.1-.14.12-.15.1-.14.11-.14.12-.14.1-.13.12-.13.11-.14.12-.12.11-.13.12-.12.12-.13.11-.12.12-.11.12-.12.12-.11.12-.11.13-.11.12-.11.12-.1.12-.1.13-.1.12-.1.13-.1.13-.09.12-.09.13-.09.13-.08.13-.08.12-.08.13-.08.13-.08.13-.07.13-.07.13-.07.14-.06.13-.07.13-.06.13-.06.13-.05.14-.06.13-.05.14-.05.13-.04.13-.05.14-.04.13-.04.14-.03.13-.04.14-.01.07-.02.07-.01.06-.02.07-.01.07-.01.07-.01.07-.02.07v.07l-.02.06v.07l-.02.07v.07l-.01.07-.01.07v.07l-.01.07v.07l-.01.07v.07l-.01.07V292.54l.01.07v.07l.01.07v.06l.01.07.01.07v.07l.02.07v.07l.02.07v.07l.02.06.01.07.01.07.02.07.01.06.01.07.02.07.02.07.01.06.02.07.02.07.01.07.02.06.04.13.04.14.05.13.04.13.05.13.05.13.05.13.06.13.06.13.06.13.06.13.07.13.06.12.07.13.07.13.08.12.08.13.07.12.09.13.08.12.09.12.08.13.1.12.09.12.1.12.09.12.1.12.1.12.1.11.11.12.11.12.11.11.11.12.12.11.12.12.12.1.12.12.12.1.13.12.13.1.13.12.13.1.13.1.14.11.14.1.14.11.13.1.15.1.15.1.15.1.15.1.15.1.15.1.16.09.16.1.15.08.17.1.16.08.16.1.17.08.17.09.17.08.17.08.17.09.18.08.17.07.18.08.18.08.18.07.19.08.18.07.19.07.18.07.2.07.18.06.2.07.19.06.2.06.19.06.2.06.2.06.2.06.2.05.2.05.2.05.2.05.22.05.2.04.21.05.21.04.21.04.22.04.2.04.22.03.22.03.22.04.21.03.22.02.22.03.22.02.22.03.23.02.22.02.22.01.23.02.23.01.22.01.23.01H90l.23.01h1.38l.23-.02h.23l.23-.02.23-.01.23-.02.22-.02.23-.02.22-.02.22-.02.23-.03.22-.03.22-.03.22-.03.21-.03.22-.04.21-.03.22-.04.21-.04.21-.04.21-.05.21-.04.21-.05.2-.05.21-.05.21-.05.2-.05.2-.06.2-.05.2-.06.2-.06.2-.06.2-.07.19-.06.19-.07.19-.06.19-.07.18-.07.19-.07.18-.08.19-.07.18-.08.18-.07.17-.08.18-.08.17-.08.18-.09.17-.08.17-.08.16-.1.17-.08.16-.09.17-.09.16-.09.15-.09.16-.1.15-.09.16-.1.15-.09.12-.08.03-.01.14-.1.15-.1.14-.1.14-.1.14-.1.14-.1.13-.1.13-.11.14-.1.12-.11.13-.11.12-.1.13-.12.12-.1.11-.11.12-.12.11-.1.11-.12.11-.11.11-.11.1-.12.1-.11.1-.11.1-.12.1-.11.1-.12.08-.12.1-.11.08-.12.08-.12.08-.12.08-.11.08-.12.07-.12.08-.12.07-.12.06-.12.07-.12.06-.12.06-.12.06-.12.06-.12.05-.12.05-.12.05-.13.05-.12.04-.12.05-.12.04-.12.03-.12.04-.13.03-.12.04-.13.01-.05.01-.06.02-.07.01-.06.01-.06.01-.06.02-.06v-.06l.02-.07v-.06l.01-.06.01-.06.01-.06v-.07l.02-.06v-.12l.01-.06v-.07l.01-.06v-.19l.01-.06V291.94l-.01-.06v-.06l-.01-.07v-.06l-.01-.06-.01-.06v-.07l-.02-.06v-.06l-.01-.06-.01-.06-.01-.06-.01-.06-.02-.07v-.06l-.02-.06-.01-.06-.02-.06-.01-.06-.01-.06-.02-.06-.02-.06-.01-.06-.04-.13-.03-.12-.04-.12-.04-.12-.04-.12-.05-.12-.05-.11-.05-.12-.05-.12-.05-.12-.06-.12-.06-.12-.06-.12-.06-.11-.05-.09-.02-.03-.06-.12-.07-.11-.07-.12-.08-.12-.07-.11-.08-.12-.08-.11-.09-.12-.08-.11-.09-.12-.09-.11-.09-.11-.1-.12-.09-.1-.1-.12-.1-.11-.1-.11-.1-.11-.11-.11-.11-.11-.1-.1h-.02l-.1-.12-.12-.1-.12-.11-.12-.11-.12-.1-.12-.11-.13-.1-.13-.11-.03-.03-.1-.08-.12-.1-.14-.1-.13-.11-.14-.1-.13-.1-.14-.1-.15-.1-.03-.03-.1-.08-.15-.1-.15-.1-.15-.1-.15-.1-.15-.1-.15-.1-.16-.09-.16-.1-.16-.08-.16-.1-.16-.09-.17-.09-.17-.09-.14-.07-.03-.02-.17-.09-.17-.09-.17-.1-.17-.08-.18-.09-.18-.09-.18-.08-.18-.09-.18-.08-.19-.08-.18-.08-.2-.08-.18-.08-.2-.08-.19-.07-.2-.07-.19-.08-.2-.07-.2-.07-.2-.06-.2-.07-.2-.07-.21-.06-.15-.04-.06-.02-.2-.07-.22-.07-.2-.06-.22-.06-.21-.07-.22-.06-.22-.05-.22-.06-.22-.05-.22-.06-.22-.05-.22-.05-.23-.05-.23-.04-.23-.05-.19-.03h-.03l-.24-.05-.23-.05-.23-.04-.24-.04-.23-.04-.24-.04-.16-.02-.08-.01h-.24zm.5-2.53l.26-.03.26-.03.27-.02.26-.03.26-.02.26-.01h.04l.22-.02h.51l.26-.01h1.03l.25.02h.26l.25.02.26.01.25.02.25.02.25.02.25.03h.08l.17.03.25.03.25.04.24.04.25.04.24.05.24.04.25.05.24.05.24.06.23.05.24.06.24.06.23.06.24.06.23.07.23.06.23.07.23.08.23.07.23.07.22.08.23.08.22.08.03.02.19.07.22.1.21.09.22.1.21.1.21.09.21.1.2.1.21.11.21.1.2.12.2.1.2.12.2.12.15.08.05.03.2.12.18.13.19.12.19.13.18.13.18.13.19.13.12.1.05.04.18.14.17.14.17.14.17.14.17.15.16.14.17.15.16.15.01.02.14.14.16.15.15.16.15.16.14.16.15.16.14.16.14.17.14.16.13.17.13.17.13.17.13.18.12.17.12.18.12.18.12.17.11.19.11.18.1.18.11.19.03.05.07.14.1.18.1.2.08.19.1.19.08.2.08.19.08.2.07.2.07.2.07.2.07.2.06.2.06.2.05.2.03.12.02.1.02.1.03.1.02.11.02.1.02.11.02.1.02.11.02.1.01.11.02.1.01.11.02.1v.12l.02.1.01.1.01.12v.1l.02.11v.22l.01.1v.11l.01.11v.75l-.02.12V293l-.02.1v.12l-.02.1v.11l-.02.1-.01.11-.02.1-.01.12-.02.1-.02.1-.02.11-.01.1-.02.11-.02.1-.03.1-.02.11-.02.1-.03.11-.02.1-.03.1-.03.11-.05.2-.06.2-.07.2-.07.2-.07.2-.07.2-.08.2-.08.2-.08.19-.1.19-.08.19-.1.19-.1.19-.1.18-.1.19-.1.18-.1.18-.12.18-.11.18-.12.17-.12.18-.12.17-.13.17-.13.17-.13.17-.13.17-.14.16-.13.17-.14.16-.15.16-.14.16-.15.16-.15.15-.15.15-.16.16-.15.15-.16.15-.16.14-.17.15-.16.14-.17.14-.17.14-.17.14-.18.14-.17.13-.18.14-.18.13-.18.13-.19.13-.18.12-.2.13-.18.12-.2.12-.02.02-.17.1-.2.12-.19.11-.2.11-.2.12-.2.1-.2.11-.21.11-.2.1-.22.1-.2.1-.22.1-.22.1-.21.1-.22.1-.22.09-.22.09-.22.08-.22.09-.23.08-.22.09-.23.08-.23.07-.23.08-.23.08-.24.07-.23.07-.24.07-.23.06-.24.07-.24.06-.24.06-.24.06-.25.06-.24.05-.25.05-.24.06-.25.04-.25.05-.25.04-.25.05-.25.04-.26.03-.25.04-.26.03-.25.03-.26.03-.26.03-.26.03-.26.02-.26.02-.26.02-.26.01-.26.02h-.27l-.26.02h-.54l-.26.01H90.82l-.2-.01-.26-.01-.27-.01-.26-.02-.27-.02-.26-.01-.26-.03-.27-.02-.26-.02-.26-.03-.25-.03-.26-.03-.26-.04-.25-.03-.26-.04-.25-.04-.25-.04-.25-.05-.25-.05-.25-.05-.25-.05-.25-.05-.24-.05-.24-.06-.25-.06-.24-.06-.24-.06-.24-.07-.23-.06-.24-.07-.23-.07-.24-.08-.23-.07-.23-.08-.23-.08-.23-.08-.22-.08-.23-.08-.22-.09-.22-.08-.22-.1-.22-.08-.21-.1-.22-.1-.21-.09-.21-.1-.21-.1-.21-.1-.2-.1-.21-.1-.2-.11-.2-.11-.2-.11-.2-.11-.2-.12-.2-.11-.19-.12-.19-.12-.19-.12-.19-.12-.18-.12-.18-.13-.18-.12-.18-.13-.18-.13-.17-.13-.02-.01-.16-.12-.17-.14-.17-.13-.16-.14-.17-.14-.16-.14-.16-.14-.16-.15-.15-.14-.16-.15-.15-.15-.14-.15-.15-.15-.14-.15-.15-.15-.14-.16-.13-.16-.14-.15-.13-.16-.13-.16-.12-.17-.13-.16-.12-.17-.12-.16-.11-.17-.12-.17-.1-.17-.12-.17-.1-.17-.1-.18-.1-.17-.1-.18-.1-.18-.08-.18-.1-.18-.08-.18-.08-.19-.08-.18-.07-.18-.07-.2-.07-.18-.07-.19-.06-.19-.06-.19-.06-.19-.05-.2-.05-.18-.02-.1-.03-.1-.02-.1-.02-.1-.02-.1-.02-.1-.01-.09-.02-.1-.02-.1-.01-.1-.02-.1-.01-.1-.02-.1v-.1l-.02-.1v-.1l-.02-.1v-.1l-.01-.1v-.1l-.02-.1V291.86l.01-.11v-.1l.01-.1.01-.1.01-.1.01-.1.01-.1.02-.1v-.1l.02-.1.02-.1.01-.1.02-.1.02-.1.02-.1.01-.09.02-.1.03-.1.02-.1.02-.09.02-.1.03-.1.02-.09.03-.1.05-.18.06-.2.06-.18.07-.19.06-.18.07-.19.08-.18.07-.18.08-.19.09-.18.08-.17.1-.18.08-.18.1-.17.1-.18.1-.17.1-.17.1-.17.11-.16.12-.17.11-.16.12-.17.12-.16.12-.16.12-.16.13-.16.13-.15.13-.16.13-.15.14-.15.14-.15.14-.15.14-.15.15-.14.15-.15.15-.14.15-.14.15-.14.16-.14.16-.13.16-.14.17-.13.16-.13.17-.13.17-.13.17-.13.17-.12.18-.13.17-.12.18-.12.18-.12.19-.11.18-.12.19-.11.19-.12.19-.1.19-.11.2-.11.19-.1.2-.11.2-.1.2-.1.2-.1.2-.1.2-.1.21-.09.09-.03.12-.06.21-.09.21-.09.22-.08.21-.09.22-.08.21-.08.22-.08.22-.07.23-.08.22-.07.22-.07.23-.07.23-.07.23-.07.23-.06.23-.06.23-.06.23-.06.24-.06.23-.05.24-.05.24-.05.24-.05.24-.05.24-.04.24-.04.25-.04.24-.04.25-.04.25-.03.24-.03.25-.03.25-.03.25-.02.26-.03.25-.02.25-.02.26-.01.25-.02.26-.01.25-.01h.26l.26-.01h.26l.26-.01h.62l.16-.03z"/><ellipse cx="137.1" cy="292.37" rx="19.38" ry="13.29" fill="#b8b8b8"/><path d="M136.86 280.33h-.24l-.24.01-.23.02-.24.01-.24.02-.23.01-.23.02-.24.02-.23.03-.23.02-.23.03-.22.03-.23.03-.23.03-.22.04-.23.04-.22.03-.22.04-.22.05-.22.04-.22.05-.21.04-.22.05-.21.05-.22.06-.2.05-.22.06-.2.05-.22.06-.2.06-.2.07-.21.06-.2.07-.2.07-.2.06-.2.07-.2.08-.19.07-.2.08-.18.07-.2.08-.18.08-.19.08-.18.08-.19.09-.18.08-.1.05-.08.04-.17.08-.18.1-.17.08-.18.1-.17.09-.17.1-.16.09-.17.1-.16.1-.17.1-.15.1-.16.1-.16.1-.15.1-.15.1-.15.1-.15.11-.15.11-.14.11-.14.11-.14.11-.14.11-.13.12-.14.1-.13.12-.13.12-.12.11-.13.12-.12.12-.12.12-.12.12-.11.12-.12.12-.1.12-.12.12-.1.13-.1.12-.1.12-.1.13-.1.12-.1.13-.1.13-.08.12-.09.13-.08.13-.09.13-.08.13-.07.13-.08.13-.07.13-.07.13-.07.13-.07.13-.06.13-.06.14-.06.13-.06.13-.05.14-.05.13-.05.13-.05.14-.04.13-.04.14-.04.13-.04.14-.03.14-.02.06-.01.07-.02.07v.07l-.02.07-.02.06v.07l-.02.07-.01.07-.01.07-.01.07v.07l-.02.07v.06l-.01.07v.07l-.02.07V291.81l-.01.07V292.1l-.01.07V292.58l.01.07v.07l.01.07v.07l.01.07.01.07v.07l.02.07v.06l.01.07.01.07.01.07.02.07v.07l.02.06.01.07.02.07.01.07.02.06.01.07.02.07.01.07.02.06.02.07.02.06.04.14.04.13.04.13.05.14.05.13.05.13.05.13.06.13.05.13.06.13.07.12.06.13.07.13.07.13.07.12.08.13.07.12.08.13.08.12.09.13.08.12.1.12.08.12.1.12.09.12.1.12.1.12.1.12.1.12.1.12.12.11.1.12.12.11.12.12.11.11.12.11.12.11.13.11.12.11.13.11.13.11.13.1.14.11.13.1.14.11.14.1.14.1.15.1.15.11.14.1.15.1.16.1.15.09.15.1.16.09.16.09.16.09.17.09.16.09.17.08.17.09.16.08.18.09.17.08.17.08.18.08.18.08.18.07.18.08.18.07.19.08.18.07.2.07.18.06.19.07.2.06.19.07.19.06.2.06.2.06.2.06.2.05.2.05.2.06.2.05.2.05.21.04.21.05.21.04.21.04.21.05.21.03.22.04.21.04.22.03.21.03.22.03.22.03.22.02.22.03.22.02.22.02.23.02.22.02.23.01.22.02h.23l.23.02h.45l.23.01h.93l.23-.01.23-.01.23-.01.23-.01.23-.02.22-.02.23-.01.22-.02.23-.03.22-.02.22-.03.22-.02.22-.03.22-.03.22-.04.22-.03.21-.04.22-.04.2-.04.22-.04.21-.04.21-.05.21-.04.2-.05.21-.05.2-.05.21-.06.2-.05.2-.06.2-.06.2-.06.2-.06.19-.06.2-.07.19-.06.19-.07.19-.07.18-.07.19-.07.18-.07.18-.08.19-.07.18-.08.17-.08.18-.08.17-.08.18-.08.17-.09.17-.08.16-.09.17-.08.16-.1.16-.08.16-.1.16-.08.16-.1.15-.1.16-.09.15-.1.12-.07.02-.02.15-.1.15-.1.14-.1.14-.1.14-.1.14-.1.13-.1.13-.1.13-.11.13-.1.13-.12.12-.1.13-.11.11-.11.12-.11.12-.11.11-.11.11-.11.11-.12.1-.1.11-.12.1-.12.1-.1.1-.12.1-.12.09-.12.1-.11.08-.12.09-.12.08-.11.08-.12.08-.12.08-.12.07-.12.07-.12.07-.12.07-.12.07-.12.06-.12.06-.12.06-.12.06-.12.05-.12.05-.12.05-.12.05-.12.04-.12.04-.13.04-.12.04-.12.04-.12.03-.12.03-.13.02-.06.01-.06.01-.06.02-.06.01-.06.01-.07.01-.06.01-.06.01-.06.01-.06.01-.06.01-.07v-.06l.02-.06v-.13l.01-.06.01-.06v-.13l.01-.06v-.19l.01-.06v-.44l-.01-.06v-.07l-.01-.06v-.06l-.01-.06v-.07l-.01-.06-.01-.06v-.06l-.02-.06v-.07l-.02-.06v-.06l-.02-.06v-.06l-.02-.06-.01-.06-.01-.06-.02-.07-.01-.06-.02-.06-.01-.06-.02-.06-.01-.05-.04-.13-.03-.12-.04-.12-.04-.12-.05-.12-.04-.12-.05-.12-.05-.12-.05-.12-.05-.12-.06-.11-.06-.12-.06-.12-.06-.12-.05-.08-.02-.04-.07-.11-.06-.12-.08-.12-.07-.11-.08-.12-.07-.11-.08-.12-.09-.11-.08-.12-.09-.11-.09-.12-.1-.1-.09-.12-.1-.11-.09-.12-.1-.1-.1-.12-.1-.1-.12-.12-.1-.1-.1-.1-.02-.01-.11-.11-.12-.11-.11-.1-.12-.12-.12-.1-.12-.1-.13-.11-.13-.1-.04-.04-.09-.07-.13-.1-.13-.11-.13-.1-.14-.1-.14-.1-.14-.1-.14-.1-.03-.03-.11-.08-.15-.1-.14-.1-.15-.1-.15-.1-.15-.1-.16-.1-.15-.09-.16-.1-.16-.09-.16-.1-.17-.08-.16-.1-.17-.08-.14-.08-.03-.01-.17-.1-.17-.09-.17-.09-.18-.09-.17-.08-.18-.09-.18-.09-.18-.08-.18-.08-.19-.09-.18-.08-.2-.08-.18-.07-.2-.08-.19-.08-.2-.07-.2-.07-.19-.07-.2-.07-.2-.07-.2-.07-.2-.06-.21-.06-.15-.05-.06-.02-.21-.07-.2-.06-.22-.07-.21-.06-.22-.06-.21-.06-.22-.06-.22-.05-.22-.06-.22-.05-.22-.05-.23-.05-.22-.05-.23-.05-.23-.04-.19-.04h-.04l-.23-.05-.23-.04-.23-.05-.24-.04-.24-.04-.23-.03-.17-.02-.08-.02h-.23zm.5-2.53l.26-.03.26-.03.26-.03.26-.02.26-.02.26-.02h.05l.21-.01h.26l.26-.01h1.29l.25.01.26.01.25.01.25.02.26.02.25.02.25.02.25.02h.07l.18.03.25.04.24.04.25.04.24.04.25.04.24.05.24.05.24.05.24.05.24.06.24.05.23.06.24.06.23.07.24.06.23.07.23.07.23.07.23.07.22.08.23.08.22.08.23.08.03.01.19.08.21.09.22.1.21.09.22.1.2.1.22.1.2.1.21.1.2.11.21.11.2.11.2.12.2.11.15.09.05.03.19.12.19.12.19.13.18.13.19.12.18.13.18.14.13.1.05.03.18.14.17.14.17.14.17.15.17.14.16.15.16.15.16.15.02.01.14.14.15.16.15.15.15.16.15.16.15.16.14.17.14.16.13.17.14.17.13.17.13.17.13.17.12.18.12.17.12.18.12.18.1.18.12.18.1.19.11.18.03.05.07.14.1.19.1.2.08.18.1.2.08.19.08.2.08.2.07.2.07.2.07.2.07.2.06.2.05.2.06.2.02.11.03.1.02.1.03.11.02.1.02.11.02.1.02.11.02.1.01.11.02.1.01.11.02.1.01.11.02.11v.1l.02.11v.11l.02.1v.12l.01.1v.11l.01.11v.22l.01.1V292.7l-.01.1v.11l-.01.11-.01.1-.01.11v.11l-.02.1-.01.12-.01.1-.02.1-.01.12-.02.1-.01.1-.02.11-.02.1-.02.11-.02.1-.02.11-.02.1-.02.1-.02.11-.03.1-.02.1-.03.11-.03.1-.06.2-.06.21-.06.2-.07.2-.07.2-.07.2-.08.2-.08.19-.09.2-.08.18-.1.2-.09.18-.1.2-.1.18-.1.18-.1.18-.11.19-.11.18-.12.17-.11.18-.12.17-.12.18-.13.17-.13.17-.13.17-.13.16-.14.17-.14.16-.14.17-.14.16-.14.15-.15.16-.15.16-.15.15-.16.15-.15.15-.16.15-.17.15-.16.14-.16.15-.17.14-.17.14-.17.14-.18.13-.17.14-.18.13-.18.13-.19.13-.18.13-.19.13-.18.12-.2.12-.18.12-.04.02-.16.1-.2.12-.2.12-.19.11-.2.11-.2.11-.2.11-.21.1-.21.11-.21.1-.21.1-.21.1-.22.1-.21.1-.22.09-.22.1-.22.08-.22.09-.23.08-.22.09-.23.08-.22.08-.23.08-.23.08-.24.07-.23.07-.23.07-.24.07-.24.07-.23.06-.24.07-.24.06-.25.06-.24.05-.24.06-.25.05-.25.05-.24.05-.25.04-.25.05-.25.04-.26.04-.25.04-.25.03-.26.04-.25.03-.26.03-.26.03-.26.02-.26.02-.26.02-.26.02-.26.02-.27.01-.26.01-.27.01-.26.01h-1.61l-.27-.02h-.26l-.27-.02-.26-.02-.26-.02-.27-.02-.26-.02-.26-.03-.26-.03-.26-.03-.25-.03-.26-.03-.26-.04-.25-.04-.25-.04-.25-.04-.26-.04-.25-.05-.24-.05-.25-.05-.25-.05-.24-.06-.25-.06-.24-.05-.24-.07-.24-.06-.24-.06-.24-.07-.23-.07-.24-.07-.23-.07-.23-.08-.23-.07-.23-.08-.23-.08-.22-.08-.23-.09-.22-.08-.22-.09-.22-.09-.22-.09-.22-.1-.21-.09-.22-.1-.2-.1-.22-.1-.2-.1-.21-.1-.2-.1-.21-.1-.2-.12-.2-.1-.2-.12-.2-.11-.19-.12-.2-.11-.18-.12-.2-.12-.18-.12-.18-.13-.18-.12-.19-.13-.17-.13-.18-.13-.18-.13-.17-.13-.17-.13-.17-.14-.16-.14-.17-.14-.16-.14-.16-.14-.16-.14-.15-.15-.16-.14-.15-.15-.15-.15-.14-.15-.15-.16-.14-.15-.14-.15-.13-.16-.14-.16-.13-.16-.13-.16-.12-.16-.13-.17-.12-.16-.12-.17-.12-.17-.1-.16-.12-.18-.1-.17-.11-.17-.1-.17-.1-.18-.1-.18-.1-.18-.09-.17-.08-.19-.09-.18-.08-.18-.08-.18-.07-.19-.08-.19-.06-.18-.07-.2-.06-.18-.06-.2-.06-.18-.05-.2-.05-.19-.02-.1-.03-.1-.02-.1-.02-.09-.02-.1-.02-.1-.02-.1-.01-.1-.02-.1-.02-.09-.01-.1-.01-.1-.02-.1v-.1l-.02-.1-.01-.1-.01-.1v-.1l-.02-.1v-.2l-.01-.1v-.2l-.01-.1v-.61l.01-.1v-.1l.01-.1.01-.1.01-.1.01-.1.01-.1.01-.1.01-.1.02-.1.01-.1.01-.1.02-.1.02-.1.01-.1.02-.1.02-.1.02-.1.02-.09.02-.1.03-.1.02-.09.02-.1.03-.1.03-.1.05-.18.06-.19.06-.19.06-.18.07-.19.07-.18.07-.19.08-.18.08-.18.08-.18.1-.18.08-.18.1-.17.09-.18.1-.17.1-.17.1-.17.1-.17.11-.17.11-.17.12-.16.11-.16.12-.17.12-.16.13-.15.13-.16.12-.16.14-.15.13-.16.14-.15.14-.15.14-.15.14-.14.15-.15.14-.14.16-.14.15-.15.15-.14.16-.13.16-.14.16-.13.16-.14.17-.13.17-.13.16-.13.18-.12.17-.13.17-.12.18-.12.18-.12.18-.12.18-.12.19-.12.19-.1.18-.12.2-.11.19-.1.19-.12.2-.1.2-.1.2-.1.2-.1.2-.1.2-.1.2-.1.21-.1.08-.03.13-.05.2-.1.22-.08.21-.09.22-.08.21-.08.22-.08.22-.08.22-.08.22-.07.23-.08.22-.07.23-.07.22-.07.23-.06.23-.07.23-.06.24-.06.23-.05.23-.06.24-.05.24-.06.24-.05.24-.04.24-.05.24-.05.24-.04.25-.04.24-.04.25-.03.24-.03.25-.04.25-.03.25-.02.25-.03.25-.02.26-.02.25-.02.25-.02.26-.01.25-.02h.26l.26-.01h.26l.26-.01h.78l.09-.01.17-.02z"/><path d="M176.28 290.3c17.12-22.6 29.45-52.47 34.75-84.15 5-29.96 3.4-59.72-4.54-84.38l-140.63 1.61c-10.78 19.37-18.52 41.85-22.41 65.16-6.43 38.44-1.92 76.1 12.35 103.14l120.48-1.37z" fill="#c2c2c2"/><path d="M206.99 118.44l.52.12.5.2.46.28.4.34.36.41.28.46.2.5.19.58.19.6.18.6.19.6.18.6.18.6.18.6.17.6.17.61.17.6.17.62.17.61.16.62.16.61.16.62.15.62.15.62.15.62.15.62.15.63.14.63.14.62.14.63.13.64.14.63.13.63.13.64.12.64.13.64.12.64.12.64.12.64.11.64.11.65.11.65.11.65.1.65.1.65.05.3.06.35.1.65.09.66.09.66.09.65.09.66.08.66.08.66.08.67.08.66.08.66.07.67.07.67.07.67.06.67.07.67.06.67.06.67.05.67.06.68.05.67.05.68.04.68.05.68.04.68.04.68.03.68.04.68.03.69.03.68.03.69.02.68.02.69.02.69.02.69.02.69v.69l.02.69v.69l.01.7V174.18l-.01.7-.01.7-.01.7-.02.7-.01.7-.02.7-.03.7-.02.7-.03.7-.03.7-.03.7-.03.7-.04.7-.04.71-.04.7-.04.71-.05.7-.05.71-.05.71-.06.7-.05.71-.06.71-.06.71-.07.71-.06.71-.07.71-.07.71-.07.71-.08.71-.08.71-.08.71-.08.71-.01.1-.08.62-.09.7-.1.72-.09.71-.1.71-.1.72-.1.7-.1.72-.1.71-.12.72-.11.71-.11.71-.12.72-.06.36-.06.35-.13.76-.14.75-.13.75-.14.75-.15.75-.14.75-.15.75-.15.75-.15.75-.15.74-.16.75-.15.7-.01.04-.17.75-.16.74-.18.74-.17.74-.17.74-.18.74-.18.73-.19.74-.18.74-.2.73-.18.73-.2.74-.2.73-.19.73-.2.72-.2.73-.2.73-.22.72-.2.73-.22.72-.21.72-.22.72-.22.72-.22.72-.02.04-.21.67-.24.72-.23.71-.24.71-.24.71-.24.7-.24.72-.25.7-.25.7-.25.7-.25.7-.26.7-.25.7-.26.7-.27.7-.26.69-.27.7-.27.68-.27.69-.27.69-.28.68-.27.69-.28.68-.29.68-.28.68-.29.67-.29.68-.29.67-.29.68-.3.67-.3.66-.3.67-.3.67-.3.66-.3.66-.31.66-.31.66-.31.65-.32.66-.31.65-.32.65-.32.65-.33.64-.17.36-.15.28-.33.64-.34.64-.33.64-.34.63-.34.63-.34.63-.35.63-.34.62-.35.63-.35.62-.35.61-.36.62-.35.62-.36.6-.36.62-.36.6-.37.6-.36.61-.37.6-.37.6-.37.6-.37.59-.38.6-.37.58-.38.59-.38.58-.38.58-.39.58-.38.58-.4.57-.38.57-.4.57-.13.2-.26.37-.4.56-.4.56-.4.56-.4.55-.4.55-.41.55-.41.55-.41.54-.41.55-.42.53-.41.54-.42.53-.42.53-.42.53-.1.13-.32.4-.18.2-.2.16-.23.14-.25.1-.26.07-.26.02-2.5.04-64.2 1-53.77.83-.36-.03-.34-.07-.33-.13-.3-.18-.27-.23-.23-.26-.2-.3-.16-.32-.17-.32-.17-.33-.17-.33-.17-.32-.17-.33-.16-.33-.17-.33-.16-.33-.16-.34-.17-.33-.16-.33-.16-.34-.16-.33-.16-.34-.15-.34-.16-.34-.16-.34-.15-.34-.16-.34-.15-.34-.15-.34-.15-.35-.15-.34-.15-.35-.15-.34-.15-.35-.15-.35-.14-.35-.15-.35-.14-.35-.14-.35-.14-.36-.15-.35-.14-.35-.13-.36-.14-.36-.14-.35-.14-.36-.13-.36-.14-.36-.13-.36-.13-.36-.13-.36-.14-.36-.13-.37-.12-.36-.13-.37-.13-.36-.13-.37-.12-.37-.12-.37-.13-.37-.12-.37-.12-.37-.12-.37-.12-.37-.12-.37-.12-.38-.11-.37-.12-.38-.12-.37-.1-.38-.12-.38-.11-.37-.12-.38-.1-.38-.11-.38-.11-.38-.11-.39-.1-.38-.11-.38-.1-.39-.11-.38-.1-.39-.1-.38-.1-.39-.1-.39-.1-.38-.1-.4-.1-.38-.1-.4-.09-.38-.1-.4-.09-.39-.09-.39-.1-.4-.08-.39-.09-.4-.09-.39-.09-.4-.08-.4-.09-.39-.08-.4-.09-.4-.08-.4-.08-.4-.08-.4-.08-.4-.08-.4-.08-.4-.08-.4-.07-.41-.08-.4-.07-.4-.08-.42-.07-.4-.07-.4-.07-.42-.07-.4-.07-.41-.07-.41-.06-.41-.07-.41-.06-.41-.07-.41-.06-.42-.06-.4-.06-.42-.06-.41-.06-.42-.06-.41-.06-.42-.05-.41-.06-.42-.05-.42-.05-.42-.06-.41-.05-.42-.05-.42-.05-.42-.05-.42-.04-.42-.05-.42-.04-.42-.05-.42-.04-.43-.05-.42-.04-.42-.04-.43-.04-.42-.04-.43-.03-.42-.04-.43-.04-.42-.03-.43-.04-.43-.03-.43-.03-.42-.03-.43-.03-.43-.03-.43-.03-.43-.03-.43-.02-.43-.03-.43-.02-.43-.02-.44-.03-.43-.02-.43-.02-.44-.02-.43-.02-.43-.01-.44-.02-.43-.02-.44-.01-.43-.01-.44-.02-.44v-.43l-.02-.44v-.44l-.02-.43v-.44l-.01-.44v-.44l-.01-.44v-1.32l-.01-.44v-1.77l.01-.44v-.44l.01-.45v-.44l.02-.44v-.45l.02-.44v-.44l.02-.45.01-.44.02-.45.01-.45.02-.44.01-.45.02-.44.02-.45.02-.45.02-.45.02-.44.02-.45.03-.45.02-.45.03-.45.03-.45.02-.44.03-.45.03-.45.03-.45.04-.45.03-.45.03-.45.04-.45.03-.46.04-.45.04-.45.04-.45.04-.45.04-.45.04-.45.04-.46.04-.45.05-.45.04-.46.05-.45.05-.45.05-.45.05-.46.05-.45.05-.46.05-.45.06-.45.04-.37.01-.09.06-.45.05-.46.06-.45.06-.46.06-.45.06-.46.06-.45.07-.46.06-.45.07-.46.06-.45.07-.46.07-.46.07-.45.07-.46.07-.45.07-.46.07-.46.08-.45.09-.56.09-.55.1-.55.09-.55.1-.56.1-.55.1-.55.1-.55.1-.55.1-.55.1-.55.11-.55.11-.55.11-.55.11-.55.11-.54.12-.55.11-.55.12-.54.12-.55.11-.55.12-.54.13-.55.12-.54.12-.55.13-.54.13-.54.13-.55.13-.54.13-.54.13-.54.14-.54.13-.54.14-.54.14-.54.14-.54.14-.54.14-.54.14-.53.15-.54.14-.54.15-.53.15-.54.15-.53.15-.53.16-.54.15-.53.16-.53.15-.53.16-.53.16-.53.16-.53.16-.53.17-.53.16-.53.17-.52.16-.53.17-.53.17-.52.17-.53.18-.52.17-.52.18-.52.17-.53.18-.52.18-.52.18-.52.18-.51.18-.52.19-.52.18-.52.2-.51.18-.52.19-.5.19-.52.2-.52.18-.5.2-.52.2-.5.2-.52.19-.5.2-.51.2-.51.2-.5.2-.51.2-.5.21-.5.21-.51.2-.5.22-.5.2-.5.22-.5.21-.5.22-.5.21-.5.22-.5.22-.49.22-.49.22-.5.22-.49.22-.49.22-.49.23-.49.23-.48.22-.49.23-.49.23-.48.23-.49.24-.48.23-.48.23-.48.24-.48.24-.48.24-.48.23-.48.25-.47.24-.48.24-.47.24-.47.25-.48.25-.47.24-.47.25-.47.25-.46.25-.47.26-.47.25-.46.25-.46.24-.37.3-.32.34-.28.37-.23.41-.17.43-.1.44-.04 7.62-.12 86.49-1.27 46.52-.66.53.04zm-48.03 7.12l-83.7.67v-.03l-7.66.09-.17.3-.25.46-.24.45-.25.45-.24.46-.24.45-.24.46-.24.45-.24.46-.23.46-.24.46-.23.46-.24.47-.23.46-.23.47-.23.46-.23.47-.23.47-.22.46-.23.47-.22.48-.22.47-.23.47-.22.48-.22.47-.22.47-.21.48-.22.48-.21.48-.22.48-.21.48-.21.48-.21.48-.21.49-.21.48-.2.49-.21.48-.2.49-.21.49-.2.48-.2.5-.2.48-.2.5-.2.49-.2.5-.2.48-.19.5-.19.5-.19.5-.19.49-.19.5-.19.5-.18.5-.19.5-.18.5-.19.5-.18.5-.18.5-.18.5-.17.51-.18.5-.18.51-.17.51-.17.5-.18.52-.17.5-.17.51-.16.51-.17.52-.17.5-.16.52-.16.51-.17.52-.16.51-.16.52-.15.51-.16.52-.16.52-.15.51-.15.52-.15.52-.15.52-.15.52-.15.52-.15.52-.14.52-.15.53-.14.52-.14.52-.14.53-.14.52-.14.53-.13.52-.14.53-.13.53-.13.52-.13.53-.13.53-.13.53-.13.52-.12.53-.13.53-.12.53-.12.54-.12.53-.12.53-.12.53-.11.53-.12.54-.11.53-.11.53-.12.54-.1.53-.11.54-.1.53-.11.54-.1.54-.11.53-.1.54-.1.54-.1.53-.1.54-.1.54-.09.54-.09.54-.08.44-.07.45-.07.44-.08.45-.07.44-.07.44-.07.45-.07.44-.06.45-.07.44-.07.44-.06.45-.06.44-.07.44-.06.45-.06.44-.06.44-.06.45-.06.44v.08l-.05.36-.06.44-.05.45-.06.44-.05.44-.05.44-.05.44-.05.45-.05.44-.05.44-.05.44-.04.44-.05.44-.04.44-.05.44-.04.44-.04.44-.04.44-.04.44-.04.44-.04.44-.03.44-.04.44-.03.44-.04.44-.03.43-.03.44-.03.44-.03.44-.03.43-.03.44-.02.44-.03.43-.02.44-.03.44-.02.43-.02.44-.02.43-.02.44-.02.43-.02.44-.02.43-.01.43-.02.44-.01.43-.02.43v.44l-.02.43-.01.43v.43l-.02.43v.43l-.01.44v.43l-.01.43v1.28l-.01.43v1.71l.01.43v.43l.01.42v.43l.02.43v.42l.01.43.02.42v.42l.02.43.01.42.02.42.01.43.02.42.02.42.02.42.01.42.02.42.03.42.02.42.02.42.03.42.02.42.03.41.02.42.03.42.03.41.03.42.03.42.03.41.03.42.04.41.03.41.04.42.03.4.04.42.04.41.04.41.04.41.04.41.04.41.04.41.05.41.04.41.05.4.04.41.05.41.05.4.05.41.05.4.05.41.05.4.06.41.05.4.06.4.05.4.06.4.06.4.05.4.06.4.06.4.07.4.06.4.06.4.07.4.06.4.07.39.06.4.07.39.07.39.07.4.07.39.07.39.08.39.07.39.07.39.08.39.08.39.07.38.08.4.08.38.08.38.08.39.08.38.08.39.09.38.08.38.09.39.08.38.1.38.08.38.09.38.09.38.09.37.1.38.08.38.1.37.1.38.09.37.1.38.1.37.09.37.1.37.1.37.1.37.1.37.1.37.1.37.11.37.1.36.11.37.11.36.1.37.12.36.1.36.12.37.11.36.11.36.12.36.11.36.12.35.11.36.12.36.12.35.12.36.12.35.12.35.12.36.12.35.12.35.13.35.12.35.13.35.12.34.13.35.13.35.13.34.13.34.13.35.13.34.14.34.13.34.14.34.13.34.14.34.14.33.13.34.14.34.14.33.14.33.15.34.14.33.14.33.15.33.14.33.15.33.15.32.14.33.15.33.15.32.15.32.15.33.16.32.15.32.15.32.16.32.15.32.16.31.16.32.16.31.02.05 53.55-.4 63.09-.46 1.55-.01.27-.4.38-.54.37-.54.37-.55.37-.55.37-.55.37-.56.36-.55.36-.56.36-.57.36-.56.36-.57.35-.57.35-.57.23-.36.13-.21.35-.57.35-.58.34-.58.35-.58.34-.58.35-.59.34-.59.33-.59.34-.59.33-.6.34-.59.33-.6.33-.6.32-.6.33-.6.32-.61.32-.6.32-.62.31-.61.32-.62.3-.61.32-.62.3-.62.31-.63.3-.62.3-.63.3-.63.3-.63.3-.63.3-.63.29-.64.29-.64.13-.28.16-.35.29-.64.29-.64.28-.64.29-.65.28-.64.28-.65.28-.65.27-.65.28-.66.27-.65.27-.66.27-.65.26-.66.26-.66.27-.67.25-.66.26-.67.25-.66.26-.67.25-.67.24-.67.25-.68.24-.67.24-.68.24-.68.24-.67.23-.68.24-.69.23-.68.22-.68.23-.69.22-.69.22-.69.22-.69.22-.69.21-.69.21-.7.21-.69.2-.7.21-.69.2-.7.2-.7.2-.66v-.04l.2-.7.2-.7.2-.7.2-.7.19-.71.18-.7.2-.71.18-.71.18-.71.18-.71.17-.71.18-.71.17-.72.17-.71.17-.72.17-.71.16-.72.16-.72.16-.71.15-.72.16-.72.15-.73.14-.72.15-.72v-.04l.15-.68.14-.73.14-.72.14-.73.14-.72.13-.73.13-.73.13-.72.13-.73.13-.73.12-.73.12-.73.05-.34.06-.35.1-.7.12-.68.1-.7.1-.69.1-.69.1-.69.1-.69.1-.69.09-.69.09-.68.08-.7.09-.68.07-.6v-.09l.09-.69.08-.69.08-.68.07-.69.07-.69.07-.68.07-.69.07-.69.06-.68.06-.69.06-.68.05-.68.06-.69.05-.68.04-.68.05-.68.04-.69.05-.68.04-.68.03-.68.04-.68.03-.68.03-.67.03-.68.02-.68.02-.68.02-.67.02-.68.02-.67.01-.67.01-.68v-.67l.01-.25v-.42l.01-.67v-2.68l-.01-.66-.01-.67-.01-.66-.02-.67-.01-.66-.02-.66-.02-.67-.03-.66-.02-.66-.03-.65-.03-.66-.03-.66-.04-.65-.04-.66-.04-.65-.04-.66-.04-.65-.05-.65-.05-.65-.05-.65-.05-.64-.06-.65-.06-.64-.06-.65-.06-.64-.07-.64-.06-.64-.07-.64-.08-.64-.07-.64-.08-.63-.08-.64-.08-.63-.08-.63-.09-.63-.09-.63-.09-.63-.05-.33-.04-.3-.1-.62-.1-.62-.1-.63-.1-.62-.1-.62-.1-.62-.11-.61-.11-.62-.11-.61-.12-.61-.12-.61-.12-.61-.12-.61-.12-.6-.13-.61-.13-.6-.13-.6-.13-.6-.14-.6-.14-.6-.14-.6-.14-.59-.15-.59-.14-.59-.15-.59-.15-.58-.16-.59-.15-.58-.16-.58-.16-.58-.17-.58-.16-.58-.17-.57-.14-.49-45.05.4z"/><path d="M95.35 122.33s.71 14.76-11.37 33.71c-30.14 47.24-39 26.86-39 26.86-5.12 19.94-10.93 62.69 10.35 109.28 38.04 4.54 79.94 4.05 120.9-1.21 22.79-33.14 31.88-67.56 35.37-103.68-23.5-7.25-40.77-21.64-45.19-64.17-4.42-.36-4.06-.46-10.63-1.46l2.07 34.44c-17.9-.95-35.2-.4-52.12.82 0 0-.56-32.42 2.44-35.02 3-2.6-12.82.43-12.82.43z" fill="#008fd7"/><clipPath id="a"><path d="M95.35 122.33s.71 14.76-11.37 33.71c-30.14 47.24-39 26.86-39 26.86-5.12 19.94-10.93 62.69 10.35 109.28 38.04 4.54 79.94 4.05 120.9-1.21 22.79-33.14 31.88-67.56 35.37-103.68-23.5-7.25-40.77-21.64-45.19-64.17-4.42-.36-4.06-.46-10.63-1.46l2.07 34.44c-17.9-.95-35.2-.4-52.12.82 0 0-.56-32.42 2.44-35.02 3-2.6-12.82.43-12.82.43z"/></clipPath><g clip-path="url(#a)"><path d="M94.05 157.82a510.53 510.53 0 0177.11-.94c.98 25.68-1.05 49.35-6.17 70.96a442.52 442.52 0 01-81.4 2.2c1.18-25.73 4.48-49.86 10.46-72.22z" fill="#008fd7"/><clipPath id="b"><path d="M94.05 157.82a510.53 510.53 0 0177.11-.94c.98 25.68-1.05 49.35-6.17 70.96a442.52 442.52 0 01-81.4 2.2c1.18-25.73 4.48-49.86 10.46-72.22z"/></clipPath><g clip-path="url(#b)"><path d="M110.86 182.43l10.6-.4c1.4-.06 2.67.04 3.81.31 1.15.27 2.11.67 2.9 1.2a5.24 5.24 0 011.77 1.97c.4.77.55 1.64.47 2.6-.07.71-.2 1.35-.4 1.93-.2.57-.5 1.1-.92 1.6-.4.5-.94.98-1.6 1.44-.65.46-1.46.92-2.43 1.4v.08a8.6 8.6 0 012.46.66c.73.33 1.34.76 1.83 1.3.48.53.84 1.15 1.06 1.86a6.76 6.76 0 01-.68 5.2 8.13 8.13 0 01-2.05 2.34c-.86.68-1.87 1.22-3.03 1.63-1.17.4-2.45.64-3.85.7l-12.28.47 2.34-26.29zm3.37 11.66l5.63-.21c.88-.04 1.68-.2 2.4-.48a5.88 5.88 0 001.84-1.11 5.31 5.31 0 001.76-3.61 4.65 4.65 0 00-.25-2.08 3.4 3.4 0 00-1.22-1.56 5.92 5.92 0 00-2.25-.94c-.92-.2-2.04-.28-3.37-.22l-3.64.14-.9 10.07zm-1.11 12.53l4.77-.18c1.29-.05 2.41-.22 3.38-.5a8.12 8.12 0 002.43-1.12 4.97 4.97 0 002.14-3.71c.08-.83.01-1.6-.19-2.3-.2-.72-.58-1.32-1.14-1.82a5.6 5.6 0 00-2.25-1.14c-.94-.26-2.12-.37-3.53-.31l-4.64.18-.97 10.9zM153.83 180.76l-.15 1.7-12.82.5-.84 9.4 9.28-.37-.16 1.7-9.27.36-1.2 13.5-4.42.17 2.34-26.29 17.24-.67z" fill="none"/><path d="M228.28 153.53h10.5c1.38 0 2.65.16 3.82.47 1.16.31 2.15.75 2.98 1.31a6.29 6.29 0 011.94 2.02c.46.79.7 1.65.7 2.6a7.4 7.4 0 01-.23 1.91c-.15.56-.41 1.08-.77 1.56-.36.49-.85.94-1.46 1.37-.61.43-1.38.87-2.3 1.3v.08c.92.15 1.76.4 2.51.75.76.36 1.4.81 1.93 1.36a5.83 5.83 0 011.66 4.29c0 .98-.22 1.9-.65 2.77a6.7 6.7 0 01-1.83 2.24 8.88 8.88 0 01-2.87 1.5c-1.13.36-2.38.54-3.77.54h-12.16v-26.07zm4.38 11.74h5.57a6.8 6.8 0 002.34-.38c.69-.25 1.27-.6 1.74-1.04.46-.44.82-.96 1.06-1.56.25-.6.37-1.25.37-1.96 0-.77-.15-1.46-.43-2.08a4.06 4.06 0 00-1.35-1.6 6.74 6.74 0 00-2.32-1.02c-.94-.24-2.06-.36-3.37-.36h-3.61v10zm0 12.42h4.73c1.28 0 2.38-.12 3.32-.36a6.98 6.98 0 002.32-1.02 4.1 4.1 0 001.35-1.58c.3-.62.44-1.3.44-2.03 0-.83-.13-1.6-.39-2.3a4.44 4.44 0 00-1.3-1.85 6.5 6.5 0 00-2.33-1.22c-.96-.3-2.14-.45-3.54-.45h-4.6v10.81zM270.86 153.53v1.69h-12.71v9.32h9.19v1.68h-9.2v13.39h-4.37v-26.08h17.09z" fill="#fff" fill-rule="nonzero" stroke="#fff" stroke-width="2.65" transform="matrix(1.00913 -.03941 -.08977 1.00824 -105.71 36.63)"/></g><path d="M94.05 157.82a510.53 510.53 0 0177.11-.94c.98 25.68-1.05 49.35-6.17 70.96a442.52 442.52 0 01-81.4 2.2c1.18-25.73 4.48-49.86 10.46-72.22z" fill="none" stroke="#000" stroke-width="2.5" stroke-linecap="round" stroke-miterlimit="1.5"/><path d="M104.1 165.14c1.48-.2 2.85.87 3.07 2.4a2.74 2.74 0 01-2.3 3.12 2.75 2.75 0 01-3.06-2.39 2.74 2.74 0 012.3-3.13zM161.57 162.83c1.48-.2 2.85.86 3.07 2.39a2.74 2.74 0 01-2.3 3.13 2.75 2.75 0 01-3.06-2.4 2.74 2.74 0 012.3-3.12z" fill="#ffc800" stroke="#000" stroke-width="2.5" stroke-linecap="round" stroke-miterlimit="1.5"/></g><path d="M95.35 122.33s.71 14.76-11.37 33.71c-30.14 47.24-39 26.86-39 26.86-5.12 19.94-10.93 62.69 10.35 109.28 38.04 4.54 79.94 4.05 120.9-1.21 22.79-33.14 31.88-67.56 35.37-103.68-23.5-7.25-40.77-21.64-45.19-64.17-4.42-.36-4.06-.46-10.63-1.46l2.07 34.44c-17.9-.95-35.2-.4-52.12.82 0 0-.56-32.42 2.44-35.02 3-2.6-12.82.43-12.82.43z" fill="none" stroke="#000" stroke-width="2.5" stroke-linecap="round" stroke-miterlimit="1.5"/><path d="M206.87 121.13c.43-2.23.74-4.49.9-6.76 2.63-35.25-26.77-67.38-65.62-71.7-38.85-4.32-72.53 20.78-75.16 56.04-.6 8.03.48 16.19 3.18 24.03l136.7-1.61z" fill="#c2c2c2"/><clipPath id="c"><path d="M206.87 121.13c.43-2.23.74-4.49.9-6.76 2.63-35.25-26.77-67.38-65.62-71.7-38.85-4.32-72.53 20.78-75.16 56.04-.6 8.03.48 16.19 3.18 24.03l136.7-1.61z"/></clipPath><g clip-path="url(#c)"><path d="M112.33 95.7c-1.07.81-1.67 1.68-1.76 2.56-.52 4.69 12.89 8.95 29.9 9.5 17.03.57 31.27-2.79 31.79-7.48.11-1.08-.51-2.17-1.84-3.21l-58.09-1.36z" fill="#191919"/><clipPath id="d"><path d="M112.33 95.7c-1.07.81-1.67 1.68-1.76 2.56-.52 4.69 12.89 8.95 29.9 9.5 17.03.57 31.27-2.79 31.79-7.48.11-1.08-.51-2.17-1.84-3.21l-58.09-1.36z"/></clipPath><g clip-path="url(#d)"><path d="M121.88 98.81c.03 2.91 8.41 5.5 18.94 5.84 10.78.35 19.8-1.77 20.12-4.74v-.18l-39.06-.92z" fill="#fff"/></g><path d="M129.68 82.73c-.26-7.71-5.44-14.16-11.94-14.89-6.95-.77-12.88 5.26-13.25 13.47-.02.46-.02.92 0 1.38l25.2.04z" fill="#191919"/><clipPath id="e"><path d="M129.68 82.73c-.26-7.71-5.44-14.16-11.94-14.89-6.95-.77-12.88 5.26-13.25 13.47-.02.46-.02.92 0 1.38l25.2.04z"/></clipPath><g clip-path="url(#e)"><path d="M115.85 80c.44-3.77.2-6.7-.53-6.78-.79-.08-1.87 3.15-2.42 7.22l-.1.77 3.05-1.2z" fill="#fff"/></g><path d="M170.82 84c-.25-7.3-5.14-13.4-11.28-14.07-6.57-.74-12.19 4.97-12.53 12.73-.02.43-.02.87 0 1.3l23.81.04z" fill="#191919"/><clipPath id="f"><path d="M170.82 84c-.25-7.3-5.14-13.4-11.28-14.07-6.57-.74-12.19 4.97-12.53 12.73-.02.43-.02.87 0 1.3l23.81.04z"/></clipPath><g clip-path="url(#f)"><path d="M157.36 81.39c.42-3.77.08-6.71-.8-6.8-.93-.11-2.13 3.11-2.68 7.18l-.1.77 3.58-1.15z" fill="#fff"/></g></g><path d="M134.06 38.87H135l.47.01.47.01.46.02.47.01.47.02.47.02.47.03.47.03.47.03.47.03.47.03.47.04.48.04.47.05.48.04.47.05.47.05.48.06.47.06.47.06.47.06.47.06.47.07.47.07.47.07.46.08.47.08.46.08.46.08.47.09.46.09.46.09.46.1.46.09.45.1.46.1.45.1.46.1.45.11.45.11.45.12.45.11.45.12.45.12.45.12.44.13.45.13.44.13.44.13.44.13.44.14.44.14.44.14.43.15.44.14.43.15.43.15.43.16.41.14.02.01.43.16.43.16.43.17.42.16.42.17.43.17.42.17.42.17.42.18.41.18.42.18.41.18.42.19.4.18.42.2.4.19.41.19.41.2.4.2.4.2.41.2.4.2.4.2.4.21.4.21.39.22.4.21.38.22.4.21.38.23.39.22.39.22.38.23.38.23.38.23.38.23.38.23.38.24.37.24.38.24.37.24.1.07.27.17.37.25.36.25.37.25.36.25.36.26.36.25.36.26.36.26.35.26.36.26.35.27.35.26.35.27.35.27.34.28.34.27.34.27.34.28.34.28.34.28.33.28.34.29.33.28.33.29.32.29.33.29.32.3.32.29.32.3.32.29.32.3.31.3.2.2.12.1.3.3.31.31.3.31.31.31.3.31.3.32.3.31.3.32.3.31.28.32.3.33.28.32.29.32.24.28.04.05.28.32.28.33.28.33.27.34.27.33.27.34.27.33.27.34.26.34.26.34.26.34.26.34.25.35.25.33v.02l.25.34.25.35.24.36.25.35.24.35.23.36.24.36.23.35.23.36.23.36.23.36.22.37.22.36.22.37.22.36.21.37.22.37.2.37.22.37.2.37.2.37.2.38.2.37.2.38.2.38.19.37.18.38.08.15.1.24.19.38.18.38.17.39.17.39.17.38.17.4.17.38.16.4.16.38.16.4.15.39.15.4.15.39.15.4.15.39.14.4.14.4.14.39.13.4.13.4.13.4.13.4.13.4.12.4.12.41.11.4.12.41.1.4.12.41.1.41.1.41.1.4.1.42.1.4.1.42.08.41.09.41.08.41.09.42.08.41.07.42.08.41.07.41.06.42.07.42.06.41.06.42.06.42v.01l.05.4.04.43.05.42.04.42.03.42.04.42.03.42.03.42.03.43.02.42.02.42.02.42.01.43.01.42.01.42v.43l.01.42v.85l-.01.43v.42l-.02.43-.01.42-.02.43-.02.42-.03.43-.02.42-.03.43-.04.43-.03.42-.04.43-.04.42-.05.43-.05.43-.02.22-.01.09-.02.13-.03.22-.03.22-.03.22-.03.21-.03.22-.04.22-.03.22-.04.22-.03.22-.04.21-.04.22-.04.22-.03.22-.04.21-.05.22-.04.22-.04.21-.04.22-.05.21-.04.22-.05.22-.04.21-.05.22-.05.21-.05.22-.04.2-.05.22-.06.22-.02.11-.03.1-.05.21-.08.29-.13.27-.18.24-.2.21-.25.18-.27.12-.3.08-.3.03-1.54.03-39.81.73-95.33 1.73-.4-.03-.23-.04-.18-.05-.39-.15-.35-.2-.32-.27-.28-.3-.22-.36-.16-.38-.13-.37-.13-.39-.13-.38-.13-.38-.12-.39-.12-.38-.12-.39-.12-.38-.1-.39-.12-.39-.1-.38-.11-.4-.1-.38-.1-.39-.1-.39-.1-.39-.1-.39-.08-.39-.1-.39-.08-.39-.08-.39-.08-.39-.08-.4-.08-.38-.07-.4-.07-.39-.07-.39-.06-.4-.07-.39-.06-.39-.06-.4-.05-.39-.06-.4-.05-.39-.04-.39-.05-.4-.04-.39-.04-.4-.04-.39-.04-.4-.03-.39-.03-.4-.03-.4-.02-.39-.03-.4-.02-.39-.01-.4-.02-.39-.01-.4-.01-.4-.01-.39v-2.38l.02-.39.01-.4.02-.4.02-.39.02-.4.02-.39.03-.4.03-.43.03-.43.04-.43.04-.43.04-.43.05-.42.05-.43.05-.43.05-.42.06-.43.06-.42.07-.42.06-.42.07-.42.07-.42.08-.42.08-.41.08-.42.08-.42.09-.4.09-.42.09-.41.1-.41.1-.41.1-.41.1-.4.1-.41.1-.4.12-.41.11-.4.12-.4.12-.4.12-.4.13-.4.12-.4.13-.4.14-.4.13-.38.14-.4.14-.39.14-.39.15-.38.15-.4.15-.38.15-.38.16-.38.16-.39.16-.38.16-.38.17-.37.17-.38.17-.38.17-.37.18-.37.18-.37.18-.37.18-.37.19-.37.18-.36.2-.37.19-.36.2-.36.2-.36.2-.36.2-.36.2-.35.2-.36.22-.35.2-.35.1-.17.12-.18.22-.35.22-.35.22-.34.23-.35.22-.34.23-.34.23-.34.23-.34.24-.33.24-.34.24-.33.24-.33.24-.33.25-.33.25-.33.25-.32.25-.33.25-.32.26-.32.26-.32.26-.32.26-.31.27-.32.26-.3.27-.32.28-.3.27-.31.27-.31.28-.3.28-.3.28-.3.29-.3.28-.3.29-.3.29-.3.29-.28.3-.3.29-.28.3-.29.3-.28.3-.29.3-.28.3-.28.3-.27.32-.28.3-.27.32-.28.31-.27.32-.26.32-.27.32-.27.32-.26.32-.26.33-.26.32-.26.33-.25.33-.26.33-.25.34-.25.33-.25.34-.24.34-.25.34-.24.34-.24.35-.24.34-.23.35-.24.35-.23.35-.23.35-.23.35-.23.36-.22.35-.22.36-.22.36-.22.36-.22.37-.21.36-.21.37-.21.37-.21.36-.2.38-.21.37-.2.37-.2.38-.2.37-.2.38-.2.38-.18.38-.2.38-.18.39-.19.38-.18.39-.18.39-.18.39-.18.39-.17.39-.17.4-.17.39-.17.4-.17.4-.16.4-.16.4-.16.4-.16.4-.15.4-.16.4-.15.41-.14.4-.15.42-.14.4-.15.42-.13.41-.14.42-.14.41-.13.42-.13.41-.13.42-.12.42-.12.42-.12.43-.12.42-.12.42-.11.43-.11.42-.11.43-.1.43-.11.43-.1.25-.06.18-.04.43-.1.44-.1.43-.09.43-.08.44-.1.44-.08.43-.08.44-.08.44-.07.44-.08.45-.07.44-.07.44-.07.45-.06.44-.06.45-.06.44-.06.45-.05.45-.06.45-.05.45-.04.45-.05.45-.04.46-.04.45-.04.46-.03.45-.03.46-.03.45-.03.46-.02.46-.02.46-.02.46-.02h.46l.46-.02h.46l.47-.01h.92zm-1.32 6.63h-.42l-.43.01-.42.01-.42.01-.42.01-.42.02-.42.02-.42.02-.42.02-.42.03-.42.02-.41.03-.42.04-.41.03-.42.04-.4.04-.42.04-.41.04-.41.05-.41.05-.41.05-.41.05-.4.05-.41.06-.41.06-.4.06-.4.07-.41.07-.4.07-.4.07-.4.07-.4.08-.4.07-.4.08-.4.09-.4.08-.16.04-.23.05-.4.09-.39.09-.39.1-.39.09-.39.1-.39.1-.39.1-.38.1-.39.1-.38.11-.39.11-.38.12-.38.11-.38.12-.38.11-.38.13-.38.12-.37.12-.38.13-.37.13-.37.13-.38.13-.37.14-.36.14-.37.14-.37.14-.36.14-.37.15-.36.14-.36.15-.37.15-.35.16-.36.15-.36.16-.36.16-.35.16-.35.16-.36.17-.35.17-.34.17-.35.17-.35.17-.34.17-.35.18-.34.18-.34.18-.34.18-.34.19-.34.18-.33.19-.34.19-.33.2-.33.18-.33.2-.33.2-.33.2-.32.2-.33.2-.32.2-.32.21-.32.2-.32.22-.31.21-.32.21-.31.22-.32.22-.3.21-.31.22-.31.23-.3.22-.31.23-.3.22-.3.23-.3.23-.3.23-.3.24-.3.23-.29.24-.29.24-.29.24-.28.24-.29.25-.28.24-.29.25-.28.25-.28.25-.27.25-.28.26-.27.25-.28.26-.27.26-.27.26-.26.26-.27.26-.26.27-.26.26-.26.27-.26.27-.26.27-.25.27-.25.28-.26.27-.24.28-.25.28-.25.28-.24.28-.24.28-.24.29-.24.28-.23.3-.24.28-.23.3-.23.28-.23.3-.22.3-.23.29-.22.3-.22.3-.21.3-.22.3-.21.3-.22.3-.2.3-.21.32-.2.3-.21.31-.2.32-.2.3-.1.18-.1.14-.2.32-.19.31-.2.32-.18.32-.19.32-.18.32-.19.33-.18.32-.17.33-.18.32-.17.33-.18.33-.17.33-.16.33-.17.34-.16.33-.16.34-.16.33-.16.34-.15.34-.15.34-.15.34-.15.35-.15.34-.14.35-.14.34-.14.35-.13.35-.14.35-.13.35-.13.36-.12.35-.13.35-.12.36-.12.36-.12.35-.11.36-.11.36-.11.37-.11.36-.1.36-.1.37-.1.36-.1.37-.1.37-.1.37-.08.37-.1.37-.08.37-.08.38-.08.37-.08.38-.07.37-.07.38-.07.38-.07.38-.07.38-.06.38-.06.39-.06.38-.05.39-.05.38-.05.39-.05.39-.04.39-.04.39-.04.39-.04.39-.03.4-.03.35-.02.36-.03.36-.02.36-.02.36-.01.36-.02.36v.36l-.02.36v.72l-.01.36v1.08l.01.36.01.36.02.36.01.36.02.36.01.36.03.36.02.36.02.36.03.37.03.36.04.36.03.36.04.36.04.36.04.36.04.36.05.36.05.36.05.36.05.36.06.36.06.36.06.36.06.36.07.36.06.36.07.35.07.36.08.36.08.36.07.36.09.36.08.35.08.36.1.36.08.36.1.35.1.36.09.35.1.36.1.36.1.35.1.33h.05l94.09-.5 39.08-.2v-.02l.03-.2.02-.21.02-.2.02-.21.02-.21.02-.2.02-.21.02-.2.02-.21.01-.2.02-.21.01-.2.02-.22.01-.2.01-.2.01-.21.01-.2.01-.21.01-.21.01-.2.01-.21v-.2l.01-.21v-.12l.01-.09v-.2l.02-.4v-.4l.01-.4v-1.6l-.02-.39v-.4l-.02-.39-.02-.39-.02-.4-.02-.39-.03-.39-.02-.39-.03-.39-.04-.39-.03-.39-.04-.39-.04-.38-.05-.4-.04-.38-.05-.38-.05-.39-.06-.38-.05-.39-.06-.38-.06-.38-.07-.39-.06-.38-.07-.38-.08-.38-.07-.38-.08-.36v-.01l-.07-.38-.08-.38-.08-.38-.08-.37-.08-.38-.09-.37-.09-.38-.1-.37-.09-.37-.1-.37-.09-.37-.1-.37-.1-.37-.11-.37-.11-.37-.11-.37-.11-.36-.12-.37-.12-.36-.12-.37-.12-.36-.13-.36-.12-.36-.13-.36-.14-.36-.13-.36-.14-.36-.14-.35-.14-.36-.14-.35-.15-.36-.14-.35-.15-.35-.16-.35-.15-.35-.16-.35-.16-.35-.16-.35-.16-.35-.17-.34-.17-.35-.17-.34-.17-.34-.17-.34-.18-.34-.18-.34-.18-.34-.18-.34-.12-.2-.06-.14-.19-.33-.18-.34-.19-.34-.19-.33-.19-.33-.2-.34-.19-.33-.2-.33-.2-.33-.2-.33-.2-.32-.2-.33-.21-.32-.21-.33-.21-.32-.22-.32-.21-.32-.22-.32-.22-.32-.22-.31-.23-.32-.22-.31-.23-.32-.23-.31-.23-.31-.24-.31-.23-.31v-.01l-.24-.3-.23-.3-.24-.31-.24-.31-.24-.3-.25-.3-.24-.3-.25-.31-.25-.3-.25-.3-.26-.3-.25-.29-.26-.3-.26-.29-.04-.04-.22-.25-.26-.3-.27-.28-.26-.3-.27-.28-.27-.29-.27-.28-.27-.29-.27-.28-.28-.28-.28-.28-.27-.28-.29-.27-.28-.28-.1-.1-.18-.17-.29-.28-.28-.27-.3-.27-.28-.27-.3-.27-.29-.27-.3-.26-.29-.27-.3-.26-.3-.26-.3-.26-.3-.26-.31-.25-.3-.26-.32-.25-.3-.25-.32-.25-.31-.25-.32-.25-.31-.24-.32-.25-.32-.24-.32-.24-.33-.24-.32-.24-.33-.23-.32-.24-.33-.23-.33-.23-.34-.23-.33-.23-.34-.22-.24-.16-.1-.07-.33-.22-.34-.22-.34-.22-.34-.22-.35-.21-.34-.22-.35-.21-.35-.21-.35-.2-.35-.22-.35-.2-.35-.2-.36-.2-.36-.2-.35-.2-.36-.2-.37-.2-.36-.19-.36-.19-.37-.19-.36-.19-.37-.18-.37-.18-.37-.19-.37-.18-.37-.17-.38-.18-.37-.17-.38-.17-.38-.17-.38-.17-.38-.17-.38-.16-.38-.16-.39-.16-.38-.16-.39-.16-.39-.15-.39-.15-.39-.15-.39-.15h-.02l-.37-.14-.4-.15-.39-.14-.4-.14-.39-.14-.4-.13-.4-.14-.4-.13-.4-.13-.4-.12-.4-.13-.41-.12-.4-.12-.42-.12-.4-.12-.41-.11-.41-.11-.42-.11-.4-.11-.42-.1-.42-.11-.41-.1-.42-.1-.42-.1-.41-.09-.42-.1-.42-.08-.43-.09-.42-.08-.42-.09-.43-.08-.42-.07-.43-.08-.43-.07-.42-.07-.43-.07-.43-.07-.43-.06-.44-.06-.43-.06-.43-.06-.44-.05-.43-.06-.44-.05-.43-.04-.44-.05-.43-.04-.44-.04-.43-.03-.43-.04-.43-.03-.44-.03-.43-.02-.43-.03-.43-.02-.43-.02-.43-.01-.42-.02h-.43l-.43-.02h-1.7z"/><g><path d="M506.53 308.2c15.3-22.83 25.4-52.87 28.46-84.65 2.88-30.07-.71-59.86-10.2-84.5l-138.26 3c-9.3 19.52-15.37 42.11-17.61 65.5-3.7 38.57 3.3 76.25 19.18 103.2l118.43-2.56z" fill="#b8b8b8"/><path d="M525.22 135.72l.5.1.5.19.44.25.4.32.36.38.3.42.21.47.23.59.22.59.23.6.22.6.22.59.22.6.21.6.21.6.21.61.21.61.2.6.21.62.2.61.2.62.2.61.2.62.19.62.19.62.18.62.2.63.17.62.19.63.17.63.18.63.18.63.17.63.17.64.17.63.16.64.16.64.16.64.16.65.16.64.15.64.15.65.15.65.15.65.15.65.04.18.1.47.14.65.14.66.13.65.13.66.13.66.13.66.13.66.12.66.13.67.11.66.12.67.12.66.1.67.12.67.1.67.11.67.1.68.1.67.1.68.1.67.1.68.09.68.09.68.08.68.09.68.08.68.08.68.08.69.07.68.08.69.07.68.07.7.06.68.07.69.06.7.06.68.06.7.05.69.05.69.05.7.05.69.03.5.02.2.04.7.04.69.04.7.03.7.03.7.03.7.03.7.03.7.02.7.02.7.02.7.02.71.01.7.01.71.01.7.01.71v4.25l-.02.71v.71l-.02.71-.02.71-.02.72-.02.7-.02.72-.03.71-.03.72-.03.67v.04l-.03.71-.04.72-.04.71-.04.71-.05.72-.05.71-.05.72-.05.71-.05.72-.06.71-.06.72-.06.72-.06.71-.02.2-.05.52-.07.71-.08.76-.08.76-.09.75-.08.75-.09.76-.1.75-.09.75-.1.75-.1.75-.1.75-.07.56-.03.2-.1.74-.12.75-.12.74-.11.75-.12.74-.13.74-.12.75-.13.74-.13.74-.13.74-.14.73-.14.74-.14.74-.14.73-.14.74-.15.73-.15.73-.16.73-.15.73-.16.73-.16.72-.16.73-.17.72-.14.63-.02.1-.18.72-.18.72-.18.72-.18.71-.18.72-.2.71-.18.71-.2.72-.19.7-.2.71-.2.71-.2.7-.2.71-.2.7-.21.7-.21.7-.22.7-.21.7-.22.7-.22.69-.22.7-.23.68-.22.7-.23.68-.24.68-.23.69-.24.68-.23.68-.24.68-.25.68-.24.67-.25.68-.25.67-.25.67-.25.67-.26.66-.26.67-.26.66-.26.66-.27.66-.26.66-.27.65-.27.66-.2.46-.08.19-.28.65-.28.64-.29.64-.29.65-.29.64-.29.63-.29.64-.3.63-.3.63-.3.63-.3.63-.3.62-.3.62-.32.62-.3.62-.32.62-.31.61-.32.61-.32.61-.32.6-.32.61-.33.6-.32.6-.33.6-.33.6-.33.6-.34.58-.34.59-.33.58-.34.59-.35.58-.34.58-.35.57v.02l-.35.55-.35.57-.36.57-.36.56-.35.56-.37.56-.36.56-.36.55-.37.55-.37.55-.18.27-.19.28-.19.27-.18.27-.19.27-.19.27-.18.27-.2.26-.18.27-.19.27-.09.12-.1.14-.19.27-1.46-.98 1.46.98-.17.22-.21.19-.23.15-.26.12-.27.07-.28.03-2.47.06-63.58 1.64-52.38 1.34-.34-.02-.33-.06-.32-.12-.3-.17-.26-.2-.24-.25-.2-.28-.18-.32-.2-.32-.18-.32-.19-.33-.19-.32-.18-.33-.19-.33-.18-.33-.19-.33-.18-.33-.18-.33-.18-.33-.18-.33-.18-.34-.18-.33-.18-.34-.18-.34-.17-.34-.18-.33-.17-.34-.18-.35-.17-.34-.17-.34-.17-.34-.17-.35-.17-.34-.17-.35-.17-.35-.17-.34-.16-.35-.17-.35-.16-.35-.17-.35-.16-.36-.16-.35-.16-.35-.16-.36-.16-.35-.16-.36-.16-.36-.15-.36-.16-.36-.15-.36-.16-.36-.15-.36-.15-.36-.15-.36-.16-.37-.15-.36-.14-.37-.15-.36-.15-.37-.15-.37-.14-.37-.15-.37-.14-.37-.14-.37-.14-.37-.15-.37-.14-.38-.14-.37-.13-.38-.14-.37-.14-.38-.13-.38-.14-.37-.13-.38-.14-.38-.13-.38-.13-.38-.13-.39-.13-.38-.13-.38-.13-.38-.13-.39-.12-.38-.13-.4-.12-.38-.12-.39-.13-.38-.12-.4-.12-.38-.12-.4-.12-.38-.12-.4-.12-.39-.11-.39-.12-.4-.11-.39-.12-.4-.11-.39-.11-.4-.11-.4-.11-.39-.11-.4-.11-.4-.11-.4-.1-.4-.11-.4-.1-.4-.11-.4-.1-.4-.1-.4-.1-.41-.11-.4-.1-.41-.1-.4-.1-.41-.1-.41-.09-.4-.1-.42-.09-.4-.1-.41-.09-.41-.09-.41-.09-.42-.09-.4-.09-.42-.08-.41-.1-.42-.08-.41-.08-.41-.09-.42-.08-.42-.08-.41-.08-.42-.09-.42-.08-.41-.07-.42-.08-.42-.08-.42-.08-.42-.07-.42-.08-.42-.07-.42-.07-.42-.07-.43-.07-.42-.07-.42-.07-.43-.07-.42-.07-.43-.06-.42-.07-.43-.06-.42-.07-.43-.06-.43-.06-.43-.06-.42-.06-.43-.06-.43-.06-.43-.06-.43-.05-.43-.06-.43-.05-.44-.05-.43-.06-.43-.05-.43-.05-.44-.05-.43-.05-.43-.04-.44-.05-.43-.05-.44-.04-.43-.05-.44-.04-.44-.04-.43-.04-.44-.04-.44-.04-.43-.04-.44-.04-.44-.03-.44-.04-.44-.03-.44-.04-.44-.03-.44-.03-.44-.03-.44-.03-.44-.03-.45-.03-.44-.03-.44-.02-.44-.03-.45-.02-.44-.03-.45-.02-.44-.02-.44-.02-.45-.02-.44-.02-.45-.02-.45-.01-.44-.02-.45-.01-.45-.02-.44v-.45l-.02-.45-.01-.44-.01-.45-.01-.45v-.45l-.02-.45v-.9l-.01-.45V224.14l.01-.45.01-.45.01-.46.01-.45.01-.45.01-.46.01-.45.02-.45.01-.46.02-.45.01-.46.02-.45.02-.45.02-.46.02-.45v-.27l.02-.19.02-.45.02-.46.03-.46.02-.45.03-.46.02-.45.03-.46.03-.46.03-.45.03-.46.03-.46.04-.45.03-.46.03-.46.04-.45.04-.46.03-.46.04-.46.04-.45.04-.46.05-.46.05-.56.05-.55.06-.55.05-.56.06-.55.06-.56.06-.55.06-.55.06-.55.07-.56.07-.55.06-.55.07-.55.07-.55.07-.55.08-.55.07-.55.08-.55.07-.55.08-.55.08-.55.08-.54.09-.55.08-.55.09-.54.08-.55.1-.55.08-.54.1-.55.08-.54.1-.54.1-.55.1-.54.09-.54.1-.54.1-.54.1-.54.1-.54.1-.54.11-.54.11-.54.11-.54.11-.54.11-.53.12-.54.11-.53.11-.54.12-.53.12-.54.12-.53.12-.53.12-.54.13-.53.12-.53.13-.53.13-.53.12-.53.13-.53.14-.52.13-.53.13-.53.14-.52.14-.53.13-.52.14-.52.14-.53.15-.52.14-.52.14-.52.15-.52.15-.52.15-.52.15-.52.15-.51.15-.52.15-.52.16-.51.16-.51.15-.52.16-.51.16-.51.16-.51.17-.51.16-.51.17-.51.16-.5.17-.51.17-.51.17-.5.17-.51.18-.5.17-.5.18-.5.17-.5.18-.5.18-.5.18-.5.18-.5.19-.5.18-.5.19-.49.18-.49.2-.5.18-.48.2-.5.19-.48.19-.5.2-.48.19-.49.2-.48.2-.49.2-.48.2-.48.2-.48.2-.49.2-.47.21-.48.2-.48.22-.48.2-.47.22-.48.21-.47.21-.47.22-.47.21-.47.22-.47.22-.47.22-.46.23-.4.28-.37.35-.3.39-.26.42-.19.45-.12.46-.04 6.79-.18 85.72-2.13 45.73-1.12.51.03zm-47.03 7.6l-82.93 1.5v-.03l-6.86.15-.08.17-.2.46-.22.45-.2.46-.21.45-.21.46-.2.46-.2.46-.21.46-.2.46-.2.47-.2.46-.2.47-.2.46-.2.47-.19.47-.19.47-.2.47-.18.47-.2.48-.18.47-.19.47-.18.48-.19.48-.18.47-.18.48-.18.48-.18.48-.18.48-.18.49-.18.48-.17.48-.18.49-.17.48-.17.49-.17.49-.17.49-.17.49-.17.49-.16.49-.17.49-.16.5-.16.49-.16.5-.16.49-.16.5-.16.5-.15.49-.16.5-.15.5-.15.5-.15.5-.15.5-.15.5-.15.5-.14.51-.15.5-.14.51-.14.5-.14.52-.14.5-.14.51-.14.51-.13.51-.14.51-.13.52-.13.5-.13.52-.13.51-.13.52-.13.51-.12.52-.13.52-.12.51-.12.52-.12.52-.12.52-.12.52-.11.52-.12.52-.11.52-.11.52-.12.52-.1.53-.11.52-.11.52-.1.53-.11.52-.1.53-.1.52-.1.53-.1.53-.1.53-.1.53-.1.52-.1.53-.08.53-.1.53-.09.53-.08.54-.1.53-.08.53-.08.53-.09.54-.08.53-.08.53-.08.54-.08.53-.07.54-.08.53-.07.54-.07.53-.07.54-.07.54-.07.54-.07.53-.07.54-.06.54-.06.54-.06.54-.06.54-.06.54-.06.54-.06.54-.05.54-.05.45-.04.44-.04.45-.04.44-.04.45-.04.45-.04.44-.04.45-.03.44-.04.45-.03.44-.04.45-.03.44-.03.45-.03.44-.03.45-.03.44-.03.45-.02.44-.03.44-.03.45v.18l-.02.26-.02.45-.02.44-.03.44-.02.45-.02.44-.01.44-.02.44-.02.45-.01.44-.02.44-.01.44-.01.45-.01.44-.01.44-.01.44-.01.44-.01.44v.44l-.01.44-.01.44v1.32l-.01.44v2.19l.01.44v.44l.01.43.01.44v.44l.02.43v.44l.02.44.01.43.01.44.02.43.01.44.02.43.01.43.02.44.02.43.02.43.02.44.02.43.02.43.02.43.03.44.02.43.03.43.02.43.03.43.03.43.03.43.03.43.03.42.03.43.04.43.03.43.04.43.03.42.04.43.04.43.03.42.04.43.04.42.05.43.04.42.04.42.05.43.04.42.05.42.04.42.05.43.05.42.05.42.05.42.05.42.05.42.05.42.06.41.05.42.06.42.06.42.05.41.06.42.06.42.06.41.06.42.06.41.07.41.06.42.07.41.06.41.07.41.06.42.07.4.07.42.07.4.07.42.07.4.08.41.07.41.08.4.07.42.08.4.07.4.08.41.08.4.08.41.08.4.08.4.09.4.08.41.08.4.09.4.08.4.09.4.09.4.09.4.09.4.09.4.09.39.09.4.1.4.09.38.09.4.1.4.1.38.09.4.1.39.1.39.1.39.1.39.1.39.1.39.1.38.1.4.11.38.1.38.11.39.11.38.11.39.1.38.12.38.11.38.11.38.12.38.1.38.12.38.12.38.11.38.12.37.12.38.12.38.12.37.12.37.12.38.12.37.12.37.13.37.12.37.13.37.12.37.13.37.13.37.13.36.13.37.13.36.13.37.13.36.13.36.14.37.13.36.14.36.13.36.14.36.14.35.14.36.14.36.14.35.14.36.14.35.14.35.15.36.14.35.14.35.15.35.15.35.15.35.14.34.15.35.15.35.15.34.16.34.15.35.15.34.16.34.15.34.16.34.15.34.16.34.16.33.16.34.16.33.16.34.16.33.16.33.17.34.16.33.17.33.16.33.17.32.17.33.16.33.17.32.17.33.17.32.17.32.17.32.18.32.17.32.18.32.17.32.18.32.17.31.18.32.07.12 52.18-.92 62.5-1.09 1.49-.03.03-.05.16-.27.17-.27.17-.28.16-.27.17-.27.16-.28.16-.27.17-.28.16-.28.32-.55.33-.56.32-.56.31-.56.32-.57.31-.57.31-.57.31-.57.31-.57.3-.56v-.02l.31-.58.3-.58.31-.58.3-.58.3-.59.3-.58.3-.6.28-.59.3-.6.28-.59.29-.6.28-.6.28-.6.28-.6.28-.61.28-.61.27-.62.27-.6.27-.62.27-.62.26-.62.27-.62.26-.63.26-.62.25-.63.26-.63.25-.63.25-.63.25-.64.24-.63.24-.64.25-.64.24-.64.07-.2.17-.44.24-.65.23-.64.24-.65.23-.65.23-.65.23-.65.23-.65.23-.66.22-.66.22-.65.22-.66.21-.67.21-.66.22-.67.2-.66.21-.67.2-.67.2-.67.2-.67.2-.68.2-.67.2-.68.19-.68.19-.68.18-.68.19-.68.18-.69.18-.68.17-.7.18-.68.17-.69.17-.69.17-.7.16-.69.17-.69.16-.7.16-.7.15-.7.16-.69.15-.7.15-.7.14-.7.15-.7.02-.1.12-.61.15-.7.14-.72.14-.7.14-.71.14-.7.13-.72.13-.71.13-.71.12-.72.13-.71.12-.72.12-.71.11-.72.12-.72.1-.72.12-.72.1-.72.1-.72.1-.72.1-.73.1-.72.1-.72.09-.73.02-.19.07-.54.1-.72.08-.73.09-.73.08-.73.08-.73.08-.73.07-.73.07-.73.07-.73.07-.73.06-.7.04-.5.02-.2.06-.68.06-.7.05-.69.05-.7.05-.68.05-.7.05-.69.04-.69.04-.7.04-.68.04-.7.03-.68.03-.7v-.03l.03-.65.03-.7.03-.68.02-.7.02-.68.02-.69.02-.69.02-.68v-.69l.02-.69v-.68l.01-.69V201.16l-.01-.68-.01-.68-.01-.68-.02-.68-.01-.68-.02-.68-.03-.68-.02-.68-.03-.68-.02-.67-.03-.68-.04-.67-.03-.68-.04-.67-.04-.67-.01-.19-.03-.49-.04-.67-.05-.67-.05-.67-.05-.67-.05-.67-.05-.66-.06-.67-.06-.67-.06-.66-.07-.67-.06-.66-.07-.66-.07-.66-.07-.66-.08-.66-.07-.66-.08-.66-.09-.65-.08-.66-.08-.65-.1-.65-.08-.66-.1-.65-.1-.65-.09-.65-.1-.64-.1-.65-.1-.64-.1-.65-.11-.64-.12-.64-.1-.64-.12-.64-.12-.64-.12-.64-.12-.63-.12-.64-.13-.63-.13-.63-.12-.63-.14-.63-.1-.45-.03-.18-.14-.62-.13-.63-.14-.62-.15-.62-.14-.62-.15-.62-.15-.62-.15-.61-.15-.62-.16-.61-.15-.61-.16-.61-.16-.61-.17-.6-.16-.61-.17-.6-.17-.6-.18-.6-.17-.6-.18-.6-.18-.6-.18-.6-.18-.59-.18-.59-.2-.59-.18-.58-.2-.59-.19-.58-.2-.58-.19-.58-.2-.58-.2-.58-.2-.57-.21-.58-.03-.07-44.26.84z"/><ellipse cx="445.61" cy="76.92" rx="39.06" ry="50.52" fill="#b8b8b8"/><path d="M445.37 28.15h-.24l-.23.01h-.24l-.12.02h-.12l-.24.01-.23.02-.24.02-.23.01-.23.02-.24.03-.23.02-.24.03-.23.02-.23.03-.23.04-.23.03-.23.04-.23.03-.23.04-.23.04-.23.05-.23.04-.23.05-.23.05-.22.05-.23.05-.23.05-.22.06-.23.05-.22.06-.22.06-.23.07-.22.06-.22.07-.23.06-.22.07-.22.07-.22.08-.22.07-.22.08-.22.08-.22.08-.21.08-.22.08-.22.09-.21.08-.22.1-.21.08-.22.1-.21.09-.22.1-.2.09-.22.1-.21.1-.21.1-.22.1-.2.1-.21.11-.21.11-.21.11-.2.11-.22.12-.2.1-.2.13-.21.11-.2.12-.21.12-.2.13-.2.12-.2.13-.21.12-.2.13-.2.13-.2.13-.2.14-.2.13-.2.14-.19.14-.2.14-.2.14-.19.14-.19.14-.2.15-.18.15-.2.15-.19.15-.19.15-.19.15-.19.15-.18.16-.19.16-.19.16-.18.16-.19.16-.18.16-.19.17-.18.16-.18.17-.18.17-.18.17-.18.17-.18.17-.18.18-.17.17-.18.18-.18.18-.17.18-.17.18-.18.18-.17.18-.17.19-.17.19-.17.18-.17.2-.17.18-.16.2-.17.19-.17.2-.1.11-.06.08-.16.2-.17.2-.16.2-.16.2-.16.2-.16.2-.16.2-.15.21-.16.2-.15.22-.16.2-.15.22-.15.2-.16.22-.15.22-.15.21-.14.22-.15.22-.15.22-.14.22-.15.22-.14.22-.14.22-.15.23-.14.23-.14.22-.13.23-.14.23-.14.23-.13.23-.14.24-.13.23-.13.24-.14.23-.13.24-.12.24-.13.24-.13.24-.13.24-.12.24-.12.25-.13.24-.12.25-.12.24-.12.25-.12.25-.11.25-.12.25-.11.25-.12.25-.11.26-.11.25-.11.26-.11.26-.1.25-.12.26-.1.26-.1.26-.1.26-.11.27-.1.26-.1.26-.1.27-.1.27-.1.26-.09.27-.1.27-.08.27-.1.27-.09.27-.08.27-.1.28-.08.27-.08.27-.09.28-.08.28-.08.27-.08.28-.08.28-.08.28-.07.28-.08.28-.07.28-.07.29-.07.28-.07.29-.07.28-.07.29-.06.28-.07.3-.06.28-.06.29-.06.29-.06.29-.06.29-.05.3-.06.28-.05.3-.05.29-.05.3-.05.29-.05.3-.05.3-.04.29-.05.3-.04.3-.04.3-.04.3-.04.3-.03.3-.04.3-.03.3-.04.3-.03.3-.03.31-.02.3-.03.31-.03.3-.02.31-.02.3-.02.32-.02.3-.02.31-.01.31-.02.31-.01.31-.01.31-.01.31-.01.32-.01.3v.32l-.01.31V77.55l.01.31.01.32.01.3.01.32.02.31.01.31.02.31.01.31.02.31.02.31.02.31.03.3.02.32.03.3.03.3.02.31.03.3.04.31.03.3.04.3.03.31.04.3.04.3.04.3.04.3.04.3.05.3.04.3.05.3.05.3.05.29.05.3.06.29.05.29.06.3.05.28.06.3.06.29.06.28.06.3.07.28.06.29.07.29.07.28.07.29.07.28.07.28.07.29.08.28.07.28.08.28.08.28.08.28.08.28.08.27.08.28.09.27.08.28.09.27.09.27.09.28.09.27.09.27.1.27.08.26.1.27.1.27.1.26.1.27.1.26.1.26.1.26.1.26.1.26.11.26.1.26.12.26.1.25.12.26.1.25.12.25.12.25.11.26.12.25.11.24.12.25.12.25.12.24.12.25.13.24.12.24.13.24.12.24.13.24.1.21.03.03.12.24.13.23.14.24.13.23.13.24.13.23.14.23.13.23.14.22.14.23.14.23.14.22.14.22.14.23.14.22.15.22.14.22.15.21.14.22.15.22.15.2.15.22.15.21.15.21.15.21.16.2.15.22.16.2.15.2.16.2.16.2.15.2.16.2.16.2.16.2.17.2.16.19.16.2.17.18.16.2.17.18.16.19.17.18.17.19.17.18.17.18.17.18.17.18.17.18.18.18.17.17.18.17.17.18.18.17.17.17.18.16.18.17.18.17.18.16.18.16.18.16.18.16.18.16.19.16.18.15.19.15.18.16.19.15.18.14.19.15.19.15.19.14.19.15.19.14.19.14.19.14.19.13.19.14.2.13.19.14.2.13.19.13.2.12.19.13.2.13.19.12.2.12.2.12.2.12.2.12.2.11.2.12.2.1.2.12.2.1.2.12.2.1.2.1.21.1.2.11.21.1.2.1.21.1.2.09.21.1.21.08.21.1.2.08.22.09.2.08.22.09.2.08.22.08.2.08.22.07.21.08.21.07.22.07.2.07.22.07.22.07.21.06.22.07.21.06.22.06.21.05.22.06.22.05.21.06.22.05.22.05.22.05.22.04.22.05.22.04.22.04.22.04.22.03.22.04.22.03.22.04.23.03.22.02.22.03.22.02.23.03.22.02.23.02.22.01.23.02.22.01.23.02h.22l.23.01.23.01h1.59l.23-.01.23-.01.22-.02.23-.01.22-.02.23-.01.22-.02.23-.02.22-.03.22-.02.23-.03.22-.03.22-.03.22-.03.22-.03.22-.04.22-.03.22-.04.22-.04.22-.05.22-.04.22-.05.22-.04.21-.05.22-.06.22-.05.21-.05.22-.06.21-.06.22-.06.21-.06.22-.06.21-.07.21-.06.22-.07.2-.07.22-.07.2-.07.22-.08.2-.08.22-.07.2-.08.22-.08.2-.09.21-.08.2-.09.22-.09.2-.09.2-.09.21-.09.2-.1.21-.09.2-.1.2-.1.2-.1.21-.1.2-.1.2-.1.2-.11.2-.11.2-.11.2-.12.2-.1.2-.12.2-.12.19-.12.2-.12.19-.12.2-.12.19-.12.2-.13.18-.13.2-.13.19-.13.19-.13.19-.13.19-.13.19-.14.19-.14.18-.14.19-.14.19-.14.18-.14.19-.15.18-.14.18-.15.19-.15.18-.15.18-.15.18-.16.18-.15.18-.16.18-.16.18-.16.18-.16.17-.16.18-.16.17-.17.18-.16.17-.17.18-.17.17-.17.17-.17.17-.18.17-.17.17-.18.17-.17.17-.18.16-.18.17-.18.16-.18.17-.19.16-.18.16-.19.17-.19.16-.19.16-.19.16-.19.16-.2.15-.19.16-.2.16-.19.15-.2.15-.2.16-.2.15-.2.15-.2.15-.2.15-.2.15-.21.15-.21.15-.21.14-.21.15-.21.14-.22.15-.21.14-.21.14-.22.14-.22.14-.22.14-.22.14-.22.13-.22.14-.22v-.02l.13-.2.14-.23.13-.23.13-.22.13-.23.13-.23.13-.23.13-.23.13-.24.12-.23.13-.23.12-.24.12-.24.12-.23.12-.24.12-.24.12-.25.12-.24.12-.24.11-.24.12-.25.1-.25.12-.24.11-.25.11-.25.1-.25.12-.25.1-.25.1-.26.11-.25.1-.26.1-.25.1-.26.1-.26.1-.26.1-.25.1-.27.1-.26.09-.26.09-.26.09-.27.09-.26.09-.27.09-.26.08-.27.09-.27.08-.27.09-.27.08-.27.08-.27.08-.27.07-.28.08-.27.08-.28.07-.27.07-.28.07-.28.07-.28.07-.27.07-.28.07-.28.06-.29.07-.28.06-.28.06-.28.06-.29.06-.28.06-.29.05-.28.06-.3.05-.28.05-.29.05-.29.05-.29.05-.29.04-.29.05-.3.04-.28.05-.3.04-.29.04-.3.03-.29.04-.3.04-.3.03-.29.03-.3.03-.3.03-.3.03-.3.03-.3.02-.3.03-.3.02-.3.02-.3.02-.3.02-.3.02-.3.01-.31.02-.3v-.31l.02-.3v-.31l.02-.31V77.85l.01-.31V76.3l-.01-.3v-.32l-.02-.3v-.31l-.02-.3v-.31l-.02-.31-.02-.3-.02-.3-.01-.31-.02-.3-.03-.3-.02-.31-.02-.3-.03-.3-.03-.3-.02-.3-.03-.3-.04-.3-.03-.3-.03-.3-.04-.3-.04-.29-.03-.3-.04-.29-.04-.3-.05-.29-.04-.3-.05-.28-.04-.3-.05-.29-.05-.29-.05-.29-.05-.28-.06-.3-.05-.28-.06-.29-.06-.28-.06-.29-.06-.28v-.04l-.06-.24-.06-.29-.06-.28-.07-.28-.06-.28-.07-.28-.07-.28-.07-.28-.07-.28-.07-.27-.07-.28-.08-.28-.08-.27-.07-.27-.08-.28-.08-.27-.08-.27-.08-.27-.09-.27-.08-.27-.09-.26-.09-.27-.08-.27-.1-.26-.08-.27-.1-.26-.09-.26-.1-.26-.09-.26-.1-.26-.1-.26-.1-.26-.1-.26-.1-.25-.08-.21-.02-.05-.1-.25-.1-.26-.1-.25-.11-.25-.1-.25-.11-.25-.11-.25-.11-.25-.11-.25-.12-.24-.1-.25-.12-.24-.12-.24-.11-.24-.11-.23-.01-.02-.12-.24-.11-.24-.12-.24-.12-.23-.12-.24-.13-.24-.12-.23-.12-.23-.13-.24-.12-.23-.13-.23-.13-.23-.13-.23-.13-.22-.13-.23-.01-.02-.12-.2-.13-.23-.13-.22-.13-.23-.13-.22-.14-.22-.13-.22-.14-.22-.14-.22-.14-.21-.14-.22-.14-.21-.14-.22-.14-.2-.14-.22-.15-.2-.14-.22-.15-.2-.15-.2-.14-.21-.15-.2-.15-.2-.15-.21-.15-.2-.16-.2-.15-.2-.15-.2-.16-.19-.16-.2-.15-.18-.06-.08-.1-.12-.15-.19-.16-.2-.16-.18-.15-.2-.16-.18-.16-.19-.16-.18-.17-.19-.16-.18-.16-.18-.16-.18-.17-.18-.17-.18-.16-.17-.17-.18-.17-.17-.17-.18-.17-.17-.17-.17-.17-.17-.17-.16-.17-.17-.18-.16-.17-.17-.18-.16-.18-.16-.17-.16-.18-.16-.18-.15-.18-.16-.18-.15-.18-.15-.18-.15-.18-.15-.19-.15-.18-.15-.19-.14-.18-.14-.19-.15-.19-.14-.18-.14-.2-.13-.18-.14-.2-.14-.18-.13-.2-.13-.19-.13-.19-.13-.2-.13-.19-.12-.2-.13-.19-.12-.2-.12-.2-.12-.19-.12-.2-.12-.2-.12-.2-.12-.19-.11-.2-.12-.2-.1-.2-.12-.2-.11-.2-.1-.2-.12-.2-.1-.21-.1-.2-.1-.21-.1-.21-.1-.2-.1-.21-.1-.21-.1-.21-.09-.21-.09-.21-.09-.21-.09-.21-.08-.22-.09-.21-.08-.21-.08-.22-.08-.21-.08-.22-.08-.22-.07-.21-.07-.22-.07-.22-.07-.22-.07-.22-.07-.22-.06-.22-.06-.22-.07-.22-.05-.23-.06-.22-.06-.22-.05-.23-.05-.13-.03-.1-.03-.22-.05-.23-.05-.22-.05-.23-.04-.23-.05-.23-.04-.23-.04-.23-.04-.23-.04-.23-.03-.24-.03-.23-.04-.23-.03-.24-.02-.23-.03-.24-.02-.24-.03-.23-.02h-.03l-.22-.02h-.23zm.5-3.51l.27-.02h.27l.26-.02h.27l.27-.01h1.33l.26.01.27.01.26.02.27.01.26.02.27.01.26.03.27.02h.1l.16.03.26.03.26.03.27.03.26.04.26.04.26.04.26.04.26.05.26.04.26.05.26.05.26.06.26.05.26.06.26.06.26.06.25.06.26.07.26.07.25.07.26.07.25.07.26.08.25.07.26.08.25.08.25.09.25.08.25.09.26.09.25.09.25.1.25.09.24.1.25.1.25.1.25.1.24.1.25.1.25.12.24.1.25.12.24.12.24.12.24.12.24.12.24.13.24.13.23.12.24.13.24.14.23.13.24.14.23.13.23.14.24.15.23.14.23.14.23.15.23.15.23.15.23.15.22.15.23.16.22.15.23.16.22.16.23.16.22.17.22.16.22.17.22.17.22.17.22.17.21.17.22.17.22.18.21.18.22.18.2.18.22.18.21.19.21.18.21.19.21.19.2.19.21.19.21.2.2.19.2.2.21.2.2.19.2.2.2.2.2.2.2.21.2.2.2.22.11.13.08.08.2.21.18.22.2.21.18.22.18.22.2.22.18.23.18.22.18.22.18.23.18.23.18.23.18.23.18.23.18.23.17.24.17.23.18.24.17.24.17.24.17.24.17.24.17.24.16.25.17.24.16.25.16.25.17.25.16.25.14.22.02.03.15.25.16.26.15.26.15.26.15.26.15.26.15.26.15.26.14.26.15.27.14.27.15.26.14.27.14.27.14.27v.02l.13.25.14.28.13.27.13.28.13.28.13.27.13.28.13.28.12.28.13.29.12.28.12.28.12.29.12.28.12.3.02.04.1.24.1.29.12.29.1.3.12.28.1.3.11.3.1.29.11.3.1.29.1.3.1.3.1.3.1.3.1.3.09.3.1.3.08.3.1.31.08.3.09.32.09.3.08.31.08.31.08.31.08.31.08.31.08.31.07.32.08.31.07.32.07.31.07.32.07.31.06.28v.04l.07.32.06.32.07.32.06.32.06.32.05.32.06.33.05.32.05.33.06.32.04.33.05.32.05.33.04.33.05.32.04.33.04.33.04.33.03.33.04.34.03.33.04.33.03.33.02.34.03.33.03.34.02.33.02.34.03.33.02.34.01.34.02.34.01.34.02.34v.34l.02.34v.34l.01.34V77.95l-.01.34-.01.34-.01.34-.02.34-.01.34-.02.34-.02.34-.01.34-.03.33-.02.34-.02.34-.03.33-.03.34-.02.33-.04.33-.03.34-.03.33-.04.33-.03.33-.04.33-.04.33-.04.33-.05.33-.04.33-.05.33-.05.32-.04.33-.06.33-.05.32-.05.32-.06.33-.05.32-.06.32-.06.32-.07.32-.06.32-.06.32-.07.32-.07.32-.07.31-.07.32-.07.31-.07.32-.08.31-.07.31-.08.32-.08.3-.08.32-.08.3-.09.32-.08.3-.09.31-.08.3-.1.31-.08.3-.1.3-.09.31-.1.3-.1.3-.09.3-.1.3-.1.3-.1.3-.1.3-.1.29-.11.3-.1.29-.12.29-.1.3-.12.28-.11.3-.12.28-.11.29-.12.29-.11.28-.12.29-.12.28-.13.28-.12.28-.12.28-.13.28-.12.28-.13.28-.13.28-.13.27-.13.28-.14.27-.13.27-.14.28-.13.27-.14.26-.14.27-.14.27-.14.27-.15.26-.14.26-.15.27-.14.26-.15.26-.15.26-.15.26-.15.25-.15.26-.16.25-.15.26-.15.23v.02l-.17.25-.15.25-.16.25-.17.24-.16.25-.16.25-.17.24-.16.24-.17.24-.17.24-.17.24-.17.24-.17.23-.17.24-.17.23-.18.23-.17.24-.18.23-.18.22-.18.23-.18.23-.18.22-.18.22-.19.23-.18.22-.19.21-.18.22-.19.22-.19.21-.19.22-.19.2-.19.22-.2.2-.19.22-.2.2-.19.2-.2.21-.2.2-.2.2-.2.2-.2.2-.2.2-.2.2-.2.19-.2.19-.21.19-.2.19-.22.19-.2.18-.21.19-.22.18-.2.18-.22.18-.21.18-.22.17-.21.18-.22.17-.22.17-.21.17-.22.17-.22.17-.22.17-.23.16-.22.16-.22.16-.23.16-.22.16-.23.15-.23.16-.22.15-.23.15-.23.15-.23.15-.23.14-.24.15-.23.14-.23.14-.24.14-.23.14-.24.13-.24.13-.23.14-.24.12-.24.13-.24.13-.24.12-.25.13-.24.12-.24.12-.25.11-.24.12-.25.11-.24.11-.25.11-.25.11-.25.1-.25.11-.25.1-.25.1-.25.1-.25.1-.26.1-.25.08-.25.1-.26.08-.25.09-.26.08-.26.09-.26.08-.25.08-.26.07-.26.08-.26.07-.26.07-.26.07-.27.07-.26.06-.26.06-.27.06-.26.06-.26.06-.27.05-.27.05-.26.05-.27.05-.27.05-.27.04-.26.04-.27.04-.27.04-.27.03-.27.03-.27.03-.28.03-.27.03-.27.02-.27.02-.28.02-.27.02-.27.02h-.28l-.27.02h-.28l-.27.01h-.28l-.28.01H445.06l-.28-.02h-.28l-.27-.02-.28-.01-.27-.02-.27-.02-.28-.02-.27-.02-.27-.03-.27-.03-.27-.03-.27-.03-.27-.03-.27-.04-.27-.04-.27-.04-.27-.04-.27-.05-.26-.04-.27-.05-.26-.05-.27-.06-.26-.05-.27-.06-.26-.06-.26-.06-.27-.06-.26-.07-.26-.07-.26-.07-.26-.07-.26-.07-.25-.08-.26-.08-.26-.08-.26-.08-.25-.08-.26-.09-.25-.09-.25-.09-.26-.09-.25-.1-.25-.09-.25-.1-.25-.1-.25-.1-.25-.1-.24-.1-.25-.11-.25-.1-.24-.12-.25-.11-.24-.12-.24-.11-.24-.12-.24-.12-.24-.12-.24-.13-.24-.12-.24-.13-.24-.13-.23-.13-.24-.13-.23-.13-.24-.14-.23-.14-.23-.14-.23-.14-.23-.14-.23-.14-.23-.15-.23-.15-.23-.15-.22-.15-.23-.15-.22-.16-.23-.15-.22-.16-.22-.16-.22-.16-.22-.16-.22-.17-.22-.16-.21-.17-.22-.17-.21-.17-.22-.17-.21-.17-.21-.18-.21-.18-.21-.17-.21-.18-.21-.18-.2-.19-.21-.18-.21-.19-.2-.18-.2-.2-.21-.18-.2-.2-.2-.19-.2-.2-.2-.19-.2-.2-.2-.2-.19-.2-.2-.2-.19-.2-.19-.2-.19-.21-.19-.2-.19-.22-.19-.2-.18-.22-.19-.21-.18-.22-.19-.21-.18-.22-.18-.22-.18-.22-.18-.22-.18-.22-.18-.22-.17-.23-.18-.22-.17-.23-.18-.23-.17-.23-.17-.23-.17-.23-.17-.24-.16-.23-.17-.24-.16-.23-.17-.24-.16-.24-.16-.24-.16-.24-.16-.25-.16-.24-.16-.25-.15-.25-.16-.24-.15-.25-.15-.25-.16-.25-.15-.26-.14-.25-.15-.26-.15-.25-.14-.26-.15-.26-.14-.26-.14-.26-.14-.26-.14-.26-.14-.27-.02-.03-.12-.23-.13-.27-.14-.26-.13-.27-.13-.27-.13-.27-.13-.27-.13-.27-.12-.28-.13-.27-.12-.28-.13-.27-.12-.28-.12-.28-.12-.28-.11-.28-.12-.28-.12-.28-.1-.28-.12-.29-.11-.28-.11-.29-.11-.29-.1-.28-.11-.3-.1-.28-.11-.3-.1-.28-.1-.3-.1-.29-.1-.3-.1-.29-.1-.3-.08-.3-.1-.29-.09-.3-.09-.3-.08-.3-.1-.3-.08-.3-.08-.3-.08-.3-.08-.3-.08-.31-.08-.31-.08-.3-.07-.31-.08-.31-.07-.31-.07-.31-.07-.31-.07-.31-.07-.31-.06-.32-.06-.3-.07-.32-.06-.32-.06-.31-.05-.32-.06-.32-.06-.31-.05-.32-.05-.32-.05-.32-.05-.32-.05-.32-.04-.32-.05-.33-.04-.32-.04-.32-.04-.33-.04-.32-.03-.33-.04-.32-.03-.33-.04-.33-.03-.32-.02-.33-.03-.33-.03-.33-.02-.33-.02-.33-.02-.33-.02-.33-.02-.34-.02-.33-.01-.33-.01-.34-.02-.33v-.33l-.01-.34-.01-.34v-2.36l.01-.33v-.34l.02-.34.01-.33.01-.34.02-.33.02-.34.01-.33.02-.33.03-.33.02-.33.02-.34.03-.33.03-.33.03-.32.03-.33.03-.33.04-.33.03-.32.04-.33.04-.33.04-.32.04-.32.04-.33.05-.32.04-.32.05-.32.05-.32.05-.32.05-.32.06-.32.05-.32.06-.32.06-.31.06-.32.06-.31.06-.32.07-.31.06-.31.07-.32.07-.3.07-.32.07-.3.07-.32.08-.3.07-.31.08-.3.08-.31.08-.3.08-.31.08-.3.09-.3.08-.3.1-.3.08-.3.09-.3.09-.3.1-.3.09-.3.1-.3.09-.29.1-.29.1-.3.1-.28.1-.3.1-.28.1-.3.11-.28.1-.29.12-.28.1-.29.12-.28.11-.29.11-.28.12-.28.12-.28.11-.28.12-.28.12-.27.12-.28.13-.28.12-.27.13-.27.12-.27.13-.28.13-.27.13-.26.13-.27.13-.27.13-.27.14-.26.14-.26.13-.27.14-.26.14-.26.14-.26.14-.25.15-.26.14-.26.15-.25.14-.26.15-.25.15-.25.15-.25.15-.25.15-.25.16-.24.15-.25.16-.24.15-.24.16-.25.16-.24.16-.24.16-.23.17-.24.16-.24.16-.23.17-.23.17-.24.16-.23.17-.23.17-.22.17-.23.18-.23.17-.22.17-.22.18-.22.18-.22.17-.22.18-.22.18-.22.18-.21.18-.22.18-.2.08-.1.1-.12.2-.2.18-.22.18-.2.2-.2.18-.21.19-.2.19-.2.2-.2.18-.2.2-.2.2-.2.19-.19.2-.2.19-.18.2-.2.2-.18.2-.19.2-.18.2-.18.2-.19.2-.18.21-.18.2-.17.21-.18.2-.17.22-.18.2-.17.22-.17.2-.17.22-.16.21-.17.21-.16.22-.16.21-.17.22-.15.22-.16.21-.16.22-.15.22-.15.22-.15.22-.15.22-.15.23-.15.22-.14.22-.14.23-.14.22-.14.23-.14.23-.14.22-.13.23-.13.23-.13.23-.13.23-.13.23-.12.24-.13.23-.12.23-.12.24-.12.23-.11.24-.12.24-.11.23-.11.24-.11.24-.1.24-.11.24-.1.24-.11.24-.1.24-.1.25-.1.24-.09.24-.1.25-.08.24-.1.25-.08.25-.08.24-.09.25-.08.25-.08.25-.08.25-.07.25-.07.25-.08.25-.07.25-.06.26-.07.25-.06.25-.06.26-.06.25-.06.26-.06.25-.05.26-.05.25-.05.26-.05.26-.04.26-.05.26-.04.26-.04.25-.04.26-.03.27-.03.26-.03.26-.03.26-.03.26-.03.26-.02.27-.02.26-.02.26-.01.27-.02h.26l.27-.02h.26l.27-.01h.8l.24-.02h.03z"/></g><g><path d="M282.29 75.8a3.09 3.09 0 00-1.36-4.16l-5.52-2.8a3.09 3.09 0 00-4.15 1.37l-82.64 163.18a3.09 3.09 0 001.36 4.15l5.5 2.8a3.1 3.1 0 004.16-1.37L282.29 75.8z" fill="#bb711b"/><path d="M282.69 77.78l-18.32 36.58-44.11 88.05-18.8 37.5-.06.1-.06.12-.07.11-.07.11-.07.11-.07.1-.08.11-.08.1-.08.1-.08.1-.08.1-.1.09-.08.09-.1.08-.08.09-.1.08-.1.08-.1.08-.1.07-.1.08-.1.06-.1.07-.1.07-.12.06-.1.06-.11.05-.12.06-.1.05-.12.05-.12.04-.11.04-.12.04-.11.04-.12.04-.12.03-.12.03-.12.02-.12.03-.12.02-.13.01-.12.02h-.12l-.13.02h-.62l-.13-.02-.12-.01-.13-.02-.12-.01-.13-.03-.12-.02-.13-.03-.12-.03-.13-.04-.12-.04-.12-.04-.13-.04-.12-.05-.12-.05-.12-.06-.1-.05-5.55-2.78-.1-.06-.12-.06-.12-.07-.1-.07-.12-.07-.1-.07-.1-.08-.11-.08-.1-.08-.1-.08-.1-.09-.09-.09-.09-.09-.09-.09-.08-.1-.09-.09-.08-.1-.08-.1-.07-.1-.07-.1-.07-.1-.07-.1-.07-.11-.06-.11-.06-.11-.06-.11-.05-.11-.05-.12-.05-.11-.05-.12-.04-.11-.04-.12-.04-.12-.03-.12-.03-.12-.03-.12-.03-.12-.02-.12-.02-.12-.02-.13-.01-.12-.01-.13-.01-.12v-.13l-.01-.12v-.25l.01-.13v-.03l.01-.1.01-.12.02-.13.02-.13.02-.12.03-.13.03-.13.03-.12.03-.13.04-.12.04-.13.05-.12.05-.12.05-.12.06-.12.05-.11 23.8-47.43 20.89-41.55 8.38-16.65 6.6-13.07 2.8-5.48 2.76-5.38 5.38-10.33 9.62-18.09 2.75-5.06.05-.1.06-.1.07-.11.07-.1.06-.1.08-.1.07-.1.07-.1.08-.08.08-.1.08-.08.09-.09.08-.08.09-.08.09-.08.09-.07.09-.07.1-.07.09-.07.1-.07.09-.06.1-.06.1-.06.1-.05.1-.06.1-.05.1-.04.11-.05.11-.04.1-.04.12-.04.1-.03.11-.04.11-.03.11-.02.12-.03.1-.02.12-.02.11-.01.12-.02h.11l.12-.02h.57l.11.01.12.02.11.01.12.02.11.02.12.02.11.03.12.02.1.04.12.03.11.04.11.04.12.04.1.05.11.05.11.05.1.05 3.71 2.02 1.73.95.1.05.1.06.1.06.09.06.1.07.08.07.1.06.08.07.08.08.09.07.08.08.08.08.07.08.08.08.07.08.07.08.06.09.07.09.06.08.06.1.06.08.06.1.05.09.05.1.05.09.04.1.05.1.04.1.04.09.03.1.04.1.03.1.03.1.03.1.02.1.02.11.02.1.02.1.01.11.02.1v.11l.01.11v.53l-.01.1-.01.11-.02.11-.01.1-.02.11-.02.1-.03.11-.03.1-.03.11-.03.1-.03.11-.04.1-.04.1-.05.1-.04.1-.05.1-.05.09-.71 1.44zm-1.48-2.64l.02-.04.01-.05.01-.04.01-.05.02-.04v-.05l.02-.04v-.09l.01-.04v-.05l.01-.04v-.3l-.01-.05v-.04l-.02-.04v-.04l-.01-.05-.02-.04v-.04l-.02-.04-.01-.04-.02-.04-.01-.04-.02-.04-.01-.04-.02-.04-.02-.03-.02-.04-.02-.04-.02-.04-.02-.03-.03-.04-.02-.03-.03-.03-.02-.04-.03-.03-.02-.03-.03-.03-.03-.03-.03-.03-.03-.03-.03-.03-.03-.03-.03-.02-.04-.03-.03-.03-.03-.02-.04-.02-.04-.03-.03-.02-.04-.02-.04-.02-.04-.02-.03-.02-.05-.02-1.79-.83-3.8-1.78-.04-.02-.03-.02h-.04l-.04-.02-.03-.01-.04-.01-.03-.01h-.04l-.03-.02h-.08l-.03-.01h-.35l-.03.01h-.04l-.03.01-.04.01h-.03l-.03.02h-.04l-.03.02-.03.01-.03.01-.03.02-.04.01-.03.01-.03.02-.03.02-.03.01-.03.02-.02.02-.03.02-.03.02-.03.02-.02.02-.03.02-.03.02-.02.02-.02.02-.03.03-.02.02-.02.03-.03.02-.02.03-.02.02-.02.03-.02.03-.02.03-.01.02-.02.03-.02.03-.02.03-.01.03-.02.04-.02.04-2.45 5.2-8.9 18.47-5.14 10.45-2.7 5.4-2.76 5.5-6.63 13.05-8.45 16.6-21.13 41.4-24.15 47.25-.02.04v.02l-.02.02v.03l-.02.02v.02l-.01.03v.02l-.02.02v.05l-.01.02v.05l-.01.02v.26l.01.03v.02l.01.02v.03l.01.02.01.02v.03l.02.02v.02l.01.02.01.03.01.02.01.02.01.02.02.02v.02l.02.02.01.02.02.02.01.02.02.02.01.02.02.02.01.02.02.01.02.02.01.02.02.01.02.02.02.02.02.01.02.02.02.01.02.01.02.02.02.01.02.02.04.01 5.48 2.8.03.02.03.02h.02l.03.02h.02l.02.01.03.01.02.01h.03l.02.01h.03l.02.01h.03l.02.01H197.08l.03-.01h.02l.03-.02h.04l.03-.02h.02l.03-.01.02-.01.02-.01.03-.02h.02l.02-.02.02-.01.02-.01.02-.02.03-.01.02-.01.02-.02.02-.01.02-.02.02-.02.01-.01.02-.02.02-.02.02-.02.01-.01.02-.02.02-.02.01-.02.02-.02.01-.03.02-.02.01-.02.02-.02.01-.03.02-.03 19.1-37.34 44.88-87.65 18.65-36.4.72-1.4.02-.07.02-.04z"/><path d="M354.38 123.24L197.8 38.84l-37.44 69.46 156.57 84.4 37.44-69.46z" fill="#fff"/><path d="M203 109.73a21.22 21.22 0 01-5.15-3.73 14.27 14.27 0 01-2.95-4.24c-.65-1.48-.97-3-.97-4.55 0-1.56.25-3.12.78-4.7l6 3.23c-.26 1-.4 1.98-.4 2.96a7.67 7.67 0 001.9 5.31 9.28 9.28 0 002.67 2.06c.74.4 1.51.72 2.32.95.8.23 1.58.32 2.34.28a4.6 4.6 0 002.12-.64 4.5 4.5 0 001.64-1.81c.57-1.06.8-2.14.7-3.24-.1-1.1-.4-2.22-.93-3.37a22.97 22.97 0 00-2.02-3.5c-.82-1.18-1.66-2.39-2.52-3.6a91.06 91.06 0 01-2.48-3.7c-.79-1.25-1.41-2.5-1.87-3.77a11.32 11.32 0 01-.7-3.83c0-1.28.35-2.57 1.04-3.86a9.61 9.61 0 013.02-3.4c1.26-.88 2.7-1.44 4.34-1.69a15.1 15.1 0 015.39.25c1.95.4 4 1.19 6.15 2.35 1.79.96 3.27 2.07 4.44 3.34a14.97 14.97 0 012.72 4.07 13.86 13.86 0 011.16 4.5c.13 1.57.03 3.13-.3 4.68L226 87.15c.14-1.02.2-2.02.2-3s-.15-1.93-.45-2.83a7.7 7.7 0 00-1.47-2.57 9.6 9.6 0 00-2.83-2.17 9.09 9.09 0 00-3.1-1.1 6.38 6.38 0 00-2.48.12c-.73.2-1.34.52-1.85.98-.51.45-.91.95-1.2 1.5-.51.93-.7 1.94-.56 3 .14 1.07.5 2.18 1.06 3.33a30.25 30.25 0 002.1 3.55L218 91.7a92.17 92.17 0 012.55 3.83 21.43 21.43 0 011.94 3.88c.49 1.3.75 2.58.77 3.85a7.45 7.45 0 01-.94 3.75 10.32 10.32 0 01-3.05 3.52 10.4 10.4 0 01-4.37 1.8c-1.66.3-3.5.24-5.5-.17-2-.4-4.14-1.22-6.39-2.43zM243.71 113.17c-.95-.08-1.95-.12-2.97-.1-1.03 0-2.01.1-2.94.27a9.1 9.1 0 00-2.46.81c-.73.37-1.26.88-1.6 1.53a5.87 5.87 0 00-.59 1.55 4.72 4.72 0 00-.1 1.49c.06.46.17.87.36 1.22.18.36.43.62.77.8.64.35 1.41.5 2.32.47.9-.04 1.92-.14 3.06-.32l4.15-7.72zm.71 18.13l-8.11-4.36 1.15-2.13c-.65.14-1.28.25-1.88.33a9.46 9.46 0 01-3.95-.33 13.82 13.82 0 01-5.49-3.37 8.3 8.3 0 01-1.72-2.8c-.36-.99-.49-2-.4-3.04.1-1.04.4-2.05.92-3.02a7.23 7.23 0 012.07-2.45 8.9 8.9 0 012.78-1.37c1.03-.3 2.14-.47 3.32-.52 1.19-.04 2.41 0 3.68.12 1.26.13 2.55.3 3.85.54l3.85.7 1 .28 1.42-2.66c.46-.84.76-1.6.9-2.3.15-.68.17-1.3.07-1.83-.11-.54-.34-1-.69-1.4-.35-.41-.8-.76-1.34-1.05a5.14 5.14 0 00-1.75-.62 2.9 2.9 0 00-2.52.82c-.32.32-.6.7-.82 1.12-.28.51-.6.97-.95 1.38a3.27 3.27 0 01-2.8 1.18 5.01 5.01 0 01-2-.66 5.08 5.08 0 01-1.41-1.1 3.8 3.8 0 01-.57-4.38 4.57 4.57 0 012.32-2.06 9.32 9.32 0 013.64-.68c1.38 0 2.85.2 4.43.64 1.57.42 3.13 1.06 4.68 1.9a23.19 23.19 0 014.65 3.16 11.62 11.62 0 012.62 3.3c.55 1.1.8 2.22.76 3.35a7.76 7.76 0 01-.97 3.35l-10.74 19.96zM259.75 139.55l-8.01-4.31L271.8 97.9l9.21 2.08-21.27 39.56zM278.33 150.3a15.41 15.41 0 01-4.78-3.92 16.15 16.15 0 01-2.83-5.18c-.6-1.86-.83-3.77-.69-5.73.14-1.96.68-3.82 1.62-5.57 1.13-2.1 2.51-3.87 4.14-5.31a15.84 15.84 0 015.3-3.16c1.92-.66 3.93-.9 6.03-.74 2.1.17 4.2.82 6.28 1.94 1.85 1 3.4 2.2 4.63 3.62a13.48 13.48 0 012.66 4.57 12.57 12.57 0 01-.86 9.94l-18.45-9.92a20.48 20.48 0 00-1.64 4.56c-.35 1.54-.48 2.99-.4 4.35.07 1.36.37 2.57.89 3.63a5.35 5.35 0 002.31 2.41c.9.48 1.86.8 2.88.96a10.4 10.4 0 005.95-.84c.92-.43 1.7-.97 2.38-1.63l3.81 2.84a14.9 14.9 0 01-4.18 3c-1.6.78-3.27 1.31-5 1.6-1.74.3-3.48.33-5.23.1a13.81 13.81 0 01-4.82-1.51zm13.7-17.28c.36-.83.58-1.64.66-2.43.07-.79.02-1.53-.15-2.22a4.8 4.8 0 00-2.47-3.22c-.5-.26-1.06-.4-1.67-.41a5 5 0 00-1.89.36 7.1 7.1 0 00-1.9 1.13c-.63.5-1.2 1.14-1.7 1.88l9.12 4.91zM306.42 152.59a152.22 152.22 0 003.88-10.67c.41-1.27.74-2.38 1-3.32.26-.93.53-1.8.8-2.62a31.72 31.72 0 012.23-5.16 8.82 8.82 0 011.71-2.3c.64-.6 1.3-1.05 1.97-1.34a4.9 4.9 0 011.99-.43c.66 0 1.25.15 1.78.43.53.29.98.7 1.34 1.25.37.55.62 1.18.74 1.9.13.72.12 1.51-.03 2.38a8.85 8.85 0 01-.97 2.7 32.16 32.16 0 01-3.08 4.7c-.53.67-1.11 1.38-1.74 2.12a118.65 118.65 0 00-5.11 6.4c-1.1 1.46-2.39 3.26-3.86 5.39l-2.65-1.43zm-5.66 5.11a4.12 4.12 0 012.4-1.99 4.13 4.13 0 014.37 1.36 4.07 4.07 0 01-3.56 6.61 4.22 4.22 0 01-3.55-2.88 3.96 3.96 0 01.34-3.1z" fill="none"/><path d="M203 109.73a21.22 21.22 0 01-5.15-3.73 14.27 14.27 0 01-2.95-4.24c-.65-1.48-.97-3-.97-4.55 0-1.56.25-3.12.78-4.7l6 3.23c-.26 1-.4 1.98-.4 2.96a7.67 7.67 0 001.9 5.31 9.28 9.28 0 002.67 2.06c.74.4 1.51.72 2.32.95.8.23 1.58.32 2.34.28a4.6 4.6 0 002.12-.64 4.5 4.5 0 001.64-1.81c.57-1.06.8-2.14.7-3.24-.1-1.1-.4-2.22-.93-3.37a22.97 22.97 0 00-2.02-3.5c-.82-1.18-1.66-2.39-2.52-3.6a91.06 91.06 0 01-2.48-3.7c-.79-1.25-1.41-2.5-1.87-3.77a11.32 11.32 0 01-.7-3.83c0-1.28.35-2.57 1.04-3.86a9.61 9.61 0 013.02-3.4c1.26-.88 2.7-1.44 4.34-1.69a15.1 15.1 0 015.39.25c1.95.4 4 1.19 6.15 2.35 1.79.96 3.27 2.07 4.44 3.34a14.97 14.97 0 012.72 4.07 13.86 13.86 0 011.16 4.5c.13 1.57.03 3.13-.3 4.68L226 87.15c.14-1.02.2-2.02.2-3s-.15-1.93-.45-2.83a7.7 7.7 0 00-1.47-2.57 9.6 9.6 0 00-2.83-2.17 9.09 9.09 0 00-3.1-1.1 6.38 6.38 0 00-2.48.12c-.73.2-1.34.52-1.85.98-.51.45-.91.95-1.2 1.5-.51.93-.7 1.94-.56 3 .14 1.07.5 2.18 1.06 3.33a30.25 30.25 0 002.1 3.55L218 91.7a92.17 92.17 0 012.55 3.83 21.43 21.43 0 011.94 3.88c.49 1.3.75 2.58.77 3.85a7.45 7.45 0 01-.94 3.75 10.32 10.32 0 01-3.05 3.52 10.4 10.4 0 01-4.37 1.8c-1.66.3-3.5.24-5.5-.17-2-.4-4.14-1.22-6.39-2.43zM243.71 113.17c-.95-.08-1.95-.12-2.97-.1-1.03 0-2.01.1-2.94.27a9.1 9.1 0 00-2.46.81c-.73.37-1.26.88-1.6 1.53a5.87 5.87 0 00-.59 1.55 4.72 4.72 0 00-.1 1.49c.06.46.17.87.36 1.22.18.36.43.62.77.8.64.35 1.41.5 2.32.47.9-.04 1.92-.14 3.06-.32l4.15-7.72zm.71 18.13l-8.11-4.36 1.15-2.13c-.65.14-1.28.25-1.88.33a9.46 9.46 0 01-3.95-.33 13.82 13.82 0 01-5.49-3.37 8.3 8.3 0 01-1.72-2.8c-.36-.99-.49-2-.4-3.04.1-1.04.4-2.05.92-3.02a7.23 7.23 0 012.07-2.45 8.9 8.9 0 012.78-1.37c1.03-.3 2.14-.47 3.32-.52 1.19-.04 2.41 0 3.68.12 1.26.13 2.55.3 3.85.54l3.85.7 1 .28 1.42-2.66c.46-.84.76-1.6.9-2.3.15-.68.17-1.3.07-1.83-.11-.54-.34-1-.69-1.4-.35-.41-.8-.76-1.34-1.05a5.14 5.14 0 00-1.75-.62 2.9 2.9 0 00-2.52.82c-.32.32-.6.7-.82 1.12-.28.51-.6.97-.95 1.38a3.27 3.27 0 01-2.8 1.18 5.01 5.01 0 01-2-.66 5.08 5.08 0 01-1.41-1.1 3.8 3.8 0 01-.57-4.38 4.57 4.57 0 012.32-2.06 9.32 9.32 0 013.64-.68c1.38 0 2.85.2 4.43.64 1.57.42 3.13 1.06 4.68 1.9a23.19 23.19 0 014.65 3.16 11.62 11.62 0 012.62 3.3c.55 1.1.8 2.22.76 3.35a7.76 7.76 0 01-.97 3.35l-10.74 19.96zM259.75 139.55l-8.01-4.31L271.8 97.9l9.21 2.08-21.27 39.56zM278.33 150.3a15.41 15.41 0 01-4.78-3.92 16.15 16.15 0 01-2.83-5.18c-.6-1.86-.83-3.77-.69-5.73.14-1.96.68-3.82 1.62-5.57 1.13-2.1 2.51-3.87 4.14-5.31a15.84 15.84 0 015.3-3.16c1.92-.66 3.93-.9 6.03-.74 2.1.17 4.2.82 6.28 1.94 1.85 1 3.4 2.2 4.63 3.62a13.48 13.48 0 012.66 4.57 12.57 12.57 0 01-.86 9.94l-18.45-9.92a20.48 20.48 0 00-1.64 4.56c-.35 1.54-.48 2.99-.4 4.35.07 1.36.37 2.57.89 3.63a5.35 5.35 0 002.31 2.41c.9.48 1.86.8 2.88.96a10.4 10.4 0 005.95-.84c.92-.43 1.7-.97 2.38-1.63l3.81 2.84a14.9 14.9 0 01-4.18 3c-1.6.78-3.27 1.31-5 1.6-1.74.3-3.48.33-5.23.1a13.81 13.81 0 01-4.82-1.51zm13.7-17.28c.36-.83.58-1.64.66-2.43.07-.79.02-1.53-.15-2.22a4.8 4.8 0 00-2.47-3.22c-.5-.26-1.06-.4-1.67-.41a5 5 0 00-1.89.36 7.1 7.1 0 00-1.9 1.13c-.63.5-1.2 1.14-1.7 1.88l9.12 4.91zM306.42 152.59a152.22 152.22 0 003.88-10.67c.41-1.27.74-2.38 1-3.32.26-.93.53-1.8.8-2.62a31.72 31.72 0 012.23-5.16 8.82 8.82 0 011.71-2.3c.64-.6 1.3-1.05 1.97-1.34a4.9 4.9 0 011.99-.43c.66 0 1.25.15 1.78.43.53.29.98.7 1.34 1.25.37.55.62 1.18.74 1.9.13.72.12 1.51-.03 2.38a8.85 8.85 0 01-.97 2.7 32.16 32.16 0 01-3.08 4.7c-.53.67-1.11 1.38-1.74 2.12a118.65 118.65 0 00-5.11 6.4c-1.1 1.46-2.39 3.26-3.86 5.39l-2.65-1.43zm-5.66 5.11a4.12 4.12 0 012.4-1.99 4.13 4.13 0 014.37 1.36 4.07 4.07 0 01-3.56 6.61 4.22 4.22 0 01-3.55-2.88 3.96 3.96 0 01.34-3.1z" fill="#d71a00" fill-rule="nonzero"/><path d="M355.59 122.16l.17.23.12.25.09.27.03.28-.02.28-.06.28-.12.26-1 1.88-25.89 48.55-10.23 19.18-.2.3-.22.24-.28.21-.3.16-.33.1-.35.05-.34-.02-.34-.08-.32-.13-91.52-48.83-65.4-34.92-.4-.26-.35-.32-.1-.14-.18-.24-.22-.43-.14-.46-.06-.47.03-.48.1-.47.2-.44 33.49-62.65 3.7-6.92.26-.4.31-.36.37-.3.4-.24.45-.17.46-.1.48-.03.47.04.46.12.44.2L241 58.5l21.6 11.58 16.95 9.13 7.11 3.85 6.98 3.81 13.4 7.42 23.47 13.25 16.89 9.73 7.38 4.32.37.21.23.16.2.2zM194.48 51.34l-.14-.29-30.25 56.14h-.01l1.34.72h-.01l62.21 33.87-.28.36 88.8 47.87v.02l11.16-20.5 24.7-45.3.15-.28-6.36-3.15-16.85-8.45-23.08-11.84-13.03-6.83-6.76-3.58-6.86-3.68-16.35-8.84-20.8-11.27-.03-.19-43-23.17v-.01l-4.55 8.4z"/></g></svg>