<svg viewBox="0 0 561 341" xmlns="http://www.w3.org/2000/svg" fill-rule="evenodd" clip-rule="evenodd" stroke-linejoin="round" stroke-miterlimit="1.41"><path fill="none" d="M.49.02h560v340H.49z"/><ellipse cx="237.24" cy="299.95" rx="19.38" ry="13.29" fill="#b8b8b8"/><path d="M237 287.9l-.16.01h-.08l-.24.01-.24.02-.23.01-.24.02-.23.01-.24.02-.23.02-.23.03-.23.02-.23.03-.23.03-.22.03-.23.03-.23.04-.22.04-.22.03-.22.05-.22.04-.22.04-.22.05-.22.04-.21.05-.22.05-.2.06-.22.05-.21.06-.21.05-.2.06-.21.07-.2.06-.21.06-.2.07-.2.07-.2.06-.2.07-.2.08-.2.07-.18.08-.2.07-.19.08-.18.08-.19.08-.18.08-.19.09-.18.08-.1.05-.08.04-.18.08-.17.1-.18.08-.17.1-.17.09-.17.1-.17.09-.16.1-.17.1-.16.1-.16.1-.15.1-.16.1-.15.1-.16.1-.15.1-.14.11-.15.11-.14.11-.14.11-.14.11-.14.11-.14.12-.13.1-.13.12-.13.12-.13.11-.12.12-.12.12-.12.12-.12.12-.12.12-.1.12-.12.12-.1.12-.11.13-.1.12-.11.12-.1.13-.1.12-.1.13-.08.13-.1.12-.08.13-.09.13-.08.13-.08.13-.08.13-.07.13-.07.13-.08.13-.06.13-.07.13-.06.13-.06.14-.06.13-.06.13-.05.14-.05.13-.05.13-.05.14-.04.13-.04.14-.04.13-.04.14-.03.14-.02.06-.01.07-.02.07-.01.07-.01.07-.02.06-.01.07-.01.07-.01.07-.01.07-.01.07-.01.07-.01.07v.07l-.01.06-.01.07v.07l-.01.07v.07l-.01.07v.14l-.01.07v.56l.01.07v.07l.01.07v.07l.01.07v.07l.02.07v.07l.01.07.01.06.01.07.01.07.01.07.02.07v.07l.02.06.02.07v.07l.02.06.02.07.02.07.01.07.02.06.02.07.02.06.04.14.04.13.04.13.05.14.05.13.05.13.05.13.05.13.06.13.06.13.07.12.06.13.07.13.07.13.07.12.07.13.08.12.08.13.08.12.09.13.08.12.09.12.09.12.1.12.09.12.1.12.1.12.1.12.1.12.1.12.12.11.1.12.12.11.11.12.12.11.12.11.12.11.13.11.12.11.13.11.13.11.13.1.14.11.13.1.14.11.14.1.13.1h.01l.15.11.14.1.15.1.15.1.15.1.16.09.15.1.16.09.16.09.16.09.16.09.17.09.16.08.17.09.17.08.17.09.18.08.17.08.18.08.18.08.18.07.18.08.18.07.19.08.18.07.19.07.19.06.19.07.19.06.2.07.19.06.2.06.2.06.2.06.2.05.2.05.2.06.2.05.2.05.21.04.2.05.22.04.2.04.22.05.21.03.21.04.22.04.21.03.22.03.22.03.22.03.22.02.22.03.22.02.22.02.23.02.22.02.22.01.23.02h.23l.22.02h.46l.23.01h.93l.23-.01.23-.01.23-.01.23-.01.22-.02.23-.02.23-.01.22-.02.23-.03.22-.02.22-.03.22-.02.22-.03.22-.03.22-.04.21-.03.22-.04.21-.04.22-.04.2-.04.22-.04.2-.05.22-.04.2-.05.21-.05.2-.05.2-.06.21-.05.2-.06.2-.06.2-.06.2-.06.19-.06.2-.07.18-.06.2-.07.18-.07.19-.07.19-.07.18-.07.18-.08.18-.07.18-.08.18-.08.18-.08.17-.08.17-.08.17-.09.17-.08.17-.09.17-.08.16-.1.16-.08.16-.1.16-.08.16-.1.15-.1.15-.09.15-.1.13-.07.02-.02.15-.1.14-.1.15-.1.14-.1.14-.1.13-.1.14-.1.13-.1.13-.11.13-.1.13-.12.12-.1.12-.11.12-.11.12-.11.12-.11.1-.11.12-.11.1-.12.12-.1.1-.12.1-.12.1-.1.1-.12.1-.12.09-.12.09-.11.09-.12.08-.12.09-.11.08-.12.08-.12.08-.12.07-.12.07-.12.07-.12.07-.12.07-.12.06-.12.06-.12.06-.12.05-.12.06-.12.05-.12.05-.12.05-.12.04-.12.04-.13.04-.12.04-.12.04-.12.03-.12.03-.13.02-.06v-.06l.02-.06.02-.06v-.06l.02-.07.01-.06.01-.06.01-.06.01-.06.01-.06v-.07l.02-.06v-.06l.01-.06v-.07l.01-.06v-.06l.01-.06v-.13l.01-.06V299.57l-.01-.06v-.06l-.01-.06v-.07l-.02-.06v-.06l-.01-.06-.01-.06V299l-.02-.06v-.06l-.02-.06-.01-.06-.01-.06-.01-.06-.02-.06-.01-.07-.01-.06-.02-.06-.01-.06-.02-.06-.01-.05-.04-.13-.04-.12-.03-.12-.05-.12-.04-.12-.04-.12-.05-.12-.05-.12-.05-.12-.06-.12-.05-.11-.06-.12-.06-.12-.07-.12-.04-.08-.02-.03-.07-.12-.07-.12-.07-.12-.07-.11-.08-.12-.08-.11-.08-.12-.08-.11-.08-.12-.1-.11-.08-.12-.1-.1-.09-.12-.1-.11-.1-.12-.1-.1-.1-.12-.1-.1-.1-.12-.12-.1-.1-.1-.01-.01-.11-.11-.12-.11-.11-.1-.12-.12-.12-.1-.13-.1-.12-.11-.13-.1-.04-.04-.09-.07-.13-.1-.13-.11-.13-.1-.14-.1-.14-.1-.14-.1-.14-.1-.04-.03-.1-.08-.15-.1-.14-.1-.15-.1-.15-.1-.15-.1-.16-.1-.15-.09-.16-.1-.16-.09-.16-.1-.17-.08-.16-.1-.17-.08-.15-.08-.02-.01-.17-.1-.17-.09-.17-.09-.18-.09-.17-.08-.18-.09-.18-.09-.18-.08-.18-.08-.19-.09-.19-.08-.18-.08-.2-.07-.19-.08-.2-.08-.19-.07-.2-.07-.2-.07-.2-.07-.2-.07-.2-.07-.2-.06-.2-.06-.15-.05-.06-.02-.21-.07-.21-.06-.21-.07-.21-.06-.22-.06-.21-.06-.22-.06-.22-.06-.22-.05-.22-.05-.22-.05-.23-.05-.22-.05-.23-.05-.23-.04-.2-.04h-.03l-.23-.05-.23-.04-.24-.05-.23-.04-.24-.04-.23-.03-.17-.03H237zm.5-2.52l.26-.03.26-.03.26-.03.26-.02.26-.02.26-.02h.04l.22-.01h.26l.26-.01h1.28l.26.01.25.01.26.01.25.02.25.02.26.02.25.02.25.02h.07l.18.03.24.04.25.04.25.04.24.04.25.04.24.05.24.05.24.05.24.05.24.06.24.05.23.06.24.06.23.07.24.06.23.07.23.07.23.07.23.07.22.08.23.08.22.08.23.08.03.01.19.08.21.09.22.1.21.09.22.1.2.1.22.1.2.1.21.1.2.11.2.11.21.11.2.12.2.11.15.09.04.03.2.12.19.12.19.13.18.13.19.13.18.13.18.13.13.1.05.03.17.14.18.14.17.14.17.15.16.14.17.15.16.15.16.15.02.01.14.14.15.16.15.15.15.16.15.16.14.16.15.17.14.16.13.17.14.17.13.17.13.17.12.17.13.18.12.17.12.18.11.18.12.18.1.18.11.19.1.18.03.06.08.13.1.19.09.2.09.18.09.2.08.19.09.2.07.2.08.2.07.2.07.2.06.2.06.2.06.2.05.2.03.11.03.1.02.1.02.11.02.1.03.11.02.1.02.11.01.1.02.11.02.1.01.11.02.1.01.11.01.11.02.1v.11l.02.11v.1l.01.12v.1l.01.11v.11l.01.1v.87l-.01.11v.11l-.01.1-.01.12-.01.1-.01.1-.01.12-.01.1-.02.1-.01.12-.02.1-.01.1-.02.11-.02.1-.02.11-.02.1-.02.11-.02.1-.02.1-.03.11-.02.1-.03.1-.02.11-.03.1-.06.2-.06.21-.06.2-.07.2-.07.2-.08.2-.07.2-.08.19-.09.2-.09.18-.09.2-.09.18-.1.2-.1.18-.1.18-.1.18-.11.19-.11.18-.12.17-.12.18-.11.17-.13.18-.12.17-.13.17-.13.17-.13.17-.14.16-.14.16-.14.17-.14.16-.15.15-.14.16-.15.16-.16.15-.15.15-.16.15-.16.15-.16.15-.16.14-.17.15-.16.14-.17.14-.18.14-.17.13-.18.14-.18.13-.18.13-.18.13-.18.13-.19.13-.19.12-.19.12-.19.13-.03.01-.16.1-.2.12-.2.12-.2.11-.2.11-.2.11-.2.11-.2.1-.21.11-.21.1-.21.1-.22.1-.21.1-.22.1-.21.09-.22.1-.22.08-.22.09-.23.09-.22.08-.23.08-.23.08-.22.08-.23.08-.24.07-.23.07-.23.07-.24.07-.24.07-.23.06-.24.07-.25.06-.24.06-.24.05-.24.06-.25.05-.25.05-.25.05-.24.05-.25.04-.26.04-.25.04-.25.04-.25.04-.26.03-.26.03-.25.03-.26.03-.26.02-.26.02-.26.02-.26.02-.27.02-.26.01-.26.01-.27.01-.26.01h-1.61l-.27-.02h-.26l-.27-.02-.26-.02-.27-.02-.26-.02-.26-.02-.26-.03-.26-.03-.26-.03-.26-.03-.25-.03-.26-.04-.25-.04-.26-.04-.25-.04-.25-.04-.25-.05-.25-.05-.24-.05-.25-.05-.25-.06-.24-.05-.24-.06-.24-.06-.24-.07-.24-.06-.24-.07-.23-.07-.24-.07-.23-.07-.23-.08-.23-.07-.23-.08-.23-.08-.23-.08-.22-.09-.22-.08-.22-.09-.22-.09-.22-.09-.22-.1-.21-.09-.22-.1-.2-.1-.22-.1-.2-.1-.21-.1-.2-.1-.21-.1-.2-.12-.2-.1-.2-.12-.2-.11-.2-.12-.18-.11-.2-.12-.18-.12-.19-.12-.18-.13-.19-.12-.18-.13-.18-.12-.17-.13-.18-.14h-.01l-.16-.13-.17-.13-.17-.14-.17-.14-.16-.14-.16-.14-.16-.14-.16-.14-.16-.15-.15-.14-.15-.15-.15-.15-.14-.15-.15-.15-.14-.16-.14-.15-.14-.16-.13-.16-.13-.16-.13-.16-.13-.16-.12-.17-.12-.16-.12-.17-.12-.17-.11-.16-.11-.17-.11-.18-.1-.17-.1-.17-.1-.18-.1-.18-.1-.17-.09-.18-.09-.18-.08-.19-.08-.18-.08-.18-.08-.19-.07-.19-.07-.18-.06-.2-.07-.18-.06-.2-.05-.18-.05-.2-.05-.19-.03-.1-.02-.1-.02-.1-.02-.09-.02-.1-.02-.1-.02-.1-.02-.1-.01-.1-.02-.09-.01-.1-.02-.1-.01-.1-.01-.1-.01-.1-.01-.1-.01-.1-.01-.1v-.1l-.01-.1-.01-.1v-.2l-.01-.1v-.71l.01-.1v-.1l.01-.1.01-.1v-.1l.02-.1v-.1l.02-.1.01-.1.01-.1.02-.1.01-.1.02-.1.02-.1.01-.1.02-.1.02-.1.02-.1.02-.09.02-.1.03-.1.02-.09.02-.1.03-.1.03-.1.05-.18.06-.19.06-.19.06-.18.07-.19.07-.18.07-.19.08-.18.08-.18.08-.18.09-.18.09-.18.09-.17.1-.18.1-.17.1-.17.1-.17.1-.17.11-.17.11-.17.12-.16.11-.16.12-.17.12-.16.13-.15.12-.16.13-.16.14-.15.13-.16.14-.15.13-.15.15-.15.14-.14.15-.15.14-.14.15-.14.16-.15.15-.13.16-.14.16-.14.16-.13.16-.14.17-.13.16-.13.17-.13.17-.12.18-.13.17-.12.18-.12.18-.12.18-.12.18-.12.19-.12.18-.1.2-.12.18-.11.2-.1.19-.12.2-.1.19-.1.2-.1.2-.1.2-.1.2-.1.21-.1.2-.1.1-.03.12-.05.2-.1.22-.08.21-.09.22-.08.21-.08.22-.08.22-.08.22-.08.22-.07.22-.08.23-.07.23-.07.22-.07.23-.06.23-.06.23-.07.23-.06.24-.05.23-.06.24-.05.24-.06.24-.05.23-.04.25-.05.24-.05.24-.04.24-.04.25-.03.24-.04.25-.03.25-.04.25-.03.25-.02.25-.03.25-.02.25-.02.26-.02.25-.02.26-.01.25-.02h.26l.26-.01h.26l.25-.01h.79l.09-.01.17-.02z"/><ellipse cx="283.17" cy="300.07" rx="19.38" ry="13.29" fill="#b8b8b8"/><path d="M282.93 288.02h-.15l-.08.01-.24.01-.24.01-.24.02-.23.01-.24.02-.23.02-.23.02-.23.02-.23.03-.23.03-.23.03-.23.03-.22.03-.23.04-.22.03-.22.04-.23.04-.22.04-.22.05-.21.04-.22.05-.22.05-.2.05-.22.05-.21.06-.21.05-.21.06-.21.06-.2.06-.21.06-.2.07-.2.06-.2.07-.2.07-.2.07-.2.07-.2.08-.19.07-.19.08-.19.08-.19.07-.18.09-.19.08-.18.08-.18.09-.1.05-.08.03-.18.1-.18.08-.17.09-.17.1-.17.08-.17.1-.17.1-.16.09-.17.1-.16.1-.16.1-.16.1-.15.1-.16.1-.15.1-.15.11-.15.11-.14.1-.14.12-.15.1-.14.12-.13.1-.14.12-.13.11-.13.12-.13.12-.13.11-.12.12-.12.12-.12.11-.12.12-.12.12-.11.12-.11.13-.11.12-.1.12-.11.13-.1.12-.1.13-.1.12-.1.13-.09.12-.09.13-.08.13-.09.13-.08.12-.08.13-.08.13-.07.13-.08.13-.07.13-.07.14-.06.13-.07.13-.06.13-.05.14-.06.13-.05.13-.05.14-.05.13-.05.13-.04.14-.04.13-.04.14-.04.13-.03.14-.02.07-.01.07-.02.07-.01.06-.02.07-.01.07-.01.07-.01.07-.01.07-.01.06-.01.07-.01.07-.01.07-.01.07v.07l-.01.07-.01.07v.07l-.01.07v.14l-.01.07V300.35l.01.07v.07l.01.07v.06l.02.07v.07l.01.07.01.07.01.07v.07l.02.07.01.06.01.07.02.07v.07l.02.07.02.06.01.07.02.07.01.07.02.06.02.07.02.07.01.06.04.14.04.13.05.13.04.13.05.13.05.13.06.13.05.13.06.13.06.13.06.13.07.13.07.12.07.13.07.13.07.12.08.13.08.12.08.13.08.12.09.13.09.12.09.12.09.12.1.12.1.12.1.12.1.12.1.12.1.11.11.12.11.12.12.1.11.12.12.12.12.1.12.12.12.11.13.11.13.1.13.12.13.1.13.11.14.1.14.1.14.11.13.1h.01l.15.1.14.1.15.1.15.1.15.1.15.1.16.09.16.1.16.08.16.1.16.09.17.08.16.09.17.09.17.08.17.08.17.09.18.08.18.08.17.07.18.08.19.08.18.07.18.07.19.07.19.07.19.07.19.07.19.06.2.06.19.07.2.06.19.05.2.06.2.06.2.05.2.05.2.05.21.05.2.05.22.05.2.04.22.04.2.04.22.04.21.04.22.03.21.04.22.03.22.03.22.03.21.02.23.03.22.02.22.02.22.02.23.01.22.02.23.01.22.01.23.01h.23l.23.01h1.39l.23-.01.23-.02h.22l.23-.02.23-.02.22-.02.23-.02.22-.02.23-.02.22-.03.22-.03.22-.03.22-.03.22-.03.21-.03.22-.04.21-.04.21-.04.22-.04.2-.05.22-.04.2-.05.21-.05.2-.05.21-.05.2-.05.2-.06.2-.05.2-.06.2-.06.2-.06.2-.07.19-.06.19-.07.2-.06.18-.07.19-.07.18-.07.19-.08.18-.07.18-.08.18-.07.18-.08.17-.08.18-.08.17-.09.17-.08.17-.08.17-.09.16-.09.17-.09.16-.08.16-.1.16-.09.15-.1.16-.08.15-.1.15-.1.13-.08.02-.01.15-.1.14-.1.14-.1.15-.1.13-.1.14-.1.14-.1.13-.11.13-.1.13-.11.12-.11.13-.1.12-.12.12-.1.12-.11.11-.11.12-.12.1-.1.12-.12.1-.11.1-.12.1-.1.1-.12.1-.12.1-.11.1-.12.09-.12.08-.11.1-.12.07-.12.09-.12.08-.11.07-.12.08-.12.07-.12.07-.12.07-.12.06-.12.07-.12.06-.12.05-.12.06-.12.05-.12.06-.12.05-.12.04-.13.05-.12.04-.12.04-.12.04-.12.03-.13.04-.12.03-.13.01-.05.02-.06.01-.07.01-.06.02-.06v-.06l.02-.06v-.06l.02-.07v-.06l.02-.06v-.06l.01-.06.01-.07v-.06l.02-.06v-.12l.01-.07v-.12l.01-.06V299.75l-.01-.06v-.06l-.01-.07v-.06l-.01-.06v-.06l-.02-.06v-.07l-.01-.06-.01-.06-.01-.06-.01-.06-.01-.06-.01-.07-.01-.06-.02-.06-.01-.06-.01-.06-.02-.06-.01-.06-.02-.06-.01-.06-.02-.06-.03-.12-.04-.12-.04-.12-.04-.12-.04-.12-.05-.12-.04-.12-.05-.12-.06-.12-.05-.12-.06-.12-.05-.12-.07-.11-.06-.12-.05-.09-.01-.03-.07-.12-.07-.11-.07-.12-.07-.12-.08-.11-.08-.12-.08-.11-.08-.12-.09-.11-.08-.12-.1-.11-.09-.11-.1-.12-.09-.1-.1-.12-.1-.11-.1-.11-.1-.11-.11-.11-.11-.1-.1-.1-.01-.02-.11-.1-.12-.11-.12-.11-.11-.11-.13-.1-.12-.11-.12-.1-.13-.11-.04-.03-.09-.08-.13-.1-.13-.1-.14-.1-.13-.11-.14-.1-.14-.1-.14-.1-.04-.03-.1-.07-.15-.1-.15-.1-.14-.1-.15-.1-.16-.1-.15-.1-.16-.1-.16-.09-.16-.1-.16-.08-.16-.1-.17-.09-.16-.08-.15-.08-.02-.01-.17-.1-.17-.09-.17-.09-.18-.09-.18-.09-.17-.08-.18-.09-.18-.08-.19-.09-.18-.08-.19-.08-.19-.08-.19-.08-.19-.07-.2-.08-.19-.07-.2-.08-.2-.07-.2-.07-.2-.06-.2-.07-.2-.06-.21-.07-.15-.04-.06-.02-.2-.07-.21-.06-.21-.07-.22-.06-.21-.06-.22-.06-.21-.06-.22-.06-.22-.05-.22-.06-.23-.05-.22-.05-.23-.04-.22-.05-.23-.04-.2-.04h-.03l-.23-.05-.23-.05-.24-.04-.23-.04-.24-.04-.24-.04-.16-.02-.08-.01h-.24zm.5-2.53l.27-.03.26-.02.26-.03.26-.02.26-.02.26-.02h.04l.22-.01.26-.01h.26l.25-.01h1.03l.26.02h.25l.25.02.26.01.25.02.25.02.25.02.25.03h.08l.17.03.25.03.25.04.24.04.25.04.24.05.24.05.25.04.24.06.24.05.24.05.23.06.24.06.24.06.23.06.23.07.23.07.23.06.23.08.23.07.23.08.23.07.22.08.22.08.04.02.18.07.22.1.21.09.22.1.21.1.21.1.21.1.21.1.2.1.21.1.2.12.2.1.2.12.2.12.15.08.05.03.2.12.18.13.2.12.18.13.18.13.19.13.18.13.12.1.06.04.17.14.17.14.18.14.16.14.17.15.17.14.16.15.16.15.01.02.14.14.16.15.15.16.15.16.15.16.14.16.14.16.14.17.14.17.13.16.14.17.12.17.13.18.13.17.12.18.11.18.12.18.11.18.11.18.11.18.1.19.03.05.07.14.1.19.1.19.09.19.09.2.08.19.08.2.08.19.07.2.08.2.06.2.07.2.06.2.06.2.05.2.03.12.02.1.03.1.02.1.02.11.02.1.02.11.02.1.02.11.02.1.01.11.02.1.01.11.02.11.01.1.01.11.01.11.01.1.01.11v.11l.02.11v.22l.01.1v.87l-.01.1v.12l-.02.1v.11l-.01.1-.01.12-.02.1v.1l-.02.11-.02.11-.01.1-.02.11-.01.1-.02.11-.02.1-.02.11-.02.1-.02.11-.03.1-.02.1-.02.11-.03.1-.03.1-.03.11-.05.2-.06.2-.07.2-.06.2-.07.2-.08.2-.08.2-.08.2-.08.19-.09.19-.09.19-.1.19-.09.19-.1.18-.1.19-.1.18-.12.18-.1.18-.12.18-.12.18-.12.17-.12.17-.13.18-.12.17-.13.16-.14.17-.13.17-.14.16-.14.16-.14.16-.15.16-.15.16-.15.15-.15.16-.15.15-.16.15-.16.15-.16.14-.16.15-.17.14-.17.14-.17.14-.17.14-.17.14-.18.13-.18.14-.18.13-.18.13-.19.13-.18.12-.19.13-.19.12-.19.12-.03.02-.16.1-.2.12-.2.11-.2.12-.2.1-.2.12-.2.1-.2.11-.22.1-.2.1-.22.11-.2.1-.22.1-.22.1-.22.08-.22.1-.22.09-.22.08-.22.1-.23.07-.22.09-.23.08-.23.08-.23.07-.23.08-.23.07-.24.07-.23.07-.24.06-.24.07-.24.06-.24.06-.24.06-.24.06-.25.05-.24.06-.25.05-.25.04-.25.05-.25.04-.25.05-.25.04-.25.03-.26.04-.25.03-.26.04-.26.02-.25.03-.26.03-.26.02-.26.02-.27.02-.26.01-.26.02h-.27l-.26.02h-.27l-.26.01H282.83l-.2-.01-.26-.01-.27-.01-.26-.02-.27-.01-.26-.02-.26-.02-.26-.03-.26-.02-.26-.03-.26-.03-.26-.03-.26-.04-.25-.03-.26-.04-.25-.04-.25-.04-.25-.05-.25-.05-.25-.04-.25-.06-.24-.05-.25-.05-.24-.06-.24-.06-.25-.06-.24-.06-.23-.07-.24-.06-.24-.07-.23-.07-.23-.08-.24-.07-.23-.08-.23-.08-.22-.08-.23-.08-.22-.08-.23-.09-.22-.08-.22-.1-.22-.08-.21-.1-.22-.1-.21-.09-.21-.1-.21-.1-.21-.1-.2-.1-.21-.1-.2-.11-.2-.11-.2-.11-.2-.11-.2-.12-.2-.11-.19-.12-.19-.12-.19-.12-.18-.12-.19-.12-.18-.13-.18-.12-.18-.13-.18-.13-.17-.13h-.01l-.16-.13-.18-.14-.16-.13-.17-.14-.16-.14-.17-.14-.16-.14-.15-.15-.16-.14-.15-.15-.15-.15-.15-.15-.15-.15-.14-.15-.14-.15-.14-.16-.14-.16-.13-.15-.13-.16-.13-.16-.13-.17-.12-.16-.13-.17-.11-.16-.12-.17-.11-.17-.12-.17-.1-.17-.1-.17-.11-.18-.1-.17-.1-.18-.09-.18-.1-.18-.08-.18-.08-.18-.09-.18-.07-.19-.08-.18-.07-.19-.07-.19-.07-.19-.06-.19-.06-.19-.05-.19-.06-.2-.05-.18-.02-.1-.02-.1-.02-.1-.03-.1-.02-.1-.01-.09-.02-.1-.02-.1-.02-.1-.01-.1-.02-.1v-.1l-.02-.1-.01-.1-.02-.1v-.1l-.02-.1v-.1l-.01-.1v-.1l-.01-.1v-.1l-.01-.1V299.67l.01-.1.01-.11v-.1l.02-.1v-.1l.02-.1v-.1l.02-.1.01-.1.02-.1.01-.1.02-.1.01-.1.02-.1.02-.1.02-.09.02-.1.02-.1.02-.09.02-.1.03-.1.02-.09.02-.1.03-.1.06-.18.05-.2.06-.18.07-.19.07-.18.07-.19.07-.18.08-.18.08-.19.08-.18.09-.17.08-.18.1-.18.1-.17.09-.17.1-.18.1-.17.1-.17.12-.16.1-.17.12-.16.12-.17.12-.16.12-.16.12-.16.13-.16.13-.15.13-.16.14-.15.13-.15.14-.15.14-.15.15-.15.14-.14.15-.15.15-.14.15-.14.16-.14.15-.14.16-.13.16-.14.17-.13.16-.13.17-.13.17-.13.17-.13.17-.12.18-.13.18-.12.18-.12.18-.12.18-.11.18-.12.2-.11.18-.12.19-.1.2-.11.18-.11.2-.1.2-.11.2-.1.2-.1.2-.1.2-.1.2-.1.21-.09.09-.03.12-.06.21-.09.21-.08.22-.09.21-.08.22-.09.22-.08.22-.08.22-.07.22-.08.22-.07.23-.07.22-.07.23-.07.23-.07.23-.06.23-.06.23-.06.24-.06.23-.05.24-.06.23-.05.24-.05.24-.05.24-.05.24-.04.25-.04.24-.04.25-.04.24-.04.25-.03.25-.03.25-.03.25-.03.25-.02.25-.03.25-.02.25-.02.26-.01.25-.02.26-.01.26-.01h.25l.26-.01h1.05l.08-.02.17-.02z"/><path d="M322.35 298c17.13-22.61 29.46-52.47 34.75-84.15 5.01-29.96 3.41-59.72-4.53-84.38l-140.63 1.6c-10.79 19.38-18.52 41.86-22.42 65.16-6.42 38.45-1.91 76.1 12.36 103.15L322.35 298z" fill="#c2c2c2"/><path d="M323.37 299.43l-.22.14-.25.1-.26.06-.27.02-2.49.04-64.21 1-53.77.83-.35-.02-.34-.08-.33-.13-.3-.18-.27-.22-.24-.27-.19-.3-.17-.31-.17-.33-.17-.32-.17-.33-.16-.33-.17-.33-.17-.33-.16-.33-.17-.33-.16-.33-.16-.33-.16-.34-.16-.33-.16-.34-.16-.34-.16-.33-.16-.34-.15-.34-.16-.34-.15-.34-.15-.34-.16-.35-.15-.34-.15-.35-.15-.34-.15-.35-.14-.35-.15-.35-.15-.34-.14-.35-.14-.36-.15-.35-.14-.35-.14-.35-.14-.36-.14-.35-.14-.36-.13-.36-.14-.36-.14-.35-.13-.36-.13-.36-.14-.36-.13-.37-.13-.36-.13-.36-.13-.37-.13-.36-.12-.37-.13-.36-.12-.37-.13-.37-.12-.37-.12-.37-.13-.37-.12-.37-.12-.37-.11-.38-.12-.37-.12-.37-.11-.38-.12-.38-.11-.37-.12-.38-.1-.38-.12-.38-.11-.38-.1-.38-.12-.38-.1-.38-.11-.38-.1-.39-.11-.38-.1-.38-.1-.39-.1-.39-.11-.38-.1-.39-.1-.39-.1-.39-.1-.39-.09-.39-.1-.39-.09-.39-.1-.4-.08-.39-.1-.39-.09-.4-.08-.39-.1-.4-.08-.39-.09-.4-.08-.4-.09-.4-.08-.4-.08-.39-.09-.4-.08-.4-.08-.4-.08-.4-.07-.4-.08-.41-.08-.4-.07-.4-.08-.41-.07-.4-.07-.42-.07-.4-.07-.4-.07-.42-.07-.4-.07-.42-.07-.4-.06-.42-.07-.4-.06-.42-.06-.4-.06-.42-.07-.42-.06-.4-.05-.42-.06-.42-.06-.41-.06-.42-.05-.42-.05-.41-.06-.42-.05-.42-.05-.42-.05-.41-.05-.42-.05-.42-.05-.42-.04-.43-.05-.42-.04-.42-.05-.42-.04-.42-.04-.43-.04-.42-.04-.43-.04-.42-.04-.43-.03-.42-.04-.43-.04-.43-.03-.42-.03-.43-.03-.43-.04-.43-.03-.43-.02-.43-.03-.43-.03-.43-.03-.43-.02-.43-.03-.43-.02-.43-.02-.43-.02-.44-.02-.43-.02-.43-.02-.44-.02-.43-.01-.44-.02-.43-.01-.44-.02-.43-.01-.44-.01-.44-.01-.43-.01-.44-.01-.44v-.44l-.01-.44-.01-.43v-.44l-.01-.44v-3.53l.01-.45v-.44l.01-.44.01-.45.01-.44.01-.44.01-.45.01-.44.02-.45.01-.44.02-.45.01-.45.02-.44.02-.45.02-.45.02-.44.02-.45.02-.45.02-.45.02-.44.03-.45.03-.45.02-.45.03-.45.03-.45.03-.45.03-.45.03-.45.03-.45.04-.45.03-.45.04-.45.03-.45.04-.45.04-.45.04-.46.04-.45.04-.45.05-.45.04-.45.04-.46.05-.45.05-.45.05-.46.04-.45.05-.45.05-.46.06-.45.05-.45.05-.46.05-.37v-.08l.06-.46.06-.45.06-.46.06-.45.06-.46.06-.45.06-.46.06-.45.07-.46.06-.45.07-.46.06-.45.07-.46.07-.46.07-.45.07-.46.07-.45.08-.46.07-.46.1-.55.09-.55.09-.56.1-.55.1-.55.09-.55.1-.55.1-.55.1-.55.1-.55.11-.55.1-.55.12-.55.1-.55.12-.55.1-.55.12-.55.12-.54.11-.55.12-.55.12-.54.12-.55.12-.54.13-.55.12-.54.13-.54.12-.55.13-.54.13-.54.13-.54.14-.55.13-.54.14-.54.13-.54.14-.54.14-.53.14-.54.14-.54.15-.54.14-.53.15-.54.15-.53.15-.54.15-.53.15-.54.15-.53.16-.53.15-.53.16-.54.16-.53.16-.53.16-.53.16-.52.16-.53.17-.53.16-.53.17-.52.17-.53.17-.52.17-.53.17-.52.18-.52.17-.53.18-.52.18-.52.18-.52.18-.52.18-.52.18-.51.18-.52.19-.52.19-.51.19-.52.18-.51.2-.52.19-.5.19-.52.2-.51.19-.51.2-.51.2-.51.2-.5.2-.51.2-.51.2-.5.2-.51.2-.5.22-.5.2-.5.21-.5.21-.5.22-.5.2-.5.22-.5.22-.5.21-.5.22-.5.22-.48.22-.5.22-.49.23-.49.22-.49.23-.49.22-.49.23-.48.23-.49.23-.49.23-.48.23-.48.23-.48.24-.49.24-.48.23-.48.24-.47.24-.48.24-.48.24-.47.25-.48.24-.47.25-.47.24-.47.25-.47.25-.47.25-.47.25-.46.25-.47.26-.46.25-.46.24-.37.3-.33.33-.28.38-.22.4-.17.44-.1.43-.05 7.63-.11 86.48-1.27 46.52-.66.54.04.52.12.5.2.45.27.41.35.35.4.28.46.2.5.2.59.18.6.19.59.18.6.19.6.18.6.17.6.18.6.17.62.17.6.17.62.16.6.16.62.16.62.16.62.16.61.15.62.15.63.15.62.14.63.15.62.14.63.13.63.14.63.13.64.14.63.12.64.13.63.12.64.13.64.12.64.11.65.12.64.1.65.12.64.1.65.11.65.1.65.05.32.05.34.1.65.1.66.09.65.09.66.08.66.09.66.08.66.08.66.08.67.07.66.08.67.07.66.06.67.07.67.06.67.06.67.06.68.06.67.05.68.05.67.05.68.05.68.04.67.04.68.04.69.04.68.03.68.04.68.02.69.03.68.03.69.02.69.02.68.02.7.01.68.01.7.01.68.01.7v.69l.01.7v2.08l-.01.7-.02.7v.69l-.02.7-.02.7-.02.7-.02.7-.03.7-.02.7-.03.7-.03.7-.04.7-.04.71-.04.7-.04.71-.04.7-.05.71-.05.7-.05.72-.05.7-.06.71-.06.7-.06.72-.06.7-.07.72-.07.7-.07.72-.07.7-.08.72-.07.7-.08.72-.09.71v.09l-.08.62-.1.71-.09.72-.1.7-.09.72-.1.71-.1.72-.1.7-.11.72-.11.71-.12.72-.1.71-.13.72-.06.36-.06.35-.13.75-.13.75-.14.76-.14.75-.14.75-.15.75-.14.75-.15.75-.15.74-.16.75-.16.74-.15.7v.05l-.17.74-.17.74-.17.75-.17.74-.18.73-.18.74-.18.74-.18.74-.19.73-.19.74-.19.73-.2.73-.19.73-.2.73-.2.73-.2.73-.2.72-.21.73-.21.72-.21.73-.22.72-.22.72-.22.72-.22.72-.01.03-.22.68-.23.71-.24.72-.23.7-.24.72-.24.7-.25.71-.24.7-.25.71-.25.7-.26.7-.25.7-.26.7-.26.7-.26.7-.27.69-.26.69-.27.69-.27.69-.28.68-.27.69-.28.68-.28.68-.28.68-.29.68-.28.68-.29.68-.3.67-.28.67-.3.67-.3.67-.3.67-.3.66-.3.66-.3.67-.32.66-.3.65-.32.66-.31.65-.32.65-.32.65-.32.65-.32.65-.18.35-.15.29-.33.64-.33.64-.34.63-.34.64-.34.63-.34.63-.34.62-.35.63-.35.62-.35.62-.35.62-.35.62-.36.61-.36.61-.36.61-.36.6-.36.61-.37.6-.36.6-.37.6-.37.6-.38.6-.37.59-.38.59-.38.58-.38.59-.38.58-.38.58-.39.57-.39.58-.39.57-.39.57-.14.2-.25.37-.4.56-.4.56-.4.55-.4.56-.41.55-.4.55-.42.55-.4.54-.42.54-.41.54-.42.54-.42.53-.41.53-.42.53-.1.13-.33.39-.17.2-.2.17zm-18.34-166.17l-83.7.67v-.03l-7.66.08-.17.31-.24.45-.25.45-.24.46-.24.45-.24.46-.24.45-.24.46-.24.46-.24.46-.23.46-.24.46-.23.46-.23.47-.23.46-.23.47-.23.46-.23.47-.23.47-.22.47-.23.47-.22.47-.22.48-.22.47-.22.48-.22.47-.22.48-.21.48-.22.47-.21.48-.22.48-.2.49-.22.48-.2.48-.22.49-.2.48-.2.49-.21.48-.2.5-.2.48-.21.49-.2.49-.2.5-.2.48-.2.5-.19.49-.2.5-.18.49-.2.5-.19.5-.18.5-.2.49-.18.5-.18.5-.19.5-.18.5-.18.5-.18.5-.18.51-.18.5-.18.51-.17.5-.18.52-.17.5-.17.51-.17.51-.17.51-.17.51-.17.51-.16.51-.17.52-.16.51-.16.51-.16.52-.16.51-.16.52-.15.51-.16.52-.15.52-.16.52-.15.52-.15.52-.15.52-.15.52-.14.52-.15.52-.14.52-.14.52-.15.53-.14.52-.13.53-.14.52-.14.53-.13.52-.14.53-.13.53-.13.52-.13.53-.13.53-.12.53-.13.53-.12.53-.12.53-.13.53-.12.53-.11.53-.12.54-.12.53-.11.53-.12.54-.1.53-.12.53-.1.54-.12.53-.1.54-.1.54-.11.53-.1.54-.1.53-.1.54-.1.54-.1.54-.1.54-.1.53-.08.54-.08.45-.07.44-.08.45-.07.44-.07.45-.07.44-.07.44-.07.45-.07.44-.06.45-.07.44-.06.44-.07.45-.06.44-.06.44-.06.45-.06.44-.06.44-.06.45-.01.08-.05.36-.05.44-.06.44-.05.44-.05.45-.06.44-.05.44-.05.44-.05.44-.05.44-.04.45-.05.44-.04.44-.05.44-.04.44-.04.44-.04.44-.05.44-.03.44-.04.44-.04.44-.04.44-.03.43-.04.44-.03.44-.03.44-.03.44-.03.43-.03.44-.03.44-.03.44-.03.43-.02.44-.03.44-.02.43-.02.44-.03.43-.02.44-.02.43-.02.44-.01.43-.02.44-.02.43-.01.43-.02.44-.01.43-.01.43-.01.43-.01.44-.01.43-.01.43-.01.43v.43l-.01.43v.43l-.01.43V233.01l.01.42v.43l.01.43.01.42.01.43.01.42.01.43.01.42.02.42v.43l.02.42.02.42.02.42.01.42.02.43.02.42.02.42.02.42.02.42.03.42.02.41.03.42.02.42.03.42.03.41.03.42.03.42.03.41.03.42.03.41.03.42.04.4.03.42.04.41.04.42.03.4.04.42.04.41.04.41.05.41.04.41.04.4.05.42.04.4.05.41.05.4.05.41.05.4.05.41.05.4.05.41.05.4.06.4.05.41.06.4.05.4.06.4.06.4.06.4.06.4.06.4.06.4.07.4.06.4.07.39.06.4.07.39.07.4.07.39.07.39.07.4.07.38.07.4.08.38.07.4.08.38.07.4.08.38.08.39.08.38.08.39.08.38.08.39.08.38.08.39.09.38.08.38.09.38.09.38.09.38.09.38.09.38.09.38.09.38.09.37.1.38.09.37.1.38.09.37.1.38.1.37.1.37.1.37.1.37.1.37.1.37.1.37.1.36.11.37.1.37.12.36.1.36.11.37.11.36.11.36.12.36.1.36.12.36.12.36.11.36.12.36.11.35.12.36.12.35.12.36.12.35.12.35.13.35.12.35.12.35.13.35.12.35.13.35.13.35.13.34.13.35.13.34.13.34.13.35.13.34.14.34.13.34.14.34.13.33.14.34.14.34.14.33.14.34.14.33.14.33.15.33.14.34.14.33.15.32.14.33.15.33.15.33.15.32.15.33.15.32.15.32.15.32.16.32.15.32.15.32.16.32.16.32.15.31.16.32.03.05 53.54-.4 63.1-.47h1.55l.27-.4.38-.54.37-.54.37-.55.37-.55.37-.56.36-.55.37-.56.36-.56.36-.56.36-.56.35-.57.36-.57.35-.57.22-.37.13-.2.35-.58.35-.58.35-.57.35-.58.34-.59.34-.58.34-.59.34-.59.34-.6.33-.59.33-.6.33-.59.33-.6.33-.6.32-.6.32-.61.32-.61.32-.61.32-.62.31-.61.31-.62.31-.62.31-.62.3-.62.31-.62.3-.63.3-.63.3-.63.3-.63.3-.64.28-.63.3-.64.12-.29.16-.35.3-.64.28-.64.29-.64.28-.64.29-.65.28-.65.27-.65.28-.65.27-.65.27-.65.27-.66.27-.66.27-.66.26-.66.26-.66.26-.66.26-.67.25-.67.25-.67.25-.67.25-.67.24-.67.25-.68.24-.67.24-.68.23-.68.24-.68.23-.68.23-.68.23-.69.22-.68.23-.7.22-.68.22-.69.21-.69.22-.7.2-.69.22-.7.2-.69.2-.7.21-.7.2-.7.19-.66v-.03l.21-.7.2-.7.2-.7.19-.71.19-.7.19-.71.19-.7.18-.72.18-.7.18-.72.18-.7.17-.72.18-.71.17-.72.17-.71.16-.72.16-.71.16-.72.16-.72.16-.72.15-.72.15-.72.15-.72.14-.72.01-.04.14-.69.15-.72.14-.72.14-.73.13-.73.14-.72.13-.73.13-.73.13-.73.12-.73.12-.73.12-.73.06-.34.05-.35.11-.69.11-.69.1-.69.11-.69.1-.69.1-.69.1-.69.09-.69.1-.69.08-.69.09-.69.08-.69.07-.6.01-.09.09-.68.08-.69.07-.69.08-.69.07-.68.07-.69.07-.68.06-.69.06-.69.06-.68.06-.68.06-.69.05-.68.05-.68.05-.69.05-.68.04-.68.04-.68.04-.68.04-.68.03-.68.03-.68.03-.68.03-.68.03-.67.02-.68.02-.67.02-.68.01-.67.02-.68v-.67l.01-.67v-.26l.01-.41V177.13l-.02-.66v-.67l-.02-.66-.02-.67-.02-.66-.02-.66-.02-.66-.03-.66-.03-.66-.03-.66-.03-.65-.04-.66-.03-.65-.04-.66-.04-.65-.05-.65-.04-.65-.05-.65-.05-.65-.06-.65-.05-.64-.06-.65-.06-.64-.07-.65-.06-.64-.07-.64-.07-.64-.07-.64-.08-.63-.07-.64-.08-.63-.08-.63-.09-.64-.08-.63-.1-.63-.08-.62-.05-.33-.04-.3-.1-.63-.1-.62-.1-.62-.1-.62-.1-.62-.1-.62-.12-.62-.1-.61-.12-.62-.11-.6-.12-.62-.12-.6-.12-.62-.13-.6-.12-.6-.13-.6-.13-.61-.14-.6-.13-.6-.14-.6-.14-.59-.15-.6-.14-.58-.15-.6-.15-.58-.15-.59-.15-.58-.16-.59-.16-.58-.16-.58-.16-.58-.17-.57-.16-.57-.15-.5-45.05.4z"/><path d="M241.42 130.02s.72 14.77-11.37 33.72c-30.13 47.23-39 26.86-39 26.86-5.12 19.93-10.92 62.68 10.36 109.27 38.03 4.55 79.94 4.05 120.89-1.2 22.8-33.15 31.89-67.57 35.37-103.68-23.5-7.26-40.77-21.64-45.18-64.18-4.42-.35-4.06-.45-10.64-1.45l2.08 34.44c-17.91-.96-35.2-.4-52.12.82 0 0-.57-32.42 2.43-35.03 3-2.6-12.82.43-12.82.43z" fill="#008fd7"/><clipPath id="a"><path d="M241.42 130.02s.72 14.77-11.37 33.72c-30.13 47.23-39 26.86-39 26.86-5.12 19.93-10.92 62.68 10.36 109.27 38.03 4.55 79.94 4.05 120.89-1.2 22.8-33.15 31.89-67.57 35.37-103.68-23.5-7.26-40.77-21.64-45.18-64.18-4.42-.35-4.06-.45-10.64-1.45l2.08 34.44c-17.91-.96-35.2-.4-52.12.82 0 0-.57-32.42 2.43-35.03 3-2.6-12.82.43-12.82.43z"/></clipPath><g clip-path="url(#a)"><path d="M240.12 165.52a510.26 510.26 0 0177.12-.95c.98 25.69-1.05 49.36-6.17 70.96a442.52 442.52 0 01-81.4 2.21c1.18-25.74 4.47-49.86 10.45-72.22z" fill="#008fd7"/><clipPath id="b"><path d="M240.12 165.52a510.26 510.26 0 0177.12-.95c.98 25.69-1.05 49.36-6.17 70.96a442.52 442.52 0 01-81.4 2.21c1.18-25.74 4.47-49.86 10.45-72.22z"/></clipPath><g clip-path="url(#b)"><text x="267.59" y="224.65" font-family="'TamilMN','Tamil MN',serif" font-weight="250" font-size="38.48" fill="#fff" stroke="#fff" stroke-width="2.67" transform="matrix(.99924 -.03903 -.08942 1.00425 4 1.39)">B<tspan x="293.18" y="224.65">F</tspan></text></g><path d="M240.12 165.52a510.26 510.26 0 0177.12-.95c.98 25.69-1.05 49.36-6.17 70.96a442.52 442.52 0 01-81.4 2.21c1.18-25.74 4.47-49.86 10.45-72.22z" fill="none" stroke="#000" stroke-width="2.5" stroke-linecap="round" stroke-miterlimit="1.5"/><path d="M250.18 172.84c1.47-.2 2.85.87 3.06 2.39a2.74 2.74 0 01-2.29 3.13 2.76 2.76 0 01-3.06-2.4 2.74 2.74 0 012.29-3.12zM307.65 170.52c1.47-.2 2.85.87 3.06 2.4a2.74 2.74 0 01-2.29 3.12 2.76 2.76 0 01-3.06-2.39 2.74 2.74 0 012.29-3.13z" fill="#ffc800" stroke="#000" stroke-width="2.5" stroke-linecap="round" stroke-miterlimit="1.5"/></g><path d="M241.42 130.02s.72 14.77-11.37 33.72c-30.13 47.23-39 26.86-39 26.86-5.12 19.93-10.92 62.68 10.36 109.27 38.03 4.55 79.94 4.05 120.89-1.2 22.8-33.15 31.89-67.57 35.37-103.68-23.5-7.26-40.77-21.64-45.18-64.18-4.42-.35-4.06-.45-10.64-1.45l2.08 34.44c-17.91-.96-35.2-.4-52.12.82 0 0-.57-32.42 2.43-35.03 3-2.6-12.82.43-12.82.43z" fill="none" stroke="#000" stroke-width="2.5" stroke-linecap="round" stroke-miterlimit="1.5"/><path d="M352.94 128.82c.44-2.23.74-4.48.91-6.75 2.63-35.25-26.78-67.38-65.63-71.7-38.85-4.33-72.52 20.78-75.15 56.03-.6 8.04.48 16.2 3.18 24.03l136.7-1.6z" fill="#c2c2c2"/><clipPath id="c"><path d="M352.94 128.82c.44-2.23.74-4.48.91-6.75 2.63-35.25-26.78-67.38-65.63-71.7-38.85-4.33-72.52 20.78-75.15 56.03-.6 8.04.48 16.2 3.18 24.03l136.7-1.6z"/></clipPath><g clip-path="url(#c)"><path d="M258.4 103.4c-1.06.81-1.66 1.67-1.76 2.55-.51 4.7 12.89 8.96 29.91 9.51 17.03.56 31.27-2.8 31.78-7.48.12-1.08-.5-2.17-1.84-3.22l-58.08-1.36z" fill="#191919"/><clipPath id="d"><path d="M258.4 103.4c-1.06.81-1.66 1.67-1.76 2.55-.51 4.7 12.89 8.96 29.91 9.51 17.03.56 31.27-2.8 31.78-7.48.12-1.08-.5-2.17-1.84-3.22l-58.08-1.36z"/></clipPath><g clip-path="url(#d)"><path d="M267.95 106.5c.04 2.92 8.42 5.5 18.95 5.85 10.77.35 19.79-1.78 20.11-4.74l.01-.19-39.07-.91z" fill="#fff"/></g><path d="M275.76 90.42c-.27-7.7-5.44-14.16-11.94-14.88-6.95-.77-12.89 5.26-13.25 13.47-.02.45-.03.92 0 1.38l25.19.04z" fill="#191919"/><clipPath id="e"><path d="M275.76 90.42c-.27-7.7-5.44-14.16-11.94-14.88-6.95-.77-12.89 5.26-13.25 13.47-.02.45-.03.92 0 1.38l25.19.04z"/></clipPath><g clip-path="url(#e)"><path d="M261.93 87.7c.43-3.77.2-6.7-.53-6.78-.8-.09-1.88 3.15-2.43 7.22l-.1.76 3.06-1.2z" fill="#fff"/></g><path d="M316.9 91.7c-.25-7.3-5.14-13.4-11.29-14.08-6.57-.73-12.18 4.97-12.53 12.73-.01.44-.02.87 0 1.3l23.82.04z" fill="#191919"/><clipPath id="f"><path d="M316.9 91.7c-.25-7.3-5.14-13.4-11.29-14.08-6.57-.73-12.18 4.97-12.53 12.73-.01.44-.02.87 0 1.3l23.82.04z"/></clipPath><g clip-path="url(#f)"><path d="M303.44 89.09c.41-3.78.07-6.71-.8-6.81-.93-.1-2.14 3.12-2.69 7.19l-.1.76 3.59-1.14z" fill="#fff"/></g></g><path d="M280.14 46.56h.46l.47.01h.46l.47.02.47.01.47.02.46.02.47.02.47.02.47.03.48.03.47.03.47.04.47.04.47.04.48.04.47.05.47.05.48.05.47.05.48.06.47.06.47.06.47.07.47.07.46.07.47.07.47.08.46.07.47.08.46.09.46.08.46.1.46.08.46.1.46.1.46.1.45.1.46.1.45.1.46.11.45.11.45.11.45.12.45.12.44.12.45.12.45.13.44.12.44.13.44.14.44.13.44.14.44.14.44.14.44.14.43.15.43.15.44.15.43.15.4.15h.03l.43.17.42.16.43.16.43.17.42.16.42.17.42.18.42.17.42.18.42.17.41.19.42.18.41.18.41.2.41.18.41.2.4.18.41.2.4.2.41.2.4.2.4.2.4.21.4.2.4.22.4.21.39.22.39.21.39.22.39.22.38.22.39.23.38.22.39.23.38.23.38.24.38.23.37.24.38.23.37.24.37.25.1.07.27.17.37.25.37.25.36.25.37.25.36.25.36.26.36.25.35.26.36.26.35.27.35.26.35.27.35.27.35.27.34.27.35.27.34.28.34.28.34.28.33.28.34.28.33.28.33.29.33.29.33.29.32.29.33.29.32.3.32.29.32.3.31.3.32.3.2.2.11.1.31.3.3.31.31.3.3.32.3.31.3.31.3.32.3.31.3.32.29.32.29.32.29.32.28.33.25.28.04.04.28.33.27.33.28.33.27.33.28.34.27.33.26.34.27.34.26.34.27.34.26.34.25.34.26.35.24.33.01.01.25.35.25.35.24.35.24.36.24.35.24.36.23.35.24.36.23.36.23.36.22.36.23.36.22.37.22.36.21.37.22.37.21.37.21.36.21.38.2.37.2.37.21.37.2.38.2.38.19.37.19.38.19.38.07.15.11.23.18.39.18.38.18.39.17.38.17.39.17.39.16.39.16.39.16.39.16.39.16.4.15.39.15.4.15.39.14.4.14.39.14.4.14.4.14.4.13.4.13.4.13.4.12.4.12.4.12.4.12.41.11.4.11.41.11.41.1.4.11.42.1.4.1.41.1.41.09.42.09.4.09.42.08.41.08.41.08.42.08.41.07.42.07.41.07.42.06.41.07.42.06.42.05.42.05.41.05.42.04.42.04.42.04.43.03.42.04.42.02.42.03.42.02.42.02.43.02.42.02.42v.43l.02.42v2.12l-.01.43-.01.42-.02.43-.02.42-.02.43-.02.42-.03.43-.03.43-.03.42-.04.43-.04.42-.04.43-.04.43-.05.42-.03.22v.1l-.02.12-.03.22-.03.22-.04.22-.03.22-.03.22-.03.22-.04.22-.03.21-.04.22-.04.22-.03.22-.04.21-.04.22-.04.22-.04.22-.04.21-.04.22-.05.21-.04.22-.05.22-.04.21-.05.22-.04.21-.05.22-.05.21-.05.22-.05.2-.05.22-.03.12-.02.1-.06.2-1.72-.33 1.72.34-.08.29-.13.27-.17.24-.21.21-.25.17-.27.13-.29.08-.3.03-1.54.03-39.82.73-95.32 1.73-.41-.03-.22-.05-.19-.04-.38-.15-.36-.21-.32-.26-.27-.31-.22-.35-.17-.38-.13-.38-.13-.38-.13-.38-.12-.39-.13-.38-.12-.39-.11-.38-.12-.39-.11-.38-.11-.4-.11-.38-.1-.39-.11-.38-.1-.4-.1-.38-.1-.4-.09-.38-.09-.39-.09-.4-.08-.38-.09-.4-.08-.38-.08-.4-.07-.39-.08-.39-.07-.4-.06-.38-.07-.4-.06-.39-.06-.4-.06-.39-.06-.4-.05-.39-.05-.39-.05-.4-.05-.39-.04-.4-.04-.39-.04-.4-.03-.39-.04-.4-.03-.39-.02-.4-.03-.4-.02-.39-.02-.4-.02-.39-.01-.4-.02-.4v-.39l-.01-.4-.01-.39V109.35l.01-.39.01-.4.02-.39.01-.4.02-.4.02-.39.03-.4.02-.39.03-.43.04-.43.03-.43.04-.43.05-.43.04-.43.05-.42.06-.43.05-.42.06-.43.06-.42.06-.42.07-.42.07-.42.07-.42.07-.42.08-.42.08-.41.09-.42.08-.41.1-.42.08-.4.1-.42.1-.4.1-.41.1-.41.1-.4.11-.41.11-.4.12-.41.12-.4.11-.4.13-.4.12-.4.13-.4.13-.4.13-.38.14-.4.13-.39.15-.4.14-.38.14-.39.15-.38.15-.4.16-.37.15-.39.16-.38.16-.38.17-.38.16-.38.17-.37.17-.38.18-.37.17-.38.18-.37.18-.37.19-.36.18-.37.19-.37.19-.36.2-.36.19-.37.2-.36.2-.36.2-.35.2-.36.21-.35.21-.36.21-.35.1-.16.12-.19.22-.35.22-.34.22-.35.22-.34.23-.34.23-.34.23-.34.23-.34.23-.34.24-.33.24-.34.24-.33.25-.33.24-.33.25-.32.25-.33.25-.32.26-.32.25-.32.26-.32.26-.32.27-.32.26-.3.27-.32.27-.31.27-.31.27-.3.28-.31.28-.3.28-.31.28-.3.28-.3.29-.3.28-.3.3-.28.28-.3.3-.29.3-.28.29-.3.3-.28.3-.28.3-.28.3-.28.31-.28.31-.27.31-.28.32-.27.3-.27.33-.27.31-.26.32-.27.32-.26.33-.26.32-.26.33-.26.33-.26.33-.25.33-.25.33-.25.34-.25.34-.25.33-.24.34-.24.35-.24.34-.24.35-.24.34-.23.35-.23.35-.23.35-.23.36-.23.35-.22.36-.23.36-.22.36-.21.36-.22.36-.22.37-.2.36-.22.37-.2.37-.21.37-.2.37-.21.38-.2.37-.2.38-.2.38-.19.38-.19.38-.19.38-.19.38-.18.39-.18.39-.18.38-.18.4-.18.38-.17.4-.18.39-.17.4-.17.39-.16.4-.16.4-.17.4-.16.4-.15.4-.16.4-.15.4-.15.42-.15.4-.14.41-.15.41-.14.41-.14.42-.13.41-.14.42-.13.41-.13.42-.13.42-.12.42-.13.42-.12.42-.12.42-.11.43-.11.42-.12.43-.1.43-.11.43-.1.42-.1.25-.06.19-.05.43-.1.43-.09.43-.09.44-.09.43-.08.44-.09.44-.08.44-.08.44-.08.44-.07.44-.07.44-.07.45-.07.44-.06.45-.07.44-.06.45-.05.45-.06.45-.05.45-.05.45-.05.45-.04.45-.04.45-.04.46-.04.45-.03.46-.03.45-.03.46-.03.46-.02.46-.02.46-.02.46-.02.46-.01.46-.01.46-.01h1.39zm-1.32 6.64h-.85l-.42.01-.43.02h-.42l-.42.03-.42.01-.42.02-.42.03-.41.02-.42.03-.42.03-.41.03-.42.04-.41.03-.41.04-.42.04-.4.05-.42.04-.4.05-.42.05-.4.06-.41.05-.4.06-.42.06-.4.06-.4.07-.4.06-.4.07-.41.07-.4.08-.4.07-.4.08-.4.08-.4.08-.39.09-.17.04-.22.04-.4.1-.39.08-.4.1-.38.1-.4.09-.38.1-.39.1-.39.1-.38.11-.39.1-.38.12-.38.11-.38.12-.39.11-.37.12-.38.12-.38.13-.38.12-.37.13-.37.13-.38.13-.37.13-.37.14-.37.13-.37.14-.36.14-.37.15-.36.14-.37.15-.36.15-.36.15-.36.15-.36.16-.35.16-.36.16-.35.16-.36.16-.35.17-.35.16-.35.17-.35.17-.34.18-.35.17-.34.18-.35.18-.34.18-.34.18-.33.18-.34.19-.34.19-.33.19-.33.19-.34.2-.33.19-.32.2-.33.2-.33.2-.32.2-.32.2-.32.2-.32.22-.32.2-.32.22-.31.2-.32.22-.31.22-.31.22-.3.22-.32.22-.3.23-.3.22-.3.23-.31.23-.3.23-.3.23-.3.24-.29.23-.29.24-.3.24-.28.24-.29.24-.28.24-.29.25-.28.25-.28.25-.28.25-.28.25-.27.25-.28.26-.27.26-.27.25-.27.26-.27.27-.26.26-.27.26-.26.27-.26.27-.26.27-.25.27-.26.27-.25.27-.25.28-.25.28-.25.28-.24.28-.24.28-.24.28-.24.28-.24.29-.24.29-.23.29-.23.29-.23.29-.23.3-.23.29-.22.3-.22.29-.22.3-.22.3-.21.3-.22.3-.21.3-.21.31-.2.31-.21.31-.2.31-.2.31-.2.31-.11.17-.1.15-.2.31-.18.32-.2.32-.18.32-.2.32-.18.32-.18.32-.18.33-.18.32-.17.33-.18.33-.17.33-.17.33-.17.33-.16.33-.17.34-.16.33-.16.34-.15.34-.16.34-.15.34-.15.34-.15.34-.14.35-.14.34-.14.35-.14.35-.14.35-.13.35-.13.35-.13.35-.13.35-.12.36-.12.35-.12.36-.12.36-.12.36-.1.36-.12.36-.1.36-.11.37-.1.36-.1.37-.1.37-.1.37-.09.36-.09.38-.09.37-.08.37-.08.37-.08.38-.08.37-.08.38-.07.38-.07.38-.07.38-.06.38-.06.38-.06.38-.06.39-.05.38-.06.39-.04.39-.05.38-.05.4-.04.38-.03.4-.04.38-.03.4-.03.36-.03.36-.02.35-.02.36-.02.36-.02.36-.01.36-.01.36-.01.36v.36l-.01.36V112l.01.36v.36l.02.36.02.37.01.36.02.36.02.36.03.36.02.36.03.36.03.36.03.36.04.36.03.36.04.36.05.36.04.37.05.36.05.36.05.36.05.36.06.36.05.36.06.35.07.36.06.36.07.36.07.36.07.36.07.36.08.36.08.35.08.36.08.36.09.36.09.35.09.36.1.36.09.35.1.36.1.36.1.35.1.36.1.32h.04l94.1-.5 39.08-.2v-.02l.03-.2.02-.2.02-.21.02-.2.02-.21.02-.2.02-.22.02-.2.01-.2.02-.21.01-.2.02-.21.01-.2.02-.22v-.2l.02-.2.01-.21.01-.2v-.21l.02-.21v-.2l.01-.21v-.2l.01-.13v-.09l.01-.2.01-.4.01-.4V119.12l-.01-.39-.01-.4-.02-.39-.01-.4-.02-.39-.02-.39-.03-.4-.03-.38-.03-.4-.03-.38-.04-.4-.03-.38-.05-.39-.04-.39-.05-.38-.04-.39-.06-.38-.05-.39-.06-.38-.06-.39-.06-.38-.06-.38-.07-.38-.07-.38-.07-.38-.07-.38-.08-.37-.08-.39-.07-.37-.08-.38-.08-.38-.09-.37-.08-.38-.1-.37-.09-.37-.09-.38-.1-.37-.1-.37-.1-.37-.1-.37-.1-.37-.11-.36-.12-.37-.1-.37-.12-.36-.12-.37-.12-.36-.13-.36-.12-.36-.13-.37-.13-.36-.13-.35-.13-.36-.14-.36-.14-.36-.14-.35-.14-.36-.15-.35-.15-.36-.15-.35-.15-.35-.16-.35-.15-.35-.16-.35-.16-.34-.17-.35-.16-.35-.17-.34-.17-.34-.17-.35-.18-.34-.17-.34-.18-.34-.18-.34-.19-.33-.11-.21-.07-.13-.18-.34-.19-.33-.18-.34-.2-.33-.18-.34-.2-.33-.2-.33-.19-.33-.2-.33-.2-.33-.2-.33-.21-.32-.2-.33-.22-.32-.2-.32-.22-.33-.22-.32-.22-.31-.22-.32-.22-.32-.22-.32-.23-.31-.22-.31-.23-.32-.24-.3-.23-.32-.23-.3-.01-.02-.23-.3-.24-.3-.23-.3-.25-.31-.24-.3-.24-.31-.25-.3-.25-.3-.25-.3-.25-.3-.25-.3-.26-.3-.26-.29-.26-.3-.03-.03-.22-.25-.27-.3-.26-.29-.26-.29-.27-.28-.27-.29-.27-.29-.27-.28-.28-.28-.27-.28-.28-.28-.28-.28-.28-.28-.28-.27-.1-.1-.19-.18-.28-.27-.29-.28-.29-.27-.29-.27-.29-.26-.3-.27-.29-.27-.3-.26-.3-.26-.3-.26-.3-.26-.3-.26-.3-.26-.31-.25-.31-.25-.31-.26-.31-.25-.32-.25-.31-.24-.32-.25-.32-.24-.32-.24-.32-.24-.32-.24-.32-.24-.33-.24-.33-.23-.33-.23-.33-.23-.33-.23-.33-.23-.34-.23-.24-.16-.1-.06-.33-.22-.34-.22-.35-.22-.34-.22-.34-.22-.35-.21-.34-.21-.35-.22-.35-.2-.35-.21-.35-.2-.36-.21-.35-.2-.36-.2-.36-.2-.36-.2-.36-.19-.36-.2-.36-.18-.37-.2-.37-.18-.36-.19-.37-.18-.37-.18-.37-.18-.38-.18-.37-.17-.38-.18-.37-.17-.38-.17-.38-.17-.38-.16-.38-.16-.39-.17-.38-.16-.39-.15-.38-.16-.4-.15-.38-.16-.39-.14-.4-.15h-.01l-.37-.15-.4-.14-.4-.14-.39-.14-.4-.14-.4-.14-.4-.13-.4-.13-.4-.13-.4-.13-.4-.12-.4-.13-.41-.12-.41-.12-.4-.11-.42-.12-.4-.1-.42-.12-.41-.1-.42-.11-.41-.1-.42-.1-.41-.1-.42-.1-.42-.1-.42-.09-.42-.09-.42-.08-.42-.09-.43-.08-.42-.08-.43-.08-.42-.07-.43-.08-.43-.07-.43-.07-.43-.06-.43-.07-.43-.06-.43-.06-.44-.05-.43-.06-.44-.05-.43-.05-.44-.05-.43-.04-.44-.04-.43-.04-.43-.04-.44-.03-.43-.03-.43-.03-.43-.03-.43-.02-.43-.02-.43-.02-.43-.02-.43-.01-.43-.01-.42-.01h-.43l-.43-.01h-.84z"/><g><path d="M209.96 83.86c5.95-1.02 11.22.77 11.77 4 .55 3.21-3.83 6.65-9.78 7.66-5.95 1.02-11.23-.77-11.78-4-.55-3.21 3.84-6.65 9.79-7.66z" fill="#008fd7"/><path d="M210.07 85.33l-.06.02h-.06l-.13.04-.13.03-.12.03-.13.03-.12.03-.13.04-.12.03-.12.04-.12.03-.12.04-.12.04-.12.03-.12.04-.12.04-.11.04-.12.04-.12.04-.1.04-.12.04-.12.05-.1.04-.12.04-.1.05-.12.04-.1.05-.11.04-.1.05-.11.05-.1.04-.11.05-.1.05-.1.05-.1.05-.1.05-.1.05-.1.05-.1.05-.1.05-.09.06-.1.05-.09.05-.09.05-.02.02-.07.04-.09.05-.08.05-.09.06-.09.05-.08.06-.08.05-.09.06-.08.05-.08.06-.08.06-.07.05-.08.06-.07.06-.08.05-.07.06-.07.06-.07.05-.07.06-.07.06-.06.05-.07.06-.06.06-.06.06-.06.05-.06.06-.06.06-.06.06-.05.05-.06.06-.05.06-.05.05-.05.06-.05.06-.04.05-.05.06-.04.05-.05.06-.04.05-.04.06-.04.05-.03.05-.04.06-.03.05-.03.05-.04.06-.02.05-.03.05-.03.05-.03.05-.02.05-.02.04-.03.05-.02.05-.01.05-.02.04-.02.05-.01.04-.02.04-.01.05-.01.04-.01.04-.01.04-.01.04v.04l-.02.04v.1l-.01.04V91.05l.01.03.01.03v.03l.01.03.01.02v.03l.02.03v.03l.02.03v.02l.02.03.01.03.01.03.02.02.01.03.02.03.01.03.02.02.02.03.01.03.02.03.02.02.03.03.02.03.02.03.03.03.02.03.03.03.03.03.03.03.03.03.03.03.03.03.03.03.04.03.04.03.04.03.04.03.04.03.04.04.04.03.05.03.04.03.05.03.05.03.05.03.05.03.06.03.05.03.06.04.05.03.06.03.06.03.06.02.07.03.06.03.07.03.06.03.07.03.07.02.07.03.07.03.08.02.07.03.07.03.08.02.08.02.08.03.08.02.08.02h.02l.06.03.08.02.09.02.08.02.09.02.09.02.08.02.1.02.08.02.1.01.09.02.1.02.09.01.1.02.09.01.1.01.1.02h.1l.09.02h.1l.1.02h.1l.1.02h.1l.11.01h.1l.11.01H207.58l.11.01h1l.11-.01h.12l.11-.02h.12l.11-.01.12-.01.12-.01.11-.01.12-.02h.12l.12-.02.11-.02.12-.01.12-.02.12-.02.12-.01.12-.02.12-.02.12-.02.12-.03.12-.02.12-.02.1-.02h.03l.12-.03.12-.03.12-.02.12-.03.12-.03.12-.03.12-.03.12-.03.11-.03.12-.03.12-.03.11-.03.12-.04.1-.03.12-.04.11-.03.11-.04.11-.03.11-.04.11-.04.11-.04.1-.03.11-.04.1-.04.11-.04.1-.05.11-.04.1-.04.1-.04.1-.04.1-.05.1-.04.1-.05.1-.04.09-.05.1-.04.09-.05.09-.04.09-.05.09-.05.09-.05.09-.04.08-.05.09-.05.09-.05.08-.05.08-.05.08-.05.08-.05.08-.05.08-.05.08-.05.07-.05.08-.05.07-.05.07-.05.07-.05.06-.04.01-.01.07-.05.07-.05.06-.05.07-.05.06-.05.06-.05.06-.05.06-.05.06-.06.06-.05.05-.05.05-.05.06-.05.05-.04.05-.05.05-.05.04-.05.05-.05.04-.05.05-.05.04-.04.04-.05.03-.05.04-.04.04-.05.03-.04.03-.05.03-.04.03-.04.03-.04.03-.05.03-.04.02-.04.02-.04.03-.03.02-.04.01-.04.02-.03.02-.04.01-.03.02-.03.01-.04.01-.03.01-.03.01-.03.01-.02.01-.03v-.02l.01-.03v-.02l.01-.02v-.04l.01-.02V88.38l-.01-.01v-.02h-.01v-.02l-.01-.01v-.01l-.01-.02v-.01l-.01-.01v-.01l-.01-.01v-.01l-.02-.01v-.01l-.01-.01v-.01l-.02-.02v-.01l-.02-.01v-.02l-.02-.01-.01-.02-.02-.02-.01-.02-.02-.01-.02-.02-.02-.02-.02-.02-.02-.02-.02-.02-.03-.02-.02-.03-.03-.02-.02-.01v-.01l-.04-.03-.03-.02-.03-.03-.03-.02-.04-.03-.03-.02-.04-.03-.04-.03-.04-.02-.04-.03-.05-.03-.04-.02-.05-.03-.05-.03-.05-.03-.05-.02-.05-.03-.06-.03-.05-.02-.06-.03-.06-.03h-.02l-.04-.03-.06-.02-.06-.03-.06-.03-.07-.03-.06-.03-.07-.02-.07-.03-.04-.02-.03-.01-.07-.03-.07-.03-.07-.03-.07-.03-.08-.03-.08-.02-.07-.03-.03-.01-.05-.02-.08-.03-.08-.04-.08-.03-.09-.03-.08-.03-.09-.03-.08-.03-.09-.02-.09-.03-.09-.03-.09-.03-.1-.02-.08-.03h-.02l-.08-.03-.1-.04-.09-.03-.1-.03-.1-.03-.1-.04-.1-.03-.1-.03-.1-.03-.1-.03-.1-.03-.11-.02-.1-.03-.11-.03-.11-.02-.11-.03-.11-.02-.11-.03-.12-.02-.1-.02-.12-.02-.12-.03h-.05l-.06-.02-.12-.03-.12-.03-.12-.03-.12-.03-.12-.02-.12-.03-.13-.02-.12-.03-.12-.02-.13-.02-.13-.03-.12-.02-.13-.02-.13-.02h-.05l-.08-.02-.13-.02-.14-.03-.13-.02-.13-.02-.14-.03-.1-.01h-.04l-.12.02zm-.22-2.98l.14-.07.15-.07.14-.06.14-.06.15-.06.1-.04.04-.02.15-.05.14-.05.15-.05.15-.05.14-.05.15-.05.14-.04.15-.04.15-.05.14-.04.15-.04.15-.04.14-.04.15-.03.08-.02.07-.01.14-.03.15-.02.15-.02.14-.02.15-.02.15-.02.14-.02.15-.02.14-.01.15-.01.14-.02h.15l.14-.02h.15l.14-.02h.15l.14-.01H215.67l.14-.01h.28l.14.01.14.01.14.01.14.02.14.01.14.02.14.01.14.02.13.02.14.02.14.02.13.03.14.02.09.02h.04l.13.04.14.03.13.04.13.03.13.04.13.03.13.04.04.02.08.03.13.04.13.05.12.04.12.05.13.05.12.05.12.05.07.03.05.03.12.05.12.06.12.06.12.06.11.07.12.06.11.06.11.07.12.07.1.07.12.07.1.07.12.08.1.07.11.08.1.08.11.08.1.08.1.08.1.09.1.09.04.03.06.06.1.09.1.09.09.1.1.1.08.09.1.1.08.1.08.1.09.11.08.11.08.11.08.11.08.12.07.11.07.12.07.12.07.12.07.12.06.13.06.12.06.13.05.13.05.13.05.13.05.14.04.13.04.14.04.14.03.14.04.14.02.14.02.1v.04l.03.14.02.14.01.15.01.14v.14l.01.14V88.65l-.02.14v.14l-.02.13-.02.14-.02.14-.03.14-.03.13-.02.13-.04.14-.03.13-.04.13-.04.13-.04.13-.05.12-.04.13-.05.12-.06.12-.05.13-.05.12-.06.11-.06.12-.06.12-.07.11-.06.12-.07.1-.07.12-.07.1-.07.12-.07.1-.08.1-.07.11-.08.1-.08.1-.08.11-.08.1-.08.1-.09.1-.09.1-.08.09-.1.1-.08.09-.1.09-.08.1-.1.08-.1.1-.09.08-.1.09-.1.08-.1.09-.1.08-.1.09-.1.08-.1.08-.1.08-.11.08-.1.08-.11.08-.11.08-.11.07-.11.08-.12.08-.1.07-.03.01-.1.06-.1.07-.12.08-.12.07-.12.06-.12.07-.12.07-.12.07-.12.06-.12.07-.13.06-.12.07-.13.06-.12.06-.13.06-.13.06-.12.06-.13.06-.13.06-.14.05-.13.06-.13.05-.13.06-.14.05-.13.05-.14.06-.14.05-.13.05-.14.05-.14.04-.14.05-.14.05-.14.04-.15.05-.14.04-.14.04-.15.05-.14.04-.15.04-.14.04-.15.03-.15.04-.15.04-.15.03-.15.04-.15.03-.15.03-.15.04-.15.03-.15.03-.16.02-.15.03-.15.03-.16.02-.16.03-.15.02-.16.03-.16.02h-.02l-.13.02-.16.02-.15.01-.16.02-.16.02-.15.01-.15.01-.16.02h-.15l-.16.02h-.15l-.15.01-.15.01h-.15l-.16.01h-.3l-.15.01h-.74l-.15-.01h-.14l-.15-.02h-.14l-.15-.01-.14-.01-.15-.01-.14-.02h-.14l-.14-.02-.14-.02-.14-.01-.14-.02-.14-.02-.14-.02-.14-.02-.14-.02-.13-.02-.14-.02-.14-.03-.13-.02-.13-.03-.14-.03-.13-.02-.13-.03-.13-.03-.13-.03-.13-.04-.13-.03-.13-.03-.13-.04-.12-.03-.13-.04-.12-.04-.13-.04-.12-.04-.12-.04-.12-.04-.1-.03-.02-.01-.12-.05-.12-.04-.12-.05-.12-.04-.11-.05-.12-.05-.12-.05-.1-.05-.12-.06-.11-.05-.11-.06-.11-.05-.11-.06-.11-.06-.1-.06-.11-.06-.1-.06-.11-.06-.1-.06-.1-.07-.1-.06-.1-.07-.1-.07-.1-.07-.1-.07-.1-.07-.09-.08-.1-.07-.08-.08-.1-.08-.08-.07-.1-.08-.08-.09-.08-.08-.09-.08-.08-.09-.08-.09-.08-.09-.08-.09-.07-.09-.08-.09-.07-.1-.07-.09-.07-.1-.07-.1-.06-.1-.07-.1-.06-.1-.06-.1-.05-.11-.06-.1-.05-.12-.05-.1-.05-.12-.05-.1-.04-.12-.04-.12-.04-.11-.03-.12-.04-.12-.03-.12-.02-.12-.03-.12-.02-.12-.02-.12-.02-.12-.01-.12-.01-.12-.01-.13v-.6l.01-.12.02-.12v-.12l.03-.12.02-.12.02-.11.02-.12.03-.11.03-.12.03-.11.03-.11.04-.11.04-.11.04-.11.04-.11.04-.11.05-.1.05-.11.05-.1.05-.11.05-.1.06-.1.05-.1.06-.1.06-.1.06-.1.07-.1.06-.1.07-.09.07-.1.07-.09.07-.09.07-.09.07-.1.08-.08.07-.09.08-.09.08-.08.08-.09.08-.08.09-.09.08-.08.08-.08.1-.09.08-.08.09-.08.09-.08.09-.08.1-.07.08-.08.1-.08.1-.07.1-.08.09-.07.1-.07.1-.08.1-.07.1-.07.1-.07.1-.07.11-.07.11-.07.1-.06.12-.07.1-.07.12-.06.1-.07.12-.06.11-.06.12-.06.11-.06.12-.07.11-.06.12-.05.1-.05.02-.01.12-.06.12-.06.12-.05.12-.06.13-.05.12-.05.13-.06.12-.05.13-.05.13-.05.12-.05.13-.05.13-.05.13-.04.13-.05.14-.05.13-.04.13-.04.14-.05.13-.04.14-.04.13-.04.14-.04.14-.04.14-.04.14-.04.14-.03.14-.04.14-.03.14-.03.14-.04.15-.03.14-.03.14-.03.15-.03.15-.03.14-.02.15-.03.15-.03.14-.02.15-.02.15-.03h.07l.08-.02.15-.02.05-.02.1-.04z" fill="#008fd7"/><path d="M277.25 26.68l104.46 1.74-97.99 36.25-104.46-1.74 97.99-36.25z"/><path d="M276.3 29.2l-42.6 16.1-39.76 14.99 25.25.26 62.6.66 1.35.02 55.05-20.37-.08-.3 22.49-8.44-10-.16-6.84-.13-6.73-.17-12.95-.43-22.8-1.04-16.48-.97-7.22-.49h-.02l-1.26.47zm67.6-5.46l6.84.1 16.3.29 14.74.3.69.06.66.2.62.3.56.4.48.5.39.57.28.62.13.52.04.15.06.68-.07.69-.18.66-.3.62-.4.56-.48.48-.56.4-.62.28-42.97 15.68-55.2 20.08-.4.12-.42.07-.42.02-.56-.01-63.46-1.43v-.26l-40.43-.67-.48-.06-.46-.14-.43-.2-.4-.3-.32-.34-.27-.4-.2-.43-.1-.46-.04-.48.05-.47.12-.45.2-.43.28-.38.34-.33.39-.27.42-.2 53.75-19.49 42.81-15.51 1.67-.6.24-.07.24-.05h.25l.37-.02 7.23-.25 16.5-.42 22.82-.28h12.96l6.73.05z"/><path d="M286.67 39.73l-7.19-3.47-20.67 4.81-15.77 4.68-8.04 2.6-5.75 2.68-4.63 3-4.75 3.88-4.97 5.96-5.04 9.82-1.49 9.79-.64 8.42.14 27.78 18.8-2.93-10.81-25.4-2.06-14.76 5.28-15.66 8.17-8.6 7.75-3.99 12.95-4.05 13.43-3.82 8.27-1.92 9.52-.6 1.6.33 3.22 1.29 2.68.16z" fill="#008fd7"/><path d="M288.36 38.06l.26.31.2.36.15.38.07.4v.42l-.07.4-.14.39-.2.35-.26.32-.3.27-.36.21-.38.15-.4.08h-.41l-1.44-.06-1.24-.07-.38-.05-.38-.1-3.02-1.18-1.07-.2-3.29.2-3.7 1.12-12.08 3.53-1.33.47-7.95 2.62-4.14 1.3-2.05.62-2.1.7-5.6 1.79-3.68 1.7-1.51.7-4.16 2.66-4.22 3.4-.03.03-1.25 1.48-4.77 14.14.19.02 1.52 10.89.13-.03.4 2.6L230 115.32l.23-.1.2.6.11.64v.64l-.1.64-.21.6-.3.57-.4.51-.48.44-.54.35-.6.27-.63.16-11.46 1.86-7.33 1.19-.7.05-.7-.06-.67-.19-.64-.3-.58-.4-.5-.5-.4-.57-.31-.64-.2-.68-.06-.71-.38-27.96.23-3.42.37-5.35 1.44-9.96.16-.72.28-.67 5.2-10.31 5.5-6.7.03-.03 5.27-4.36 5.12-3.35 1.83-.87 4.47-2.1 6.1-1.98 2.28-.73 2.1-.61 4.29-1.2 8.28-2.19 1.4-.34 14.41-2.63 6.65-1.06.54-.02.52.07.51.1-.01.05.45.23 1.72.97 4.96 2.88.25.14.35.21.31.27zm-76.26 54l-.08 22.88 2.56-.38 6.6-.98-8.66-20.82-.15-.45-.09-.47-.1-.74-.08.95z" fill="#008fd7"/></g><g><text x="20.86" y="108.65" font-family="'NanumPen','Nanum Pen Script',cursive" font-size="30" fill="#a0a0a0" transform="rotate(-4.33 -89 -181.1)">Einleitung</text></g><g><text x="104.67" y="155.16" font-family="'NanumPen','Nanum Pen Script',cursive" font-size="30" fill="#a0a0a0" transform="rotate(7.49 -31.92 -134.59)">Ziele</text></g><g><text x="20.61" y="260.13" font-family="'NanumPen','Nanum Pen Script',cursive" font-size="30" fill="#a0a0a0" transform="rotate(-1.43 -77.13 -29.61)">Ausgangslage</text></g><g font-family="'NanumPen','Nanum Pen Script',cursive" font-size="30" fill="#a0a0a0"><text x="94.8" y="289.75" transform="translate(301.1 -204.63)">Oft gestellte</text><text x="128.41" y="319.75" transform="translate(301.1 -204.63)">Fragen</text></g><g><text x="417.37" y="197.29" font-family="'NanumPen','Nanum Pen Script',cursive" font-size="30" fill="#a0a0a0" transform="rotate(-1.55 295.25 -92.46)">Persona</text></g><g><text x="373.22" y="289.1" font-family="'NanumPen','Nanum Pen Script',cursive" font-size="30" fill="#a0a0a0" transform="rotate(-2.33 276.08 -.65)">Konversationen</text></g></svg>