<?xml version="1.0" encoding="UTF-8" standalone="no"?><!DOCTYPE svg PUBLIC "-//W3C//DTD SVG 1.1//EN" "http://www.w3.org/Graphics/SVG/1.1/DTD/svg11.dtd"><svg width="100%" height="100%" viewBox="0 0 561 341" version="1.1" xmlns="http://www.w3.org/2000/svg" xmlns:xlink="http://www.w3.org/1999/xlink" xml:space="preserve" xmlns:serif="http://www.serif.com/" style="fill-rule:evenodd;clip-rule:evenodd;stroke-linejoin:round;stroke-miterlimit:1.41421;"><rect id="Workshop" x="0.488" y="0.02" width="560" height="340" style="fill:none;"/><g><g><ellipse cx="237.235" cy="299.951" rx="19.377" ry="13.295" style="fill:#b8b8b8;"/><path d="M236.996,287.908l-0.156,0.005l-0.083,0.002l-0.237,0.01l-0.237,0.012l-0.236,0.013l-0.235,0.016l-0.234,0.017l-0.233,0.02l-0.233,0.022l-0.231,0.023l-0.23,0.026l-0.229,0.027l-0.229,0.029l-0.227,0.031l-0.226,0.033l-0.225,0.035l-0.223,0.037l-0.223,0.038l-0.222,0.041l-0.22,0.042l-0.219,0.044l-0.218,0.046l-0.217,0.047l-0.215,0.049l-0.215,0.051l-0.212,0.053l-0.212,0.054l-0.21,0.056l-0.209,0.058l-0.208,0.06l-0.206,0.061l-0.205,0.062l-0.203,0.064l-0.202,0.066l-0.2,0.068l-0.199,0.069l-0.198,0.07l-0.196,0.072l-0.194,0.074l-0.193,0.075l-0.191,0.076l-0.19,0.078l-0.188,0.08l-0.186,0.08l-0.185,0.083l-0.183,0.083l-0.181,0.085l-0.108,0.052l-0.072,0.035l-0.178,0.087l-0.176,0.089l-0.175,0.09l-0.173,0.092l-0.17,0.092l-0.17,0.095l-0.167,0.095l-0.165,0.096l-0.164,0.098l-0.161,0.099l-0.16,0.1l-0.157,0.101l-0.156,0.102l-0.154,0.104l-0.152,0.104l-0.15,0.106l-0.147,0.107l-0.146,0.107l-0.144,0.109l-0.141,0.11l-0.14,0.111l-0.137,0.111l-0.135,0.113l-0.134,0.113l-0.131,0.115l-0.128,0.115l-0.127,0.116l-0.124,0.117l-0.123,0.118l-0.12,0.119l-0.117,0.119l-0.116,0.12l-0.113,0.121l-0.111,0.122l-0.108,0.122l-0.107,0.123l-0.104,0.124l-0.101,0.124l-0.1,0.125l-0.097,0.125l-0.094,0.127l-0.093,0.126l-0.089,0.127l-0.088,0.128l-0.085,0.128l-0.083,0.129l-0.08,0.129l-0.078,0.13l-0.075,0.13l-0.073,0.131l-0.071,0.131l-0.068,0.131l-0.066,0.132l-0.063,0.132l-0.061,0.132l-0.058,0.133l-0.056,0.133l-0.054,0.134l-0.051,0.133l-0.048,0.135l-0.047,0.134l-0.043,0.135l-0.041,0.135l-0.039,0.135l-0.036,0.136l-0.035,0.139l-0.015,0.065l-0.015,0.068l-0.015,0.068l-0.014,0.068l-0.014,0.069l-0.013,0.068l-0.012,0.069l-0.011,0.068l-0.011,0.069l-0.011,0.069l-0.009,0.069l-0.009,0.068l-0.009,0.069l-0.008,0.07l-0.007,0.069l-0.007,0.069l-0.006,0.069l-0.005,0.07l-0.004,0.069l-0.005,0.07l-0.003,0.069l-0.003,0.07l-0.002,0.07l-0.001,0.07l-0.001,0.07l0,0.07l0,0.07l0.001,0.07l0.002,0.071l0.003,0.07l0.003,0.07l0.003,0.07l0.005,0.069l0.005,0.07l0.005,0.069l0.006,0.07l0.007,0.069l0.008,0.069l0.008,0.069l0.009,0.068l0.009,0.069l0.01,0.068l0.011,0.069l0.011,0.068l0.012,0.068l0.012,0.068l0.013,0.068l0.014,0.067l0.014,0.068l0.015,0.067l0.016,0.067l0.016,0.068l0.016,0.067l0.018,0.067l0.018,0.066l0.017,0.063l0.04,0.137l0.041,0.133l0.044,0.132l0.046,0.131l0.049,0.132l0.05,0.13l0.054,0.13l0.055,0.13l0.058,0.129l0.061,0.129l0.062,0.129l0.065,0.127l0.068,0.128l0.069,0.126l0.072,0.127l0.075,0.126l0.076,0.125l0.08,0.124l0.081,0.125l0.084,0.123l0.086,0.123l0.088,0.122l0.09,0.122l0.093,0.121l0.095,0.121l0.098,0.12l0.099,0.119l0.102,0.118l0.104,0.118l0.107,0.117l0.108,0.116l0.111,0.116l0.113,0.115l0.115,0.114l0.118,0.113l0.119,0.112l0.122,0.112l0.123,0.11l0.126,0.11l0.128,0.109l0.13,0.108l0.132,0.106l0.135,0.106l0.136,0.105l0.138,0.104l0.14,0.103l0.133,0.096l0.009,0.006l0.145,0.102l0.146,0.1l0.147,0.099l0.15,0.097l0.152,0.097l0.154,0.096l0.155,0.094l0.158,0.093l0.159,0.092l0.161,0.091l0.163,0.09l0.165,0.088l0.166,0.088l0.168,0.085l0.17,0.085l0.172,0.083l0.173,0.082l0.175,0.081l0.176,0.079l0.178,0.078l0.18,0.077l0.182,0.075l0.183,0.073l0.184,0.073l0.186,0.07l0.188,0.07l0.189,0.068l0.19,0.066l0.192,0.065l0.193,0.063l0.195,0.062l0.196,0.06l0.198,0.059l0.199,0.057l0.2,0.055l0.201,0.054l0.203,0.052l0.204,0.051l0.205,0.049l0.207,0.047l0.207,0.045l0.209,0.044l0.21,0.042l0.212,0.041l0.212,0.038l0.213,0.037l0.215,0.036l0.215,0.033l0.217,0.032l0.218,0.029l0.218,0.028l0.22,0.026l0.22,0.025l0.222,0.022l0.222,0.021l0.224,0.018l0.224,0.017l0.225,0.015l0.226,0.013l0.227,0.011l0.227,0.009l0.229,0.007l0.229,0.005l0.23,0.003l0.23,0.001l0.17,0l0.061,-0.001l0.232,-0.002l0.232,-0.005l0.231,-0.006l0.231,-0.009l0.229,-0.01l0.229,-0.013l0.227,-0.014l0.227,-0.017l0.226,-0.018l0.225,-0.02l0.223,-0.022l0.223,-0.024l0.222,-0.026l0.221,-0.027l0.22,-0.03l0.219,-0.031l0.217,-0.033l0.217,-0.035l0.215,-0.036l0.215,-0.039l0.213,-0.04l0.212,-0.042l0.211,-0.043l0.209,-0.045l0.208,-0.047l0.207,-0.049l0.206,-0.05l0.205,-0.052l0.203,-0.053l0.202,-0.056l0.2,-0.056l0.199,-0.058l0.198,-0.06l0.196,-0.061l0.195,-0.063l0.193,-0.065l0.192,-0.065l0.19,-0.068l0.189,-0.069l0.187,-0.07l0.186,-0.071l0.184,-0.073l0.183,-0.075l0.181,-0.076l0.179,-0.077l0.178,-0.078l0.176,-0.08l0.174,-0.081l0.173,-0.082l0.171,-0.084l0.169,-0.085l0.167,-0.086l0.166,-0.087l0.163,-0.088l0.162,-0.09l0.16,-0.091l0.158,-0.092l0.157,-0.093l0.154,-0.094l0.153,-0.095l0.15,-0.096l0.125,-0.081l0.024,-0.016l0.147,-0.098l0.145,-0.099l0.142,-0.099l0.141,-0.101l0.139,-0.102l0.137,-0.102l0.135,-0.103l0.132,-0.105l0.131,-0.105l0.129,-0.106l0.126,-0.106l0.124,-0.108l0.122,-0.108l0.12,-0.109l0.118,-0.11l0.115,-0.11l0.114,-0.111l0.111,-0.111l0.109,-0.113l0.106,-0.113l0.105,-0.113l0.102,-0.114l0.1,-0.114l0.097,-0.115l0.096,-0.116l0.093,-0.116l0.09,-0.116l0.089,-0.117l0.086,-0.117l0.084,-0.117l0.082,-0.118l0.079,-0.118l0.077,-0.119l0.074,-0.119l0.073,-0.119l0.07,-0.119l0.067,-0.12l0.066,-0.12l0.063,-0.12l0.061,-0.12l0.058,-0.121l0.056,-0.121l0.054,-0.12l0.052,-0.122l0.049,-0.121l0.047,-0.121l0.044,-0.122l0.043,-0.122l0.04,-0.122l0.038,-0.122l0.035,-0.122l0.034,-0.122l0.032,-0.128l0.014,-0.057l0.014,-0.061l0.013,-0.061l0.013,-0.062l0.013,-0.062l0.012,-0.061l0.011,-0.062l0.011,-0.062l0.01,-0.061l0.009,-0.062l0.009,-0.062l0.009,-0.062l0.008,-0.062l0.007,-0.062l0.007,-0.063l0.006,-0.062l0.006,-0.062l0.005,-0.063l0.004,-0.062l0.004,-0.063l0.003,-0.062l0.003,-0.063l0.002,-0.063l0.002,-0.063l0.001,-0.063l0.001,-0.063l-0.001,-0.063l0,-0.064l-0.001,-0.03l0,-0.033l-0.002,-0.063l-0.002,-0.063l-0.003,-0.063l-0.003,-0.063l-0.004,-0.062l-0.005,-0.063l-0.005,-0.062l-0.005,-0.063l-0.006,-0.062l-0.007,-0.062l-0.007,-0.062l-0.008,-0.062l-0.009,-0.062l-0.009,-0.061l-0.009,-0.062l-0.01,-0.061l-0.011,-0.062l-0.011,-0.061l-0.012,-0.061l-0.012,-0.061l-0.013,-0.061l-0.014,-0.061l-0.014,-0.061l-0.014,-0.061l-0.015,-0.061l-0.016,-0.06l-0.015,-0.056l-0.035,-0.126l-0.037,-0.12l-0.038,-0.121l-0.041,-0.12l-0.043,-0.12l-0.045,-0.119l-0.048,-0.12l-0.049,-0.119l-0.052,-0.118l-0.054,-0.119l-0.057,-0.118l-0.058,-0.118l-0.061,-0.118l-0.063,-0.117l-0.048,-0.086l-0.017,-0.031l-0.067,-0.118l-0.07,-0.117l-0.071,-0.116l-0.074,-0.117l-0.076,-0.116l-0.078,-0.115l-0.081,-0.115l-0.082,-0.115l-0.085,-0.115l-0.088,-0.114l-0.089,-0.113l-0.092,-0.114l-0.094,-0.112l-0.096,-0.112l-0.099,-0.112l-0.101,-0.111l-0.103,-0.111l-0.105,-0.11l-0.107,-0.109l-0.11,-0.109l-0.102,-0.099l-0.009,-0.009l-0.113,-0.11l-0.114,-0.108l-0.117,-0.108l-0.119,-0.107l-0.121,-0.106l-0.123,-0.106l-0.125,-0.105l-0.128,-0.104l-0.037,-0.03l-0.091,-0.075l-0.13,-0.105l-0.132,-0.104l-0.134,-0.104l-0.136,-0.102l-0.138,-0.102l-0.14,-0.1l-0.143,-0.1l-0.035,-0.024l-0.107,-0.078l-0.144,-0.101l-0.147,-0.1l-0.148,-0.1l-0.15,-0.099l-0.153,-0.097l-0.154,-0.097l-0.156,-0.095l-0.158,-0.095l-0.16,-0.093l-0.162,-0.093l-0.164,-0.091l-0.166,-0.09l-0.168,-0.089l-0.144,-0.075l-0.025,-0.014l-0.168,-0.093l-0.171,-0.092l-0.172,-0.09l-0.174,-0.09l-0.176,-0.088l-0.178,-0.087l-0.18,-0.086l-0.181,-0.085l-0.183,-0.083l-0.185,-0.082l-0.187,-0.081l-0.188,-0.079l-0.191,-0.078l-0.192,-0.076l-0.193,-0.076l-0.195,-0.073l-0.197,-0.072l-0.198,-0.071l-0.201,-0.07l-0.201,-0.067l-0.203,-0.067l-0.205,-0.064l-0.206,-0.063l-0.148,-0.044l-0.059,-0.02l-0.208,-0.068l-0.209,-0.066l-0.211,-0.065l-0.213,-0.063l-0.214,-0.061l-0.215,-0.06l-0.217,-0.058l-0.219,-0.057l-0.22,-0.054l-0.221,-0.053l-0.223,-0.051l-0.224,-0.05l-0.226,-0.047l-0.227,-0.046l-0.229,-0.044l-0.192,-0.036l-0.037,-0.007l-0.231,-0.047l-0.232,-0.044l-0.234,-0.042l-0.235,-0.041l-0.237,-0.038l-0.237,-0.037l-0.162,-0.023l-0.082,-0.013l-0.235,0.006Zm0.501,-2.531l0.261,-0.03l0.261,-0.028l0.261,-0.025l0.261,-0.023l0.26,-0.021l0.26,-0.018l0.043,-0.003l0.216,-0.009l0.259,-0.007l0.259,-0.006l0.258,-0.003l0.257,-0.001l0.257,0.001l0.257,0.004l0.256,0.005l0.255,0.008l0.255,0.011l0.254,0.012l0.254,0.015l0.252,0.017l0.253,0.02l0.251,0.021l0.251,0.024l0.072,0.007l0.177,0.024l0.247,0.036l0.247,0.038l0.246,0.041l0.244,0.042l0.244,0.044l0.243,0.047l0.242,0.048l0.241,0.051l0.239,0.053l0.239,0.055l0.237,0.057l0.237,0.059l0.235,0.061l0.234,0.064l0.233,0.065l0.232,0.067l0.231,0.07l0.229,0.071l0.229,0.073l0.227,0.076l0.225,0.077l0.225,0.08l0.223,0.082l0.032,0.012l0.187,0.077l0.217,0.091l0.216,0.094l0.214,0.096l0.213,0.098l0.211,0.099l0.21,0.101l0.208,0.104l0.206,0.105l0.205,0.107l0.203,0.109l0.202,0.111l0.2,0.113l0.198,0.114l0.148,0.089l0.048,0.029l0.192,0.122l0.191,0.123l0.188,0.125l0.187,0.128l0.185,0.129l0.183,0.13l0.181,0.133l0.127,0.095l0.051,0.04l0.175,0.138l0.173,0.14l0.171,0.142l0.169,0.144l0.167,0.145l0.165,0.147l0.162,0.149l0.16,0.15l0.014,0.013l0.142,0.14l0.154,0.156l0.152,0.157l0.149,0.158l0.147,0.161l0.145,0.161l0.142,0.164l0.139,0.165l0.137,0.167l0.135,0.168l0.132,0.17l0.129,0.172l0.126,0.173l0.124,0.175l0.121,0.176l0.119,0.178l0.115,0.179l0.113,0.181l0.11,0.183l0.107,0.184l0.104,0.185l0.027,0.051l0.074,0.137l0.097,0.188l0.094,0.191l0.091,0.191l0.088,0.193l0.085,0.195l0.082,0.196l0.078,0.197l0.075,0.198l0.071,0.2l0.069,0.201l0.064,0.202l0.061,0.203l0.058,0.205l0.053,0.2l0.027,0.109l0.025,0.103l0.023,0.104l0.023,0.104l0.022,0.104l0.022,0.105l0.02,0.105l0.019,0.105l0.018,0.105l0.018,0.105l0.016,0.106l0.016,0.106l0.014,0.106l0.014,0.106l0.012,0.107l0.012,0.106l0.011,0.107l0.009,0.107l0.009,0.107l0.008,0.108l0.007,0.107l0.005,0.108l0.005,0.108l0.004,0.108l0.003,0.108l0.002,0.109l0,0.108l0,0.056l0,0.052l-0.002,0.109l-0.002,0.108l-0.004,0.109l-0.004,0.108l-0.006,0.107l-0.006,0.108l-0.007,0.108l-0.009,0.107l-0.009,0.107l-0.011,0.107l-0.011,0.107l-0.012,0.106l-0.014,0.107l-0.014,0.106l-0.015,0.106l-0.016,0.105l-0.017,0.106l-0.019,0.105l-0.019,0.105l-0.019,0.104l-0.021,0.105l-0.022,0.104l-0.023,0.103l-0.023,0.104l-0.025,0.103l-0.025,0.103l-0.027,0.103l-0.028,0.108l-0.056,0.198l-0.061,0.203l-0.064,0.201l-0.067,0.201l-0.071,0.198l-0.075,0.198l-0.077,0.196l-0.081,0.195l-0.084,0.193l-0.088,0.192l-0.09,0.19l-0.094,0.189l-0.097,0.188l-0.099,0.186l-0.103,0.184l-0.106,0.183l-0.108,0.181l-0.111,0.18l-0.115,0.178l-0.117,0.177l-0.119,0.174l-0.123,0.174l-0.125,0.172l-0.128,0.17l-0.13,0.168l-0.133,0.167l-0.135,0.165l-0.138,0.164l-0.141,0.162l-0.143,0.16l-0.145,0.158l-0.148,0.157l-0.15,0.156l-0.152,0.153l-0.155,0.152l-0.157,0.15l-0.159,0.149l-0.161,0.147l-0.164,0.145l-0.166,0.143l-0.167,0.142l-0.17,0.14l-0.172,0.138l-0.174,0.137l-0.177,0.135l-0.178,0.133l-0.18,0.132l-0.182,0.129l-0.184,0.128l-0.186,0.127l-0.188,0.124l-0.19,0.123l-0.191,0.121l-0.031,0.019l-0.163,0.1l-0.195,0.117l-0.198,0.115l-0.199,0.114l-0.2,0.112l-0.203,0.11l-0.204,0.108l-0.206,0.106l-0.208,0.105l-0.209,0.102l-0.211,0.101l-0.212,0.099l-0.215,0.098l-0.215,0.095l-0.217,0.094l-0.219,0.091l-0.22,0.09l-0.222,0.088l-0.223,0.086l-0.225,0.084l-0.226,0.082l-0.228,0.081l-0.229,0.078l-0.23,0.076l-0.232,0.075l-0.233,0.072l-0.234,0.071l-0.236,0.069l-0.237,0.066l-0.238,0.065l-0.24,0.063l-0.241,0.06l-0.242,0.059l-0.243,0.057l-0.244,0.054l-0.246,0.053l-0.247,0.05l-0.248,0.049l-0.248,0.046l-0.25,0.044l-0.252,0.042l-0.252,0.04l-0.253,0.038l-0.254,0.036l-0.255,0.034l-0.257,0.031l-0.257,0.029l-0.258,0.027l-0.259,0.025l-0.26,0.023l-0.261,0.02l-0.261,0.019l-0.263,0.016l-0.263,0.013l-0.265,0.012l-0.265,0.009l-0.265,0.007l-0.267,0.004l-0.267,0.003l-0.268,0l-0.269,-0.003l-0.268,-0.004l-0.072,-0.002l-0.196,-0.006l-0.267,-0.009l-0.266,-0.012l-0.265,-0.015l-0.264,-0.016l-0.264,-0.019l-0.262,-0.021l-0.262,-0.023l-0.26,-0.026l-0.26,-0.027l-0.258,-0.03l-0.258,-0.032l-0.256,-0.034l-0.255,-0.036l-0.255,-0.039l-0.253,-0.04l-0.252,-0.043l-0.251,-0.044l-0.249,-0.047l-0.249,-0.049l-0.247,-0.051l-0.247,-0.053l-0.245,-0.055l-0.243,-0.056l-0.243,-0.059l-0.241,-0.061l-0.24,-0.063l-0.238,-0.065l-0.237,-0.067l-0.236,-0.068l-0.235,-0.071l-0.233,-0.072l-0.231,-0.075l-0.231,-0.076l-0.228,-0.078l-0.228,-0.08l-0.226,-0.082l-0.224,-0.084l-0.223,-0.086l-0.221,-0.087l-0.22,-0.089l-0.218,-0.091l-0.217,-0.093l-0.215,-0.095l-0.213,-0.096l-0.212,-0.098l-0.21,-0.1l-0.208,-0.101l-0.207,-0.104l-0.205,-0.105l-0.203,-0.106l-0.202,-0.109l-0.199,-0.11l-0.198,-0.112l-0.196,-0.113l-0.195,-0.115l-0.192,-0.117l-0.191,-0.118l-0.188,-0.12l-0.187,-0.122l-0.185,-0.123l-0.183,-0.125l-0.181,-0.126l-0.178,-0.128l-0.177,-0.13l-0.175,-0.131l-0.012,-0.009l-0.161,-0.124l-0.17,-0.134l-0.169,-0.136l-0.166,-0.138l-0.164,-0.139l-0.163,-0.14l-0.159,-0.142l-0.158,-0.144l-0.155,-0.145l-0.154,-0.147l-0.15,-0.148l-0.149,-0.149l-0.146,-0.151l-0.144,-0.153l-0.141,-0.153l-0.14,-0.156l-0.136,-0.157l-0.134,-0.158l-0.132,-0.159l-0.129,-0.161l-0.127,-0.163l-0.124,-0.163l-0.121,-0.166l-0.119,-0.166l-0.116,-0.168l-0.113,-0.169l-0.111,-0.171l-0.108,-0.171l-0.105,-0.174l-0.103,-0.174l-0.099,-0.176l-0.097,-0.177l-0.093,-0.178l-0.091,-0.179l-0.088,-0.181l-0.084,-0.182l-0.082,-0.183l-0.079,-0.184l-0.075,-0.185l-0.073,-0.187l-0.069,-0.187l-0.066,-0.189l-0.062,-0.189l-0.06,-0.191l-0.056,-0.192l-0.052,-0.192l-0.049,-0.19l-0.024,-0.101l-0.023,-0.097l-0.021,-0.098l-0.021,-0.098l-0.02,-0.097l-0.019,-0.099l-0.018,-0.098l-0.018,-0.099l-0.016,-0.098l-0.015,-0.099l-0.015,-0.099l-0.014,-0.1l-0.013,-0.099l-0.012,-0.1l-0.011,-0.1l-0.01,-0.1l-0.009,-0.1l-0.008,-0.1l-0.008,-0.101l-0.006,-0.1l-0.006,-0.101l-0.004,-0.101l-0.004,-0.101l-0.003,-0.101l-0.002,-0.101l-0.001,-0.101l0,-0.102l0.001,-0.102l0.002,-0.101l0.003,-0.101l0.004,-0.102l0.005,-0.101l0.005,-0.101l0.007,-0.1l0.007,-0.101l0.009,-0.1l0.009,-0.1l0.01,-0.1l0.011,-0.1l0.012,-0.1l0.013,-0.099l0.014,-0.099l0.015,-0.099l0.016,-0.099l0.016,-0.098l0.017,-0.098l0.019,-0.098l0.019,-0.098l0.02,-0.098l0.021,-0.097l0.021,-0.097l0.023,-0.097l0.023,-0.096l0.025,-0.096l0.025,-0.096l0.027,-0.1l0.053,-0.187l0.058,-0.189l0.061,-0.189l0.064,-0.187l0.068,-0.186l0.07,-0.185l0.074,-0.183l0.077,-0.183l0.08,-0.181l0.083,-0.18l0.086,-0.178l0.089,-0.177l0.091,-0.176l0.095,-0.175l0.098,-0.173l0.1,-0.172l0.103,-0.17l0.106,-0.169l0.109,-0.168l0.111,-0.166l0.114,-0.165l0.117,-0.163l0.119,-0.162l0.122,-0.16l0.124,-0.159l0.127,-0.158l0.129,-0.156l0.132,-0.154l0.134,-0.153l0.136,-0.152l0.139,-0.15l0.142,-0.148l0.143,-0.147l0.146,-0.146l0.148,-0.144l0.15,-0.142l0.153,-0.141l0.154,-0.139l0.157,-0.138l0.159,-0.136l0.161,-0.135l0.164,-0.133l0.165,-0.132l0.167,-0.13l0.169,-0.128l0.172,-0.127l0.173,-0.125l0.175,-0.123l0.177,-0.122l0.18,-0.121l0.181,-0.118l0.182,-0.117l0.185,-0.116l0.187,-0.113l0.188,-0.112l0.19,-0.111l0.192,-0.108l0.194,-0.107l0.195,-0.106l0.197,-0.103l0.199,-0.102l0.2,-0.101l0.202,-0.098l0.204,-0.097l0.206,-0.095l0.207,-0.093l0.083,-0.037l0.125,-0.054l0.21,-0.09l0.212,-0.088l0.213,-0.086l0.215,-0.084l0.216,-0.082l0.218,-0.081l0.219,-0.079l0.22,-0.077l0.222,-0.075l0.223,-0.073l0.225,-0.071l0.226,-0.07l0.227,-0.067l0.229,-0.066l0.23,-0.063l0.231,-0.062l0.232,-0.06l0.234,-0.058l0.235,-0.056l0.236,-0.054l0.237,-0.052l0.239,-0.05l0.239,-0.048l0.241,-0.046l0.242,-0.045l0.242,-0.042l0.244,-0.04l0.245,-0.037l0.246,-0.036l0.247,-0.034l0.248,-0.032l0.249,-0.029l0.25,-0.028l0.251,-0.025l0.252,-0.024l0.252,-0.021l0.254,-0.019l0.254,-0.016l0.255,-0.015l0.256,-0.012l0.257,-0.011l0.258,-0.007l0.258,-0.006l0.259,-0.004l0.26,-0.001l0.09,0l0.17,0.001l0.266,0.004l0.087,-0.012l0.17,-0.022Z"/><ellipse cx="283.173" cy="300.067" rx="19.377" ry="13.295" style="fill:#b8b8b8;"/><path d="M282.933,288.023l-0.156,0.005l-0.082,0.003l-0.238,0.01l-0.237,0.011l-0.236,0.014l-0.235,0.016l-0.234,0.017l-0.233,0.02l-0.232,0.021l-0.231,0.024l-0.231,0.025l-0.229,0.028l-0.228,0.029l-0.227,0.031l-0.226,0.033l-0.225,0.035l-0.224,0.037l-0.223,0.038l-0.221,0.041l-0.221,0.042l-0.219,0.044l-0.218,0.045l-0.216,0.048l-0.216,0.049l-0.214,0.051l-0.213,0.053l-0.212,0.054l-0.21,0.056l-0.209,0.058l-0.207,0.059l-0.207,0.061l-0.204,0.063l-0.204,0.064l-0.202,0.066l-0.2,0.067l-0.199,0.069l-0.197,0.071l-0.196,0.072l-0.195,0.073l-0.193,0.075l-0.191,0.077l-0.189,0.078l-0.188,0.079l-0.187,0.081l-0.185,0.082l-0.183,0.084l-0.181,0.085l-0.108,0.052l-0.072,0.034l-0.178,0.088l-0.176,0.089l-0.174,0.09l-0.173,0.091l-0.171,0.093l-0.169,0.094l-0.167,0.095l-0.166,0.097l-0.163,0.098l-0.162,0.099l-0.159,0.1l-0.158,0.101l-0.156,0.102l-0.154,0.104l-0.151,0.104l-0.15,0.106l-0.148,0.106l-0.146,0.108l-0.143,0.109l-0.142,0.11l-0.139,0.11l-0.138,0.112l-0.135,0.113l-0.133,0.113l-0.131,0.115l-0.129,0.115l-0.127,0.116l-0.124,0.117l-0.122,0.118l-0.12,0.118l-0.118,0.12l-0.115,0.12l-0.113,0.121l-0.111,0.122l-0.109,0.122l-0.106,0.123l-0.104,0.123l-0.102,0.125l-0.099,0.125l-0.097,0.125l-0.095,0.126l-0.092,0.127l-0.09,0.127l-0.087,0.128l-0.086,0.128l-0.082,0.129l-0.081,0.129l-0.077,0.13l-0.076,0.13l-0.073,0.13l-0.07,0.131l-0.069,0.132l-0.065,0.131l-0.064,0.132l-0.061,0.133l-0.058,0.133l-0.056,0.133l-0.053,0.133l-0.051,0.134l-0.049,0.134l-0.046,0.135l-0.044,0.134l-0.041,0.135l-0.039,0.136l-0.036,0.135l-0.035,0.14l-0.015,0.064l-0.015,0.069l-0.015,0.068l-0.014,0.068l-0.013,0.068l-0.013,0.069l-0.012,0.068l-0.012,0.069l-0.011,0.069l-0.01,0.068l-0.01,0.069l-0.009,0.069l-0.008,0.069l-0.008,0.069l-0.008,0.069l-0.006,0.07l-0.006,0.069l-0.005,0.069l-0.005,0.07l-0.004,0.069l-0.003,0.07l-0.003,0.07l-0.002,0.07l-0.002,0.07l-0.001,0.07l0,0.07l0.001,0.07l0.001,0.07l0.002,0.07l0.002,0.071l0.003,0.07l0.004,0.069l0.004,0.07l0.005,0.07l0.006,0.069l0.006,0.069l0.007,0.069l0.007,0.069l0.008,0.069l0.009,0.069l0.01,0.069l0.009,0.068l0.011,0.068l0.011,0.068l0.012,0.069l0.013,0.067l0.013,0.068l0.013,0.068l0.015,0.067l0.015,0.068l0.015,0.067l0.016,0.067l0.017,0.067l0.017,0.067l0.018,0.067l0.018,0.063l0.04,0.137l0.041,0.132l0.044,0.132l0.046,0.132l0.048,0.131l0.051,0.131l0.053,0.13l0.056,0.13l0.058,0.129l0.06,0.129l0.063,0.128l0.065,0.128l0.067,0.127l0.07,0.127l0.072,0.126l0.074,0.126l0.077,0.125l0.079,0.125l0.081,0.124l0.084,0.124l0.086,0.123l0.088,0.122l0.091,0.122l0.093,0.121l0.095,0.121l0.097,0.119l0.1,0.12l0.102,0.118l0.104,0.118l0.106,0.117l0.109,0.116l0.111,0.116l0.113,0.114l0.115,0.114l0.117,0.113l0.12,0.113l0.121,0.111l0.124,0.111l0.126,0.11l0.128,0.108l0.13,0.108l0.132,0.107l0.134,0.106l0.136,0.105l0.138,0.104l0.141,0.103l0.132,0.095l0.01,0.007l0.144,0.101l0.146,0.1l0.148,0.099l0.15,0.098l0.152,0.097l0.153,0.095l0.156,0.095l0.157,0.093l0.16,0.092l0.161,0.091l0.162,0.09l0.165,0.088l0.166,0.087l0.169,0.086l0.169,0.085l0.172,0.083l0.173,0.082l0.175,0.081l0.177,0.079l0.178,0.078l0.18,0.076l0.181,0.075l0.183,0.074l0.184,0.072l0.186,0.071l0.188,0.069l0.189,0.068l0.19,0.067l0.192,0.064l0.194,0.064l0.194,0.062l0.197,0.06l0.197,0.058l0.199,0.057l0.2,0.056l0.202,0.054l0.202,0.052l0.204,0.05l0.206,0.049l0.206,0.048l0.208,0.045l0.209,0.044l0.21,0.042l0.211,0.041l0.212,0.038l0.214,0.037l0.214,0.035l0.216,0.034l0.216,0.031l0.218,0.03l0.219,0.028l0.219,0.026l0.221,0.024l0.221,0.023l0.223,0.02l0.223,0.019l0.224,0.017l0.225,0.015l0.226,0.012l0.227,0.011l0.228,0.009l0.228,0.008l0.229,0.005l0.23,0.003l0.231,0.001l0.169,-0.001l0.062,0l0.232,-0.002l0.232,-0.005l0.231,-0.007l0.23,-0.008l0.229,-0.011l0.229,-0.012l0.228,-0.014l0.226,-0.017l0.226,-0.018l0.225,-0.02l0.224,-0.022l0.223,-0.024l0.222,-0.026l0.221,-0.028l0.219,-0.029l0.219,-0.031l0.218,-0.033l0.216,-0.035l0.216,-0.037l0.214,-0.038l0.213,-0.04l0.212,-0.042l0.211,-0.044l0.21,-0.045l0.208,-0.047l0.207,-0.048l0.206,-0.05l0.204,-0.052l0.203,-0.054l0.202,-0.055l0.2,-0.056l0.199,-0.059l0.198,-0.059l0.196,-0.062l0.195,-0.063l0.193,-0.064l0.192,-0.066l0.191,-0.067l0.189,-0.069l0.187,-0.07l0.186,-0.072l0.184,-0.073l0.182,-0.074l0.181,-0.076l0.18,-0.077l0.177,-0.078l0.176,-0.08l0.175,-0.081l0.172,-0.083l0.171,-0.083l0.169,-0.085l0.167,-0.086l0.166,-0.087l0.164,-0.089l0.162,-0.089l0.16,-0.091l0.158,-0.092l0.156,-0.093l0.155,-0.094l0.152,-0.095l0.151,-0.096l0.124,-0.082l0.024,-0.015l0.147,-0.098l0.145,-0.099l0.143,-0.1l0.141,-0.1l0.139,-0.102l0.137,-0.102l0.134,-0.104l0.133,-0.104l0.131,-0.105l0.128,-0.106l0.126,-0.107l0.125,-0.107l0.122,-0.108l0.119,-0.109l0.118,-0.11l0.116,-0.11l0.113,-0.111l0.111,-0.112l0.109,-0.112l0.107,-0.113l0.104,-0.113l0.102,-0.114l0.1,-0.115l0.098,-0.115l0.095,-0.115l0.093,-0.116l0.091,-0.116l0.088,-0.117l0.087,-0.117l0.083,-0.118l0.082,-0.117l0.079,-0.119l0.077,-0.118l0.075,-0.119l0.072,-0.119l0.07,-0.12l0.068,-0.119l0.065,-0.12l0.063,-0.12l0.061,-0.121l0.058,-0.12l0.057,-0.121l0.053,-0.121l0.052,-0.121l0.049,-0.121l0.047,-0.122l0.045,-0.121l0.042,-0.122l0.04,-0.122l0.038,-0.122l0.036,-0.122l0.033,-0.123l0.033,-0.128l0.013,-0.056l0.014,-0.061l0.014,-0.062l0.013,-0.061l0.012,-0.062l0.012,-0.061l0.011,-0.062l0.011,-0.062l0.01,-0.062l0.01,-0.062l0.009,-0.061l0.008,-0.062l0.008,-0.063l0.008,-0.062l0.006,-0.062l0.007,-0.062l0.005,-0.062l0.005,-0.063l0.005,-0.062l0.004,-0.063l0.003,-0.063l0.003,-0.062l0.002,-0.063l0.002,-0.063l0.001,-0.063l0,-0.063l0,-0.063l-0.001,-0.064l0,-0.031l-0.001,-0.032l-0.002,-0.063l-0.002,-0.063l-0.002,-0.063l-0.004,-0.063l-0.004,-0.063l-0.004,-0.062l-0.005,-0.063l-0.006,-0.062l-0.006,-0.062l-0.007,-0.062l-0.007,-0.062l-0.008,-0.062l-0.008,-0.062l-0.009,-0.062l-0.01,-0.061l-0.01,-0.062l-0.011,-0.061l-0.011,-0.061l-0.011,-0.062l-0.013,-0.061l-0.013,-0.061l-0.013,-0.061l-0.014,-0.061l-0.015,-0.06l-0.015,-0.061l-0.015,-0.061l-0.015,-0.055l-0.036,-0.126l-0.036,-0.121l-0.039,-0.12l-0.04,-0.12l-0.043,-0.12l-0.046,-0.12l-0.047,-0.119l-0.05,-0.119l-0.052,-0.119l-0.054,-0.118l-0.056,-0.118l-0.059,-0.118l-0.061,-0.118l-0.063,-0.118l-0.047,-0.085l-0.018,-0.032l-0.067,-0.117l-0.069,-0.117l-0.072,-0.117l-0.073,-0.116l-0.076,-0.116l-0.079,-0.115l-0.08,-0.116l-0.083,-0.115l-0.085,-0.114l-0.087,-0.114l-0.09,-0.114l-0.092,-0.113l-0.094,-0.113l-0.096,-0.112l-0.098,-0.111l-0.101,-0.112l-0.103,-0.11l-0.105,-0.11l-0.108,-0.11l-0.109,-0.108l-0.102,-0.099l-0.01,-0.01l-0.112,-0.109l-0.115,-0.108l-0.116,-0.108l-0.119,-0.107l-0.121,-0.107l-0.123,-0.105l-0.126,-0.105l-0.127,-0.104l-0.038,-0.03l-0.09,-0.075l-0.13,-0.105l-0.132,-0.105l-0.134,-0.103l-0.136,-0.102l-0.139,-0.102l-0.14,-0.101l-0.142,-0.099l-0.035,-0.025l-0.108,-0.077l-0.144,-0.101l-0.146,-0.101l-0.148,-0.099l-0.151,-0.099l-0.152,-0.098l-0.154,-0.096l-0.157,-0.096l-0.158,-0.094l-0.16,-0.094l-0.162,-0.092l-0.164,-0.091l-0.166,-0.09l-0.167,-0.089l-0.145,-0.075l-0.024,-0.014l-0.169,-0.093l-0.17,-0.092l-0.172,-0.091l-0.175,-0.089l-0.176,-0.088l-0.177,-0.088l-0.18,-0.085l-0.182,-0.085l-0.183,-0.083l-0.185,-0.082l-0.187,-0.081l-0.188,-0.079l-0.19,-0.078l-0.192,-0.077l-0.194,-0.075l-0.195,-0.074l-0.197,-0.072l-0.198,-0.071l-0.2,-0.069l-0.202,-0.068l-0.203,-0.066l-0.205,-0.065l-0.206,-0.063l-0.148,-0.043l-0.059,-0.02l-0.208,-0.068l-0.209,-0.066l-0.211,-0.065l-0.212,-0.063l-0.214,-0.062l-0.216,-0.059l-0.217,-0.058l-0.218,-0.057l-0.22,-0.054l-0.222,-0.053l-0.223,-0.052l-0.224,-0.049l-0.226,-0.048l-0.227,-0.046l-0.228,-0.044l-0.192,-0.035l-0.038,-0.008l-0.231,-0.046l-0.232,-0.044l-0.234,-0.043l-0.235,-0.04l-0.236,-0.039l-0.238,-0.036l-0.162,-0.023l-0.081,-0.013l-0.236,0.005Zm0.501,-2.53l0.262,-0.03l0.261,-0.028l0.26,-0.026l0.261,-0.023l0.26,-0.02l0.26,-0.019l0.043,-0.002l0.217,-0.009l0.259,-0.008l0.258,-0.005l0.258,-0.004l0.258,-0.001l0.257,0.002l0.256,0.003l0.256,0.006l0.256,0.008l0.254,0.01l0.255,0.013l0.253,0.015l0.253,0.017l0.252,0.019l0.252,0.022l0.25,0.024l0.072,0.007l0.177,0.024l0.248,0.036l0.246,0.038l0.246,0.04l0.245,0.043l0.244,0.044l0.242,0.047l0.242,0.048l0.241,0.051l0.24,0.053l0.238,0.055l0.238,0.057l0.236,0.059l0.236,0.061l0.234,0.063l0.233,0.065l0.232,0.068l0.23,0.069l0.23,0.072l0.228,0.073l0.227,0.076l0.226,0.077l0.224,0.08l0.223,0.081l0.033,0.013l0.186,0.076l0.218,0.092l0.215,0.094l0.215,0.096l0.212,0.097l0.212,0.1l0.209,0.101l0.208,0.104l0.207,0.105l0.205,0.107l0.203,0.109l0.201,0.111l0.2,0.113l0.198,0.114l0.149,0.088l0.047,0.03l0.193,0.121l0.19,0.124l0.189,0.125l0.186,0.127l0.185,0.129l0.183,0.131l0.181,0.132l0.127,0.096l0.052,0.039l0.175,0.139l0.173,0.14l0.171,0.142l0.169,0.143l0.166,0.146l0.165,0.147l0.162,0.148l0.16,0.151l0.014,0.013l0.143,0.14l0.154,0.155l0.152,0.157l0.149,0.159l0.147,0.16l0.144,0.162l0.142,0.164l0.14,0.165l0.137,0.167l0.134,0.168l0.132,0.17l0.129,0.171l0.127,0.174l0.124,0.174l0.121,0.177l0.118,0.178l0.116,0.179l0.113,0.181l0.11,0.182l0.107,0.184l0.104,0.186l0.027,0.05l0.073,0.137l0.098,0.189l0.094,0.19l0.091,0.192l0.088,0.193l0.085,0.195l0.081,0.195l0.078,0.197l0.075,0.199l0.072,0.2l0.068,0.201l0.065,0.202l0.061,0.203l0.058,0.205l0.052,0.2l0.027,0.108l0.025,0.104l0.024,0.104l0.023,0.104l0.022,0.104l0.021,0.104l0.02,0.105l0.02,0.105l0.018,0.105l0.017,0.106l0.017,0.106l0.015,0.105l0.015,0.107l0.013,0.106l0.013,0.106l0.011,0.107l0.011,0.107l0.01,0.107l0.009,0.107l0.007,0.108l0.007,0.107l0.006,0.108l0.005,0.108l0.003,0.108l0.003,0.108l0.002,0.108l0.001,0.109l0,0.056l-0.001,0.052l-0.001,0.109l-0.003,0.108l-0.003,0.108l-0.005,0.108l-0.005,0.108l-0.007,0.108l-0.007,0.107l-0.008,0.108l-0.01,0.107l-0.01,0.107l-0.012,0.107l-0.012,0.106l-0.013,0.106l-0.015,0.106l-0.015,0.106l-0.016,0.106l-0.017,0.105l-0.018,0.105l-0.019,0.105l-0.02,0.105l-0.021,0.104l-0.022,0.104l-0.022,0.104l-0.024,0.104l-0.024,0.103l-0.026,0.103l-0.026,0.103l-0.029,0.107l-0.056,0.199l-0.06,0.203l-0.064,0.201l-0.068,0.2l-0.071,0.199l-0.074,0.198l-0.078,0.196l-0.081,0.194l-0.084,0.194l-0.087,0.192l-0.091,0.19l-0.093,0.189l-0.097,0.187l-0.1,0.186l-0.102,0.185l-0.106,0.183l-0.109,0.181l-0.111,0.18l-0.114,0.178l-0.117,0.176l-0.12,0.175l-0.122,0.174l-0.125,0.171l-0.128,0.17l-0.131,0.169l-0.133,0.167l-0.135,0.165l-0.138,0.163l-0.14,0.162l-0.143,0.161l-0.146,0.158l-0.147,0.157l-0.15,0.155l-0.153,0.154l-0.154,0.152l-0.157,0.15l-0.159,0.149l-0.162,0.146l-0.163,0.146l-0.166,0.143l-0.168,0.142l-0.17,0.14l-0.172,0.138l-0.174,0.137l-0.176,0.135l-0.178,0.133l-0.18,0.131l-0.182,0.13l-0.185,0.128l-0.185,0.126l-0.188,0.125l-0.19,0.123l-0.192,0.121l-0.031,0.019l-0.162,0.1l-0.196,0.117l-0.197,0.115l-0.199,0.114l-0.201,0.111l-0.203,0.11l-0.204,0.109l-0.206,0.106l-0.207,0.104l-0.21,0.103l-0.211,0.101l-0.212,0.099l-0.214,0.097l-0.216,0.096l-0.217,0.093l-0.219,0.092l-0.22,0.09l-0.222,0.088l-0.223,0.086l-0.225,0.084l-0.226,0.082l-0.227,0.08l-0.229,0.079l-0.231,0.076l-0.231,0.075l-0.234,0.072l-0.234,0.071l-0.236,0.068l-0.237,0.067l-0.238,0.065l-0.24,0.062l-0.24,0.061l-0.242,0.059l-0.244,0.056l-0.244,0.055l-0.245,0.053l-0.247,0.05l-0.248,0.048l-0.249,0.047l-0.25,0.044l-0.251,0.042l-0.252,0.04l-0.254,0.038l-0.254,0.036l-0.255,0.033l-0.256,0.032l-0.257,0.029l-0.258,0.027l-0.259,0.025l-0.26,0.023l-0.261,0.02l-0.262,0.018l-0.263,0.016l-0.263,0.014l-0.264,0.011l-0.265,0.01l-0.266,0.007l-0.266,0.004l-0.268,0.002l-0.268,0l-0.268,-0.002l-0.269,-0.005l-0.071,-0.002l-0.197,-0.005l-0.266,-0.01l-0.267,-0.012l-0.265,-0.014l-0.264,-0.016l-0.263,-0.019l-0.263,-0.021l-0.261,-0.023l-0.261,-0.026l-0.259,-0.027l-0.259,-0.03l-0.257,-0.032l-0.257,-0.034l-0.255,-0.037l-0.254,-0.038l-0.253,-0.04l-0.252,-0.043l-0.251,-0.045l-0.25,-0.046l-0.249,-0.049l-0.247,-0.051l-0.246,-0.053l-0.245,-0.055l-0.244,-0.057l-0.242,-0.059l-0.241,-0.061l-0.24,-0.062l-0.239,-0.065l-0.237,-0.067l-0.236,-0.069l-0.234,-0.07l-0.233,-0.073l-0.232,-0.074l-0.23,-0.076l-0.229,-0.079l-0.227,-0.08l-0.226,-0.082l-0.225,-0.083l-0.222,-0.086l-0.222,-0.087l-0.22,-0.09l-0.218,-0.091l-0.216,-0.092l-0.215,-0.095l-0.214,-0.096l-0.211,-0.098l-0.21,-0.1l-0.209,-0.102l-0.207,-0.103l-0.204,-0.105l-0.204,-0.107l-0.201,-0.108l-0.2,-0.11l-0.198,-0.112l-0.196,-0.113l-0.194,-0.115l-0.193,-0.117l-0.19,-0.118l-0.189,-0.12l-0.187,-0.122l-0.184,-0.123l-0.183,-0.125l-0.181,-0.126l-0.179,-0.128l-0.177,-0.13l-0.175,-0.131l-0.011,-0.009l-0.161,-0.124l-0.171,-0.134l-0.168,-0.136l-0.167,-0.138l-0.164,-0.139l-0.162,-0.141l-0.16,-0.142l-0.158,-0.143l-0.155,-0.145l-0.153,-0.147l-0.151,-0.148l-0.148,-0.149l-0.147,-0.151l-0.144,-0.153l-0.141,-0.154l-0.139,-0.155l-0.137,-0.157l-0.134,-0.158l-0.131,-0.16l-0.13,-0.161l-0.126,-0.162l-0.124,-0.164l-0.122,-0.165l-0.118,-0.166l-0.117,-0.168l-0.113,-0.169l-0.111,-0.171l-0.108,-0.172l-0.105,-0.173l-0.102,-0.174l-0.1,-0.176l-0.096,-0.177l-0.094,-0.178l-0.091,-0.18l-0.087,-0.18l-0.085,-0.182l-0.082,-0.183l-0.078,-0.184l-0.076,-0.186l-0.072,-0.186l-0.069,-0.188l-0.066,-0.188l-0.063,-0.19l-0.059,-0.19l-0.056,-0.192l-0.053,-0.193l-0.048,-0.189l-0.025,-0.101l-0.022,-0.098l-0.022,-0.097l-0.021,-0.098l-0.02,-0.098l-0.019,-0.098l-0.018,-0.098l-0.017,-0.099l-0.016,-0.099l-0.016,-0.099l-0.015,-0.099l-0.013,-0.099l-0.013,-0.1l-0.012,-0.099l-0.011,-0.1l-0.01,-0.1l-0.01,-0.1l-0.008,-0.1l-0.007,-0.101l-0.007,-0.1l-0.005,-0.101l-0.005,-0.101l-0.004,-0.101l-0.002,-0.101l-0.002,-0.101l-0.001,-0.102l0,-0.101l0.001,-0.102l0.002,-0.101l0.003,-0.102l0.003,-0.101l0.005,-0.101l0.006,-0.101l0.006,-0.101l0.008,-0.1l0.008,-0.1l0.01,-0.101l0.01,-0.1l0.011,-0.099l0.012,-0.1l0.013,-0.099l0.014,-0.099l0.014,-0.099l0.016,-0.099l0.016,-0.098l0.018,-0.099l0.018,-0.098l0.019,-0.097l0.02,-0.098l0.021,-0.097l0.022,-0.097l0.022,-0.097l0.024,-0.096l0.024,-0.097l0.025,-0.096l0.027,-0.099l0.054,-0.187l0.057,-0.19l0.061,-0.188l0.065,-0.187l0.067,-0.186l0.071,-0.185l0.073,-0.184l0.077,-0.182l0.08,-0.181l0.083,-0.18l0.086,-0.178l0.089,-0.178l0.092,-0.175l0.095,-0.175l0.097,-0.173l0.101,-0.172l0.103,-0.17l0.106,-0.169l0.108,-0.168l0.112,-0.166l0.114,-0.165l0.116,-0.163l0.119,-0.162l0.122,-0.161l0.124,-0.158l0.127,-0.158l0.13,-0.156l0.131,-0.155l0.134,-0.153l0.137,-0.151l0.139,-0.15l0.141,-0.149l0.144,-0.147l0.145,-0.145l0.148,-0.144l0.151,-0.143l0.152,-0.14l0.155,-0.14l0.157,-0.138l0.159,-0.136l0.161,-0.134l0.163,-0.134l0.165,-0.131l0.168,-0.13l0.169,-0.128l0.171,-0.127l0.173,-0.125l0.176,-0.124l0.177,-0.122l0.179,-0.12l0.181,-0.119l0.183,-0.117l0.185,-0.115l0.186,-0.114l0.188,-0.112l0.191,-0.11l0.191,-0.109l0.194,-0.107l0.195,-0.105l0.198,-0.104l0.198,-0.102l0.201,-0.1l0.202,-0.098l0.204,-0.097l0.205,-0.095l0.207,-0.093l0.083,-0.037l0.126,-0.055l0.21,-0.089l0.211,-0.088l0.214,-0.086l0.214,-0.084l0.216,-0.083l0.218,-0.08l0.219,-0.079l0.221,-0.077l0.222,-0.075l0.223,-0.073l0.224,-0.071l0.226,-0.07l0.228,-0.067l0.228,-0.066l0.23,-0.064l0.231,-0.062l0.233,-0.059l0.234,-0.058l0.234,-0.056l0.236,-0.054l0.238,-0.053l0.238,-0.05l0.24,-0.048l0.24,-0.046l0.242,-0.044l0.243,-0.042l0.244,-0.04l0.245,-0.038l0.246,-0.036l0.247,-0.033l0.248,-0.032l0.249,-0.03l0.25,-0.027l0.25,-0.026l0.252,-0.023l0.253,-0.021l0.253,-0.019l0.254,-0.017l0.256,-0.014l0.256,-0.013l0.256,-0.01l0.258,-0.008l0.258,-0.006l0.259,-0.003l0.26,-0.001l0.09,0l0.171,0.001l0.265,0.003l0.088,-0.012l0.169,-0.021Z"/><path d="M322.354,298.001c17.123,-22.612 29.454,-52.475 34.748,-84.15c5.008,-29.965 3.409,-59.72 -4.533,-84.383l-140.632,1.609c-10.786,19.374 -18.519,41.853 -22.413,65.157c-6.425,38.446 -1.916,76.101 12.352,103.146l120.478,-1.379Z" style="fill:#c2c2c2;"/><path d="M323.374,299.428l-0.228,0.138l-0.247,0.102l-0.259,0.064l-0.266,0.023l-2.494,0.039l-64.213,1l-53.766,0.826l-0.35,-0.022l-0.344,-0.077l-0.327,-0.129l-0.303,-0.18l-0.271,-0.224l-0.233,-0.264l-0.189,-0.298l0,0l-0.169,-0.32l-0.171,-0.325l-0.17,-0.326l-0.169,-0.326l-0.168,-0.328l-0.167,-0.328l-0.166,-0.329l-0.165,-0.331l-0.164,-0.331l-0.164,-0.332l-0.162,-0.333l-0.162,-0.334l-0.16,-0.335l-0.16,-0.336l-0.158,-0.337l-0.158,-0.338l-0.157,-0.338l-0.156,-0.34l-0.155,-0.34l-0.154,-0.342l-0.153,-0.342l-0.152,-0.343l-0.152,-0.344l-0.15,-0.345l-0.149,-0.346l-0.149,-0.347l-0.147,-0.347l-0.147,-0.349l-0.146,-0.349l-0.144,-0.35l-0.144,-0.351l-0.143,-0.352l-0.142,-0.353l-0.141,-0.353l-0.14,-0.355l-0.139,-0.355l-0.139,-0.356l-0.137,-0.357l-0.136,-0.358l-0.136,-0.358l-0.134,-0.36l-0.134,-0.36l-0.132,-0.361l-0.132,-0.362l-0.131,-0.363l-0.13,-0.363l-0.129,-0.365l-0.128,-0.365l-0.127,-0.366l-0.126,-0.366l-0.125,-0.368l-0.124,-0.368l-0.123,-0.369l-0.123,-0.37l-0.121,-0.371l-0.121,-0.371l-0.119,-0.372l-0.119,-0.373l-0.118,-0.374l-0.116,-0.374l-0.116,-0.375l-0.115,-0.376l-0.114,-0.377l-0.113,-0.377l-0.112,-0.379l-0.111,-0.379l-0.11,-0.379l-0.109,-0.381l-0.109,-0.381l-0.107,-0.382l-0.106,-0.382l-0.106,-0.383l-0.104,-0.384l-0.104,-0.385l-0.103,-0.386l-0.101,-0.386l-0.101,-0.386l-0.1,-0.388l-0.099,-0.388l-0.098,-0.389l-0.097,-0.39l-0.096,-0.39l-0.095,-0.391l-0.094,-0.391l-0.093,-0.393l-0.092,-0.393l-0.091,-0.393l-0.091,-0.395l-0.089,-0.395l-0.089,-0.395l-0.087,-0.396l-0.087,-0.397l-0.085,-0.398l-0.085,-0.398l-0.084,-0.399l-0.083,-0.399l-0.081,-0.4l-0.081,-0.401l-0.08,-0.401l-0.079,-0.402l-0.078,-0.403l-0.077,-0.403l-0.076,-0.404l-0.076,-0.404l-0.074,-0.405l-0.073,-0.406l-0.072,-0.406l-0.072,-0.407l-0.07,-0.407l-0.07,-0.408l-0.068,-0.409l-0.068,-0.409l-0.066,-0.41l-0.066,-0.41l-0.064,-0.411l-0.064,-0.411l-0.063,-0.412l-0.062,-0.413l-0.061,-0.413l-0.06,-0.413l-0.058,-0.414l-0.058,-0.415l-0.057,-0.415l-0.057,-0.416l-0.055,-0.417l-0.054,-0.416l-0.053,-0.418l-0.052,-0.418l-0.051,-0.418l-0.051,-0.419l-0.049,-0.42l-0.049,-0.42l-0.047,-0.42l-0.046,-0.421l-0.046,-0.421l-0.044,-0.422l-0.044,-0.423l-0.043,-0.423l-0.041,-0.423l-0.041,-0.424l-0.04,-0.425l-0.038,-0.425l-0.038,-0.425l-0.037,-0.426l-0.036,-0.426l-0.035,-0.427l-0.034,-0.427l-0.033,-0.428l-0.032,-0.428l-0.031,-0.428l-0.03,-0.429l-0.029,-0.43l-0.028,-0.43l-0.027,-0.43l-0.026,-0.431l-0.025,-0.431l-0.025,-0.431l-0.023,-0.432l-0.022,-0.433l-0.022,-0.433l-0.02,-0.433l-0.019,-0.434l-0.019,-0.434l-0.017,-0.434l-0.017,-0.435l-0.015,-0.435l-0.015,-0.436l-0.013,-0.436l-0.013,-0.436l-0.011,-0.437l-0.011,-0.437l-0.009,-0.438l-0.009,-0.438l-0.008,-0.438l-0.006,-0.438l-0.006,-0.439l-0.005,-0.44l-0.004,-0.439l-0.002,-0.44l-0.002,-0.441l-0.001,-0.441l0,-0.441l0.001,-0.441l0.002,-0.442l0.004,-0.442l0.004,-0.442l0.005,-0.443l0.006,-0.443l0.007,-0.443l0.008,-0.444l0.009,-0.444l0.01,-0.444l0.011,-0.444l0.012,-0.445l0.013,-0.445l0.014,-0.446l0.015,-0.446l0.015,-0.445l0.017,-0.447l0.018,-0.446l0.019,-0.447l0.02,-0.447l0.021,-0.447l0.022,-0.448l0.023,-0.448l0.023,-0.448l0.025,-0.448l0.026,-0.449l0.027,-0.449l0.028,-0.449l0.028,-0.449l0.03,-0.45l0.031,-0.45l0.032,-0.45l0.032,-0.45l0.034,-0.45l0.035,-0.451l0.036,-0.451l0.036,-0.451l0.038,-0.451l0.039,-0.452l0.04,-0.452l0.04,-0.452l0.042,-0.452l0.043,-0.452l0.044,-0.452l0.044,-0.453l0.046,-0.453l0.047,-0.453l0.048,-0.453l0.048,-0.453l0.05,-0.454l0.051,-0.454l0.052,-0.453l0.052,-0.454l0.054,-0.455l0.044,-0.367l0.011,-0.087l0.056,-0.454l0.057,-0.455l0.058,-0.454l0.058,-0.455l0.06,-0.455l0.061,-0.455l0.062,-0.456l0.063,-0.455l0.064,-0.455l0.065,-0.456l0.066,-0.455l0.067,-0.456l0.068,-0.456l0.069,-0.456l0.07,-0.456l0.071,-0.456l0.072,-0.456l0.073,-0.457l0.074,-0.456l0.091,-0.553l0.093,-0.553l0.094,-0.553l0.095,-0.552l0.097,-0.552l0.098,-0.552l0.1,-0.551l0.101,-0.551l0.102,-0.55l0.104,-0.551l0.105,-0.55l0.107,-0.549l0.108,-0.549l0.109,-0.549l0.111,-0.548l0.112,-0.548l0.114,-0.548l0.115,-0.547l0.116,-0.547l0.118,-0.546l0.119,-0.546l0.12,-0.545l0.122,-0.545l0.124,-0.545l0.124,-0.544l0.126,-0.544l0.128,-0.543l0.128,-0.543l0.131,-0.542l0.131,-0.542l0.133,-0.541l0.134,-0.541l0.136,-0.54l0.136,-0.54l0.139,-0.539l0.139,-0.539l0.141,-0.538l0.142,-0.537l0.144,-0.537l0.145,-0.537l0.146,-0.536l0.148,-0.535l0.149,-0.535l0.15,-0.535l0.152,-0.533l0.153,-0.533l0.154,-0.533l0.156,-0.532l0.157,-0.531l0.158,-0.531l0.159,-0.53l0.161,-0.529l0.162,-0.529l0.164,-0.529l0.165,-0.527l0.166,-0.527l0.167,-0.526l0.169,-0.526l0.17,-0.525l0.171,-0.524l0.173,-0.523l0.174,-0.523l0.175,-0.522l0.177,-0.522l0.177,-0.521l0.179,-0.52l0.181,-0.519l0.181,-0.519l0.183,-0.517l0.184,-0.518l0.186,-0.516l0.187,-0.516l0.188,-0.514l0.189,-0.514l0.19,-0.514l0.192,-0.512l0.193,-0.512l0.194,-0.511l0.196,-0.51l0.197,-0.509l0.198,-0.509l0.199,-0.508l0.201,-0.507l0.202,-0.506l0.203,-0.505l0.204,-0.504l0.206,-0.504l0.206,-0.502l0.208,-0.502l0.21,-0.501l0.21,-0.5l0.212,-0.499l0.213,-0.499l0.214,-0.497l0.216,-0.496l0.216,-0.496l0.218,-0.495l0.219,-0.493l0.22,-0.493l0.222,-0.492l0.223,-0.491l0.224,-0.49l0.225,-0.489l0.226,-0.488l0.228,-0.487l0.228,-0.486l0.23,-0.486l0.232,-0.484l0.232,-0.483l0.233,-0.482l0.235,-0.481l0.236,-0.48l0.237,-0.48l0.239,-0.478l0.239,-0.477l0.241,-0.476l0.242,-0.475l0.243,-0.474l0.244,-0.473l0.245,-0.472l0.247,-0.47l0.248,-0.47l0.249,-0.469l0.25,-0.467l0.251,-0.467l0.252,-0.465l0.254,-0.464l0.253,-0.459l0.241,-0.368l0,0l0.293,-0.328l0.339,-0.28l0.377,-0.227l0.408,-0.167l0.428,-0.105l0.439,-0.039l7.622,-0.115l86.488,-1.272l46.517,-0.658l0.534,0.036l0.522,0.12l0.497,0.201l0.459,0.277l0.409,0.347l0.349,0.407l0.28,0.457l0.204,0.497l0.001,-0.001l0.188,0.586l0.189,0.595l0.187,0.597l0.184,0.599l0.181,0.6l0.18,0.602l0.176,0.604l0.175,0.605l0.172,0.608l0.17,0.609l0.167,0.61l0.165,0.613l0.162,0.614l0.16,0.616l0.158,0.617l0.155,0.619l0.153,0.62l0.15,0.623l0.148,0.623l0.146,0.626l0.143,0.626l0.141,0.629l0.138,0.63l0.136,0.631l0.134,0.633l0.131,0.634l0.129,0.636l0.126,0.638l0.124,0.639l0.122,0.64l0.119,0.641l0.117,0.643l0.114,0.645l0.112,0.646l0.11,0.647l0.107,0.648l0.105,0.65l0.102,0.651l0.048,0.312l0.052,0.341l0.097,0.654l0.094,0.655l0.092,0.656l0.09,0.658l0.087,0.659l0.085,0.66l0.083,0.661l0.08,0.663l0.078,0.664l0.075,0.664l0.073,0.667l0.07,0.667l0.068,0.668l0.066,0.669l0.063,0.671l0.061,0.671l0.059,0.673l0.056,0.674l0.053,0.675l0.051,0.675l0.049,0.677l0.046,0.678l0.044,0.679l0.042,0.68l0.039,0.681l0.037,0.681l0.034,0.683l0.032,0.684l0.029,0.684l0.027,0.685l0.025,0.687l0.022,0.687l0.02,0.688l0.017,0.689l0.015,0.689l0.013,0.691l0.01,0.691l0.007,0.692l0.006,0.693l0.003,0.694l0,0.694l-0.002,0.695l-0.003,0.433l-0.002,0.263l-0.007,0.696l-0.011,0.698l-0.012,0.697l-0.015,0.699l-0.017,0.699l-0.02,0.7l-0.022,0.7l-0.025,0.701l-0.027,0.702l-0.029,0.702l-0.032,0.703l-0.035,0.703l-0.036,0.704l-0.04,0.705l-0.041,0.705l-0.044,0.705l-0.047,0.706l-0.049,0.706l-0.051,0.707l-0.054,0.707l-0.056,0.708l-0.059,0.708l-0.061,0.709l-0.064,0.708l-0.066,0.71l-0.068,0.709l-0.071,0.71l-0.073,0.711l-0.076,0.71l-0.078,0.711l-0.081,0.711l-0.083,0.712l-0.011,0.09l-0.076,0.621l-0.09,0.712l-0.093,0.712l-0.095,0.712l-0.097,0.713l-0.1,0.712l-0.102,0.713l-0.105,0.713l-0.107,0.713l-0.11,0.713l-0.112,0.714l-0.114,0.713l-0.117,0.714l-0.06,0.36l-0.061,0.353l-0.131,0.753l-0.134,0.753l-0.137,0.752l-0.139,0.751l-0.142,0.751l-0.145,0.75l-0.147,0.749l-0.149,0.748l-0.153,0.747l-0.154,0.746l-0.158,0.746l-0.15,0.703l-0.01,0.042l-0.165,0.743l-0.169,0.742l-0.171,0.741l-0.173,0.74l-0.176,0.739l-0.178,0.739l-0.181,0.737l-0.184,0.736l-0.185,0.735l-0.189,0.735l-0.19,0.733l-0.194,0.732l-0.195,0.73l-0.198,0.73l-0.201,0.729l-0.203,0.727l-0.205,0.727l-0.208,0.725l-0.21,0.724l-0.213,0.723l-0.215,0.721l-0.217,0.721l-0.22,0.719l-0.222,0.718l-0.012,0.038l-0.218,0.677l-0.232,0.713l-0.235,0.712l-0.237,0.711l-0.239,0.71l-0.242,0.708l-0.244,0.706l-0.246,0.706l-0.248,0.704l-0.251,0.702l-0.253,0.701l-0.256,0.699l-0.257,0.698l-0.26,0.697l-0.263,0.694l-0.264,0.694l-0.267,0.692l-0.269,0.69l-0.271,0.688l-0.273,0.687l-0.276,0.686l-0.278,0.684l-0.28,0.682l-0.282,0.68l-0.284,0.679l-0.287,0.677l-0.288,0.676l-0.291,0.673l-0.293,0.672l-0.296,0.67l-0.297,0.669l-0.299,0.666l-0.302,0.665l-0.304,0.663l-0.306,0.661l-0.308,0.66l-0.31,0.657l-0.312,0.656l-0.314,0.653l-0.317,0.652l-0.318,0.65l-0.321,0.648l-0.322,0.646l-0.179,0.355l-0.148,0.288l-0.332,0.639l-0.334,0.638l-0.336,0.635l-0.338,0.634l-0.34,0.631l-0.342,0.629l-0.344,0.627l-0.346,0.625l-0.348,0.623l-0.35,0.621l-0.352,0.618l-0.353,0.616l-0.356,0.614l-0.358,0.612l-0.359,0.61l-0.362,0.607l-0.363,0.605l-0.366,0.603l-0.367,0.601l-0.369,0.598l-0.371,0.596l-0.373,0.594l-0.375,0.591l-0.376,0.589l-0.379,0.586l-0.38,0.584l-0.382,0.582l-0.384,0.579l-0.386,0.577l-0.388,0.574l-0.39,0.572l-0.391,0.569l-0.142,0.206l-0.253,0.36l-0.398,0.562l-0.4,0.56l-0.402,0.557l-0.403,0.554l-0.405,0.552l-0.407,0.549l-0.409,0.547l-0.41,0.543l-0.412,0.542l-0.414,0.538l-0.416,0.536l-0.417,0.533l-0.419,0.53l-0.42,0.528l-0.104,0.129l-0.317,0.392l-0.176,0.2l-0.205,0.171Zm-18.34,-166.172l-83.707,0.675l0,-0.034l-7.657,0.087l-0.169,0.308l-0.245,0.451l-0.245,0.452l-0.243,0.453l-0.242,0.454l-0.241,0.455l-0.24,0.456l-0.239,0.457l-0.238,0.459l-0.236,0.459l-0.236,0.461l-0.234,0.462l-0.233,0.462l-0.233,0.464l-0.231,0.465l-0.23,0.466l-0.228,0.466l-0.228,0.468l-0.227,0.469l-0.225,0.47l-0.224,0.471l-0.223,0.472l-0.222,0.473l-0.221,0.474l-0.22,0.474l-0.218,0.476l-0.218,0.477l-0.216,0.478l-0.215,0.478l-0.214,0.48l-0.213,0.48l-0.211,0.482l-0.211,0.482l-0.209,0.484l-0.208,0.484l-0.207,0.485l-0.206,0.486l-0.204,0.487l-0.204,0.488l-0.202,0.488l-0.201,0.49l-0.2,0.49l-0.198,0.491l-0.198,0.492l-0.196,0.493l-0.195,0.494l-0.194,0.495l-0.192,0.495l-0.192,0.496l-0.19,0.497l-0.189,0.498l-0.188,0.499l-0.186,0.499l-0.186,0.5l-0.184,0.501l-0.183,0.502l-0.181,0.503l-0.181,0.503l-0.179,0.504l-0.178,0.505l-0.177,0.505l-0.175,0.507l-0.175,0.507l-0.173,0.507l-0.172,0.509l-0.17,0.509l-0.17,0.509l-0.168,0.511l-0.166,0.511l-0.166,0.512l-0.164,0.512l-0.163,0.514l-0.162,0.513l-0.161,0.515l-0.159,0.515l-0.158,0.516l-0.156,0.516l-0.156,0.517l-0.154,0.518l-0.153,0.518l-0.151,0.519l-0.151,0.519l-0.149,0.52l-0.147,0.521l-0.147,0.521l-0.145,0.522l-0.144,0.522l-0.142,0.523l-0.142,0.524l-0.14,0.524l-0.138,0.524l-0.137,0.525l-0.136,0.526l-0.135,0.526l-0.134,0.527l-0.132,0.527l-0.13,0.527l-0.13,0.528l-0.128,0.529l-0.127,0.529l-0.125,0.53l-0.124,0.53l-0.123,0.53l-0.121,0.531l-0.121,0.531l-0.118,0.532l-0.118,0.532l-0.116,0.533l-0.115,0.533l-0.113,0.534l-0.112,0.533l-0.111,0.535l-0.109,0.534l-0.108,0.535l-0.106,0.536l-0.106,0.536l-0.104,0.536l-0.102,0.536l-0.101,0.537l-0.1,0.538l-0.098,0.537l-0.097,0.538l-0.096,0.538l-0.094,0.539l-0.093,0.539l-0.076,0.444l-0.074,0.445l-0.074,0.444l-0.072,0.445l-0.072,0.444l-0.07,0.444l-0.07,0.444l-0.069,0.444l-0.067,0.444l-0.067,0.444l-0.066,0.444l-0.064,0.443l-0.064,0.444l-0.063,0.443l-0.061,0.444l-0.061,0.443l-0.06,0.443l-0.059,0.443l-0.057,0.443l-0.011,0.084l-0.046,0.358l-0.056,0.443l-0.055,0.442l-0.054,0.442l-0.053,0.442l-0.052,0.442l-0.052,0.442l-0.05,0.442l-0.049,0.441l-0.048,0.441l-0.047,0.441l-0.046,0.441l-0.045,0.441l-0.045,0.441l-0.043,0.44l-0.042,0.44l-0.041,0.44l-0.041,0.44l-0.039,0.44l-0.038,0.439l-0.038,0.439l-0.036,0.439l-0.036,0.439l-0.034,0.438l-0.034,0.439l-0.032,0.438l-0.032,0.438l-0.03,0.437l-0.03,0.438l-0.029,0.437l-0.027,0.437l-0.027,0.437l-0.026,0.436l-0.025,0.436l-0.024,0.436l-0.022,0.436l-0.022,0.435l-0.021,0.436l-0.02,0.434l-0.019,0.435l-0.018,0.434l-0.017,0.434l-0.016,0.434l-0.015,0.434l-0.015,0.433l-0.013,0.433l-0.012,0.432l-0.011,0.433l-0.011,0.432l-0.009,0.431l-0.008,0.432l-0.008,0.431l-0.006,0.43l-0.006,0.431l-0.004,0.43l-0.004,0.43l-0.003,0.429l-0.001,0.429l-0.001,0.429l0,0.428l0.001,0.428l0.003,0.428l0.003,0.427l0.004,0.427l0.005,0.427l0.006,0.426l0.007,0.426l0.008,0.426l0.008,0.425l0.01,0.424l0.011,0.425l0.012,0.424l0.012,0.423l0.014,0.424l0.014,0.422l0.016,0.423l0.016,0.422l0.018,0.421l0.018,0.421l0.019,0.421l0.02,0.42l0.022,0.42l0.022,0.42l0.023,0.419l0.024,0.418l0.025,0.419l0.026,0.417l0.027,0.418l0.027,0.416l0.029,0.417l0.03,0.416l0.03,0.415l0.032,0.415l0.033,0.415l0.033,0.414l0.034,0.413l0.036,0.413l0.036,0.413l0.037,0.412l0.038,0.412l0.039,0.411l0.04,0.411l0.041,0.41l0.042,0.41l0.043,0.409l0.044,0.408l0.045,0.409l0.045,0.407l0.047,0.407l0.047,0.407l0.049,0.406l0.049,0.405l0.051,0.405l0.051,0.405l0.052,0.404l0.053,0.403l0.054,0.403l0.055,0.402l0.056,0.402l0.057,0.401l0.058,0.401l0.058,0.4l0.06,0.399l0.06,0.399l0.062,0.398l0.062,0.398l0.064,0.397l0.064,0.397l0.065,0.395l0.066,0.396l0.067,0.395l0.068,0.394l0.069,0.393l0.07,0.393l0.07,0.392l0.072,0.392l0.073,0.391l0.073,0.391l0.075,0.39l0.075,0.389l0.076,0.388l0.077,0.388l0.078,0.388l0.079,0.386l0.08,0.386l0.081,0.385l0.082,0.385l0.082,0.384l0.084,0.384l0.084,0.382l0.086,0.382l0.086,0.382l0.087,0.38l0.089,0.38l0.089,0.38l0.09,0.378l0.09,0.378l0.092,0.377l0.093,0.377l0.093,0.376l0.095,0.375l0.095,0.374l0.097,0.374l0.097,0.373l0.098,0.372l0.099,0.372l0.1,0.371l0.101,0.37l0.102,0.369l0.102,0.369l0.104,0.367l0.104,0.368l0.106,0.366l0.106,0.366l0.107,0.364l0.108,0.365l0.109,0.363l0.11,0.362l0.111,0.362l0.111,0.361l0.113,0.361l0.113,0.359l0.115,0.359l0.115,0.358l0.116,0.357l0.117,0.356l0.118,0.356l0.119,0.354l0.12,0.354l0.12,0.353l0.122,0.353l0.122,0.351l0.123,0.351l0.125,0.35l0.125,0.349l0.126,0.348l0.126,0.347l0.128,0.347l0.129,0.345l0.129,0.345l0.131,0.344l0.131,0.343l0.132,0.343l0.133,0.341l0.134,0.341l0.135,0.339l0.135,0.339l0.137,0.338l0.137,0.337l0.139,0.336l0.139,0.336l0.14,0.334l0.141,0.334l0.142,0.332l0.143,0.332l0.143,0.331l0.145,0.33l0.145,0.329l0.146,0.328l0.147,0.327l0.148,0.327l0.149,0.325l0.15,0.324l0.15,0.324l0.152,0.323l0.152,0.321l0.153,0.321l0.154,0.32l0.155,0.319l0.156,0.318l0.157,0.317l0.157,0.316l0.159,0.315l0.024,0.048l53.545,-0.406l63.091,-0.457l1.555,-0.011l0.273,-0.39l0.375,-0.543l0.373,-0.545l0.371,-0.548l0.369,-0.55l0.368,-0.553l0.365,-0.555l0.364,-0.557l0.362,-0.56l0.36,-0.562l0.358,-0.565l0.356,-0.567l0.354,-0.569l0.352,-0.571l0.223,-0.366l0.129,-0.207l0.351,-0.574l0.35,-0.577l0.348,-0.578l0.346,-0.581l0.344,-0.583l0.342,-0.585l0.34,-0.588l0.338,-0.589l0.336,-0.592l0.334,-0.594l0.332,-0.597l0.331,-0.598l0.328,-0.6l0.326,-0.603l0.325,-0.604l0.322,-0.607l0.32,-0.609l0.318,-0.61l0.317,-0.613l0.314,-0.615l0.312,-0.617l0.31,-0.618l0.308,-0.621l0.306,-0.623l0.304,-0.624l0.302,-0.627l0.3,-0.628l0.298,-0.63l0.296,-0.633l0.294,-0.634l0.291,-0.635l0.29,-0.638l0.129,-0.287l0.161,-0.351l0.291,-0.639l0.288,-0.64l0.287,-0.642l0.284,-0.644l0.282,-0.646l0.28,-0.648l0.278,-0.649l0.276,-0.651l0.274,-0.653l0.271,-0.654l0.27,-0.656l0.267,-0.658l0.265,-0.659l0.263,-0.661l0.261,-0.663l0.258,-0.664l0.257,-0.665l0.254,-0.667l0.252,-0.669l0.25,-0.67l0.248,-0.672l0.245,-0.673l0.243,-0.675l0.242,-0.676l0.238,-0.678l0.237,-0.679l0.234,-0.68l0.232,-0.682l0.23,-0.683l0.228,-0.685l0.225,-0.686l0.223,-0.687l0.221,-0.688l0.219,-0.69l0.216,-0.691l0.214,-0.693l0.211,-0.693l0.21,-0.695l0.207,-0.696l0.204,-0.697l0.203,-0.699l0.2,-0.699l0.187,-0.663l0.011,-0.038l0.201,-0.7l0.198,-0.701l0.197,-0.703l0.193,-0.703l0.192,-0.705l0.189,-0.706l0.187,-0.707l0.184,-0.708l0.183,-0.709l0.179,-0.71l0.178,-0.711l0.174,-0.712l0.173,-0.713l0.17,-0.714l0.168,-0.715l0.165,-0.716l0.163,-0.716l0.16,-0.718l0.158,-0.718l0.156,-0.72l0.153,-0.72l0.151,-0.721l0.148,-0.722l0.145,-0.723l0.008,-0.04l0.139,-0.683l0.144,-0.723l0.142,-0.724l0.139,-0.726l0.137,-0.725l0.135,-0.727l0.131,-0.727l0.13,-0.728l0.126,-0.729l0.125,-0.729l0.121,-0.73l0.12,-0.731l0.054,-0.342l0.057,-0.349l0.111,-0.691l0.108,-0.691l0.106,-0.69l0.103,-0.691l0.101,-0.69l0.099,-0.69l0.096,-0.69l0.094,-0.69l0.091,-0.689l0.089,-0.689l0.087,-0.689l0.085,-0.689l0.071,-0.602l0.011,-0.087l0.082,-0.688l0.079,-0.687l0.077,-0.688l0.074,-0.687l0.072,-0.686l0.07,-0.687l0.067,-0.686l0.065,-0.685l0.063,-0.686l0.06,-0.684l0.058,-0.685l0.056,-0.684l0.053,-0.683l0.051,-0.683l0.049,-0.683l0.046,-0.682l0.043,-0.681l0.042,-0.681l0.039,-0.681l0.037,-0.68l0.034,-0.679l0.032,-0.679l0.03,-0.678l0.027,-0.678l0.025,-0.676l0.023,-0.677l0.02,-0.675l0.018,-0.675l0.015,-0.675l0.014,-0.673l0.01,-0.673l0.009,-0.672l0.002,-0.255l0.005,-0.417l0.004,-0.671l0.002,-0.67l0,-0.669l-0.002,-0.668l-0.005,-0.668l-0.007,-0.666l-0.01,-0.666l-0.011,-0.665l-0.014,-0.665l-0.017,-0.663l-0.019,-0.662l-0.021,-0.662l-0.023,-0.661l-0.026,-0.659l-0.028,-0.659l-0.031,-0.658l-0.032,-0.657l-0.036,-0.655l-0.037,-0.655l-0.04,-0.654l-0.042,-0.653l-0.044,-0.651l-0.047,-0.651l-0.049,-0.65l-0.051,-0.648l-0.054,-0.647l-0.056,-0.647l-0.058,-0.645l-0.061,-0.644l-0.063,-0.642l-0.065,-0.642l-0.068,-0.641l-0.07,-0.639l-0.072,-0.638l-0.074,-0.637l-0.077,-0.635l-0.079,-0.634l-0.082,-0.633l-0.083,-0.632l-0.086,-0.63l-0.089,-0.629l-0.09,-0.628l-0.049,-0.328l-0.044,-0.299l-0.095,-0.625l-0.096,-0.623l-0.1,-0.623l-0.101,-0.621l-0.104,-0.619l-0.106,-0.618l-0.109,-0.617l-0.11,-0.615l-0.113,-0.614l-0.116,-0.612l-0.117,-0.611l-0.12,-0.609l-0.122,-0.608l-0.125,-0.606l-0.126,-0.604l-0.129,-0.603l-0.131,-0.602l-0.134,-0.599l-0.136,-0.599l-0.138,-0.596l-0.14,-0.595l-0.143,-0.593l-0.145,-0.592l-0.147,-0.59l-0.149,-0.588l-0.152,-0.586l-0.154,-0.585l-0.156,-0.583l-0.158,-0.581l-0.161,-0.58l-0.163,-0.578l-0.165,-0.575l-0.168,-0.574l-0.144,-0.487l-45.048,0.397Z"/><path d="M241.424,130.023c0,0 0.715,14.763 -11.374,33.714c-30.134,47.234 -38.993,26.862 -38.993,26.862c-5.124,19.936 -10.931,62.683 10.35,109.272c38.034,4.548 79.939,4.052 120.891,-1.209c22.794,-33.138 31.888,-67.557 35.374,-103.673c-23.505,-7.256 -40.772,-21.642 -45.184,-64.178c-4.419,-0.355 -4.063,-0.455 -10.634,-1.454l2.076,34.442c-17.914,-0.954 -35.207,-0.403 -52.125,0.819c0,0 -0.562,-32.42 2.437,-35.023c2.999,-2.603 -12.818,0.428 -12.818,0.428Z" style="fill:#008fd7;"/><clipPath id="_clip1"><path d="M241.424,130.023c0,0 0.715,14.763 -11.374,33.714c-30.134,47.234 -38.993,26.862 -38.993,26.862c-5.124,19.936 -10.931,62.683 10.35,109.272c38.034,4.548 79.939,4.052 120.891,-1.209c22.794,-33.138 31.888,-67.557 35.374,-103.673c-23.505,-7.256 -40.772,-21.642 -45.184,-64.178c-4.419,-0.355 -4.063,-0.455 -10.634,-1.454l2.076,34.442c-17.914,-0.954 -35.207,-0.403 -52.125,0.819c0,0 -0.562,-32.42 2.437,-35.023c2.999,-2.603 -12.818,0.428 -12.818,0.428Z"/></clipPath><g clip-path="url(#_clip1)"><path d="M240.123,165.516c26.815,-2.3 52.483,-2.558 77.115,-0.942c0.981,25.685 -1.052,49.355 -6.169,70.961c-27.707,3.329 -54.808,3.916 -81.402,2.208c1.183,-25.742 4.477,-49.865 10.456,-72.227Z" style="fill:#008fd7;"/><clipPath id="_clip2"><path d="M240.123,165.516c26.815,-2.3 52.483,-2.558 77.115,-0.942c0.981,25.685 -1.052,49.355 -6.169,70.961c-27.707,3.329 -54.808,3.916 -81.402,2.208c1.183,-25.742 4.477,-49.865 10.456,-72.227Z"/></clipPath><g clip-path="url(#_clip2)"><g transform="matrix(0.999238,-0.039027,-0.0894197,1.00425,3.99478,1.38657)"><text x="267.591px" y="224.648px" style="font-family:'TamilMN', 'Tamil MN', serif;font-weight:250;font-size:38.484px;fill:#fff;stroke:#fff;stroke-width:2.67px;">B<tspan x="293.184px " y="224.648px ">F</tspan></text></g></g><path d="M240.123,165.516c26.815,-2.3 52.483,-2.558 77.115,-0.942c0.981,25.685 -1.052,49.355 -6.169,70.961c-27.707,3.329 -54.808,3.916 -81.402,2.208c1.183,-25.742 4.477,-49.865 10.456,-72.227Z" style="fill:none;stroke:#000;stroke-width:2.5px;stroke-linecap:round;stroke-miterlimit:1.5;"/><path d="M250.178,172.839c1.477,-0.204 2.851,0.867 3.065,2.39c0.214,1.523 -0.811,2.926 -2.289,3.13c-1.477,0.204 -2.851,-0.867 -3.065,-2.39c-0.215,-1.523 0.811,-2.926 2.289,-3.13Z" style="fill:#ffc800;stroke:#000;stroke-width:2.5px;stroke-linecap:round;stroke-miterlimit:1.5;"/><path d="M307.646,170.522c1.477,-0.204 2.851,0.866 3.065,2.39c0.215,1.523 -0.811,2.926 -2.288,3.13c-1.478,0.204 -2.851,-0.867 -3.066,-2.39c-0.214,-1.523 0.811,-2.926 2.289,-3.13Z" style="fill:#ffc800;stroke:#000;stroke-width:2.5px;stroke-linecap:round;stroke-miterlimit:1.5;"/></g><path d="M241.424,130.023c0,0 0.715,14.763 -11.374,33.714c-30.134,47.234 -38.993,26.862 -38.993,26.862c-5.124,19.936 -10.931,62.683 10.35,109.272c38.034,4.548 79.939,4.052 120.891,-1.209c22.794,-33.138 31.888,-67.557 35.374,-103.673c-23.505,-7.256 -40.772,-21.642 -45.184,-64.178c-4.419,-0.355 -4.063,-0.455 -10.634,-1.454l2.076,34.442c-17.914,-0.954 -35.207,-0.403 -52.125,0.819c0,0 -0.562,-32.42 2.437,-35.023c2.999,-2.603 -12.818,0.428 -12.818,0.428Z" style="fill:none;stroke:#000;stroke-width:2.5px;stroke-linecap:round;stroke-miterlimit:1.5;"/><path d="M352.942,128.824c0.436,-2.23 0.739,-4.486 0.908,-6.758c2.63,-35.25 -26.777,-67.379 -65.626,-71.702c-38.85,-4.323 -72.526,20.786 -75.156,56.036c-0.599,8.04 0.479,16.193 3.179,24.032l136.695,-1.608Z" style="fill:#c2c2c2;"/><clipPath id="_clip3"><path d="M352.942,128.824c0.436,-2.23 0.739,-4.486 0.908,-6.758c2.63,-35.25 -26.777,-67.379 -65.626,-71.702c-38.85,-4.323 -72.526,20.786 -75.156,56.036c-0.599,8.04 0.479,16.193 3.179,24.032l136.695,-1.608Z"/></clipPath><g clip-path="url(#_clip3)"><path d="M258.409,103.401c-1.074,0.809 -1.671,1.67 -1.768,2.554c-0.514,4.691 12.889,8.952 29.913,9.509c17.024,0.558 31.263,-2.798 31.777,-7.489c0.118,-1.075 -0.506,-2.165 -1.838,-3.211l-58.084,-1.363Z" style="fill:#191919;"/><clipPath id="_clip4"><path d="M258.409,103.401c-1.074,0.809 -1.671,1.67 -1.768,2.554c-0.514,4.691 12.889,8.952 29.913,9.509c17.024,0.558 31.263,-2.798 31.777,-7.489c0.118,-1.075 -0.506,-2.165 -1.838,-3.211l-58.084,-1.363Z"/></clipPath><g clip-path="url(#_clip4)"><path d="M267.951,106.507c0.035,2.911 8.416,5.494 18.945,5.838c10.777,0.353 19.791,-1.771 20.117,-4.74c0.007,-0.061 0.009,-0.121 0.009,-0.181l-39.071,-0.917Z" style="fill:#fff;"/></g><path d="M275.756,90.425c-0.264,-7.712 -5.438,-14.162 -11.94,-14.886c-6.949,-0.773 -12.885,5.261 -13.249,13.467c-0.02,0.459 -0.022,0.921 -0.006,1.382l25.195,0.037Z" style="fill:#191919;"/><clipPath id="_clip5"><path d="M275.756,90.425c-0.264,-7.712 -5.438,-14.162 -11.94,-14.886c-6.949,-0.773 -12.885,5.261 -13.249,13.467c-0.02,0.459 -0.022,0.921 -0.006,1.382l25.195,0.037Z"/></clipPath><g clip-path="url(#_clip5)"><path d="M261.929,87.698c0.432,-3.77 0.203,-6.696 -0.531,-6.777c-0.79,-0.088 -1.878,3.147 -2.428,7.219c-0.034,0.254 -0.066,0.508 -0.095,0.761l3.054,-1.203Z" style="fill:#fff;"/></g><path d="M316.898,91.694c-0.25,-7.291 -5.141,-13.389 -11.288,-14.073c-6.57,-0.731 -12.182,4.973 -12.526,12.731c-0.019,0.435 -0.021,0.871 -0.006,1.307l23.82,0.035Z" style="fill:#191919;"/><clipPath id="_clip6"><path d="M316.898,91.694c-0.25,-7.291 -5.141,-13.389 -11.288,-14.073c-6.57,-0.731 -12.182,4.973 -12.526,12.731c-0.019,0.435 -0.021,0.871 -0.006,1.307l23.82,0.035Z"/></clipPath><g clip-path="url(#_clip6)"><path d="M303.436,89.086c0.418,-3.771 0.075,-6.71 -0.794,-6.806c-0.935,-0.105 -2.141,3.117 -2.691,7.19c-0.034,0.254 -0.065,0.508 -0.094,0.761l3.579,-1.145Z" style="fill:#fff;"/></g></g><path d="M280.139,46.561l0.465,0.003l0.465,0.006l0.466,0.008l0.467,0.011l0.467,0.013l0.468,0.016l0.468,0.019l0.469,0.022l0.47,0.024l0.47,0.028l0.471,0.029l0.471,0.033l0.472,0.036l0.472,0.038l0.473,0.041l0.474,0.043l0.473,0.047l0.475,0.049l0.474,0.052l0.473,0.055l0.473,0.058l0.471,0.059l0.471,0.063l0.47,0.065l0.469,0.068l0.467,0.071l0.467,0.073l0.466,0.075l0.465,0.078l0.465,0.081l0.463,0.083l0.462,0.086l0.461,0.089l0.46,0.091l0.459,0.093l0.459,0.096l0.457,0.098l0.456,0.101l0.455,0.104l0.454,0.105l0.453,0.109l0.452,0.11l0.451,0.114l0.449,0.115l0.449,0.118l0.448,0.121l0.446,0.123l0.445,0.125l0.445,0.128l0.443,0.13l0.442,0.132l0.44,0.135l0.44,0.137l0.438,0.14l0.438,0.142l0.436,0.144l0.435,0.146l0.433,0.149l0.433,0.151l0.431,0.153l0.407,0.148l0.023,0.008l0.429,0.159l0.427,0.16l0.426,0.163l0.425,0.166l0.423,0.167l0.422,0.17l0.421,0.172l0.42,0.174l0.418,0.176l0.417,0.179l0.416,0.181l0.414,0.182l0.413,0.186l0.412,0.187l0.41,0.189l0.409,0.192l0.408,0.193l0.406,0.196l0.404,0.198l0.404,0.2l0.402,0.202l0.4,0.204l0.399,0.206l0.398,0.208l0.396,0.21l0.395,0.213l0.393,0.214l0.392,0.217l0.39,0.218l0.389,0.221l0.387,0.222l0.386,0.224l0.384,0.227l0.383,0.228l0.381,0.231l0.38,0.232l0.378,0.234l0.377,0.236l0.375,0.239l0.373,0.24l0.372,0.242l0.106,0.069l0.264,0.175l0.369,0.246l0.366,0.249l0.365,0.25l0.364,0.252l0.362,0.254l0.36,0.255l0.358,0.258l0.357,0.259l0.355,0.261l0.354,0.263l0.352,0.265l0.35,0.267l0.348,0.268l0.347,0.27l0.345,0.272l0.343,0.274l0.342,0.275l0.339,0.278l0.338,0.279l0.337,0.28l0.334,0.283l0.333,0.284l0.331,0.285l0.329,0.288l0.327,0.289l0.326,0.291l0.323,0.292l0.322,0.294l0.32,0.296l0.319,0.298l0.316,0.299l0.314,0.3l0.205,0.199l0.107,0.104l0.31,0.305l0.307,0.307l0.306,0.308l0.304,0.31l0.301,0.312l0.3,0.313l0.298,0.314l0.296,0.316l0.294,0.318l0.292,0.319l0.29,0.321l0.288,0.322l0.286,0.323l0.247,0.283l0.037,0.042l0.28,0.328l0.278,0.33l0.276,0.331l0.274,0.332l0.272,0.334l0.27,0.335l0.268,0.337l0.266,0.337l0.264,0.34l0.261,0.34l0.26,0.342l0.257,0.344l0.255,0.344l0.244,0.334l0.009,0.012l0.249,0.35l0.246,0.35l0.244,0.352l0.242,0.353l0.239,0.354l0.238,0.355l0.235,0.357l0.233,0.358l0.231,0.359l0.228,0.36l0.227,0.362l0.224,0.363l0.221,0.364l0.22,0.365l0.217,0.366l0.215,0.367l0.213,0.369l0.21,0.369l0.208,0.371l0.206,0.372l0.203,0.373l0.201,0.374l0.199,0.375l0.196,0.376l0.194,0.377l0.191,0.379l0.19,0.379l0.071,0.145l0.113,0.237l0.179,0.383l0.178,0.385l0.175,0.386l0.172,0.386l0.17,0.388l0.168,0.388l0.165,0.389l0.163,0.39l0.16,0.391l0.157,0.392l0.156,0.393l0.152,0.394l0.15,0.394l0.148,0.396l0.145,0.396l0.142,0.397l0.14,0.398l0.138,0.398l0.135,0.4l0.132,0.4l0.13,0.401l0.127,0.401l0.124,0.403l0.122,0.403l0.119,0.404l0.117,0.405l0.114,0.405l0.111,0.406l0.109,0.407l0.106,0.407l0.103,0.408l0.101,0.409l0.098,0.409l0.095,0.41l0.093,0.411l0.09,0.411l0.087,0.412l0.084,0.412l0.082,0.413l0.079,0.414l0.076,0.414l0.074,0.415l0.071,0.415l0.068,0.416l0.065,0.416l0.063,0.417l0.059,0.417l0.057,0.418l0.002,0.012l0.047,0.407l0.046,0.42l0.043,0.42l0.041,0.42l0.037,0.421l0.035,0.421l0.032,0.421l0.028,0.422l0.026,0.422l0.024,0.422l0.02,0.422l0.017,0.423l0.015,0.423l0.011,0.424l0.009,0.424l0.006,0.423l0.003,0.425l0,0.424l-0.004,0.425l-0.006,0.424l-0.008,0.425l-0.012,0.426l-0.015,0.425l-0.018,0.425l-0.021,0.426l-0.024,0.426l-0.026,0.426l-0.03,0.426l-0.033,0.426l-0.036,0.426l-0.039,0.426l-0.042,0.427l-0.044,0.426l-0.048,0.425l-0.026,0.222l-0.011,0.091l-0.017,0.128l-0.03,0.22l-0.03,0.219l-0.031,0.219l-0.032,0.219l-0.032,0.219l-0.034,0.219l-0.034,0.218l-0.035,0.218l-0.036,0.218l-0.037,0.218l-0.037,0.217l-0.038,0.218l-0.039,0.217l-0.04,0.217l-0.041,0.217l-0.041,0.216l-0.042,0.217l-0.043,0.216l-0.044,0.216l-0.045,0.215l-0.045,0.216l-0.046,0.215l-0.047,0.215l-0.048,0.215l-0.049,0.215l-0.049,0.214l-0.05,0.214l-0.051,0.214l-0.028,0.116l-0.024,0.098l-0.053,0.21l-1.722,-0.333l1.722,0.333l-0.081,0.288l-0.13,0.27l-0.174,0.244l-0.212,0.211l-0.246,0.172l-0.271,0.127l-0.289,0.079l-0.298,0.029l-1.546,0.029l-39.814,0.734l-95.325,1.726l-0.411,-0.026l-0.218,-0.048l-0.185,-0.041l-0.385,-0.152l-0.356,-0.21l-0.319,-0.263l-0.275,-0.309l-0.223,-0.35l-0.165,-0.38l-0.001,0l-0.13,-0.374l-0.13,-0.383l-0.128,-0.384l-0.125,-0.384l-0.123,-0.384l-0.121,-0.385l-0.118,-0.386l-0.116,-0.385l-0.113,-0.387l-0.11,-0.386l-0.109,-0.388l-0.105,-0.387l-0.103,-0.388l-0.101,-0.389l-0.098,-0.389l-0.096,-0.389l-0.093,-0.389l-0.091,-0.39l-0.088,-0.391l-0.086,-0.39l-0.084,-0.391l-0.08,-0.391l-0.079,-0.392l-0.075,-0.392l-0.074,-0.392l-0.07,-0.392l-0.069,-0.393l-0.065,-0.393l-0.064,-0.393l-0.06,-0.394l-0.059,-0.393l-0.055,-0.394l-0.053,-0.395l-0.051,-0.394l-0.048,-0.394l-0.046,-0.395l-0.043,-0.395l-0.04,-0.395l-0.038,-0.395l-0.036,-0.395l-0.033,-0.396l-0.03,-0.395l-0.028,-0.396l-0.025,-0.395l-0.023,-0.396l-0.02,-0.396l-0.018,-0.396l-0.015,-0.396l-0.013,-0.396l-0.01,-0.396l-0.007,-0.396l-0.005,-0.396l-0.002,-0.396l0,-0.396l0.003,-0.396l0.005,-0.396l0.008,-0.395l0.01,-0.396l0.014,-0.396l0.015,-0.396l0.018,-0.395l0.021,-0.396l0.023,-0.395l0.026,-0.396l0.032,-0.432l0.034,-0.431l0.037,-0.431l0.04,-0.429l0.043,-0.429l0.047,-0.428l0.049,-0.427l0.052,-0.426l0.054,-0.424l0.058,-0.424l0.061,-0.423l0.063,-0.422l0.067,-0.421l0.069,-0.42l0.072,-0.419l0.075,-0.418l0.078,-0.417l0.081,-0.416l0.083,-0.414l0.087,-0.414l0.089,-0.413l0.092,-0.411l0.094,-0.411l0.098,-0.409l0.1,-0.408l0.103,-0.407l0.106,-0.406l0.108,-0.405l0.111,-0.404l0.114,-0.403l0.117,-0.401l0.119,-0.4l0.122,-0.399l0.125,-0.398l0.127,-0.397l0.13,-0.396l0.133,-0.394l0.135,-0.393l0.138,-0.392l0.141,-0.391l0.143,-0.389l0.145,-0.388l0.149,-0.387l0.151,-0.386l0.153,-0.384l0.156,-0.383l0.159,-0.382l0.161,-0.381l0.164,-0.379l0.166,-0.378l0.168,-0.376l0.172,-0.375l0.173,-0.374l0.176,-0.373l0.179,-0.371l0.181,-0.37l0.184,-0.368l0.186,-0.368l0.188,-0.365l0.191,-0.365l0.193,-0.362l0.196,-0.362l0.198,-0.36l0.2,-0.359l0.203,-0.357l0.205,-0.356l0.208,-0.354l0.209,-0.353l0.212,-0.351l0.1,-0.162l0.115,-0.188l0.217,-0.349l0.219,-0.347l0.222,-0.345l0.224,-0.344l0.226,-0.342l0.228,-0.341l0.231,-0.339l0.232,-0.338l0.235,-0.336l0.238,-0.335l0.239,-0.333l0.242,-0.332l0.244,-0.33l0.246,-0.328l0.248,-0.327l0.25,-0.325l0.253,-0.324l0.254,-0.322l0.257,-0.32l0.259,-0.319l0.261,-0.317l0.263,-0.316l0.265,-0.313l0.267,-0.313l0.27,-0.31l0.271,-0.309l0.273,-0.307l0.276,-0.306l0.277,-0.304l0.28,-0.302l0.281,-0.3l0.284,-0.299l0.285,-0.297l0.287,-0.295l0.29,-0.294l0.291,-0.292l0.293,-0.29l0.296,-0.288l0.297,-0.287l0.299,-0.284l0.301,-0.283l0.303,-0.282l0.305,-0.279l0.306,-0.278l0.309,-0.275l0.31,-0.274l0.312,-0.273l0.314,-0.27l0.316,-0.269l0.318,-0.266l0.319,-0.265l0.322,-0.263l0.323,-0.261l0.325,-0.26l0.326,-0.257l0.329,-0.256l0.33,-0.253l0.332,-0.252l0.333,-0.25l0.336,-0.248l0.337,-0.246l0.338,-0.244l0.341,-0.242l0.342,-0.24l0.344,-0.239l0.345,-0.236l0.347,-0.234l0.349,-0.233l0.35,-0.23l0.352,-0.229l0.354,-0.226l0.355,-0.225l0.357,-0.222l0.358,-0.221l0.36,-0.218l0.362,-0.217l0.363,-0.214l0.364,-0.212l0.367,-0.211l0.367,-0.208l0.369,-0.206l0.371,-0.204l0.372,-0.203l0.374,-0.2l0.375,-0.197l0.377,-0.196l0.378,-0.194l0.379,-0.192l0.381,-0.189l0.383,-0.188l0.384,-0.185l0.385,-0.183l0.387,-0.181l0.388,-0.179l0.389,-0.177l0.391,-0.174l0.392,-0.173l0.393,-0.17l0.395,-0.168l0.396,-0.166l0.398,-0.163l0.399,-0.162l0.4,-0.159l0.401,-0.157l0.403,-0.155l0.404,-0.152l0.405,-0.151l0.407,-0.148l0.407,-0.146l0.409,-0.143l0.411,-0.141l0.411,-0.139l0.413,-0.137l0.413,-0.135l0.415,-0.132l0.417,-0.13l0.417,-0.127l0.419,-0.125l0.419,-0.123l0.421,-0.121l0.422,-0.118l0.423,-0.116l0.424,-0.113l0.426,-0.112l0.426,-0.108l0.427,-0.107l0.429,-0.104l0.429,-0.102l0.248,-0.057l0.183,-0.042l0.432,-0.096l0.433,-0.094l0.434,-0.092l0.434,-0.089l0.436,-0.087l0.437,-0.084l0.438,-0.082l0.439,-0.08l0.439,-0.077l0.441,-0.074l0.442,-0.072l0.442,-0.07l0.444,-0.067l0.444,-0.064l0.446,-0.062l0.446,-0.06l0.447,-0.057l0.448,-0.055l0.449,-0.052l0.449,-0.049l0.451,-0.047l0.451,-0.044l0.452,-0.042l0.453,-0.039l0.454,-0.037l0.455,-0.034l0.455,-0.032l0.456,-0.029l0.457,-0.026l0.458,-0.024l0.459,-0.021l0.459,-0.018l0.46,-0.016l0.46,-0.013l0.462,-0.011l0.462,-0.008l0.462,-0.005l0.464,-0.003l0.464,0Zm-1.324,6.637l-0.424,0.003l-0.424,0.006l-0.422,0.008l-0.422,0.011l-0.421,0.013l-0.421,0.016l-0.419,0.018l-0.42,0.02l-0.418,0.023l-0.418,0.025l-0.416,0.027l-0.417,0.03l-0.415,0.032l-0.415,0.035l-0.414,0.037l-0.413,0.039l-0.412,0.042l-0.411,0.044l-0.411,0.046l-0.41,0.049l-0.409,0.05l-0.408,0.054l-0.408,0.055l-0.406,0.058l-0.406,0.06l-0.405,0.062l-0.404,0.065l-0.403,0.067l-0.402,0.069l-0.401,0.071l-0.401,0.074l-0.399,0.075l-0.399,0.078l-0.397,0.081l-0.397,0.082l-0.396,0.085l-0.168,0.037l-0.227,0.049l-0.393,0.089l-0.393,0.091l-0.392,0.093l-0.391,0.095l-0.39,0.098l-0.389,0.099l-0.388,0.102l-0.387,0.104l-0.385,0.106l-0.385,0.108l-0.384,0.11l-0.383,0.112l-0.381,0.115l-0.381,0.117l-0.379,0.118l-0.378,0.121l-0.377,0.123l-0.377,0.125l-0.374,0.127l-0.374,0.129l-0.373,0.131l-0.371,0.133l-0.371,0.136l-0.369,0.137l-0.368,0.139l-0.367,0.141l-0.365,0.144l-0.365,0.145l-0.363,0.148l-0.362,0.149l-0.361,0.151l-0.359,0.154l-0.358,0.155l-0.357,0.157l-0.356,0.16l-0.355,0.161l-0.353,0.163l-0.352,0.165l-0.35,0.167l-0.349,0.169l-0.348,0.171l-0.347,0.173l-0.345,0.175l-0.344,0.177l-0.343,0.178l-0.341,0.181l-0.339,0.182l-0.339,0.184l-0.337,0.186l-0.336,0.188l-0.334,0.19l-0.333,0.192l-0.331,0.193l-0.33,0.195l-0.328,0.198l-0.327,0.199l-0.326,0.2l-0.324,0.203l-0.323,0.204l-0.321,0.207l-0.319,0.208l-0.318,0.209l-0.317,0.212l-0.315,0.213l-0.314,0.215l-0.312,0.217l-0.31,0.219l-0.309,0.22l-0.307,0.222l-0.306,0.224l-0.304,0.226l-0.303,0.227l-0.301,0.229l-0.299,0.23l-0.298,0.233l-0.296,0.234l-0.294,0.236l-0.293,0.237l-0.291,0.239l-0.289,0.241l-0.288,0.242l-0.286,0.244l-0.285,0.246l-0.283,0.247l-0.281,0.249l-0.279,0.25l-0.277,0.253l-0.276,0.253l-0.274,0.256l-0.273,0.257l-0.27,0.258l-0.269,0.26l-0.267,0.262l-0.265,0.263l-0.264,0.265l-0.261,0.266l-0.26,0.268l-0.258,0.27l-0.257,0.271l-0.254,0.272l-0.252,0.274l-0.251,0.276l-0.249,0.277l-0.247,0.278l-0.245,0.28l-0.243,0.282l-0.241,0.283l-0.24,0.284l-0.237,0.286l-0.236,0.288l-0.233,0.288l-0.232,0.291l-0.229,0.292l-0.228,0.293l-0.226,0.294l-0.224,0.296l-0.222,0.298l-0.219,0.299l-0.218,0.3l-0.216,0.302l-0.214,0.303l-0.212,0.304l-0.209,0.306l-0.208,0.307l-0.206,0.309l-0.203,0.31l-0.202,0.311l-0.199,0.313l-0.106,0.168l-0.092,0.145l-0.195,0.316l-0.194,0.316l-0.191,0.318l-0.189,0.319l-0.187,0.321l-0.185,0.321l-0.183,0.324l-0.18,0.324l-0.179,0.326l-0.176,0.327l-0.174,0.328l-0.172,0.329l-0.17,0.331l-0.168,0.332l-0.165,0.333l-0.163,0.335l-0.161,0.336l-0.159,0.337l-0.156,0.338l-0.154,0.339l-0.152,0.341l-0.15,0.342l-0.147,0.343l-0.145,0.344l-0.143,0.346l-0.14,0.347l-0.139,0.347l-0.136,0.35l-0.133,0.35l-0.131,0.351l-0.129,0.353l-0.127,0.353l-0.124,0.355l-0.122,0.356l-0.119,0.358l-0.117,0.358l-0.115,0.359l-0.112,0.361l-0.11,0.362l-0.107,0.362l-0.105,0.364l-0.102,0.365l-0.1,0.366l-0.098,0.368l-0.095,0.368l-0.093,0.369l-0.09,0.371l-0.088,0.371l-0.085,0.373l-0.082,0.374l-0.081,0.374l-0.077,0.376l-0.075,0.377l-0.073,0.378l-0.07,0.379l-0.067,0.38l-0.065,0.381l-0.062,0.382l-0.06,0.383l-0.057,0.384l-0.054,0.385l-0.052,0.386l-0.049,0.387l-0.047,0.388l-0.044,0.389l-0.041,0.39l-0.038,0.391l-0.036,0.391l-0.033,0.394l-0.028,0.358l-0.026,0.359l-0.023,0.359l-0.021,0.359l-0.018,0.359l-0.016,0.36l-0.014,0.359l-0.012,0.36l-0.009,0.36l-0.007,0.36l-0.004,0.36l-0.003,0.36l0.001,0.361l0.002,0.36l0.005,0.361l0.007,0.36l0.009,0.361l0.012,0.36l0.014,0.361l0.017,0.361l0.018,0.361l0.021,0.36l0.024,0.361l0.025,0.361l0.028,0.361l0.031,0.36l0.032,0.361l0.035,0.361l0.038,0.36l0.039,0.361l0.042,0.36l0.044,0.361l0.047,0.36l0.049,0.36l0.051,0.36l0.053,0.36l0.056,0.36l0.058,0.36l0.06,0.359l0.063,0.36l0.065,0.359l0.067,0.359l0.07,0.359l0.072,0.359l0.074,0.358l0.077,0.358l0.079,0.359l0.081,0.357l0.083,0.358l0.086,0.357l0.088,0.358l0.09,0.356l0.093,0.357l0.095,0.356l0.097,0.356l0.1,0.356l0.102,0.355l0.104,0.356l0.098,0.326l0.045,-0.001l0,0.004l94.09,-0.504l39.088,-0.195l0.002,-0.024l0.023,-0.206l0.023,-0.205l0.021,-0.205l0.021,-0.206l0.02,-0.205l0.019,-0.205l0.019,-0.206l0.017,-0.206l0.017,-0.205l0.016,-0.206l0.016,-0.206l0.014,-0.205l0.014,-0.206l0.013,-0.206l0.013,-0.206l0.011,-0.206l0.011,-0.206l0.01,-0.205l0.009,-0.206l0.009,-0.206l0.008,-0.206l0.007,-0.206l0.006,-0.207l0.003,-0.119l0.003,-0.087l0.007,-0.204l0.011,-0.401l0.008,-0.399l0.005,-0.398l0.002,-0.398l0,-0.397l-0.004,-0.397l-0.005,-0.396l-0.009,-0.395l-0.012,-0.395l-0.014,-0.395l-0.017,-0.393l-0.019,-0.393l-0.023,-0.393l-0.025,-0.392l-0.027,-0.391l-0.031,-0.391l-0.033,-0.39l-0.036,-0.389l-0.038,-0.389l-0.041,-0.388l-0.044,-0.387l-0.046,-0.387l-0.049,-0.386l-0.051,-0.385l-0.054,-0.385l-0.057,-0.383l-0.059,-0.384l-0.062,-0.382l-0.064,-0.382l-0.067,-0.381l-0.07,-0.38l-0.072,-0.38l-0.074,-0.378l-0.075,-0.367l-0.002,-0.011l-0.074,-0.379l-0.077,-0.377l-0.079,-0.377l-0.082,-0.376l-0.084,-0.375l-0.087,-0.375l-0.089,-0.373l-0.092,-0.374l-0.094,-0.372l-0.096,-0.372l-0.099,-0.37l-0.101,-0.37l-0.104,-0.37l-0.106,-0.368l-0.109,-0.368l-0.111,-0.367l-0.113,-0.366l-0.116,-0.365l-0.118,-0.364l-0.12,-0.364l-0.123,-0.363l-0.125,-0.362l-0.127,-0.361l-0.13,-0.36l-0.132,-0.359l-0.134,-0.359l-0.137,-0.357l-0.139,-0.357l-0.141,-0.356l-0.144,-0.355l-0.145,-0.354l-0.148,-0.353l-0.151,-0.352l-0.152,-0.351l-0.155,-0.351l-0.157,-0.349l-0.159,-0.348l-0.161,-0.348l-0.164,-0.346l-0.165,-0.345l-0.168,-0.345l-0.17,-0.343l-0.173,-0.343l-0.174,-0.341l-0.176,-0.341l-0.179,-0.339l-0.181,-0.338l-0.183,-0.338l-0.115,-0.208l-0.068,-0.129l-0.183,-0.337l-0.185,-0.337l-0.187,-0.335l-0.189,-0.335l-0.191,-0.333l-0.193,-0.333l-0.195,-0.331l-0.198,-0.33l-0.199,-0.33l-0.202,-0.328l-0.203,-0.327l-0.206,-0.326l-0.208,-0.325l-0.209,-0.324l-0.212,-0.322l-0.214,-0.322l-0.216,-0.32l-0.217,-0.319l-0.22,-0.318l-0.222,-0.317l-0.223,-0.316l-0.226,-0.315l-0.228,-0.313l-0.229,-0.312l-0.232,-0.311l-0.233,-0.31l-0.236,-0.309l-0.009,-0.011l-0.226,-0.298l-0.237,-0.308l-0.238,-0.307l-0.241,-0.305l-0.242,-0.305l-0.245,-0.303l-0.246,-0.302l-0.248,-0.3l-0.25,-0.3l-0.252,-0.298l-0.254,-0.297l-0.256,-0.295l-0.257,-0.294l-0.26,-0.293l-0.034,-0.038l-0.225,-0.255l-0.262,-0.292l-0.263,-0.29l-0.265,-0.29l-0.267,-0.288l-0.268,-0.286l-0.27,-0.285l-0.273,-0.284l-0.274,-0.283l-0.275,-0.281l-0.278,-0.279l-0.279,-0.279l-0.281,-0.277l-0.283,-0.275l-0.098,-0.094l-0.185,-0.181l-0.285,-0.274l-0.287,-0.273l-0.289,-0.271l-0.29,-0.269l-0.292,-0.269l-0.293,-0.266l-0.296,-0.266l-0.297,-0.264l-0.298,-0.262l-0.301,-0.261l-0.302,-0.259l-0.303,-0.258l-0.306,-0.256l-0.307,-0.255l-0.308,-0.253l-0.311,-0.252l-0.311,-0.25l-0.314,-0.249l-0.315,-0.247l-0.317,-0.245l-0.318,-0.244l-0.32,-0.242l-0.322,-0.241l-0.323,-0.239l-0.324,-0.237l-0.326,-0.236l-0.328,-0.234l-0.329,-0.233l-0.331,-0.23l-0.332,-0.229l-0.334,-0.228l-0.336,-0.226l-0.24,-0.159l-0.096,-0.065l-0.338,-0.223l-0.34,-0.221l-0.341,-0.219l-0.342,-0.218l-0.344,-0.216l-0.345,-0.214l-0.347,-0.213l-0.348,-0.211l-0.35,-0.209l-0.351,-0.207l-0.352,-0.205l-0.354,-0.204l-0.355,-0.202l-0.357,-0.2l-0.358,-0.198l-0.36,-0.196l-0.36,-0.194l-0.363,-0.193l-0.363,-0.191l-0.365,-0.189l-0.366,-0.187l-0.368,-0.185l-0.369,-0.183l-0.37,-0.181l-0.372,-0.18l-0.373,-0.177l-0.374,-0.176l-0.375,-0.173l-0.377,-0.172l-0.378,-0.17l-0.379,-0.168l-0.381,-0.165l-0.381,-0.164l-0.383,-0.162l-0.385,-0.16l-0.385,-0.157l-0.387,-0.156l-0.388,-0.154l-0.389,-0.152l-0.39,-0.149l-0.391,-0.148l-0.021,-0.007l-0.372,-0.139l-0.393,-0.144l-0.395,-0.142l-0.396,-0.14l-0.397,-0.137l-0.399,-0.136l-0.399,-0.134l-0.401,-0.131l-0.401,-0.129l-0.403,-0.128l-0.404,-0.125l-0.405,-0.122l-0.406,-0.121l-0.407,-0.119l-0.408,-0.116l-0.41,-0.114l-0.41,-0.112l-0.411,-0.11l-0.413,-0.107l-0.414,-0.106l-0.414,-0.103l-0.416,-0.101l-0.416,-0.098l-0.418,-0.097l-0.419,-0.094l-0.419,-0.092l-0.421,-0.089l-0.422,-0.087l-0.422,-0.085l-0.424,-0.083l-0.424,-0.08l-0.426,-0.078l-0.426,-0.076l-0.427,-0.073l-0.429,-0.071l-0.429,-0.069l-0.43,-0.066l-0.431,-0.064l-0.432,-0.061l-0.433,-0.059l-0.434,-0.057l-0.434,-0.054l-0.436,-0.052l-0.435,-0.049l-0.436,-0.047l-0.434,-0.044l-0.435,-0.041l-0.433,-0.039l-0.433,-0.037l-0.433,-0.034l-0.432,-0.031l-0.432,-0.029l-0.431,-0.026l-0.431,-0.024l-0.43,-0.021l-0.429,-0.019l-0.429,-0.017l-0.428,-0.013l-0.428,-0.012l-0.427,-0.009l-0.426,-0.006l-0.426,-0.004l-0.425,-0.001l-0.424,0.001Z"/></g><g><path d="M209.957,83.857c5.95,-1.014 11.227,0.776 11.776,3.995c0.548,3.219 -3.837,6.656 -9.788,7.671c-5.95,1.014 -11.227,-0.776 -11.776,-3.995c-0.548,-3.219 3.837,-6.656 9.788,-7.671Z" style="fill:#008fd7;"/><path d="M210.075,85.33l-0.068,0.016l-0.06,0.013l-0.127,0.03l-0.126,0.03l-0.126,0.031l-0.125,0.032l-0.124,0.032l-0.124,0.034l-0.123,0.034l-0.122,0.035l-0.121,0.035l-0.121,0.036l-0.12,0.037l-0.119,0.038l-0.118,0.038l-0.118,0.038l-0.117,0.04l-0.115,0.04l-0.116,0.041l-0.114,0.041l-0.113,0.042l-0.113,0.043l-0.112,0.043l-0.111,0.044l-0.11,0.044l-0.109,0.045l-0.108,0.045l-0.107,0.046l-0.107,0.047l-0.105,0.047l-0.105,0.047l-0.103,0.048l-0.103,0.049l-0.101,0.049l-0.101,0.049l-0.099,0.05l-0.099,0.05l-0.098,0.051l-0.096,0.051l-0.096,0.052l-0.094,0.052l-0.093,0.052l-0.093,0.053l-0.091,0.053l-0.022,0.013l-0.068,0.04l-0.089,0.054l-0.088,0.054l-0.087,0.054l-0.086,0.055l-0.084,0.054l-0.083,0.056l-0.083,0.055l-0.081,0.055l-0.079,0.056l-0.079,0.056l-0.077,0.057l-0.077,0.056l-0.075,0.057l-0.073,0.056l-0.073,0.057l-0.071,0.057l-0.07,0.057l-0.068,0.057l-0.067,0.058l-0.066,0.057l-0.065,0.057l-0.063,0.058l-0.062,0.057l-0.061,0.057l-0.059,0.058l-0.058,0.057l-0.057,0.057l-0.055,0.057l-0.054,0.057l-0.052,0.057l-0.051,0.056l-0.05,0.057l-0.048,0.056l-0.047,0.056l-0.045,0.056l-0.044,0.055l-0.042,0.055l-0.042,0.055l-0.039,0.055l-0.039,0.054l-0.036,0.053l-0.036,0.054l-0.034,0.052l-0.032,0.053l-0.032,0.052l-0.029,0.051l-0.029,0.051l-0.027,0.05l-0.026,0.05l-0.024,0.049l-0.023,0.048l-0.022,0.048l-0.02,0.047l-0.019,0.046l-0.018,0.046l-0.016,0.044l-0.016,0.045l-0.014,0.043l-0.013,0.043l-0.011,0.041l-0.011,0.042l-0.01,0.04l-0.008,0.039l-0.008,0.039l-0.006,0.038l-0.005,0.037l-0.005,0.037l-0.004,0.035l-0.002,0.035l-0.002,0.035l-0.001,0.033l-0.001,0.033l0.001,0.033l0.001,0.031l0.002,0.032l0.003,0.031l0.003,0.03l0.004,0.03l0.005,0.03l0.006,0.029l0.006,0.03l0.006,0.029l0.008,0.029l0.008,0.029l0.009,0.028l0.009,0.028l0.011,0.028l0.01,0.027l0.012,0.028l0.012,0.027l0.012,0.027l0.014,0.027l0.014,0.027l0.015,0.027l0.016,0.028l0.017,0.027l0.017,0.028l0.018,0.027l0.02,0.028l0.02,0.028l0.022,0.029l0.022,0.028l0.023,0.029l0.025,0.029l0.026,0.03l0.026,0.029l0.028,0.03l0.03,0.03l0.03,0.03l0.032,0.03l0.033,0.031l0.034,0.031l0.036,0.03l0.037,0.031l0.038,0.031l0.04,0.032l0.041,0.031l0.042,0.031l0.044,0.031l0.045,0.032l0.046,0.031l0.048,0.031l0.049,0.031l0.051,0.031l0.052,0.031l0.053,0.031l0.055,0.03l0.056,0.031l0.057,0.03l0.059,0.03l0.06,0.03l0.061,0.029l0.063,0.029l0.064,0.029l0.065,0.029l0.067,0.028l0.068,0.028l0.069,0.027l0.07,0.027l0.072,0.027l0.073,0.026l0.074,0.026l0.075,0.025l0.077,0.025l0.077,0.024l0.079,0.024l0.08,0.023l0.081,0.023l0.017,0.005l0.065,0.018l0.083,0.022l0.084,0.021l0.085,0.021l0.087,0.02l0.087,0.02l0.088,0.019l0.09,0.018l0.09,0.018l0.092,0.018l0.092,0.016l0.093,0.016l0.094,0.015l0.095,0.015l0.096,0.014l0.097,0.013l0.098,0.013l0.099,0.011l0.099,0.011l0.1,0.011l0.101,0.01l0.102,0.008l0.103,0.009l0.103,0.007l0.104,0.007l0.105,0.006l0.106,0.005l0.106,0.004l0.107,0.004l0.108,0.003l0.108,0.002l0.109,0.001l0.109,0.001l0.111,0l0.11,-0.002l0.112,-0.002l0.112,-0.002l0.112,-0.004l0.113,-0.004l0.114,-0.005l0.114,-0.006l0.114,-0.007l0.115,-0.008l0.116,-0.009l0.116,-0.009l0.116,-0.01l0.117,-0.012l0.117,-0.012l0.118,-0.012l0.118,-0.014l0.118,-0.015l0.119,-0.015l0.119,-0.017l0.119,-0.017l0.12,-0.018l0.12,-0.019l0.12,-0.02l0.121,-0.021l0.121,-0.022l0.121,-0.022l0.121,-0.024l0.101,-0.02l0.021,-0.004l0.122,-0.025l0.121,-0.026l0.121,-0.026l0.121,-0.028l0.119,-0.027l0.119,-0.029l0.119,-0.029l0.118,-0.031l0.117,-0.03l0.116,-0.032l0.116,-0.032l0.115,-0.033l0.114,-0.033l0.113,-0.034l0.113,-0.035l0.112,-0.035l0.111,-0.036l0.11,-0.036l0.11,-0.038l0.109,-0.037l0.108,-0.039l0.107,-0.038l0.106,-0.04l0.105,-0.04l0.105,-0.04l0.104,-0.041l0.102,-0.042l0.102,-0.042l0.101,-0.042l0.1,-0.043l0.099,-0.044l0.099,-0.043l0.097,-0.045l0.096,-0.045l0.095,-0.045l0.094,-0.045l0.094,-0.046l0.092,-0.047l0.091,-0.046l0.09,-0.048l0.089,-0.047l0.088,-0.048l0.087,-0.048l0.086,-0.048l0.085,-0.049l0.083,-0.049l0.083,-0.049l0.081,-0.05l0.08,-0.049l0.079,-0.05l0.078,-0.05l0.077,-0.05l0.075,-0.051l0.075,-0.05l0.073,-0.051l0.071,-0.051l0.071,-0.051l0.055,-0.041l0.014,-0.01l0.069,-0.05l0.067,-0.051l0.066,-0.051l0.064,-0.05l0.063,-0.051l0.062,-0.05l0.061,-0.051l0.059,-0.05l0.058,-0.051l0.056,-0.05l0.056,-0.05l0.053,-0.05l0.053,-0.05l0.051,-0.049l0.049,-0.049l0.049,-0.049l0.047,-0.049l0.045,-0.048l0.044,-0.048l0.043,-0.048l0.041,-0.047l0.04,-0.047l0.038,-0.046l0.037,-0.046l0.035,-0.045l0.034,-0.045l0.033,-0.044l0.031,-0.044l0.03,-0.043l0.029,-0.042l0.027,-0.041l0.026,-0.041l0.024,-0.04l0.023,-0.039l0.022,-0.039l0.02,-0.037l0.019,-0.037l0.018,-0.035l0.016,-0.035l0.016,-0.034l0.014,-0.032l0.013,-0.032l0.012,-0.031l0.011,-0.03l0.009,-0.028l0.009,-0.028l0.008,-0.026l0.007,-0.025l0.005,-0.024l0.006,-0.023l0.004,-0.022l0.003,-0.021l0.003,-0.02l0.002,-0.019l0.002,-0.017l0.001,-0.017l0,-0.016l0,-0.015l0,-0.014l-0.001,-0.013l-0.001,-0.012l-0.001,-0.012l-0.002,-0.011l-0.002,-0.01l-0.002,-0.01l-0.002,-0.009l-0.003,-0.01l-0.003,-0.008l-0.003,-0.009l-0.003,-0.009l-0.003,-0.008l-0.001,-0.003l-0.002,-0.006l-0.004,-0.008l-0.003,-0.009l-0.004,-0.008l-0.003,-0.008l-0.004,-0.008l-0.005,-0.009l-0.004,-0.008l-0.005,-0.01l-0.006,-0.009l-0.005,-0.01l-0.007,-0.01l-0.007,-0.011l-0.007,-0.012l-0.008,-0.012l-0.009,-0.013l-0.01,-0.013l-0.011,-0.014l-0.011,-0.015l-0.012,-0.015l-0.014,-0.016l-0.014,-0.017l-0.016,-0.018l-0.016,-0.018l-0.018,-0.018l-0.019,-0.02l-0.02,-0.02l-0.022,-0.02l-0.023,-0.022l-0.024,-0.021l-0.025,-0.023l-0.027,-0.022l-0.018,-0.015l-0.01,-0.009l-0.029,-0.024l-0.031,-0.025l-0.032,-0.025l-0.033,-0.025l-0.035,-0.026l-0.037,-0.026l-0.038,-0.026l-0.039,-0.027l-0.041,-0.026l-0.042,-0.027l-0.044,-0.027l-0.046,-0.027l-0.047,-0.027l-0.048,-0.027l-0.05,-0.028l-0.051,-0.027l-0.053,-0.027l-0.054,-0.027l-0.056,-0.027l-0.057,-0.026l-0.058,-0.027l-0.025,-0.011l-0.034,-0.017l-0.061,-0.028l-0.061,-0.029l-0.063,-0.028l-0.065,-0.028l-0.065,-0.028l-0.067,-0.027l-0.069,-0.028l-0.045,-0.017l-0.024,-0.011l-0.07,-0.03l-0.071,-0.029l-0.073,-0.029l-0.074,-0.029l-0.075,-0.029l-0.077,-0.028l-0.077,-0.028l-0.026,-0.009l-0.052,-0.022l-0.079,-0.032l-0.081,-0.031l-0.081,-0.031l-0.083,-0.031l-0.084,-0.03l-0.086,-0.029l-0.086,-0.03l-0.088,-0.028l-0.089,-0.029l-0.09,-0.027l-0.091,-0.027l-0.092,-0.027l-0.093,-0.026l-0.018,-0.005l-0.076,-0.028l-0.094,-0.033l-0.096,-0.034l-0.096,-0.032l-0.098,-0.032l-0.099,-0.032l-0.101,-0.031l-0.101,-0.03l-0.102,-0.03l-0.104,-0.029l-0.104,-0.029l-0.106,-0.028l-0.106,-0.027l-0.108,-0.027l-0.108,-0.025l-0.11,-0.026l-0.11,-0.024l-0.112,-0.024l-0.112,-0.023l-0.113,-0.023l-0.115,-0.022l-0.115,-0.021l-0.051,-0.009l-0.065,-0.017l-0.117,-0.029l-0.118,-0.029l-0.119,-0.028l-0.121,-0.028l-0.121,-0.026l-0.122,-0.026l-0.123,-0.026l-0.124,-0.024l-0.125,-0.023l-0.125,-0.023l-0.127,-0.022l-0.127,-0.021l-0.129,-0.02l-0.129,-0.02l-0.047,-0.007l-0.083,-0.016l-0.132,-0.025l-0.133,-0.024l-0.134,-0.023l-0.134,-0.023l-0.136,-0.021l-0.097,-0.014l-0.043,-0.007l-0.124,0.027Zm-0.222,-2.985l0.142,-0.066l0.143,-0.065l0.144,-0.064l0.143,-0.062l0.144,-0.062l0.092,-0.038l0.053,-0.019l0.146,-0.052l0.145,-0.051l0.146,-0.049l0.146,-0.048l0.146,-0.048l0.146,-0.046l0.146,-0.045l0.146,-0.043l0.147,-0.043l0.146,-0.041l0.147,-0.041l0.147,-0.039l0.146,-0.038l0.147,-0.036l0.082,-0.02l0.065,-0.012l0.147,-0.024l0.146,-0.023l0.147,-0.022l0.146,-0.021l0.147,-0.02l0.146,-0.018l0.146,-0.018l0.145,-0.016l0.146,-0.015l0.145,-0.014l0.145,-0.013l0.145,-0.012l0.145,-0.01l0.144,-0.01l0.145,-0.008l0.144,-0.007l0.143,-0.006l0.144,-0.005l0.143,-0.003l0.143,-0.002l0.142,-0.001l0.116,0l0.026,0.001l0.141,0.01l0.14,0.012l0.14,0.012l0.139,0.013l0.139,0.015l0.139,0.016l0.138,0.016l0.137,0.019l0.137,0.019l0.136,0.02l0.136,0.022l0.136,0.023l0.135,0.024l0.091,0.017l0.043,0.01l0.133,0.031l0.132,0.033l0.131,0.034l0.131,0.035l0.13,0.036l0.13,0.037l0.129,0.039l0.045,0.014l0.082,0.028l0.126,0.044l0.126,0.046l0.125,0.047l0.124,0.048l0.124,0.049l0.123,0.051l0.122,0.052l0.07,0.031l0.05,0.024l0.12,0.057l0.118,0.058l0.118,0.06l0.117,0.061l0.116,0.062l0.115,0.064l0.114,0.065l0.113,0.067l0.113,0.068l0.111,0.069l0.11,0.071l0.11,0.072l0.108,0.074l0.108,0.076l0.106,0.077l0.106,0.079l0.104,0.08l0.103,0.082l0.102,0.084l0.101,0.085l0.1,0.088l0.035,0.032l0.063,0.057l0.096,0.091l0.095,0.093l0.094,0.095l0.092,0.097l0.091,0.098l0.089,0.101l0.087,0.102l0.086,0.104l0.084,0.106l0.083,0.108l0.08,0.11l0.078,0.111l0.077,0.114l0.074,0.116l0.073,0.117l0.069,0.119l0.068,0.121l0.065,0.123l0.063,0.124l0.061,0.127l0.057,0.128l0.055,0.129l0.052,0.131l0.05,0.133l0.046,0.134l0.044,0.135l0.04,0.137l0.037,0.138l0.034,0.139l0.031,0.14l0.028,0.141l0.018,0.101l0.006,0.041l0.021,0.142l0.017,0.143l0.014,0.142l0.01,0.143l0.007,0.142l0.004,0.142l0,0.142l-0.002,0.141l-0.006,0.141l-0.009,0.14l-0.013,0.139l-0.015,0.139l-0.018,0.138l-0.022,0.137l-0.024,0.135l-0.027,0.135l-0.029,0.134l-0.033,0.133l-0.035,0.131l-0.037,0.13l-0.04,0.129l-0.043,0.128l-0.045,0.127l-0.047,0.125l-0.049,0.124l-0.052,0.122l-0.053,0.122l-0.056,0.12l-0.057,0.118l-0.06,0.118l-0.061,0.116l-0.063,0.114l-0.065,0.114l-0.067,0.112l-0.068,0.111l-0.07,0.109l-0.072,0.109l-0.073,0.107l-0.075,0.106l-0.076,0.104l-0.078,0.104l-0.079,0.102l-0.081,0.101l-0.082,0.1l-0.083,0.099l-0.085,0.098l-0.086,0.097l-0.087,0.095l-0.089,0.095l-0.089,0.093l-0.091,0.093l-0.093,0.091l-0.093,0.091l-0.095,0.089l-0.095,0.088l-0.097,0.088l-0.098,0.087l-0.1,0.085l-0.1,0.085l-0.101,0.084l-0.103,0.082l-0.103,0.082l-0.105,0.081l-0.106,0.08l-0.106,0.08l-0.108,0.078l-0.109,0.078l-0.11,0.076l-0.11,0.076l-0.112,0.075l-0.113,0.074l-0.023,0.015l-0.091,0.058l-0.115,0.072l-0.116,0.071l-0.117,0.07l-0.118,0.069l-0.119,0.068l-0.12,0.068l-0.12,0.067l-0.122,0.066l-0.123,0.065l-0.123,0.064l-0.124,0.064l-0.126,0.062l-0.126,0.062l-0.127,0.061l-0.128,0.06l-0.128,0.059l-0.13,0.059l-0.13,0.057l-0.131,0.057l-0.133,0.056l-0.132,0.055l-0.134,0.054l-0.135,0.053l-0.135,0.053l-0.136,0.051l-0.137,0.051l-0.137,0.05l-0.139,0.049l-0.139,0.048l-0.14,0.047l-0.14,0.047l-0.142,0.045l-0.142,0.045l-0.143,0.044l-0.143,0.042l-0.145,0.042l-0.145,0.041l-0.145,0.04l-0.147,0.04l-0.147,0.038l-0.147,0.037l-0.149,0.037l-0.149,0.035l-0.149,0.035l-0.151,0.033l-0.15,0.033l-0.152,0.031l-0.152,0.031l-0.153,0.03l-0.153,0.028l-0.154,0.028l-0.155,0.027l-0.155,0.025l-0.155,0.025l-0.157,0.024l-0.156,0.023l-0.157,0.021l-0.027,0.004l-0.13,0.016l-0.156,0.019l-0.156,0.018l-0.156,0.017l-0.155,0.015l-0.155,0.015l-0.154,0.013l-0.155,0.012l-0.153,0.011l-0.154,0.01l-0.153,0.009l-0.152,0.008l-0.152,0.007l-0.152,0.006l-0.151,0.004l-0.151,0.004l-0.151,0.002l-0.149,0.002l-0.15,0l-0.149,0l-0.148,-0.002l-0.148,-0.003l-0.147,-0.004l-0.147,-0.004l-0.147,-0.006l-0.145,-0.007l-0.146,-0.008l-0.144,-0.009l-0.145,-0.01l-0.143,-0.011l-0.143,-0.012l-0.142,-0.013l-0.142,-0.014l-0.141,-0.015l-0.141,-0.016l-0.14,-0.017l-0.139,-0.017l-0.138,-0.019l-0.138,-0.02l-0.138,-0.021l-0.136,-0.022l-0.136,-0.023l-0.136,-0.024l-0.134,-0.025l-0.134,-0.026l-0.133,-0.027l-0.133,-0.028l-0.131,-0.029l-0.131,-0.03l-0.131,-0.031l-0.129,-0.032l-0.129,-0.033l-0.128,-0.033l-0.127,-0.035l-0.126,-0.036l-0.126,-0.037l-0.125,-0.038l-0.124,-0.039l-0.123,-0.04l-0.122,-0.04l-0.122,-0.042l-0.096,-0.034l-0.025,-0.009l-0.12,-0.044l-0.119,-0.046l-0.118,-0.046l-0.117,-0.047l-0.116,-0.049l-0.116,-0.049l-0.114,-0.05l-0.114,-0.052l-0.113,-0.052l-0.111,-0.054l-0.111,-0.055l-0.11,-0.056l-0.109,-0.056l-0.108,-0.059l-0.107,-0.059l-0.106,-0.06l-0.105,-0.061l-0.104,-0.063l-0.103,-0.064l-0.102,-0.065l-0.101,-0.066l-0.099,-0.067l-0.099,-0.069l-0.098,-0.069l-0.096,-0.072l-0.095,-0.072l-0.094,-0.073l-0.093,-0.075l-0.092,-0.077l-0.09,-0.077l-0.089,-0.079l-0.088,-0.08l-0.086,-0.082l-0.085,-0.083l-0.084,-0.084l-0.082,-0.086l-0.081,-0.087l-0.079,-0.089l-0.077,-0.09l-0.076,-0.091l-0.075,-0.093l-0.072,-0.094l-0.071,-0.096l-0.069,-0.097l-0.068,-0.099l-0.065,-0.1l-0.064,-0.102l-0.061,-0.103l-0.059,-0.104l-0.058,-0.106l-0.055,-0.107l-0.052,-0.109l-0.051,-0.11l-0.048,-0.111l-0.046,-0.112l-0.043,-0.113l-0.041,-0.115l-0.039,-0.116l-0.035,-0.116l-0.033,-0.118l-0.031,-0.119l-0.027,-0.119l-0.025,-0.12l-0.022,-0.121l-0.019,-0.122l-0.017,-0.122l-0.013,-0.122l-0.011,-0.122l-0.008,-0.122l-0.005,-0.121l-0.002,-0.122l0.001,-0.121l0.004,-0.121l0.006,-0.12l0.009,-0.12l0.012,-0.119l0.014,-0.119l0.017,-0.118l0.019,-0.118l0.022,-0.116l0.024,-0.116l0.027,-0.115l0.029,-0.114l0.032,-0.114l0.033,-0.112l0.036,-0.112l0.038,-0.11l0.04,-0.11l0.042,-0.108l0.044,-0.108l0.046,-0.107l0.048,-0.105l0.05,-0.105l0.052,-0.104l0.053,-0.102l0.056,-0.102l0.056,-0.101l0.059,-0.1l0.06,-0.098l0.062,-0.098l0.063,-0.097l0.065,-0.096l0.067,-0.095l0.068,-0.094l0.069,-0.093l0.071,-0.092l0.072,-0.091l0.074,-0.091l0.075,-0.089l0.076,-0.089l0.078,-0.087l0.079,-0.087l0.08,-0.086l0.081,-0.085l0.083,-0.085l0.084,-0.083l0.085,-0.083l0.087,-0.082l0.087,-0.081l0.089,-0.08l0.09,-0.079l0.091,-0.079l0.093,-0.078l0.093,-0.077l0.095,-0.076l0.095,-0.076l0.097,-0.075l0.098,-0.074l0.099,-0.073l0.1,-0.072l0.101,-0.072l0.102,-0.071l0.103,-0.07l0.104,-0.07l0.106,-0.069l0.106,-0.068l0.107,-0.067l0.108,-0.066l0.11,-0.066l0.11,-0.065l0.111,-0.065l0.112,-0.063l0.113,-0.063l0.114,-0.062l0.115,-0.061l0.116,-0.061l0.117,-0.06l0.118,-0.059l0.09,-0.044l0.028,-0.014l0.12,-0.057l0.121,-0.057l0.121,-0.056l0.122,-0.055l0.123,-0.054l0.124,-0.053l0.125,-0.053l0.126,-0.052l0.126,-0.051l0.128,-0.05l0.128,-0.05l0.129,-0.049l0.129,-0.048l0.131,-0.047l0.131,-0.046l0.132,-0.046l0.133,-0.044l0.134,-0.044l0.134,-0.043l0.135,-0.042l0.136,-0.042l0.136,-0.04l0.138,-0.04l0.138,-0.039l0.138,-0.038l0.139,-0.037l0.14,-0.036l0.141,-0.035l0.141,-0.034l0.142,-0.034l0.143,-0.033l0.143,-0.031l0.144,-0.031l0.144,-0.03l0.145,-0.029l0.146,-0.028l0.146,-0.027l0.147,-0.026l0.147,-0.026l0.148,-0.024l0.149,-0.023l0.149,-0.023l0.07,-0.01l0.079,-0.011l0.154,-0.02l0.044,-0.023l0.095,-0.045Z" style="fill:#008fd7;"/><path d="M277.25,26.678l104.463,1.739l-97.988,36.249l-104.462,-1.739l97.987,-36.249Z"/><path d="M276.298,29.204l-42.604,16.087l-39.755,14.997l25.252,0.258l62.603,0.667l1.346,0.019l-0.001,-0.004l55.055,-20.368l-0.086,-0.307l22.491,-8.436l-9.999,-0.152l-6.841,-0.135l-6.727,-0.171l-12.957,-0.43l-22.792,-1.041l-16.479,-0.968l-7.227,-0.49l-0.021,-0.001l-1.258,0.475Zm67.596,-5.462l6.841,0.093l16.299,0.294l14.745,0.292l0.687,0.073l0.664,0.191l0.62,0.302l0.559,0.404l0.481,0.495l0.388,0.569l0.284,0.627l0.132,0.513l0.039,0.153l0.053,0.686l-0.066,0.684l-0.182,0.661l-0.294,0.62l-0.395,0.56l-0.486,0.482l-0.561,0.391l-0.619,0.289l-42.973,15.681l-55.194,20.082l-0.407,0.12l-0.418,0.068l-0.422,0.016l-0.557,-0.012l-63.466,-1.43l0.005,-0.257l-40.435,-0.673l-0.478,-0.055l-0.462,-0.136l-0.43,-0.213l-0.387,-0.283l-0.331,-0.346l-0.266,-0.396l-0.194,-0.436l-0.116,-0.462l-0.034,-0.474l0.048,-0.471l0.128,-0.456l0.205,-0.426l0.274,-0.384l0.336,-0.33l0.387,-0.267l0.426,-0.196l53.746,-19.492l42.816,-15.513l1.663,-0.602l0.24,-0.072l0.247,-0.042l0.25,-0.011l0.361,-0.014l7.239,-0.25l16.502,-0.419l22.814,-0.281l12.964,0.001l6.73,0.052Z"/><path d="M286.665,39.729l-7.182,-3.465l-20.674,4.807l-15.765,4.676l-8.044,2.594l-5.747,2.69l-4.637,3.002l-4.748,3.881l-4.964,5.957l-5.043,9.816l-1.49,9.791l-0.646,8.419l0.143,27.78l18.806,-2.928l-10.819,-25.403l-2.059,-14.76l5.287,-15.651l8.168,-8.609l7.749,-3.985l12.947,-4.049l13.43,-3.818l8.271,-1.923l9.522,-0.609l1.607,0.334l3.212,1.291l2.676,0.162Z" style="fill:#008fd7;"/><path d="M288.364,38.058l0.261,0.316l0.203,0.355l0.14,0.385l0.071,0.404l0.001,0.409l-0.069,0.404l-0.137,0.386l-0.201,0.357l-0.259,0.317l-0.31,0.268l-0.351,0.211l-0.382,0.148l-0.401,0.08l-0.41,0.01l-1.442,-0.073l-1.235,-0.063l-0.384,-0.048l0,0.001l-0.374,-0.109l-3.022,-1.178l-1.069,-0.206l0,0.004l-3.29,0.211l-3.705,1.112l-12.075,3.531l-1.329,0.472l-7.953,2.621l-4.143,1.302l-2.045,0.619l-2.096,0.689l-5.609,1.793l-3.676,1.708l-1.514,0.697l-4.161,2.657l-4.221,3.406l-0.022,0.026l-1.252,1.475l-4.774,14.144l0.191,0.018l1.523,10.889l0.132,-0.027l0.386,2.594l0.007,-0.002l10.636,24.96l0.227,-0.097l0.208,0.605l0.105,0.632l0,0.641l-0.106,0.634l-0.209,0.609l-0.307,0.567l-0.397,0.51l-0.476,0.438l-0.543,0.355l-0.595,0.26l-0.631,0.16l-11.461,1.866l-7.325,1.188l-0.698,0.055l-0.698,-0.066l-0.678,-0.184l-0.637,-0.298l-0.578,-0.404l-0.501,-0.497l-0.41,-0.577l-0.305,-0.64l-0.191,-0.683l-0.072,-0.707l-0.377,-27.957l0.23,-3.426l0.368,-5.342l1.442,-9.967l0.163,-0.713l0.28,-0.676l-0.005,-0.003l5.203,-10.307l5.502,-6.7l0.027,-0.032l5.276,-4.357l5.111,-3.348l1.834,-0.869l4.471,-2.105l6.093,-1.981l2.289,-0.725l2.103,-0.611l4.283,-1.198l8.277,-2.191l1.398,-0.337l14.416,-2.63l6.65,-1.065l0.538,-0.022l0.524,0.07l0.509,0.107l-0.013,0.048l0.453,0.232l1.718,0.965l4.965,2.879l0.247,0.146l0.352,0.209l0.311,0.266Zm-76.262,53.996l-0.077,22.887l2.557,-0.382l6.589,-0.978l-8.647,-20.817l-0.151,-0.452l-0.091,-0.468l-0.097,-0.745l-0.083,0.955Z" style="fill:#008fd7;"/></g></g><g transform="matrix(0.997149,-0.0754627,0.0754627,0.997149,13.4126,-7.23205)"><text x="20.865px" y="108.649px" style="font-family:'NanumPen', 'Nanum Pen Script', cursive;font-size:30px;fill:#a0a0a0;">Einleitung</text></g><g transform="matrix(0.991476,0.13029,-0.13029,0.991476,-17.8074,3.01112)"><text x="104.672px" y="155.162px" style="font-family:'NanumPen', 'Nanum Pen Script', cursive;font-size:30px;fill:#a0a0a0;">Ziele</text></g><g transform="matrix(0.999687,-0.0250293,0.0250293,0.999687,0.717093,-1.93975)"><text x="20.61px" y="260.134px" style="font-family:'NanumPen', 'Nanum Pen Script', cursive;font-size:30px;fill:#a0a0a0;">Ausgangslage</text></g><g transform="matrix(1,0.000854374,-0.000854374,1,301.094,-204.628)"><text x="94.798px" y="289.749px" style="font-family:'NanumPen', 'Nanum Pen Script', cursive;font-size:30px;fill:#a0a0a0;">Oft gestellte</text><text x="128.413px" y="319.749px" style="font-family:'NanumPen', 'Nanum Pen Script', cursive;font-size:30px;fill:#a0a0a0;">Fragen</text></g><g transform="matrix(0.999636,-0.0269882,0.0269882,0.999636,2.60285,7.93468)"><text x="417.366px" y="197.29px" style="font-family:'NanumPen', 'Nanum Pen Script', cursive;font-size:30px;fill:#a0a0a0;">Persona</text></g><g transform="matrix(0.999175,-0.0406215,0.0406215,0.999175,0.254246,11.2144)"><text x="373.224px" y="289.1px" style="font-family:'NanumPen', 'Nanum Pen Script', cursive;font-size:30px;fill:#a0a0a0;">Konversationen</text></g></svg>