<svg viewBox="0 0 258 123" xmlns="http://www.w3.org/2000/svg" fill-rule="evenodd" clip-rule="evenodd" stroke-linejoin="round" stroke-miterlimit="1.41"><ellipse cx="207.44" cy="110.72" rx="7.34" ry="5.03" fill="#b8b8b8"/><path d="M207.35 106.63H207.18l-.09.02H206.92l-.08.02h-.09l-.08.02h-.09l-.08.02h-.08l-.08.02-.08.01-.09.02-.08.01-.08.02-.08.01-.08.02-.07.01-.08.02-.08.02-.08.02-.07.02-.08.02-.08.02-.07.02-.08.02-.07.02-.08.03-.07.02-.07.02-.07.03-.07.02-.08.03-.07.02-.07.03-.06.03-.07.02-.07.03-.07.03-.06.03-.07.03-.07.03-.06.03-.06.03-.07.03-.04.02-.02.01-.06.04-.06.03-.06.03-.06.04-.06.03-.06.03-.06.04-.06.03-.05.04-.06.03-.05.04-.06.04-.05.03-.05.04-.06.04-.05.03-.05.04-.05.04-.04.04-.05.04-.05.04-.04.04-.05.03-.04.04-.05.04-.04.04-.04.04-.04.04-.04.05-.04.04-.04.04-.04.04-.04.04-.03.04-.04.04-.03.04-.03.05-.04.04-.03.04-.03.04-.03.04-.03.04-.03.05-.02.04-.03.04-.03.04-.02.04-.02.05-.03.04-.02.04-.02.04-.02.05-.02.04-.02.04-.02.04-.01.04-.02.04-.02.05v.04l-.02.04-.02.04v.04l-.02.04-.01.05v.04l-.02.04v.04l-.01.04-.01.04v.04l-.01.04v.09l-.01.04V110.85l.01.04v.04l.01.04.01.04v.04l.02.04v.04l.02.04v.04l.02.04.01.04.01.04.02.04.01.04.02.04.01.03.02.04.01.04.02.04.02.04.02.04.02.04.02.03.02.04.03.04.02.04.02.04.03.03.02.04.03.04.03.04.02.04.03.03.03.04.03.04.03.04.04.03.03.04.03.04.04.03.03.04.04.04.03.03.04.04.04.04.04.03.04.04.04.03.04.04.04.03.05.04.04.03.04.04.05.03.05.03.04.04.05.03.04.03.06.04.05.03.05.03.05.03.05.03.05.03.05.04.06.03.05.03.06.03.05.02.06.03.06.03.06.03.05.03.06.02.06.03.06.03.06.02.07.03.06.02.06.03.06.02.07.03.06.02.07.02.06.02.07.03.07.02.06.02.07.02.07.02.07.02.07.01.07.02.07.02.07.02.07.01.07.02.07.01.07.02.08.01.07.01.07.02h.08l.07.02.08.01.07.01h.08l.07.02h.08l.08.01.07.01h.08l.08.01h.08l.08.01H206.79l.08.01h.73l.08-.01h.08l.08-.01.08-.01h.07l.08-.01.08-.01.08-.01.08-.01.07-.01.08-.01.08-.01.07-.02.08-.01.07-.01.08-.02.07-.01.07-.02.08-.01.07-.02.07-.02.07-.01.07-.02.07-.02.07-.02.07-.02.07-.02.07-.02.07-.02.07-.02.06-.02.07-.03.06-.02.07-.02.06-.03.07-.02.06-.03.06-.02.06-.03.07-.03.06-.02.06-.03.06-.03.06-.03.05-.02.06-.03.06-.03.05-.03.06-.03.05-.03.06-.03.05-.03.05-.03.05-.03.05-.04.05-.03.05-.03.05-.03.04-.03h.01l.05-.04.04-.03.05-.03.05-.04.04-.03.04-.04.05-.03.04-.03.04-.04.04-.03.04-.04.04-.03.03-.04.04-.03.04-.04.03-.03.04-.04.03-.03.03-.04.03-.03.04-.04.03-.03.03-.04.02-.03.03-.04.03-.03.02-.04.03-.03.02-.04.03-.03.02-.04.02-.03.02-.03.02-.04.02-.03.02-.04.02-.03.02-.03.01-.04.02-.03.02-.03.01-.04.01-.03.02-.03v-.04l.02-.03.01-.03.01-.03.01-.03.01-.04v-.03l.01-.03.01-.03v-.03l.01-.03v-.03l.01-.04V111l.01-.03V110.54l-.01-.03v-.03l-.02-.03v-.06l-.02-.03v-.03l-.01-.03-.01-.03-.01-.03-.01-.03-.01-.03-.01-.03-.02-.03v-.03l-.02-.03-.02-.03-.01-.03-.02-.03-.01-.03-.02-.03-.02-.04-.01-.02-.02-.04-.02-.03-.02-.03-.02-.03-.03-.04-.02-.03-.02-.03-.02-.03-.03-.04-.02-.03-.03-.03-.03-.03-.03-.04-.02-.03-.03-.03-.03-.03-.03-.04-.04-.03-.03-.03-.03-.04-.03-.02-.04-.04-.03-.04-.04-.03-.03-.03-.04-.04-.04-.03-.04-.03-.04-.04-.04-.03-.04-.03-.04-.04-.04-.03-.04-.04-.04-.03-.05-.04-.04-.03h-.01l-.04-.03-.04-.04-.05-.04-.04-.03-.05-.04-.05-.03-.05-.04-.04-.03-.06-.04-.05-.03-.05-.04-.05-.03-.05-.03-.06-.04-.05-.02-.06-.05-.05-.03-.06-.04-.05-.04-.06-.03-.06-.04-.06-.03-.06-.04-.06-.03-.06-.04-.06-.03-.06-.04-.06-.03-.07-.03-.06-.04-.07-.03-.06-.03-.07-.03-.07-.03-.07-.03-.07-.03-.07-.03-.07-.03-.05-.02-.02-.01-.07-.03-.07-.04-.07-.03-.07-.03-.08-.04-.07-.03-.08-.03-.07-.03-.08-.03-.08-.03-.08-.03-.07-.02-.08-.03-.08-.03-.08-.02-.07-.03h-.02l-.08-.03-.08-.03-.08-.03-.09-.02-.08-.03-.09-.03-.06-.02h-.11zm.19-1.9l.1-.02.1-.02.1-.03.11-.02.1-.02.11-.02h.02l.08-.01.1-.01.11-.02h.1l.1-.02h.11l.1-.01h.1l.11-.02H209.5l.1-.01h.32l.1.02h.1l.1.02h.1l.1.02.1.01.1.02.1.01.1.02.1.01.1.02.1.02.1.02.1.02.1.02.09.02.1.03.1.02.09.03.1.02.09.03.1.03.09.03h.01l.08.03.1.03.08.04.1.04.08.04.1.03.08.04.09.04.09.05.09.04.08.04.09.05.08.04.09.05.06.03.02.01.09.05.08.06.08.05.08.05.08.05.08.06.07.05.06.04.02.02.08.06.07.06.07.06.08.06.07.06.07.06.07.07.07.06.07.07.06.07.07.07.06.06.07.07.06.08.06.07.06.07.06.07.06.08.06.07.06.08.05.07.06.08.05.08.05.08.05.08.05.08.05.08.05.08.05.08v.03l.04.06.04.08.05.09.04.08.04.1.03.08.04.09.03.09.04.09.03.09.03.09.03.09.03.1.02.09.03.09.02.1.02.09.02.1.02.09.01.1.02.1v.09l.02.1v.1l.02.1v.69l-.01.09-.01.1-.02.1v.1l-.02.09-.02.1-.02.09-.02.1-.02.09-.02.09-.03.1-.02.09-.03.09-.03.09-.03.09-.04.09-.03.09-.04.08-.03.1-.04.08-.04.08-.04.09-.04.08-.05.09-.04.08-.05.08-.05.08-.04.08-.05.08-.06.08-.05.08-.05.07-.06.08-.05.07-.06.08-.05.07-.06.07-.06.08-.06.07-.07.07-.06.07-.06.06-.07.07-.06.07-.07.06-.06.07-.07.06-.07.07-.07.06-.07.06-.07.06-.07.06-.08.06-.07.06-.07.06-.08.05-.08.06-.07.05-.08.06-.08.05-.08.05-.08.05-.08.06-.08.05h-.01l-.07.05-.08.04-.08.05-.09.05-.08.04-.09.05-.08.04-.09.05-.09.04-.08.04-.1.04-.08.04-.09.04-.09.04-.09.04-.09.03-.1.04-.08.04-.1.03-.09.03-.1.04-.09.03-.09.03-.1.03-.09.03-.1.03-.1.03-.09.02-.1.03-.1.03-.1.02-.1.02-.09.03-.1.02-.1.02-.1.02-.1.02-.1.02-.1.02-.1.01-.1.02-.11.01-.1.02-.1.01-.11.01-.1.02h-.11l-.1.02h-.11l-.1.01-.11.01h-.1l-.11.01H208.09l-.11.01h-.76l-.1-.01H207l-.1-.02h-.11l-.1-.01-.11-.01-.1-.01-.11-.01-.1-.02-.11-.01-.1-.01-.11-.02-.1-.02-.1-.01-.1-.02-.11-.02-.1-.02-.1-.02-.1-.02-.1-.02-.1-.02-.1-.03-.1-.02-.1-.03-.1-.02-.1-.03-.09-.03-.1-.02-.1-.03-.08-.03-.1-.03-.1-.04-.09-.03-.09-.03-.1-.04-.08-.03-.1-.04-.08-.03-.1-.04-.08-.04-.1-.03-.08-.04-.09-.04-.08-.04-.09-.04-.09-.05-.08-.04-.08-.04-.09-.05-.08-.04-.08-.05-.08-.04-.08-.05-.09-.05-.07-.04-.08-.05-.08-.05-.08-.05-.07-.05-.08-.06-.08-.05-.07-.05-.07-.06-.08-.05-.07-.06-.07-.05-.07-.06-.07-.06-.07-.05-.06-.06-.07-.06-.07-.06-.06-.06-.07-.06-.06-.07-.06-.06-.06-.06-.07-.07-.06-.06-.05-.07-.06-.06-.06-.07-.06-.07-.05-.07-.05-.07-.06-.07-.05-.07-.05-.07-.05-.07-.05-.07-.05-.07-.04-.08-.05-.07-.04-.07-.05-.08-.04-.08-.04-.07-.04-.08-.04-.08-.03-.08-.04-.07-.03-.08-.04-.08-.03-.08-.03-.09-.03-.08-.02-.08-.03-.08-.03-.08-.02-.09-.02-.08-.02-.09-.02-.08-.02-.09-.02-.08-.01-.09-.01-.09-.01-.08-.01-.09-.01-.09-.01-.08v-.18l-.01-.09v-.36l.01-.08.01-.09.01-.08.01-.09.02-.09v-.08l.03-.09.01-.08.02-.09.02-.08.02-.08.03-.09.02-.08.03-.08.02-.08.03-.08.03-.08.03-.08.04-.08.03-.08.03-.08.04-.07.04-.08.04-.07.04-.08.04-.07.04-.08.04-.07.05-.07.05-.07.04-.07.05-.07.05-.07.05-.07.05-.07.05-.06.06-.07.05-.07.05-.06.06-.06.06-.07.05-.06.06-.06.06-.06.06-.06.06-.06.07-.06.06-.06.06-.06.07-.06.06-.05.07-.06.07-.05.06-.05.07-.06.07-.05.07-.05.07-.05.07-.05.08-.05.07-.05.07-.05.08-.05.07-.04.08-.05.07-.04.08-.05.08-.04.08-.05.08-.04.08-.04.08-.04.08-.04.08-.04.08-.04.08-.04.09-.03.08-.04.03-.01.05-.03.09-.03.08-.03.09-.04.09-.03.08-.03.1-.03.08-.03.09-.03.09-.03.09-.03.09-.03.09-.02.09-.03.09-.02.1-.03.08-.02.1-.02.09-.03.1-.02.09-.02.1-.02.09-.01.1-.02.09-.02.1-.01.1-.02.09-.01.1-.02.1-.01.1-.01.09-.01.1-.01.1-.01.1-.01h.1l.1-.02h.2l.1-.01H207.43l.04-.01.07-.02z"/><ellipse cx="224.83" cy="110.77" rx="7.34" ry="5.03" fill="#b8b8b8"/><path d="M224.74 106.67h-.08l-.1.01h-.08l-.08.02h-.09l-.08.01-.09.01h-.08l-.08.02-.09.01-.08.01-.08.01-.08.02-.08.01-.08.02-.08.01-.08.02-.08.01-.08.02-.08.02-.08.01-.07.02-.08.02-.08.02-.07.02-.08.02-.07.02-.08.03-.07.02-.08.02-.07.03-.07.02-.07.03-.07.02-.07.03-.07.02-.07.03-.07.03-.07.03-.07.03-.06.02-.07.03-.06.03-.07.03-.06.04-.07.03-.03.02h-.03l-.06.04-.06.03-.06.04-.06.03-.06.03-.06.04-.06.03-.05.04-.06.03-.06.04-.05.03-.05.04-.06.04-.05.03-.05.04-.05.04-.05.04-.05.03-.05.04-.05.04-.05.04-.04.04-.05.04-.04.04-.05.04-.04.04-.04.04-.04.04-.04.04-.04.04-.04.04-.04.04-.03.04-.04.04-.03.05-.04.04-.03.04-.03.04-.04.04-.03.04-.03.05-.03.04-.02.04-.03.04-.03.04-.02.05-.03.04-.02.04-.02.04-.03.04-.02.05-.02.04-.02.04-.02.04-.01.04-.02.05-.02.04-.01.04-.02.04-.01.04-.01.04-.02.05v.04l-.02.04v.04l-.02.04v.04l-.01.04v.05l-.01.04v.04l-.01.04v.08l-.01.04v.29l.01.04v.04l.01.05v.04l.01.04.01.04v.04l.02.04v.03l.02.04.01.04.01.04.01.04.02.04.01.04.02.04.01.04.02.04.02.04.01.03.02.04.02.04.02.04.02.04.03.04.02.03.02.04.03.04.02.04.03.04.02.03.03.04.03.04.03.04.03.03.03.04.03.04.03.04.03.03.04.04.03.04.03.03.04.04.04.04.03.03.04.04.04.04.04.03.04.04.04.03.05.04.04.03.04.04.05.03.04.03.05.04.05.03.04.03.05.03.05.04.05.03.05.03.05.04.05.03.05.03.06.03.05.03.06.03.05.03.06.03.05.03.06.03.06.02.06.03.06.03.06.03.06.02.06.03.06.02.06.03.06.02.07.03.06.02.07.02.06.03.07.02.06.02.07.02.07.02.06.02.07.02.07.02.07.02.07.02.07.01.07.02.07.02.07.01.07.02.08.01.07.01.07.02h.08l.07.02.08.01.07.01.08.01.07.01.08.01.07.01h.08l.08.02H223.87l.08.01h.08l.08.01H225.07l.08-.01.08-.01h.08l.08-.01.08-.01h.07l.08-.02h.08l.08-.02h.07l.08-.02.07-.01.08-.02h.07l.08-.02.07-.02.08-.01.07-.02.07-.01.07-.02.08-.02.07-.02.07-.02.07-.02.07-.01.06-.02.07-.03.07-.02.07-.02.07-.02.06-.02.07-.03.06-.02.07-.02.06-.03.06-.02.07-.03.06-.03.06-.02.06-.03.06-.03.06-.02.06-.03.06-.03.05-.03.06-.03.06-.03.05-.03.06-.03.05-.03.05-.03.06-.03.05-.03.05-.03.05-.03.05-.04.05-.03.04-.03.05-.03.05-.04.04-.03.05-.03.04-.04.05-.03.04-.04.04-.03.04-.03.04-.04.04-.03.04-.04.04-.03.03-.04.04-.03.04-.04.03-.03.03-.04.04-.03.03-.04.03-.03.03-.04.03-.03.03-.04.02-.03.03-.04.03-.03.02-.04.03-.03.02-.04.02-.03.03-.04.02-.03.02-.04.02-.03.02-.03.01-.04.02-.03.02-.03.01-.04.02-.03.01-.03.02-.04.01-.03.01-.03.01-.03.01-.04.01-.03.01-.03.01-.03.01-.03v-.04l.01-.03.01-.03v-.03l.01-.03v-.03l.01-.03v-.09l.01-.04v-.27l-.01-.03v-.03l-.01-.03v-.03l-.01-.03v-.03l-.02-.03v-.03l-.01-.03v-.03l-.02-.03v-.03l-.02-.04-.01-.03-.01-.03-.01-.03-.02-.03-.01-.03-.01-.03-.02-.03-.01-.03-.02-.03-.02-.03-.02-.03v-.03h-.01l-.02-.04-.02-.03-.02-.03-.02-.03-.02-.03-.03-.04-.02-.03-.02-.03-.03-.03-.02-.04-.03-.03-.02-.03-.03-.03-.03-.04-.03-.03-.03-.03-.03-.03-.03-.04-.03-.03-.04-.03-.03-.03-.04-.04-.03-.03-.04-.04-.03-.03-.04-.03-.04-.04-.03-.03-.04-.03-.02-.01-.02-.03-.04-.03-.04-.04-.04-.03-.05-.03-.04-.04-.04-.03-.05-.04-.04-.03-.05-.04-.04-.03-.05-.04-.05-.03-.04-.04-.05-.03-.05-.04-.05-.03-.05-.04-.06-.03-.05-.04-.05-.03-.06-.03-.04-.03h-.01l-.05-.04-.06-.04-.05-.04-.06-.03-.06-.04-.05-.04-.06-.03-.06-.04-.06-.03-.06-.04-.07-.03-.06-.03-.06-.04-.07-.03-.06-.03-.07-.03-.06-.04-.07-.03-.07-.03-.06-.03-.07-.03-.07-.03-.07-.03-.05-.02h-.02l-.07-.04-.08-.03-.07-.04-.07-.03-.07-.03-.08-.03-.07-.03-.08-.03-.08-.03-.07-.03-.08-.03-.08-.03-.08-.03-.08-.02-.08-.03-.07-.02h-.01l-.09-.04-.08-.03-.08-.02-.09-.03-.08-.03-.09-.02-.06-.02-.03-.01h-.08zm.2-1.9l.1-.02.1-.02.1-.02.1-.02.1-.02.11-.02h.02l.09-.02.1-.01.1-.01.1-.01.11-.01.1-.01h.1l.11-.01.1-.01h.1l.11-.01H227.41l.1.02h.1l.1.02.1.01.1.01.1.02.1.01.1.02.1.02.1.01.1.02.1.02.1.02.1.02.1.03.09.02.1.02.09.03.1.02.1.03.09.03.09.03h.01l.08.03.1.04.09.03.09.04.09.04.09.04.08.04.1.04.08.04.09.04.08.05.1.04.08.04.08.05.07.04h.02l.08.06.08.05.08.05.08.05.08.06.08.05.08.06.05.04.02.01.08.06.07.06.08.06.07.06.07.07.07.06.07.06.07.07.07.06.07.07.06.07.07.07.06.07.06.07.07.07.06.07.06.08.05.07.06.07.06.08.05.08.06.07.05.08.06.08.05.08.05.08.05.08.04.08.05.09.01.02.03.06.05.09.04.08.04.09.04.09.04.08.03.1.04.08.03.09.03.09.03.1.03.08.03.1.03.09.02.1.02.09.02.1.02.09.02.1.02.09v.1l.02.1.01.09.01.1v.1l.01.1v.59l-.01.1-.01.1-.01.09-.02.1-.01.1-.02.09-.02.1-.02.09-.02.1-.02.08-.02.1-.03.09-.03.1-.03.08-.03.1-.03.08-.04.1-.03.08-.04.09-.04.08-.04.09-.04.08-.04.09-.04.08-.05.08-.05.08-.04.09-.05.08-.05.08-.05.07-.05.08-.06.08-.05.07-.06.08-.05.07-.06.08-.06.07-.06.07-.06.07-.06.07-.06.07-.07.07-.06.07-.07.06-.06.07-.07.06-.07.07-.07.06-.07.06-.07.06-.07.06-.07.06-.07.06-.08.06-.07.06-.08.06-.07.05-.08.06-.08.05-.08.05-.07.06-.08.05-.08.05-.08.05h-.02l-.07.05-.08.05-.08.04-.09.05-.08.05-.08.04-.09.05-.09.04-.08.04-.1.04-.08.04-.09.04-.09.04-.09.04-.09.04-.09.04-.09.03-.09.04-.1.03-.08.04-.1.03-.1.03-.09.03-.1.03-.09.03-.1.03-.09.03-.1.03-.1.02-.1.03-.09.02-.1.03-.1.02-.1.02-.1.02-.1.02-.1.02-.1.02-.1.02-.1.02-.1.01-.1.02-.11.01-.1.01-.1.02h-.11l-.1.02-.11.01h-.1l-.11.02h-.1l-.11.01H225.59l-.11.01h-.97l-.11-.02h-.11l-.1-.01h-.11l-.11-.02-.1-.01-.11-.01-.1-.01-.11-.02-.1-.01-.1-.02-.11-.01-.1-.02-.1-.02-.1-.02-.1-.01-.11-.03-.1-.02-.1-.02-.1-.02-.1-.02-.1-.03-.1-.02-.1-.03-.09-.03-.1-.02-.1-.03-.09-.03-.1-.03-.09-.03-.1-.03-.08-.04-.1-.03-.09-.03-.09-.04-.1-.03-.08-.04-.1-.03-.08-.04-.09-.04-.09-.04-.08-.04-.1-.04-.08-.04-.08-.04-.09-.04-.08-.05-.08-.04-.09-.05-.08-.04-.08-.05-.08-.04-.08-.05-.08-.05-.08-.05-.08-.05-.08-.05-.07-.05-.08-.05-.07-.06-.08-.05-.07-.05-.07-.06-.08-.05-.07-.06-.07-.05-.07-.06-.06-.06-.07-.06-.07-.06-.07-.06-.06-.06-.06-.06-.07-.06-.06-.07-.06-.06-.06-.06-.06-.07-.06-.06-.06-.07-.06-.07-.05-.06-.06-.07-.05-.07-.05-.07-.06-.07-.05-.07-.05-.07-.05-.08-.04-.07-.05-.07-.04-.08-.05-.07-.04-.08-.04-.07-.04-.08-.04-.08-.04-.07-.04-.08-.04-.08-.03-.08-.03-.08-.03-.08-.04-.08-.02-.08-.03-.09-.03-.08-.02-.08-.03-.08-.02-.09-.02-.08-.02-.09-.02-.08-.01-.09-.02-.09-.01-.08-.01-.09-.01-.09-.01-.08v-.09l-.01-.09v-.62l.02-.08v-.09l.02-.09v-.08l.02-.09.02-.08.02-.09.01-.08.02-.09.03-.08.02-.08.02-.09.03-.08.03-.08.02-.08.03-.08.04-.08.03-.08.03-.08.04-.07.03-.08.04-.08.04-.07.04-.08.04-.07.04-.07.05-.08.04-.07.05-.07.05-.07.04-.07.05-.07.05-.07.05-.06.05-.07.06-.07.05-.06.06-.07.05-.06.06-.06.06-.07.06-.06.06-.06.06-.06.06-.06.06-.06.06-.06.07-.05.06-.06.07-.06.06-.05.07-.06.07-.05.07-.05.06-.06.07-.05.08-.05.07-.05.07-.05.07-.05.08-.05.07-.04.08-.05.07-.05.08-.04.07-.05.08-.04.08-.04.08-.05.08-.04.08-.04.08-.04.08-.04.08-.04.09-.03.08-.04.08-.04.04-.01.05-.02.08-.04.09-.03.08-.03.09-.04.09-.03.08-.03.1-.03.08-.03.09-.03.09-.03.09-.02.09-.03.1-.03.08-.02.1-.02.09-.03.09-.02.1-.02.09-.02.1-.02.09-.02.1-.02.09-.02.1-.01.09-.02.1-.02.1-.01.09-.01.1-.02h.1l.1-.02h.1l.1-.02h.09l.1-.02h.2l.1-.01h.1l.1-.01H224.87l.06-.02z"/><path d="M239.66 109.99c6.49-8.56 11.16-19.87 13.16-31.86 1.9-11.35 1.29-22.62-1.72-31.95l-53.24.6a77.42 77.42 0 00-8.49 24.68c-2.43 14.55-.72 28.8 4.68 39.05l45.61-.52z" fill="#c2c2c2"/><path d="M251.47 43.68l.4.1.37.14.34.2.3.27.27.3.21.34.15.38.08.22.07.23.07.23.08.23.07.24.07.23.07.23.06.24.07.23.07.24.06.23.07.24.06.24.06.24.07.24.06.24.06.24.06.24.05.24.06.24.06.24.05.24.06.25.05.24.05.25.05.24.05.25.05.24.05.25.05.25.04.25.05.24.05.25.04.25.04.25.04.25.05.25.04.26.01.12.02.13.04.25.04.25.04.26.03.25.04.25.03.26.03.25.03.26.03.26.03.25.03.26.03.26.02.25.03.26.03.26.02.26.02.26.02.26.03.26.02.26.01.26.02.26.02.26.02.27.01.26.02.26.01.26.01.27.02.26v.27l.02.26v.26l.01.27.01.27v.26l.01.27v.26l.01.27v2.14l-.01.27-.01.27v.27l-.02.27v.27l-.02.27v.27l-.02.27-.01.27-.02.27-.01.27-.02.27-.01.28-.02.27-.02.27-.02.27-.02.27-.02.28-.02.27-.03.27-.02.28-.03.27-.02.27-.03.27-.03.28-.03.27-.03.27-.03.28-.03.27v.04l-.03.23-.04.28-.03.27-.04.28-.04.27-.04.28-.04.27-.04.27-.04.28-.04.27-.05.28-.04.27-.05.27-.02.14-.02.14-.06.29-.05.29-.05.29-.06.29-.05.28-.06.3-.06.28-.06.29-.06.28-.06.29-.06.29-.06.27V82l-.07.29-.07.28-.07.29-.07.28-.07.28-.07.29-.07.28-.07.28-.08.29-.07.28-.08.28-.07.28-.08.28-.08.28-.08.28-.08.28-.08.28-.09.27-.08.28-.08.28-.09.27-.09.28-.08.28-.09.27v.02l-.1.25-.09.28-.1.27-.09.27-.1.27-.1.27-.09.27-.1.27-.1.27-.1.27-.1.27-.1.26-.1.27-.11.27-.1.26-.12.27-.1.26-.1.26-.12.27-.1.26-.12.26-.1.26-.12.26-.11.26-.12.26-.11.26-.12.26-.11.25-.12.26-.12.25-.12.26-.12.25-.12.26-.12.25-.12.25-.12.25-.13.25-.12.25-.12.25-.13.25-.13.25-.12.24-.13.25-.07.13-.06.11-.14.25-.13.24-.14.24-.13.24-.14.24-.14.24-.13.23-.14.24-.14.24-.14.23-.14.24-.14.23-.15.23-.14.23-.14.23-.15.23-.14.23-.15.23-.15.23-.14.22-.15.23-.15.22-.15.23-.15.22-.15.22-.15.22-.15.22-.16.22-.15.22-.16.21-.15.22-.16.21-.05.08-.1.14-.16.2-.16.22-.16.2-.16.21-.17.21-.16.2-.16.21-.17.2-.16.2-.16.2-.17.21-.17.2-.16.2-.17.2-.04.04-.13.15-.25-.2.25.2-.13.15-.15.13-.17.1-.19.08-.2.05-.2.01-.95.02-24.74.48-19.91.38-.27-.01-.25-.06-.25-.1-.23-.13-.2-.17-.18-.2-.14-.22-.13-.24-.13-.25-.13-.26-.13-.25-.13-.26-.12-.26-.13-.25-.12-.26-.12-.27-.12-.26-.12-.26-.12-.27-.11-.27-.12-.26-.11-.27-.11-.27-.11-.28-.11-.27-.11-.27-.1-.28-.11-.28-.1-.27-.1-.28-.1-.28-.1-.29-.1-.28-.1-.28-.09-.29-.1-.28-.08-.3-.1-.28-.08-.3-.09-.28-.08-.3-.09-.29-.08-.3-.08-.29-.08-.3-.08-.3-.08-.29-.07-.3-.08-.3-.07-.3-.07-.3-.07-.3-.07-.31-.06-.3-.07-.31-.06-.31-.07-.31-.06-.3-.06-.32-.05-.31-.06-.31-.05-.32-.06-.31-.05-.31-.05-.32-.05-.32-.05-.31-.04-.32-.05-.32-.04-.32-.04-.32-.04-.32-.04-.32-.04-.33-.03-.32-.04-.32-.03-.33-.03-.33-.03-.32-.03-.33-.03-.33-.02-.33-.03-.32-.02-.33-.02-.34-.02-.33-.02-.33-.01-.33-.02-.33-.01-.34-.01-.33-.01-.34-.01-.33-.01-.34v-.33l-.01-.34V82.2l.02-.34v-.35l.02-.34v-.34l.02-.34.02-.35.01-.34.02-.34.02-.35.02-.34.02-.35.03-.34.02-.35.03-.34.03-.35.03-.35.03-.34.04-.35.03-.35.04-.35.04-.34.03-.35.02-.14.03-.21.04-.35.04-.35.05-.35.05-.35.05-.34.05-.35.05-.35.05-.35.06-.35.07-.43.07-.42.07-.42.07-.43.08-.42.08-.42.08-.42.09-.42.08-.42.1-.42.08-.42.1-.42.09-.42.1-.41.1-.42.1-.41.1-.42.1-.41.11-.41.11-.42.11-.4.12-.42.11-.4.12-.42.12-.4.12-.41.12-.4.13-.41.13-.4.13-.4.13-.4.13-.41.14-.4.13-.4.14-.4.14-.4.15-.39.14-.4.15-.38.15-.4.15-.39.15-.39.16-.38.16-.4.15-.38.16-.38.17-.38.16-.38.17-.39.17-.37.17-.38.17-.38.17-.37.18-.37.09-.2.09-.18.09-.18.09-.19.09-.18.09-.19.09-.18.1-.18.08-.19.1-.18.09-.18.1-.18.09-.18.1-.18.09-.18.1-.18.09-.18.1-.18.1-.18.09-.18.18-.27.22-.25.25-.21.29-.17.3-.13.32-.08.33-.03 2.25-.04 33.8-.6 17.2-.28.4.02zm-18.35 5.14l-31.7.15v-.03l-2.26.03-.03.05-.1.17-.08.17-.1.17-.08.17-.1.17-.08.17-.1.17-.08.18-.09.17-.08.17-.09.17-.09.18-.08.17-.17.35-.17.35-.17.35-.16.35-.17.36-.16.35-.16.36-.16.36-.16.36-.15.36-.16.37-.15.36-.15.37-.15.36-.14.37-.15.37-.14.37-.14.38-.14.37-.14.37-.14.38-.13.38-.13.37-.13.38-.13.38-.13.38-.12.39-.12.38-.12.38-.12.39-.12.39-.12.38-.11.4-.11.38-.11.39-.1.39-.11.4-.1.38-.1.4-.1.4-.1.39-.1.4-.1.39-.09.4-.09.4-.09.39-.08.4-.09.4-.08.4-.08.4-.08.4-.07.4-.07.4-.08.4-.05.34-.06.33-.05.33-.06.33-.05.34-.05.33-.05.33-.04.33-.05.33-.03.2-.01.13-.05.33-.04.33-.04.33-.04.33-.03.33-.04.33-.03.33-.03.33-.04.33-.03.33-.02.33-.03.32-.03.33-.02.33-.02.33-.02.32-.02.33-.02.32-.02.33-.01.32-.02.33v.32l-.02.32v.33l-.02.32v.64l-.01.33V86.16l.01.32.01.31.01.32.01.32.01.31.02.32.01.3.02.32.02.31.01.32.02.3.03.32.02.3.03.32.02.3.03.31.03.3.03.31.03.3.03.31.04.3.03.3.04.31.04.3.04.3.04.3.04.3.05.3.04.3.05.29.05.3.05.29.05.3.05.28.06.3.05.28.06.3.06.28.06.29.06.29.06.28.06.29.07.28.06.28.07.28.07.28.07.28.07.28.08.27.07.28.08.28.07.27.08.27.08.27.08.27.08.27.09.27.08.26.09.27.09.26.08.27.1.26.09.26.09.26.1.25.09.26.1.25.1.26.1.25.1.25.1.25.1.25.1.25.11.24.1.25.12.24.1.24.12.24.1.24.12.24.02.04 19.74-.08 23.89-.08h.23l.07-.1.13-.2.13-.22.13-.2.14-.22.13-.21.12-.21.13-.22.13-.21.13-.22.12-.21.13-.22.13-.22.07-.14.05-.08.13-.22.12-.22.13-.22.12-.22.12-.22.12-.22.12-.22.12-.23.13-.22.11-.23.12-.22.12-.23.12-.23.11-.23.12-.23.11-.23.12-.23.1-.23.12-.23.11-.23.11-.24.11-.23.11-.24.1-.23.12-.24.1-.24.1-.23.11-.24.1-.24.11-.24.1-.24.1-.24.05-.11.06-.13.1-.24.1-.24.1-.25.11-.24.1-.24.1-.24.1-.25.1-.24.1-.25.1-.25.09-.24.1-.25.09-.25.1-.25.09-.25.09-.25.09-.25.09-.25.09-.25.09-.25.08-.25.1-.25.08-.26.08-.25.09-.26.08-.25.08-.26.09-.25.08-.26.08-.26.08-.25.07-.26.08-.26.08-.26.07-.26.08-.26.07-.26.08-.26.07-.26.07-.26.07-.26.07-.27.07-.24v-.02l.07-.26.07-.26.07-.26.07-.27.07-.26.07-.27.07-.26.06-.26.07-.27.06-.26.07-.27.06-.27.06-.26.06-.27.06-.27.06-.26.06-.27.05-.27.06-.27.05-.27.06-.27.05-.27.05-.26.06-.27v-.02l.05-.25.05-.27.05-.27.05-.27.05-.28.05-.27.05-.27.04-.27.05-.27.04-.27.05-.27.04-.28.02-.12.02-.13.04-.26.04-.26.04-.26.04-.25.04-.26.03-.26.04-.25.03-.26.04-.26.03-.26.03-.25.03-.26.03-.22v-.03l.03-.26.03-.26.03-.25.03-.26.03-.25.02-.26.03-.25.02-.26.02-.26.03-.25.02-.25.02-.26.02-.25.02-.26.02-.25.02-.26.01-.25.02-.25.01-.26.02-.25v-.25l.02-.25.01-.26.01-.25.01-.25.01-.25v-.25l.01-.25.01-.26v-.25l.01-.25v-.75l.01-.24v-1.25l-.01-.24v-.25l-.01-.25v-.24l-.01-.25-.01-.24-.01-.25-.01-.24-.01-.25-.01-.24-.02-.25-.01-.24-.01-.24-.02-.24-.01-.25-.02-.24-.02-.24-.02-.24-.02-.24-.02-.24-.02-.24-.02-.24-.02-.24-.03-.24-.02-.23-.03-.24-.02-.24-.03-.23-.03-.24-.03-.24-.03-.23-.03-.23-.03-.24-.03-.23-.03-.23-.02-.13-.02-.1-.03-.24-.04-.23-.03-.23-.04-.23-.04-.23-.04-.23-.04-.23-.04-.23-.04-.22-.04-.23-.04-.23-.05-.22-.04-.23-.05-.22-.04-.23-.05-.22-.05-.22-.05-.22-.05-.23-.05-.22-.05-.22-.05-.22-.05-.21-.06-.22-.05-.22-.06-.22-.05-.21-.06-.22-.06-.21-.04-.15-16.1.1z"/><path d="M209.02 46.39s.27 5.59-4.3 12.76c-11.42 17.89-14.77 10.17-14.77 10.17a63.26 63.26 0 003.92 41.38c14.4 1.72 30.27 1.53 45.77-.46 8.63-12.55 12.07-25.58 13.4-39.26-8.9-2.74-15.44-8.19-17.11-24.3-1.68-.13-1.54-.17-4.03-.55l.79 13.05c-6.79-.37-13.33-.16-19.74.3 0 0-.21-12.27.92-13.26 1.14-.98-4.85.17-4.85.17z" fill="#008fd7"/><clipPath id="a"><path d="M209.02 46.39s.27 5.59-4.3 12.76c-11.42 17.89-14.77 10.17-14.77 10.17a63.26 63.26 0 003.92 41.38c14.4 1.72 30.27 1.53 45.77-.46 8.63-12.55 12.07-25.58 13.4-39.26-8.9-2.74-15.44-8.19-17.11-24.3-1.68-.13-1.54-.17-4.03-.55l.79 13.05c-6.79-.37-13.33-.16-19.74.3 0 0-.21-12.27.92-13.26 1.14-.98-4.85.17-4.85.17z"/></clipPath><g clip-path="url(#a)"><path d="M208.53 59.83a193.3 193.3 0 0129.2-.36c.37 9.72-.4 18.69-2.34 26.87a167.55 167.55 0 01-30.82.83c.45-9.74 1.7-18.88 3.96-27.35z" fill="#008fd7"/><clipPath id="b"><path d="M208.53 59.83a193.3 193.3 0 0129.2-.36c.37 9.72-.4 18.69-2.34 26.87a167.55 167.55 0 01-30.82.83c.45-9.74 1.7-18.88 3.96-27.35z"/></clipPath><g clip-path="url(#b)"><text x="218.93" y="82.21" font-family="'TamilMN','Tamil MN'" font-size="14.57" fill="#fff" stroke="#fff" stroke-width="2" transform="matrix(.99924 -.03903 -.08942 1.00425 1.35 5.13)">BF</text></g><path d="M208.53 59.83a193.3 193.3 0 0129.2-.36c.37 9.72-.4 18.69-2.34 26.87a167.55 167.55 0 01-30.82.83c.45-9.74 1.7-18.88 3.96-27.35z" fill="none" stroke="#000" stroke-width="1.88" stroke-linecap="round" stroke-miterlimit="1.5"/><path d="M212.34 62.6c.56-.08 1.08.33 1.16.9.08.58-.31 1.11-.87 1.19a1.04 1.04 0 01-1.16-.9c-.08-.58.3-1.11.87-1.2zM234.1 61.72c.55-.08 1.07.33 1.15.9.09.58-.3 1.11-.86 1.2a1.04 1.04 0 01-1.16-.91c-.08-.58.3-1.11.86-1.19z" fill="#ffc829" stroke="#000" stroke-width="1.88" stroke-linecap="round" stroke-miterlimit="1.5"/></g><path d="M209.02 46.39s.27 5.59-4.3 12.76c-11.42 17.89-14.77 10.17-14.77 10.17a63.26 63.26 0 003.92 41.38c14.4 1.72 30.27 1.53 45.77-.46 8.63-12.55 12.07-25.58 13.4-39.26-8.9-2.74-15.44-8.19-17.11-24.3-1.68-.13-1.54-.17-4.03-.55l.79 13.05c-6.79-.37-13.33-.16-19.74.3 0 0-.21-12.27.92-13.26 1.14-.98-4.85.17-4.85.17z" fill="none" stroke="#000" stroke-width="1.88" stroke-linecap="round" stroke-miterlimit="1.5"/><path d="M251.24 45.93c.17-.84.28-1.7.35-2.56 1-13.34-10.14-25.5-24.85-27.14-14.7-1.64-27.46 7.87-28.45 21.21-.23 3.05.18 6.13 1.2 9.1l51.75-.6z" fill="#c2c2c2"/><clipPath id="c"><path d="M251.24 45.93c.17-.84.28-1.7.35-2.56 1-13.34-10.14-25.5-24.85-27.14-14.7-1.64-27.46 7.87-28.45 21.21-.23 3.05.18 6.13 1.2 9.1l51.75-.6z"/></clipPath><g clip-path="url(#c)"><path d="M215.45 36.3c-.4.31-.63.64-.67.98-.2 1.77 4.88 3.38 11.33 3.6 6.44.2 11.83-1.06 12.03-2.84.04-.4-.2-.82-.7-1.22l-21.99-.51z" fill="#191919"/><clipPath id="d"><path d="M215.45 36.3c-.4.31-.63.64-.67.98-.2 1.77 4.88 3.38 11.33 3.6 6.44.2 11.83-1.06 12.03-2.84.04-.4-.2-.82-.7-1.22l-21.99-.51z"/></clipPath><g clip-path="url(#d)"><path d="M219.06 37.48c.02 1.1 3.2 2.08 7.18 2.21 4.08.14 7.5-.67 7.61-1.8v-.06l-14.79-.35z" fill="#fff"/></g><path d="M222.02 31.4c-.1-2.92-2.06-5.37-4.52-5.64-2.63-.3-4.88 1.99-5.02 5.1v.52l9.54.02z" fill="#191919"/><clipPath id="e"><path d="M222.02 31.4c-.1-2.92-2.06-5.37-4.52-5.64-2.63-.3-4.88 1.99-5.02 5.1v.52l9.54.02z"/></clipPath><g clip-path="url(#e)"><path d="M216.78 30.36c.17-1.43.08-2.53-.2-2.56-.3-.04-.7 1.19-.92 2.73 0 .1-.02.2-.03.29l1.16-.46z" fill="#fff"/></g><path d="M237.6 31.88c-.1-2.76-1.95-5.07-4.28-5.33-2.48-.28-4.6 1.88-4.74 4.82v.5h9.02z" fill="#191919"/><clipPath id="f"><path d="M237.6 31.88c-.1-2.76-1.95-5.07-4.28-5.33-2.48-.28-4.6 1.88-4.74 4.82v.5h9.02z"/></clipPath><g clip-path="url(#f)"><path d="M232.5 30.89c.16-1.43.03-2.54-.3-2.58-.35-.04-.81 1.18-1.02 2.72l-.04.3 1.36-.44z" fill="#fff"/></g></g><path d="M252.38 46.6l-.13.18-.16.16-.19.13-.2.1-.22.06-.22.02-.6.01-15.34.38-35.8.87-.32-.02-.3-.07-.28-.1-.27-.17-.15-.12-.1-.07-.2-.23-.17-.26-.12-.29-.05-.14-.05-.15-.06-.15-.05-.15-.04-.15-.05-.16-.05-.15-.05-.15-.04-.15-.05-.15-.04-.16-.04-.15-.04-.15-.04-.15-.04-.16-.04-.15-.04-.15-.04-.16-.03-.15-.04-.15-.03-.16-.03-.15-.03-.16-.04-.15-.02-.16-.03-.15-.03-.16-.03-.15-.02-.16-.03-.15-.02-.16-.03-.15-.02-.16-.02-.15-.02-.16-.02-.15-.01-.16-.02-.16-.02-.15-.01-.16-.02-.15v-.16l-.02-.16-.01-.15-.01-.16-.01-.16v-.15l-.01-.16-.01-.15v-.32l-.01-.15v-1.1l.01-.16v-.15l.02-.16v-.16l.02-.15v-.17l.02-.17.01-.17.02-.17.01-.17.02-.17.02-.17.02-.17.02-.17.02-.17.03-.16.02-.17.03-.17.02-.17.03-.16.03-.17.03-.16.03-.17.03-.16.04-.17.03-.16.04-.16.03-.17.04-.16.04-.16.04-.16.04-.16.04-.16.05-.16.04-.16.05-.16.04-.16.05-.16.05-.16.05-.16.05-.15.05-.16.05-.16.06-.15.05-.16.06-.15.06-.16.05-.15.06-.15.06-.15.06-.16.07-.15.06-.15.06-.15.07-.15.06-.15.07-.15.07-.15.07-.15.07-.14.07-.15.07-.15.07-.14.08-.15.07-.14.08-.15.08-.14.07-.15.08-.14.08-.14.08-.14.08-.14.09-.14.08-.14.04-.07.05-.07.08-.14.09-.14.08-.14.1-.13.08-.14.1-.13.08-.14.1-.13.09-.14.09-.13.1-.13.09-.13.1-.14.1-.13.09-.13.1-.13.1-.12.1-.13.1-.13.1-.13.1-.12.1-.13.11-.12.1-.13.11-.12.11-.12.1-.13.12-.12.1-.12.12-.12.1-.12.12-.12.11-.12.11-.11.12-.12.11-.12.12-.11.12-.12.11-.11.12-.11.12-.12.12-.1.12-.12.12-.1.12-.12.12-.1.13-.12.12-.1.12-.11.13-.1.13-.11.12-.1.13-.11.13-.1.13-.1.13-.1.13-.1.13-.1.13-.1.13-.1.13-.1.14-.1.13-.1.14-.1.13-.09.14-.1.13-.09.14-.09.14-.1.14-.08.14-.1.14-.08.14-.09.14-.09.14-.08.14-.1.15-.08.14-.08.15-.08.14-.09.15-.08.14-.08.15-.08.15-.08.14-.08.15-.08.15-.08.15-.07.15-.08.15-.07.15-.08.15-.07.16-.07.15-.07.15-.07.16-.07.15-.07.16-.07.15-.07.16-.06.16-.07.15-.06.16-.07.16-.06.16-.06.16-.06.16-.06.16-.06.16-.06.16-.06.16-.05.16-.06.16-.05.17-.06.16-.05.16-.05.17-.05.16-.05.17-.05.17-.05.16-.05.17-.05.17-.04.16-.05.17-.04.17-.04.17-.04.17-.05.1-.02.07-.01.17-.04.17-.04.17-.04.17-.03.17-.04.17-.03.18-.04.17-.03.17-.03.18-.03.17-.03.18-.03.17-.02.18-.03.17-.02.18-.03.17-.02.18-.02.18-.03.17-.02.18-.01.18-.02.18-.02.18-.02.17-.01.18-.02h.18l.18-.02.18-.01.18-.01.18-.01h.18l.19-.02h.36l.18-.01H224.61l.18.01h.19l.18.02h.19l.18.02h.19l.18.02.19.01.18.02.19.01.19.02.18.02.19.01.19.02.18.03.19.02.18.02.19.02.18.03.19.02.18.03.19.03.18.03.18.03.19.03.18.03.18.04.18.03.19.03.18.04.18.04.18.04.18.03.18.04.18.05.17.04.18.04.18.04.18.05.17.05.18.04.18.05.17.05.18.05.17.05.18.05.17.05.17.06.18.05.17.06.17.05.17.06.18.06.17.06.17.06.16.05.18.07.16.06.17.07.17.06.17.07.16.06.17.07.17.07.16.07.17.07.16.07.16.07.17.07.16.08.16.07.16.07.16.08.16.08.16.07.16.08.16.08.16.08.16.08.15.09.16.08.16.08.15.09.16.08.15.09.16.08.15.09.15.09.15.09.15.09.16.09.15.09.15.1.14.08.15.1.15.1.15.09.04.02.1.07.15.1.14.1.15.1.14.1.14.1.15.1.14.1.14.1.14.1.14.1.14.11.14.1.14.11.13.11.14.1.14.12.13.1.13.11.14.11.13.11.13.12.14.1.13.12.13.11.13.12.13.11.12.12.13.11.13.12.12.12.13.12.12.12.08.07.05.05.12.12.12.12.12.12.12.12.12.13.12.12.12.13.11.12.12.13.11.12.12.13.11.13.11.13.1.11.02.02.1.13.12.13.1.13.11.13.1.14.11.13.1.13.11.14.1.13.1.14.11.14.1.13.1.14.1.13.1.15.1.14.09.14.1.14.08.14.1.14.09.15.09.14.09.14.09.15.08.14.09.15.09.14.08.15.09.14.08.15.08.15.08.15.08.14.08.15.08.15.08.15.07.15.08.15.07.15.08.15.07.15.03.06.04.1.07.15.07.15.06.16.07.15.06.16.06.15.06.16.06.16.06.15.06.16.06.16.06.15.05.16.06.16.05.16.05.16.05.16.05.16.05.15.05.16.05.16.05.17.04.16.05.16.04.16.04.16.04.16.04.16.04.16.04.17.04.16.03.16.04.16.03.17.03.16.03.16.03.17.03.16.03.16.03.17.02.16.03.17.02.16.03.17.02.16.02.17.02.16.02.17V38l.02.16.01.17.01.16.01.17v.17l.02.16v.67l.01.17v.67l-.01.16-.01.17V41l-.02.17v.16l-.02.17v.17l-.02.16-.02.17-.01.17-.02.17-.02.16-.01.17-.02.17-.03.16-.02.17-.02.17-.03.16-.02.12v.05l-.04.18-.03.17-.03.17-.04.17-.03.17-.04.16-.04.17-.04.17-.04.17-.04.17-.05.16-.04.17-.05.17-.04.16-.02.04-.03.12-.06.22-.1.2zm-29.34-28.07H222.58l-.15.01h-.16l-.15.01h-.15l-.15.02h-.15l-.15.01-.15.01-.15.02h-.15l-.15.02-.15.01-.15.02-.15.01-.15.02-.15.02-.15.01-.14.02-.15.02-.15.02-.14.02-.15.02-.15.03-.14.02-.15.02-.14.03-.15.02-.14.03-.15.03-.14.03-.14.03-.15.03h-.06l-.08.03-.14.03-.15.03-.14.03-.14.04-.14.03-.14.04-.14.03-.14.04-.14.04-.14.03-.14.04-.14.04-.13.04-.14.04-.14.05-.14.04-.13.04-.14.05-.13.04-.14.05-.13.04-.14.05-.13.05-.14.05-.13.05-.13.05-.13.05-.14.05-.13.05-.13.06-.13.05-.13.05-.13.06-.13.05-.13.06-.12.06-.13.06-.13.06-.13.06-.12.06-.13.06-.12.06-.13.06-.12.06-.13.07-.12.06-.12.07-.13.06-.12.07-.12.07-.12.06-.12.07-.12.07-.12.07-.12.07-.12.07-.11.07-.12.07-.12.08-.11.07-.12.08-.12.07-.11.08-.11.07-.12.08-.11.08-.11.07-.11.08-.12.08-.1.08-.12.08-.1.08-.11.09-.11.08-.11.08-.1.08-.11.09-.11.08-.1.09-.11.08-.1.1-.1.08-.11.09-.1.08-.1.1-.1.08-.1.1-.1.08-.1.1-.1.09-.1.09-.1.1-.1.09-.1.09-.09.1-.1.09-.08.1-.1.1-.1.09-.08.1-.1.1-.08.1-.1.09-.08.1-.1.1-.08.1-.09.1-.08.1-.1.1-.08.1-.08.11-.08.1-.09.1-.08.11-.08.1-.08.12-.08.1-.08.1-.08.12-.08.1-.08.11-.07.11-.08.1-.07.12-.08.1-.07.12-.08.11-.07.11-.04.06-.03.06-.07.1-.07.12-.07.12-.07.1-.07.12-.06.12-.07.11-.07.12-.06.12-.06.11-.07.12-.06.12-.06.12-.06.12-.06.11-.06.12-.06.12-.06.12-.06.13-.05.12-.06.12-.05.12-.06.12-.05.13-.05.12-.05.12-.05.13-.05.12-.05.13-.05.13-.05.12-.04.13-.05.12-.04.13-.05.13-.04.13-.04.13-.04.13-.04.13-.04.13-.04.13-.04.13-.03.13-.04.13-.04.13-.03.13-.03.14-.04.13-.03.13-.03.14-.03.13-.03.14-.02.13-.03.14-.03.13-.02.14-.03.14-.02.13-.02.14-.02.14-.02.14-.02.14-.02.14-.02.14-.02.14-.01.14-.02.14-.01.14-.01.14-.01.13-.02.13v.13l-.01.13-.01.13v.12l-.01.13v.13l-.01.13v.26l-.01.13v.78l.01.13v.13l.01.13v.13l.02.13v.13l.01.13.02.13v.13l.02.13.01.13.01.13.02.13.01.13.02.13.02.13.01.13.02.13.02.13.02.13.02.13.02.13.03.13.02.13.02.13.03.13.03.13.02.13.03.13.03.13.03.13.03.13.03.13.03.13.03.13.03.09 34.87.02 14.16.03v-.15l.01-.15V43.1l-.01-.14v-.15l-.01-.15-.01-.14v-.15l-.02-.14v-.14l-.02-.15-.01-.14-.01-.14-.02-.15-.01-.14-.02-.14-.01-.14-.02-.15-.02-.14-.02-.14-.02-.14-.02-.14-.02-.14-.03-.14-.02-.14-.03-.14-.02-.13-.03-.14-.03-.14-.03-.14-.03-.14-.03-.13-.03-.14-.03-.14-.04-.13-.03-.13-.03-.14-.03-.14-.04-.13-.03-.14-.04-.13-.03-.14-.04-.13-.04-.13-.03-.14-.04-.13-.04-.13-.04-.14-.05-.13-.04-.13-.04-.13-.05-.13-.04-.13-.05-.13-.04-.13-.05-.13-.05-.13-.05-.13-.05-.13-.05-.13-.05-.13-.06-.12-.05-.13-.05-.13-.06-.12-.06-.13-.05-.13-.06-.12-.06-.13-.06-.12-.06-.13-.06-.12-.06-.12-.06-.13-.06-.12-.07-.12-.06-.12-.07-.12-.06-.13-.07-.12-.07-.12-.07-.12-.07-.12-.07-.11-.04-.08-.03-.04-.06-.12-.07-.12-.07-.12-.07-.12-.07-.12-.07-.12-.08-.12-.07-.11-.07-.12-.08-.12-.07-.11-.08-.12-.08-.11-.07-.12-.08-.11-.08-.12-.08-.11-.08-.11-.08-.12-.08-.11-.09-.11-.08-.11-.08-.11-.09-.12-.08-.1-.1-.12-.08-.1-.08-.11-.09-.11-.09-.11-.08-.11-.1-.11-.08-.11-.1-.1-.08-.11-.1-.11-.08-.1-.1-.11-.09-.1-.1-.11-.09-.1-.01-.02-.08-.1-.1-.1-.1-.1-.09-.1-.1-.1-.09-.11-.1-.1-.1-.1-.1-.1-.1-.1-.1-.1-.1-.1-.1-.1-.1-.1-.03-.04-.07-.06-.1-.1-.1-.1-.11-.1-.1-.1-.1-.1-.11-.09-.11-.1-.1-.09-.11-.1-.11-.09-.11-.1-.11-.09-.11-.09-.11-.09-.11-.1-.11-.08-.12-.1-.1-.08-.12-.1-.12-.08-.11-.09-.12-.09-.11-.08-.12-.09-.12-.08-.11-.1-.12-.07-.12-.09-.12-.08-.12-.09-.12-.08-.12-.08-.09-.06-.03-.02-.12-.08-.12-.08-.13-.08-.12-.08-.12-.08-.13-.08-.12-.07-.13-.08-.12-.08-.13-.07-.13-.08-.13-.07-.12-.07-.13-.08-.13-.07-.13-.07-.13-.07-.13-.07-.13-.07-.13-.07-.14-.07-.13-.06-.13-.07-.14-.07-.13-.06-.13-.07-.14-.06-.13-.06-.14-.06-.14-.07-.13-.06-.14-.06-.14-.06-.14-.06-.14-.06-.13-.05-.14-.06-.14-.06-.14-.05-.15-.06-.14-.05-.14-.05-.14-.06-.14-.05-.15-.05-.14-.05-.14-.05-.15-.05-.14-.05-.15-.04-.14-.05-.15-.05-.14-.04-.15-.05-.15-.04-.15-.04-.14-.04-.15-.05-.15-.04-.15-.04-.15-.04-.15-.03-.15-.04-.15-.04-.15-.03-.15-.04-.15-.03-.16-.03-.15-.04-.15-.03-.15-.03-.16-.03-.15-.03-.16-.03-.15-.02-.16-.03-.15-.03-.16-.02-.15-.02-.16-.03-.16-.02-.15-.02-.16-.02-.16-.02-.16-.02-.15-.02-.16-.01-.16-.02-.15-.01-.16-.02-.16-.01-.15-.01-.16-.01-.16-.02h-.15l-.16-.01-.15-.01h-.16l-.15-.01h-.16l-.15-.01h-.47l-.15-.01h-.15z"/><g><path d="M55.34 118.78c5.8-8.64 9.62-20 10.77-32.04 1.1-11.39-.27-22.67-3.86-32L9.91 55.89a74.81 74.81 0 00-6.67 24.8c-1.4 14.6 1.25 28.87 7.26 39.07l44.84-.97z" fill="#b8b8b8"/><path d="M56.15 119.82l-.17.12-.2.08-.2.06-.21.02-.95.03-24.48.73-19.4.57-.26-.02-.25-.05-.24-.08-.22-.13-.2-.15-.18-.19-.15-.2-.14-.25-.15-.25-.14-.25-.15-.25-.14-.26-.14-.25-.14-.26-.14-.26-.14-.26-.13-.26-.14-.26-.13-.27-.13-.26-.13-.27-.13-.26-.13-.27-.13-.27-.12-.28-.12-.27-.13-.27-.12-.28-.12-.28-.12-.27-.11-.28-.12-.28-.12-.29-.1-.28-.12-.28-.11-.29-.11-.28-.1-.3-.12-.28-.1-.3-.1-.28-.1-.3-.1-.29-.1-.3-.1-.29-.1-.3-.1-.3-.1-.3-.09-.3-.09-.3-.09-.3-.09-.3-.09-.3-.08-.3-.09-.31-.08-.3-.08-.32-.08-.3-.08-.31-.08-.31-.08-.32-.07-.3-.08-.32-.07-.32-.07-.31-.07-.32-.07-.31-.07-.32-.06-.32-.07-.32-.06-.32-.06-.32-.06-.32-.06-.32-.06-.33-.05-.32-.06-.33-.05-.32-.05-.33-.05-.32-.05-.33-.05-.33-.04-.33-.05-.33-.04-.33-.04-.33-.04-.33-.04-.34-.04-.33-.04-.33-.03-.34-.03-.33-.04-.34-.03-.33-.02-.34-.03-.34-.03-.33-.02-.34-.03-.34-.02-.34-.02-.34-.02-.34-.01-.34-.02-.34L1 90.9l-.02-.34v-.34l-.02-.34v-.35l-.01-.34-.01-.35v-2.76l.02-.35v-.35l.02-.35v-.34l.02-.35v-.1l.02-.25.01-.35.02-.35.02-.35.02-.35.02-.35.03-.35.03-.35.02-.35.03-.35.03-.35.04-.43.04-.42.04-.43.05-.42.05-.43.05-.42.05-.42.05-.42.06-.43.06-.42.06-.42.06-.42.06-.42.07-.41.07-.42.07-.42.07-.42.08-.41.08-.42.08-.4.08-.42.08-.41.09-.42.08-.4.1-.42.09-.4.1-.41.09-.4.1-.42.1-.4.1-.4.1-.4.1-.4.11-.41.12-.4.1-.4.12-.4.12-.4.12-.39.12-.4.12-.39.12-.39.13-.39.13-.39.13-.39.13-.38.13-.39.14-.38.14-.39.14-.38.14-.38.07-.19.07-.19.08-.18.07-.2.07-.18.08-.19.07-.19.08-.18.07-.19.08-.19.08-.18.07-.19.08-.18.08-.19.08-.18.08-.19.08-.18.08-.18.08-.19.08-.18.08-.18.08-.18.08-.18.09-.18.08-.19.08-.17.17-.3.22-.27.26-.24.29-.19.32-.14.33-.1.35-.03 1.87-.05 33.52-.94 16.95-.45.38.02.38.07.36.14.34.19.3.24.27.28.22.32.16.35.1.22.08.23.09.23.08.24.09.23.08.23.09.23.08.23.08.24.08.23.08.24.08.24.08.23.08.24.08.24.07.24.08.23.07.24.07.25.08.24.07.24.07.24.07.24.07.25.06.24.07.24.07.25.06.24.07.25.06.25.06.24.07.25.06.25.06.25.06.25.05.25.06.25.06.25.01.07.04.18.06.25.05.26.05.25.06.25.05.26.05.25.05.26.04.25.05.26.05.25.05.26.04.26.04.25.05.26.04.26.04.26.04.26.04.26.04.26.04.26.03.26.04.26.03.26.04.26.03.27.03.26.03.26.03.27.03.26.03.26.03.27.03.26.02.27.03.26.02.27.03.27.02.26.02.27.02.27.02.26.02.27.01.2v.07l.02.27.02.26.01.27.02.27.01.27.01.27.01.27.01.27.01.27.01.27v.27l.02.27v.55l.01.27v2.45l-.01.27v.28l-.01.27-.01.28-.01.27-.01.27-.01.28-.01.26v.01l-.02.28-.01.27-.02.28-.02.27-.01.28-.02.27-.02.28-.02.27-.02.28-.03.27-.02.28-.02.27-.03.28v.07l-.03.2-.03.28-.03.29-.03.29-.03.29-.04.29-.03.29-.04.29-.04.29-.04.28-.04.3-.04.28-.03.21v.08l-.05.29-.05.28-.05.29-.04.29-.05.28-.05.29-.06.28-.05.29-.05.28-.05.28-.06.29-.06.28-.05.28-.06.28-.06.28-.06.29-.06.28-.06.28-.06.28-.07.28-.06.27-.06.28-.07.28-.06.24v.04l-.08.28-.07.27-.08.28-.07.27-.08.27-.07.28-.08.27-.08.27-.08.27-.08.28-.08.27-.08.27-.09.27-.08.26-.09.27-.08.27-.09.27-.08.26-.1.27-.08.26-.1.27-.08.26-.1.27-.09.26-.1.26-.09.26-.1.26-.09.26-.1.26-.1.26-.09.26-.1.26-.1.25-.1.26-.1.25-.1.26-.1.25-.11.25-.1.26-.11.25-.11.25-.11.25-.1.25-.08.17-.04.08-.11.24-.12.25-.11.24-.12.25-.12.24-.12.24-.11.24-.12.24-.12.24-.13.24-.12.24-.12.24-.12.23-.13.24-.12.23-.13.24-.13.23-.12.23-.13.23-.13.23-.13.23-.13.23-.13.23-.13.22-.14.23-.13.22-.13.22-.14.23-.14.22-.13.22-.14.22-.14.22-.13.22h-.01l-.14.21-.14.22-.14.2-.15.22-.14.21-.15.21-.14.21-.15.21-.15.2-.14.21-.15.2-.15.21-.15.2-.15.2-.15.2-.04.05-.11.15-.13.17-.16.14zM44.64 57.56l-31.4.47V58l-1.93.04-.05.12-.08.17-.08.17-.07.17-.08.17-.08.18-.07.17-.08.17-.07.17-.07.18-.08.17-.07.17-.07.18-.08.17-.07.18-.07.17-.07.18-.07.18-.07.17-.14.36-.14.36-.13.35-.13.36-.14.36-.13.37-.12.36-.13.37-.12.36-.13.37-.12.37-.12.37-.11.37-.12.37-.11.38-.11.37-.11.38-.11.38-.1.37-.11.38-.1.38-.1.39-.1.38-.1.38-.1.39-.09.38-.09.4-.09.38-.08.39-.09.39-.08.39-.08.4-.08.38-.08.4-.07.4-.08.39-.07.4-.07.39-.07.4-.06.4-.06.4-.07.39-.06.4-.05.4-.06.4-.05.4-.05.4-.05.4-.05.41-.04.4-.05.4-.03.34-.03.33-.03.34-.03.33-.03.33-.03.34-.02.33-.03.33-.02.33-.02.34-.01.23-.01.1-.02.33-.01.33-.02.33-.01.33-.02.33v.34l-.02.33v.33l-.01.32v.33l-.01.33v2.29l.02.33v.33l.01.32.02.33v.32l.02.32.02.33.01.32.02.32.02.32.02.32.03.32.02.32.02.32.03.32.03.32.03.32.03.31.03.32.03.32.04.31.03.32.04.31.04.31.04.32.04.3.04.32.05.3.04.32.05.3.05.32.05.3.05.31.05.3.05.31.06.3.05.3.06.31.06.3.06.3.06.3.06.3.07.3.06.3.07.3.07.29.07.3.07.29.07.3.07.28.08.3.07.28.08.3.08.28.08.29.08.28.08.29.08.28.09.28.08.29.09.28.09.27.09.28.09.28.09.28.1.27.09.28.1.27.09.27.1.27.1.27.1.27.1.26.1.27.1.26.11.27.1.26.12.26.1.26.12.26.1.25.12.26.12.25.11.25.12.26.11.25.12.24.12.25.12.25.13.24.12.25.12.24.13.24.13.24.13.23.05.1 19.25-.27 23.66-.3.19-.01.02-.05.12-.21.12-.21.11-.21.11-.21.12-.22.11-.2.11-.22.11-.22.11-.21.11-.22.11-.22.11-.22.1-.2v-.02l.12-.22.1-.22.11-.22.1-.22.11-.22.1-.22.11-.22.1-.23.1-.22.11-.23.1-.23.1-.22.1-.23.1-.23.1-.23.1-.23.09-.23.1-.23.09-.24.1-.23.08-.23.1-.24.09-.23.09-.24.09-.24.08-.23.1-.24.08-.24.09-.24.08-.24.08-.24.09-.24.08-.24.03-.08.06-.16.08-.25.09-.24.08-.24.08-.25.08-.24.08-.24.08-.25.08-.25.08-.24.08-.25.08-.25.07-.25.08-.25.07-.24.07-.25.08-.26.07-.25.07-.25.07-.25.07-.25.07-.26.06-.25.07-.26.07-.25.06-.26.06-.25.07-.26.06-.26.06-.25.06-.26.06-.26.06-.26.06-.26.05-.26.06-.26.05-.26.06-.26.05-.26.05-.26.06-.26.05-.27.05-.26.04-.26.01-.04.05-.23.05-.26.05-.26.05-.27.05-.26.04-.27.05-.26.05-.27.04-.26.05-.27.04-.27.04-.26.04-.27.04-.27.04-.27.04-.27.04-.26.04-.27.03-.27.04-.27.03-.27.03-.27.03-.27.04-.27v-.07l.03-.2.03-.27.03-.28.03-.27.03-.27.03-.27.03-.27.02-.28.03-.27.02-.27.03-.27.02-.26.01-.2v-.06l.03-.26.02-.26.02-.25.02-.26.02-.26.02-.26.01-.26.02-.25.01-.26.02-.26v-.25l.02-.26.01-.26v-.01l.01-.25.01-.25.01-.26.01-.26.01-.25.01-.26v-.25l.01-.26v-.26l.01-.25v-.77l.01-.25v-1.02l-.01-.25v-.51l-.02-.25v-.25l-.01-.26v-.25l-.02-.25v-.25l-.02-.26-.01-.25-.02-.25v-.25l-.02-.25v-.07l-.02-.18-.01-.25-.02-.25-.02-.25-.02-.25-.01-.24-.02-.25-.03-.25-.02-.25-.02-.25-.02-.24-.03-.25-.02-.25-.03-.24-.02-.25-.03-.24-.03-.25-.03-.24-.03-.25-.03-.24-.03-.24-.03-.25-.03-.24-.04-.24-.03-.24-.04-.24-.04-.24-.03-.24-.04-.24-.04-.24-.04-.24-.04-.24-.04-.24-.04-.23-.05-.24-.04-.24-.04-.23-.05-.24-.04-.23-.05-.24-.05-.23-.05-.24-.03-.16-.02-.07-.05-.23-.05-.23-.05-.23-.05-.24-.05-.23-.06-.23-.05-.22-.06-.23-.05-.23-.06-.23-.06-.23-.06-.22-.06-.23-.06-.22-.06-.23-.06-.22-.06-.22-.06-.23-.07-.22-.06-.22-.07-.22-.06-.22-.07-.22-.07-.22-.07-.22-.07-.22-.07-.21-.07-.22-.07-.21-.07-.22-.02-.05-15.84.26z"/><ellipse cx="32.27" cy="31.22" rx="14.79" ry="19.13" fill="#b8b8b8"/><path d="M32.19 13.4H32.02l-.08.01h-.09l-.08.01h-.09l-.08.02h-.08l-.09.01-.08.01-.08.01-.08.01-.09.01-.08.01-.08.02h-.08l-.09.02-.08.02-.08.01-.08.02-.08.01-.08.02-.08.02-.08.01-.09.02-.08.02-.08.02-.08.02-.08.02-.08.02-.07.03-.08.02-.08.02-.08.03-.08.02-.08.03-.08.03-.08.02-.07.03-.08.03-.08.03-.08.03-.07.03-.08.03-.08.03-.08.03-.07.03-.08.03-.07.04-.08.03-.08.04-.07.03-.08.04-.07.03-.08.04-.07.04-.08.04-.07.04-.07.03-.08.04-.07.05-.08.04-.07.04-.07.04-.08.04-.07.05-.07.04-.07.05-.07.04-.08.05-.07.04-.07.05-.07.05-.07.04-.07.05-.07.05-.07.05-.07.05-.07.05-.07.05-.07.06-.07.05-.07.05-.07.05-.07.06-.06.05-.07.06-.07.05-.07.06-.06.06-.07.05-.07.06-.06.06-.07.06-.06.06-.07.06-.06.06-.07.06-.06.06-.07.06-.06.07-.07.06-.06.06-.06.07-.06.06-.07.07-.06.06-.06.07-.06.06-.06.07-.07.07-.06.07-.06.06-.06.07-.06.07-.06.07-.06.07-.05.07-.04.05-.02.02-.06.08-.06.07-.06.07-.05.07-.06.08-.06.07-.06.08-.05.07-.06.08-.05.07-.06.08-.05.08-.06.07-.05.08-.05.08-.06.08-.05.08-.05.08-.06.08-.05.08-.05.08-.05.08-.05.08-.05.08-.05.09-.05.08-.05.08-.05.09-.05.08-.05.08-.05.09-.04.08-.05.1-.05.08-.04.08-.05.1-.05.08-.04.09-.05.08-.04.1-.04.08-.05.1-.04.08-.04.1-.05.08-.04.1-.04.08-.04.1-.04.09-.04.09-.04.1-.04.08-.04.1-.04.1-.04.09-.04.1-.04.09-.03.1-.04.09-.03.1-.04.09-.04.1-.03.1-.04.09-.03.1-.03.1-.04.1-.03.1-.03.1-.03.09-.04.1-.03.1-.03.1-.03.1-.03.1-.03.1-.02.1-.03.1-.03.1-.03.1-.02.11-.03.1-.03.1-.02.11-.03.1-.02.1-.02.11-.03.1-.02.11-.02.1-.02.11-.03.1-.02.11-.02.1-.02.12-.02.1-.02.1-.01.12-.02.1-.02.11-.02.1-.01.12-.02.1-.01.11-.02.11-.01.11-.02.11-.01.11-.01.11-.02.11v.11l-.02.11-.01.11-.01.11-.01.11v.12l-.02.1v.12l-.01.1-.01.12v.11l-.01.12v.1l-.01.12v.11l-.01.12V30.42l-.01.11V31.45l.01.11v.12l.01.11v.12l.01.1v.12l.01.12.01.1v.12l.02.11v.12l.02.1v.12l.02.11v.11l.02.11.01.12.01.1.02.12.01.1.01.12.02.1.01.12.02.1.02.11.01.11.02.11.02.1.02.12.02.1.01.11.02.1.03.11.02.11.02.1.02.11.02.1.02.11.03.11.02.1.02.1.03.11.02.1.03.11.03.1.02.1.03.1.03.11.03.1.02.1.03.1.03.1.03.1.03.1.03.1.03.1.03.1.04.1.03.1.03.1.04.1.03.1.03.1.04.1.03.09.04.1.03.1.04.09.04.1.03.09.04.1.04.09.04.1.04.08.04.1.04.09.04.1.04.08.04.1.04.09.04.09.04.09.04.09.05.09.04.09.04.08.05.1.04.08.05.09.04.09.05.08.04.09.05.08.04.1.05.06v.02l.05.08.05.08.04.09.05.08.05.08.05.09.05.08.05.08.05.08.05.08.05.08.05.08.05.08.05.08.05.08.06.08.05.08.05.07.05.08.06.08.05.07.06.08.05.07.05.08.06.07.06.08.05.07.06.07.05.07.06.08.06.07.05.07.06.07.06.07.06.07.05.07.06.06.06.07.06.07.06.07.06.06.06.07.06.06.06.07.06.06.06.07.06.06.06.06.06.06.07.07.06.06.06.06.06.06.07.06.06.06.06.05.07.06.06.06.06.06.07.05.06.06.07.06.06.05.07.05.06.06.07.05.06.05.07.06.06.05.07.05.06.05.07.05.07.05.06.05.07.05.07.04.07.05.06.05.07.04.07.05.07.04.07.05.06.04.07.05.07.04.07.04.07.04.07.04.07.04.07.04.07.04.07.04.07.04.07.04.07.03.07.04.07.04.07.03.07.04.07.03.07.03.07.04.07.03.08.03.07.03.07.03.07.03.07.03.07.03.08.03.07.03.07.03.07.02.08.03.07.02.07.03.07.02.08.03.07.02.07.02.08.02.07.03.07.02.08.02.07.02.08.02.07.01.07.02.08.02.07.02.08.01.07.02.08.01.07.02.08.01.07.01.08.02h.07l.08.02h.07l.08.02h.07l.08.02h.07l.08.01.08.01h.07l.08.01h.08l.07.01h.16l.07.01h.77l.08-.01h.08l.07-.01h.08l.08-.01.07-.01h.08l.07-.02h.08l.07-.02h.08l.07-.02h.08l.07-.02.08-.01.07-.02.08-.01.07-.02.08-.01.07-.02.07-.01.08-.02.07-.02.07-.02.08-.01.07-.02.07-.02.08-.02.07-.02.07-.03.07-.02.07-.02.08-.02.07-.03.07-.02.07-.03.07-.02.07-.03.08-.03.07-.02.07-.03.07-.03.07-.03.07-.03.07-.03.07-.03.07-.03.07-.03.07-.03.07-.04.07-.03.07-.03.07-.04.06-.03.07-.04.07-.03.07-.04.07-.04.07-.04.06-.03.07-.04.07-.04.07-.04.06-.04.07-.05.07-.04.06-.04.07-.04.07-.04.06-.05.07-.04.06-.05.07-.04.07-.05.06-.05.07-.04.06-.05.06-.05.07-.05.06-.05.07-.05.06-.05.06-.05.07-.05.06-.05.06-.05.07-.06.06-.05.06-.05.06-.06.07-.05.06-.06.06-.05.06-.06.06-.06.06-.05.06-.06.06-.06.06-.06.06-.06.06-.06.06-.06.06-.06.06-.06.06-.06.06-.07.05-.06.06-.06.06-.07.06-.06.05-.06.06-.07.06-.07.05-.06.06-.07.05-.07.06-.06.05-.07.06-.07.05-.07.06-.07.05-.07.05-.07.06-.07.05-.07.05-.07.06-.08.05-.07.05-.07.05-.08.05-.07.05-.07.05-.08.05-.07.05-.08.05-.08.05-.07.05-.08.05-.08.05-.08.05-.07.04-.08.05-.08.05-.08.04-.08.05-.08.05-.08.04-.08.05-.09.04-.08.05-.08.04-.08.05-.09.04-.08.04-.08.05-.09.04-.08.04-.09.04-.08.04-.09.04-.09.05-.08.04-.09.04-.09.03-.08.04-.1.04-.08.04-.09.04-.09.04-.09.03-.09.04-.09.04-.09.03-.09.04-.1.03-.08.04-.1.03-.09.04-.09.03-.1.03-.09.04-.09.03-.1.03-.09.03-.1.03-.09.03-.1.03-.09.03-.1.03-.1.03-.09.03-.1.03-.1.03-.09.02-.1.03-.1.03-.1.02-.1.03-.1.02-.09.03-.1.02-.1.02-.1.03-.1.02-.1.02-.1.02-.1.02-.1.02-.1.02-.1.02-.11.02-.1.02-.1.02-.1.02-.11.02-.1.01-.1.02-.11.01-.1.02-.11.01-.1.02-.11.01-.1.02-.11.01-.1.01-.11.01-.11.02-.1v-.11l.02-.11v-.1l.02-.11v-.11l.01-.1.01-.12v-.1l.02-.11v-.22l.01-.11v-.1l.01-.12v-.22l.01-.1v-1.33l-.01-.11v-.11l-.01-.11v-.11l-.01-.11-.01-.11v-.11l-.01-.1-.01-.12-.01-.1-.01-.11-.01-.11-.01-.1-.01-.12-.01-.1-.02-.1v-.12l-.02-.1-.01-.1-.02-.11-.01-.1-.02-.11-.01-.1-.02-.11-.01-.1-.02-.11-.02-.1-.02-.11-.01-.1-.02-.1-.02-.11-.02-.1-.02-.1-.02-.1-.02-.1-.02-.11-.03-.1v-.02l-.02-.08-.02-.1-.02-.1-.03-.1-.02-.1-.02-.1-.03-.1-.02-.1-.03-.1-.03-.1-.02-.1-.03-.1-.03-.1-.02-.1-.03-.09-.03-.1-.03-.1-.03-.09-.03-.1-.03-.09-.03-.1-.03-.09-.03-.1-.03-.09-.04-.09-.03-.1-.03-.09-.04-.09-.03-.1-.04-.08-.03-.1-.04-.09-.03-.09-.04-.09-.03-.07v-.02l-.04-.09-.04-.09-.03-.09-.04-.09-.04-.09-.03-.09-.04-.08-.04-.1-.04-.08-.04-.09-.04-.08-.04-.09-.04-.09-.04-.08-.04-.08-.04-.1-.04-.08-.04-.08-.04-.09-.04-.08-.04-.09-.05-.08-.04-.08-.04-.08-.04-.09-.05-.08-.04-.08-.05-.08-.04-.08-.04-.08-.01-.01-.04-.07-.04-.08-.05-.08-.04-.08-.05-.08-.04-.08-.05-.08-.04-.08-.05-.08-.05-.07-.04-.08-.05-.08-.05-.07-.05-.08-.04-.08-.05-.07-.05-.07-.05-.08-.05-.07-.05-.08-.05-.07-.05-.07-.05-.07-.05-.07-.05-.08-.06-.07-.05-.07-.05-.07-.05-.07-.06-.06-.02-.03-.03-.04-.05-.07-.05-.07-.05-.07-.06-.07-.05-.07-.05-.07-.05-.07-.06-.06-.05-.07-.05-.07-.06-.06-.05-.07-.06-.06-.05-.07-.06-.06-.06-.07-.05-.06-.06-.06-.06-.06-.05-.07-.06-.06-.06-.06L39 17l-.05-.06-.06-.06-.06-.06-.06-.06-.06-.05-.06-.06-.06-.06-.06-.06-.06-.05-.06-.06-.06-.05-.06-.06-.07-.05-.06-.05-.06-.06-.06-.05-.07-.05-.06-.05-.06-.06-.07-.05-.06-.05-.06-.05-.07-.05-.06-.04-.07-.05-.06-.05-.07-.05-.06-.04-.07-.05-.07-.05-.06-.04-.07-.05-.07-.04-.06-.05-.07-.04-.06-.05-.07-.04-.07-.05-.07-.04-.06-.04-.07-.05-.07-.04-.07-.04-.07-.04-.07-.04-.06-.04-.07-.04-.07-.04-.07-.04-.08-.04-.07-.04-.07-.03-.07-.04-.07-.04-.07-.03-.08-.04-.07-.03-.07-.03-.07-.04-.08-.03-.07-.03-.08-.03-.07-.03-.07-.03-.08-.03-.08-.03-.07-.03-.08-.03-.07-.03-.08-.02-.08-.03-.07-.03-.08-.02-.08-.03-.08-.02-.04-.01-.04-.01-.07-.03-.08-.02-.08-.03-.08-.02-.08-.02-.08-.02-.08-.03-.08-.02-.08-.02-.09-.01-.08-.02-.08-.02-.08-.02-.09-.02-.08-.01-.08-.02-.09-.01-.08-.02-.09-.01h-.08zm.2-2.63l.1-.01.1-.01.11-.01.1-.01.11-.01h.11l.1-.01h.11l.11-.01h.1l.12-.01h.79l.06.01h.1l.11.02h.11l.1.01.11.02h.11l.1.02.11.01.1.02.11.01.11.02.1.01.11.02.1.02.11.02.1.02.11.02.1.02.11.03.1.02.11.02.1.03.11.02.1.03.11.03.1.03.11.03.1.03.1.03.11.03.1.03.1.04.11.03.1.03.1.04.1.04.11.03.1.04.1.04.1.04.1.04.11.04.1.05.1.04.1.05.1.05.1.04.1.05.1.05.09.05.1.05.1.05.1.06.09.05.1.05.09.06.1.05.1.06.09.05.1.06.09.06.09.06.1.06.09.06.1.06.08.06.1.06.09.06.1.07.08.06.1.06.09.07.09.07.09.06.09.07.09.07.09.07.09.07.08.07.1.07.08.07.09.07.09.07.08.08.09.07.09.07.08.08.09.07.08.08.09.08.08.07.09.08.08.08.08.08.09.08.08.08.08.08.08.08.05.05.04.04.07.08.08.09.08.08.08.09.07.09.08.08.08.1.07.08.08.1.07.08.08.1.07.08.08.1.07.09.07.09.07.1.08.09.07.09.07.1.07.09.07.1.07.1.07.09.07.1.06.1.07.1.07.1.07.09.06.1.06.09v.01l.07.1.06.1.07.1.06.1.06.11.06.1.06.11.06.1.06.11.06.1.06.11.06.11.06.1.05.11.06.11v.01l.06.1.05.11.05.11.06.11.05.11.05.11.05.12.05.1.06.12.05.11.04.12.05.11.05.11.05.12.05.11v.02l.04.1.05.11.04.12.05.12.04.11.04.12.05.12.04.12.04.11.04.12.04.12.04.12.04.12.04.12.03.12.04.12.04.12.04.13.03.12.04.12.03.12.03.12.04.13.03.12.03.12.03.13.04.12.03.13.03.12.03.13.02.12.03.13.03.12.03.13.02.11v.02l.03.12.02.13.03.13.02.13.02.13.03.12.02.13.02.13.02.13.02.13.02.13.02.13.01.13.02.13.02.13.01.13.02.13.02.13.01.13.01.14.02.13v.13l.02.13.01.14.01.13.01.13.01.14v.13l.02.13v.14l.01.13v.14l.01.13v.13l.01.14V30.68l.01.13V31.63l-.01.13v.14l-.01.13v.14l-.01.13-.01.14v.13l-.02.14v.13l-.02.13v.14l-.02.13v.13l-.02.14-.01.13-.02.13-.01.13-.02.14-.01.13-.02.13-.01.13-.02.13-.02.13-.02.13-.02.13-.02.13-.02.13-.02.13-.02.13-.02.12-.02.13-.03.13-.02.13-.03.13-.02.12-.03.13-.02.13-.03.12-.03.13-.02.13-.03.12-.03.13-.03.12-.03.13-.03.12-.04.12-.03.13-.03.12-.03.12-.04.13-.03.12-.04.12-.03.12-.04.12-.04.12-.03.12-.04.13-.04.11-.04.12-.04.12-.04.12-.04.12-.04.12-.04.12-.04.11-.04.12-.05.12-.04.11-.05.12-.04.12-.05.11-.04.12-.05.11-.05.11-.04.12-.05.11-.05.11-.05.12-.05.11-.05.11-.05.11-.05.11-.05.11-.05.11-.06.11-.05.11-.05.11-.06.11-.05.11-.06.1-.05.11-.06.11-.06.1-.05.11-.06.11-.06.1-.06.11-.06.1-.06.1-.06.11-.06.1-.06.1-.06.11-.06.1-.07.1-.05.1-.07.1-.07.1-.06.1-.07.1-.06.1-.07.1-.07.1-.06.1-.07.09-.07.1-.07.09-.06.1-.07.09-.07.1-.07.09-.07.09-.08.1-.07.08-.07.1-.07.08-.08.1-.07.08-.07.1-.08.08-.07.1-.08.08-.07.09-.08.08-.08.09-.07.08-.08.09-.08.08-.08.09-.08.08-.07.08-.08.09-.08.08-.08.08-.09.08L43 48l-.08.08-.08.08-.08.08-.09.08-.08.07-.08.08-.09.08-.08.07-.09.08-.08.07-.09.07-.08.08-.09.07-.09.07-.09.07-.08.07-.1.07-.08.07-.09.07-.09.07-.09.07-.09.06-.09.07-.09.06-.09.07-.1.06-.08.07-.1.06-.09.06-.1.06-.09.06-.09.06-.1.06-.09.06-.1.06-.09.06-.1.05-.1.06-.09.06-.1.05-.1.05-.09.06-.1.05-.1.05-.1.05-.1.05-.1.05-.1.05-.1.05-.1.05-.1.04-.1.05-.1.04-.1.05-.1.04-.1.05-.1.04-.1.04-.11.04-.1.04-.1.04-.11.04-.1.03-.11.04-.1.04-.11.03-.1.04-.11.03-.1.03-.11.03-.11.03-.1.03-.11.03-.11.03-.1.03-.12.03-.1.02-.11.03-.11.02-.11.02-.11.03-.11.02-.1.02-.12.02-.1.02-.12.02-.11.01-.11.02-.11.02-.11.01-.11.01-.11.02h-.12l-.1.02-.12.01h-.11l-.11.02h-.12l-.11.01h-.11l-.11.01H32.73l-.11.01h-.69l-.04-.01h-.18l-.11-.02h-.12l-.11-.01-.11-.01-.11-.01-.12-.01-.1-.01-.12-.02-.11-.01-.11-.02-.11-.01-.11-.02-.11-.02-.11-.01-.11-.02-.11-.02-.11-.02-.11-.03-.1-.02-.12-.02-.1-.03-.11-.02-.11-.03-.1-.02-.12-.03-.1-.03-.1-.03-.11-.03-.11-.03-.1-.03-.11-.03-.1-.04-.11-.03-.1-.04-.11-.03-.1-.04-.1-.04-.11-.03-.1-.04-.1-.04-.1-.04-.11-.05-.1-.04-.1-.04-.1-.04-.1-.05-.1-.04-.1-.05-.1-.04-.1-.05-.1-.05-.1-.05-.1-.05-.1-.05-.1-.05-.09-.05-.1-.05-.1-.06-.09-.05-.1-.05-.09-.06-.1-.05-.09-.06-.09-.06-.1-.06-.09-.05-.09-.06-.1-.06-.08-.06-.1-.07-.09-.06-.09-.06-.09-.06-.09-.07-.09-.06-.08-.07-.1-.06-.08-.07-.09-.06-.09-.07-.08-.07-.1-.07-.08-.07-.08-.07-.09-.07-.08-.07-.09-.07-.08-.07-.09-.08-.08-.07-.08-.07-.09-.08-.08-.07-.08-.08-.08-.08-.08-.07-.08-.08-.08-.08-.08-.08-.08-.08-.08-.08-.08-.08-.07-.08-.08-.08-.08-.08-.08-.08-.07-.09-.08-.08-.07-.08-.08-.09-.07-.08-.07-.09-.08-.09-.07-.08-.07-.09-.08-.09-.07-.08-.07-.1-.07-.08-.07-.1-.07-.08-.07-.1-.07-.08-.06-.1-.07-.09-.07-.09-.07-.1-.06-.09-.07-.09-.07-.1-.06-.09-.06-.1-.07-.1-.06-.09-.07-.1-.06-.1-.06-.09-.06-.1-.06-.1-.06-.1-.06-.1-.06-.1-.06-.1-.06-.1-.06-.1-.06-.1-.06-.1-.05-.1-.06-.1-.06-.1-.05-.11-.06-.1-.05-.1-.05-.11-.01-.02-.05-.09-.05-.1-.05-.11-.05-.1-.06-.11-.05-.11-.05-.1-.05-.12-.05-.1-.04-.12-.05-.1-.05-.11-.05-.11-.04-.11-.05-.11-.05-.12-.04-.1-.05-.12-.04-.11-.04-.11-.05-.12-.04-.1-.04-.12-.04-.12-.04-.11-.04-.12-.04-.11-.04-.12-.04-.11-.04-.12-.04-.11-.03-.12-.04-.12-.04-.11-.03-.12-.04-.12-.03-.12-.03-.12-.04-.11-.03-.12-.03-.12-.03-.12-.04-.12-.03-.12-.03-.12-.02-.12-.03-.12-.03-.13-.03-.12-.03-.12-.02-.12-.03-.12-.02-.13-.03-.12-.02-.12-.03-.13-.02-.12-.02-.12-.02-.13-.02-.12-.02-.13-.02-.12-.02-.13-.02-.12-.02-.13-.02-.13-.02-.12-.01-.13-.02-.13-.01-.12-.02-.13-.01-.13-.02-.13v-.12l-.02-.13-.01-.13-.01-.13-.01-.13-.01-.13-.01-.13-.01-.12v-.13l-.01-.13-.01-.13v-.13l-.01-.13v-.14l-.01-.13v-.26l-.01-.13v-1.06l.01-.13v-.13l.01-.13v-.13l.01-.13v-.13l.02-.13v-.13l.01-.13.01-.13.01-.13.01-.13.01-.13.02-.13V29l.02-.13.02-.13.01-.13.02-.12.01-.13.02-.13.01-.12.02-.13.02-.13.02-.12.02-.13.02-.13.02-.12.02-.13.02-.12.02-.13.02-.12.03-.12.02-.13.03-.12.02-.12.03-.13.02-.12.03-.12.03-.12.02-.13.03-.12.03-.12.03-.12.03-.12.03-.12.03-.12.03-.12.04-.12.03-.12.03-.11.04-.12.03-.12.04-.12.03-.11.04-.12.03-.12.04-.11.04-.12.04-.12.04-.11.04-.12.04-.1.04-.12.04-.12.04-.11.04-.11.04-.12.04-.1.05-.12.04-.11.05-.11.04-.11.05-.11.04-.11.05-.11.05-.11.04-.11.05-.1.05-.12.05-.1.05-.11.05-.1.05-.12.05-.1.05-.1.05-.11.05-.1.06-.11.05-.1.05-.1.06-.11.05-.1.06-.1.05-.1.06-.1.06-.11.05-.1.06-.1.06-.1.06-.1.06-.1.06-.1.06-.1.06-.1.06-.09.06-.1.06-.1.06-.09.06-.1.07-.09.06-.1.06-.08.07-.1.06-.09.07-.1.06-.08.07-.1.06-.09.07-.09.07-.09.07-.09.06-.09.07-.08.07-.1.07-.08.07-.09.07-.08.07-.09.07-.08.07-.09.08-.08.07-.09.07-.08.03-.03.04-.05.08-.08.07-.08.07-.09.08-.08.07-.08.08-.08.08-.07.07-.08.08-.08.08-.08.07-.07.08-.08.08-.08.08-.07.08-.07.08-.08.08-.07.08-.07.08-.08.08-.07.08-.07.08-.07.08-.07.08-.07.09-.07.08-.06.08-.07.09-.07.08-.06.08-.07.09-.06.08-.07.09-.06.08-.06.09-.07.09-.06.08-.06.09-.06.09-.06.09-.06.08-.06.1-.06.08-.05.09-.06.09-.05.09-.06.09-.05.09-.06.09-.05.1-.05.08-.06.1-.05.09-.05.09-.05.09-.05.1-.05.09-.04.09-.05.1-.05.09-.04.1-.05.09-.04.1-.04.09-.05.1-.04.09-.04.1-.04.09-.04.1-.04.1-.04.09-.04.1-.03.1-.04.1-.04.1-.03.09-.03.1-.04.1-.03.1-.03.1-.03.1-.03.1-.03.1-.03.1-.03.1-.03.1-.02.1-.03.1-.02.1-.03.1-.02.1-.02.1-.02.1-.02.1-.02.11-.02.1-.02.1-.02.11-.01.1-.02.1-.01.11-.02.1-.01.1-.01.11-.02h.1l.11-.02h.1l.11-.01.1-.01h.11l.1-.01h.11l.1-.01H32.29l.1-.02z"/></g><path d="M79.38 20c0-9.49 9.8-17.18 21.89-17.18 12.08 0 21.89 7.7 21.89 17.17 0 9.48-9.81 17.18-21.9 17.18-3.02 0-6.01-.5-8.79-1.45L79.38 45.75l6.77-13.34c-4.32-3.24-6.77-7.73-6.77-12.42z" fill="#fff"/><clipPath id="g"><path d="M79.38 20c0-9.49 9.8-17.18 21.89-17.18 12.08 0 21.89 7.7 21.89 17.17 0 9.48-9.81 17.18-21.9 17.18-3.02 0-6.01-.5-8.79-1.45L79.38 45.75l6.77-13.34c-4.32-3.24-6.77-7.73-6.77-12.42z"/></clipPath><g clip-path="url(#g)"><text x="93.97" y="31.76" font-family="'TamilMN-Bold','Tamil MN'" font-weight="700" font-size="33.71" fill="#008fd7">?</text></g><path d="M80.7 20.1V20.51l.01.07.01.1v.1l.02.1v.09l.01.1.02.1v.1l.02.1.01.09.02.1.01.1.02.1.01.09.02.1.02.1.01.1.02.09.02.1.02.09.03.1.02.1.02.09.03.1.02.1.03.09.02.1.03.09.03.1.02.09.03.1.03.09.03.1.04.09.03.09.03.1.03.09.04.1.03.08.04.1.04.1.03.08.04.1.04.09.04.1.04.08.04.1.04.09.05.09.04.1.05.08.04.1.05.08.04.1.05.09.05.09.05.09.04.09.05.09.06.08.05.1.05.08.05.09.06.09.05.09.06.08.05.1.06.08.06.09.05.08.06.09.06.09.06.08.06.09.06.08.07.09.06.08.06.09.07.08.06.09.07.08.07.08.06.09.07.08.07.08.07.09.07.08.07.08.07.08.07.08.08.08.07.08.07.08.08.08.07.08.08.08.08.08.08.08.07.08.08.08.08.07.08.08.08.08.09.08.08.07.08.08.09.07.08.08.09.07.08.08.09.07.09.07.08.08.1.07.08.07.1.08.08.07.1.07.09.07.09.07.1.07.09.07.1.07.19.18.16.2.13.23.08.25.04.26v.26l-.06.26-.1.25-3.4 6.87 7.33-5.62-.1-.12.26-.17.28-.12.3-.08.3-.03.32.02.3.08.12.04.12.04.12.04.13.03.12.04.12.04.12.03.13.04.12.03.12.04.13.03.12.03.13.03.12.04.13.03.12.03.13.03.12.02.13.03.12.03.13.03.13.02.12.03.13.02.13.03.12.02.13.02.13.03.13.02.13.02.12.02.13.02.13.02.13.02.13.01.13.02.13.02.13.01.13.02.13.01.13.02.13.01.13.01.13.02H98.77l.14.02h.13l.13.02h.13l.13.01.13.01h.13l.13.01h.13l.13.01h.14l.13.01h1.44l.13-.01h.13l.13-.01h.13l.13-.01.13-.01.13-.01.13-.01.13-.01.13-.01.13-.01.12-.01.13-.01.13-.02.13-.01.12-.01.13-.02.13-.01.12-.02.13-.02.12-.01.13-.02.12-.02.13-.02.12-.02.13-.02.12-.02.12-.02.13-.02.12-.02.12-.03.12-.02.12-.02.13-.03.12-.02.12-.03.12-.02.12-.03.12-.03.12-.03.12-.02.12-.03.11-.03.12-.03.12-.03.12-.04.11-.03.12-.03.12-.03.11-.04.12-.03.11-.03.12-.04.11-.03.12-.04.11-.04.12-.03.1-.04.12-.04.11-.04.12-.04.1-.04.12-.04.1-.04.12-.04.1-.04.12-.04.1-.04.12-.05.1-.04.11-.04.1-.05.12-.04.1-.05.1-.04.12-.05.1-.05.1-.04.1-.05.11-.05.1-.05.11-.05.1-.05.1-.05.1-.05.1-.05.1-.05.11-.05.1-.06.1-.05.1-.05.1-.05.1-.06.1-.05.09-.06.1-.05.1-.06.09-.05.1-.06.09-.06.1-.06.09-.05.09-.06.1-.06.09-.06.09-.06.09-.06.09-.06.09-.06.09-.06.09-.06.09-.06.09-.06.08-.07.09-.06.09-.06.08-.07.09-.06.08-.06.09-.07.08-.06.09-.07.08-.06.08-.07.08-.07.08-.06.08-.07.08-.07.08-.06.08-.07.08-.07.08-.07.08-.07.07-.07.08-.07.07-.07.08-.07.07-.06.08-.08.07-.07.07-.07.08-.07.07-.07.07-.08.07-.07.07-.07.07-.07.07-.08.06-.07.07-.08.07-.07.07-.07.06-.08.07-.07.06-.08.06-.07.07-.08.06-.08.06-.07.06-.08.06-.08.07-.07.05-.08.06-.08.06-.08.06-.07.06-.08.05-.08.06-.08.05-.08.06-.08.05-.08.06-.08.05-.08.05-.08.05-.07.05-.09.05-.08.05-.08.05-.08.05-.08.05-.08.04-.08.05-.08.05-.09.04-.08.05-.08.04-.08.04-.08.04-.09.05-.08.04-.08.04-.09.04-.08.04-.08.03-.09.04-.08.04-.09.03-.08.04-.09.04-.08.03-.09.03-.08.04-.09.03-.08.03-.09.03-.08.03-.09.03-.08.03-.1.03-.08.03-.08.02-.1.03-.08.02-.08.03-.1.02-.08.03-.09.02-.08.02-.1.02-.08.02-.09.02-.08.02-.1.02-.08.02-.09.02-.09.01-.09.02-.09.01-.08.02-.1.01-.08.01-.1.02-.08v-.1l.02-.08v-.1l.02-.08v-.1l.02-.08v-.18l.02-.1v-.27l.01-.09V19.62l-.01-.09v-.09l-.01-.09v-.09l-.02-.09v-.1l-.01-.08-.01-.1-.01-.08-.01-.1-.01-.08-.02-.09-.01-.09-.01-.09-.02-.09-.01-.08-.02-.1-.02-.08-.01-.1-.02-.08-.02-.09-.02-.08-.02-.1-.02-.08-.02-.09-.02-.08-.03-.09-.02-.09-.02-.08-.03-.09-.02-.09-.03-.08-.03-.09-.02-.08-.03-.09-.03-.08-.03-.09-.03-.08-.03-.09-.03-.08-.04-.09-.03-.08-.03-.08-.04-.09-.03-.08-.04-.09-.03-.08-.04-.08-.04-.08-.03-.09-.04-.08-.04-.08-.04-.08-.04-.09-.04-.08-.05-.08-.04-.08-.04-.08-.05-.08-.04-.08-.04-.08-.05-.08-.05-.08-.04-.08-.05-.08v-.01l-.05-.07-.05-.08-.05-.08-.05-.08-.05-.08-.05-.08-.05-.08-.05-.07-.06-.08-.05-.08-.06-.08-.05-.07-.06-.08-.05-.08-.06-.07-.06-.08-.06-.08-.05-.07-.06-.08-.06-.07-.06-.08-.06-.07-.07-.08-.06-.07-.06-.07-.06-.08-.07-.07-.06-.07-.07-.08-.06-.07-.07-.07-.07-.07-.06-.07-.07-.08-.07-.07-.07-.07-.07-.07-.07-.07-.07-.07-.07-.07-.08-.07-.07-.07-.07-.06-.08-.07-.07-.07-.07-.07-.08-.07-.08-.06-.07-.07-.08-.07-.08-.06-.07-.07-.08-.06-.08-.07-.08-.06-.08-.07-.08-.06-.09-.07-.08-.06-.08-.06-.08-.06-.09-.07-.08-.06-.08-.06-.09-.06-.09-.06-.08-.06-.09-.06-.09-.06-.08-.06-.1-.06-.08-.06-.09-.06-.09-.06-.09-.05-.09-.06-.09-.06-.1-.05-.08-.06-.1-.06-.09-.05-.1-.05-.09-.06-.1-.05-.09-.06-.1-.05-.09-.05-.1-.05-.09-.06-.1-.05-.1-.05-.1-.05-.1-.05-.09-.05-.1-.05-.1-.05-.1-.04-.1-.05-.1-.05-.1-.05-.1-.04-.1-.05-.1-.04-.11-.05-.1-.04-.11-.05-.1-.04-.1-.04-.11-.05-.11-.04-.1-.04-.11-.04-.1-.04-.12-.04-.1-.04-.11-.04-.11-.04-.1-.04-.12-.04-.1-.03-.12-.04-.1-.04-.12-.03-.1-.04-.12-.03-.11-.04-.11-.03-.12-.04-.1-.03-.12-.03-.12-.03-.1-.03-.12-.03-.12-.03-.11-.03-.12-.03-.11-.03-.12-.03-.11-.03-.12-.02-.12-.03-.11-.03-.12-.02h-.02l-.1-.03-.12-.02-.12-.03-.11-.02-.12-.02-.12-.02-.12-.03-.12-.02-.12-.02-.12-.02-.12-.02-.12-.02-.12-.01-.12-.02-.13-.02-.12-.02-.12-.01-.12-.02-.13-.01-.12-.02-.12-.01-.12-.01-.13-.02h-.12l-.13-.02h-.12l-.13-.02h-.12l-.13-.02h-.12l-.13-.01-.12-.01h-.13l-.13-.01h-.12l-.13-.01h-.13l-.12-.01H100.63l-.13.01h-.13l-.12.01h-.13l-.13.01h-.12l-.13.02h-.12l-.13.01-.12.01-.13.01-.12.01-.13.02h-.12l-.13.02-.12.01-.12.02-.13.01-.12.02-.12.01-.13.02-.12.01-.12.02-.12.02-.12.02-.12.02-.12.02-.12.02-.12.02-.12.02-.12.02-.12.02-.12.02-.12.03-.12.02-.12.03-.11.02-.12.03-.12.02-.12.03-.11.03h-.02l-.1.02-.11.03-.12.03-.12.03-.11.03-.11.03-.12.03-.11.03-.12.03-.11.03-.11.03-.12.03-.1.04-.12.03-.11.03-.11.04-.11.03-.07.02-.04.02-.11.03-.12.04-.1.03-.11.04-.11.04-.11.03-.11.04-.1.04-.12.04-.1.04-.11.04-.1.04-.11.04-.11.04-.1.04-.11.04-.1.05h-.02l-.09.04-.1.04-.1.04-.11.04-.1.05-.1.04-.11.04-.1.05-.1.04-.1.05-.1.05-.1.04-.1.05-.1.05-.1.04-.1.05-.1.05-.1.05-.1.05-.1.05-.1.05-.1.05-.09.05-.1.06-.09.05-.1.05-.09.05-.09.06-.1.05-.09.06-.09.05-.09.06-.1.05-.08.06-.1.05-.01.02-.07.04-.1.05-.08.06-.1.05-.08.06-.1.06-.08.05-.1.06-.08.06-.09.06-.08.06-.1.06-.08.05-.08.06-.09.06-.08.07-.09.06-.08.06-.08.06-.08.06-.09.06-.08.07-.08.06-.08.06-.08.07-.08.06-.08.07-.08.06-.07.07-.08.06-.08.07-.08.07-.07.06-.08.07-.07.07-.08.07-.07.07-.07.07-.08.06-.07.07-.07.07-.07.07-.07.07-.07.08-.07.07-.07.07-.07.07-.06.07-.07.08-.07.07-.06.07-.07.08-.06.07-.07.07-.06.08-.06.07-.07.08-.06.07-.06.08-.06.08-.06.07-.06.08-.06.08-.06.07-.06.08-.05.08-.03.03-.03.05-.06.07-.06.08-.05.08-.06.08-.06.08-.05.07-.06.08-.05.08-.06.08-.05.08-.05.08-.05.08-.05.09-.05.08-.05.08-.05.08-.05.08-.05.09-.05.08-.04.08-.05.09-.05.08-.04.08-.05.09-.04.08-.04.09-.04.09-.05.08-.04.09-.04.08-.04.1-.04.08-.03.09-.04.08-.04.1-.04.08-.03.09-.04.09-.03.09-.03.09-.04.09-.03.09-.03.09-.03.09-.03.09-.03.1-.03.08-.03.1-.03.09-.02.08v.01l-.03.1-.03.09-.02.1-.03.08-.03.1-.02.1-.02.09-.03.1-.02.09-.02.1-.02.1-.02.09-.02.1-.02.1-.02.09-.01.1-.02.1-.01.1-.02.1-.01.1-.01.1-.02.08v.01l-.01.1v.1zm-2.64-.24v-.11l-.02-.12v-.13l-.01-.12v-.12l-.01-.12v-1.21l.01-.13.01-.12.01-.12.01-.12.01-.12.01-.12v-.01l.01-.11.02-.12.02-.12.01-.12.02-.12.02-.12.02-.12.02-.12.02-.12.02-.12.03-.12.02-.12.03-.12.02-.12.03-.11.03-.12.03-.12.03-.12.03-.12.03-.11.03-.12.04-.12.03-.11.04-.12.03-.12.04-.11.04-.12.04-.12.04-.11.04-.12.04-.11.04-.12.04-.11.05-.12.04-.11.05-.12.05-.11.04-.11.05-.12.05-.1.05-.12.05-.11.05-.12.06-.1.05-.12.06-.11.05-.11.06-.11.05-.11.06-.11.04-.07.02-.04.06-.11.06-.1.07-.12.06-.1.07-.11.06-.1.07-.11.07-.1.06-.11.07-.1.07-.11.07-.1.07-.11.07-.1.08-.1.07-.11.07-.1.08-.1.07-.1.08-.1.08-.1.07-.1.08-.1.08-.1.08-.1.08-.1.08-.1.09-.1.08-.1.08-.1.08-.1.09-.1.08-.09.09-.1.09-.09.08-.1.1-.09.08-.09.1-.1.08-.09.1-.09.08-.1.1-.08.09-.1.1-.08.08-.1.1-.08.1-.1.1-.08.09-.1.1-.08.1-.09.1-.08.1-.1.1-.08.1-.08.1-.09.1-.08.1-.09.1-.08.1-.09.1-.08.11-.08.1-.08.11-.08.09-.07.02-.01.1-.08.12-.08.1-.08.12-.07.1-.08.12-.08.11-.07.11-.07.12-.08.11-.07.12-.07.11-.08.12-.07.11-.07.12-.07.11-.07.12-.07.12-.07.12-.07.12-.07.12-.06.12-.07.12-.07.12-.06.12-.07.12-.06.12-.07.13-.06.12-.06.12-.07.13-.06.12-.06.13-.06.12-.06.11-.05h.02l.13-.07.13-.05.13-.06.12-.05.13-.06.13-.05.13-.06.13-.05.14-.05.13-.05.13-.05.13-.05.13-.05.14-.05.13-.05.13-.05.14-.05.05-.02.08-.02.14-.05.14-.04.13-.05.14-.04.14-.04.13-.04.14-.04.14-.04.14-.04.14-.04.14-.04.14-.04.14-.03.14-.04.14-.04.14-.03.12-.03h.02l.15-.04.14-.03.14-.03.14-.03.15-.03.14-.03.15-.03.14-.03.14-.02.15-.03.15-.03.14-.02.15-.02.14-.03.15-.02.15-.02.14-.02.15-.02.15-.02.15-.02.15-.02.14-.02.15-.02.15-.01.15-.02.15-.01.15-.02.15-.01.15-.02h.15l.15-.02h.16l.15-.02h.15l.15-.02h.15l.16-.01h.15l.15-.01H100.34l.16-.01H102.04l.15.01h.15l.16.02h.15l.15.01.15.01h.16l.15.02.15.01.15.01.15.02h.15l.15.02.15.02.15.01.15.02.15.02.15.01.15.02.15.02.14.02.15.02.15.02.15.02.14.03.15.02.15.02.14.03.15.02.14.03.15.03.14.02.15.03.14.03.15.03.14.03.14.03.14.03.12.03h.03l.14.04.14.03.14.04.14.03.14.04.14.03.14.04.14.04.14.04.14.04.14.04.14.04.13.04.14.04.14.04.13.05.14.04.14.04.13.05.14.04.13.05.14.05.13.04.13.05.14.05.13.05.13.05.13.05.13.05.13.05.13.06.13.05.13.05.13.06.13.05.13.06.13.05.12.06.13.06.13.06.12.05.13.06.12.06.13.06.12.06.13.07.12.06.12.06.12.06.13.07.12.06.12.07.12.06.12.07.12.06.12.07.11.07.12.07.12.07.12.07.11.07.12.07.11.07.12.07.11.07.12.07.11.08.11.07.11.07.12.08.1.07.12.08.1.08.12.07.1.08.11.08.11.08.1.08.12.08.1.08.1.08.11.08.1.08.11.08.1.09.1.08.1.08.11.09.1.08.1.09.1.08.1.09.1.09.1.08.1.1.09.08.1.09.1.09.09.09.09.09.1.09.09.09.09.1.09.08.1.1.08.09.1.1.08.09.09.1.09.09.08.1.09.09.08.1.09.1.08.09.09.1.08.1.08.1.08.1.08.1.08.1.08.1.08.1.08.1.08.1.07.1.08.1.08.1.07.11.07.1.08.11.07.1.07.11.07.1.07.11.07.11.07.1.07.12.06.1.07.11.06.11.07.11.05.1.01.01.06.11.07.11.06.11.06.11.06.11.06.12.05.1.06.12.06.12.05.1.06.12.05.12.05.11.06.12.05.11.05.12.05.12.05.11.04.12.05.12.05.11.04.12.05.12.04.12.04.12.04.12.04.12.04.12.04.12.04.12.04.12.03.12.04.12.03.13.04.12.03.12.03.12.03.13.03.12.03.12.03.13.02.12.03.13.02.12.03.13.02.12.02.13.02.12.02.13.02.12.02.13.02.13.01.12.02.13.01.13.01.13.01.12.02.13v.13l.01.13.01.13v.13l.01.13v.12l.01.13v1.04l-.01.13-.01.13v.13l-.02.13v.12l-.02.13-.01.13-.01.13-.02.13-.01.12-.02.13-.02.13-.01.12-.02.13-.02.12-.02.13-.03.12-.02.13-.02.12-.03.13-.02.12-.03.13-.03.12-.03.12-.03.13-.03.12-.03.12-.03.12-.03.13-.04.12-.03.12-.04.12-.04.12-.04.12-.04.12-.04.12-.04.12-.04.12-.04.11-.04.12-.05.12-.04.12-.05.11-.05.12-.04.12-.05.11-.05.12-.05.11-.05.12-.06.11-.05.11-.05.12-.06.11-.05.11-.06.12-.06.1-.05.12-.06.1-.06.12-.06.11-.06.11-.06.1-.07.12-.06.1-.06.12-.07.1-.06.11-.07.1-.07.11-.07.1-.07.11-.06.1-.08.11-.07.1-.07.11-.07.1-.07.1-.08.11-.07.1-.08.1-.07.1-.08.1-.08.1-.08.1-.07.1-.08.1-.08.1-.09.1-.08.1-.08.1-.08.09-.09.1-.08.1-.09.09-.08.1-.09.09-.08.09-.1.1-.08.08-.09.1-.09.09-.09.09-.09.09-.09.09-.1.09-.09.09-.09.09-.1.09-.09.08-.1.09-.09.09-.1.08-.1.09-.09.08-.1.09-.1.08-.1.09-.1.08-.1.08-.1.08-.1.08-.1.09-.1.08-.1.08-.11.08-.1.07-.11.08-.1.08-.11.08-.1.07-.12.08-.1.08-.11.07-.11.08-.11.07-.11.07-.11.08-.11.07-.11.07-.11.07-.12.07-.11.07-.11.07-.12.07-.11.07-.12.07-.11.06-.12.07-.11.07-.12.06-.12.07-.12.06-.11.07-.12.06-.12.06-.12.07-.12.06-.12.06-.12.06-.13.06-.12.06-.12.06-.12.06-.13.05-.12.06-.13.06-.12.05-.13.06-.12.05-.13.06-.12.05-.13.05-.13.06-.12.05-.13.05-.13.05-.13.05-.13.05-.13.05-.13.04-.13.05-.13.05-.13.05-.13.04-.14.05-.13.04-.13.04-.13.05-.14.04-.13.04-.14.04-.13.04-.14.04-.13.04-.14.04-.13.04-.14.04-.14.03-.13.04-.14.03-.14.04-.14.03-.13.04-.14.03-.14.03-.14.03-.14.03-.14.03-.14.03-.14.03-.15.03-.14.03-.14.02-.14.03-.14.02-.14.03-.15.02-.14.03-.14.02-.15.02-.14.02-.15.02-.14.02-.15.02-.14.02-.15.02-.14.01-.15.02-.14.02-.15.01-.15.01-.14.02-.15.01-.15.01-.15.01-.14.01-.15.01-.15.01-.15.01h-.15l-.15.02h-.3l-.15.01h-.15l-.15.01H100.66l-.15-.01-.15-.01h-.15l-.16-.01-.15-.01-.15-.01-.15-.01-.15-.01-.15-.01-.15-.01-.15-.02-.15-.01-.15-.01-.15-.02-.15-.02h-.13l-.02-.01-.15-.02-.15-.02-.15-.02-.15-.02-.15-.02-.15-.02-.15-.02-.15-.02-.15-.03-.14-.02-.15-.03-.15-.02-.15-.03-.15-.02-.14-.03-.15-.03-.15-.03-.14-.03-.15-.03-.15-.03-.14-.04-.15-.03-.14-.03-.15-.04-.14-.03-.15-.04-.14-.04-.15-.03-.14-.04-.14-.04-.15-.04-.14-.04-.14-.04-.14-.04-.15-.05-.14-.04-.14-.04-.04-.02-12.37 9.3-.25.15-.26.11-.29.06-.28.02-.29-.04-.27-.08-.26-.12-.23-.17-.2-.2-.16-.23-.12-.26-.07-.27-.03-.28.02-.28.06-.27.11-.25.12.06.33-.66-.03-.03.07-.05 5.78-11.39h.01l.07-.13-.05-.05-.1-.1-.1-.08-.1-.09-.1-.09-.1-.09-.09-.09-.1-.09-.09-.09-.1-.1-.09-.08-.09-.1-.1-.09-.08-.1-.1-.08-.08-.1-.1-.1-.08-.09-.09-.1-.08-.09-.09-.1-.08-.1-.09-.09-.08-.1-.08-.1-.09-.1-.08-.1-.08-.1-.08-.1-.08-.1-.07-.1-.08-.1-.08-.1-.07-.1-.08-.1-.07-.1-.07-.1-.07-.1-.08-.1-.07-.11-.07-.1-.06-.1-.07-.11-.07-.1-.07-.11-.06-.1-.07-.11-.06-.11-.06-.1-.07-.11-.06-.11-.06-.11-.06-.1-.06-.12-.05-.1-.06-.11-.06-.11-.05-.11-.06-.11-.05-.11-.05-.11-.06-.11-.05-.11-.05-.11-.05-.12-.05-.1-.04-.12-.05-.11-.05-.11-.04-.12-.05-.11-.04-.11-.04-.12-.04-.11-.04-.12-.04-.11-.04-.11-.04-.12-.04-.11-.03-.12-.04-.11-.03-.12-.03-.12-.04-.11-.03-.12-.03-.11-.03-.12-.03-.12-.03-.11-.02-.12-.03-.12-.02-.12-.03-.11-.02-.12-.02-.12-.02-.12-.02-.12-.02-.11-.02-.12-.02-.12-.02-.12-.01-.12-.02-.12v-.12l-.02-.12-.01-.12-.01-.12-.01-.12-.01-.12-.01-.11v-.12l-.01-.12v-.13l-.01-.07v-.65l-.02-.12v-.01z"/><path d="M142.63 20c0-9.49 9.1-17.18 20.32-17.18 11.21 0 20.32 7.7 20.32 17.17 0 4.7-2.27 9.18-6.29 12.42l6.29 13.34-12.16-10.03a23.54 23.54 0 01-8.16 1.44c-11.21 0-20.32-7.69-20.32-17.17z" fill="#fff"/><clipPath id="h"><path d="M142.63 20c0-9.49 9.1-17.18 20.32-17.18 11.21 0 20.32 7.7 20.32 17.17 0 4.7-2.27 9.18-6.29 12.42l6.29 13.34-12.16-10.03a23.54 23.54 0 01-8.16 1.44c-11.21 0-20.32-7.69-20.32-17.17z"/></clipPath><g clip-path="url(#h)"><text x="157.68" y="31.79" font-family="'TamilMN-Bold','Tamil MN'" font-weight="700" font-size="37.08" fill="#008fd7">!</text></g><path d="M143.85 20.1V20.4l.01.1V20.6l.02.1v.1l.01.1v.1l.02.1v.1l.02.1.01.1.01.1.02.1v.1l.02.1.02.1.01.1.02.1.02.09.02.1.01.1.02.1.02.09.02.1.03.1.02.09.02.1.02.09.03.1.02.09.03.1.03.09.02.1.03.09.03.1.03.09.03.1.03.09.03.09.03.1.03.09.03.09.04.09.03.1.04.08.03.1.04.09.04.09.03.09.04.09.04.09.04.09.04.09.04.09.04.09.04.09.05.09.04.09.04.09.05.08.04.1.05.08.05.09.04.08.05.09.05.09.05.08.05.09.05.08.05.09.05.08.05.09.05.08.06.09.05.08.05.08.06.09.05.08.06.08.06.09.05.08.06.08.06.08.06.08.06.08.06.08.06.08.06.08.06.08.06.08.07.08.06.08.07.08.06.08.06.08.07.07.07.08.06.08.07.07.07.08.07.07.07.08.07.07.07.08.07.07.07.08.07.07.07.07.07.08.08.07.07.07.07.07.08.07.07.07.08.08.08.07.07.07.08.06.08.07.08.07.07.07.08.07.08.07.08.06.08.07.08.07.09.06.08.07.08.06.08.07.09.06.08.07.09.06.08.06.09.07.03.02.05.04.09.06.08.06.1.06.08.06.09.06.09.06.08.06.1.06.08.06.1.06.08.05.1.06.09.06.09.05.1.06.08.05.1.06.1.05.09.06.1.05.09.05.1.06.09.05.1.05.09.05.1.05.1.05.1.05.09.05.1.05.1.05.1.04.1.05.1.05.1.04.1.05.1.05.1.04.1.04.1.05.1.04.1.04.11.05.1.04.1.04.11.04.1.04.11.04.1.04.11.04.11.03.1.04.11.04.11.04.1.03.12.04.1.03.11.04.11.03.1.03.12.04.1.03.12.03.1.03.12.03.11.03.11.03.11.03.11.03.12.02.1.03.12.03.11.02.12.03.11.02.11.03.12.02.11.02.12.03.11.02.12.02.11.02.12.02.11.02.12.02.11.02.12.02.12.01.11.02.12.01.12.02.12.01.11.02.12.01.12.01.12.02h.12l.12.02.12.01.12.01h.12l.12.02h.12l.12.01h.12l.12.01.12.01h.24l.12.01h1.48l.12-.01.12-.01h.12l.13-.01.12-.01.12-.01.12-.01.12-.01.13-.01.12-.01.12-.01.12-.02.12-.01.12-.01.12-.02.13-.01.12-.02.12-.02.12-.01.12-.02.12-.02.12-.02.12-.02.12-.02.12-.02.12-.02.12-.02.12-.03.11-.02.12-.03.12-.02.12-.03.12-.02.12-.03.11-.03.12-.02.12-.03.11-.03.12-.03.12-.03.11-.03.12-.04.12-.03.11-.03.12-.04.11-.03.12-.04.11-.03.11-.04.12-.03.11-.04.12-.04.1-.04.12-.04.11-.04.12-.04.1-.04.12-.04.12-.05.28-.07.29-.03.29.02.28.07.27.12.24.16 5.9 4.78-2.82-5.97-.1.04-.12-.3-.07-.33v-.34l.04-.33.1-.32.15-.3.2-.27.24-.23.08-.08.09-.07.08-.07.08-.07.08-.07.08-.07.08-.07.08-.07.08-.07.07-.08.08-.07.08-.07.07-.08.08-.07.07-.07.08-.08.07-.07.04-.04.03-.04.07-.07.07-.08.07-.07.07-.08.07-.08.07-.07.07-.08.07-.08.06-.08.07-.07.07-.08.06-.08.07-.08.06-.08.06-.08.06-.08.07-.08.06-.08.06-.08.06-.08.06-.08.06-.08.05-.08.06-.08.06-.09.05-.08.06-.08.05-.08.06-.08.05-.09.05-.08.05-.08.06-.09.05-.08.05-.09.05-.08.04-.09.05-.08.05-.09.05-.08.04-.09.05-.08.04-.09.05-.08.04-.09.04-.09.05-.08.04-.09.04-.09.04-.08.04-.09.04-.09.03-.09.04-.08.04-.09.04-.09.03-.09.04-.09.03-.08.03-.1.04-.08.03-.09.03-.09.03-.09.03-.09.03-.09.03-.09.03-.09.02-.09.03-.09.03-.09.02-.09.03-.09.02-.09.03-.09.02-.09.02-.09.02-.1.02-.08.02-.1.02-.09.02-.09.02-.09.02-.09.01-.1.02-.08.01-.1.02-.09.01-.09.01-.09.02-.1v-.09l.02-.09.01-.09.01-.1v-.09l.02-.09v-.09l.01-.1v-.09l.01-.09v-.1l.01-.09v-.19l.01-.08V19.6l-.01-.09v-.1l-.01-.09v-.09l-.02-.1v-.09l-.01-.09-.01-.1-.01-.08-.01-.1-.01-.09-.01-.1-.02-.08-.01-.1-.01-.09-.02-.09-.01-.09-.02-.09-.02-.09-.01-.09-.02-.09-.02-.09-.02-.09-.02-.09-.02-.09-.02-.09-.02-.09-.02-.09-.03-.09-.02-.08-.02-.1-.03-.08-.02-.09-.03-.09-.03-.08-.03-.1-.02-.08-.03-.09-.03-.08-.03-.09-.03-.08-.03-.1-.03-.08-.04-.08-.03-.09-.03-.08-.04-.09-.03-.08-.04-.09-.03-.08-.04-.09-.04-.08-.04-.08-.03-.09-.04-.08-.04-.08-.04-.09-.04-.08-.05-.08-.04-.08-.04-.09-.04-.08-.05-.08-.04-.08-.05-.08-.04-.08-.05-.08-.04-.08-.05-.08-.05-.08-.05-.08-.05-.08-.05-.08-.05-.08-.05-.08-.05-.08-.05-.08-.05-.07-.05-.08-.06-.08-.05-.08-.06-.07-.05-.08-.06-.08-.05-.07-.06-.08-.06-.07-.05-.08-.06-.07-.06-.08-.06-.07-.06-.08-.06-.07-.06-.07-.06-.08-.07-.07-.06-.07-.06-.07-.07-.08-.06-.07-.06-.07-.07-.07-.07-.07-.06-.07-.07-.07-.07-.07-.06-.07-.07-.07-.07-.07-.07-.07-.07-.07-.07-.06-.07-.07-.07-.07-.07-.06-.08-.07-.07-.07-.07-.06-.08-.07-.07-.06-.08-.07-.07-.06-.08-.07-.07-.06-.08-.06-.08-.07-.07-.06-.08-.06-.08-.06-.08-.06-.08-.06-.08-.06-.08-.06-.08-.06-.08-.06-.08-.06-.09-.06-.08-.06-.08-.06-.09-.06-.08-.05-.08-.06-.09-.06-.08-.05-.1-.06-.08-.05-.08-.06-.1-.05-.08-.05-.09-.06-.08-.05-.1-.05-.08-.06-.1-.05-.08-.05-.1-.05-.08-.05-.1-.05-.08-.05-.1-.05-.09-.05-.1-.04-.08-.05-.1-.05-.1-.05-.09-.04-.1-.05-.09-.04-.1-.05-.09-.04-.1-.05-.09-.04-.1-.04-.1-.05-.1-.04-.09-.04-.1-.04-.1-.04-.1-.04-.1-.04-.1-.04-.1-.04-.1-.04-.1-.04-.1-.03-.1-.04-.1-.04-.1-.03-.1-.04-.1-.03-.11-.04-.1-.03-.1-.03-.11-.04-.1-.03-.11-.03-.1-.03-.11-.03-.1-.03-.11-.03-.1-.03-.11-.03-.11-.03-.1-.02-.11-.03-.1-.02h-.01l-.11-.03-.1-.03-.12-.02-.1-.03-.11-.02-.11-.03-.11-.02-.11-.02-.11-.02-.11-.02-.11-.02-.11-.02-.11-.02-.12-.02-.1-.02-.12-.02-.11-.02-.11-.01-.12-.02-.1-.01-.12-.02-.12-.01-.1-.02h-.12l-.12-.02-.11-.01-.11-.01-.12-.01-.11-.01-.12-.01-.11-.01-.12-.01h-.12l-.11-.02H164.13l-.12-.01h-.12l-.12-.01h-.35l-.12-.01h-.82l-.12.01h-.23l-.12.01-.12.01h-.11l-.12.01-.12.01h-.11l-.12.02h-.11l-.12.02h-.11l-.12.02-.11.01-.12.01-.11.01-.11.02-.12.01-.11.02-.11.01-.12.02-.1.01-.12.02-.11.02-.12.02-.1.02-.12.01-.1.02-.12.03-.11.02-.11.02-.1.02-.12.02-.1.03-.12.02-.1.02-.11.03-.11.02-.11.03-.1.03-.12.02-.1.03-.1.03-.12.03-.1.02-.1.03-.11.03-.1.03-.11.03-.1.03-.11.03-.1.04-.11.03-.1.03-.1.03-.11.04-.1.03-.1.04-.1.03-.1.04h-.01l-.1.03-.1.04-.1.04-.1.03-.1.04-.1.04-.1.04-.1.03-.1.04-.1.04-.1.04-.1.04-.1.05-.1.04-.1.04-.09.04-.1.04-.09.05-.1.04-.1.04-.09.05-.1.04-.09.05-.1.04-.09.05-.1.04-.09.05-.09.04-.1.05-.08.05-.1.05-.09.05-.09.04-.09.05-.09.05-.09.05-.09.05-.09.06-.09.05-.09.05-.08.05-.1.05-.08.06-.09.05-.08.06-.09.05-.08.06-.09.05-.08.06-.09.05-.08.06-.09.06-.08.05-.06.05-.02.01-.09.06-.08.06-.08.05-.09.06-.08.06-.08.06-.08.06-.08.05-.08.06-.08.06-.08.06-.08.07-.08.06-.08.06-.08.06-.07.06-.08.07-.08.06-.07.06-.08.07-.07.06-.08.07-.07.06-.08.07-.07.06-.07.07-.07.07-.08.06-.07.07-.07.07-.07.07-.07.06-.07.07-.07.07-.07.07-.06.07-.07.07-.07.07-.06.07-.07.08-.07.07-.06.07-.07.07-.06.08-.06.07-.07.07-.06.08-.06.07-.06.08-.06.07-.06.08-.06.07-.06.08-.06.07-.06.08-.06.08-.05.07-.06.08-.06.08-.05.08-.06.08-.05.08-.05.08-.06.08-.05.08-.04.06-.01.01-.06.08-.05.08-.05.08-.06.08-.05.08-.05.09-.05.08-.05.08-.05.08-.05.08-.05.09-.04.08-.05.08-.05.09-.04.08-.05.08-.04.09-.05.08-.04.09-.04.08-.05.1-.04.08-.04.08-.04.1-.04.08-.04.09-.04.08-.04.1-.03.08-.04.09-.04.09-.03.09-.04.09-.03.09-.04.09-.03.09-.03.1-.03.08-.04.1-.03.09-.03.09-.03.1-.02.08-.03.1-.03.1-.03.08-.02.1-.03.1-.02.07v.02l-.03.1-.02.09-.03.1-.02.09-.03.1-.02.1-.02.09-.02.1-.02.1-.02.1-.02.09-.02.1-.02.1-.01.1-.02.1-.02.1v.1l-.02.1-.02.1v.1l-.02.1-.01.1v.1zm-2.44-.23l-.01-.12-.01-.12v-.12l-.02-.12v-.36l-.01-.12v-.96l.01-.12v-.12l.02-.12v-.12l.01-.12v-.02l.01-.1.02-.11V17l.02-.12.02-.12.01-.12.02-.11.02-.12.02-.12.02-.12.02-.12.02-.11.02-.12.02-.12.03-.11.02-.12.03-.12.02-.11.03-.12.03-.12.03-.11.02-.12.04-.11.03-.12.03-.11.03-.12.04-.11.03-.12.04-.11.03-.12.04-.11.04-.11.03-.12.04-.11.04-.11.05-.12.04-.1.04-.12.04-.11.05-.11.04-.12.05-.1.04-.12.05-.1.05-.12.05-.1.05-.12.05-.1.05-.12.01-.03.04-.08.06-.1.05-.11.06-.1.06-.11.06-.11.05-.1.06-.11.06-.1.07-.11.06-.1.06-.11.06-.1.07-.1.06-.11.07-.1.06-.1.07-.1.07-.11.06-.1.07-.1.07-.1.07-.1.07-.1.07-.1.08-.1.07-.1.07-.1.08-.1.07-.1.08-.1.07-.09.08-.1.08-.09.07-.1.08-.1.08-.09.08-.09.08-.1.09-.09.08-.09.08-.1.08-.09.09-.09.08-.09.09-.09.08-.09.09-.09.09-.09.08-.09.1-.09.08-.09.09-.08.09-.1.1-.08.08-.09.1-.08.09-.09.09-.08.1-.09.09-.08.1-.09.09-.08.1-.08.09-.08.1-.09.02-.02.07-.06.1-.07.1-.08.1-.08.1-.08.11-.08.1-.07.1-.08.1-.07.11-.08.1-.07.11-.07.1-.08.11-.07.11-.07.1-.07.12-.08.1-.07L150 4l.11-.07.11-.06.11-.07.11-.07.11-.07.12-.06.1-.07.12-.07.11-.06.12-.07.11-.06.11-.06.12-.07.12-.06.11-.06.12-.06.11-.06.12-.06.12-.06.12-.05.12-.06.12-.06.12-.05.12-.06.12-.05.12-.05.12-.06.13-.05.12-.05.12-.05.12-.05.13-.05.12-.05.13-.05.12-.05.13-.04.12-.05.13-.05.13-.04.13-.04.12-.05.13-.04.13-.04.13-.04.13-.04.13-.04.13-.04.13-.04.13-.04.13-.03.13-.04.13-.04.13-.03.14-.03.13-.04.13-.03.14-.03.13-.03.13-.03.14-.03.13-.03.14-.03.13-.02.14-.03.13-.03.14-.02.14-.03.13-.02.14-.02.14-.02.13-.03.14-.02.14-.02.14-.02.14-.02.14-.01.13-.02.14-.02.14-.01.14-.02.14-.01.14-.02h.14l.15-.02.14-.01.14-.01.14-.01.14-.01.14-.01h.15l.14-.02h.28l.15-.01H162.52l.14-.01H163.53l.14.01h.14l.14.01.15.01h.14l.14.02h.14l.15.01.14.01.14.01.14.02.14.01.14.01.14.02.14.01.14.02.14.01.14.02.14.02.14.02.14.01.14.02.13.02.14.03.14.02.14.02.13.02.14.03.14.02.13.03.14.02.13.03.14.03.13.03.14.03.13.03.14.03.13.03.13.03.14.03.13.03.13.04h.02l.11.03.13.04.14.03.13.04.13.04.13.03.13.04.13.04.13.04.12.04.13.04.13.05.13.04.13.04.12.05.13.04.13.05.12.04.13.05.12.04.13.05.12.05.13.05.12.05.12.05.12.05.13.05.12.05.12.05.12.06.12.05.12.06.12.05.12.06.12.05.12.06.12.06.12.05.11.06.12.06.12.06.11.06.12.06.11.06.12.07.11.06.12.06.1.07.12.06.11.07.12.06.1.07.12.06.1.07.12.07.1.07.12.07.1.07.11.07.11.07.1.07.12.07.1.07.1.07.11.08.1.07.11.07.1.08.1.07.11.08.1.08.1.07.1.08.1.08.1.08.1.08.1.08.1.08.1.08.1.08.1.08.1.08.09.08.1.09.09.08.09.08.1.09.09.08.09.09.1.09.08.08.1.09.08.09.1.08.08.1.09.08.09.1.08.08.09.1.08.08.1.1.07.09.09.09.08.1.08.08.09.1.08.1.08.09.08.1.08.09.08.1.08.09.07.1.08.1.08.1.07.09.08.1.07.1.08.1.07.1.07.1.07.1.08.1.07.1.07.1.06.1.07.1.07.1.07.11.06.1.07.11.06.1.07.11.06.1.06.11.07.1.06.12.06.1.06.11.06.1.06.12.05.1.06.11.06.11.05.11.06.11.05.12.05.1.06.12.05.11.05.11.05.11.05.12.05.11.04.11.05.12.05.11.04.12.05.11.04.12.04.11.04.12.04.11.04.12.04.12.04.11.04.12.04.12.03.12.04.12.03.11.04.12.03.12.03.12.03.12.03.12.03.12.03.12.03.12.03.12.02.13.03.12.02.12.03.12.02.12.02.13.02.12.02.12.02.12.02.13.01.12.02.13.01.12.02.12.01.13.02.12v.13l.02.12v.13l.02.13v.12l.01.13v.12l.01.13v.25l.01.13v.76l-.01.13v.12l-.01.13v.12l-.02.13v.13l-.02.12v.13l-.02.12-.01.13-.02.12-.01.12-.02.13-.01.12-.02.13-.02.12-.02.12-.02.13-.02.12-.02.12-.03.13-.02.12-.02.12-.03.12-.03.13-.02.12-.03.12-.03.12-.03.12-.03.12-.03.12-.04.12-.03.12-.04.12-.03.12-.04.12-.03.12-.04.12-.04.12-.04.12-.04.12-.04.11-.05.12-.04.12-.04.12-.05.11-.04.12-.05.11-.05.12-.05.12-.05.11-.05.12-.05.11-.05.11-.05.12-.05.11-.06.11-.05.12-.06.11-.05.11-.06.11-.06.12-.06.1-.06.12-.06.1-.06.12-.06.1-.07.12-.06.1-.06.11-.07.11-.07.11-.06.1-.07.12-.07.1-.07.1-.07.11-.07.11-.07.1-.07.1-.08.11-.07.1-.07.11-.08.1-.08.1-.07.1-.08.11-.08.1-.08.1-.08.1-.08.1-.08.1-.08.1-.08.1-.09.1-.08.1-.09.1-.08.09-.09.1-.09.1-.08.09-.1.1-.08.09-.1.1-.08.08-.1.1-.09.09-.04.04-.05.05-.1.1-.09.08-.1.1-.09.09-.1.08v.02l5.52 11.97.11.3.05.32v.32l-.05.3-.1.3-.15.29-.2.24-.23.21-.27.17-.28.12-.3.07-.32.02-.3-.04-.3-.08-.29-.14-.25-.18-.36-.3.1-.11-.26-.21-.02.02-.04-.07-10.76-8.89-.11.04-.14.04-.13.04-.13.04-.14.04-.13.03-.13.04-.14.04-.13.03-.14.04-.13.03-.14.03-.13.04-.14.03-.13.03-.14.03-.13.03-.14.02-.13.03-.14.03-.14.03-.13.02-.14.03-.14.02-.13.02-.14.02-.14.03-.14.02-.14.02-.13.02-.14.02-.14.01-.14.02-.14.02-.14.01-.14.02-.13.01-.14.01-.14.02h-.14l-.14.02-.14.01h-.14l-.14.02h-.14l-.14.01-.14.01h-.14l-.14.01h-.28l-.14.01h-1.12l-.14-.01h-.14l-.13-.01h-.14l-.14-.01-.14-.01-.14-.01-.13-.01-.14-.01-.14-.01-.14-.01-.13-.01-.14-.02-.13-.01-.14-.01-.14-.02-.13-.02-.14-.01-.13-.02-.14-.02-.13-.01-.13-.02-.14-.02-.13-.02-.13-.03-.14-.02-.13-.02-.13-.02-.13-.03-.13-.02-.14-.03-.13-.02-.13-.03-.13-.03-.13-.03-.13-.02-.13-.03-.13-.03-.13-.03-.12-.04-.13-.03-.13-.03-.13-.03-.12-.04-.13-.03-.13-.04-.12-.03-.13-.04-.13-.04-.12-.03-.13-.04-.12-.04-.12-.04-.13-.04-.12-.04-.12-.04-.13-.05-.12-.04-.12-.04-.12-.05-.12-.04-.12-.05-.12-.04-.13-.05-.11-.04-.12-.05-.12-.05-.12-.05-.12-.05-.12-.05-.11-.05-.12-.05-.12-.05-.11-.05-.12-.06-.11-.05-.12-.05-.11-.06-.12-.05-.11-.06-.11-.06-.12-.05-.11-.06-.11-.06-.11-.06-.11-.05-.11-.06-.11-.06-.11-.06-.11-.07-.11-.06-.11-.06-.1-.06-.12-.07-.1-.06-.1-.06-.11-.07-.11-.06-.1-.07-.11-.07-.1-.06-.1-.07-.11-.07-.1-.07-.1-.07-.1-.07-.1-.07-.1-.07-.1-.07-.1-.07-.1-.07-.1-.08-.1-.07-.1-.07-.06-.04-.04-.04-.1-.07-.1-.08-.09-.07-.1-.08-.09-.07-.1-.08-.09-.08-.09-.08-.09-.08-.1-.07-.08-.08-.1-.08-.08-.08-.1-.09-.08-.08-.1-.08-.08-.08-.09-.08-.08-.09-.09-.08-.09-.08-.08-.09-.08-.08-.09-.09-.08-.08-.08-.1-.09-.08-.08-.08-.08-.1-.08-.08-.08-.09-.08-.09-.08-.09-.08-.09-.07-.09-.08-.09-.08-.09-.07-.09-.08-.1-.07-.08-.07-.1-.08-.09-.07-.1-.07-.09-.07-.09-.07-.1-.07-.09-.07-.1-.07-.1-.07-.09-.07-.1-.06-.09-.07-.1-.06-.1-.07-.1-.06-.1-.07-.09-.06-.1-.06-.1-.06-.1-.06-.1-.06-.1-.06-.1-.06-.1-.06-.1-.05-.1-.06-.1-.06-.11-.05-.1-.05-.1-.06-.11-.05-.1-.05-.1-.05-.11-.06-.1-.05-.11-.04-.1-.05-.11-.05-.11-.05-.1-.04-.11-.05-.11-.04-.11-.05-.1-.04-.12-.04-.1-.05-.11-.04-.11-.04-.11-.04-.11-.03-.11-.04-.11-.04-.11-.04-.11-.03-.11-.04-.11-.03-.12-.03-.1-.03-.12-.04-.11-.03-.11-.03-.12-.03-.11-.02-.11-.03-.12-.03-.11-.02-.12-.03-.11-.02-.11-.03-.12-.02-.11-.02-.12-.02-.12-.02-.11-.02-.12-.02-.11-.02-.12-.01-.12-.02-.11-.01-.12-.02-.12-.01-.11-.01-.12-.01-.12-.01-.12-.01-.12-.01-.11-.01-.12v-.12l-.01-.12-.01-.12v-.24l-.01-.12V20l-.01-.12z"/></svg>