<svg viewBox="0 0 360 199" xmlns="http://www.w3.org/2000/svg" fill-rule="evenodd" clip-rule="evenodd" stroke-linejoin="round" stroke-miterlimit="1.41"><path fill="none" d="M.53.87h359.1v197.15H.53z"/><ellipse cx="42.48" cy="184.78" rx="13.9" ry="9.54" fill="#b8b8b8"/><path d="M42.31 176.5h-.33l-.17.02-.17.01-.16.01-.17.02-.16.01-.16.02-.17.01-.16.02-.16.02-.16.03-.16.02-.16.02-.16.03-.15.03-.16.02-.16.03-.15.04-.15.03-.16.03-.15.04-.15.03-.15.04-.15.04-.15.04-.15.04-.14.04-.15.04-.14.04-.14.05-.15.05-.14.04-.14.05-.14.05-.13.05-.14.05-.14.05-.13.06-.13.05-.14.06-.13.06-.13.05-.13.06-.12.06-.13.06-.07.04-.05.02-.13.06-.12.07-.12.06-.12.07-.12.06-.12.07-.11.06-.12.07-.1.07-.12.07-.11.07-.11.07-.1.07-.11.08-.1.07-.11.07-.1.08-.1.07-.1.08-.1.08-.1.07-.09.08-.1.08-.08.08-.1.08-.08.08-.09.08-.08.08-.08.08-.08.08-.08.09-.08.08-.08.08-.07.09-.08.08-.07.08-.07.09-.07.08-.06.09-.07.08-.06.1-.06.08-.06.08-.06.1-.06.08-.05.08-.06.1-.05.08-.05.09-.05.09-.04.08-.05.1-.04.08-.04.09-.04.09-.04.09-.04.09-.03.09-.03.08-.04.1-.03.08-.02.1-.03.08-.02.1-.03.08-.02.1-.02.08-.02.1-.01.08-.02.1-.01.08-.01.1-.01.08v.1l-.02.08v.65l.01.09.01.09.01.09.01.09.02.09.01.09.02.09.02.08.02.1.02.08.02.09.03.08.03.1.02.08.03.08.03.09.04.09.03.08.04.09.03.08.04.09.04.08.05.09.04.08.05.08.04.09.05.08.05.08.05.09.06.08.05.08.06.08.06.08.06.09.06.08.06.08.07.08.06.08.07.08.07.08.07.07.07.08.08.08.07.08.08.07.08.08.08.08.08.07.08.08.09.07.08.07.1.08.08.07.09.07.1.07.09.07.1.07.09.07.09.07.1.07.1.07.1.06.1.07.11.07.11.06.1.07.11.06.11.06.12.06.1.06.12.06.12.06.11.06.12.06.12.05.12.06.12.05.12.06.13.05.12.05.13.05.12.05.13.05.13.05.13.05.13.04.13.05.14.04.13.04.13.05.14.04.14.04.14.03.13.04.14.04.15.03.14.04.14.03.14.03.15.03.14.03.15.03.15.03.14.02.15.03.15.02.15.02.15.02.15.02.15.02.16.02.15.01.15.02.16.01.15.01.16.01.16.01.15.01h.16l.16.01h1.28l.16-.01.16-.01.16-.01.16-.01.15-.01.16-.02.16-.01.15-.02.16-.02.15-.02.15-.02.16-.02.15-.02.15-.02.15-.03.15-.03.15-.02.14-.03.15-.03.15-.03.14-.04.14-.03.15-.03.14-.04.14-.04.14-.03.14-.04.14-.04.13-.04.14-.05.14-.04.13-.04.13-.05.13-.05.14-.04.13-.05.12-.05.13-.05.13-.05.12-.05.13-.06.12-.05.12-.05.12-.06.12-.06.12-.05.11-.06.12-.06.11-.06.12-.06.1-.06.12-.06.1-.07.11-.06.1-.06.11-.07.1-.06.1-.07.1-.06.1-.07.1-.07.1-.07.1-.07.09-.07.1-.07.08-.07.09-.07.09-.07.08-.07.09-.07.08-.07.08-.08.08-.07.08-.07.07-.08.08-.07.07-.08.07-.07.07-.08.07-.07.07-.08.06-.07.07-.08.06-.08.06-.07.06-.08.06-.08.05-.07.06-.08.05-.08.05-.07.05-.08.05-.08.04-.08.05-.07.04-.08.04-.08.04-.07.04-.08.03-.08.04-.08.03-.07.04-.08.03-.08.02-.07.03-.08.03-.08.02-.07.03-.08.02-.08.02-.07.02-.08.01-.08.02-.07.01-.08.02-.08v-.07l.02-.08v-.08l.01-.07v-.08l.01-.08v-.54l-.01-.08v-.07l-.02-.08v-.08l-.02-.07-.01-.08-.02-.07-.01-.08-.02-.07-.02-.08-.02-.07-.02-.08-.03-.07-.02-.08-.03-.07-.02-.08-.03-.07-.03-.07-.03-.08-.04-.07-.03-.08-.04-.07-.03-.08-.04-.07-.04-.07-.03-.06-.02-.02-.04-.07-.04-.08-.05-.07-.05-.08-.04-.07-.06-.07-.05-.08-.05-.07-.06-.08-.05-.07-.06-.07-.06-.08-.06-.07-.07-.07-.06-.08-.07-.07-.06-.07-.07-.07-.07-.08-.08-.07-.06-.06-.08-.08-.08-.07-.08-.07-.07-.08-.08-.07-.09-.07-.08-.07-.08-.07-.03-.02-.06-.05-.08-.07-.1-.07-.08-.07-.1-.07-.08-.07-.1-.07-.1-.07-.02-.02-.07-.05-.1-.07-.09-.07-.1-.07-.1-.07-.1-.07-.1-.07-.1-.06-.12-.07-.1-.07-.11-.06-.11-.07-.12-.06-.1-.07-.1-.05h-.02l-.12-.08-.11-.06-.12-.07-.11-.07-.12-.06-.12-.07-.12-.06-.13-.07-.12-.06-.13-.06-.13-.06-.12-.06-.13-.06-.13-.06-.14-.05-.13-.06-.14-.05-.13-.06-.14-.05-.14-.05-.14-.06-.14-.05-.14-.04-.1-.04-.04-.02-.15-.05-.14-.05-.15-.06-.14-.05-.15-.05-.15-.05-.15-.05-.15-.04-.15-.05-.16-.05-.15-.04-.16-.04-.16-.04-.16-.04-.15-.04-.14-.03-.03-.01-.16-.04-.16-.04-.16-.04-.17-.04-.16-.04-.17-.03-.12-.03-.05-.01h-.17zm.36-2.54l.2-.03.18-.03.2-.02.18-.03.2-.02.19-.03h.03l.16-.01.19-.01.19-.02h.18l.2-.01.18-.01H46.28l.18.01.18.01.19.01h.05l.13.02.19.02.18.03.18.02.18.03.19.03.18.03.18.03.17.03.18.04.18.03.18.04.17.04.18.04.18.04.17.05.17.04.18.05.17.05.17.05.17.05.17.06.17.05.16.06h.03l.14.06.16.07.16.07.16.07.16.07.16.07.16.07.16.08.15.07.16.08.15.08.15.08.15.09.15.08.12.06.03.03.15.09.14.09.14.1.14.09.14.1.14.1.14.09.1.07.03.03.14.1.13.11.13.1.13.12.12.1.13.12.12.1.12.12.01.01.11.1.12.13.11.12.12.12.1.12.12.12.1.13.11.12.1.13.1.13.1.13.1.13.1.13.1.14.1.13.08.14.1.14.08.14.08.14.08.14.08.14.02.04.06.1.07.15.08.15.07.14.06.15.07.15.06.15.06.16.06.15.06.15.05.16.05.16.04.15.05.16.04.16.04.16.04.16.03.17.03.16.03.16.02.17.02.16.02.17.02.16.01.17v.17l.01.17v.67l-.01.17-.01.16-.02.17-.02.16-.02.17-.03.16-.02.17-.03.16-.04.16-.03.16-.04.16-.05.16-.04.16-.05.15-.05.16-.05.15-.06.16-.05.15-.06.15-.07.15-.06.15-.07.15-.07.14-.07.15-.08.14-.07.15-.08.14-.08.14-.09.14-.08.13-.1.14-.08.14-.1.13-.09.13-.1.13-.1.13-.1.13-.1.13-.1.12-.1.13-.1.12-.12.12-.1.12-.12.12-.11.12-.12.11-.12.12-.12.11-.12.11-.12.11-.12.11-.13.1-.13.12-.12.1-.13.1-.14.1-.13.1-.13.1-.14.1-.14.1-.13.1-.14.1-.14.08-.15.1-.14.09-.02.01-.13.07-.14.1-.15.08-.15.08-.15.08-.15.09-.15.08-.16.07-.15.08-.16.08-.16.07-.16.08-.16.07-.16.07-.16.07-.16.06-.17.07-.16.06-.17.07-.16.06-.17.06-.17.06-.17.06-.17.05-.18.06-.17.05-.17.05-.18.05-.17.05-.18.05-.18.04-.17.05-.18.04-.18.04-.19.04-.18.04-.18.03-.18.04-.19.03-.18.03-.19.03-.18.03-.2.03-.18.03-.19.02-.19.02-.19.02-.19.02-.19.02-.2.02-.18.01-.2.01-.2.01-.18.01-.2.01h-.2l-.2.01h-1.03l-.14-.01h-.2l-.2-.02-.2-.01-.19-.01-.2-.02-.18-.02-.2-.01-.19-.02-.2-.03-.18-.02-.2-.02-.18-.03-.19-.03-.18-.03-.2-.03-.18-.03-.18-.03-.19-.04-.18-.04-.18-.03-.18-.04-.18-.04-.18-.05-.18-.04-.18-.05-.18-.05-.17-.04-.18-.05-.17-.06-.17-.05-.18-.05-.17-.06-.17-.06-.17-.06-.16-.06-.17-.06-.16-.06-.17-.06-.16-.07-.17-.07-.16-.06-.16-.07-.15-.07-.16-.08-.16-.07-.15-.07-.16-.08-.15-.08-.15-.08-.15-.08-.15-.08-.15-.08-.15-.08-.14-.09-.14-.08-.15-.1-.14-.08-.14-.09-.14-.1-.13-.08-.14-.1-.13-.1-.14-.09-.13-.1-.13-.1-.13-.1-.12-.1-.13-.1-.12-.1-.12-.1-.12-.1-.12-.12-.12-.1-.12-.11-.11-.11-.11-.11-.11-.12-.11-.11-.1-.12-.11-.11-.1-.12-.11-.12-.1-.12-.1-.12-.1-.12-.09-.12-.1-.12-.08-.13-.1-.13-.08-.12-.08-.13-.09-.13-.08-.13-.08-.13-.07-.13-.08-.14-.07-.13-.07-.14-.07-.13-.06-.14-.07-.14-.06-.14-.06-.14-.05-.14-.06-.14-.05-.14-.05-.14-.05-.15-.04-.14-.04-.15-.04-.15-.04-.14-.03-.15-.04-.15-.03-.15-.02-.15-.03-.15-.02-.15-.01-.15-.02-.16-.01-.15-.01-.15-.01-.16v-.77l.02-.15.01-.15.02-.15.01-.16.03-.15.02-.15.03-.15.02-.15.04-.14.03-.15.04-.15.04-.14.04-.15.04-.14.05-.14.05-.14.05-.15.06-.13.05-.14.06-.14.06-.14.07-.13.06-.14.07-.13.07-.13.07-.14.08-.13.07-.12.08-.13.08-.13.08-.12.09-.13.08-.12.09-.12.09-.13.1-.12.09-.11.1-.12.09-.12.1-.11.1-.12.1-.1.1-.12.11-.11.1-.11.12-.1.1-.11.12-.11.12-.1.11-.1.12-.1.12-.1.12-.1.12-.1.12-.1.13-.1.12-.1.13-.09.13-.09.13-.09.13-.09.13-.09.14-.08.13-.09.14-.08.14-.09.14-.08.14-.08.14-.08.14-.08.15-.07.14-.08.15-.07.15-.08.15-.07.15-.07.15-.07.15-.07.06-.02.1-.04.15-.07.16-.06.15-.06.16-.06.16-.06.16-.06.16-.06.16-.05.17-.06.16-.05.17-.05.16-.05.17-.05.17-.05.17-.04.17-.05.17-.04.17-.04.17-.04.17-.04.18-.04.17-.03.18-.04.17-.03.18-.03.18-.03.18-.03.18-.02.18-.03.18-.02.18-.03.18-.02.18-.02.18-.01.19-.02.18-.01.19-.02h.18l.19-.02h.38l.18-.01H42.5l.06-.02.12-.02z"/><ellipse cx="75.44" cy="184.87" rx="13.9" ry="9.54" fill="#b8b8b8"/><path d="M75.27 176.58h-.17l-.16.01-.17.01-.17.01-.16.01-.17.02-.16.01-.17.02-.16.02-.16.02-.16.02-.16.02-.16.02-.16.03-.16.02-.15.03-.16.03-.16.03-.15.03-.16.03-.15.03-.15.04-.15.03-.15.04-.15.04-.15.04-.15.04-.14.04-.15.04-.14.05-.14.04-.15.05-.14.05-.14.04-.14.05-.13.05-.14.06-.14.05-.13.05-.13.06-.14.05-.13.06-.13.06-.13.05-.12.06-.13.06-.07.04-.05.03-.13.06-.12.06-.12.06-.12.07-.12.06-.12.07-.11.07-.12.07-.1.06-.12.07-.11.07-.11.08-.1.07-.11.07-.1.07-.11.08-.1.07-.1.08-.1.07-.1.08-.1.08-.09.07-.1.08-.08.08-.1.08-.08.08-.09.08-.08.08-.08.08-.08.09-.08.08-.08.08-.08.08-.07.09-.08.08-.07.09-.07.08-.07.09-.06.08-.07.09-.06.08-.06.1-.06.08-.06.08-.06.1-.05.08-.06.09-.05.08-.05.1-.05.08-.04.09-.05.09-.04.08-.04.1-.04.08-.04.1-.04.08-.03.09-.03.09-.03.09-.03.09-.03.09-.03.08-.02.1-.03.08-.02.1-.02.08-.02.1-.01.08-.02.1-.01.08-.01.1-.01.09v.09l-.01.09-.01.09V185.05l.01.09.01.1.01.08.02.1v.08l.02.09.02.09.02.09.02.08.02.1.03.08.02.09.03.08.02.09.03.09.04.08.03.09.03.08.04.09.04.09.03.08.05.08.04.09.04.08.05.09.04.08.05.08.05.09.05.08.06.08.05.08.06.09.06.08.06.08.06.08.06.08.07.08.06.08.07.08.07.08.07.08.07.07.08.08.07.08.08.08.08.07.08.08.08.07.08.08.09.07.08.08.1.07.08.07.09.07.1.08.09.07.1.07.09.07.09.06.1.07.1.07.1.07.1.06.11.07.11.06.1.07.11.06.11.06.12.07.1.06.12.06.12.05.11.06.12.06.12.06.12.05.12.06.12.05.13.05.12.06.13.05.12.05.13.05.13.04.13.05.13.05.13.04.14.04.13.05.13.04.14.04.14.04.14.04.13.04.14.03.15.04.14.03.14.03.14.04.15.03.14.02.15.03.15.03.14.03.15.02.15.02.15.03.15.02.15.02.15.01.16.02.15.02.16.01.15.01.15.02h.16l.16.02h.15l.16.01h.32l.16.01h.8l.16-.01.16-.01h.16l.16-.02h.16l.16-.02.15-.01.16-.02.15-.02.16-.01.15-.02.16-.02.15-.02.15-.03.15-.02.15-.03.15-.02.15-.03.14-.03.15-.03.15-.03.14-.03.15-.04.14-.03.14-.04.14-.03.14-.04.14-.04.14-.04.14-.04.13-.04.14-.05.13-.04.13-.05.14-.04.13-.05.13-.05.12-.05.13-.05.13-.05.12-.05.13-.05.12-.06.12-.05.12-.06.12-.05.12-.06.11-.06.12-.06.11-.06.12-.06.1-.06.12-.06.1-.06.11-.07.1-.06.11-.07.1-.06.1-.07.1-.05v-.01l.1-.07.1-.07.1-.07.1-.06.09-.07.1-.07.08-.07.09-.07.09-.08.08-.07.09-.07.08-.07.08-.07.08-.08.08-.07.08-.08.07-.07.07-.07.08-.08.07-.07.06-.08.07-.08.07-.07.06-.08.06-.07.06-.08.06-.08.06-.07.05-.08.06-.08.05-.07.05-.08.05-.08.05-.08.04-.07.05-.08.04-.08.04-.07.04-.08.04-.08.04-.08.03-.07.03-.08.04-.08.03-.07.03-.08.02-.08.03-.07.02-.08.03-.08.02-.07.02-.08.02-.08.01-.07.02-.08.01-.08.02-.07v-.08l.02-.08v-.07l.01-.08v-.08l.01-.07v-.55l-.01-.07v-.08l-.02-.08v-.07l-.02-.08-.01-.07-.02-.08-.01-.07-.02-.08-.02-.07-.02-.08-.02-.07-.02-.08-.03-.07-.02-.08-.03-.07-.03-.08-.03-.07-.03-.08-.04-.07-.03-.07-.04-.08-.03-.07-.04-.08-.04-.07-.03-.06-.01-.02-.05-.07-.04-.07-.05-.08-.04-.07-.05-.08-.05-.07-.06-.08-.05-.07-.06-.07-.05-.08-.06-.07-.06-.07-.06-.08-.06-.07-.07-.07-.06-.08-.07-.07-.07-.07-.07-.07-.07-.07-.07-.07-.08-.08-.08-.07-.07-.07-.08-.07-.08-.07-.09-.07-.08-.08-.08-.07-.03-.02-.06-.05-.08-.07-.1-.07-.08-.07-.1-.07-.08-.07-.1-.07-.1-.07-.01-.01-.08-.06-.1-.07-.09-.07-.1-.07-.1-.07-.1-.07-.1-.06-.1-.07-.11-.07-.11-.06-.11-.07-.11-.06-.11-.07-.12-.06-.1-.06h-.01l-.11-.07-.12-.07-.12-.07-.11-.07-.12-.06-.12-.07-.12-.06-.13-.06-.12-.06-.13-.07-.12-.06-.13-.06-.13-.06-.13-.05-.14-.06-.13-.06-.13-.05-.14-.06-.14-.05-.14-.05-.14-.05-.14-.05-.14-.05-.1-.04-.04-.01-.14-.06-.15-.05-.14-.05-.15-.06-.15-.05-.15-.05-.15-.04-.15-.05-.15-.05-.16-.04-.15-.05-.16-.04-.16-.04-.15-.04-.16-.04-.14-.03h-.02l-.17-.05-.16-.04-.16-.04-.17-.04-.16-.04-.17-.03-.12-.02-.05-.02h-.17zm.36-2.53l.2-.03.18-.03.2-.03.18-.03.2-.02.19-.02h.03l.16-.02.19-.01.19-.01.19-.01.18-.01h.2l.18-.01h1.14l.18.02h.18l.19.02h.05l.13.01.19.03.18.02.18.02.19.03.18.03.18.03.18.03.18.03.17.04.18.03.18.04.18.04.17.04.18.05.17.04.17.05.18.04.17.05.17.05.17.06.17.05.17.05.17.06.02.01.14.06.16.06.17.07.16.07.16.07.15.07.16.08.16.07.15.08.16.08.15.08.15.08.16.08.14.08.12.07.03.02.15.1.14.08.14.1.15.1.14.09.13.1.14.1.1.06.04.03.13.1.13.11.13.11.13.1.12.12.13.11.12.11.12.12h.01l.11.11.12.12.11.12.12.12.1.12.12.13.1.12.11.13.1.12.1.13.1.13.1.13.1.14.1.13.1.13.08.14.1.14.08.14.08.14.08.14.08.14.02.04.06.1.08.15.07.15.07.15.07.15.06.15.06.15.06.15.06.15.06.16.05.15.05.16.05.16.04.16.04.16.04.16.04.16.03.16.03.16.03.17.02.16.02.17.02.16.02.17.01.16v.17l.02.17v.5l-.01.17-.01.17-.01.17-.02.16-.02.17-.02.16-.02.17-.03.16-.03.16-.04.16-.03.16-.04.16-.04.16-.05.16-.05.16-.05.15-.05.16-.05.15-.06.15-.06.15-.07.15-.06.15-.07.15-.07.15-.07.14-.08.15-.07.14-.08.14-.08.14-.09.14-.08.14-.1.13-.08.14-.1.13-.09.13-.1.13-.1.13-.1.13-.1.13-.1.12-.1.13-.1.12-.12.12-.1.12-.12.12-.11.12-.12.11-.12.12-.12.11-.12.11-.12.11-.12.11-.13.11-.13.1-.12.11-.13.1-.13.11-.14.1-.13.1-.14.1-.13.1-.14.1-.14.09-.14.09-.15.09-.14.09-.02.01-.13.08-.14.08-.15.1-.15.07-.15.09-.15.08-.15.08-.16.08-.15.07-.16.08-.16.08-.16.07-.16.07-.16.07-.16.07-.16.07-.16.06-.17.07-.17.06-.16.06-.17.06-.17.06-.17.06-.17.05-.17.06-.18.05-.17.05-.18.05-.17.05-.18.05-.18.05-.17.04-.18.04-.18.04-.19.04-.18.04-.18.04-.18.03-.19.04-.18.03-.19.03-.18.03-.2.02-.18.03-.19.02-.19.02-.19.03-.19.01-.19.02-.2.02-.18.01-.2.01-.2.02h-.18l-.2.01h-.2l-.2.01h-1.17l-.2-.02h-.2l-.2-.02-.19-.01-.2-.02-.18-.01-.2-.02-.19-.02-.2-.02-.18-.02-.2-.03-.18-.03-.19-.02-.18-.03-.2-.03-.18-.04-.18-.03-.19-.04-.18-.03-.18-.04-.18-.04-.18-.04-.18-.04-.18-.05-.18-.04-.18-.05-.17-.05-.18-.05-.17-.05-.17-.06-.18-.05-.17-.06-.17-.05-.17-.06-.16-.06-.17-.06-.16-.07-.17-.06-.16-.07-.16-.06-.17-.07-.16-.07-.15-.07-.16-.07-.16-.08-.15-.07-.16-.08-.15-.07-.15-.08-.15-.08-.15-.08-.15-.09-.15-.08-.14-.09-.14-.08-.15-.09-.14-.09-.14-.09-.14-.09-.13-.09-.14-.1-.13-.09-.14-.1-.13-.1-.13-.09-.13-.1-.12-.1-.13-.1-.12-.1-.12-.11-.12-.1-.12-.11-.12-.11-.12-.11-.11-.11-.11-.11-.11-.11-.11-.12-.1-.11-.11-.12-.1-.12-.11-.11-.1-.12-.1-.12-.1-.13-.09-.12-.1-.12-.08-.13-.1-.12-.08-.13-.08-.13-.09-.13-.08-.13-.08-.13-.07-.13-.08-.13-.07-.14-.07-.13-.07-.14-.06-.14-.07-.13-.06-.14-.06-.14-.05-.14-.06-.15-.05-.14-.05-.14-.05-.15-.04-.14-.04-.15-.04-.14-.04-.15-.03-.15-.04-.15-.03-.15-.02-.15-.03-.15-.02-.15-.01-.15-.02-.15-.01-.16-.01-.15-.01-.15v-.77l.02-.16.01-.15.02-.15.01-.15.03-.15.02-.15.03-.15.02-.15.04-.15.03-.15.04-.14.04-.15.04-.14.04-.15.05-.14.05-.14.05-.14.06-.14.05-.14.06-.14.06-.13.07-.14.06-.14.07-.13.07-.13.07-.13.08-.13.07-.13.08-.13.08-.13.08-.12.09-.13.08-.12.09-.12.09-.12.1-.12.09-.12.1-.12.09-.11.1-.12.1-.11.1-.12.1-.1.11-.12.1-.1.12-.11.1-.11.12-.1.12-.11.11-.1.12-.1.12-.1.12-.1.12-.1.12-.1.13-.1.12-.1.13-.08.13-.1.13-.09.13-.09.13-.08.14-.1.13-.08.14-.08.14-.08.14-.09.14-.08.14-.08.14-.08.15-.07.14-.08.15-.07.15-.07.15-.08.15-.07.15-.07.15-.06.06-.03.1-.04.15-.06.16-.07.15-.06.16-.06.16-.06.16-.06.16-.06.16-.05.17-.06.16-.05.17-.05.16-.05.17-.05.17-.04.17-.05.17-.04.17-.05.17-.04.17-.04.17-.04.18-.03.17-.04.18-.03.17-.04.18-.03.18-.03.18-.03.18-.02.18-.03.18-.02.18-.02.18-.02.18-.02.18-.02.19-.01.18-.02.19-.01.18-.01.19-.01.19-.01h.19l.18-.01H75.45l.06-.01.12-.02z"/><path d="M103.55 183.38c12.29-16.22 21.14-37.65 24.93-60.37 3.6-21.5 2.45-42.85-3.25-60.55l-100.9 1.16c-7.74 13.9-13.29 30.03-16.08 46.75-4.61 27.58-1.38 54.6 8.86 74l86.44-.99z" fill="#c2c2c2"/><path d="M125.73 59.13l.52.12.5.2.45.28.41.34.35.41.28.46.2.5.14.42.14.43.14.43.13.43.13.44.13.43.13.44.13.44.12.44.13.44.12.44.12.44.12.45.11.44.12.45.11.45.11.45.11.45.1.45.11.45.1.46.11.45.1.46.1.45.1.46.1.46.09.46.09.46.09.46.09.47.08.46.09.47.08.46.08.47.08.47.08.47.08.47.07.47.04.22.03.25.08.47.06.48.07.47.07.48.06.47.06.48.06.48.06.48.06.48.05.48.05.48.05.48.05.48.05.49.05.48.04.49.05.48.04.5.03.48.04.49.04.49.03.49.03.49.03.49.03.49.03.5.02.49.03.49.02.5.02.49.02.5.01.5.02.49.01.5.01.5.01.5.01.5v.5l.01.5V100.58l-.01.5-.01.5-.01.5-.02.51v.5l-.03.51-.01.51-.02.5-.02.51-.03.51-.02.51-.03.5-.03.52-.03.5-.03.52-.03.5-.04.52-.03.5-.04.52-.04.5-.04.52-.05.51-.04.51-.05.52-.05.5-.05.52-.05.51-.06.52-.05.51-.06.51-.06.52-.01.06-.06.45-.06.52-.07.51-.07.51-.07.52-.07.51-.07.52-.08.51-.08.52-.08.51-.08.52-.08.51-.09.52-.04.26-.04.25-.1.55-.1.54-.1.54-.1.54-.1.55-.1.54-.12.54-.1.54-.12.54-.11.54-.11.53-.11.51-.01.03-.12.54-.13.53-.12.54-.13.53-.13.53-.13.54-.13.53-.14.53-.13.53-.14.53-.14.53-.14.53-.15.52-.14.53-.15.52-.15.53-.15.52-.15.53-.15.52-.16.52-.16.52-.15.52-.16.52-.17.51v.03l-.17.49-.17.51-.17.52-.18.5-.17.52-.18.51-.18.5-.18.52-.18.5-.19.5-.18.51-.2.5-.18.51-.2.5-.18.5-.2.5-.2.5-.2.5-.2.5-.2.48-.2.5-.2.5-.2.48-.21.5-.2.48-.22.49-.21.48-.21.49-.22.48-.22.48-.21.48-.22.48-.22.48-.23.48-.22.47-.23.48-.22.47-.23.47-.23.47-.23.47-.24.47-.23.46-.24.47-.13.25-.1.21-.25.46-.25.46-.24.45-.25.46-.25.45-.25.45-.26.45-.25.45-.26.45-.25.44-.26.45-.26.44-.26.44-.26.44-.27.44-.26.43-.27.44-.27.43-.27.43-.27.43-.27.42-.27.43-.28.42-.27.43-.28.42-.28.42-.28.41-.28.42-.28.41-.29.41-.28.41-.29.41-.1.15-.19.25-.29.4-.3.4-.29.4-.3.4-.3.4-.29.39-.3.39-.3.39-.3.38-.3.39-.3.38-.31.38-.31.38-.3.38-.09.09-.23.28-1.4-1.06 1.4 1.06-.17.2-.2.17-.24.14-.24.1-.26.06-.27.03-1.8.03-46.39.8-38.25.64-.35-.02-.34-.08-.33-.13-.3-.18-.27-.22-.23-.26-.2-.3-.12-.23-.12-.24-.12-.23-.12-.24-.13-.24-.12-.23-.12-.24-.12-.24-.12-.24-.12-.24-.11-.24-.12-.24-.12-.24-.11-.25-.12-.24-.11-.24-.12-.25-.1-.24-.12-.25-.11-.25-.11-.24-.12-.25-.1-.25-.11-.25-.11-.25-.1-.25-.12-.25-.1-.25-.1-.25-.11-.26-.1-.25-.11-.26-.1-.25-.1-.26-.1-.25-.11-.26-.1-.26-.1-.25-.1-.26-.1-.26-.1-.26-.1-.26-.09-.26-.1-.26-.09-.26-.1-.27-.09-.26-.09-.26-.1-.27-.08-.26-.1-.27-.08-.26-.1-.27-.08-.27-.09-.27-.09-.26-.08-.27-.09-.27-.09-.27-.08-.27-.08-.27-.09-.27-.08-.28-.08-.27-.08-.27-.08-.28-.08-.27-.08-.27-.08-.28-.08-.27-.08-.28-.07-.28-.08-.27-.08-.28-.07-.28-.07-.28-.08-.28-.07-.28-.07-.28-.07-.28-.07-.28-.07-.28-.07-.28-.07-.29-.07-.28-.06-.28-.07-.29-.07-.28-.06-.29-.07-.28-.06-.29-.06-.29-.13-.57-.12-.57-.12-.58-.11-.58-.11-.58-.11-.59-.11-.58-.1-.59-.1-.59-.1-.59-.1-.59-.1-.59-.09-.6-.09-.6-.08-.59-.08-.6-.08-.6-.08-.6-.07-.6-.08-.61-.06-.6-.07-.62-.06-.6-.06-.62-.06-.61-.06-.62-.05-.61-.05-.62-.04-.61-.05-.62-.04-.62-.04-.63-.03-.62-.03-.62-.03-.63-.03-.62-.02-.63-.02-.63-.02-.63-.02-.63-.01-.63-.01-.64v-.63l-.01-.63V132.05l.02-.64.01-.64.02-.64.01-.65.03-.64.02-.64.03-.65.03-.64.03-.65.04-.65.03-.64.04-.65.05-.65.05-.65.05-.65.05-.65.05-.65.06-.65.06-.66.07-.65.07-.65.07-.66.07-.65.07-.66.04-.26.04-.4.08-.65.09-.65.09-.66.09-.66.1-.65.09-.66.1-.66.1-.66.1-.65.07-.4.07-.4.06-.4.07-.4.07-.4.07-.4.07-.4.07-.39.08-.4.07-.4.08-.39.07-.4.08-.4.08-.39.08-.4.08-.39.08-.4.08-.39.09-.4.08-.39.08-.4.1-.38.08-.4.09-.39.09-.4.09-.38.09-.4.09-.39.1-.39.09-.39.1-.39.09-.39.1-.39.1-.39.1-.39.1-.39.1-.39.1-.38.1-.39.1-.39.1-.38.11-.39.11-.39.11-.38.1-.39.12-.38.1-.39.12-.38.11-.38.12-.39.11-.38.12-.38.11-.38.12-.38.12-.38.12-.38.12-.38.12-.38.12-.38.12-.38.13-.38.12-.37.13-.38.13-.38.12-.37.13-.38.13-.37.13-.38.13-.37.14-.37.13-.38.13-.37.14-.37.13-.37.14-.37.14-.37.14-.37.14-.37.14-.37.14-.37.14-.36.14-.37.15-.37.14-.36.15-.37.15-.36.14-.36.15-.37.15-.36.15-.36.16-.36.15-.36.15-.36.15-.36.16-.36.16-.36.15-.35.16-.36.16-.36.16-.35.16-.36.16-.35.16-.35.16-.36.17-.35.16-.35.17-.35.16-.35.17-.35.17-.35.17-.34.17-.35.17-.35.17-.34.17-.35.18-.34.17-.34.17-.35.18-.34.18-.34.18-.34.17-.34.18-.34.18-.33.18-.34.19-.34.18-.33.18-.33.24-.37.3-.33.33-.28.38-.23.4-.17.44-.1.43-.04 4.98-.08 62.86-1 33.06-.5.54.03zm-34.6 6.96l-60.05.4v-.02l-5.02.05-.06.12-.17.32-.18.32-.17.32-.17.33-.17.32-.18.33-.17.33-.16.32-.17.33-.17.33-.17.33-.16.33-.17.33-.16.33-.17.34-.16.33-.16.33-.16.34-.16.33-.16.34-.16.34-.16.33-.16.34-.15.34-.16.34-.15.34-.16.34-.15.34-.15.35-.15.34-.16.34-.15.35-.14.34-.15.35-.15.35-.15.34-.14.35-.15.35-.14.35-.14.35-.15.35-.14.35-.14.35-.14.35-.14.36-.13.35-.14.35-.14.36-.13.35-.14.36-.13.35-.13.36-.14.36-.13.36-.13.35-.13.36-.12.36-.13.36-.13.36-.12.36-.13.37-.12.36-.13.36-.12.36-.12.37-.12.36-.12.37-.12.36-.12.37-.11.36-.12.37-.12.37-.11.36-.11.37-.12.37-.1.37-.12.37-.1.37-.12.37-.1.37-.11.37-.1.37-.11.37-.1.38-.1.37-.11.37-.1.37-.1.38-.1.37-.1.38-.1.37-.1.38-.1.37-.09.38-.09.38-.1.37-.08.38-.1.38-.09.38-.09.37-.08.38-.1.38-.08.38-.08.38-.09.38-.08.38-.08.38-.08.38-.08.38-.08.38-.08.39-.08.38-.08.38-.07.38-.08.38-.07.39-.07.38-.08.38-.07.39-.07.38-.07.39-.06.38-.07.38-.1.64-.11.63-.1.64-.1.63-.1.64-.1.63-.09.63-.09.63-.08.64-.05.37-.03.26-.08.63-.08.63-.08.63-.07.63-.07.63-.06.63-.07.63-.06.63-.06.63-.05.62-.05.63-.05.63-.05.62-.04.63-.05.62-.03.62-.04.63-.03.62-.03.62-.03.62-.02.62-.03.62-.02.62-.01.61-.02.62v.61l-.01.62-.01.61v2.44l.01.61.01.61.02.6.01.61.02.6.03.6.02.6.03.6.03.6.03.6.04.6.03.6.04.6.05.58.04.6.05.59.05.58.06.6.05.58.06.58.07.58.06.59.07.58.07.57.07.58.08.58.08.57.08.57.08.57.09.57.08.57.1.56.09.57.1.56.1.56.1.56.1.55.1.56.12.55.11.55.06.28.06.27.06.28.05.27.06.27.06.27.07.28.06.27.06.27.06.27.07.27.06.27.07.27.06.27.07.26.06.27.07.27.07.27.07.26.07.27.07.26.07.27.07.26.07.26.08.27.07.26.07.26.08.26.07.26.08.26.08.26.07.26.08.26.08.26.08.25.08.26.08.26.08.25.08.26.08.25.09.26.08.25.08.25.09.25.08.26.09.25.09.25.08.25.1.25.08.25.09.24.09.25.1.25.08.24.1.25.09.25.09.24.1.24.09.25.1.24.09.24.1.24.1.24.09.24.1.24.1.24.1.24.1.24.1.24.1.23.1.24.1.23.1.24.1.23.11.23.1.24.11.23.1.23.12.23.1.23.11.23.1.23.12.22.1.23.12.23.1.22.08.15 38.02-.24 45.26-.25h.85l.06-.1.27-.38.26-.4.26-.4.26-.39.25-.4.26-.4.25-.4.26-.4.25-.4.25-.41.25-.41.25-.41.24-.41.16-.26.09-.15.25-.42.24-.41.25-.42.24-.41.24-.42.24-.42.24-.42.23-.43.24-.42.23-.43.24-.43.23-.43.23-.43.22-.43.23-.43.23-.44.22-.44.22-.44.22-.44.22-.44.22-.44.22-.44.21-.45.22-.45.21-.44.21-.45.21-.45.2-.46.21-.45.2-.45.21-.46.2-.46.1-.2.1-.25.21-.46.2-.46.2-.46.2-.46.2-.46.2-.47.2-.46.19-.47.19-.46.19-.47.19-.47.18-.47.19-.47.18-.48.19-.47.18-.48.18-.47.17-.48.18-.48.18-.48.17-.48.17-.48.17-.48.17-.49.17-.48.16-.49.16-.48.17-.49.16-.49.16-.49.15-.49.16-.49.15-.5.15-.49.16-.49.14-.5.15-.49.15-.5.14-.5.14-.5.14-.5.14-.5.13-.47.01-.02.14-.5.14-.5.14-.5.14-.5.13-.51.13-.5.13-.5.13-.51.13-.51.13-.5.12-.51.12-.51.12-.51.12-.51.12-.51.12-.51.11-.51.11-.52.11-.5.11-.52.1-.52.11-.51.1-.52.1-.51.01-.03.1-.49.1-.51.1-.52.1-.52.1-.51.1-.52.09-.52.09-.52.09-.52.08-.52.09-.52.08-.52.04-.24.04-.25.08-.5.08-.49.07-.5.07-.48.08-.5.07-.49.06-.49.07-.5.07-.48.06-.5.06-.49.06-.49.05-.42v-.07l.07-.49.05-.49.06-.49.05-.49.05-.48.05-.5.05-.48.05-.5.04-.48.05-.49.04-.49.04-.48.03-.49.04-.49.04-.48.03-.49.03-.48.03-.49.03-.48.03-.49.02-.48.02-.49.02-.48.02-.48.02-.49.02-.48.01-.48.02-.48v-.48l.02-.48v-.48l.01-.48v-.95l.01-.48v-1.9l-.01-.48-.01-.47-.01-.48-.01-.47-.02-.47-.01-.47-.02-.47-.01-.47-.02-.47-.03-.47-.02-.47-.02-.46-.03-.47-.03-.47-.03-.46-.03-.46-.03-.47-.04-.46-.03-.46-.04-.46-.04-.46-.04-.46-.04-.46-.05-.46-.04-.45-.05-.46-.05-.46-.05-.45-.06-.45-.05-.46-.06-.45-.05-.45-.06-.45-.06-.45-.07-.44-.06-.45-.03-.23-.04-.22-.06-.44-.07-.44-.07-.45-.07-.44-.08-.44-.07-.44-.08-.44-.08-.44-.08-.43-.08-.44-.08-.43-.08-.44-.1-.43-.08-.43-.09-.43-.09-.43-.1-.43-.09-.42-.1-.43-.09-.42-.1-.42-.1-.43-.1-.42-.1-.42-.11-.41-.11-.42-.1-.42-.12-.41-.11-.41-.11-.42-.12-.4-.12-.42-.02-.07-31.6.25z"/><path d="M45.49 62.86s.5 10.6-8.17 24.19C15.7 120.94 9.35 106.32 9.35 106.32c-3.68 14.3-7.85 44.98 7.42 78.4 27.3 3.27 57.36 2.91 86.74-.86 16.36-23.78 22.88-48.47 25.38-74.39-16.86-5.2-29.25-15.52-32.42-46.04-3.17-.26-2.91-.33-7.63-1.05l1.5 24.71a296.92 296.92 0 00-37.4.6s-.4-23.27 1.74-25.14c2.15-1.86-9.2.3-9.2.3z" fill="#008fd7"/><clipPath id="a"><path d="M45.49 62.86s.5 10.6-8.17 24.19C15.7 120.94 9.35 106.32 9.35 106.32c-3.68 14.3-7.85 44.98 7.42 78.4 27.3 3.27 57.36 2.91 86.74-.86 16.36-23.78 22.88-48.47 25.38-74.39-16.86-5.2-29.25-15.52-32.42-46.04-3.17-.26-2.91-.33-7.63-1.05l1.5 24.71a296.92 296.92 0 00-37.4.6s-.4-23.27 1.74-25.14c2.15-1.86-9.2.3-9.2.3z"/></clipPath><g clip-path="url(#a)"><path d="M44.34 88.26a355.44 355.44 0 0153.7-.66c.68 17.89-.73 34.37-4.3 49.42a308.09 308.09 0 01-56.68 1.53c.82-17.92 3.12-34.72 7.28-50.3z" fill="#008fd7"/><clipPath id="b"><path d="M44.34 88.26a355.44 355.44 0 0153.7-.66c.68 17.89-.73 34.37-4.3 49.42a308.09 308.09 0 01-56.68 1.53c.82-17.92 3.12-34.72 7.28-50.3z"/></clipPath><g clip-path="url(#b)" fill="#fff" fill-rule="nonzero" stroke="#fff" stroke-width="2.5"><path d="M56.04 106.28l7.02-.28c.93-.03 1.77.04 2.53.21.76.18 1.4.44 1.92.8a3.11 3.11 0 011.48 3.02c-.04.48-.12.91-.25 1.29s-.34.74-.61 1.07c-.27.33-.63.64-1.06.94-.43.3-.98.61-1.62.93v.06a5.5 5.5 0 011.63.43c.48.22.88.5 1.2.85.32.35.56.76.71 1.24.15.48.2 1.01.15 1.59a4.5 4.5 0 01-.6 1.86c-.33.59-.78 1.1-1.35 1.55-.57.44-1.24.8-2.01 1.08-.77.27-1.62.43-2.55.46l-8.14.32 1.55-17.42zm2.23 7.73l3.74-.15a4.86 4.86 0 001.58-.3c.48-.2.88-.44 1.22-.74.35-.31.62-.67.81-1.08.2-.42.32-.86.36-1.33.05-.51 0-.97-.16-1.38-.16-.4-.42-.75-.8-1.03a3.86 3.86 0 00-1.5-.63 9 9 0 00-2.23-.15l-2.42.1-.6 6.69zm-.74 8.3l3.17-.12c.85-.04 1.6-.14 2.24-.33a5.33 5.33 0 001.61-.75 3.34 3.34 0 001.42-2.45c.05-.56 0-1.06-.13-1.53a2.49 2.49 0 00-.75-1.2 3.7 3.7 0 00-1.49-.76 7.7 7.7 0 00-2.35-.2l-3.07.12-.65 7.22zM85.1 105.14l-.1 1.13-8.5.33-.56 6.23 6.16-.24-.1 1.13-6.16.24-.8 8.94-2.93.11 1.55-17.42 11.44-.45z"/></g><path d="M44.34 88.26a355.44 355.44 0 0153.7-.66c.68 17.89-.73 34.37-4.3 49.42a308.09 308.09 0 01-56.68 1.53c.82-17.92 3.12-34.72 7.28-50.3z" fill="none" stroke="#000" stroke-width="2.5" stroke-linecap="round" stroke-miterlimit="1.5"/><path d="M51.34 93.36c1.03-.14 1.99.6 2.14 1.66a1.9 1.9 0 01-1.6 2.18 1.92 1.92 0 01-2.13-1.66 1.9 1.9 0 011.6-2.18zM91.36 91.75c1.03-.15 1.98.6 2.13 1.66a1.9 1.9 0 01-1.59 2.18 1.92 1.92 0 01-2.13-1.66 1.9 1.9 0 011.59-2.18z" fill="#ffc800" stroke="#000" stroke-width="2.5" stroke-linecap="round" stroke-miterlimit="1.5"/></g><path d="M45.49 62.86s.5 10.6-8.17 24.19C15.7 120.94 9.35 106.32 9.35 106.32c-3.68 14.3-7.85 44.98 7.42 78.4 27.3 3.27 57.36 2.91 86.74-.86 16.36-23.78 22.88-48.47 25.38-74.39-16.86-5.2-29.25-15.52-32.42-46.04-3.17-.26-2.91-.33-7.63-1.05l1.5 24.71a296.92 296.92 0 00-37.4.6s-.4-23.27 1.74-25.14c2.15-1.86-9.2.3-9.2.3z" fill="none" stroke="#000" stroke-width="2.5" stroke-linecap="round" stroke-miterlimit="1.5"/><path d="M125.5 62c.31-1.6.53-3.22.65-4.85 1.89-25.3-19.21-48.34-47.09-51.45C51.2 2.6 27.03 20.62 25.14 45.91a43.07 43.07 0 002.28 17.24L125.5 62z" fill="#c2c2c2"/><clipPath id="c"><path d="M125.5 62c.31-1.6.53-3.22.65-4.85 1.89-25.3-19.21-48.34-47.09-51.45C51.2 2.6 27.03 20.62 25.14 45.91a43.07 43.07 0 002.28 17.24L125.5 62z"/></clipPath><g clip-path="url(#c)"><path d="M57.67 43.76c-.77.58-1.2 1.2-1.27 1.83-.37 3.37 9.25 6.42 21.47 6.82 12.21.4 22.43-2 22.8-5.37.08-.77-.37-1.55-1.32-2.3l-41.68-.98z" fill="#191919"/><clipPath id="d"><path d="M57.67 43.76c-.77.58-1.2 1.2-1.27 1.83-.37 3.37 9.25 6.42 21.47 6.82 12.21.4 22.43-2 22.8-5.37.08-.77-.37-1.55-1.32-2.3l-41.68-.98z"/></clipPath><g clip-path="url(#d)"><path d="M64.52 45.99c.02 2.08 6.04 3.94 13.6 4.19 7.72.25 14.2-1.28 14.42-3.4l.01-.14L64.52 46z" fill="#fff"/></g><path d="M70.12 34.45c-.2-5.54-3.9-10.16-8.57-10.68-4.98-.56-9.24 3.77-9.5 9.66-.02.33-.02.66 0 1l18.07.02z" fill="#191919"/><clipPath id="e"><path d="M70.12 34.45c-.2-5.54-3.9-10.16-8.57-10.68-4.98-.56-9.24 3.77-9.5 9.66-.02.33-.02.66 0 1l18.07.02z"/></clipPath><g clip-path="url(#e)"><path d="M60.2 32.5c.3-2.71.14-4.81-.38-4.87-.57-.07-1.35 2.26-1.75 5.18l-.06.54 2.19-.86z" fill="#fff"/></g><path d="M99.64 35.36c-.18-5.23-3.7-9.6-8.1-10.1-4.72-.52-8.74 3.57-8.99 9.14v.93l17.09.03z" fill="#191919"/><clipPath id="f"><path d="M99.64 35.36c-.18-5.23-3.7-9.6-8.1-10.1-4.72-.52-8.74 3.57-8.99 9.14v.93l17.09.03z"/></clipPath><g clip-path="url(#f)"><path d="M89.98 33.49c.3-2.7.05-4.82-.57-4.89-.67-.07-1.54 2.24-1.93 5.16l-.07.55 2.57-.82z" fill="#fff"/></g></g><path d="M73.6 2.04h.69l.34.02h.34l.34.02h.34l.34.02.35.02.34.02.34.02.35.03.34.02.34.03.35.03.34.03.35.03.34.04.35.03.35.04.34.05.34.04.35.04.34.05.34.05.34.05.34.05.34.06.34.05.34.06.34.06.34.07.33.06.34.06.33.07.34.07.33.07.33.08.33.07.34.08.33.08.33.08.32.08.33.08.33.09.33.09.32.08.33.1.32.09.32.1.33.09.32.1.32.1.32.1.32.1.32.1.31.11.32.1.32.12.31.1.3.12h.01l.32.12.3.11.32.12.31.12.3.13.32.12.3.12.31.13.3.13.31.13.3.13.3.13.3.14.3.13.3.14.3.14.3.14.3.14.3.15.29.14.3.15.29.15.29.15.29.15.29.15.28.16.3.15.28.16.28.16.29.16.28.17.28.16.28.16.28.17.28.17.28.17.27.17.28.17.27.17.27.18.28.17.07.05.2.13.27.18.26.18.27.19.27.18.26.18.26.2.27.18.26.19.26.19.25.19.26.2.26.19.25.2.25.2.26.19.25.2.25.2.24.2.25.2.25.21.24.2.24.21.25.21.24.21.24.21.23.22.24.2.23.22.24.22.23.22.23.21.23.22.15.15.08.08.23.22.22.22.22.23.22.22.23.23.21.23.22.23.22.23.21.24.21.23.22.23.2.24.22.24.18.2.02.03.2.24.2.25.2.24.2.24.2.25.2.24.2.25.2.24.18.25.2.25.18.25.19.26.19.25.17.24.01.01.18.26.18.25.18.26.17.26.17.26.18.26.17.26.17.27.16.26.17.26.16.27.16.27.16.26.16.27.16.27.16.27.15.27.15.27.15.27.15.27.15.28.14.27.15.28.14.27.14.28.14.28.13.27.06.11.08.17.13.29.12.28.13.28.12.29.12.28.12.29.12.28.12.29.1.28.12.3.11.28.11.29.1.29.11.29.1.29.1.3.1.28.1.3.1.29.1.3.08.28.1.3.08.3.09.29.08.3.08.3.08.29.08.3.08.3.07.3.08.3.07.3.06.3.07.3.07.3.06.3.06.3.06.3.05.3.06.3.05.3.05.3.05.31.05.3.04.3.04.31.04.3.04.31v.01l.03.3.03.3.03.31.02.31.03.3.02.32.02.3.01.31.02.31v.3l.02.32v.3l.01.31v1.86l-.02.3v.32l-.02.3-.02.32-.01.3-.02.32-.03.3-.02.32-.03.3-.03.32-.03.3-.03.32-.03.3-.04.32-.04.3-.03.23-.02.1-.04.31-.06.32-.05.32-.06.32-.06.31-.06.32-.06.31-.07.32-.06.31-.07.31-.08.31-.07.32-.08.3-.08.32-.02.08-.06.22-1.72-.33 1.72.33-.08.29-.13.27-.17.24-.22.21-.24.18-.27.12-.3.08-.29.03-1.12.03-28.77.6-68.18 1.4-.4-.02-.41-.1-.39-.14-.1-.06-.25-.15-.32-.26-.28-.31-.22-.35-.17-.38-.09-.27-.1-.28-.09-.28-.1-.28-.08-.28-.1-.28-.08-.28-.08-.28-.09-.29-.08-.28-.08-.28-.07-.28-.08-.28-.07-.29-.08-.28-.07-.28-.07-.29-.06-.28-.07-.29-.06-.28-.06-.29-.06-.28-.06-.29-.06-.28-.05-.29-.05-.29-.05-.28-.05-.29-.05-.29-.04-.28-.05-.29-.04-.29-.04-.29-.03-.28-.04-.29-.03-.29-.03-.29-.04-.29-.02-.28-.03-.3-.02-.28-.03-.29-.02-.29-.02-.29-.01-.28-.02-.3-.01-.28-.02-.3v-.28l-.01-.3v-.28l-.01-.29v-1.45l.01-.28.01-.3.01-.28.01-.3.02-.28.01-.29.02-.29.02-.31.03-.32.03-.31.02-.32.04-.31.03-.31.03-.32.04-.3.04-.32.04-.3.05-.32.04-.3.05-.31.05-.3.05-.31.06-.31.05-.3.06-.3.06-.31.06-.3.07-.3.06-.3.07-.3.07-.3.08-.3.07-.3.08-.3.08-.3.08-.3.08-.29.08-.29.1-.3.08-.28.09-.3.1-.29.09-.29.1-.28.1-.3.1-.28.1-.28.1-.29.1-.28.11-.29.11-.28.11-.28.12-.28.11-.28.12-.28.12-.28.12-.27.12-.28.13-.27.12-.28.13-.27.13-.27.13-.27.14-.27.13-.27.14-.27.14-.26.14-.27.14-.26.15-.27.14-.26.15-.26.15-.26.15-.26.15-.26.16-.26.07-.11.08-.14.16-.26.16-.25.16-.25.17-.26.16-.25.17-.25.17-.24.16-.25.18-.25.17-.24.17-.25.18-.24.18-.24.18-.24.18-.24.18-.24.18-.24.2-.23.18-.24.19-.23.19-.23.19-.23.2-.23.19-.23.2-.23.2-.22.2-.23.2-.22.2-.22.2-.23.2-.22.21-.21.2-.22.22-.22.2-.21.22-.22.21-.2.22-.22.22-.21.21-.2.22-.22.22-.2.23-.2.22-.21.23-.2.22-.2.23-.2.23-.2.23-.2.23-.2.23-.18.24-.2.23-.19.24-.19.24-.19.24-.18.24-.19.24-.18.24-.19.25-.18.25-.18.24-.18.25-.17.25-.18.25-.18.25-.17.26-.17.25-.17.26-.17.25-.17.26-.16.26-.17.26-.16.26-.16.26-.16.27-.16.26-.16.27-.15.26-.16.27-.15.27-.15.27-.15.27-.15.28-.14.27-.15.27-.14.28-.14.28-.15.27-.13.28-.14.28-.14.28-.13.29-.13L50 7l.28-.12.29-.13.28-.13.3-.12.28-.13.29-.12.29-.12.29-.12.3-.11.28-.12.3-.11.3-.11.29-.11.3-.11.3-.11.29-.1.3-.11.3-.1.3-.1.3-.1.3-.1.3-.1.31-.09.3-.09.31-.09.31-.09.3-.08.32-.09.3-.08.32-.08.3-.08.32-.08.31-.08.31-.07.18-.05.14-.03.31-.07.32-.07.31-.06.32-.07.32-.06.32-.07.32-.06.32-.05.32-.06.32-.06.32-.05.32-.05.33-.05.32-.05.33-.04.32-.05.33-.04.33-.04.32-.04.33-.03.33-.04.33-.03.33-.03.33-.03.33-.03.33-.02.33-.03.34-.02.33-.02.33-.02.34-.01.33-.02.34-.01.33-.01h.34l.34-.01h.33l.34-.01h.68zm-1.28 6.63h-.6l-.3.01-.29.01-.3.01-.3.01-.29.01-.3.02-.29.01-.3.02-.29.02-.3.02-.28.02-.3.02-.29.03-.29.03-.29.02-.29.04-.29.03-.29.03-.29.04-.28.03-.29.04-.29.04-.28.04-.29.05-.28.04-.29.05-.28.05-.28.05-.29.05-.28.05-.28.05-.28.06-.28.06-.28.06-.11.02-.16.04-.28.06-.28.06-.27.07-.28.06-.27.07-.28.07-.27.07-.27.07-.28.08-.27.07-.27.08-.27.08-.27.08-.26.08-.27.08-.27.09-.26.08-.27.1-.26.08-.27.1-.26.08-.26.1-.26.09-.26.1-.26.1-.26.1-.26.1-.26.1-.25.1-.26.1-.25.1-.25.12-.26.1-.25.11-.25.12-.25.1-.25.12-.24.12-.25.12-.25.11-.24.12-.25.12-.24.13-.24.12-.24.13-.24.12-.24.13-.24.13-.24.13-.24.13-.23.13-.24.14-.23.13-.23.14-.23.14-.23.14-.23.14-.23.14-.23.14-.23.15-.22.15-.23.14-.22.15-.22.15-.22.15-.22.15-.22.16-.22.15-.21.16-.22.15-.21.16-.22.16-.2.16-.22.16-.2.17-.22.16-.2.16-.21.17-.2.17-.21.17-.2.17-.2.17-.2.17-.2.17-.2.18-.2.17-.2.18-.19.18-.2.18-.18.18-.2.18-.18.18-.2.19-.18.18-.19.19-.18.18-.18.2-.18.18-.19.19-.17.2-.18.18-.18.2-.17.2-.18.19-.17.2-.17.19-.17.2-.17.2-.17.2-.16.2-.17.2-.16.2-.16.21-.16.2-.16.21-.16.21-.16.2-.15.22-.16.2-.15.22-.15.21-.15.22-.15.21-.14.22-.15.21-.14.22-.14.22-.14.22-.08.12-.06.1-.14.22-.14.22-.13.22-.14.23-.13.22-.13.23-.13.22-.13.23-.12.23-.13.23-.12.23-.12.23-.12.23-.12.24-.11.23-.12.23-.11.24-.12.24-.1.23-.12.24-.1.24-.1.24-.11.24-.1.24-.1.25-.1.24-.1.24-.1.25-.1.24-.09.25-.09.25-.09.25-.08.24-.1.25-.08.26-.08.25-.08.25-.08.25-.08.26-.07.25-.08.26-.07.25-.07.26-.07.26-.07.26-.06.26-.07.26-.06.26-.06.26-.06.26-.06.26-.05.27-.06.26-.05.27-.05.26-.04.27-.05.27-.05.27-.04.27-.04.27-.04.27-.04.27-.03.27-.03.27-.04.28-.03.27-.02.28-.03.27-.02.28-.02.25-.02.25-.02.26-.01.25-.02.25v.25l-.02.26v.25l-.02.25V50.42l.01.25.01.26.01.25.02.26.01.25.02.25.01.26.02.25.02.25.03.26.02.25.02.26.03.25.03.25.03.26.03.25.04.26.03.25.04.25.04.26.04.25.04.25.04.26.05.25.05.25.04.26.05.25.06.25.05.25.05.26.06.25.06.25.06.25.06.25.06.26.07.25.06.25.07.25.07.25.06.22 66.97-.2 27.58-.06v-.05l.02-.29.02-.29.02-.3.02-.28.01-.3.01-.29.01-.29.01-.3v-.66l.01-.2V55.57l-.01-.28-.01-.28-.01-.28-.02-.27-.01-.28-.02-.28-.02-.28-.02-.28-.02-.27-.03-.28-.02-.27-.03-.28-.03-.27-.03-.28-.04-.27-.03-.27-.04-.28-.04-.27-.04-.27-.04-.27-.05-.27-.05-.27-.05-.27-.05-.27-.05-.26-.05-.27-.06-.27-.05-.26-.06-.26-.06-.27-.06-.27-.06-.26-.06-.27-.06-.26-.06-.27-.07-.26-.07-.26-.07-.26-.07-.26-.07-.26-.08-.26-.07-.26-.08-.26-.08-.26-.08-.25-.09-.26-.08-.26-.09-.25-.08-.26-.1-.25-.09-.25-.09-.26-.1-.25-.09-.25-.1-.25-.1-.25-.1-.25-.1-.25-.1-.25-.11-.25-.1-.24-.12-.25-.1-.25-.12-.24-.11-.25-.12-.24-.11-.24-.12-.24-.12-.25-.12-.24-.13-.24-.12-.24-.13-.23-.12-.24-.13-.24-.13-.23-.13-.24-.09-.15-.05-.09-.13-.23-.13-.24-.13-.23-.13-.24-.14-.23-.14-.23-.14-.23-.14-.24-.14-.23-.14-.23-.15-.22-.14-.23-.15-.23-.15-.23-.15-.22-.15-.23-.16-.22-.15-.22-.16-.23-.15-.22-.16-.22-.16-.22-.17-.22-.16-.22-.16-.21-.17-.22-.17-.22-.16-.21-.17-.22-.17-.21-.17-.22-.17-.21-.17-.21-.18-.21-.17-.22-.18-.2-.18-.21-.17-.21-.19-.2-.18-.21-.18-.2-.02-.04-.16-.18-.19-.2-.18-.2-.19-.2-.19-.2-.19-.21-.19-.2-.19-.2-.19-.2-.2-.2-.19-.2-.2-.19-.2-.2-.2-.19-.06-.06-.13-.13-.2-.2-.2-.18-.2-.2-.21-.18-.2-.2-.21-.18-.21-.19-.21-.18-.21-.19-.21-.18-.21-.18-.22-.19-.21-.18-.22-.18-.21-.17-.22-.18-.22-.18-.22-.17-.22-.18-.23-.17-.22-.17-.23-.17-.22-.17-.23-.17-.23-.17-.23-.16-.23-.17-.23-.16-.23-.16-.24-.17-.23-.16-.24-.15-.17-.12-.06-.04-.24-.16-.24-.16-.24-.15-.24-.15-.24-.16-.25-.15-.24-.15-.24-.15-.25-.14-.25-.15-.25-.15-.24-.14-.25-.14-.26-.14-.25-.14-.25-.14-.25-.14-.26-.13-.25-.14-.26-.13-.26-.13-.26-.14-.26-.12-.26-.13-.26-.13-.26-.13-.27-.12-.26-.12-.27-.12-.26-.12-.27-.12-.27-.12-.26-.11-.27-.12-.27-.11-.28-.11-.27-.11-.27-.11-.28-.1-.27-.11-.28-.1-.01-.01-.26-.1-.28-.1-.28-.1-.28-.1-.28-.1-.28-.1-.28-.1-.28-.09-.28-.09-.29-.09-.28-.09-.29-.08-.28-.09-.29-.08-.29-.09-.28-.08-.3-.08-.28-.07-.3-.08-.28-.08-.3-.07-.29-.07-.3-.07-.29-.07-.3-.07-.29-.06-.3-.06-.3-.07-.29-.06-.3-.06-.3-.05-.3-.06-.3-.05-.3-.05-.3-.06-.3-.04-.3-.05-.3-.05-.31-.04-.3-.04-.31-.04-.31-.04-.3-.04-.32-.04-.3-.03-.3-.03-.31-.03-.31-.03-.3-.02-.31-.03-.3-.02-.3-.02-.31-.02-.3-.02-.3-.02h-.31l-.3-.02-.3-.01-.3-.01h-.3l-.3-.01H72.32z"/><g><path d="M175.9 90.58l4.2 3.42c36.55-28.7 65.31-37.91 82.87 2.33l43-26.25-15.53-29.32-48.41 21.06c-33.27.44-49.28 14.95-66.13 28.76z" fill="#404040"/><path d="M290.93 38.88l.3.1.28.16.26.2.22.23.18.27 15.65 29.26.06.13.08.2.09.33.02.36-.03.35-.1.34-.14.32-.2.3-.25.25-.28.21-36.51 22.51-6.38 3.92-.35.18-.38.12-.4.05-.4-.02-.38-.09-.37-.15-.33-.2-.3-.27-.25-.32-.2-.34-.2-.47-.2-.45-.2-.45-.21-.44-.2-.44-.21-.43-.21-.43-.21-.43-.21-.42-.21-.41-.21-.41-.22-.41-.2-.4-.22-.4-.22-.4-.21-.38-.11-.2-.1-.19-.12-.19-.1-.19-.12-.18-.1-.19-.11-.19-.11-.18-.11-.18-.11-.19-.11-.18-.11-.18-.11-.18-.12-.18-.1-.17-.12-.18-.1-.17-.12-.18-.11-.17-.11-.17-.11-.17-.12-.17-.1-.17-.12-.17-.11-.16-.12-.17-.11-.16-.11-.16-.12-.17-.11-.16-.11-.16-.12-.15-.11-.16-.12-.16-.11-.15-.12-.16-.11-.15-.12-.15-.11-.15-.12-.15-.11-.15-.12-.15-.11-.15-.12-.14-.12-.15-.11-.14-.12-.14-.12-.15-.11-.14-.12-.13-.12-.14-.12-.14-.11-.14-.12-.13-.12-.14-.12-.13-.12-.13-.11-.13-.12-.13-.12-.13-.12-.13-.12-.13-.12-.12-.12-.13-.12-.12-.12-.13-.12-.12-.12-.12-.12-.12-.12-.12-.12-.12-.12-.11-.12-.12-.12-.11-.12-.12-.12-.11-.12-.11-.13-.11-.12-.12-.12-.1-.12-.11-.12-.1-.13-.12-.12-.1-.12-.1-.12-.1-.13-.11-.12-.1-.12-.1-.13-.1-.12-.1-.12-.1-.13-.1-.12-.1-.12-.09-.13-.09-.12-.1-.13-.09-.12-.09-.13-.09-.12-.09-.13-.08-.12-.1-.13-.08-.12-.08-.13-.09-.13-.08-.12-.09-.13-.08-.13-.08-.12-.08-.13-.08-.13-.08-.12-.07-.13-.08-.13-.08-.12-.07-.13-.08-.13-.07-.13-.07-.13-.07-.12-.07-.13-.07-.13-.07-.13-.07-.13-.07-.13-.06-.13-.07-.13-.06-.13-.07-.13-.06-.13-.06-.13-.06-.13-.06-.13-.06-.13-.06-.13-.06-.13-.06-.13-.05-.13-.06-.14-.05-.13-.06-.13-.05-.13-.05-.13-.05-.14-.05-.13-.05-.13-.05-.14-.05-.13-.05-.13-.04-.14-.05-.13-.04-.14-.05-.13-.04-.13-.04-.14-.05-.13-.04-.14-.04-.14-.03-.13-.04-.14-.04-.13-.04-.14-.03-.14-.04-.13-.03-.14-.04-.14-.03-.13-.03-.14-.03-.14-.03-.14-.03-.14-.03-.14-.03-.13-.03-.14-.03-.14-.02-.14-.03-.14-.02-.14-.02-.14-.03-.14-.02-.14-.02-.15-.02-.14-.02-.14-.02-.14-.02-.14-.02-.14-.01-.15-.02-.14-.01-.14-.02-.15-.01-.14-.01-.14-.02h-.15l-.14-.02h-.15l-.14-.02h-.2l-.1-.01-.14-.01h-.14l-.15-.01h-.15l-.14-.01h-.3l-.14-.01h-1.04l-.15.01h-.15l-.15.01h-.15l-.16.01-.15.01-.15.01-.15.01-.15.01-.15.01-.16.01-.15.01-.15.02-.16.01-.15.01-.15.02-.16.02-.15.01-.31.04-.31.04-.31.04-.32.04-.31.05-.32.05-.31.05-.32.06-.32.05-.32.07-.32.06-.32.07-.32.07-.33.07-.32.08-.33.07-.33.09-.33.08-.03.01-.3.08-.33.09-.33.09-.33.1-.34.09-.33.1-.34.1-.34.1-.33.11-.34.12-.34.11-.35.12-.34.12-.14.05-.2.07-.35.12-.35.13-.34.12-.35.14-.35.13-.35.14-.36.14-.35.14-.35.14-.36.15-.36.15-.27.12-.08.03-.36.16-.36.15-.36.16-.37.16-.36.16-.36.17-.37.17-.37.17-.36.17-.37.18-.37.18-.37.18-.38.18-.37.19-.37.19-.38.19-.37.2-.38.19-.38.2-.37.2-.38.2-.32.18-.07.03-.38.2-.38.21-.39.21-.39.21-.38.21-.4.22-.38.22-.4.22-.39.22-.39.23-.4.23-.39.23-.4.23-.39.24-.4.23-.4.24-.4.25-.4.24-.4.25-.4.24-.4.25-.4.26-.4.25-.41.26-.41.26-.4.26-.42.26-.4.27-.42.27-.4.27-.42.27-.41.28-.42.27-.41.28-.16.1-.26.18-.42.28-.42.28-.42.28-.42.28-.42.29-.43.29-.42.29-.43.29-.43.3-.42.29-.43.3-.43.3-.43.3-.43.3-.44.3-.43.31-.43.31-.44.31-.43.32-.44.31-.43.32-.44.32-.1.06-.11.07-.23.1-.25.05-.24.01-.25-.03-.23-.07-.22-.1-.2-.15-3.83-3.34-.25-.22-.14-.14-.12-.16-.06-.11-.04-.06-.06-.2-.03-.2v-.2l.03-.19.06-.19.1-.18.11-.16.15-.14.78-.65.2-.16.59-.5 1.57-1.3.78-.65.79-.66.79-.65.79-.65.8-.65.39-.33.4-.32.4-.33.4-.32.4-.32.4-.33.4-.32.41-.32.4-.32.41-.32.41-.32.41-.31.41-.32.42-.32.41-.31.42-.31.41-.32.42-.3.42-.32.43-.3.42-.32.43-.3.42-.3.43-.31.44-.3.43-.3.44-.3.43-.3.44-.3.45-.3.44-.29.45-.29.45-.29.45-.28.46-.29.23-.14.23-.14.23-.14.23-.15.23-.14.23-.14.23-.13.24-.14.23-.14.23-.14.24-.14.24-.13.23-.14.24-.13.24-.14.24-.13.24-.14.24-.13.24-.13.24-.13.24-.13.25-.13.24-.13.25-.13.17-.1.07-.03.25-.13.25-.13.25-.13.25-.12.25-.13.25-.12.25-.13.25-.12.26-.12.25-.13.26-.12.25-.12.26-.12.26-.12.26-.12.26-.11.26-.12.26-.12.26-.11.26-.12.27-.11.26-.12.27-.11.27-.11.27-.11.26-.12.28-.1.27-.11.27-.11.27-.11.28-.1.27-.11.28-.1.27-.11.28-.1.28-.1.28-.11.28-.1.28-.1.29-.1.28-.1.29-.1.28-.1.3-.09.28-.1.29-.09.3-.1.28-.09.3-.09.29-.09.3-.09.3-.09.29-.08.3-.1.3-.08.3-.08.3-.09.3-.08.3-.08.31-.08.31-.08.3-.08.32-.08.3-.08.32-.08.31-.07.32-.08.31-.07.32-.07.32-.07.31-.07.32-.07.33-.07.32-.07.32-.07.33-.06.32-.07.33-.06.33-.06.33-.06.33-.06.34-.06.33-.06.34-.06.33-.05.34-.06.34-.05.34-.05.34-.05.35-.06.34-.04.35-.05.34-.05.35-.04.35-.05.36-.04.35-.05.35-.04.36-.04.36-.04.36-.03.36-.04.36-.03.36-.04.36-.03.37-.03.37-.03.37-.03.37-.03.37-.03.37-.02.38-.03.37-.02.38-.02.38-.02.38-.02.38-.02.39-.02.38-.02h.39l.39-.02.39-.01.39-.02h.45l36.76-16-.08-.2L289.67 39l.3-.1.32-.06h.32l.32.05zM277 48.65l-34.3 14.7-.21.07-.22.04-.22.02h-.76l-.38.01-.38.01-.38.01-.38.01-.37.01-.37.01-.37.02-.37.01-.37.02-.37.02-.36.01-.37.02-.36.02-.36.03-.36.02-.36.02-.35.03-.36.03-.35.03-.35.02-.35.03-.35.04-.35.03-.35.03-.34.04-.34.03-.35.04-.34.04-.33.04-.34.04-.34.04-.33.04-.34.05-.33.04-.33.05-.33.05-.33.04-.32.05-.33.05-.32.05-.33.06-.32.05-.32.05-.32.06-.32.06-.31.05-.32.06-.31.06-.32.06-.3.06-.32.07-.3.06-.31.07-.31.06-.3.07-.31.06-.3.07-.3.07-.3.07-.3.07-.3.08-.3.07-.3.07-.3.08-.29.07-.29.08-.29.08-.29.08-.29.08-.29.08-.29.08-.28.08-.29.09-.28.08-.28.08-.28.09-.29.09-.27.08-.28.1-.28.08-.28.1-.27.08-.28.1-.27.09-.27.1-.27.09-.27.09-.27.1-.27.1-.27.09-.27.1-.26.1-.27.1-.26.1-.26.1-.27.1-.26.1-.26.1-.26.11-.26.1-.25.11-.26.11-.26.1-.25.12-.25.1-.26.11-.25.11-.25.12-.25.1-.25.12-.25.11-.25.12-.25.11-.24.12-.25.11-.24.12-.25.12-.24.11-.24.12-.25.12-.24.12-.24.12-.24.12-.07.04-.17.08-.23.13-.24.12-.24.12-.23.13-.24.12-.24.13-.23.12-.23.13-.24.13-.23.12-.23.13-.23.13-.23.13-.23.13-.23.13-.23.13-.22.13-.23.14-.23.13-.22.13-.23.14-.22.13-.23.13-.22.14-.44.27-.45.28-.44.27-.44.28-.43.28-.44.28-.43.29-.43.28-.43.29-.43.29-.42.29-.43.3-.42.28-.42.3-.42.3-.42.3-.41.3-.42.3-.4.3-.42.3-.41.3-.41.31-.4.3-.42.32-.4.3-.4.32-.41.3-.4.32-.4.31-.4.32-.4.31-.4.32-.4.31-.4.32-.4.32-.8.64-.8.63-.79.65-.79.64-.8.64-1.58 1.29-.2.17 2.01 1.64.36-.3.41-.34.42-.34.41-.35.42-.34.41-.34.41-.34.42-.33.4-.34.42-.33.41-.33.41-.33.41-.32.41-.33.4-.32.42-.32.4-.32.41-.32.4-.31.41-.31.26-.2.15-.11.4-.3.41-.31.41-.3.4-.3.41-.3.4-.29.41-.3.4-.28.4-.29.41-.28.4-.29.4-.28.4-.28.4-.28.4-.27.4-.28.4-.27.4-.26.4-.27.4-.27.39-.26.4-.26.39-.25.4-.26.38-.25.4-.25.39-.25.4-.25.38-.24.4-.24.38-.24.4-.24.38-.24.4-.23.05-.04.33-.18.39-.23.39-.22.39-.22.38-.21.4-.22.38-.21.38-.2.39-.21.38-.2.39-.21.38-.2.38-.2.39-.2.38-.18.38-.2.38-.18.38-.18.38-.18.38-.18.38-.18.37-.17.09-.04.3-.13.37-.17.38-.16.37-.16.38-.16.38-.15.37-.16.37-.14.38-.15.37-.15.37-.14.38-.14.21-.08.16-.05.37-.13.37-.13.37-.13.37-.12.37-.12.37-.12.36-.11.37-.11.37-.11.36-.1.37-.11.36-.1.33-.09h.04l.36-.1.37-.1.36-.08.36-.08.36-.08.36-.08.37-.07.36-.07.35-.07.36-.07.36-.06.36-.06.36-.05.35-.06.36-.04.35-.05.36-.04.35-.04.18-.02.18-.02.17-.02.18-.01.17-.02.18-.01.18-.02h.17l.18-.02.17-.01.18-.01.17-.01h.18l.17-.02h.18l.17-.01h.35l.17-.01H231.63l.17.01h.18l.17.02h.17l.17.01h.1l.07.01.17.01.18.01.17.02.17.01.17.02.17.01.17.02.17.01.17.02.17.02.17.02.16.02.17.02.17.03.17.02.17.02.17.03.17.03.16.02.17.03.17.03.17.03.16.03.17.03.17.04.16.03.17.03.16.04.17.04.16.03.17.04.16.04.17.04.16.04.17.05.16.04.17.04.16.05.16.05.17.04.16.05.16.05.16.05.17.05.16.05.16.05.16.06.16.05.16.06.16.06.16.05.16.06.16.06.16.06.16.06.16.07.16.06.16.06.16.07.16.07.15.06.16.07.16.07.15.07.16.07.16.07.15.08.16.07.16.08.15.07.16.08.15.08.15.08.16.08.15.08.16.08.15.08.15.09.15.08.16.09.15.09.15.08.15.1.15.08.15.1.15.09.15.09.15.1.15.09.15.1.15.09.15.1.15.1.15.1.14.1.15.1.15.1.14.1.15.11.15.1.14.11.15.11.14.11.15.11.14.11.15.11.14.12.14.11.15.12.14.11.14.12.14.12.15.11.14.12.14.12.14.13.14.12.14.12.14.13.14.12.14.13.14.13.14.13.13.13.14.13.14.13.14.13.13.13.14.14.14.13.13.14.14.14.13.14.14.14.13.14.14.14.13.14.13.14.14.15.13.15.13.14.14.15.13.15.13.15.13.15.13.15.13.15.13.16.13.15.13.16.13.15.13.16.13.16.13.16.13.16.13.16.12.16.13.17.13.16.12.17.13.16.13.17.12.17.13.17.12.17.13.17.12.17.12.18.13.17.12.18.12.18.13.17.12.18.12.18.12.18.13.19.12.18.12.18.12.19.12.18.12.19.12.19.12.19.12.19.11.19.12.2.12.18.12.2.12.2.11.19.12.2.12.2.11.2.12.2.12.2.11.2.12.2.11.21.11.2.12.21.23.42.22.42.23.43.22.43.22.43.23.44.22.44.21.45.22.45.22.46.18.4 3.59-2.18.12.15 35.44-21.64-.81-1.54.2.04-13-24.55v-.01L277 48.65z"/><path d="M300.75 30.62h.23l.22.01.23.02.22.01.22.02.22.03.22.02.22.03.21.04.22.03.21.04.22.05.2.05.22.05.2.05.22.06.2.06.21.06.2.07.2.07.2.07.2.08.2.08.2.08.2.08.2.09.19.09.19.09.19.1.18.1.19.1.18.1.16.09.03.01.18.1.17.12.18.11.18.12.17.12.17.12.17.12.17.12.16.13.17.13.16.13.16.14.16.13.15.14.16.14.15.14.15.14.15.15.15.14.14.15.14.15.14.16.14.15.14.16.13.16.13.16.13.16.13.16.13.16.12.17.12.17.12.17.12.17.11.17.11.18.11.17.1.18.11.18.1.18.1.18.08.14.02.04.1.18.09.19.09.19.08.18.09.2.08.18.08.2.07.19.08.2.07.19.06.2.07.2.06.19.06.2.05.2.06.2.05.2.05.2.04.2.04.21.04.2.03.21.04.21.02.2.03.22.02.2.02.21.02.21v.21l.02.21v.85l-.01.21-.01.22-.02.2-.02.22-.02.21-.03.22-.03.21-.03.2-.01.08-.01.04-.02.1-.02.11-.02.1-.03.11-.02.11-.03.1-.02.11-.03.1-.02.11-.03.1-.03.11-.03.1-.03.11-.04.1-.03.11-.03.1-.04.11-.03.1-.04.11-.04.1-.04.11-.04.1-.04.1-.04.11-.04.1-.05.1-.04.11-.05.1-.04.1-.05.1-.05.11-.05.1-.05.1-.05.1-.05.1-.06.1-.05.1-.06.1-.06.1-.05.1-.06.1-.06.1-.06.1-.06.1-.07.1-.06.1-.06.1-.07.1-.07.09-.06.1-.07.1-.07.09-.07.1-.07.09-.08.1-.07.09-.07.1-.08.08-.08.1-.07.1-.08.08-.08.1-.08.09-.08.09-.08.09-.09.09-.08.09-.09.09-.08.09-.1.09-.08.09-.09.08-.09.1-.09.08-.1.09-.08.08-.1.09-.1.08-.09.09-.1.08-.1.09-.1.08-.1.08-.1.09-.1.08-.1.08-.1.08-.1.08-.11.08-.1.08-.12.08-.1.08-.11.08-.12.08-.1.08-.12.08-.11.07-.12.08-.11.07-.12.08-.12.07-.12.08-.12.07-.12.08-.12.07-.12.07-.12.07-.13.08-.12.07-.13.07-.13.07-.13.07-.13.07-.13.06-.13.07-.13.07-.14.07-.12.06h-.01l-.14.07-.13.06-.14.07-.14.06-.14.07-.14.06-.14.06-.15.06-.14.07-.14.06-.15.06-.15.06-.15.06-.15.06-.15.05-.15.06-.15.06-.15.06-.16.05-.15.06-.16.05-.16.06-.16.05-.16.05-.16.06-.16.05-.16.05-.17.05-.16.05-.17.05-.17.05-.17.05-.17.05-.13.04h-.04l-.17.05-1.25-.13-.79-.9v-.02l.11-1.2.93-.83.16-.06.03-.01.13-.05.15-.05.14-.06.15-.06.15-.06.14-.06.15-.06.14-.06.14-.06.14-.06.14-.06.13-.07.14-.06.13-.06.14-.06.13-.06.13-.07.13-.06.13-.06.12-.07.13-.06.12-.07.13-.06.12-.06.12-.07.12-.06.12-.07.12-.06.11-.07.12-.07.11-.06.11-.07.11-.06.11-.07h.01l.1-.07.11-.06.1-.07.11-.07.1-.07.11-.06.1-.07.1-.07.1-.07.1-.06.1-.07.1-.07.09-.07.1-.07.09-.07.09-.07.09-.06.09-.07.09-.07.08-.07.09-.07.08-.07.09-.07.08-.07.08-.07.08-.07.08-.07.08-.07.08-.07.08-.07.07-.07.08-.07.07-.07.07-.07.07-.07.07-.07.07-.07.07-.07.07-.07.06-.07.07-.07.06-.07.07-.07.06-.07.06-.07.06-.07.06-.07.06-.07.05-.07.06-.08.06-.07.05-.07.05-.07.06-.07.05-.07.05-.07.05-.07.05-.07.05-.07.04-.07.05-.07.05-.07.04-.07.05-.07.04-.07.04-.07.04-.07.04-.07.04-.07.04-.07.04-.07.04-.07.03-.06.04-.07.03-.07.04-.07.03-.07.03-.07.03-.07.04-.07.03-.07.02-.07.03-.06.03-.07.03-.07.03-.07.02-.07.03-.07.02-.06.02-.07.03-.07.02-.07.02-.07.02-.06.02-.07.02-.07.02-.07.02-.06.02-.07.01-.07.02-.07.02-.06.01-.07.01-.07.02-.06.01-.07.01-.07.02-.06v-.07l.02-.07v-.06l.02-.07v-.07l.01-.06.01-.07v-.06l.02-.07v-.13l.02-.13v-.27l.01-.13v-.39l-.01-.13v-.12l-.02-.13-.01-.13-.02-.13-.01-.13-.02-.13-.02-.12-.03-.13-.02-.13-.03-.12-.03-.13-.03-.12-.03-.13-.03-.12-.04-.13-.04-.12-.04-.13-.04-.12-.05-.12-.04-.12-.05-.12-.05-.12-.05-.12-.05-.12-.06-.12-.06-.12-.05-.12-.06-.11-.07-.12-.06-.11-.06-.12-.07-.11-.07-.11-.07-.12-.01-.02-.06-.09-.07-.1-.08-.12-.07-.1-.08-.11-.08-.1-.08-.11-.08-.1-.08-.11-.09-.1-.08-.1-.09-.1-.09-.1-.09-.1-.09-.1-.09-.1-.1-.09-.09-.09-.1-.09-.09-.09-.1-.09-.1-.08-.1-.09-.1-.08-.1-.09-.1-.08-.1-.08-.1-.07-.11-.08-.11-.08-.1-.07-.12-.07-.1-.07-.11-.07-.11-.06-.11-.07-.11-.06-.11-.06-.12-.06-.1-.06-.12-.06h-.01l-.1-.05-.12-.06-.11-.05-.12-.05-.11-.05-.12-.04-.11-.05-.12-.04-.11-.04-.12-.04-.11-.04-.12-.03-.12-.04-.11-.03-.12-.03-.11-.02-.12-.03-.12-.02-.11-.02-.12-.02-.12-.02-.11-.02-.12-.01-.12-.01-.11-.01-.12-.01h-.12l-.11-.01h-.58l-.12.01-.11.01h-.04l-.08.01-.12.02h-.05l-.06.01h-.06l-.05.02h-.06l-.06.01-.05.01-.06.01-.06.02h-.06l-.06.02-.05.01-.06.01-.06.02-.06.01-.05.02-.06.01-.06.02-.06.01-.05.02-.06.02-.06.02-.06.02-.05.01-.07.02-.05.02-.06.02-.06.02-.06.03-.06.02-.06.02-.05.02-.06.03-.06.02-.06.03-.06.02-.06.03-.06.02-.06.03-.06.03-.06.03-.05.03-.06.03-.06.03-.06.03-.07.03-.06.03-.06.03-.06.03-.06.04-.06.03-.06.03h-.01l-.06.03-.06.04-.07.03-.06.03-.07.04-.06.03-.07.04-.05.03h-.01l-.07.04-.07.04-.07.03-.07.04-.07.04-.07.03-.07.04-.07.04-.07.04-.07.05-.07.04-.07.04-.07.05-.08.04-.07.04-.08.05-.08.04-.08.04-.08.05-.08.04-.08.05-.08.04-.08.05-.09.05-.08.05-.08.06-.08.05-.09.05-.08.06-.08.06-.09.06-.08.05-.08.07-.09.06-.08.06-.09.06-.06.05-.03.02-.1.06-.09.06-.09.06-.1.06-.1.07-.09.07-.1.06-.1.07-.09.07-.1.08-.1.07-.1.07-.1.08-.09.08-.06.04-.04.03-.1.08-.12.08-.1.08-.11.08-.1.08-.09.06-.03.02-2.23.54-.53-2.23v-.04l.03-.1.03-.15.04-.15.04-.15.04-.15.04-.15.01-.06.03-.08.05-.14.05-.15.05-.14.05-.13.05-.14.06-.14.05-.14.05-.13.06-.14.05-.13.06-.14.06-.13.06-.13.06-.13.01-.04.05-.09.07-.12.07-.12.08-.12.07-.12.07-.12.07-.12.08-.12.07-.11.08-.12.07-.11.08-.12.08-.11.08-.11.07-.11.08-.11.08-.11.08-.11.09-.1.08-.12.08-.1.09-.1.08-.1v-.01l.1-.1.08-.1.1-.09.09-.09.1-.09.09-.1.1-.08.09-.09.1-.09.09-.09.1-.08.1-.09.1-.08.09-.08.01-.01.09-.07.1-.08.1-.07.1-.08.11-.07.1-.08.11-.07.09-.06h.01l.11-.07.11-.07.1-.06.12-.06.1-.07.11-.06.11-.06.1-.05h.01l.11-.06.11-.05.11-.05.12-.06.1-.05.12-.05.11-.04.11-.05.12-.05.1-.04.12-.05.11-.04.12-.04.11-.04.11-.04.12-.04.11-.04.11-.03.12-.04.11-.03h.01l.1-.03.12-.03.11-.03.12-.03.11-.03.12-.03.11-.02.12-.03.11-.02.11-.02.12-.02.11-.02.12-.02.11-.02.12-.02.11-.01.11-.02.12-.01.11-.02h.12l.11-.02h.11l.12-.02h.12l.22-.02h.67z"/><g fill="#fff" fill-rule="nonzero" stroke="#fff" stroke-width="3.23"><path d="M230.49 166.93c0 4.03.79 7.01 2.37 8.94a7.37 7.37 0 0011.63.07c1.6-1.87 2.41-4.88 2.41-9 0-4.19-.81-7.2-2.43-9.07a7.42 7.42 0 00-5.77-2.78 7.3 7.3 0 00-5.83 2.89c-1.59 1.92-2.38 4.91-2.38 8.95zm-4.35 0c0-4.09 1.29-7.37 3.86-9.84a12.1 12.1 0 018.7-3.39c3.46 0 6.37 1.14 8.72 3.4 2.56 2.47 3.84 5.74 3.84 9.83 0 4.16-1.32 7.46-3.97 9.92a12.19 12.19 0 01-8.59 3.3c-3.6 0-6.57-1.22-8.94-3.65-2.41-2.49-3.62-5.67-3.62-9.57zm18.29-17.63c0 .53-.18.98-.55 1.35-.37.37-.82.56-1.36.56-.52 0-.97-.19-1.35-.56a1.84 1.84 0 01-.56-1.35c0-.52.19-.97.56-1.35.38-.37.83-.56 1.35-.56.54 0 .99.19 1.36.56.37.38.55.83.55 1.35zm-11.44 0c0-.52.19-.97.56-1.35a1.8 1.8 0 011.33-.56c.54 0 1 .19 1.36.56.37.38.55.83.55 1.35 0 .53-.18.98-.55 1.35-.37.37-.82.56-1.36.56a1.8 1.8 0 01-1.33-.56 1.85 1.85 0 01-.56-1.35zM259.87 179.6h-3.82v-27.85l2.72-1.08h1.1v28.93z" transform="matrix(.45678 -.22982 .16034 .45575 136.16 49.5)"/></g><path d="M178.22 99.73s-6.14 14.11-6.17 20c-.07 12.02 13.92 11.78 13.95.37.01-7.5-7.78-20.36-7.78-20.36z" fill="#ffc800"/><path d="M178.4 98.76l.17.04.15.07.14.1.12.12.1.13.09.15.06.09.05.09.15.24.19.31.22.36.24.42.14.23.14.25.14.25.16.27.15.27.17.29.16.3.18.3.17.33.18.32.18.34.19.35.18.35.2.36.18.37.1.18.1.2.19.38.19.39.2.4.19.39.19.4.19.41.19.42.1.2.09.22.1.2.09.22.09.2.09.22.09.21.1.22.08.21.09.22.09.21.08.22.1.21.08.22.08.22.08.21.09.22.08.22.08.22.07.21.08.22.08.22.07.22.07.21.07.22.07.22.07.22.07.21.06.22.07.22.06.21.06.22.05.21.06.22.05.21.06.22.05.2.04.22.05.21.04.21.04.22.04.2.04.21.03.21.03.21.03.2.02.21.03.21.02.2.01.2.02.21v.2l.02.2v.93l-.01.14v.14l-.01.15-.01.14-.02.14v.13l-.02.14-.02.14-.01.13-.02.14-.02.13-.02.14-.02.13-.03.13-.02.13-.02.13-.03.13-.03.12-.03.13-.03.13-.03.12-.04.12-.03.13-.04.12-.03.12-.04.12-.04.12-.04.12-.04.11-.05.12-.04.11-.05.12-.04.11-.05.11-.05.11-.05.11-.05.11-.05.1-.06.12-.05.1-.06.1-.06.1-.05.11-.06.1-.06.1-.06.1-.07.1-.06.1-.06.1-.07.09-.06.1-.07.08-.07.1-.07.08-.07.1-.07.08-.07.09-.07.08-.08.09-.07.08-.08.08-.07.08-.08.08-.08.08-.08.08-.08.07-.08.08-.08.07-.08.08-.08.07-.09.07-.08.06-.09.07-.08.07-.09.06-.09.07-.08.06-.1.06-.08.06-.1.06-.08.06-.1.05-.08.06-.1.05-.09.05-.1.05-.08.05-.1.05-.1.05-.09.05-.1.04-.09.04-.1.04-.1.05-.1.03-.09.04-.1.04-.1.03-.1.04-.1.03-.1.03-.1.03-.1.03-.1.03-.1.02-.1.03-.1.02-.1.02-.1.03-.1.01-.1.02-.11.02-.1.01-.1.02-.1.01-.11.01h-.02l-.09.01-.1.01h-.1l-.1.01h-.11l-.1.01h-.62l-.11-.02h-.1l-.11-.01-.1-.01-.1-.02h-.11l-.1-.02-.1-.02-.11-.02-.1-.02-.1-.02-.11-.02-.1-.02-.1-.03-.1-.02-.11-.03-.1-.03-.1-.03-.1-.03-.1-.03-.1-.04-.1-.03-.1-.04-.1-.04-.1-.04-.1-.04-.1-.04-.1-.04-.1-.05-.1-.05-.1-.04-.09-.05-.1-.05-.09-.06-.1-.05-.09-.05-.1-.06-.09-.06-.09-.06-.1-.06-.08-.06-.1-.06-.08-.07-.1-.06-.08-.07-.09-.07-.09-.07-.08-.07-.09-.07-.09-.08-.08-.07-.08-.08-.09-.08-.08-.07-.08-.08-.08-.09-.08-.08-.08-.08-.08-.09-.07-.09-.08-.08-.08-.1-.07-.08-.07-.1-.08-.09-.07-.1-.07-.09-.07-.1-.07-.1-.07-.1-.06-.1-.07-.1-.06-.1-.07-.1-.06-.1-.06-.12-.06-.1-.06-.11-.06-.11-.05-.11-.06-.12-.06-.11-.05-.11-.05-.12-.05-.12-.05-.12-.05-.12-.05-.12-.05-.12-.04-.12-.05-.12-.02-.07-.02-.06-.04-.13-.04-.12-.04-.13-.04-.13-.04-.13-.03-.13-.04-.14-.03-.13-.03-.14-.03-.13-.03-.14-.03-.14-.02-.13-.03-.14-.02-.15-.03-.14-.02-.14-.02-.15-.02-.14-.01-.15-.02-.14-.01-.15-.02-.15v-.15l-.02-.15v-.16l-.01-.15v-.15l-.01-.16v-1l.02-.17v-.18l.02-.18.02-.18.02-.18.02-.18.02-.19.02-.18.03-.19.03-.19.03-.19.03-.19.03-.2.04-.19.03-.2.04-.19.04-.2.04-.2.04-.2.03-.14.01-.06.05-.2.05-.2.04-.21.05-.2.05-.21.06-.21.05-.21.05-.2.06-.22.05-.21.06-.21.06-.22.12-.42.06-.23.06-.2.13-.42.13-.43.13-.43.14-.43.13-.43.04-.12.1-.3.16-.42.1-.29.05-.13.15-.42.16-.41.01-.03.16-.38.17-.4.16-.4.17-.38.13-.3.04-.09.18-.37.18-.37.17-.36.18-.35.17-.34.16-.34.17-.33.16-.31.15-.31.02-.03.3-.54.3-.53.28-.49.25-.43.15-.25.07-.12.2-.3.15-.26.12-.18.07-.1.03-.05.27.12-.27-.12.08-.15.1-.13.12-.11.03-.02.11-.08.16-.06.16-.04.17-.01.17.02zm.13 3.79l-.15.58-.15.6v.02l-.1.33-.1.33-.1.35-.1.35-.1.36-.1.37-.1.38-.11.38-.1.4-.03.08-.1.3-.12.4-.12.4-.12.4-.11.38-.01.02-.13.41-.13.4-.04.14-.09.28-.13.4-.1.3-.04.12-.13.4-.13.41-.14.4-.12.41-.13.4-.05.2-.07.2-.12.4-.06.2-.06.2-.05.2-.06.19-.05.2-.05.18-.05.2-.05.18-.05.19-.05.19-.05.18-.04.18-.01.05-.03.13-.05.18-.04.18-.04.17-.04.17-.03.17-.04.17-.03.17-.03.16-.03.16-.03.16-.02.15-.03.15-.02.15-.02.15-.02.14-.02.14-.01.13-.01.13-.01.13-.01.12-.01.12v.12l-.01.11v.83l.01.12.01.1v.12l.02.11v.11l.02.1v.12l.02.1.01.1.02.11.01.1.02.1.02.1.02.1.01.1.02.1.02.1.03.09.02.09.02.1.02.08.03.1.02.08.03.09.01.04.02.04.02.09.03.08.03.08.03.09.03.08.03.08.03.07.03.08.03.08.04.07.03.08.04.07.03.07.04.08.03.07.04.06.04.07.03.07.04.07.04.06.04.07.04.06.04.06.04.06.04.06.04.06.04.06.05.06.04.05.04.06.05.05.04.06.05.05.04.05.05.05.04.05.05.05.05.05.04.05.05.05.05.04.05.05.04.04.05.04.05.05.05.04.05.04.05.04.05.04.06.04.05.03.05.04.05.04.05.03.05.03.06.04.05.03.05.03.06.03.05.03.05.03.06.03.05.03.06.03.05.02.06.03.05.02.06.03.05.02.06.02.06.02.05.02.06.02.06.02.06.02.05.02.06.02.06.01.05.02.06.01.06.02h.06l.06.02.06.01.05.01.06.01.06.01.06.01h.06l.06.01.06.01h.06l.06.01h.18l.06.01h.35l.06-.01h.06l.06-.01.06-.01h.06l.06-.02h.06l.06-.01.06-.01.06-.01.06-.02h.06l.06-.02.06-.02.06-.01.06-.02.06-.01.06-.02.05-.02.06-.02.06-.02.06-.02.06-.02.06-.02.05-.03.06-.02.06-.03.06-.02.05-.03.06-.03.06-.02.05-.03.06-.03.06-.03.05-.04.06-.03.05-.03.06-.03.05-.04.06-.04.05-.03.06-.04.05-.04.06-.04.05-.04.05-.04.05-.04.06-.04.05-.05.05-.04.05-.05.05-.04.05-.05.05-.05.05-.05.05-.05.05-.05.05-.05.05-.05.05-.05.05-.06.04-.05.05-.06.05-.06.04-.06.05-.06.04-.06.05-.06.04-.06.04-.06.05-.07.04-.06.04-.07.04-.06.04-.07.05-.07.04-.07.03-.07.04-.07.04-.08.04-.07.04-.08.03-.07.04-.08.03-.08.04-.08.03-.08.03-.08.04-.08.03-.09.03-.08.03-.09.03-.08.03-.1.02-.08.03-.1.03-.08.02-.1.03-.09.02-.1.03-.1.02-.09.02-.1.02-.09.02-.1.02-.1.02-.11.01-.1.02-.11.01-.1.02-.11.01-.11.01-.11.01-.11.01-.12.01-.1.01-.12v-.12l.01-.12v-.11l.01-.12v-.8l-.02-.17-.01-.17-.02-.17-.01-.17-.02-.18-.02-.18-.02-.18-.03-.18-.03-.18-.03-.2-.03-.18-.03-.19-.04-.19-.04-.2-.04-.19-.04-.2-.04-.19-.05-.2-.05-.2-.05-.2-.05-.2-.05-.2-.06-.2-.05-.2-.06-.21-.06-.2-.06-.21-.06-.2-.07-.22-.06-.2-.07-.21-.07-.2-.07-.22-.07-.2-.07-.21-.07-.21-.07-.21-.08-.2-.07-.22-.08-.2-.08-.21-.07-.21-.08-.21-.08-.2-.08-.21-.08-.2-.09-.22-.08-.2-.08-.2-.17-.41-.17-.4-.17-.4-.17-.4-.17-.39-.17-.38-.17-.38-.09-.19-.08-.18-.17-.37-.17-.36-.17-.35-.17-.35-.16-.33-.16-.33-.16-.32-.15-.3-.15-.3-.15-.3-.14-.27-.14-.27-.1-.18-.02.1z"/></g></svg>