<?xml version="1.0" encoding="UTF-8" standalone="no"?><!DOCTYPE svg PUBLIC "-//W3C//DTD SVG 1.1//EN" "http://www.w3.org/Graphics/SVG/1.1/DTD/svg11.dtd"><svg width="100%" height="100%" viewBox="0 0 710 369" version="1.1" xmlns="http://www.w3.org/2000/svg" xmlns:xlink="http://www.w3.org/1999/xlink" xml:space="preserve" xmlns:serif="http://www.serif.com/" style="fill-rule:evenodd;clip-rule:evenodd;stroke-linejoin:round;stroke-miterlimit:2;"><g id="g20076"><path id="path19828" d="M480.078,141.856c-4.412,-3.244 -11.419,-5.321 -18.167,-5.191c-7.397,0.13 -14.404,2.466 -19.336,6.359l0,-46.457l-22.968,0l0,151.568l22.968,0l0,-79.158c0,-5.45 4.672,-11.549 13.237,-11.938c3.763,-0.13 9.084,1.557 11.809,5.58c2.855,4.152 2.725,9.862 2.725,15.961l-0.13,69.555l22.969,0l0,-70.334c0,-20.762 -2.595,-28.159 -13.107,-35.945" style="fill:#a0a0a0;fill-rule:nonzero;"/><path id="path19830" d="M293.213,193.893c0,14.793 -0.519,18.946 -0.649,20.243c-0.779,8.305 -4.282,17 -13.885,17c-9.473,0 -13.366,-9.343 -13.756,-17.389c-0.129,0 -0.648,-5.061 -0.648,-19.854c0,-14.794 0.519,-21.023 0.648,-21.023c0,-8.435 4.413,-16.74 13.756,-16.74c9.473,0 13.755,8.305 13.885,16.61c0,0.13 0.649,6.359 0.649,21.153Zm22.19,-17.908c-3.244,-32.313 -21.671,-39.32 -36.724,-39.32c-21.412,0 -34.389,13.626 -36.724,39.32c-0.26,2.076 -0.519,5.839 -0.649,17.908c-0.13,8.824 0.519,16.091 0.649,17.908c1.427,24.006 15.182,38.67 36.724,38.67c21.541,0 35.297,-14.923 36.854,-38.67c0.13,-1.687 0.519,-9.084 0.519,-17.908c0,-4.023 -0.26,-14.794 -0.649,-17.908" style="fill:#a0a0a0;fill-rule:nonzero;"/><path id="path19832" d="M531.596,180.267c0.13,-5.061 0.13,-6.099 0.26,-7.527c0.649,-9.083 4.671,-16.61 14.015,-16.61c11.03,-0.13 13.625,10.641 14.014,16.61c0.26,3.245 0.39,5.321 0.39,7.527l-28.679,0Zm28.419,30.366c0,0 0,1.687 -0.259,3.763c-0.649,5.32 -2.725,16.74 -13.885,16.74c-9.603,0 -13.237,-8.695 -13.885,-17.259c-0.13,-2.466 -0.52,-5.191 -0.52,-14.534l51.259,0c0,0 0,-7.657 -0.13,-12.198c0,-1.817 -0.13,-4.802 -0.519,-11.16c-0.779,-9.733 -4.412,-20.374 -9.992,-27.122c-6.359,-8.045 -15.443,-12.198 -26.213,-12.198c-20.763,0 -33.74,13.496 -36.206,39.32c-0.259,2.335 -0.648,5.58 -0.648,17.908c0,8.824 0.519,16.221 0.648,17.908c1.298,23.617 15.313,38.67 36.206,38.67c20.762,0 34.648,-14.664 36.205,-39.838l-22.061,0" style="fill:#a0a0a0;fill-rule:nonzero;"/><path id="path19834" d="M168.636,19.225l373.471,0l142.745,167.141l-142.745,164.805l-373.471,0l-143.393,-165.324l143.393,-166.622Zm382.425,-18.557l-391.509,0l-158.835,184.53l158.965,183.362l391.379,0l158.317,-182.713l-158.317,-185.179" style="fill:#a0a0a0;fill-rule:nonzero;"/><path id="path19836" d="M173.308,117.2l10.77,0c11.809,0 18.297,6.229 18.557,17.389c0,0.908 0.13,1.816 0.13,3.503c0,2.077 0,2.726 -0.13,3.634c-0.649,6.618 -3.633,18.167 -17.389,18.167l-11.938,0l0,-42.693Zm54.372,121.462l-2.336,-37.113c-1.038,-16.61 -5.32,-26.473 -14.015,-31.534c6.229,-3.763 14.275,-12.976 14.145,-32.312c0,-29.327 -18.297,-39.709 -39.839,-39.968l-35.037,0l0,150.4l22.58,0l0.13,-68.776l12.587,0c7.267,0 15.442,6.358 16.74,24.266l2.336,35.167c0.259,5.061 1.168,9.343 1.168,9.343l22.709,0c0,0 -1.038,-4.152 -1.168,-9.473" style="fill:#a0a0a0;fill-rule:nonzero;"/><path id="path19838" d="M382.493,209.594c0,1.687 -0.13,3.115 -0.26,4.153c-0.648,8.435 -3.503,17.389 -13.885,17.389c-9.473,0 -13.236,-9.733 -14.014,-16.87c-0.39,-4.282 -0.26,-7.656 -0.39,-20.373c-0.13,-14.794 0.39,-18.687 0.649,-21.023c0.779,-9.473 4.412,-16.74 13.755,-16.74c9.733,-0.13 13.756,8.305 13.885,16.61c0,0.13 0.26,2.077 0.39,6.489l22.709,0c0,-1.557 -0.13,-2.855 -0.13,-3.504c-2.595,-31.404 -21.801,-39.06 -36.854,-39.06c-21.411,0 -34.388,13.626 -36.724,39.32c-0.259,2.076 -0.519,5.839 -0.649,17.908c-0.129,8.824 0.519,16.091 0.649,17.908c1.428,24.006 15.183,38.67 36.724,38.67c22.32,0.13 34.648,-13.496 36.854,-38.67c0,-0.909 0.13,-1.558 0.13,-2.207l-22.839,0" style="fill:#a0a0a0;fill-rule:nonzero;"/></g></svg>