<?xml version="1.0" encoding="UTF-8" standalone="no"?><!DOCTYPE svg PUBLIC "-//W3C//DTD SVG 1.1//EN" "http://www.w3.org/Graphics/SVG/1.1/DTD/svg11.dtd"><svg width="100%" height="100%" viewBox="0 0 63 16" version="1.1" xmlns="http://www.w3.org/2000/svg" xmlns:xlink="http://www.w3.org/1999/xlink" xml:space="preserve" style="fill-rule:evenodd;clip-rule:evenodd;stroke-linejoin:round;stroke-miterlimit:1.41421;"><rect id="Artboard1" x="0" y="0" width="62.874" height="15.786" style="fill:none;"/><g><path d="M4.89,10.386c0,0.7 0.3,1.3 0.8,1.6c0.5,0.3 1.1,0.5 1.8,0.5c0.9,0 2.3,-0.4 2.3,-1.6c0,-1.1 -1.5,-1.4 -2.3,-1.6c-3,-0.8 -6.8,-0.8 -6.8,-4.8c-0.1,-3.3 3.7,-4.3 6.5,-4.3c3.2,0 6.6,0.9 6.7,4.7l-4.3,0c0,-0.6 -0.2,-1 -0.6,-1.3c-0.5,-0.2 -1,-0.3 -1.6,-0.3c-0.8,0 -2.1,0.1 -2.1,1.1c0,1.4 3.2,1.6 5.4,2.1c3,0.6 3.7,2.7 3.7,3.9c0,3.9 -3.7,5.2 -7,5.2c-3.5,0 -7,-1.2 -7.2,-5.2l4.7,0Z" style="fill:#a0a0a0;fill-rule:nonzero;"/><path d="M30.99,15.286l-4.7,0l0,-2l-0.1,0c-0.9,1.5 -2.8,2.4 -4.5,2.4c-4.2,0 -5.4,-2.4 -5.4,-6.3l0,-8.8l4.8,0l0,8.5c0,1.9 0.8,2.6 2.4,2.6c1,0 2.6,-0.7 2.6,-3.3l0,-7.8l4.8,0l0,14.7l0.1,0Z" style="fill:#a0a0a0;fill-rule:nonzero;"/><path d="M42.49,15.286l-5.6,0l-4.8,-14.7l4.9,0l2.7,9.7l0.1,0l2.7,-9.7l4.9,0l-4.9,14.7Z" style="fill:#a0a0a0;fill-rule:nonzero;"/><path d="M48.29,5.086c0.1,-1.9 1,-3.1 2.3,-3.9c1.3,-0.7 3,-1 4.7,-1c3.5,0 6.8,0.8 6.8,4.9l0,6.4c0,1.2 0,2.6 0.6,3.8l-4.8,0c-0.2,-0.5 -0.2,-0.9 -0.3,-1.4c-1.2,1.3 -3.1,1.8 -4.8,1.8c-2.8,0 -5,-1.4 -5,-4.4c0,-4.8 5.2,-4.4 8.5,-5.1c0.8,-0.2 1.3,-0.5 1.3,-1.4c0,-1.1 -1.3,-1.5 -2.3,-1.5c-1.3,0 -2.2,0.6 -2.4,1.8l-4.6,0l0,0Zm6.2,7.6c2.3,0 3,-1.3 2.9,-4.3c-0.7,0.4 -1.9,0.5 -3,0.8c-1.1,0.3 -2,0.7 -2,1.9c0.1,1.2 1,1.6 2.1,1.6" style="fill:#a0a0a0;fill-rule:nonzero;"/></g></svg>