<svg viewBox="0 0 360 308" xmlns="http://www.w3.org/2000/svg" fill-rule="evenodd" clip-rule="evenodd" stroke-linejoin="round" stroke-miterlimit="2"><path fill="none" d="M-36.9-13.45h898.79v341.02H-36.9z"/><g fill="#a0a0a0"><path d="M86.4 266.54h-.24l-.24.02-.23.01-.24.01-.23.02-.24.02-.23.02-.23.02-.23.02-.23.03-.23.03-.23.02-.23.04-.23.03-.22.03-.22.04-.23.04-.22.04-.22.04-.22.05-.22.04-.21.05-.22.05-.21.05-.21.05-.22.05-.2.06-.22.06-.2.06-.21.06-.2.06-.2.07-.21.06-.2.07-.2.07-.2.07-.2.07-.19.07-.19.08-.2.08-.18.07-.19.08-.18.08-.19.09-.18.08-.18.08-.11.06-.07.03-.18.09-.18.09-.17.09-.17.09-.18.1-.16.09-.17.1-.17.09-.16.1-.16.1-.16.1-.16.1-.16.1-.15.1-.15.1-.15.11-.15.1-.14.12-.15.1-.14.11-.14.11-.14.12-.13.11-.14.11-.13.12-.13.11-.12.12-.13.12-.12.11-.12.12-.12.12-.11.12-.12.12-.1.12-.11.13-.11.12-.1.12-.1.13-.1.12-.1.13-.1.12-.09.13-.09.13-.09.13-.08.12-.08.13-.08.13-.08.13-.08.13-.07.13-.07.13-.07.13-.07.14-.06.13-.06.13-.06.13-.05.14-.06.13-.05.13-.05.14-.04.13-.05.14-.04.13-.04.14-.03.13-.04.14-.01.07-.02.07-.01.06-.02.07-.01.07-.01.07-.02.07v.07l-.02.06v.07l-.02.07v.07l-.02.07v.07l-.01.07v.07l-.01.07v.07l-.01.07v.06l-.01.07V278.93l.01.07v.07l.02.07v.07l.01.07v.07l.02.07v.07l.02.07v.06l.02.07.01.07.01.07.01.07.02.06.01.07.02.07.01.07.02.06.02.07.01.07.02.06.02.07.04.13.04.14.04.13.05.13.05.13.05.13.05.13.06.13.06.13.06.13.06.13.06.13.07.12.07.13.07.13.08.12.08.13.07.12.09.13.08.12.09.12.08.12.1.13.09.12.1.12.09.12.1.12.1.12.1.11.11.12.11.12.11.11.11.12.12.11.12.11.11.12.13.1.12.12.13.1.12.12.13.1.14.11.13.1.14.11.13.1.14.11.14.1.15.1.15.1.15.1.15.1.15.1.15.1.16.09.15.09.16.1.16.08.17.1.16.08.17.09.17.08.17.09.17.08.17.08.18.09.17.07.18.08.18.08.18.07.18.08.19.07.18.07.2.07.18.07.2.06.18.07.2.06.2.06.19.06.2.06.2.06.2.06.2.05.2.05.2.05.2.05.21.05.21.04.21.05.21.04.21.04.21.04.22.04.21.03.22.03.21.04.22.03.22.02.22.03.22.02.22.03.23.02.22.02.22.01.23.02.22.01.23.01.23.01h.23l.23.01h1.38l.23-.02h.23l.23-.02.23-.01.22-.02.23-.02.23-.02.22-.02.22-.02.22-.03.22-.03.22-.03.22-.03.22-.03.22-.04.21-.03.22-.04.21-.04.21-.04.21-.05.21-.04.21-.05.2-.05.21-.05.2-.05.21-.05.2-.06.2-.05.2-.06.2-.06.2-.06.2-.07.18-.06.2-.07.19-.06.19-.07.18-.07.19-.08.18-.07.19-.07.18-.08.18-.08.17-.07.18-.08.17-.08.18-.09.17-.08.17-.09.16-.08.17-.09.16-.09.16-.09.16-.09.16-.09.16-.1.15-.09.16-.1.15-.09.12-.08.03-.01.14-.1.15-.1.14-.1.14-.1.14-.1.14-.1.13-.11.13-.1.13-.1.13-.11.13-.11.12-.1.13-.12.12-.1.11-.12.12-.1.11-.12.11-.1.11-.12.1-.11.11-.12.1-.11.1-.12.1-.11.1-.12.1-.11.08-.12.1-.11.08-.12.08-.12.08-.12.08-.12.08-.11.07-.12.08-.12.07-.12.06-.12.07-.12.06-.12.06-.12.06-.12.06-.12.05-.12.05-.13.05-.12.05-.12.04-.12.05-.12.04-.12.03-.13.04-.12.03-.12.03-.13.02-.05.01-.07.02-.06v-.06l.02-.06.01-.06.01-.06.02-.06v-.07l.01-.06.01-.06.01-.06.01-.06v-.07l.01-.06.01-.06v-.06l.01-.07v-.06l.01-.06v-.19l.01-.06v-.51l-.01-.06v-.12l-.01-.07v-.06l-.02-.06v-.13l-.02-.06v-.06l-.02-.06v-.06l-.01-.06-.02-.07v-.06l-.02-.06-.01-.06-.01-.06-.02-.06-.01-.06-.02-.06-.01-.06-.02-.06-.01-.06-.04-.13-.03-.12-.04-.12-.04-.12-.05-.12-.04-.12-.05-.12-.05-.11-.05-.12-.05-.12-.06-.12-.06-.12-.06-.12-.06-.11-.05-.09-.02-.03-.06-.12-.07-.11-.08-.12-.07-.12-.08-.11-.07-.12-.08-.11-.09-.12-.08-.11-.09-.12-.09-.11-.09-.11-.1-.12-.09-.11-.1-.11-.1-.11-.1-.11-.1-.11-.12-.11-.1-.11-.1-.1-.02-.01-.1-.1-.12-.12-.12-.1-.12-.11-.12-.1-.12-.11-.13-.1-.13-.11-.03-.03-.1-.08-.12-.1-.13-.1-.14-.11-.14-.1-.13-.1-.14-.1-.15-.1-.03-.03-.1-.08-.15-.1-.15-.1-.15-.1-.15-.1-.15-.1-.16-.1-.15-.09-.16-.1-.16-.08-.16-.1-.17-.09-.16-.09-.17-.09-.14-.07-.03-.02-.17-.09-.17-.1-.17-.08-.17-.1-.18-.08-.18-.09-.18-.08-.18-.09-.18-.08-.19-.08-.18-.08-.2-.08-.18-.08-.2-.08-.19-.07-.2-.07-.19-.08-.2-.07-.2-.07-.2-.07-.2-.06-.2-.07-.21-.06-.15-.04-.06-.02-.2-.07-.22-.07-.2-.06-.22-.06-.22-.07-.21-.06-.22-.05-.22-.06-.22-.05-.22-.06-.22-.05-.22-.05-.23-.05-.23-.04-.23-.05-.19-.03-.04-.01-.23-.05-.23-.04-.23-.04-.24-.04-.23-.04-.24-.04-.16-.02-.08-.01h-.24zm.5-2.53l.26-.03.26-.03.26-.02.26-.03.26-.02.26-.02h.27l.25-.01h.26l.26-.01h1.03l.25.01.26.02h.25l.26.02.25.02.25.02.25.02.25.02.07.01.18.03.25.03.25.04.24.04.25.04.24.05.24.04.24.05.25.05.23.06.24.05.24.06.24.06.23.06.24.06.23.07.23.06.23.07.23.07.23.08.23.07.22.08.23.08.22.08.03.01.19.08.22.1.21.09.22.1.2.09.22.1.21.1.2.1.21.11.2.1.21.12.2.1.2.12.2.11.15.1.05.02.19.12.2.13.18.12.19.13.18.13.18.13.18.13.13.1.05.04.18.13.17.14.17.15.17.14.17.15.16.14.17.15.16.15v.01l.15.14.16.16.15.16.15.16.14.16.15.16.14.16.14.17.14.16.13.17.13.17.13.17.13.18.12.17.12.18.12.18.12.17.11.19.11.18.1.18.11.19.03.05.07.13.1.2.1.18.08.2.1.19.08.2.08.19.08.2.07.2.07.2.07.2.07.2.06.2.05.2.06.2.02.11.03.1.02.11.03.1.02.11.02.1.02.1.02.11.02.11.01.1.02.11.02.1.01.11.01.1.02.11v.11l.02.1.01.12v.1l.02.11v.22l.01.1v.11l.01.11v.65l-.01.1v.12l-.01.1v.11l-.02.1v.12l-.02.1v.11l-.02.1-.02.11v.1l-.02.11-.02.11-.02.1-.02.11-.01.1-.02.11-.03.1-.02.1-.02.11-.02.1-.03.1-.02.11-.03.1-.03.11-.05.2-.07.2-.06.2-.07.2-.07.2-.07.2-.08.2-.08.2-.08.19-.1.19-.08.19-.1.19-.1.18-.1.19-.1.19-.1.18-.1.18-.12.18-.11.18-.12.17-.12.18-.12.17-.13.17-.13.17-.13.17-.13.17-.14.16-.13.17-.14.16-.15.16-.14.16-.15.16-.15.15-.15.15-.16.16-.15.15-.16.14-.16.15-.17.15-.16.14-.17.14-.17.14-.17.14-.18.14-.17.13-.18.13-.18.14-.18.13-.19.12-.18.13-.2.12-.18.13-.2.12-.02.02-.17.1-.2.11-.19.12-.2.11-.2.11-.2.11-.2.11-.21.11-.21.1-.2.1-.22.1-.21.1-.22.1-.21.1-.22.1-.22.08-.22.1-.22.08-.22.09-.23.08-.22.08-.23.08-.23.08-.23.08-.23.07-.24.08-.23.07-.24.07-.23.06-.24.07-.24.06-.24.06-.24.06-.25.06-.24.05-.25.05-.24.05-.25.05-.25.05-.25.04-.25.04-.25.04-.26.04-.25.04-.26.03-.25.03-.26.03-.26.03-.26.02-.26.03-.26.02-.26.02-.26.01-.27.02h-.26l-.26.02h-.54l-.26.01H86.3l-.2-.01-.26-.01-.27-.02-.27-.01-.26-.02-.26-.02-.27-.02-.26-.02-.26-.03-.26-.02-.26-.03-.25-.03-.26-.04-.25-.04-.26-.03-.25-.04-.25-.05-.26-.04-.24-.05-.25-.05-.25-.05-.25-.05-.24-.06-.25-.05-.24-.06-.24-.06-.24-.06-.24-.07-.23-.07-.24-.07-.24-.07-.23-.07-.23-.07-.23-.08-.23-.08-.23-.08-.22-.08-.23-.08-.22-.09-.22-.09-.22-.08-.22-.1-.22-.09-.21-.1-.21-.09-.22-.1-.2-.1-.21-.1-.21-.1-.2-.1-.2-.11-.21-.11-.2-.11-.2-.11-.2-.12-.19-.11-.19-.12-.19-.12-.19-.12-.19-.12-.18-.12-.18-.13-.18-.12-.18-.13-.18-.13-.17-.13-.02-.01-.16-.13-.17-.13-.17-.14-.16-.13-.17-.14-.16-.14-.16-.15-.16-.14-.15-.14-.16-.15-.15-.15-.15-.15-.14-.15-.15-.15-.14-.16-.14-.15-.13-.16-.14-.16-.13-.16-.13-.16-.12-.16-.13-.16-.12-.17-.12-.16-.11-.17-.12-.17-.1-.17-.12-.17-.1-.18-.1-.17-.1-.18-.1-.17-.1-.18-.08-.18-.1-.18-.08-.18-.08-.19-.08-.18-.07-.19-.07-.18-.07-.19-.07-.19-.06-.19-.06-.19-.06-.19-.05-.2-.05-.18-.02-.1-.03-.1-.02-.1-.02-.1-.02-.1-.02-.1-.02-.09-.01-.1-.02-.1-.01-.1-.02-.1-.01-.1-.02-.1v-.1l-.02-.1v-.1l-.02-.1v-.1l-.01-.1-.01-.1v-.1l-.01-.1v-1.01l.01-.1v-.1l.01-.1.01-.1.01-.1.01-.1.01-.1.02-.1v-.1l.02-.1.02-.1.01-.1.02-.1.02-.1.01-.1.02-.09.02-.1.03-.1.02-.1.02-.09.02-.1.03-.1.02-.09.03-.1.05-.18.06-.2.06-.18.07-.19.06-.19.07-.18.08-.18.07-.19.08-.18.09-.18.08-.18.1-.17.08-.18.1-.17.1-.18.1-.17.1-.17.1-.17.11-.17.11-.16.12-.17.12-.16.11-.16.13-.16.12-.16.13-.16.13-.15.13-.16.13-.15.14-.15.14-.15.14-.15.14-.15.15-.14.15-.15.15-.14.15-.14.15-.14.16-.14.16-.14.16-.13.17-.13.16-.13.17-.13.17-.13.17-.13.17-.12.18-.13.17-.12.18-.12.18-.12.19-.12.18-.11.19-.12.19-.1.19-.12.19-.1.2-.11.19-.1.2-.11.2-.1.2-.1.2-.1.2-.1.2-.1.21-.09.08-.03.13-.06.21-.09.21-.09.21-.08.22-.09.22-.08.21-.08.22-.08.22-.08.22-.07.23-.07.22-.07.23-.07.23-.07.22-.07.23-.06.24-.06.23-.06.23-.06.24-.06.23-.05.24-.05.24-.05.24-.05.24-.05.24-.04.24-.04.25-.04.24-.04.25-.04.24-.03.25-.03.25-.03.25-.03.25-.03.26-.02.25-.02.25-.02.25-.02h.26l.26-.02.25-.01.26-.01h.52l.26-.01h.62l.16-.03zM132.34 266.66h-.24l-.24.01-.24.02-.23.01-.24.01-.23.02-.23.02-.24.02-.23.03-.23.02-.23.03-.23.03-.22.03-.23.03-.22.04-.23.03-.22.04-.22.04-.22.05-.22.04-.22.05-.22.04-.21.05-.22.05-.2.06-.22.05-.21.06-.2.05-.22.06-.2.06-.2.07-.21.06-.2.07-.2.06-.2.07-.2.07-.2.08-.19.07-.2.07-.18.08-.2.08-.18.08-.19.08-.18.08-.19.09-.18.08-.1.05-.08.04-.17.08-.18.1-.17.08-.18.1-.17.09-.17.1-.16.09-.17.1-.16.1-.16.09-.16.1-.16.1-.16.1-.15.1-.15.11-.15.1-.15.11-.15.11-.14.11-.14.11-.14.11-.14.11-.14.11-.13.12-.13.11-.13.12-.12.11-.13.12-.12.12-.12.12-.12.12-.11.12-.12.12-.1.12-.12.12-.1.13-.1.12-.1.12-.1.13-.1.12-.1.13-.1.13-.08.12-.09.13-.08.13-.09.13-.08.13-.07.13-.08.13-.07.13-.07.13-.07.13-.07.13-.06.13-.06.14-.06.13-.06.13-.05.14-.05.13-.05.13-.05.14-.04.13-.04.14-.04.13-.04.14-.03.14-.01.06-.02.07-.02.07-.01.07-.01.07-.02.06v.07l-.02.07-.01.07-.01.07-.01.07-.01.07v.07l-.02.06v.07l-.01.07v.07l-.01.07v.07l-.01.07V278.35l-.01.07V278.91l.01.07v.07l.01.07v.07l.01.07.01.07v.07l.02.07v.06l.01.07.01.07.01.07.02.07v.07l.02.06.01.07.02.07.01.07.02.06.01.07.02.07.01.07.02.06.02.07.02.06.04.14.04.13.04.13.05.14.05.13.05.13.05.13.06.13.05.13.06.13.07.12.06.13.07.13.07.13.07.12.08.13.07.12.08.13.08.12.09.13.08.12.09.12.1.12.08.12.1.12.1.12.1.12.1.12.1.12.1.12.12.11.1.12.12.11.12.12.11.11.12.11.12.11.13.11.12.11.13.11.13.11.13.1.14.11.13.1.14.11.14.1.14.1.15.1.14.1.15.1.15.1.16.1.15.1.15.1.16.09.16.09.16.09.17.09.16.09.17.08.16.09.17.08.18.09.17.08.17.08.18.08.18.08.18.07.18.08.18.07.19.07.18.08.19.06.19.07.19.07.2.06.19.07.19.06.2.06.2.06.2.05.2.06.2.05.2.06.2.05.2.05.21.04.21.05.2.04.22.04.21.04.21.04.22.04.21.04.22.03.21.03.22.03.22.03.22.02.22.03.22.02.22.02.23.02.22.02.23.01.22.01.23.02h.23l.22.01h.23l.23.01h.93l.23-.01.23-.01.23-.01.23-.01.23-.02.22-.02.23-.01.22-.02.23-.03.22-.02.22-.03.22-.02.22-.03.22-.03.22-.04.22-.03.21-.04.22-.04.2-.04.22-.04.21-.04.21-.05.2-.04.22-.05.2-.05.2-.06.2-.05.21-.05.2-.06.2-.06.2-.06.2-.06.19-.06.2-.07.18-.06.2-.07.18-.07.2-.07.18-.07.18-.07.18-.08.18-.07.18-.08.18-.08.18-.08.17-.08.17-.08.18-.09.16-.08.17-.09.17-.08.16-.1.16-.08.16-.1.16-.08.16-.1.15-.1.15-.09.16-.1.12-.07.02-.02.15-.1.15-.1.14-.1.14-.1.14-.1.14-.1.13-.1.13-.1.13-.11.13-.1.13-.12.12-.1.12-.11.12-.11.12-.11.12-.11.11-.11.11-.11.11-.12.1-.1.11-.12.1-.12.1-.11.1-.12.1-.11.09-.12.09-.11.09-.12.09-.12.08-.11.08-.12.08-.12.08-.12.07-.12.07-.12.07-.12.07-.12.07-.12.06-.12.06-.12.06-.12.06-.12.05-.12.05-.12.05-.12.05-.12.04-.12.04-.13.04-.12.04-.12.04-.12.03-.12.03-.13.02-.06.01-.06.01-.06.02-.06v-.06l.02-.07.01-.06.01-.06.01-.06.01-.06.01-.07.01-.06v-.06l.02-.06v-.13l.01-.06v-.06l.01-.06v-.07l.01-.06V278.32l-.01-.06v-.06l-.01-.06v-.07l-.01-.06-.01-.06-.01-.06v-.06l-.02-.07v-.06l-.02-.06v-.06l-.02-.06-.01-.06-.01-.06-.02-.07v-.06l-.02-.06-.02-.06-.01-.06-.02-.06-.01-.05-.04-.13-.03-.12-.04-.12-.04-.12-.05-.12-.04-.12-.05-.12-.05-.12-.05-.12-.06-.12-.05-.12-.06-.11-.06-.12-.06-.12-.05-.08-.02-.04-.07-.11-.07-.12-.07-.12-.07-.11-.08-.12-.07-.11-.09-.12-.08-.11-.08-.12-.1-.11-.08-.12-.1-.1-.09-.12-.1-.11-.1-.12-.1-.1-.1-.12-.1-.1-.1-.12-.12-.1-.1-.1v-.01l-.12-.11-.11-.11-.12-.1-.12-.12-.12-.1-.12-.1-.13-.11-.13-.1-.03-.04-.1-.07-.13-.1-.13-.11-.13-.1-.14-.1-.14-.1-.14-.11-.14-.1-.03-.02-.11-.08-.15-.1-.14-.1-.15-.1-.15-.1-.15-.1-.16-.1-.15-.1-.16-.09-.16-.09-.16-.1-.17-.08-.16-.1-.17-.08-.15-.08-.02-.01-.17-.1-.17-.09-.17-.09-.17-.09-.18-.08-.18-.1-.18-.08-.18-.08-.18-.09-.19-.08-.18-.08-.2-.08-.18-.07-.2-.08-.19-.08-.2-.07-.2-.07-.19-.07-.2-.07-.2-.07-.2-.07-.2-.06-.22-.06-.14-.05-.06-.02-.21-.07-.21-.06-.21-.07-.21-.06-.22-.06-.21-.06-.22-.06-.22-.06-.22-.05-.22-.05-.22-.05-.23-.05-.22-.05-.23-.05-.23-.04-.19-.04h-.04l-.23-.05-.23-.04-.23-.05-.24-.04-.24-.04-.23-.03-.17-.03h-.31zm.5-2.53l.26-.03.26-.03.26-.03.26-.02.26-.02.26-.02h.04l.22-.01h.26l.26-.01h1.28l.26.01.26.01.25.01.25.02.25.02.26.02.25.02.25.02h.07l.18.03.25.04.24.04.25.04.24.04.25.04.24.05.24.05.24.05.24.05.24.06.24.05.24.06.23.06.23.07.24.06.23.07.23.07.23.07.23.07.22.08.23.08.22.08.23.08.03.01.19.08.21.09.22.1.21.09.22.1.2.1.22.1.2.1.21.1.2.11.21.11.2.11.2.11.2.12.15.09.05.03.19.12.19.12.19.13.18.13.19.12.18.14.18.13.13.1.05.03.18.14.17.14.17.14.17.15.17.14.16.15.16.15.16.15.02.01.14.14.15.16.16.15.14.16.15.16.15.16.14.17.14.16.13.17.14.17.13.17.13.17.13.17.12.18.12.17.12.18.12.18.1.18.12.18.1.19.1.18.04.05.07.14.1.19.1.19.08.2.09.18.09.2.08.2.08.2.07.2.07.19.07.2.06.2.07.2.05.21.06.2.02.11.03.1.02.1.02.11.03.1.02.11.02.1.02.11.02.1.01.11.02.1.01.11.02.1.01.12.02.1v.1l.02.12v.1l.02.1v.12l.01.1v.11l.01.11v.32l.01.11V279.02l-.01.11v.11l-.01.11-.01.1-.01.12-.01.1-.01.1-.01.12-.01.1-.02.1-.01.11-.02.11-.01.1-.02.11-.02.1-.02.11-.02.1-.02.11-.02.1-.02.1-.03.11-.02.1-.03.1-.02.11-.03.1-.06.2-.06.2-.06.21-.07.2-.07.2-.07.2-.08.2-.08.19-.09.2-.08.18-.1.2-.09.18-.1.19-.1.19-.1.18-.1.18-.11.19-.11.17-.12.18-.11.18-.12.17-.13.18-.12.17-.13.17-.13.17-.13.16-.14.17-.14.16-.14.17-.14.16-.14.15-.15.16-.15.16-.15.15-.16.15-.16.15-.15.15-.17.15-.16.14-.17.15-.16.14-.17.14-.18.14-.17.13-.18.14-.17.13-.18.13-.19.13-.18.13-.19.13-.18.12-.2.12-.19.13-.03.01-.16.1-.2.12-.2.12-.2.1-.2.12-.2.11-.2.1-.2.12-.21.1-.21.1-.21.1-.21.1-.22.1-.21.1-.22.09-.22.1-.22.08-.22.09-.23.08-.22.09-.23.08-.22.08-.23.08-.23.08-.23.07-.24.07-.23.07-.24.07-.24.07-.23.06-.24.07-.24.06-.25.06-.24.05-.24.06-.25.05-.25.05-.24.05-.25.04-.25.05-.25.04-.26.04-.25.04-.25.03-.26.04-.25.03-.26.03-.26.03-.26.02-.26.02-.26.02-.26.02-.26.02-.27.01-.26.01-.27.01h-.26l-.27.01h-1.34l-.27-.02-.26-.01-.27-.01-.26-.02-.26-.02-.27-.02-.26-.02-.26-.03-.26-.03-.26-.03-.25-.03-.26-.03-.26-.04-.25-.04-.25-.04-.26-.04-.25-.04-.25-.05-.24-.05-.25-.05-.25-.05-.24-.06-.25-.06-.24-.05-.24-.07-.24-.06-.24-.06-.24-.07-.23-.07-.24-.07-.23-.07-.23-.08-.23-.07-.23-.08-.23-.08-.22-.08-.23-.09-.22-.08-.22-.09-.22-.09-.22-.09-.22-.1-.21-.09-.22-.1-.2-.1-.22-.1-.2-.1-.21-.1-.2-.1-.21-.1-.2-.12-.2-.1-.2-.12-.2-.11-.19-.12-.2-.11-.18-.12-.2-.12-.18-.12-.18-.13-.19-.12-.18-.13-.18-.13-.17-.12-.18-.14-.17-.13-.17-.13-.17-.14-.17-.14-.16-.14-.16-.14-.16-.14-.16-.14-.15-.15-.16-.14-.15-.15-.15-.15-.14-.15-.15-.15-.14-.16-.14-.15-.13-.16-.14-.16-.13-.16-.13-.16-.13-.16-.12-.17-.12-.16-.12-.17-.12-.16-.11-.17-.11-.17-.1-.18-.11-.17-.1-.17-.1-.18-.1-.18-.1-.17-.09-.18-.08-.18-.09-.19-.08-.18-.08-.18-.07-.19-.08-.19-.07-.18-.06-.2-.06-.18-.06-.2-.06-.18-.05-.2-.05-.19-.02-.1-.03-.1-.02-.1-.02-.09-.02-.1-.02-.1-.02-.1-.01-.1-.02-.1-.02-.1-.01-.09-.01-.1-.02-.1-.01-.1-.01-.1-.01-.1-.01-.1v-.1l-.02-.1v-.2l-.01-.1v-.2l-.01-.1v-.61l.01-.1v-.1l.02-.1v-.1l.01-.1.01-.1.01-.1.01-.1.01-.1.02-.1.01-.1.02-.1.01-.1.02-.1.01-.1.02-.1.02-.1.02-.1.02-.09.02-.1.03-.1.02-.09.02-.1.03-.1.03-.1.05-.18.06-.19.06-.19.06-.18.07-.19.07-.18.08-.19.07-.18.08-.18.08-.18.09-.18.09-.18.1-.17.09-.18.1-.17.1-.17.1-.17.1-.17.11-.17.11-.16.12-.17.11-.16.12-.16.12-.17.13-.15.13-.16.13-.16.13-.15.13-.16.14-.15.14-.15.14-.15.14-.14.15-.15.15-.14.15-.14.15-.15.15-.13.16-.14.16-.14.16-.13.16-.14.17-.13.17-.13.16-.13.18-.12.17-.13.17-.12.18-.12.18-.12.18-.12.18-.12.19-.11.19-.12.18-.11.2-.11.19-.11.19-.1.2-.11.2-.1.2-.1.2-.1.2-.1.2-.1.2-.1.2-.1.1-.03.12-.05.2-.1.22-.08.21-.09.22-.08.21-.08.22-.08.22-.08.22-.08.22-.07.23-.08.22-.07.23-.07.22-.07.23-.06.23-.06.23-.07.24-.06.23-.05.24-.06.23-.05.24-.06.24-.05.24-.04.24-.05.24-.04.24-.05.25-.04.24-.03.25-.04.24-.03.25-.04.25-.03.25-.02.25-.03.25-.02.26-.02.25-.02.25-.02.26-.01.25-.02h.26l.26-.01.26-.01h1.04l.09-.01.17-.02z"/><path d="M172.78 278.06l-.23.14-.25.1-.26.06-.26.03-2.5.04-64.2 1-53.77.82-.36-.02-.34-.08-.33-.13-.3-.17-.27-.23-.23-.26-.2-.3-.16-.32-.17-.33-.17-.32-.17-.33-.17-.33-.17-.32-.16-.33-.17-.33-.16-.33-.16-.34-.17-.33-.16-.33-.16-.34-.16-.33-.16-.34-.15-.34-.16-.34-.16-.34-.15-.34-.16-.34-.15-.34-.15-.34-.15-.35-.15-.34-.15-.35-.15-.35-.15-.34-.15-.35-.14-.35-.15-.35-.14-.35-.14-.35-.15-.36-.14-.35-.14-.35-.14-.36-.13-.36-.14-.35-.14-.36-.13-.36-.14-.36-.13-.36-.13-.36-.14-.36-.13-.37-.13-.36-.13-.36-.12-.37-.13-.36-.13-.37-.12-.37-.13-.37-.12-.36-.12-.38-.12-.37-.12-.37-.12-.37-.12-.37-.12-.38-.12-.37-.11-.38-.12-.37-.11-.38-.11-.38-.12-.37-.1-.38-.12-.38-.1-.38-.11-.38-.11-.39-.1-.38-.11-.38-.1-.39-.11-.38-.1-.39-.1-.38-.1-.39-.1-.39-.1-.38-.1-.4-.1-.38-.1-.4-.09-.38-.1-.4-.09-.39-.09-.4-.1-.38-.08-.4-.1-.4-.08-.39-.09-.4-.08-.4-.09-.39-.08-.4-.09-.4-.08-.4-.08-.4-.08-.4-.08-.4-.08-.4-.08-.4-.08-.4-.07-.41-.08-.4-.07-.41-.08-.4-.07-.41-.07-.4-.07-.41-.07-.41-.07-.41-.07-.41-.06-.41-.07-.41-.06-.41-.07-.41-.06-.41-.06-.42-.06-.41-.06-.41-.06-.42-.06-.41-.06-.42-.05-.41-.06-.42-.05-.42-.05-.41-.06-.42-.05-.42-.05-.42-.05-.42-.05-.42-.04-.42-.05-.42-.05-.42-.04-.42-.04-.43-.05-.42-.04-.42-.04-.43-.04-.42-.04-.43-.03-.42-.04-.43-.04-.42-.03-.43-.04-.43-.03-.43-.03-.42-.03-.43-.03-.43-.03-.43-.03-.43-.03-.43-.02-.43-.03-.43-.02-.43-.03-.44-.02-.43-.02-.43-.02-.43-.02-.44-.02-.43-.01-.44-.02-.43-.02-.44-.01-.43-.01-.44-.02-.43v-.44l-.02-.44v-.44l-.02-.43v-.44l-.01-.44v-.44l-.01-.44v-.88l-.01-.44v-2.21l.01-.44v-.44l.01-.44v-.45l.02-.44v-.45l.01-.44.02-.44v-.45l.02-.44.01-.45.02-.45.02-.44.01-.45.02-.44.02-.45.02-.45.02-.45.02-.44.02-.45.03-.45.02-.45.03-.45.03-.44.02-.45.03-.45.03-.45.03-.45.03-.45.04-.45.03-.45.04-.45.03-.45.04-.46.04-.45.03-.45.04-.45.05-.45.04-.45.04-.46.04-.45.05-.45.04-.45.05-.46.05-.45.05-.45.05-.46.05-.45.05-.46.05-.45.06-.45.04-.37.01-.09.06-.45.05-.46.06-.45.06-.46.06-.45.06-.46.06-.45.07-.46.06-.45.06-.46.07-.45.07-.46.07-.45.06-.46.07-.46.08-.45.07-.46.07-.46.07-.45.1-.56.09-.55.1-.55.09-.55.1-.55.1-.56.1-.55.1-.55.1-.55.1-.55.1-.55.11-.55.11-.55.1-.55.12-.54.11-.55.12-.55.11-.55.12-.54.11-.55.12-.55.12-.54.13-.55.12-.54.12-.55.13-.54.13-.54.13-.55.13-.54.13-.54.13-.54.13-.54.14-.54.14-.54.14-.54.13-.54.15-.54.14-.54.14-.53.15-.54.14-.53.15-.54.15-.54.15-.53.15-.53.15-.54.16-.53.15-.53.16-.53.16-.53.16-.53.16-.53.16-.53.17-.53.16-.53.17-.52.16-.53.17-.53.17-.52.17-.52.18-.53.17-.52.18-.52.17-.52.18-.53.18-.52.18-.51.18-.52.18-.52.19-.52.18-.51.2-.52.18-.52.19-.51.19-.51.19-.51.2-.52.19-.5.2-.52.19-.5.2-.52.2-.5.2-.51.2-.5.2-.51.2-.5.21-.51.21-.5.2-.5.22-.5.2-.5.22-.5.21-.5.22-.5.21-.5.22-.5.22-.49.21-.5.23-.48.22-.5.22-.49.22-.49.23-.48.22-.5.23-.48.23-.49.23-.48.23-.49.23-.48.24-.48.23-.48.24-.48.24-.48.23-.48.24-.48.24-.47.25-.48.24-.47.24-.47.25-.48.25-.47.24-.47.25-.47.25-.46.25-.47.26-.46.25-.47.25-.46.24-.37.3-.32.34-.28.37-.23.41-.17.43-.1.44-.04 7.62-.12 86.49-1.27 46.51-.66.54.04.52.12.5.2.46.28.4.34.35.41.28.46.2.5h.01l.19.58.19.6.18.6.19.59.18.6.18.6.18.6.17.61.17.61.17.6.17.62.16.61.17.62.16.61.15.62.16.62.15.62.15.62.15.62.15.63.14.63.14.63.14.62.13.64.14.63.13.63.13.64.12.64.13.64.12.64.12.64.12.64.11.65.11.64.11.65.1.65.11.65.1.65.05.3.06.35.1.65.09.66.09.66.09.65.09.66.08.66.08.66.08.67.08.66.08.66.07.67.07.67.07.67.06.67.07.67.06.67.06.67.05.67.06.68.05.67.05.68.04.68.05.68.04.68.04.68.03.68.04.68.03.69.03.68.03.69.02.68.02.69.02.69.02.69.01.69.02.69v.69l.02.69V160.52l-.01.7-.01.7-.01.7-.02.7-.02.7-.02.7-.02.7-.02.7-.03.7-.03.7-.03.7-.03.7-.04.7-.04.71-.04.7-.05.71-.04.7-.05.71-.05.71-.06.7-.05.72-.06.7-.06.71-.07.71-.06.7-.07.72-.07.7-.08.72-.07.71-.08.71-.08.71-.08.71-.01.1-.08.62-.09.7-.1.72-.09.71-.1.71-.1.72-.1.7-.1.72-.1.72-.12.7-.11.72-.12.72-.11.7-.06.37-.06.35-.13.76-.14.75-.14.75-.13.75-.15.75-.14.75-.15.75-.15.75-.15.75-.15.74-.16.75-.15.7-.01.04-.17.75-.17.74-.17.74-.17.74-.18.74-.17.74-.19.73-.18.74-.18.74-.2.73-.18.73-.2.73-.2.74-.19.73-.2.72-.2.73-.2.73-.22.72-.2.73-.22.72-.22.72-.21.72-.22.72-.22.72-.02.04-.21.67-.24.72-.23.7-.24.72-.24.7-.24.72-.24.7-.25.71-.25.7-.25.7-.25.7-.26.7-.25.7-.26.7-.27.7-.26.69-.27.69-.27.7-.27.68-.27.69-.28.68-.27.69-.28.68-.29.68-.28.68-.29.67-.29.68-.29.67-.29.68-.3.67-.3.66-.3.67-.3.67-.3.66-.3.66-.31.66-.31.66-.31.65-.32.66-.32.65-.31.65-.32.65-.33.64-.18.36-.14.28-.34.64-.33.64-.34.64-.33.63-.34.63-.35.63-.34.63-.35.62-.34.63-.35.62-.35.61-.36.62-.35.61-.36.62-.36.6-.36.61-.37.6-.36.61-.37.6-.37.6-.37.6-.37.59-.38.6-.37.58-.38.59-.38.58-.38.58-.39.58-.38.58-.4.57-.38.57-.4.57-.14.2-.25.37-.4.56-.4.56-.4.56-.4.55-.4.55-.41.55-.41.55-.41.54-.41.54-.42.54-.41.54-.42.53-.42.53-.42.53-.1.13-.32.4-.18.2-.2.16zM154.44 111.9l-83.7.67v-.03l-7.67.09-.17.3-.24.46-.24.45-.25.45-.24.45-.24.46-.24.46-.24.45-.24.46-.23.46-.24.46-.23.46-.24.47-.23.46-.23.47-.23.46-.23.47-.23.47-.22.46-.23.47-.22.48-.23.47-.22.47-.22.47-.22.48-.22.47-.21.48-.22.48-.22.48-.21.48-.21.48-.21.48-.21.48-.21.48-.21.49-.2.48-.21.5-.2.48-.21.48-.2.5-.2.48-.2.5-.2.49-.2.49-.2.49-.2.5-.19.49-.19.5-.2.49-.18.5-.19.5-.19.5-.18.5-.19.5-.18.5-.19.5-.18.5-.18.5-.18.5-.18.51-.17.5-.18.51-.17.5-.18.52-.17.5-.17.51-.17.51-.16.51-.17.52-.17.5-.16.52-.16.51-.17.52-.16.51-.16.52-.15.51-.16.52-.16.52-.15.51-.15.52-.15.52-.16.52-.14.52-.15.52-.15.52-.14.52-.15.53-.14.52-.14.52-.14.53-.14.52-.14.53-.13.52-.14.53-.13.52-.13.53-.13.53-.13.53-.13.53-.13.52-.12.53-.13.53-.12.53-.12.54-.12.53-.12.53-.12.53-.11.53-.12.54-.11.53-.11.53-.11.54-.11.53-.11.54-.1.53-.11.54-.1.54-.11.53-.1.54-.1.54-.1.53-.1.54-.1.54-.09.54-.09.54-.07.44-.08.45-.07.44-.08.44-.07.45-.07.44-.07.45-.07.44-.06.45-.07.44-.07.44-.06.45-.06.44-.07.44-.06.45-.06.44-.06.44-.06.45-.06.44v.08l-.05.36-.06.44-.05.45-.06.44-.05.44-.05.44-.05.44-.05.45-.05.44-.05.44-.05.44-.04.44-.05.44-.04.44-.05.44-.04.44-.04.44-.04.44-.04.44-.04.44-.04.44-.03.44-.04.44-.03.44-.04.44-.03.43-.03.44-.03.44-.03.44-.03.43-.03.44-.02.44-.03.43-.02.44-.03.44-.02.43-.02.44-.02.43-.02.44-.02.43-.02.44-.02.43-.01.43-.02.44-.01.43-.02.43v.44l-.02.43-.01.43-.01.43v.43l-.02.43v.87l-.01.43v.85l-.01.43v2.14l.01.43v.43l.01.42v.43l.02.42v.43l.01.42.02.43v.42l.02.43.01.42.02.42.01.43.02.42.02.42.02.42.01.42.03.42.02.42.02.42.02.42.03.42.02.42.03.41.02.42.03.42.03.41.03.42.03.42.03.41.03.42.04.41.03.41.04.42.03.4.04.42.04.41.04.41.04.41.04.41.04.41.04.41.05.41.04.41.05.4.04.41.05.41.05.4.05.41.05.4.05.41.05.4.06.41.05.4.06.4.05.4.06.4.06.4.05.4.06.4.07.4.06.4.06.4.06.4.07.4.06.4.07.39.06.4.07.39.07.39.07.4.07.38.07.4.08.39.07.39.07.39.08.39.08.39.07.38.08.4.08.38.08.38.08.39.08.38.09.39.08.38.08.38.09.39.08.38.1.38.08.38.09.38.09.38.09.37.1.38.08.38.1.37.1.38.09.37.1.38.1.37.09.37.1.37.1.37.1.37.1.37.1.37.1.37.11.37.1.36.11.37.11.36.1.37.12.36.1.36.12.37.1.36.12.36.12.36.11.35.12.36.11.36.12.36.12.35.12.36.12.35.11.35.13.36.12.35.12.35.13.35.12.35.13.35.12.34.13.35.13.34.13.35.13.34.13.35.13.34.14.34.13.34.14.34.13.34.14.34.14.33.13.34.14.34.14.33.14.33.15.34.14.33.14.33.15.33.14.33.15.33.14.32.15.33.15.33.15.32.15.32.15.33.16.32.15.32.15.32.16.32.15.31.16.32.16.32.16.31.02.05 53.55-.4 63.09-.46 1.55-.01.28-.4.37-.54.37-.54.37-.55.37-.55.37-.55.37-.56.36-.55.36-.56.36-.57.36-.56.36-.57.35-.57.35-.57.23-.36.12-.21.36-.58.35-.57.34-.58.35-.58.34-.58.35-.59.34-.59.33-.59.34-.59.33-.6.34-.59.33-.6.32-.6.33-.6.33-.6.32-.61.32-.6.32-.62.31-.61.32-.62.3-.61.32-.62.3-.62.31-.63.3-.62.3-.63.3-.63.3-.63.3-.63.3-.63.29-.64.29-.64.13-.28.16-.35.29-.64.29-.64.28-.65.29-.64.28-.64.28-.65.28-.65.27-.65.28-.66.27-.65.27-.66.27-.65.26-.66.26-.66.26-.67.26-.66.26-.67.25-.66.26-.67.25-.67.24-.67.25-.68.24-.67.24-.68.24-.68.24-.67.23-.68.24-.69.22-.68.23-.68.23-.69.22-.69.22-.69.22-.69.22-.69.21-.69.21-.7.21-.69.2-.7.21-.69.2-.7.2-.7.2-.66v-.04l.2-.7.2-.7.2-.7.2-.7.18-.71.2-.7.18-.71.19-.71.18-.71.18-.71.17-.71.18-.71.17-.72.17-.71.17-.72.16-.71.17-.72.16-.72.16-.72.15-.71.15-.72.16-.73.14-.72.15-.72v-.04l.15-.68.14-.73.14-.72.14-.73.14-.72.13-.73.13-.73.13-.72.13-.73.12-.73.13-.73.12-.73.05-.34.06-.35.1-.7.12-.69.1-.69.1-.69.1-.69.1-.69.1-.69.1-.69.09-.69.09-.69.08-.68.09-.7.07-.6v-.08l.09-.69.08-.69.08-.68.07-.7.07-.68.07-.68.07-.69.07-.69.06-.68.06-.69.06-.68.05-.68.05-.69.06-.68.04-.68.05-.69.04-.68.05-.68.03-.68.04-.68.04-.68.03-.68.03-.67.02-.68.03-.68.02-.68.02-.67.02-.68.02-.67v-.67l.02-.68v-.67l.01-.25v-1.09l.01-.67V156.43l-.01-.66-.01-.67-.01-.66-.02-.67-.01-.66-.02-.66-.02-.67-.03-.66-.02-.66-.03-.65-.03-.66-.03-.66-.04-.66-.04-.65-.04-.65-.04-.66-.04-.65-.05-.65-.05-.65-.05-.65-.05-.64-.06-.65-.06-.65-.06-.64-.06-.64-.07-.64-.07-.64-.06-.64-.08-.64-.07-.64-.08-.63-.08-.64-.08-.63-.08-.63-.09-.63-.09-.63-.09-.63-.05-.33-.04-.3-.1-.62-.1-.63-.1-.62-.1-.62-.1-.62-.1-.62-.11-.61-.11-.62-.11-.61-.12-.61-.12-.61-.12-.61-.12-.61-.12-.6-.13-.61-.13-.6-.13-.6-.14-.6-.13-.6-.14-.6-.14-.6-.14-.59-.15-.59-.14-.59-.15-.59-.15-.59-.16-.58-.15-.58-.16-.58-.16-.58-.17-.58-.16-.58-.17-.57-.14-.49-45.05.4z"/><path d="M203.86 108.35l-.18.24-.2.21-.25.18-.28.12-.28.08-.3.03-1.55.03-39.81.73-95.33 1.73-.4-.03-.23-.04-.18-.05-.39-.15-.35-.2-.32-.27-.28-.31-.22-.35-.16-.38-.14-.37-.13-.39-.12-.38-.13-.38-.12-.39-.12-.38-.12-.39-.12-.39-.11-.38-.11-.39-.1-.39-.11-.38-.1-.4-.1-.38-.1-.39-.1-.39-.1-.39-.09-.39-.08-.39-.09-.39-.08-.39-.08-.39-.08-.4-.08-.38-.07-.4-.07-.39-.07-.39-.07-.4-.06-.39-.06-.39-.06-.4-.05-.39-.06-.4-.05-.39-.05-.4-.04-.39-.04-.39-.04-.4-.04-.39-.04-.4-.03-.4-.03-.39-.03-.4-.02-.39-.03-.4-.02-.39-.02-.4-.01-.4-.01-.39-.01-.4-.01-.39V87.6l.02-.4.01-.39.02-.4.02-.39.02-.4.02-.39.03-.4.03-.43.03-.43.04-.43.04-.43.04-.43.05-.42.05-.43.05-.43.05-.42.06-.43.06-.42.07-.42.06-.42.07-.42.07-.42.08-.42.08-.42.08-.41.08-.42.09-.4.09-.42.09-.41.1-.41.09-.41.1-.41.1-.4.1-.42.12-.4.1-.4.12-.4.12-.4.12-.4.12-.4.13-.4.12-.4.13-.4.14-.4.13-.38.14-.4.14-.39.14-.39.15-.38.15-.4.15-.38.15-.38.16-.38.16-.39.16-.38.16-.38.17-.37.17-.38.17-.38.17-.37.18-.37.17-.37.19-.37.18-.37.19-.37.18-.36.2-.37.19-.36.2-.36.2-.36.2-.36.2-.36.2-.36.2-.35.22-.35.2-.35.1-.17.12-.18.22-.35.22-.35.22-.34.23-.35.22-.34.23-.34.23-.34.23-.34.24-.33.24-.34.23-.33.25-.33.24-.33.25-.33.24-.33.25-.32.26-.33.25-.32.26-.32.26-.32.26-.32.26-.31.27-.32.26-.3.27-.32.27-.3.28-.31.27-.31.28-.3.28-.3.28-.3.29-.3.28-.3.29-.3.29-.3.29-.28.3-.3.29-.28.3-.29.3-.28.3-.29.3-.28.3-.28.3-.27.32-.28.3-.27.32-.28.31-.27.32-.27.32-.26.32-.27.32-.26.32-.26.33-.26.32-.26.33-.25.33-.26.33-.25.34-.25.33-.25.34-.24.34-.25.34-.24.34-.24.34-.24.35-.23.35-.24.34-.23.35-.23.36-.23.35-.23.36-.22.35-.22.36-.22.36-.22.36-.22.37-.21.36-.22.37-.2.36-.21.37-.2.37-.21.38-.2.37-.2.38-.2.37-.2.38-.2.38-.19.38-.18.38-.2.39-.18.38-.18.39-.18.39-.18.39-.18.39-.17.39-.17.4-.17.39-.17.4-.17.4-.16.39-.16.4-.16.4-.16.4-.15.4-.16.41-.15.41-.15.4-.14.42-.14.4-.15.42-.14.41-.13.42-.14.41-.13.42-.13.41-.13.42-.12.42-.12.42-.12.42-.12.43-.12.42-.11.43-.11.42-.11.43-.1.43-.11.43-.1.25-.06.18-.04.43-.1.43-.1.44-.09.43-.08.44-.1.44-.08.43-.08.44-.08.44-.07.44-.08.44-.07.45-.07.44-.07.44-.06.45-.06.45-.06.44-.06.45-.06.45-.05.45-.05.45-.04.45-.05.45-.04.46-.04.45-.04.46-.03.45-.03.46-.03.45-.03.46-.02.46-.02.46-.02.46-.02h.46l.46-.02h.46l.47-.01h1.85l.47.01.47.01.46.02.47.01.47.02.47.02.47.03.47.02.47.03.47.04.47.03.47.04.48.04.47.04.48.05.47.05.47.05.48.06.47.05.47.06.47.07.47.06.47.07.47.07.47.07.46.08.47.08.46.08.46.08.47.09.46.09.46.09.46.1.45.09.46.1.46.1.45.1.46.1.45.11.45.11.45.12.45.11.45.12.45.12.44.12.45.13.44.13.45.13.44.13.44.13.44.14.44.14.44.14.43.15.44.14.43.15.43.15.43.16.41.14.02.01.43.16.43.16.43.16.42.17.42.17.43.17.42.17.42.17.41.18.42.18.42.18.41.18.41.19.42.18.4.2.42.18.4.2.4.2.41.2.4.2.4.2.4.2.4.2.4.21.4.21.4.22.39.21.4.22.38.21.4.22.38.23.38.22.39.23.38.23.38.23.38.23.38.23.38.24.37.24.38.24.37.24.1.07.27.17.37.25.36.25.37.25.36.25.36.25.36.26.36.26.36.26.35.26.36.26.35.27.35.26.35.27.34.27.35.27.34.28.34.27.34.28.34.28.34.28.33.28.34.29.33.28.33.29.32.29.33.29.32.3.32.29.32.3.32.29.32.3.31.3.2.2.12.1.3.3.31.31.3.31.31.31.3.31.3.32.3.31.3.32.29.31.3.32.28.32.29.33.29.32.24.28.04.04.28.33.28.33.27.33.28.34.27.33.27.33.27.34.26.34.27.34.26.34.26.34.26.34.25.35.25.33v.01l.25.35.25.35.24.36.25.35.23.35.24.36.24.36.23.35.23.36.23.36.23.36.22.37.22.36.22.37.22.36.21.37.22.37.2.37.21.37.21.37.2.37.2.38.2.37.2.38.2.38.19.37.18.38.08.15.1.24.19.38.18.38.17.39.17.39.17.38.17.4.17.38.16.4.16.38.16.4.15.39.15.4.15.38.15.4.15.4.14.4.14.4.14.39.13.4.13.4.13.4.13.4.12.4.13.4.12.41.11.4.12.41.1.4.12.41.1.41.1.41.1.4.1.42.1.4.1.42.08.41.09.41.08.41.09.42.07.41.08.42.07.41.08.42.06.41.07.42.06.41.06.42.06.42v.01l.05.4.04.43.05.42.04.42.03.42.04.42.03.42.03.42.03.42.02.43.02.42.02.42.01.43.01.42.01.42V95.32l-.02.42-.02.43-.01.43-.02.42-.03.43-.02.42-.03.43-.04.43-.03.42-.04.43-.04.42-.05.43-.05.43-.02.22-.01.09-.02.13-.03.22-.03.22-.03.21-.03.22-.04.22-.03.22-.03.22-.04.22-.03.22-.04.21-.04.22-.04.22-.04.22-.04.21-.04.22-.04.22-.04.21-.04.22-.05.21-.04.22-.05.22-.04.21-.05.22-.05.21-.05.21-.05.22-.05.21-.05.22-.02.11-.03.1-.05.21-.08.29-.13.27zm-75.64-76.52h-.43l-.42.01h-.42l-.42.02-.42.01-.43.02-.41.02-.42.02-.42.02-.42.03-.42.02-.41.03-.42.03-.41.04-.42.04-.41.03-.41.05-.41.04-.41.05-.41.04-.41.06-.41.05-.4.05-.42.06-.4.06-.4.06-.41.07-.4.07-.4.06-.4.08-.4.07-.4.08-.4.07-.4.08-.4.09-.4.08-.16.04-.23.05-.4.09-.39.09-.39.1-.39.09-.39.1-.39.1-.39.1-.38.1-.39.1-.38.11-.39.11-.38.12-.38.11-.38.12-.38.12-.38.12-.38.12-.37.12-.38.13-.37.13-.37.13-.38.13-.37.14-.37.14-.36.14-.37.14-.37.14-.36.15-.36.14-.37.15-.36.15-.36.16-.35.15-.36.16-.36.16-.35.16-.35.16-.36.17-.35.17-.35.17-.34.17-.35.17-.35.17-.34.18-.34.18-.34.18-.34.18-.34.19-.34.18-.33.19-.34.19-.33.2-.33.19-.33.19-.33.2-.33.2-.32.2-.33.2-.32.2-.32.21-.32.2-.32.22-.31.21-.32.21-.31.22-.31.22-.32.21-.3.22-.31.23-.3.22-.31.23-.3.22-.3.23-.3.23-.3.24-.3.23-.3.23-.29.24-.29.24-.29.24-.28.24-.29.25-.28.24-.29.25-.28.25-.28.25-.27.25-.28.26-.27.25-.28.26-.27.26L82 50l-.26.26-.27.26-.26.27-.26.26-.26.27-.26.27-.26.27-.25.27-.25.28-.26.27-.24.28-.25.28-.25.28-.24.28-.24.28-.24.29-.24.28-.23.3-.24.28-.23.3-.23.28-.23.3-.22.29-.23.3-.22.3-.22.3-.21.3-.22.3-.21.3-.22.3-.2.3-.21.32-.21.3-.2.31-.2.32-.2.3-.11.18-.1.14-.19.32-.2.31-.18.32-.2.32-.18.32-.18.32-.19.33-.18.32-.17.33-.18.32-.17.33-.18.33-.17.33-.16.33-.17.34-.16.33-.16.34-.16.33-.16.34-.15.34-.15.34-.15.34-.15.35-.15.34-.14.35-.14.34-.14.35-.13.35-.14.35-.13.35-.13.35-.12.36-.13.35-.12.36-.12.36-.12.35-.11.36-.11.36-.11.37-.11.36-.1.36-.1.37-.1.36-.1.37-.1.37-.1.37-.08.37-.1.37-.08.37-.08.38-.08.37-.08.38-.07.37-.07.38-.07.38-.07.38-.07.38-.06.38-.06.39-.06.38-.05.39-.05.38-.05.39-.05.39-.04.39-.04.39-.04.39-.04.39-.03.4-.03.35-.02.36-.03.36-.02.36-.02.36-.01.36-.02.36v.36l-.02.36v.72l-.01.36v1.08l.01.36.01.36.02.36v.36l.03.36.01.36.03.36.02.36.03.36.02.36.03.36.04.37.03.36.04.36.04.36.04.36.04.36.05.36.05.36.05.36.05.36.06.36.06.36.06.36.06.36.07.36.06.36.07.35.07.36.08.36.08.36.07.36.09.36.08.35.08.36.1.36.08.35.1.36.09.36.1.35.1.36.1.35.1.36.1.33h.05l94.09-.5 39.08-.2v-.02l.03-.2.02-.21.02-.2.02-.22.02-.2.02-.2.02-.21.02-.2.02-.21.01-.2.02-.21.01-.21.02-.2v-.21l.02-.2.01-.21.01-.2.01-.22.01-.2.01-.2.01-.21v-.2l.01-.22v-.2l.02-.2v-.4l.01-.4.01-.4v-1.6l-.02-.39v-.4l-.02-.39-.02-.39-.02-.4-.02-.39-.03-.39-.02-.39-.03-.39-.04-.39-.03-.39-.04-.39-.04-.39-.05-.38-.04-.39-.05-.39-.05-.38-.06-.39-.05-.38-.06-.38-.06-.38-.07-.39-.07-.38-.07-.38-.07-.38-.07-.38-.08-.36v-.01l-.07-.38-.08-.38-.08-.38-.08-.37-.08-.38-.1-.37-.08-.38-.1-.37-.09-.37-.1-.37-.1-.37-.1-.37-.1-.37-.1-.37-.11-.37-.11-.37-.12-.36-.11-.37-.12-.36-.12-.37-.12-.36-.13-.36-.12-.36-.13-.36-.14-.36-.13-.36-.14-.36-.14-.35-.14-.36-.14-.35-.15-.36-.14-.35-.15-.35-.16-.35-.15-.36-.16-.34-.16-.35-.16-.35-.16-.35-.17-.34-.17-.35-.17-.34-.17-.34-.17-.34-.18-.34-.18-.34-.18-.34-.18-.34-.12-.2-.07-.14-.18-.33-.18-.34-.19-.34-.19-.33-.19-.33-.2-.34-.19-.33-.2-.33-.2-.33-.2-.33-.2-.32-.2-.33-.21-.32-.21-.33-.22-.32-.2-.32-.22-.32-.22-.32-.22-.32-.22-.32-.23-.31-.22-.32-.23-.3-.23-.32-.23-.31-.24-.31-.23-.31v-.01l-.24-.3-.23-.3-.24-.32-.24-.3-.24-.3-.25-.3-.25-.31-.24-.3-.25-.3-.26-.3-.25-.3-.26-.29-.25-.3-.26-.29-.04-.04-.22-.25-.26-.3-.27-.28-.26-.3-.27-.28-.27-.29-.27-.28-.27-.29-.27-.28-.28-.28-.28-.28-.28-.28-.28-.27-.28-.28-.1-.1-.18-.17-.29-.28-.28-.27-.3-.27-.28-.27-.3-.27-.29-.27-.3-.26-.29-.27-.3-.26-.3-.26-.3-.26-.3-.26-.31-.25-.3-.26-.32-.25-.3-.25-.32-.25-.31-.25-.32-.25-.31-.24-.32-.25-.32-.24-.32-.24-.33-.24-.32-.24-.33-.23-.33-.24-.32-.23-.34-.23-.33-.23-.33-.23-.34-.22-.24-.16-.1-.07-.33-.22-.34-.22-.34-.22-.34-.22-.35-.21-.34-.22-.35-.21-.35-.21-.35-.21-.35-.2-.35-.21-.36-.2-.35-.2-.36-.2-.36-.2-.36-.2-.36-.2-.36-.19-.36-.19-.37-.19-.36-.19-.37-.18-.37-.18-.37-.19-.37-.18-.37-.17-.38-.18-.37-.17-.38-.17-.38-.17-.38-.17-.38-.17-.38-.16-.38-.16-.39-.16-.38-.16-.39-.16-.39-.15-.39-.15-.39-.15-.39-.15h-.02l-.37-.14-.4-.15-.39-.14-.4-.14-.4-.14-.39-.13-.4-.14-.4-.13-.4-.13-.4-.13-.4-.12-.41-.12-.4-.12-.42-.12-.4-.12-.41-.11-.41-.11-.42-.11-.4-.11-.42-.1-.42-.11-.41-.1-.42-.1-.42-.1-.41-.09-.42-.1-.43-.08-.42-.09-.42-.08-.42-.09-.43-.08-.42-.07-.43-.08-.43-.07-.43-.07-.42-.07-.43-.07-.44-.06-.43-.06-.43-.06-.43-.06-.44-.05-.43-.06-.44-.05-.43-.04-.44-.05-.43-.04-.44-.04-.43-.03-.43-.04-.44-.03-.43-.03-.43-.02-.43-.03-.43-.02-.43-.02-.43-.01-.43-.02h-.42l-.43-.02h-1.7z"/></g><path d="M52.1 27.59l8.17.06 10.4.1 25.95.3 30.29.37 31.6.42 54.95.75 22.83.32.89.01 1.24 1.26-1.25 1.24h-.9l-22.83.05-54.95.11-31.6.05-30.3.02H70.64l-10.4-.03-8.17-.03-3.43-.04-3.38-.05-6.5-.17-11.43-.48-8.26-.47-3.63-.25-.18-.01-1.24-1.26 1.25-1.23.18-.01 3.63-.21 8.27-.38 11.44-.34 6.5-.1 3.38-.01h3.43z" fill="#a0a0a0"/><path d="M202.8 2.5l.02.24.38 4.92.77 11.22.9 15.52.4 8.83.18 4.58.15 4.66.33 11.1.4 14.12.95 35.26 1.08 41.15 1.1 42.93 1.88 74.66.78 31.01.03 1.2-1.21 1.3-1.28-1.21-.05-1.2-1.15-31.01-2.74-74.64-1.57-42.9-1.47-41.15-1.24-35.24-.48-14.13-.36-11.1-.13-4.66-.1-4.58-.14-8.83-.08-15.55.08-11.24.07-4.94v-.24l1.21-1.29 1.29 1.2z" fill="#a0a0a0"/><path d="M217.87 276.61l23.52.02h.91l1.26 1.23-1.24 1.26-.91.01-23.52.36-56.62.85-32.55.47-31.2.43-26.73.33-10.72.12-8.42.08-3.53.01-3.48-.01-6.7-.08-11.78-.33-8.52-.36-3.74-.2-.18-.01-1.26-1.24 1.24-1.25.19-.02 3.73-.25 8.52-.49 11.77-.5 6.7-.17 3.47-.06 3.54-.04 8.42-.05 10.71-.04 26.74-.05 31.2-.03h32.56l56.61.01zM97.83 105.43l35.93.08 37.48.1 65.19.23 27.08.1h1.05l1.26 1.25-1.25 1.25h-1.05l-27.08.28-65.19.64-37.48.36-35.93.31-30.78.25-12.33.08-9.7.04h-4.07l-4-.02-7.7-.1-13.57-.37-9.81-.4-4.3-.21-.22-.01-1.25-1.24 1.24-1.25.22-.02 4.3-.24 9.8-.46 13.57-.45 7.7-.15 4-.05 4.08-.03 9.7-.02h12.32l30.79.05z" fill="#a0a0a0"/><path d="M66.05 99.52l.04.14.04.16.07.23.08.3.05.17.06.18.06.2.07.22.07.22.07.25.09.25.08.27.1.28.02.06.07.23.1.31.11.32.11.33.12.34.12.36.13.36.14.37.14.39.15.4.15.4.16.41.17.42.17.44.18.44.1.22.09.22.1.23.02.07.06.16.1.23.1.24.1.23.09.24.1.24.1.24.1.25.11.24.1.25.12.25.1.24.12.26.11.25.12.25.12.26.12.26.12.25.12.26.12.26.13.27.13.26.13.26.13.27.13.27.14.26.13.27.14.27.14.27.14.27.15.28.14.27.14.25.01.02.15.28.14.28.15.28.15.28.15.28.16.28.15.28.16.28.16.28.16.28.16.29.17.28.17.29.17.28.17.28.17.29.17.29.18.28.17.3.18.28.18.29.18.29.19.28.17.28.01.01.19.3.18.28.2.29.19.29.19.29.2.29.2.29.16.23.03.06.2.29.2.29.2.28.22.3.2.28.22.29.2.29.23.28.21.3.22.28.22.28.23.29.23.28.22.29.24.28.23.28.23.28.2.23.04.05.24.28.25.28.24.28.25.28.24.27.26.28.25.27.26.28.25.27.27.27.26.27.27.27.26.27.27.26.28.27.27.26.28.26.28.26.29.26.28.26.29.26.18.15.11.1.15.13.14.13.15.12.15.13.15.12.15.13.15.13.15.12.15.12.15.13.15.12.16.12.15.12.15.13.16.12.16.12.15.12.16.12.16.12.16.12.16.12.15.11.17.12.16.12.16.11.16.12.16.12.17.11.16.12.17.11.16.11.17.12.17.1.17.12.16.11.17.11.17.11.17.11.18.11.17.11.17.11.17.1.18.12.17.1.18.1.18.11.17.1.18.11.18.1.18.11.18.1.18.1.18.1.18.1.19.1.18.1.18.1.19.1.18.1.2.1.18.1.19.09.19.1.18.09.2.1.19.09.19.09.19.1.2.08.19.1.2.08.19.1.2.08.19.09.2.09.2.08.2.09.2.08.2.09.2.08.2.09.2.08.2.08.21.08.2.08.21.08.21.08.2.08.22.07.2.08.22.08.2.07.22.07.21.08.21.07.22.07.21.07.16.05.06.02.22.07.21.07.22.07.22.07.22.06.22.07.22.07.23.06.22.06.22.07.23.06.22.06.23.06.23.06.22.06.23.05.23.06.23.06.23.05.24.05.23.06.23.05.24.05.23.05.24.05.24.05.24.05.24.04.24.05.24.05.24.04.24.04.25.05.24.04.24.04.25.04.25.04.25.03.24.04.25.04.26.03.25.03.25.04.25.03.26.03.25.03.26.03.25.03.26.02.26.03.26.02.26.03.26.02.26.02.27.02.26.02.27.02.26.02.27.01.27.02.27.01.27.02.55.02.54.03.55.02.54.02.54.01.54.02.53.01.53.02h.53l.53.01h.53l.52.01H130.11l.52-.01.5-.01.5-.01.5-.02.5-.01.5-.02.5-.02.5-.02.48-.02.49-.02.49-.03.48-.02.48-.03.48-.03.48-.04.47-.03.47-.04.47-.03.47-.04.46-.05.47-.04.46-.04.46-.05.45-.05.46-.05.45-.05.45-.06.45-.05.44-.06.45-.06.44-.06.44-.06.44-.07.43-.06.43-.07.44-.07.42-.07.43-.07.43-.08.42-.07.42-.08.42-.08.41-.08.42-.08.41-.09.41-.08.41-.09.4-.09.41-.09.4-.09.4-.1.4-.09.4-.1.4-.1.39-.1.39-.1.15-.04.24-.06.38-.1.39-.1.38-.12.38-.1.38-.12.38-.1.38-.12.37-.12.37-.12.37-.11.37-.12.37-.12.36-.13.36-.12.37-.13.35-.12.36-.13.36-.13.35-.14.35-.13.35-.13.35-.14.35-.14.34-.14.35-.14.34-.14.34-.14.34-.15.33-.14.34-.15.33-.15.33-.15.33-.15.33-.15.33-.16.32-.15.33-.16.32-.16.32-.16.32-.16.31-.16.32-.17.31-.16.31-.17.31-.17.31-.17.31-.17.3-.17.31-.18.3-.17.3-.18.3-.17.3-.18.3-.18.3-.18.29-.19.29-.18.3-.19.28-.18.29-.19.29-.19.28-.19.28-.2.29-.18.28-.2.28-.2.27-.2.28-.19.28-.2.27-.2.27-.2.27-.2.27-.2.27-.21.27-.2.27-.22.26-.2.26-.22.26-.2.27-.22.25-.21.26-.22.26-.21.25-.22.26-.22.25-.22.25-.22.25-.22.25-.23.25-.22.25-.23.24-.22.25-.23.24-.23.24-.23.24-.23.24-.23.24-.23.24-.24.24-.23.23-.24.23-.24.24-.24.23-.24.23-.24.23-.24.23-.24.22-.25.23-.24.22-.25.23-.25.22-.25.22-.25.22-.25.22-.25.22-.25.22-.25.21-.26.22-.25.21-.26.22-.26.21-.26.21-.26.21-.26.21-.26.11-.14.1-.12.2-.27.21-.26.2-.27.21-.26.2-.27.21-.27.2-.27.2-.27.2-.27.2-.27.2-.27.2-.28.2-.27.19-.28.2-.28.19-.27.19-.28.2-.28.18-.28.2-.28.18-.29.2-.28.18-.28.19-.29.18-.28.19-.3.18-.28.19-.29.18-.29.18-.29.18-.29.18-.29.18-.3.18-.28.18-.3.18-.3.18-.29.17-.3.18-.3.17-.3.18-.29.17-.3.17-.3.17-.3.18-.3.17-.3.17-.3.17-.31.16-.3.17-.31.17-.31.17-.3.16-.32.16-.28v-.03l.17-.3.17-.32 1.68-.53.53 1.68-.16.32-.16.31-.01.03-.15.3-.17.3-.16.32-.16.32-.17.31-.16.32-.17.31-.17.32-.16.3-.17.32-.17.31-.17.31-.17.31-.18.31-.17.3-.17.32-.18.3-.17.3-.18.31-.17.3-.18.31-.18.3-.18.3-.18.31-.18.3-.18.3-.18.3-.19.3-.18.3-.18.3-.2.3-.18.29-.19.3-.19.29-.18.29-.2.3-.19.28-.2.3-.18.28-.2.3-.2.28-.2.29-.19.29-.2.28-.2.29-.2.28-.2.28-.2.29-.2.28-.21.28-.2.28-.22.28-.2.27-.21.28-.1.13-.11.15-.22.27-.2.28-.22.27-.22.27-.21.27-.22.27-.22.27-.22.27-.22.27-.22.27-.22.26-.23.27-.22.26-.23.26-.23.27-.23.26-.23.26-.23.25-.23.26-.24.26-.23.26-.24.25-.24.25-.24.26-.24.25-.24.25-.24.25-.24.25-.25.24-.25.25-.25.24-.25.25-.25.24-.25.24-.25.24-.26.24-.25.24-.26.24-.26.24-.26.23-.26.23-.27.24-.26.23-.27.23-.26.23-.27.23-.27.22-.28.23-.27.22-.27.23-.28.22-.28.22-.28.22-.28.22-.28.22-.28.21-.3.22-.28.21-.29.21-.29.21-.29.21-.29.21-.3.2-.29.22-.3.2-.3.2-.3.2-.3.2-.3.2-.31.2-.3.2-.31.2-.32.19-.3.2-.32.18-.32.2-.31.18-.32.2-.32.18-.32.18-.33.19-.32.18-.33.18-.33.18-.33.17-.33.18-.33.17-.34.18-.33.17-.34.17-.34.17-.35.17-.34.16-.35.17-.34.16-.35.16-.35.16-.36.16-.35.16-.36.16-.36.15-.35.15-.37.15-.36.15-.37.15-.36.15-.37.15-.37.14-.37.14-.38.14-.38.14-.37.14-.38.14-.39.13-.38.13-.39.13-.38.13-.4.13-.38.13-.4.12-.4.13-.39.12-.4.12-.4.12-.4.12-.25.07-.16.04-.4.11-.41.12-.41.1-.42.11-.41.11-.42.1-.42.11-.42.1-.42.1-.42.1-.43.1-.43.1-.43.09-.43.09-.44.09-.43.09-.44.08-.44.09-.45.08-.44.08-.45.08-.45.08-.45.08-.45.07-.46.08-.46.07-.46.07-.46.06-.46.07-.47.06-.47.07-.47.06-.47.06-.48.05-.47.06-.48.05-.48.05-.49.05-.48.05-.5.05-.48.04-.5.04-.49.05-.5.03-.5.04-.5.04-.5.03-.5.03-.51.03-.51.03-.52.02-.51.03-.52.02-.52.02-.52.02-.52.02h-.12l-.41.01-.53.01-.53.01-.53.01h-.54l-.54.01H124.3l-.56-.01h-.55l-.56-.02-.56-.01-.56-.02-.57-.01-.28-.01-.29-.02h-.29l-.28-.02-.29-.01-.28-.02-.28-.02-.28-.01-.28-.02-.28-.02-.28-.02-.28-.03-.28-.02-.28-.02-.27-.03-.28-.03-.27-.02-.27-.03-.28-.03-.27-.03-.27-.03-.27-.04-.27-.03-.27-.04-.26-.03-.27-.04-.27-.04-.26-.04-.26-.04-.27-.04-.26-.04-.26-.05-.26-.04-.26-.05-.26-.04-.26-.05-.26-.05-.25-.05-.26-.05-.25-.05-.26-.05-.25-.06-.25-.05-.26-.05-.25-.06-.25-.06-.25-.06-.24-.06-.25-.06-.25-.06-.24-.06-.25-.06-.24-.07-.25-.06-.24-.07-.24-.06-.24-.07-.24-.07-.24-.07-.24-.07-.24-.07-.24-.07-.06-.03-.17-.05-.24-.07-.23-.08-.23-.07-.24-.08-.23-.08-.23-.08-.23-.08-.23-.08-.23-.08-.23-.08-.22-.08-.23-.09-.23-.08-.22-.09-.23-.08-.22-.09-.22-.09-.22-.08-.22-.1-.22-.08-.22-.1-.22-.09-.22-.09-.21-.1-.22-.09-.22-.1-.21-.09-.21-.1-.22-.09-.2-.1-.22-.1-.21-.1-.21-.1-.2-.1-.22-.1-.2-.1-.21-.1-.2-.1-.21-.11-.2-.1-.21-.11-.2-.1-.2-.12-.2-.1-.2-.11-.2-.11-.2-.11-.2-.11-.2-.11-.2-.11-.2-.12-.19-.11-.19-.11-.2-.12-.19-.11-.19-.12-.19-.12-.19-.11-.19-.12-.19-.12-.19-.12-.18-.12-.19-.11-.19-.13-.18-.12-.18-.12-.19-.12-.18-.12-.18-.13-.18-.12-.18-.12-.18-.13-.18-.12-.18-.13-.18-.13-.18-.12-.17-.13-.18-.13-.17-.13-.18-.13-.17-.13-.17-.13-.17-.13-.17-.13-.17-.13-.17-.13-.17-.13-.17-.14-.17-.13-.16-.13-.17-.14-.17-.13-.16-.14-.16-.13-.17-.14-.16-.14-.16-.13-.13-.11-.2-.17-.3-.28-.32-.27-.32-.28-.3-.29-.31-.28-.3-.28-.3-.29-.3-.29-.3-.29-.3-.29-.28-.29-.29-.29-.28-.3-.28-.29-.28-.3-.28-.3-.27-.29-.27-.3-.27-.3-.27-.3-.26-.3-.04-.05-.22-.25-.26-.3-.25-.31-.25-.3-.25-.31-.25-.31-.24-.3-.24-.32-.24-.3-.24-.31-.23-.31-.23-.31-.23-.31-.23-.31-.22-.31-.23-.31-.22-.31-.21-.31-.04-.06-.18-.26-.2-.31-.21-.31-.21-.32-.2-.3-.2-.32-.2-.31-.2-.32v-.01l-.19-.3-.19-.32-.18-.3-.19-.32-.18-.31-.18-.32-.18-.31-.17-.3v-.01l-.17-.32-.17-.3-.17-.32-.16-.31-.16-.31-.16-.31-.16-.31-.15-.31-.16-.3-.15-.32-.15-.3-.14-.3-.15-.31-.14-.3-.14-.3-.14-.3v-.03l-.13-.28-.13-.3-.13-.3-.12-.3-.13-.3-.12-.3-.12-.3-.11-.29-.12-.29-.11-.29-.12-.29-.1-.29-.12-.29-.1-.28-.1-.28-.11-.29-.1-.28-.1-.27-.1-.28-.1-.28-.1-.27-.08-.27-.1-.27-.09-.27-.08-.26-.1-.27-.08-.26-.08-.26-.08-.26-.08-.25-.08-.26-.08-.25-.05-.17-.02-.08-.07-.24-.07-.25-.06-.24-.13-.48-.13-.47-.11-.46-.12-.45-.1-.44-.1-.43-.1-.42-.1-.4-.08-.4-.08-.38-.08-.37-.07-.36-.07-.34-.07-.33-.04-.26-.01-.06-.06-.3-.05-.3-.04-.27-.04-.27-.04-.25-.03-.23-.04-.22-.02-.2-.03-.19-.04-.32-.03-.26-.02-.19-.02-.15 1-1.45 1.45 1z" fill="#a0a0a0"/><path d="M237.32 188.05l-26.77 3.08 10.87-26.6" fill="#ffae51"/><path d="M222.34 164.9l-.08.23-2.2 5.79-5.33 13.93-1.6 4.16 1.95-.26 7.01-.92 2.81-.35 2.22-.27.93-.1.91-.07 1.78-.1 3.13-.03 2.28.08 1 .07h.05l1.1.88-.87 1.1-.05.02-.96.3-2.2.59-3.06.68-1.75.3-.9.14-.94.11-2.21.25-2.82.29-7.04.7-4.76.44h-.3l-.3-.05-.27-.1-.26-.14-.23-.2-.2-.21-.14-.26-.1-.27-.06-.28v-.3l.04-.28.1-.27 2.94-6.79 5.96-13.67 2.48-5.67.1-.22 1.3-.55.54 1.3z"/><path d="M215 180.34l4.67 9.15-8.96 1.13 4.3-10.28z"/><path d="M221.98 163.89c.03 3.2 2.24 4.14 5.01 4.4-.6 3.67.88 6.02 5.12 7.74-.26 3.69.67 8.54 4.81 11.13l119.89-103.1-17.94-21.67-116.89 101.5z" fill="#008fd7"/><clipPath id="a"><path d="M221.98 163.89c.03 3.2 2.24 4.14 5.01 4.4-.6 3.67.88 6.02 5.12 7.74-.26 3.69.67 8.54 4.81 11.13l119.89-103.1-17.94-21.67-116.89 101.5z"/></clipPath><g clip-path="url(#a)"><path d="M344.1 67.3l-.1 1.24-.08.08-1.78 1.75-4.1 3.93-5.74 5.33-3.31 2.98-1.73 1.53-1.78 1.54-4.24 3.66-5.42 4.63-13.53 11.54-15.8 13.46-16.5 14.02-28.7 24.38-11.94 10.12-.47.4-1.23-.1.1-1.23.45-.4 11.76-10.32 28.32-24.83 16.28-14.27 15.63-13.67 13.4-11.7 5.37-4.67 4.24-3.67 1.78-1.53 1.77-1.49 3.43-2.84 6.12-4.9 4.48-3.48 1.99-1.5.1-.07 1.23.09zM350.58 74.87l-.1 1.23-.09.08-1.8 1.75-4.18 3.95-5.86 5.35-3.37 2.99-1.77 1.53-1.8 1.55-4.33 3.67-5.5 4.65L308 113.2l-16.09 13.5-16.8 14.07-29.22 24.45-12.14 10.16-.47.4-1.24-.1.1-1.24.47-.4 11.97-10.36 28.84-24.91L290 124.45l15.91-13.71L319.56 99l5.47-4.7 4.31-3.67 1.82-1.54 1.8-1.5 3.49-2.84 6.22-4.92 4.56-3.49 2.02-1.5.1-.08 1.23.1z"/></g><path d="M220.8 163.48l.1-.2.12-.18.15-.15 1.13-1 29.22-25.62 70.35-61.66 15.71-13.76.25-.19.28-.14.3-.1.3-.05h.32l.31.05.3.1.28.14.25.18.23.23 18.02 21.6.2.3.16.32.09.35.03.36-.03.36-.08.35-.15.33-.14.2-.07.1-.25.26-38.85 33.67-33.76 29.22-13.54 11.7-10.65 9.17-4.48 3.84-4.42 3.76-8.57 7.19-5.57 4.6-.28.2-.31.14-.33.1-.34.05h-.34l-.33-.07-.33-.1-.3-.17-.1-.07-.11-.08-.12-.08-.11-.07-.11-.08-.11-.09-.1-.08-.12-.08-.1-.09-.1-.08-.1-.09-.1-.08-.1-.1-.1-.08-.1-.09-.1-.09-.1-.09-.09-.1-.09-.08-.09-.1-.09-.1-.09-.09-.08-.1-.09-.09-.08-.1-.08-.1-.09-.09-.08-.1-.07-.1-.08-.1-.08-.1-.07-.1-.08-.1-.07-.1-.07-.1-.07-.1-.07-.1-.06-.11-.07-.1-.06-.11-.07-.1-.06-.11-.06-.1-.06-.11-.06-.1-.05-.12-.06-.1-.06-.1-.05-.12-.05-.1-.05-.11-.05-.11-.05-.1-.05-.12-.05-.1-.04-.11-.05-.11-.04-.11-.05-.11-.04-.11-.04-.11-.04-.11-.04-.11-.04-.11-.03-.11-.04-.11-.03-.11-.04-.11-.03-.11-.03-.11-.03-.11-.03-.11-.03-.11-.03-.12-.05-.21-.05-.22-.05-.22-.04-.22-.04-.22-.04-.22-.03-.22-.03-.21-.03-.22-.02-.22-.03-.21-.01-.22-.02-.2v-.11l-.01-.11-.01-.21v-.21l-.01-.21V177.15l-.2-.11-.19-.1-.18-.11-.18-.11-.18-.11-.18-.11-.17-.12-.08-.06-.09-.05-.08-.06-.08-.06-.08-.06-.08-.06-.08-.06-.08-.06-.08-.07-.08-.06-.07-.06-.08-.06-.07-.07-.08-.06-.07-.07-.07-.06-.07-.07-.07-.07-.07-.06-.07-.07-.06-.07-.07-.07-.07-.07-.06-.07-.06-.07-.06-.07-.07-.07-.06-.08-.06-.07-.05-.07-.06-.08-.06-.07-.05-.08-.06-.08-.05-.07-.05-.08-.05-.08-.05-.08-.05-.08-.05-.08-.04-.08-.05-.08-.04-.08-.04-.08-.05-.08-.04-.09-.04-.08-.03-.08-.04-.09-.04-.08-.03-.09-.04-.08-.03-.09-.03-.08-.03-.1-.03-.08-.03-.09-.02-.08-.03-.1-.02-.08-.02-.09-.03-.09-.02-.09-.02-.09-.01-.09-.02-.09-.02-.09-.01-.09-.02-.09v-.09l-.02-.1-.01-.08-.01-.1v-.09l-.02-.09v-.18l-.01-.1V169.52l-.12-.03-.14-.03-.13-.04-.14-.04-.13-.05-.14-.04-.13-.05-.13-.05-.13-.05-.13-.05-.13-.06-.13-.06-.12-.06-.13-.07-.12-.06-.13-.07-.12-.08-.12-.08-.12-.08-.11-.08-.12-.09-.1-.08-.06-.05-.06-.05-.05-.05-.06-.05-.05-.05-.05-.05-.05-.05-.05-.05-.05-.06-.05-.05-.05-.06-.05-.05-.05-.06-.04-.06-.05-.06-.04-.06-.05-.06-.04-.06-.04-.06-.04-.06-.04-.07-.04-.06-.04-.07-.04-.06-.03-.07-.04-.07-.03-.06-.04-.07-.03-.07-.03-.07-.03-.07-.03-.07-.03-.08-.03-.07-.02-.07-.03-.08-.02-.07-.02-.08-.03-.07-.02-.08-.02-.08-.01-.07-.02-.08-.02-.08-.01-.08-.02-.08-.01-.08-.01-.08-.02-.08v-.08l-.02-.09v-.08l-.01-.08v-.09l-.01-.08v-.08l-.01-.09v-.43l.02-.21.05-.21zM321.46 80l-68.82 59.18-28.71 24.69-.63.54v.03l.01.05.01.05.01.04.01.05.01.05.01.04.02.05v.04l.02.04.01.04.02.04.01.04.01.04.02.04.01.04.02.03.01.04.02.03.02.04.01.03.02.03.02.03.01.03.02.03.02.03.02.03.01.03.02.03.02.03.02.02.02.03.02.02.02.03.02.03.02.02.02.02.02.03.02.02.02.02.02.02.03.02.02.03.02.02.03.02.02.02.02.02.03.02.02.02.03.02.03.02.02.02.02.01.06.04.06.04.06.03.06.04.06.03.07.03.07.04.07.03.07.03.07.03.08.02.08.03.08.03.08.02.08.03.1.02.08.02.1.02.09.02.1.02.09.02.1.02.1.01.1.02h.01l.1.01.1.02.11.01.11.01.11.01.11.01.12.01.11.01.13.01.24.04.23.08.22.12.2.16.16.18.14.2.1.23.06.24.02.25-.01.25-.03.16-.01.14-.01.15-.01.14-.01.14V169.94l.01.06v.06l.01.06v.05l.02.06v.05l.01.06.01.05v.06l.02.05v.05l.02.05.01.06.01.05.01.05.02.05.01.04.01.05.02.05.01.05.02.04.02.05.01.05.02.04.02.05.01.04.02.05.02.04.02.04.02.04.02.05.03.04.02.04.02.04.02.04.03.05.02.04.03.04.02.04.03.04.02.04.03.04.03.04.03.04.03.03.03.04.03.04.03.04.03.04.04.04.03.04.03.04.04.03.04.04.03.04.04.04.04.04.04.04.04.03.04.04.04.04.05.04.04.03.05.04.04.04.05.04.05.04.04.03.05.04.05.04.06.04.05.03.05.04.06.04.05.03.06.04.06.04.06.04.06.03.06.04.06.03.13.08.13.07.13.07.14.08.15.07.15.07.15.07.16.07.16.07.17.07.17.07.18.06.18.08.26.13.23.16.2.2.17.23.13.26.1.27.04.28v1.4l.02.16v.16l.02.17.01.16.02.17.01.16.01.09.01.08.02.16.02.17.03.16.02.17.03.16.03.17.03.16.04.17.04.16.04.16.04.17.04.16.05.16.02.08.03.08.02.08.03.08.03.08.02.08.03.07.03.08.03.08.03.08.03.07.03.08.03.08.03.07.04.08.03.07.03.08.04.07.03.08.04.07.04.08.03.07.04.07.04.07.04.08.04.07.04.07.04.07.04.07.04.07.05.07.04.07.04.06.05.07.04.07.05.06.05.07.05.07.04.06.05.07.05.06.05.06.05.07.06.06.05.06.05.06.06.06.05.06.06.06.05.06.06.06.06.06.06.06.06.06.06.05.01.02 5.27-4.7 8.04-7.07 4.19-3.66 4.27-3.7 10.23-8.77 13.04-11.16 32.6-27.85.24.07 37.95-32.65h.01l1.28-1.1.17.02-15.41-18.63v-.01l-17.19 14.8z"/></svg>