<?xml version="1.0" encoding="UTF-8" standalone="no"?><!DOCTYPE svg PUBLIC "-//W3C//DTD SVG 1.1//EN" "http://www.w3.org/Graphics/SVG/1.1/DTD/svg11.dtd"><svg width="100%" height="100%" viewBox="0 0 360 308" version="1.1" xmlns="http://www.w3.org/2000/svg" xmlns:xlink="http://www.w3.org/1999/xlink" xml:space="preserve" xmlns:serif="http://www.serif.com/" style="fill-rule:evenodd;clip-rule:evenodd;stroke-linejoin:round;stroke-miterlimit:2;"><rect id="Arbeit" x="-36.904" y="-13.445" width="898.795" height="341.022" style="fill:none;"/><g><path d="M86.4,266.542l-0.156,0.005l-0.082,0.002l-0.238,0.01l-0.237,0.011l-0.236,0.014l-0.235,0.016l-0.234,0.017l-0.233,0.02l-0.233,0.021l-0.231,0.024l-0.23,0.025l-0.229,0.028l-0.228,0.029l-0.228,0.031l-0.226,0.033l-0.224,0.035l-0.224,0.037l-0.223,0.038l-0.222,0.041l-0.22,0.042l-0.219,0.044l-0.218,0.045l-0.217,0.048l-0.215,0.049l-0.214,0.051l-0.213,0.053l-0.212,0.054l-0.21,0.056l-0.209,0.058l-0.208,0.059l-0.206,0.061l-0.205,0.063l-0.203,0.064l-0.202,0.066l-0.2,0.067l-0.199,0.069l-0.198,0.071l-0.196,0.072l-0.194,0.073l-0.193,0.075l-0.191,0.077l-0.19,0.078l-0.188,0.079l-0.186,0.081l-0.185,0.082l-0.183,0.084l-0.181,0.085l-0.108,0.052l-0.072,0.034l-0.178,0.088l-0.176,0.089l-0.175,0.09l-0.172,0.091l-0.171,0.093l-0.169,0.094l-0.168,0.096l-0.165,0.096l-0.163,0.098l-0.162,0.099l-0.16,0.1l-0.157,0.101l-0.156,0.102l-0.154,0.104l-0.152,0.104l-0.149,0.106l-0.148,0.106l-0.146,0.108l-0.144,0.109l-0.141,0.11l-0.14,0.11l-0.137,0.112l-0.135,0.113l-0.133,0.113l-0.131,0.115l-0.129,0.115l-0.127,0.116l-0.124,0.117l-0.122,0.118l-0.12,0.118l-0.118,0.12l-0.116,0.12l-0.113,0.121l-0.111,0.122l-0.108,0.122l-0.107,0.123l-0.104,0.124l-0.101,0.124l-0.1,0.125l-0.097,0.125l-0.094,0.126l-0.092,0.127l-0.09,0.127l-0.088,0.128l-0.085,0.128l-0.083,0.129l-0.08,0.129l-0.078,0.13l-0.075,0.13l-0.073,0.13l-0.071,0.131l-0.068,0.132l-0.066,0.131l-0.063,0.133l-0.061,0.132l-0.058,0.133l-0.056,0.133l-0.054,0.133l-0.051,0.134l-0.048,0.134l-0.046,0.135l-0.044,0.135l-0.041,0.135l-0.039,0.135l-0.036,0.136l-0.035,0.139l-0.015,0.065l-0.015,0.068l-0.015,0.068l-0.014,0.068l-0.014,0.069l-0.012,0.068l-0.013,0.068l-0.011,0.069l-0.011,0.069l-0.011,0.069l-0.009,0.068l-0.009,0.069l-0.009,0.069l-0.008,0.069l-0.007,0.069l-0.006,0.07l-0.006,0.069l-0.006,0.069l-0.004,0.07l-0.004,0.069l-0.004,0.07l-0.003,0.07l-0.002,0.07l-0.001,0.07l-0.001,0.07l0,0.07l0,0.07l0.001,0.07l0.002,0.071l0.003,0.07l0.003,0.07l0.003,0.069l0.005,0.07l0.005,0.07l0.005,0.069l0.007,0.069l0.006,0.069l0.008,0.069l0.008,0.069l0.009,0.069l0.009,0.069l0.01,0.068l0.011,0.068l0.011,0.069l0.012,0.068l0.012,0.068l0.013,0.067l0.014,0.068l0.014,0.068l0.015,0.067l0.016,0.067l0.016,0.067l0.017,0.067l0.017,0.067l0.018,0.067l0.017,0.063l0.04,0.137l0.042,0.132l0.043,0.133l0.046,0.131l0.049,0.131l0.051,0.131l0.053,0.13l0.055,0.13l0.058,0.129l0.061,0.129l0.062,0.128l0.065,0.128l0.068,0.127l0.069,0.127l0.072,0.127l0.075,0.125l0.077,0.126l0.079,0.124l0.081,0.124l0.084,0.124l0.086,0.123l0.088,0.122l0.091,0.122l0.092,0.121l0.096,0.121l0.097,0.119l0.1,0.12l0.101,0.118l0.105,0.118l0.106,0.117l0.109,0.116l0.11,0.116l0.113,0.114l0.115,0.114l0.118,0.114l0.119,0.112l0.122,0.111l0.124,0.111l0.125,0.11l0.128,0.108l0.13,0.108l0.133,0.107l0.134,0.106l0.136,0.105l0.138,0.104l0.14,0.103l0.133,0.095l0.01,0.007l0.144,0.101l0.146,0.1l0.148,0.099l0.15,0.098l0.151,0.097l0.154,0.095l0.156,0.095l0.157,0.093l0.159,0.092l0.161,0.091l0.163,0.09l0.165,0.088l0.166,0.087l0.168,0.086l0.17,0.085l0.172,0.083l0.173,0.082l0.175,0.081l0.176,0.079l0.179,0.078l0.179,0.076l0.182,0.075l0.183,0.074l0.184,0.072l0.186,0.071l0.188,0.069l0.189,0.068l0.19,0.067l0.192,0.065l0.193,0.063l0.195,0.062l0.196,0.06l0.198,0.058l0.199,0.057l0.2,0.056l0.201,0.054l0.203,0.052l0.204,0.051l0.205,0.048l0.207,0.048l0.208,0.045l0.208,0.044l0.211,0.042l0.211,0.041l0.212,0.038l0.213,0.037l0.215,0.035l0.215,0.034l0.217,0.031l0.218,0.03l0.218,0.028l0.22,0.026l0.221,0.024l0.221,0.023l0.223,0.02l0.223,0.019l0.224,0.017l0.225,0.015l0.226,0.013l0.227,0.011l0.227,0.009l0.229,0.007l0.229,0.005l0.23,0.003l0.23,0.001l0.17,-0.001l0.062,0l0.232,-0.002l0.231,-0.005l0.232,-0.006l0.23,-0.009l0.229,-0.011l0.229,-0.012l0.227,-0.014l0.227,-0.017l0.226,-0.018l0.225,-0.02l0.224,-0.022l0.222,-0.024l0.222,-0.026l0.221,-0.027l0.22,-0.03l0.219,-0.031l0.217,-0.033l0.217,-0.035l0.216,-0.037l0.214,-0.038l0.213,-0.04l0.212,-0.042l0.211,-0.043l0.209,-0.046l0.208,-0.047l0.208,-0.048l0.205,-0.05l0.205,-0.052l0.203,-0.054l0.202,-0.055l0.2,-0.056l0.199,-0.059l0.198,-0.059l0.196,-0.062l0.195,-0.063l0.193,-0.064l0.192,-0.066l0.19,-0.067l0.189,-0.069l0.188,-0.07l0.185,-0.072l0.184,-0.073l0.183,-0.074l0.181,-0.076l0.179,-0.077l0.178,-0.078l0.176,-0.08l0.174,-0.081l0.173,-0.082l0.171,-0.084l0.169,-0.085l0.167,-0.086l0.166,-0.087l0.163,-0.089l0.162,-0.089l0.16,-0.091l0.159,-0.092l0.156,-0.093l0.154,-0.094l0.153,-0.095l0.15,-0.096l0.125,-0.082l0.024,-0.015l0.147,-0.098l0.145,-0.099l0.143,-0.1l0.141,-0.1l0.138,-0.102l0.137,-0.102l0.135,-0.104l0.133,-0.104l0.13,-0.105l0.129,-0.106l0.126,-0.107l0.124,-0.107l0.122,-0.108l0.12,-0.109l0.118,-0.11l0.115,-0.11l0.114,-0.111l0.111,-0.112l0.109,-0.112l0.106,-0.113l0.105,-0.113l0.102,-0.114l0.1,-0.115l0.097,-0.114l0.096,-0.116l0.093,-0.116l0.091,-0.116l0.088,-0.117l0.086,-0.117l0.084,-0.118l0.082,-0.117l0.079,-0.119l0.077,-0.118l0.074,-0.119l0.073,-0.119l0.07,-0.12l0.067,-0.119l0.066,-0.12l0.063,-0.12l0.061,-0.121l0.058,-0.12l0.056,-0.121l0.054,-0.121l0.052,-0.121l0.049,-0.121l0.047,-0.122l0.045,-0.121l0.042,-0.122l0.04,-0.122l0.038,-0.122l0.036,-0.122l0.033,-0.123l0.032,-0.128l0.014,-0.056l0.014,-0.061l0.013,-0.062l0.013,-0.061l0.013,-0.062l0.012,-0.061l0.011,-0.062l0.011,-0.062l0.01,-0.062l0.009,-0.061l0.01,-0.062l0.008,-0.062l0.008,-0.062l0.007,-0.063l0.007,-0.062l0.006,-0.062l0.006,-0.062l0.005,-0.063l0.004,-0.062l0.004,-0.063l0.004,-0.063l0.002,-0.062l0.003,-0.063l0.001,-0.063l0.001,-0.063l0.001,-0.063l0,-0.063l-0.001,-0.064l-0.001,-0.03l0,-0.033l-0.002,-0.063l-0.002,-0.063l-0.003,-0.063l-0.003,-0.063l-0.004,-0.063l-0.004,-0.062l-0.005,-0.063l-0.006,-0.062l-0.006,-0.062l-0.007,-0.062l-0.007,-0.062l-0.008,-0.062l-0.009,-0.062l-0.009,-0.062l-0.009,-0.061l-0.01,-0.062l-0.011,-0.061l-0.011,-0.061l-0.012,-0.061l-0.012,-0.062l-0.013,-0.061l-0.013,-0.061l-0.014,-0.06l-0.015,-0.061l-0.015,-0.061l-0.016,-0.061l-0.015,-0.055l-0.035,-0.126l-0.036,-0.121l-0.039,-0.12l-0.041,-0.12l-0.043,-0.12l-0.045,-0.12l-0.047,-0.119l-0.05,-0.119l-0.052,-0.119l-0.054,-0.118l-0.056,-0.118l-0.059,-0.118l-0.061,-0.118l-0.063,-0.117l-0.048,-0.086l-0.017,-0.032l-0.067,-0.117l-0.069,-0.117l-0.072,-0.116l-0.074,-0.117l-0.076,-0.116l-0.078,-0.115l-0.08,-0.116l-0.083,-0.114l-0.085,-0.115l-0.088,-0.114l-0.089,-0.114l-0.092,-0.113l-0.094,-0.113l-0.096,-0.112l-0.099,-0.111l-0.1,-0.112l-0.103,-0.11l-0.106,-0.11l-0.107,-0.11l-0.109,-0.108l-0.102,-0.099l-0.01,-0.01l-0.112,-0.109l-0.115,-0.108l-0.117,-0.108l-0.119,-0.107l-0.121,-0.107l-0.123,-0.105l-0.125,-0.105l-0.127,-0.104l-0.038,-0.03l-0.091,-0.075l-0.13,-0.105l-0.131,-0.104l-0.135,-0.104l-0.136,-0.102l-0.138,-0.102l-0.14,-0.101l-0.142,-0.099l-0.036,-0.024l-0.107,-0.078l-0.144,-0.101l-0.147,-0.101l-0.148,-0.099l-0.15,-0.099l-0.152,-0.097l-0.155,-0.097l-0.156,-0.096l-0.158,-0.094l-0.16,-0.094l-0.162,-0.092l-0.164,-0.091l-0.166,-0.09l-0.168,-0.089l-0.144,-0.075l-0.025,-0.014l-0.168,-0.093l-0.17,-0.092l-0.173,-0.091l-0.174,-0.089l-0.176,-0.088l-0.178,-0.088l-0.179,-0.085l-0.182,-0.085l-0.183,-0.083l-0.185,-0.082l-0.187,-0.081l-0.188,-0.079l-0.19,-0.078l-0.192,-0.077l-0.194,-0.075l-0.195,-0.073l-0.197,-0.073l-0.198,-0.07l-0.2,-0.07l-0.202,-0.068l-0.203,-0.066l-0.205,-0.064l-0.206,-0.064l-0.148,-0.043l-0.059,-0.02l-0.208,-0.068l-0.209,-0.066l-0.211,-0.065l-0.213,-0.063l-0.214,-0.062l-0.215,-0.059l-0.217,-0.058l-0.219,-0.057l-0.22,-0.054l-0.221,-0.053l-0.223,-0.052l-0.224,-0.049l-0.226,-0.048l-0.227,-0.045l-0.228,-0.045l-0.192,-0.035l-0.038,-0.008l-0.231,-0.046l-0.232,-0.044l-0.234,-0.043l-0.235,-0.04l-0.237,-0.039l-0.237,-0.036l-0.162,-0.023l-0.081,-0.013l-0.236,0.006Zm0.501,-2.531l0.261,-0.03l0.261,-0.028l0.261,-0.026l0.261,-0.023l0.26,-0.02l0.26,-0.019l0.043,-0.002l0.217,-0.009l0.258,-0.008l0.259,-0.005l0.258,-0.004l0.257,-0.001l0.257,0.002l0.257,0.003l0.256,0.006l0.255,0.008l0.255,0.011l0.254,0.012l0.254,0.015l0.253,0.017l0.252,0.019l0.251,0.022l0.251,0.024l0.072,0.007l0.177,0.024l0.248,0.036l0.246,0.038l0.246,0.04l0.245,0.043l0.243,0.044l0.243,0.047l0.242,0.048l0.241,0.051l0.239,0.053l0.239,0.055l0.238,0.057l0.236,0.059l0.235,0.061l0.235,0.063l0.233,0.066l0.232,0.067l0.23,0.069l0.23,0.072l0.228,0.073l0.227,0.076l0.225,0.077l0.225,0.08l0.223,0.081l0.032,0.013l0.187,0.076l0.217,0.092l0.216,0.094l0.214,0.096l0.213,0.097l0.211,0.1l0.21,0.101l0.208,0.104l0.207,0.105l0.204,0.107l0.204,0.109l0.201,0.111l0.2,0.113l0.198,0.114l0.149,0.088l0.047,0.03l0.192,0.121l0.191,0.124l0.188,0.125l0.187,0.127l0.185,0.129l0.183,0.131l0.181,0.133l0.127,0.095l0.051,0.04l0.176,0.138l0.173,0.14l0.171,0.142l0.168,0.143l0.167,0.146l0.165,0.147l0.162,0.148l0.16,0.151l0.014,0.013l0.143,0.14l0.154,0.156l0.151,0.157l0.149,0.158l0.147,0.16l0.145,0.162l0.142,0.164l0.139,0.165l0.137,0.167l0.135,0.168l0.132,0.17l0.129,0.172l0.126,0.173l0.124,0.174l0.122,0.177l0.118,0.178l0.116,0.179l0.112,0.181l0.11,0.182l0.107,0.185l0.104,0.185l0.028,0.05l0.073,0.137l0.097,0.189l0.094,0.19l0.092,0.192l0.088,0.193l0.084,0.195l0.082,0.195l0.078,0.198l0.075,0.198l0.072,0.2l0.068,0.201l0.064,0.202l0.062,0.203l0.057,0.205l0.053,0.2l0.027,0.109l0.025,0.103l0.024,0.104l0.023,0.104l0.022,0.104l0.021,0.105l0.02,0.104l0.019,0.105l0.019,0.106l0.017,0.105l0.016,0.106l0.016,0.106l0.014,0.106l0.014,0.106l0.013,0.106l0.011,0.107l0.011,0.107l0.01,0.107l0.008,0.107l0.008,0.108l0.007,0.107l0.006,0.108l0.004,0.108l0.004,0.108l0.003,0.108l0.002,0.108l0,0.109l0,0.056l0,0.052l-0.001,0.109l-0.003,0.108l-0.003,0.108l-0.005,0.108l-0.005,0.108l-0.007,0.108l-0.007,0.107l-0.009,0.108l-0.009,0.107l-0.011,0.107l-0.011,0.107l-0.012,0.106l-0.014,0.106l-0.014,0.107l-0.015,0.105l-0.016,0.106l-0.017,0.105l-0.018,0.105l-0.019,0.105l-0.02,0.105l-0.021,0.104l-0.022,0.104l-0.023,0.104l-0.023,0.104l-0.025,0.103l-0.025,0.103l-0.027,0.103l-0.028,0.107l-0.056,0.199l-0.061,0.203l-0.064,0.201l-0.067,0.2l-0.071,0.199l-0.075,0.198l-0.077,0.196l-0.081,0.195l-0.084,0.193l-0.088,0.192l-0.09,0.19l-0.094,0.189l-0.096,0.187l-0.1,0.186l-0.103,0.185l-0.105,0.183l-0.109,0.181l-0.111,0.18l-0.114,0.178l-0.117,0.176l-0.12,0.175l-0.123,0.174l-0.125,0.171l-0.128,0.17l-0.13,0.169l-0.133,0.167l-0.135,0.165l-0.138,0.163l-0.141,0.162l-0.143,0.161l-0.145,0.158l-0.148,0.157l-0.15,0.155l-0.152,0.154l-0.155,0.152l-0.157,0.15l-0.159,0.149l-0.161,0.146l-0.164,0.146l-0.165,0.143l-0.168,0.142l-0.17,0.14l-0.172,0.138l-0.174,0.137l-0.176,0.135l-0.179,0.133l-0.18,0.131l-0.182,0.13l-0.184,0.128l-0.186,0.126l-0.188,0.125l-0.189,0.123l-0.192,0.121l-0.031,0.019l-0.163,0.1l-0.195,0.117l-0.197,0.115l-0.2,0.114l-0.2,0.111l-0.203,0.11l-0.204,0.109l-0.206,0.106l-0.208,0.104l-0.209,0.103l-0.211,0.101l-0.212,0.099l-0.214,0.097l-0.216,0.096l-0.217,0.093l-0.219,0.092l-0.22,0.09l-0.222,0.088l-0.223,0.086l-0.225,0.084l-0.226,0.082l-0.228,0.08l-0.229,0.079l-0.23,0.076l-0.232,0.075l-0.233,0.072l-0.234,0.071l-0.236,0.069l-0.237,0.066l-0.238,0.065l-0.24,0.063l-0.241,0.06l-0.242,0.059l-0.243,0.056l-0.244,0.055l-0.246,0.053l-0.247,0.05l-0.247,0.048l-0.249,0.047l-0.25,0.044l-0.251,0.042l-0.253,0.04l-0.253,0.038l-0.254,0.036l-0.255,0.033l-0.256,0.032l-0.258,0.029l-0.258,0.027l-0.259,0.025l-0.26,0.023l-0.261,0.02l-0.261,0.018l-0.263,0.016l-0.263,0.014l-0.264,0.012l-0.265,0.009l-0.266,0.007l-0.267,0.004l-0.267,0.003l-0.268,-0.001l-0.268,-0.002l-0.269,-0.005l-0.072,-0.002l-0.196,-0.005l-0.267,-0.01l-0.266,-0.012l-0.265,-0.014l-0.264,-0.016l-0.264,-0.019l-0.262,-0.021l-0.262,-0.023l-0.26,-0.026l-0.26,-0.027l-0.258,-0.03l-0.257,-0.032l-0.257,-0.034l-0.255,-0.037l-0.254,-0.038l-0.254,-0.04l-0.252,-0.043l-0.251,-0.045l-0.249,-0.046l-0.249,-0.049l-0.247,-0.051l-0.246,-0.053l-0.245,-0.055l-0.244,-0.057l-0.243,-0.059l-0.241,-0.06l-0.24,-0.063l-0.238,-0.065l-0.237,-0.067l-0.236,-0.069l-0.235,-0.07l-0.233,-0.073l-0.231,-0.074l-0.231,-0.076l-0.228,-0.079l-0.228,-0.08l-0.226,-0.082l-0.224,-0.083l-0.223,-0.086l-0.221,-0.087l-0.22,-0.089l-0.218,-0.091l-0.217,-0.093l-0.215,-0.095l-0.213,-0.096l-0.212,-0.098l-0.21,-0.1l-0.208,-0.102l-0.207,-0.103l-0.205,-0.105l-0.203,-0.107l-0.202,-0.108l-0.199,-0.11l-0.198,-0.112l-0.196,-0.113l-0.194,-0.115l-0.193,-0.117l-0.19,-0.118l-0.189,-0.12l-0.187,-0.122l-0.185,-0.123l-0.183,-0.125l-0.18,-0.126l-0.179,-0.128l-0.177,-0.13l-0.175,-0.131l-0.012,-0.009l-0.161,-0.124l-0.17,-0.134l-0.169,-0.136l-0.166,-0.138l-0.164,-0.139l-0.162,-0.141l-0.16,-0.142l-0.158,-0.143l-0.155,-0.145l-0.153,-0.147l-0.151,-0.148l-0.149,-0.149l-0.146,-0.151l-0.144,-0.153l-0.141,-0.154l-0.139,-0.155l-0.137,-0.157l-0.134,-0.158l-0.132,-0.16l-0.129,-0.16l-0.127,-0.163l-0.124,-0.164l-0.121,-0.165l-0.119,-0.166l-0.116,-0.168l-0.113,-0.169l-0.111,-0.171l-0.108,-0.172l-0.105,-0.173l-0.102,-0.174l-0.1,-0.176l-0.096,-0.177l-0.094,-0.178l-0.091,-0.18l-0.088,-0.18l-0.084,-0.182l-0.082,-0.183l-0.079,-0.184l-0.075,-0.186l-0.072,-0.186l-0.07,-0.187l-0.065,-0.189l-0.063,-0.19l-0.06,-0.19l-0.056,-0.192l-0.052,-0.193l-0.049,-0.189l-0.024,-0.101l-0.022,-0.097l-0.022,-0.098l-0.021,-0.098l-0.02,-0.098l-0.019,-0.098l-0.018,-0.098l-0.017,-0.099l-0.017,-0.099l-0.015,-0.099l-0.015,-0.099l-0.014,-0.099l-0.013,-0.099l-0.011,-0.1l-0.011,-0.1l-0.011,-0.1l-0.009,-0.1l-0.008,-0.1l-0.008,-0.101l-0.006,-0.1l-0.006,-0.101l-0.004,-0.101l-0.004,-0.101l-0.003,-0.101l-0.001,-0.101l-0.001,-0.102l0,-0.101l0.001,-0.102l0.002,-0.101l0.002,-0.102l0.004,-0.101l0.005,-0.101l0.005,-0.101l0.007,-0.101l0.008,-0.1l0.008,-0.1l0.009,-0.101l0.01,-0.099l0.012,-0.1l0.012,-0.1l0.013,-0.099l0.013,-0.099l0.015,-0.099l0.016,-0.099l0.016,-0.098l0.018,-0.099l0.018,-0.098l0.019,-0.097l0.02,-0.098l0.021,-0.097l0.021,-0.097l0.023,-0.097l0.023,-0.096l0.025,-0.097l0.025,-0.096l0.027,-0.099l0.053,-0.187l0.058,-0.189l0.061,-0.189l0.064,-0.187l0.068,-0.186l0.07,-0.185l0.074,-0.184l0.077,-0.182l0.08,-0.181l0.083,-0.18l0.086,-0.178l0.089,-0.178l0.092,-0.175l0.094,-0.175l0.098,-0.173l0.1,-0.172l0.103,-0.17l0.106,-0.169l0.109,-0.168l0.111,-0.166l0.114,-0.165l0.117,-0.163l0.119,-0.162l0.122,-0.16l0.124,-0.159l0.127,-0.158l0.129,-0.156l0.132,-0.154l0.134,-0.153l0.137,-0.152l0.138,-0.15l0.142,-0.149l0.143,-0.147l0.146,-0.145l0.148,-0.144l0.15,-0.142l0.153,-0.141l0.155,-0.14l0.156,-0.137l0.159,-0.137l0.162,-0.134l0.163,-0.133l0.165,-0.132l0.167,-0.13l0.17,-0.128l0.171,-0.127l0.173,-0.125l0.175,-0.124l0.178,-0.121l0.179,-0.121l0.181,-0.118l0.183,-0.117l0.184,-0.116l0.187,-0.114l0.188,-0.112l0.19,-0.11l0.192,-0.109l0.194,-0.107l0.195,-0.105l0.197,-0.104l0.199,-0.102l0.201,-0.1l0.202,-0.098l0.203,-0.097l0.206,-0.095l0.207,-0.093l0.083,-0.037l0.125,-0.055l0.21,-0.089l0.212,-0.088l0.213,-0.086l0.215,-0.084l0.216,-0.083l0.218,-0.08l0.219,-0.079l0.22,-0.077l0.222,-0.075l0.224,-0.073l0.224,-0.071l0.226,-0.07l0.227,-0.067l0.229,-0.066l0.23,-0.064l0.231,-0.062l0.233,-0.059l0.233,-0.058l0.235,-0.056l0.236,-0.054l0.237,-0.052l0.239,-0.051l0.239,-0.048l0.241,-0.046l0.242,-0.044l0.243,-0.042l0.244,-0.04l0.244,-0.038l0.246,-0.036l0.247,-0.033l0.248,-0.032l0.249,-0.03l0.25,-0.027l0.251,-0.026l0.252,-0.023l0.252,-0.021l0.254,-0.019l0.254,-0.017l0.255,-0.014l0.256,-0.013l0.257,-0.01l0.258,-0.008l0.258,-0.005l0.259,-0.004l0.26,-0.001l0.09,0l0.17,0.001l0.266,0.003l0.087,-0.012l0.17,-0.021Z" style="fill:#a0a0a0;"/><path d="M132.338,266.657l-0.157,0.005l-0.082,0.003l-0.238,0.009l-0.237,0.012l-0.235,0.014l-0.236,0.015l-0.234,0.018l-0.233,0.02l-0.232,0.021l-0.231,0.024l-0.231,0.025l-0.229,0.027l-0.228,0.03l-0.227,0.031l-0.226,0.033l-0.225,0.035l-0.224,0.036l-0.223,0.039l-0.221,0.04l-0.22,0.042l-0.22,0.044l-0.218,0.046l-0.216,0.048l-0.216,0.049l-0.214,0.051l-0.213,0.053l-0.211,0.054l-0.211,0.056l-0.209,0.058l-0.207,0.059l-0.206,0.061l-0.205,0.063l-0.204,0.064l-0.201,0.066l-0.201,0.067l-0.199,0.069l-0.197,0.071l-0.196,0.072l-0.195,0.073l-0.192,0.075l-0.192,0.077l-0.189,0.078l-0.188,0.079l-0.187,0.081l-0.184,0.082l-0.184,0.084l-0.181,0.085l-0.108,0.052l-0.072,0.034l-0.178,0.088l-0.176,0.088l-0.174,0.091l-0.173,0.091l-0.171,0.093l-0.169,0.094l-0.167,0.095l-0.165,0.097l-0.164,0.097l-0.161,0.099l-0.16,0.1l-0.158,0.102l-0.156,0.102l-0.153,0.103l-0.152,0.105l-0.15,0.106l-0.148,0.106l-0.145,0.108l-0.144,0.109l-0.142,0.109l-0.139,0.111l-0.138,0.112l-0.135,0.112l-0.133,0.114l-0.131,0.114l-0.129,0.116l-0.126,0.116l-0.125,0.117l-0.122,0.118l-0.12,0.118l-0.118,0.12l-0.115,0.12l-0.113,0.121l-0.111,0.121l-0.109,0.123l-0.106,0.123l-0.104,0.123l-0.102,0.125l-0.099,0.124l-0.097,0.126l-0.095,0.126l-0.092,0.127l-0.09,0.127l-0.087,0.128l-0.085,0.128l-0.083,0.129l-0.08,0.129l-0.078,0.13l-0.076,0.13l-0.073,0.13l-0.07,0.131l-0.068,0.131l-0.066,0.132l-0.064,0.132l-0.06,0.133l-0.059,0.133l-0.056,0.133l-0.053,0.133l-0.051,0.134l-0.049,0.134l-0.046,0.135l-0.044,0.134l-0.041,0.135l-0.038,0.136l-0.037,0.135l-0.034,0.14l-0.015,0.064l-0.016,0.068l-0.015,0.069l-0.014,0.068l-0.013,0.068l-0.013,0.069l-0.012,0.068l-0.012,0.069l-0.011,0.068l-0.01,0.069l-0.01,0.069l-0.009,0.069l-0.008,0.069l-0.008,0.069l-0.007,0.069l-0.007,0.069l-0.006,0.07l-0.005,0.069l-0.005,0.07l-0.004,0.069l-0.003,0.07l-0.003,0.07l-0.002,0.069l-0.002,0.07l0,0.07l-0.001,0.07l0.001,0.071l0.001,0.07l0.002,0.07l0.002,0.07l0.003,0.07l0.004,0.07l0.004,0.07l0.005,0.069l0.006,0.07l0.006,0.069l0.007,0.069l0.007,0.069l0.009,0.069l0.008,0.069l0.01,0.068l0.01,0.069l0.01,0.068l0.011,0.068l0.012,0.068l0.013,0.068l0.013,0.068l0.014,0.068l0.014,0.067l0.015,0.068l0.015,0.067l0.016,0.067l0.017,0.067l0.017,0.067l0.018,0.067l0.018,0.063l0.04,0.137l0.041,0.132l0.044,0.132l0.046,0.132l0.048,0.131l0.051,0.131l0.053,0.13l0.056,0.13l0.058,0.129l0.06,0.129l0.063,0.128l0.065,0.128l0.067,0.127l0.07,0.127l0.072,0.126l0.074,0.126l0.077,0.125l0.079,0.125l0.081,0.124l0.084,0.124l0.086,0.123l0.088,0.122l0.091,0.122l0.093,0.121l0.095,0.12l0.097,0.12l0.1,0.119l0.102,0.119l0.104,0.118l0.106,0.117l0.109,0.116l0.111,0.115l0.113,0.115l0.115,0.114l0.117,0.113l0.12,0.113l0.121,0.111l0.124,0.111l0.126,0.109l0.128,0.109l0.13,0.108l0.132,0.107l0.134,0.106l0.136,0.105l0.139,0.104l0.14,0.103l0.133,0.095l0.009,0.007l0.144,0.101l0.146,0.1l0.148,0.099l0.15,0.098l0.152,0.097l0.153,0.095l0.156,0.095l0.157,0.093l0.16,0.092l0.161,0.091l0.163,0.09l0.164,0.088l0.167,0.087l0.168,0.086l0.17,0.085l0.171,0.083l0.173,0.082l0.175,0.08l0.177,0.08l0.178,0.078l0.18,0.076l0.181,0.075l0.183,0.074l0.185,0.072l0.186,0.071l0.187,0.069l0.189,0.068l0.191,0.066l0.192,0.065l0.193,0.064l0.195,0.061l0.196,0.06l0.197,0.059l0.199,0.057l0.2,0.056l0.202,0.053l0.203,0.053l0.204,0.05l0.205,0.049l0.206,0.047l0.208,0.046l0.209,0.044l0.21,0.042l0.211,0.04l0.212,0.039l0.214,0.037l0.214,0.035l0.216,0.033l0.217,0.032l0.217,0.03l0.219,0.028l0.219,0.026l0.221,0.024l0.222,0.022l0.222,0.021l0.223,0.019l0.225,0.016l0.225,0.015l0.226,0.013l0.226,0.011l0.228,0.009l0.228,0.007l0.229,0.005l0.23,0.004l0.231,0.001l0.169,-0.001l0.062,0l0.232,-0.003l0.232,-0.004l0.231,-0.007l0.23,-0.008l0.23,-0.011l0.228,-0.012l0.228,-0.015l0.227,-0.016l0.225,-0.018l0.225,-0.02l0.224,-0.022l0.223,-0.024l0.222,-0.026l0.221,-0.028l0.22,-0.029l0.218,-0.031l0.218,-0.034l0.217,-0.034l0.215,-0.037l0.214,-0.038l0.213,-0.04l0.212,-0.042l0.211,-0.044l0.21,-0.045l0.208,-0.047l0.207,-0.048l0.206,-0.051l0.204,-0.052l0.203,-0.053l0.202,-0.055l0.201,-0.057l0.199,-0.058l0.197,-0.06l0.196,-0.061l0.195,-0.063l0.194,-0.064l0.191,-0.066l0.191,-0.067l0.189,-0.069l0.187,-0.07l0.186,-0.072l0.184,-0.073l0.183,-0.074l0.18,-0.076l0.18,-0.077l0.177,-0.079l0.176,-0.079l0.175,-0.081l0.172,-0.083l0.171,-0.083l0.169,-0.085l0.168,-0.086l0.165,-0.087l0.164,-0.089l0.162,-0.09l0.16,-0.09l0.158,-0.092l0.156,-0.093l0.155,-0.094l0.152,-0.095l0.151,-0.096l0.124,-0.082l0.024,-0.016l0.147,-0.097l0.145,-0.099l0.143,-0.1l0.141,-0.1l0.139,-0.102l0.137,-0.103l0.134,-0.103l0.133,-0.104l0.131,-0.105l0.128,-0.106l0.126,-0.107l0.125,-0.107l0.122,-0.109l0.12,-0.108l0.117,-0.11l0.116,-0.11l0.113,-0.111l0.111,-0.112l0.109,-0.112l0.107,-0.113l0.104,-0.113l0.102,-0.114l0.1,-0.115l0.098,-0.115l0.095,-0.115l0.093,-0.116l0.091,-0.116l0.089,-0.117l0.086,-0.117l0.084,-0.118l0.081,-0.118l0.079,-0.118l0.077,-0.118l0.075,-0.119l0.072,-0.119l0.07,-0.12l0.068,-0.119l0.065,-0.12l0.063,-0.12l0.061,-0.121l0.059,-0.12l0.056,-0.121l0.054,-0.121l0.051,-0.121l0.049,-0.121l0.047,-0.122l0.045,-0.121l0.042,-0.122l0.041,-0.122l0.037,-0.122l0.036,-0.123l0.033,-0.122l0.033,-0.128l0.013,-0.056l0.014,-0.061l0.014,-0.062l0.013,-0.061l0.012,-0.062l0.012,-0.062l0.011,-0.061l0.011,-0.062l0.01,-0.062l0.01,-0.062l0.009,-0.062l0.008,-0.062l0.008,-0.062l0.008,-0.062l0.006,-0.062l0.007,-0.062l0.005,-0.063l0.005,-0.062l0.005,-0.063l0.004,-0.062l0.003,-0.063l0.003,-0.063l0.002,-0.062l0.002,-0.063l0.001,-0.063l0,-0.063l0,-0.064l-0.001,-0.063l0,-0.031l-0.001,-0.032l-0.001,-0.064l-0.003,-0.063l-0.002,-0.062l-0.004,-0.063l-0.004,-0.063l-0.004,-0.062l-0.005,-0.063l-0.006,-0.062l-0.006,-0.062l-0.006,-0.063l-0.008,-0.061l-0.008,-0.062l-0.008,-0.062l-0.009,-0.062l-0.01,-0.061l-0.01,-0.062l-0.01,-0.061l-0.012,-0.062l-0.011,-0.061l-0.013,-0.061l-0.013,-0.061l-0.013,-0.061l-0.014,-0.061l-0.015,-0.061l-0.015,-0.06l-0.015,-0.061l-0.015,-0.055l-0.036,-0.126l-0.036,-0.121l-0.039,-0.12l-0.04,-0.12l-0.043,-0.12l-0.045,-0.12l-0.048,-0.119l-0.05,-0.119l-0.051,-0.119l-0.055,-0.118l-0.056,-0.119l-0.059,-0.118l-0.06,-0.117l-0.064,-0.118l-0.047,-0.085l-0.018,-0.032l-0.067,-0.117l-0.069,-0.117l-0.071,-0.117l-0.074,-0.116l-0.076,-0.116l-0.078,-0.116l-0.081,-0.115l-0.083,-0.115l-0.085,-0.114l-0.087,-0.114l-0.09,-0.114l-0.091,-0.113l-0.094,-0.113l-0.097,-0.112l-0.098,-0.112l-0.101,-0.111l-0.103,-0.11l-0.105,-0.11l-0.107,-0.11l-0.11,-0.109l-0.102,-0.098l-0.01,-0.01l-0.112,-0.109l-0.114,-0.109l-0.117,-0.107l-0.119,-0.108l-0.121,-0.106l-0.123,-0.106l-0.126,-0.105l-0.127,-0.104l-0.037,-0.03l-0.091,-0.075l-0.13,-0.105l-0.132,-0.104l-0.134,-0.103l-0.136,-0.103l-0.138,-0.101l-0.141,-0.101l-0.142,-0.1l-0.035,-0.024l-0.108,-0.077l-0.144,-0.102l-0.146,-0.1l-0.148,-0.1l-0.151,-0.098l-0.152,-0.098l-0.154,-0.096l-0.156,-0.096l-0.159,-0.094l-0.16,-0.094l-0.162,-0.092l-0.164,-0.092l-0.165,-0.09l-0.168,-0.089l-0.145,-0.074l-0.024,-0.014l-0.169,-0.093l-0.17,-0.092l-0.172,-0.091l-0.174,-0.089l-0.176,-0.089l-0.178,-0.087l-0.18,-0.086l-0.181,-0.084l-0.184,-0.084l-0.185,-0.082l-0.186,-0.08l-0.189,-0.079l-0.19,-0.078l-0.192,-0.077l-0.193,-0.075l-0.196,-0.074l-0.196,-0.072l-0.199,-0.071l-0.2,-0.069l-0.202,-0.068l-0.203,-0.066l-0.204,-0.065l-0.207,-0.063l-0.147,-0.044l-0.06,-0.02l-0.208,-0.067l-0.209,-0.067l-0.211,-0.064l-0.212,-0.063l-0.214,-0.062l-0.216,-0.06l-0.217,-0.058l-0.218,-0.056l-0.22,-0.055l-0.222,-0.053l-0.222,-0.051l-0.225,-0.049l-0.225,-0.048l-0.228,-0.046l-0.228,-0.044l-0.192,-0.035l-0.038,-0.008l-0.231,-0.046l-0.232,-0.044l-0.234,-0.043l-0.235,-0.04l-0.236,-0.039l-0.238,-0.037l-0.162,-0.023l-0.081,-0.012l-0.235,0.005Zm0.5,-2.531l0.262,-0.03l0.261,-0.027l0.261,-0.026l0.26,-0.023l0.26,-0.021l0.261,-0.018l0.042,-0.003l0.217,-0.008l0.259,-0.008l0.258,-0.006l0.258,-0.003l0.258,-0.001l0.257,0.001l0.256,0.004l0.256,0.006l0.256,0.008l0.255,0.01l0.254,0.013l0.253,0.015l0.253,0.017l0.252,0.019l0.252,0.022l0.251,0.023l0.072,0.008l0.176,0.024l0.248,0.036l0.247,0.038l0.245,0.04l0.245,0.042l0.244,0.045l0.243,0.046l0.241,0.049l0.241,0.051l0.24,0.053l0.239,0.054l0.237,0.058l0.237,0.059l0.235,0.061l0.234,0.063l0.233,0.065l0.232,0.068l0.231,0.069l0.229,0.071l0.228,0.074l0.227,0.075l0.226,0.078l0.224,0.079l0.223,0.082l0.033,0.012l0.186,0.077l0.218,0.092l0.216,0.094l0.214,0.095l0.213,0.098l0.211,0.1l0.21,0.101l0.208,0.103l0.206,0.106l0.205,0.107l0.203,0.109l0.202,0.111l0.199,0.112l0.198,0.115l0.149,0.088l0.047,0.029l0.193,0.122l0.19,0.124l0.189,0.125l0.187,0.127l0.184,0.129l0.183,0.131l0.181,0.132l0.128,0.096l0.051,0.039l0.175,0.139l0.173,0.14l0.171,0.142l0.169,0.143l0.167,0.145l0.164,0.147l0.162,0.149l0.161,0.15l0.013,0.014l0.143,0.14l0.154,0.155l0.152,0.157l0.149,0.159l0.147,0.16l0.144,0.162l0.142,0.163l0.14,0.166l0.137,0.166l0.134,0.169l0.132,0.17l0.129,0.171l0.127,0.173l0.124,0.175l0.121,0.176l0.118,0.178l0.116,0.18l0.113,0.181l0.11,0.182l0.107,0.184l0.104,0.186l0.027,0.05l0.073,0.137l0.098,0.189l0.094,0.19l0.091,0.192l0.088,0.193l0.085,0.194l0.081,0.196l0.079,0.197l0.074,0.199l0.072,0.199l0.068,0.201l0.065,0.203l0.061,0.203l0.058,0.204l0.052,0.201l0.027,0.108l0.025,0.104l0.024,0.103l0.023,0.104l0.022,0.105l0.021,0.104l0.02,0.105l0.02,0.105l0.018,0.105l0.017,0.106l0.017,0.105l0.015,0.106l0.015,0.106l0.013,0.107l0.013,0.106l0.012,0.107l0.01,0.107l0.01,0.107l0.009,0.107l0.007,0.107l0.007,0.108l0.006,0.108l0.005,0.108l0.004,0.108l0.002,0.108l0.002,0.108l0.001,0.108l0,0.056l0,0.053l-0.002,0.108l-0.002,0.109l-0.004,0.108l-0.004,0.108l-0.006,0.108l-0.006,0.108l-0.008,0.107l-0.008,0.108l-0.01,0.107l-0.01,0.107l-0.011,0.106l-0.013,0.107l-0.013,0.106l-0.014,0.106l-0.016,0.106l-0.016,0.106l-0.017,0.105l-0.018,0.105l-0.019,0.105l-0.02,0.105l-0.021,0.104l-0.021,0.104l-0.023,0.104l-0.024,0.104l-0.024,0.103l-0.026,0.103l-0.026,0.102l-0.029,0.108l-0.055,0.199l-0.061,0.202l-0.064,0.202l-0.068,0.2l-0.071,0.199l-0.074,0.197l-0.078,0.197l-0.081,0.194l-0.084,0.194l-0.087,0.191l-0.091,0.191l-0.093,0.189l-0.097,0.187l-0.1,0.186l-0.102,0.184l-0.106,0.183l-0.108,0.182l-0.112,0.179l-0.114,0.178l-0.117,0.177l-0.12,0.175l-0.122,0.173l-0.125,0.172l-0.128,0.17l-0.13,0.169l-0.133,0.166l-0.136,0.166l-0.138,0.163l-0.14,0.162l-0.143,0.16l-0.146,0.159l-0.147,0.157l-0.15,0.155l-0.153,0.154l-0.154,0.152l-0.157,0.15l-0.159,0.148l-0.162,0.147l-0.163,0.145l-0.166,0.144l-0.168,0.141l-0.17,0.141l-0.172,0.138l-0.174,0.137l-0.176,0.134l-0.178,0.134l-0.18,0.131l-0.182,0.13l-0.184,0.128l-0.186,0.126l-0.188,0.125l-0.19,0.123l-0.192,0.121l-0.031,0.019l-0.162,0.099l-0.196,0.118l-0.197,0.115l-0.199,0.113l-0.201,0.112l-0.202,0.11l-0.205,0.108l-0.206,0.107l-0.207,0.104l-0.209,0.103l-0.211,0.101l-0.213,0.099l-0.214,0.097l-0.216,0.095l-0.217,0.094l-0.219,0.092l-0.22,0.089l-0.222,0.088l-0.223,0.086l-0.225,0.084l-0.226,0.083l-0.227,0.08l-0.229,0.078l-0.231,0.077l-0.231,0.074l-0.233,0.073l-0.235,0.071l-0.236,0.068l-0.237,0.067l-0.238,0.065l-0.239,0.062l-0.241,0.061l-0.242,0.059l-0.243,0.056l-0.245,0.055l-0.245,0.052l-0.247,0.051l-0.248,0.048l-0.249,0.046l-0.25,0.045l-0.251,0.042l-0.252,0.04l-0.253,0.038l-0.255,0.035l-0.255,0.034l-0.256,0.031l-0.257,0.03l-0.258,0.027l-0.259,0.025l-0.26,0.022l-0.261,0.021l-0.262,0.018l-0.262,0.016l-0.264,0.014l-0.264,0.011l-0.265,0.009l-0.266,0.007l-0.266,0.005l-0.267,0.002l-0.268,0l-0.269,-0.002l-0.269,-0.005l-0.071,-0.002l-0.196,-0.005l-0.267,-0.01l-0.266,-0.012l-0.266,-0.014l-0.264,-0.017l-0.263,-0.018l-0.263,-0.021l-0.261,-0.024l-0.261,-0.025l-0.259,-0.028l-0.259,-0.03l-0.257,-0.031l-0.256,-0.035l-0.256,-0.036l-0.254,-0.038l-0.253,-0.041l-0.252,-0.042l-0.251,-0.045l-0.25,-0.047l-0.248,-0.048l-0.248,-0.051l-0.246,-0.053l-0.245,-0.055l-0.244,-0.057l-0.242,-0.059l-0.241,-0.061l-0.24,-0.063l-0.239,-0.064l-0.237,-0.067l-0.236,-0.069l-0.234,-0.07l-0.233,-0.073l-0.232,-0.074l-0.23,-0.077l-0.229,-0.078l-0.227,-0.08l-0.226,-0.082l-0.224,-0.084l-0.223,-0.085l-0.222,-0.088l-0.219,-0.089l-0.219,-0.091l-0.216,-0.093l-0.215,-0.094l-0.214,-0.096l-0.211,-0.098l-0.21,-0.1l-0.209,-0.102l-0.206,-0.103l-0.205,-0.105l-0.204,-0.107l-0.201,-0.108l-0.2,-0.11l-0.198,-0.112l-0.196,-0.113l-0.194,-0.116l-0.192,-0.116l-0.191,-0.119l-0.189,-0.12l-0.186,-0.121l-0.185,-0.123l-0.183,-0.125l-0.181,-0.127l-0.179,-0.128l-0.177,-0.129l-0.175,-0.131l-0.011,-0.009l-0.161,-0.124l-0.171,-0.135l-0.168,-0.136l-0.167,-0.137l-0.164,-0.139l-0.162,-0.141l-0.16,-0.142l-0.157,-0.144l-0.156,-0.145l-0.153,-0.146l-0.151,-0.148l-0.148,-0.15l-0.147,-0.151l-0.143,-0.152l-0.142,-0.154l-0.139,-0.155l-0.137,-0.157l-0.134,-0.158l-0.131,-0.16l-0.129,-0.161l-0.127,-0.162l-0.124,-0.164l-0.122,-0.165l-0.118,-0.167l-0.116,-0.167l-0.114,-0.17l-0.111,-0.17l-0.107,-0.172l-0.106,-0.173l-0.102,-0.174l-0.099,-0.176l-0.097,-0.177l-0.094,-0.178l-0.09,-0.18l-0.088,-0.18l-0.085,-0.182l-0.082,-0.183l-0.078,-0.185l-0.076,-0.185l-0.072,-0.186l-0.069,-0.188l-0.066,-0.188l-0.063,-0.19l-0.059,-0.191l-0.056,-0.191l-0.053,-0.193l-0.048,-0.19l-0.024,-0.1l-0.023,-0.098l-0.022,-0.097l-0.02,-0.098l-0.02,-0.098l-0.019,-0.098l-0.019,-0.099l-0.017,-0.098l-0.016,-0.099l-0.016,-0.099l-0.014,-0.099l-0.014,-0.099l-0.013,-0.1l-0.012,-0.099l-0.011,-0.1l-0.01,-0.1l-0.009,-0.1l-0.009,-0.101l-0.007,-0.1l-0.007,-0.101l-0.005,-0.1l-0.005,-0.101l-0.003,-0.101l-0.003,-0.101l-0.002,-0.102l-0.001,-0.101l0,-0.101l0.001,-0.102l0.002,-0.102l0.003,-0.101l0.004,-0.101l0.004,-0.101l0.006,-0.101l0.007,-0.101l0.007,-0.1l0.008,-0.101l0.01,-0.1l0.01,-0.1l0.011,-0.1l0.012,-0.099l0.013,-0.099l0.014,-0.1l0.015,-0.098l0.015,-0.099l0.017,-0.099l0.017,-0.098l0.018,-0.098l0.019,-0.098l0.02,-0.097l0.021,-0.097l0.022,-0.097l0.023,-0.097l0.023,-0.097l0.024,-0.096l0.025,-0.096l0.027,-0.099l0.054,-0.187l0.057,-0.19l0.061,-0.188l0.065,-0.187l0.067,-0.186l0.071,-0.185l0.074,-0.184l0.076,-0.182l0.08,-0.181l0.083,-0.18l0.086,-0.179l0.089,-0.177l0.092,-0.176l0.095,-0.174l0.097,-0.173l0.101,-0.172l0.103,-0.171l0.106,-0.169l0.108,-0.167l0.112,-0.166l0.114,-0.165l0.116,-0.163l0.12,-0.162l0.121,-0.161l0.125,-0.159l0.126,-0.157l0.13,-0.156l0.131,-0.155l0.135,-0.153l0.136,-0.151l0.139,-0.15l0.141,-0.149l0.144,-0.147l0.145,-0.145l0.149,-0.144l0.15,-0.143l0.152,-0.141l0.155,-0.139l0.157,-0.138l0.159,-0.136l0.161,-0.135l0.163,-0.133l0.165,-0.131l0.168,-0.13l0.169,-0.129l0.171,-0.126l0.174,-0.125l0.175,-0.124l0.177,-0.122l0.179,-0.12l0.181,-0.119l0.183,-0.117l0.185,-0.115l0.186,-0.114l0.189,-0.112l0.19,-0.11l0.192,-0.109l0.193,-0.107l0.196,-0.105l0.197,-0.104l0.199,-0.102l0.2,-0.1l0.202,-0.099l0.204,-0.096l0.205,-0.095l0.207,-0.094l0.084,-0.036l0.125,-0.055l0.21,-0.09l0.212,-0.087l0.213,-0.086l0.214,-0.085l0.217,-0.082l0.217,-0.08l0.219,-0.079l0.221,-0.077l0.222,-0.075l0.223,-0.073l0.225,-0.072l0.226,-0.069l0.227,-0.068l0.229,-0.065l0.229,-0.064l0.232,-0.062l0.232,-0.06l0.234,-0.058l0.235,-0.056l0.236,-0.054l0.237,-0.052l0.238,-0.05l0.24,-0.048l0.24,-0.046l0.242,-0.044l0.243,-0.042l0.244,-0.04l0.245,-0.038l0.246,-0.036l0.247,-0.034l0.248,-0.031l0.249,-0.03l0.25,-0.027l0.25,-0.026l0.252,-0.023l0.253,-0.021l0.253,-0.019l0.255,-0.017l0.255,-0.014l0.256,-0.013l0.257,-0.01l0.257,-0.008l0.258,-0.006l0.26,-0.003l0.259,-0.002l0.09,0.001l0.171,0.001l0.265,0.003l0.088,-0.012l0.169,-0.022Z" style="fill:#a0a0a0;"/><path d="M172.778,278.062l-0.228,0.138l-0.247,0.102l-0.259,0.063l-0.265,0.024l-2.495,0.039l-64.213,1l-53.766,0.826l-0.35,-0.022l-0.343,-0.077l-0.327,-0.13l-0.303,-0.179l-0.272,-0.224l-0.233,-0.265l-0.189,-0.297l0,0l-0.169,-0.321l-0.171,-0.324l-0.17,-0.326l-0.169,-0.326l-0.168,-0.328l-0.167,-0.328l-0.166,-0.33l-0.165,-0.33l-0.164,-0.331l-0.164,-0.332l-0.162,-0.334l-0.161,-0.334l-0.161,-0.335l-0.16,-0.335l-0.158,-0.337l-0.158,-0.338l-0.157,-0.339l-0.156,-0.339l-0.155,-0.341l-0.154,-0.341l-0.153,-0.342l-0.152,-0.343l-0.151,-0.344l-0.151,-0.345l-0.149,-0.346l-0.149,-0.347l-0.147,-0.347l-0.147,-0.349l-0.145,-0.349l-0.145,-0.35l-0.144,-0.351l-0.143,-0.352l-0.142,-0.353l-0.141,-0.353l-0.14,-0.355l-0.139,-0.355l-0.138,-0.356l-0.138,-0.357l-0.136,-0.358l-0.136,-0.359l-0.134,-0.359l-0.134,-0.36l-0.132,-0.361l-0.132,-0.362l-0.131,-0.363l-0.13,-0.363l-0.129,-0.365l-0.127,-0.365l-0.128,-0.366l-0.126,-0.366l-0.125,-0.368l-0.124,-0.368l-0.123,-0.369l-0.123,-0.37l-0.121,-0.371l-0.121,-0.371l-0.119,-0.372l-0.119,-0.373l-0.117,-0.374l-0.117,-0.374l-0.116,-0.376l-0.115,-0.376l-0.114,-0.376l-0.113,-0.378l-0.112,-0.378l-0.111,-0.379l-0.11,-0.379l-0.109,-0.381l-0.108,-0.381l-0.108,-0.382l-0.106,-0.382l-0.106,-0.384l-0.104,-0.384l-0.104,-0.384l-0.102,-0.386l-0.102,-0.386l-0.101,-0.387l-0.1,-0.387l-0.098,-0.388l-0.098,-0.389l-0.097,-0.39l-0.096,-0.39l-0.095,-0.391l-0.095,-0.392l-0.093,-0.392l-0.092,-0.393l-0.091,-0.394l-0.091,-0.394l-0.089,-0.395l-0.089,-0.395l-0.087,-0.397l-0.087,-0.397l-0.085,-0.397l-0.085,-0.398l-0.084,-0.399l-0.082,-0.4l-0.082,-0.4l-0.081,-0.4l-0.08,-0.402l-0.079,-0.402l-0.078,-0.402l-0.077,-0.403l-0.076,-0.404l-0.075,-0.405l-0.075,-0.405l-0.073,-0.405l-0.072,-0.406l-0.072,-0.407l-0.07,-0.407l-0.069,-0.408l-0.069,-0.409l-0.067,-0.409l-0.067,-0.41l-0.066,-0.41l-0.064,-0.411l-0.064,-0.411l-0.063,-0.412l-0.062,-0.413l-0.06,-0.413l-0.06,-0.414l-0.059,-0.414l-0.058,-0.414l-0.057,-0.416l-0.056,-0.415l-0.055,-0.417l-0.055,-0.417l-0.053,-0.417l-0.052,-0.418l-0.051,-0.418l-0.051,-0.419l-0.049,-0.42l-0.048,-0.42l-0.048,-0.42l-0.046,-0.421l-0.046,-0.422l-0.044,-0.422l-0.044,-0.422l-0.042,-0.423l-0.042,-0.424l-0.041,-0.423l-0.04,-0.425l-0.038,-0.425l-0.038,-0.425l-0.037,-0.426l-0.036,-0.426l-0.035,-0.427l-0.034,-0.427l-0.033,-0.428l-0.032,-0.428l-0.031,-0.428l-0.03,-0.429l-0.029,-0.43l-0.028,-0.43l-0.027,-0.43l-0.026,-0.431l-0.025,-0.431l-0.025,-0.432l-0.023,-0.432l-0.022,-0.432l-0.021,-0.433l-0.021,-0.433l-0.019,-0.434l-0.019,-0.434l-0.017,-0.434l-0.016,-0.435l-0.016,-0.435l-0.014,-0.436l-0.014,-0.436l-0.012,-0.436l-0.012,-0.437l-0.011,-0.437l-0.009,-0.438l-0.009,-0.438l-0.008,-0.438l-0.006,-0.439l-0.006,-0.439l-0.005,-0.439l-0.003,-0.44l-0.003,-0.44l-0.002,-0.44l-0.001,-0.441l0,-0.441l0.001,-0.441l0.003,-0.442l0.003,-0.442l0.004,-0.442l0.005,-0.443l0.006,-0.443l0.007,-0.443l0.008,-0.444l0.009,-0.444l0.01,-0.444l0.011,-0.445l0.012,-0.444l0.013,-0.446l0.014,-0.445l0.015,-0.446l0.016,-0.446l0.017,-0.446l0.017,-0.446l0.019,-0.447l0.02,-0.447l0.021,-0.448l0.022,-0.447l0.023,-0.448l0.024,-0.448l0.024,-0.449l0.026,-0.448l0.027,-0.449l0.028,-0.449l0.029,-0.45l0.029,-0.449l0.031,-0.45l0.032,-0.45l0.033,-0.45l0.033,-0.451l0.035,-0.45l0.036,-0.451l0.037,-0.451l0.037,-0.452l0.039,-0.451l0.04,-0.452l0.041,-0.452l0.041,-0.452l0.043,-0.452l0.044,-0.453l0.045,-0.452l0.045,-0.453l0.047,-0.453l0.048,-0.453l0.048,-0.454l0.05,-0.453l0.051,-0.454l0.052,-0.454l0.052,-0.454l0.054,-0.454l0.045,-0.368l0.01,-0.086l0.056,-0.454l0.057,-0.455l0.058,-0.455l0.059,-0.455l0.059,-0.454l0.061,-0.456l0.062,-0.455l0.063,-0.455l0.064,-0.455l0.065,-0.456l0.066,-0.456l0.067,-0.455l0.068,-0.456l0.069,-0.456l0.07,-0.456l0.071,-0.456l0.072,-0.457l0.073,-0.456l0.074,-0.457l0.091,-0.553l0.093,-0.553l0.094,-0.552l0.095,-0.552l0.097,-0.552l0.098,-0.552l0.1,-0.551l0.101,-0.551l0.102,-0.551l0.104,-0.55l0.105,-0.55l0.107,-0.549l0.108,-0.549l0.109,-0.549l0.111,-0.548l0.112,-0.548l0.114,-0.548l0.115,-0.547l0.116,-0.547l0.118,-0.546l0.119,-0.546l0.121,-0.546l0.122,-0.545l0.123,-0.544l0.124,-0.544l0.126,-0.544l0.128,-0.543l0.129,-0.543l0.13,-0.542l0.131,-0.542l0.133,-0.541l0.134,-0.541l0.136,-0.54l0.137,-0.54l0.138,-0.539l0.139,-0.539l0.141,-0.538l0.143,-0.538l0.143,-0.537l0.145,-0.536l0.146,-0.536l0.148,-0.536l0.149,-0.535l0.15,-0.534l0.152,-0.534l0.153,-0.533l0.154,-0.532l0.156,-0.532l0.157,-0.531l0.158,-0.531l0.16,-0.53l0.16,-0.53l0.163,-0.529l0.163,-0.528l0.165,-0.527l0.166,-0.527l0.167,-0.526l0.169,-0.526l0.17,-0.525l0.171,-0.524l0.173,-0.524l0.174,-0.523l0.175,-0.522l0.177,-0.521l0.177,-0.521l0.179,-0.52l0.181,-0.519l0.181,-0.519l0.183,-0.518l0.185,-0.517l0.185,-0.516l0.187,-0.516l0.188,-0.515l0.189,-0.514l0.19,-0.513l0.192,-0.512l0.193,-0.512l0.195,-0.511l0.195,-0.51l0.197,-0.51l0.198,-0.508l0.199,-0.508l0.201,-0.507l0.202,-0.506l0.203,-0.505l0.204,-0.504l0.206,-0.504l0.207,-0.503l0.208,-0.501l0.209,-0.501l0.21,-0.5l0.212,-0.5l0.213,-0.498l0.214,-0.497l0.216,-0.497l0.216,-0.495l0.218,-0.495l0.219,-0.494l0.221,-0.492l0.221,-0.492l0.223,-0.491l0.224,-0.49l0.225,-0.489l0.226,-0.488l0.228,-0.487l0.229,-0.487l0.23,-0.485l0.231,-0.484l0.232,-0.483l0.234,-0.482l0.234,-0.481l0.236,-0.481l0.237,-0.479l0.239,-0.478l0.239,-0.477l0.241,-0.476l0.242,-0.475l0.243,-0.474l0.244,-0.473l0.245,-0.472l0.247,-0.471l0.248,-0.469l0.249,-0.469l0.25,-0.467l0.251,-0.467l0.252,-0.465l0.254,-0.464l0.253,-0.46l0.241,-0.367l0,0l0.293,-0.328l0.339,-0.281l0.378,-0.226l0.407,-0.168l0.428,-0.104l0.439,-0.039l7.622,-0.115l86.489,-1.272l46.516,-0.658l0.534,0.036l0.522,0.119l0.497,0.201l0.459,0.278l0.409,0.346l0.349,0.408l0.28,0.457l0.204,0.496l0.001,0l0.188,0.586l0.189,0.595l0.187,0.597l0.184,0.598l0.181,0.601l0.18,0.602l0.177,0.604l0.174,0.605l0.172,0.608l0.17,0.609l0.167,0.61l0.165,0.613l0.162,0.614l0.16,0.615l0.158,0.618l0.155,0.619l0.153,0.62l0.15,0.622l0.148,0.624l0.146,0.625l0.143,0.627l0.141,0.629l0.139,0.629l0.136,0.632l0.133,0.633l0.131,0.634l0.129,0.636l0.126,0.638l0.124,0.638l0.122,0.641l0.119,0.641l0.117,0.643l0.114,0.645l0.112,0.645l0.11,0.648l0.107,0.648l0.105,0.65l0.102,0.651l0.048,0.312l0.052,0.341l0.097,0.654l0.094,0.655l0.092,0.656l0.09,0.658l0.088,0.659l0.084,0.66l0.083,0.661l0.08,0.663l0.078,0.663l0.075,0.665l0.073,0.666l0.07,0.667l0.069,0.669l0.065,0.669l0.063,0.671l0.061,0.671l0.059,0.673l0.056,0.674l0.053,0.674l0.052,0.676l0.048,0.677l0.047,0.678l0.044,0.679l0.041,0.68l0.039,0.68l0.037,0.682l0.034,0.683l0.032,0.683l0.029,0.685l0.028,0.685l0.024,0.686l0.022,0.688l0.02,0.688l0.017,0.688l0.015,0.69l0.013,0.691l0.01,0.691l0.008,0.692l0.005,0.693l0.003,0.693l0,0.695l-0.002,0.695l-0.003,0.432l-0.002,0.264l-0.007,0.696l-0.01,0.697l-0.013,0.698l-0.015,0.699l-0.017,0.699l-0.02,0.7l-0.022,0.7l-0.025,0.701l-0.027,0.702l-0.029,0.702l-0.032,0.703l-0.034,0.703l-0.037,0.704l-0.039,0.704l-0.042,0.705l-0.044,0.706l-0.047,0.706l-0.049,0.706l-0.051,0.707l-0.054,0.707l-0.056,0.708l-0.059,0.708l-0.061,0.708l-0.063,0.709l-0.066,0.709l-0.069,0.71l-0.071,0.71l-0.073,0.71l-0.076,0.711l-0.078,0.711l-0.081,0.711l-0.083,0.712l-0.011,0.089l-0.076,0.622l-0.09,0.712l-0.093,0.712l-0.095,0.712l-0.097,0.713l-0.1,0.712l-0.102,0.713l-0.105,0.713l-0.107,0.713l-0.109,0.713l-0.112,0.713l-0.115,0.714l-0.117,0.713l-0.06,0.361l-0.061,0.353l-0.131,0.753l-0.134,0.753l-0.137,0.752l-0.139,0.751l-0.142,0.751l-0.145,0.749l-0.147,0.749l-0.149,0.748l-0.152,0.748l-0.155,0.746l-0.157,0.746l-0.151,0.703l-0.009,0.041l-0.166,0.743l-0.169,0.743l-0.171,0.741l-0.173,0.74l-0.176,0.739l-0.178,0.739l-0.181,0.737l-0.183,0.736l-0.186,0.735l-0.189,0.734l-0.19,0.733l-0.194,0.732l-0.195,0.731l-0.198,0.73l-0.201,0.729l-0.203,0.727l-0.205,0.727l-0.208,0.725l-0.21,0.724l-0.213,0.723l-0.215,0.721l-0.217,0.72l-0.22,0.72l-0.222,0.717l-0.012,0.039l-0.217,0.676l-0.233,0.714l-0.234,0.712l-0.237,0.711l-0.24,0.709l-0.241,0.709l-0.244,0.706l-0.247,0.706l-0.248,0.703l-0.251,0.703l-0.253,0.701l-0.256,0.699l-0.257,0.698l-0.26,0.696l-0.262,0.695l-0.265,0.694l-0.267,0.691l-0.268,0.691l-0.272,0.688l-0.273,0.687l-0.276,0.686l-0.277,0.683l-0.28,0.683l-0.283,0.68l-0.284,0.679l-0.287,0.677l-0.288,0.675l-0.291,0.674l-0.293,0.672l-0.295,0.67l-0.298,0.669l-0.299,0.666l-0.302,0.665l-0.304,0.663l-0.306,0.661l-0.308,0.659l-0.31,0.658l-0.312,0.656l-0.314,0.653l-0.317,0.652l-0.318,0.65l-0.321,0.648l-0.322,0.646l-0.179,0.354l-0.148,0.289l-0.332,0.639l-0.334,0.638l-0.336,0.635l-0.338,0.633l-0.34,0.632l-0.342,0.629l-0.344,0.627l-0.346,0.625l-0.348,0.623l-0.35,0.62l-0.351,0.619l-0.354,0.616l-0.356,0.614l-0.358,0.612l-0.359,0.61l-0.362,0.607l-0.363,0.605l-0.365,0.603l-0.368,0.601l-0.369,0.598l-0.371,0.596l-0.373,0.593l-0.375,0.592l-0.376,0.588l-0.379,0.587l-0.38,0.584l-0.382,0.582l-0.384,0.579l-0.386,0.577l-0.388,0.574l-0.389,0.572l-0.392,0.569l-0.142,0.206l-0.253,0.36l-0.398,0.562l-0.4,0.559l-0.402,0.557l-0.403,0.555l-0.405,0.552l-0.407,0.549l-0.409,0.546l-0.41,0.544l-0.412,0.541l-0.414,0.539l-0.415,0.536l-0.418,0.533l-0.419,0.53l-0.42,0.528l-0.104,0.129l-0.317,0.392l-0.176,0.2l-0.205,0.171Zm-18.34,-166.173l-83.707,0.675l0,-0.034l-7.657,0.087l-0.169,0.309l-0.245,0.451l-0.245,0.451l-0.243,0.453l-0.242,0.454l-0.241,0.456l-0.24,0.456l-0.239,0.457l-0.238,0.459l-0.236,0.459l-0.236,0.461l-0.234,0.461l-0.233,0.463l-0.232,0.464l-0.232,0.465l-0.229,0.465l-0.229,0.467l-0.228,0.468l-0.226,0.469l-0.226,0.47l-0.224,0.471l-0.223,0.472l-0.222,0.472l-0.221,0.474l-0.22,0.475l-0.218,0.476l-0.218,0.477l-0.216,0.477l-0.215,0.479l-0.214,0.48l-0.213,0.48l-0.211,0.482l-0.211,0.482l-0.209,0.483l-0.208,0.485l-0.207,0.485l-0.206,0.486l-0.204,0.487l-0.203,0.487l-0.203,0.489l-0.201,0.489l-0.199,0.491l-0.199,0.491l-0.197,0.492l-0.197,0.493l-0.195,0.494l-0.194,0.494l-0.192,0.496l-0.192,0.496l-0.19,0.497l-0.189,0.498l-0.188,0.499l-0.186,0.499l-0.186,0.5l-0.184,0.501l-0.183,0.502l-0.181,0.503l-0.181,0.503l-0.179,0.504l-0.178,0.505l-0.177,0.505l-0.175,0.506l-0.175,0.507l-0.173,0.508l-0.171,0.508l-0.171,0.509l-0.169,0.51l-0.168,0.511l-0.167,0.511l-0.166,0.512l-0.164,0.512l-0.163,0.513l-0.162,0.514l-0.16,0.515l-0.16,0.515l-0.158,0.516l-0.156,0.516l-0.156,0.517l-0.154,0.518l-0.153,0.518l-0.151,0.519l-0.151,0.519l-0.149,0.52l-0.147,0.521l-0.147,0.521l-0.145,0.522l-0.144,0.522l-0.142,0.523l-0.141,0.523l-0.14,0.524l-0.139,0.525l-0.137,0.525l-0.136,0.526l-0.135,0.526l-0.133,0.526l-0.132,0.527l-0.131,0.528l-0.13,0.528l-0.128,0.529l-0.127,0.529l-0.125,0.529l-0.124,0.53l-0.123,0.531l-0.121,0.531l-0.12,0.531l-0.119,0.532l-0.118,0.532l-0.116,0.533l-0.114,0.533l-0.114,0.533l-0.112,0.534l-0.11,0.534l-0.11,0.535l-0.108,0.535l-0.106,0.536l-0.106,0.535l-0.103,0.537l-0.103,0.536l-0.101,0.537l-0.1,0.537l-0.098,0.538l-0.097,0.538l-0.096,0.538l-0.094,0.539l-0.093,0.539l-0.075,0.444l-0.075,0.445l-0.074,0.444l-0.072,0.444l-0.072,0.445l-0.07,0.444l-0.07,0.444l-0.068,0.444l-0.068,0.444l-0.067,0.444l-0.065,0.444l-0.065,0.443l-0.064,0.444l-0.063,0.443l-0.061,0.443l-0.061,0.444l-0.06,0.443l-0.059,0.443l-0.057,0.442l-0.011,0.085l-0.046,0.358l-0.056,0.442l-0.055,0.443l-0.054,0.442l-0.053,0.442l-0.052,0.442l-0.051,0.442l-0.05,0.441l-0.05,0.442l-0.048,0.441l-0.047,0.441l-0.046,0.441l-0.045,0.441l-0.044,0.44l-0.044,0.441l-0.042,0.44l-0.041,0.44l-0.041,0.44l-0.039,0.439l-0.038,0.44l-0.038,0.439l-0.036,0.439l-0.036,0.439l-0.034,0.438l-0.034,0.439l-0.032,0.438l-0.032,0.438l-0.03,0.437l-0.03,0.438l-0.029,0.437l-0.027,0.437l-0.027,0.437l-0.026,0.436l-0.025,0.436l-0.023,0.436l-0.023,0.436l-0.022,0.435l-0.021,0.435l-0.02,0.435l-0.019,0.435l-0.018,0.434l-0.017,0.434l-0.016,0.434l-0.015,0.433l-0.014,0.434l-0.014,0.433l-0.012,0.432l-0.011,0.432l-0.01,0.432l-0.01,0.432l-0.008,0.431l-0.008,0.432l-0.006,0.43l-0.006,0.431l-0.004,0.43l-0.004,0.43l-0.002,0.429l-0.002,0.429l-0.001,0.429l0,0.428l0.002,0.428l0.002,0.428l0.003,0.427l0.004,0.427l0.005,0.427l0.006,0.426l0.007,0.426l0.008,0.425l0.009,0.426l0.009,0.424l0.011,0.425l0.012,0.424l0.012,0.423l0.014,0.423l0.014,0.423l0.016,0.423l0.016,0.421l0.018,0.422l0.018,0.421l0.019,0.421l0.021,0.42l0.021,0.42l0.022,0.42l0.023,0.419l0.024,0.418l0.025,0.418l0.026,0.418l0.027,0.417l0.028,0.417l0.028,0.417l0.03,0.416l0.031,0.415l0.031,0.415l0.033,0.415l0.033,0.414l0.035,0.413l0.035,0.413l0.036,0.413l0.037,0.412l0.038,0.412l0.04,0.411l0.04,0.411l0.041,0.41l0.041,0.409l0.043,0.41l0.044,0.408l0.045,0.408l0.045,0.408l0.047,0.407l0.048,0.407l0.048,0.406l0.049,0.405l0.051,0.405l0.051,0.405l0.052,0.403l0.053,0.404l0.054,0.403l0.055,0.402l0.056,0.402l0.057,0.401l0.058,0.4l0.058,0.4l0.06,0.4l0.061,0.399l0.061,0.398l0.062,0.398l0.064,0.397l0.064,0.396l0.065,0.396l0.066,0.396l0.067,0.394l0.068,0.394l0.069,0.394l0.07,0.393l0.071,0.392l0.071,0.392l0.073,0.391l0.073,0.39l0.075,0.39l0.075,0.39l0.076,0.388l0.077,0.388l0.078,0.387l0.079,0.387l0.08,0.386l0.081,0.385l0.082,0.385l0.083,0.384l0.083,0.383l0.085,0.383l0.085,0.382l0.086,0.381l0.088,0.381l0.088,0.38l0.089,0.379l0.09,0.379l0.091,0.378l0.091,0.377l0.093,0.377l0.094,0.375l0.094,0.376l0.095,0.374l0.097,0.374l0.097,0.373l0.098,0.372l0.099,0.371l0.1,0.371l0.101,0.37l0.102,0.37l0.102,0.368l0.104,0.368l0.104,0.367l0.106,0.367l0.106,0.365l0.107,0.365l0.108,0.364l0.109,0.364l0.11,0.362l0.111,0.362l0.111,0.361l0.113,0.36l0.114,0.36l0.114,0.358l0.115,0.358l0.116,0.358l0.117,0.356l0.118,0.355l0.119,0.355l0.12,0.354l0.12,0.353l0.122,0.352l0.122,0.352l0.123,0.351l0.125,0.349l0.125,0.349l0.126,0.349l0.126,0.347l0.128,0.346l0.129,0.346l0.129,0.345l0.131,0.344l0.131,0.343l0.132,0.342l0.133,0.342l0.134,0.34l0.135,0.34l0.136,0.339l0.136,0.338l0.138,0.337l0.138,0.336l0.139,0.335l0.14,0.335l0.141,0.333l0.142,0.333l0.143,0.332l0.143,0.331l0.145,0.33l0.145,0.329l0.146,0.328l0.147,0.327l0.148,0.326l0.149,0.326l0.15,0.324l0.15,0.324l0.152,0.322l0.152,0.322l0.153,0.321l0.154,0.32l0.155,0.318l0.156,0.318l0.157,0.317l0.157,0.316l0.159,0.315l0.025,0.049l53.544,-0.407l63.092,-0.456l1.554,-0.011l0.273,-0.391l0.375,-0.542l0.373,-0.546l0.371,-0.547l0.369,-0.55l0.368,-0.553l0.365,-0.555l0.364,-0.557l0.362,-0.56l0.36,-0.562l0.358,-0.565l0.356,-0.567l0.354,-0.569l0.352,-0.572l0.224,-0.365l0.128,-0.208l0.352,-0.574l0.349,-0.576l0.348,-0.578l0.346,-0.581l0.344,-0.583l0.342,-0.586l0.34,-0.587l0.338,-0.59l0.336,-0.592l0.334,-0.594l0.333,-0.596l0.33,-0.598l0.328,-0.6l0.326,-0.603l0.325,-0.605l0.322,-0.606l0.32,-0.609l0.319,-0.611l0.316,-0.612l0.314,-0.615l0.312,-0.617l0.31,-0.619l0.309,-0.62l0.306,-0.623l0.304,-0.625l0.302,-0.626l0.3,-0.628l0.297,-0.631l0.296,-0.632l0.294,-0.634l0.291,-0.636l0.29,-0.637l0.129,-0.287l0.161,-0.351l0.291,-0.639l0.288,-0.64l0.287,-0.643l0.284,-0.644l0.282,-0.645l0.28,-0.648l0.278,-0.649l0.276,-0.651l0.274,-0.653l0.271,-0.654l0.27,-0.656l0.267,-0.658l0.265,-0.659l0.263,-0.661l0.261,-0.663l0.258,-0.664l0.257,-0.665l0.254,-0.668l0.252,-0.668l0.25,-0.671l0.248,-0.671l0.245,-0.674l0.244,-0.674l0.241,-0.676l0.238,-0.678l0.237,-0.679l0.234,-0.68l0.233,-0.682l0.229,-0.683l0.228,-0.685l0.225,-0.686l0.223,-0.687l0.221,-0.689l0.219,-0.689l0.216,-0.691l0.214,-0.693l0.211,-0.693l0.21,-0.695l0.207,-0.696l0.205,-0.697l0.202,-0.699l0.2,-0.699l0.187,-0.663l0.011,-0.038l0.201,-0.7l0.198,-0.702l0.197,-0.702l0.194,-0.704l0.191,-0.704l0.189,-0.706l0.187,-0.707l0.185,-0.708l0.182,-0.709l0.179,-0.71l0.178,-0.711l0.175,-0.712l0.172,-0.713l0.17,-0.714l0.168,-0.715l0.165,-0.716l0.163,-0.717l0.16,-0.717l0.158,-0.719l0.156,-0.719l0.153,-0.72l0.151,-0.721l0.148,-0.722l0.146,-0.723l0.008,-0.04l0.138,-0.683l0.144,-0.723l0.142,-0.725l0.14,-0.725l0.136,-0.726l0.135,-0.726l0.131,-0.727l0.13,-0.728l0.127,-0.729l0.124,-0.729l0.122,-0.73l0.119,-0.731l0.054,-0.342l0.057,-0.349l0.111,-0.691l0.108,-0.691l0.106,-0.69l0.103,-0.691l0.101,-0.69l0.099,-0.69l0.096,-0.69l0.094,-0.69l0.092,-0.689l0.089,-0.69l0.086,-0.689l0.085,-0.688l0.071,-0.602l0.011,-0.087l0.082,-0.688l0.079,-0.688l0.077,-0.687l0.074,-0.687l0.072,-0.687l0.07,-0.686l0.068,-0.686l0.065,-0.686l0.062,-0.685l0.061,-0.685l0.058,-0.684l0.055,-0.684l0.053,-0.683l0.051,-0.683l0.049,-0.683l0.046,-0.682l0.044,-0.681l0.041,-0.681l0.039,-0.681l0.037,-0.68l0.034,-0.679l0.032,-0.679l0.03,-0.678l0.027,-0.678l0.025,-0.677l0.023,-0.676l0.02,-0.676l0.018,-0.675l0.016,-0.674l0.013,-0.674l0.011,-0.673l0.008,-0.672l0.002,-0.254l0.005,-0.417l0.004,-0.671l0.003,-0.67l-0.001,-0.669l-0.002,-0.668l-0.005,-0.668l-0.007,-0.667l-0.009,-0.666l-0.012,-0.665l-0.014,-0.664l-0.017,-0.663l-0.019,-0.663l-0.021,-0.661l-0.023,-0.661l-0.026,-0.659l-0.028,-0.659l-0.031,-0.658l-0.032,-0.657l-0.035,-0.656l-0.038,-0.654l-0.04,-0.654l-0.042,-0.653l-0.044,-0.652l-0.047,-0.65l-0.049,-0.65l-0.051,-0.648l-0.054,-0.648l-0.056,-0.646l-0.058,-0.645l-0.061,-0.644l-0.063,-0.643l-0.065,-0.641l-0.068,-0.641l-0.069,-0.639l-0.073,-0.638l-0.074,-0.637l-0.077,-0.635l-0.079,-0.635l-0.081,-0.633l-0.084,-0.631l-0.086,-0.631l-0.088,-0.629l-0.091,-0.627l-0.049,-0.328l-0.044,-0.299l-0.094,-0.625l-0.097,-0.624l-0.1,-0.622l-0.101,-0.621l-0.104,-0.619l-0.106,-0.618l-0.109,-0.617l-0.11,-0.615l-0.113,-0.614l-0.115,-0.612l-0.118,-0.611l-0.12,-0.609l-0.122,-0.608l-0.124,-0.606l-0.127,-0.604l-0.129,-0.603l-0.131,-0.602l-0.134,-0.6l-0.136,-0.598l-0.138,-0.596l-0.14,-0.595l-0.143,-0.594l-0.144,-0.591l-0.148,-0.59l-0.149,-0.588l-0.152,-0.587l-0.154,-0.584l-0.156,-0.583l-0.158,-0.582l-0.161,-0.579l-0.163,-0.578l-0.165,-0.576l-0.167,-0.574l-0.145,-0.486l-45.048,0.396Z" style="fill:#a0a0a0;"/><path d="M203.857,108.349l-0.174,0.244l-0.212,0.211l-0.246,0.171l-0.271,0.128l-0.289,0.079l-0.298,0.029l-1.546,0.029l-39.814,0.734l-95.324,1.725l-0.412,-0.025l-0.218,-0.048l-0.185,-0.042l-0.385,-0.151l-0.356,-0.21l-0.319,-0.263l-0.275,-0.31l-0.223,-0.349l-0.165,-0.38l-0.001,0l-0.13,-0.375l-0.13,-0.383l-0.128,-0.383l-0.125,-0.384l-0.123,-0.384l-0.121,-0.385l-0.118,-0.386l-0.116,-0.386l-0.113,-0.386l-0.11,-0.387l-0.108,-0.387l-0.106,-0.387l-0.103,-0.389l-0.101,-0.388l-0.098,-0.389l-0.096,-0.389l-0.093,-0.39l-0.091,-0.389l-0.088,-0.391l-0.086,-0.39l-0.083,-0.391l-0.081,-0.392l-0.078,-0.391l-0.076,-0.392l-0.073,-0.392l-0.071,-0.393l-0.069,-0.392l-0.065,-0.393l-0.063,-0.394l-0.061,-0.393l-0.058,-0.394l-0.056,-0.394l-0.053,-0.394l-0.051,-0.394l-0.048,-0.395l-0.046,-0.394l-0.043,-0.395l-0.04,-0.395l-0.038,-0.395l-0.036,-0.395l-0.033,-0.396l-0.03,-0.395l-0.028,-0.396l-0.025,-0.395l-0.023,-0.396l-0.02,-0.396l-0.018,-0.396l-0.015,-0.396l-0.012,-0.396l-0.01,-0.396l-0.008,-0.396l-0.005,-0.396l-0.002,-0.396l0,-0.396l0.003,-0.396l0.005,-0.396l0.008,-0.396l0.011,-0.396l0.013,-0.395l0.015,-0.396l0.018,-0.396l0.021,-0.395l0.024,-0.395l0.026,-0.396l0.031,-0.432l0.034,-0.432l0.037,-0.43l0.04,-0.43l0.044,-0.428l0.046,-0.428l0.049,-0.427l0.052,-0.426l0.055,-0.425l0.057,-0.424l0.061,-0.423l0.064,-0.421l0.066,-0.421l0.069,-0.42l0.072,-0.419l0.075,-0.418l0.078,-0.417l0.081,-0.416l0.083,-0.414l0.087,-0.414l0.089,-0.413l0.092,-0.411l0.094,-0.411l0.098,-0.409l0.1,-0.408l0.103,-0.408l0.106,-0.406l0.108,-0.404l0.111,-0.404l0.114,-0.403l0.117,-0.401l0.119,-0.4l0.122,-0.4l0.125,-0.398l0.127,-0.396l0.13,-0.396l0.133,-0.394l0.135,-0.393l0.138,-0.392l0.141,-0.391l0.143,-0.389l0.146,-0.388l0.148,-0.387l0.151,-0.386l0.153,-0.384l0.156,-0.383l0.159,-0.382l0.161,-0.381l0.164,-0.379l0.166,-0.378l0.169,-0.376l0.171,-0.376l0.173,-0.374l0.177,-0.372l0.178,-0.371l0.181,-0.37l0.184,-0.369l0.186,-0.367l0.188,-0.365l0.191,-0.365l0.193,-0.363l0.196,-0.361l0.198,-0.36l0.2,-0.359l0.203,-0.357l0.205,-0.356l0.208,-0.354l0.209,-0.353l0.213,-0.352l0.099,-0.162l0.115,-0.187l0.217,-0.349l0.219,-0.347l0.222,-0.345l0.224,-0.344l0.226,-0.342l0.228,-0.341l0.231,-0.339l0.233,-0.338l0.235,-0.336l0.237,-0.335l0.239,-0.333l0.242,-0.332l0.244,-0.33l0.246,-0.328l0.248,-0.327l0.25,-0.325l0.253,-0.324l0.254,-0.322l0.257,-0.32l0.259,-0.319l0.261,-0.317l0.263,-0.316l0.265,-0.314l0.267,-0.312l0.27,-0.31l0.271,-0.309l0.273,-0.307l0.276,-0.306l0.277,-0.304l0.28,-0.302l0.281,-0.3l0.284,-0.299l0.285,-0.297l0.288,-0.295l0.289,-0.294l0.291,-0.292l0.294,-0.29l0.295,-0.288l0.297,-0.287l0.299,-0.285l0.301,-0.283l0.303,-0.281l0.305,-0.279l0.306,-0.278l0.309,-0.276l0.31,-0.274l0.312,-0.272l0.314,-0.27l0.316,-0.269l0.318,-0.267l0.32,-0.264l0.321,-0.263l0.323,-0.262l0.325,-0.259l0.326,-0.257l0.329,-0.256l0.33,-0.254l0.332,-0.251l0.333,-0.25l0.336,-0.248l0.337,-0.246l0.339,-0.244l0.34,-0.242l0.342,-0.241l0.344,-0.238l0.345,-0.236l0.347,-0.235l0.349,-0.232l0.35,-0.23l0.352,-0.229l0.354,-0.226l0.355,-0.225l0.357,-0.222l0.358,-0.221l0.36,-0.218l0.362,-0.217l0.363,-0.214l0.365,-0.213l0.366,-0.21l0.367,-0.208l0.37,-0.206l0.37,-0.205l0.373,-0.202l0.373,-0.2l0.375,-0.198l0.377,-0.196l0.378,-0.193l0.38,-0.192l0.381,-0.189l0.382,-0.188l0.384,-0.185l0.385,-0.183l0.387,-0.181l0.388,-0.179l0.389,-0.177l0.391,-0.174l0.392,-0.173l0.394,-0.17l0.394,-0.168l0.397,-0.166l0.397,-0.164l0.399,-0.161l0.4,-0.159l0.401,-0.157l0.403,-0.155l0.404,-0.153l0.405,-0.15l0.407,-0.148l0.408,-0.146l0.409,-0.143l0.41,-0.142l0.411,-0.139l0.413,-0.136l0.414,-0.135l0.415,-0.132l0.416,-0.13l0.417,-0.127l0.419,-0.126l0.419,-0.122l0.421,-0.121l0.422,-0.118l0.423,-0.116l0.424,-0.114l0.426,-0.111l0.426,-0.109l0.428,-0.106l0.428,-0.104l0.43,-0.102l0.247,-0.057l0.183,-0.042l0.432,-0.096l0.433,-0.094l0.434,-0.092l0.435,-0.089l0.435,-0.087l0.437,-0.084l0.438,-0.082l0.439,-0.08l0.44,-0.077l0.44,-0.074l0.442,-0.072l0.443,-0.07l0.443,-0.067l0.444,-0.065l0.446,-0.062l0.446,-0.059l0.447,-0.057l0.448,-0.055l0.449,-0.052l0.45,-0.049l0.45,-0.047l0.451,-0.045l0.453,-0.041l0.453,-0.04l0.453,-0.036l0.455,-0.034l0.455,-0.032l0.457,-0.029l0.457,-0.026l0.457,-0.024l0.459,-0.021l0.459,-0.019l0.46,-0.015l0.46,-0.014l0.462,-0.01l0.462,-0.008l0.463,-0.005l0.463,-0.003l0.464,0l0.465,0.003l0.465,0.005l0.466,0.008l0.467,0.011l0.467,0.014l0.468,0.016l0.468,0.019l0.469,0.022l0.47,0.024l0.47,0.027l0.471,0.03l0.471,0.033l0.472,0.035l0.472,0.039l0.473,0.04l0.474,0.044l0.474,0.047l0.474,0.049l0.474,0.052l0.473,0.055l0.473,0.057l0.471,0.06l0.471,0.063l0.47,0.065l0.469,0.068l0.468,0.07l0.467,0.073l0.466,0.076l0.465,0.078l0.464,0.081l0.463,0.083l0.462,0.086l0.461,0.088l0.46,0.091l0.46,0.094l0.458,0.096l0.457,0.098l0.456,0.101l0.455,0.103l0.454,0.106l0.453,0.108l0.452,0.111l0.451,0.113l0.45,0.116l0.448,0.118l0.448,0.121l0.446,0.123l0.446,0.125l0.444,0.128l0.443,0.13l0.442,0.132l0.44,0.135l0.44,0.137l0.439,0.139l0.437,0.142l0.436,0.145l0.435,0.146l0.433,0.149l0.433,0.151l0.431,0.153l0.407,0.148l0.023,0.008l0.429,0.158l0.427,0.161l0.426,0.163l0.425,0.166l0.423,0.167l0.423,0.17l0.421,0.172l0.419,0.174l0.418,0.176l0.417,0.179l0.416,0.18l0.414,0.183l0.413,0.185l0.412,0.187l0.41,0.19l0.409,0.191l0.408,0.194l0.406,0.196l0.405,0.197l0.403,0.2l0.402,0.202l0.4,0.205l0.399,0.206l0.398,0.208l0.396,0.21l0.395,0.213l0.393,0.214l0.392,0.216l0.39,0.219l0.389,0.22l0.387,0.223l0.386,0.224l0.384,0.227l0.383,0.228l0.381,0.23l0.38,0.233l0.378,0.234l0.377,0.236l0.375,0.238l0.373,0.24l0.372,0.242l0.106,0.07l0.264,0.175l0.369,0.246l0.366,0.248l0.365,0.25l0.364,0.252l0.362,0.254l0.36,0.256l0.358,0.258l0.357,0.259l0.355,0.261l0.354,0.263l0.352,0.265l0.35,0.267l0.348,0.268l0.347,0.27l0.345,0.272l0.343,0.274l0.342,0.275l0.339,0.277l0.338,0.279l0.337,0.281l0.334,0.282l0.333,0.284l0.331,0.286l0.329,0.288l0.327,0.289l0.326,0.291l0.324,0.292l0.321,0.294l0.32,0.296l0.319,0.297l0.316,0.299l0.314,0.301l0.206,0.198l0.107,0.105l0.309,0.305l0.308,0.307l0.305,0.308l0.304,0.31l0.302,0.311l0.299,0.313l0.298,0.315l0.296,0.316l0.294,0.318l0.292,0.319l0.29,0.32l0.288,0.322l0.286,0.324l0.247,0.283l0.037,0.042l0.28,0.328l0.278,0.33l0.276,0.331l0.274,0.332l0.272,0.334l0.27,0.335l0.268,0.336l0.266,0.338l0.264,0.34l0.261,0.34l0.26,0.342l0.257,0.343l0.255,0.345l0.244,0.334l0.009,0.012l0.249,0.349l0.246,0.351l0.244,0.352l0.242,0.352l0.239,0.355l0.238,0.355l0.235,0.357l0.233,0.358l0.231,0.359l0.228,0.36l0.227,0.362l0.224,0.362l0.221,0.364l0.22,0.365l0.217,0.367l0.215,0.367l0.213,0.368l0.21,0.37l0.208,0.371l0.206,0.372l0.203,0.373l0.201,0.374l0.199,0.375l0.196,0.376l0.194,0.377l0.192,0.378l0.189,0.38l0.071,0.144l0.113,0.238l0.18,0.383l0.177,0.385l0.175,0.385l0.172,0.387l0.17,0.387l0.168,0.389l0.165,0.389l0.163,0.39l0.16,0.391l0.158,0.392l0.155,0.393l0.152,0.394l0.15,0.394l0.148,0.395l0.145,0.397l0.143,0.397l0.14,0.397l0.137,0.399l0.135,0.399l0.132,0.401l0.13,0.4l0.127,0.402l0.124,0.403l0.122,0.403l0.119,0.404l0.117,0.404l0.114,0.406l0.111,0.406l0.109,0.406l0.106,0.408l0.103,0.408l0.101,0.409l0.098,0.409l0.095,0.41l0.093,0.411l0.09,0.411l0.087,0.412l0.085,0.412l0.081,0.413l0.079,0.414l0.077,0.414l0.073,0.415l0.071,0.415l0.068,0.416l0.065,0.416l0.063,0.417l0.059,0.417l0.057,0.418l0.002,0.012l0.047,0.407l0.046,0.42l0.043,0.42l0.041,0.42l0.037,0.42l0.035,0.421l0.032,0.422l0.029,0.421l0.026,0.422l0.023,0.423l0.02,0.422l0.017,0.423l0.015,0.423l0.012,0.424l0.008,0.423l0.006,0.424l0.003,0.424l0,0.425l-0.003,0.424l-0.006,0.425l-0.009,0.425l-0.012,0.425l-0.015,0.426l-0.018,0.425l-0.021,0.426l-0.024,0.426l-0.026,0.425l-0.03,0.426l-0.033,0.427l-0.036,0.426l-0.039,0.426l-0.041,0.426l-0.045,0.427l-0.048,0.425l-0.026,0.221l-0.011,0.092l-0.017,0.128l-0.029,0.22l-0.031,0.219l-0.031,0.219l-0.032,0.219l-0.032,0.219l-0.034,0.218l-0.034,0.219l-0.035,0.218l-0.036,0.218l-0.036,0.218l-0.038,0.217l-0.038,0.218l-0.039,0.217l-0.04,0.217l-0.041,0.217l-0.041,0.216l-0.042,0.216l-0.043,0.217l-0.044,0.215l-0.045,0.216l-0.045,0.216l-0.046,0.215l-0.047,0.215l-0.048,0.215l-0.048,0.214l-0.05,0.215l-0.05,0.214l-0.051,0.214l-0.028,0.116l-0.024,0.097l-0.052,0.21l-0.082,0.289l-0.13,0.27Zm-75.638,-76.517l-0.424,0.003l-0.423,0.006l-0.423,0.008l-0.422,0.011l-0.421,0.013l-0.421,0.016l-0.419,0.017l-0.419,0.021l-0.419,0.023l-0.417,0.025l-0.417,0.027l-0.416,0.03l-0.416,0.032l-0.415,0.035l-0.413,0.037l-0.414,0.039l-0.412,0.042l-0.411,0.044l-0.411,0.046l-0.41,0.048l-0.409,0.051l-0.408,0.053l-0.408,0.056l-0.406,0.058l-0.406,0.06l-0.405,0.062l-0.404,0.065l-0.403,0.066l-0.402,0.069l-0.401,0.072l-0.401,0.073l-0.399,0.076l-0.399,0.078l-0.397,0.08l-0.397,0.083l-0.396,0.085l-0.168,0.037l-0.226,0.049l-0.394,0.089l-0.393,0.091l-0.392,0.093l-0.391,0.095l-0.39,0.097l-0.389,0.1l-0.388,0.102l-0.386,0.103l-0.386,0.106l-0.385,0.109l-0.384,0.11l-0.382,0.112l-0.382,0.115l-0.38,0.116l-0.38,0.119l-0.378,0.121l-0.377,0.123l-0.376,0.125l-0.375,0.127l-0.374,0.129l-0.373,0.131l-0.371,0.133l-0.371,0.135l-0.369,0.138l-0.368,0.139l-0.367,0.141l-0.365,0.144l-0.365,0.145l-0.363,0.147l-0.362,0.15l-0.361,0.151l-0.359,0.154l-0.358,0.155l-0.357,0.157l-0.356,0.159l-0.354,0.162l-0.354,0.163l-0.351,0.165l-0.351,0.167l-0.349,0.169l-0.348,0.171l-0.347,0.173l-0.345,0.175l-0.344,0.176l-0.342,0.179l-0.342,0.18l-0.339,0.183l-0.339,0.184l-0.337,0.186l-0.335,0.188l-0.335,0.19l-0.332,0.191l-0.332,0.194l-0.33,0.195l-0.328,0.197l-0.327,0.199l-0.326,0.201l-0.324,0.203l-0.322,0.204l-0.322,0.206l-0.319,0.208l-0.318,0.21l-0.317,0.212l-0.315,0.213l-0.313,0.215l-0.312,0.217l-0.311,0.219l-0.309,0.22l-0.307,0.222l-0.306,0.224l-0.304,0.225l-0.302,0.228l-0.301,0.229l-0.3,0.23l-0.297,0.233l-0.297,0.234l-0.294,0.235l-0.293,0.238l-0.291,0.239l-0.289,0.24l-0.288,0.243l-0.286,0.244l-0.285,0.245l-0.282,0.248l-0.281,0.249l-0.28,0.25l-0.277,0.252l-0.276,0.254l-0.274,0.255l-0.273,0.257l-0.27,0.259l-0.269,0.26l-0.267,0.262l-0.265,0.263l-0.264,0.265l-0.261,0.266l-0.26,0.268l-0.258,0.269l-0.256,0.271l-0.255,0.273l-0.252,0.274l-0.251,0.275l-0.249,0.277l-0.247,0.279l-0.245,0.28l-0.243,0.282l-0.241,0.283l-0.239,0.284l-0.238,0.286l-0.235,0.287l-0.234,0.289l-0.232,0.291l-0.229,0.291l-0.228,0.294l-0.226,0.294l-0.224,0.296l-0.221,0.298l-0.22,0.298l-0.218,0.301l-0.216,0.301l-0.214,0.303l-0.211,0.305l-0.21,0.306l-0.208,0.307l-0.206,0.309l-0.203,0.309l-0.202,0.312l-0.199,0.312l-0.106,0.169l-0.092,0.145l-0.195,0.315l-0.194,0.317l-0.191,0.318l-0.189,0.319l-0.187,0.32l-0.185,0.322l-0.183,0.323l-0.18,0.325l-0.179,0.325l-0.176,0.327l-0.174,0.329l-0.172,0.329l-0.17,0.331l-0.167,0.332l-0.166,0.333l-0.163,0.335l-0.161,0.335l-0.158,0.337l-0.157,0.339l-0.154,0.339l-0.152,0.341l-0.15,0.342l-0.147,0.343l-0.145,0.344l-0.143,0.346l-0.14,0.346l-0.138,0.348l-0.136,0.349l-0.134,0.351l-0.131,0.351l-0.129,0.353l-0.126,0.353l-0.125,0.355l-0.121,0.356l-0.12,0.357l-0.117,0.359l-0.114,0.359l-0.113,0.361l-0.109,0.361l-0.108,0.363l-0.105,0.364l-0.102,0.365l-0.1,0.366l-0.098,0.367l-0.095,0.369l-0.093,0.369l-0.09,0.371l-0.087,0.371l-0.086,0.373l-0.082,0.373l-0.08,0.375l-0.078,0.376l-0.075,0.377l-0.073,0.378l-0.07,0.378l-0.067,0.38l-0.065,0.381l-0.062,0.382l-0.06,0.383l-0.057,0.384l-0.054,0.385l-0.052,0.386l-0.049,0.387l-0.047,0.388l-0.043,0.389l-0.042,0.39l-0.038,0.391l-0.036,0.392l-0.033,0.393l-0.028,0.359l-0.026,0.359l-0.023,0.359l-0.021,0.359l-0.018,0.359l-0.016,0.359l-0.014,0.36l-0.012,0.36l-0.009,0.36l-0.007,0.36l-0.004,0.36l-0.002,0.36l0,0.36l0.002,0.361l0.005,0.36l0.007,0.361l0.01,0.361l0.011,0.36l0.014,0.361l0.017,0.361l0.018,0.36l0.022,0.361l0.023,0.361l0.026,0.361l0.028,0.36l0.03,0.361l0.033,0.361l0.034,0.36l0.038,0.361l0.039,0.361l0.042,0.36l0.044,0.36l0.047,0.361l0.049,0.36l0.051,0.36l0.053,0.36l0.056,0.36l0.058,0.36l0.061,0.359l0.062,0.359l0.065,0.36l0.068,0.359l0.069,0.359l0.072,0.358l0.074,0.359l0.077,0.358l0.079,0.358l0.081,0.358l0.083,0.358l0.086,0.357l0.088,0.357l0.09,0.357l0.093,0.357l0.095,0.356l0.097,0.356l0.1,0.356l0.102,0.355l0.104,0.355l0.098,0.327l0.046,-0.001l0,0.003l94.089,-0.503l39.088,-0.195l0.003,-0.025l0.023,-0.205l0.022,-0.205l0.021,-0.205l0.021,-0.206l0.02,-0.205l0.019,-0.206l0.019,-0.205l0.017,-0.206l0.017,-0.205l0.016,-0.206l0.016,-0.206l0.014,-0.206l0.014,-0.205l0.013,-0.206l0.013,-0.206l0.011,-0.206l0.011,-0.206l0.01,-0.206l0.009,-0.206l0.009,-0.206l0.008,-0.206l0.007,-0.206l0.006,-0.206l0.003,-0.12l0.003,-0.086l0.007,-0.204l0.011,-0.401l0.008,-0.399l0.005,-0.398l0.002,-0.398l0,-0.397l-0.003,-0.397l-0.006,-0.396l-0.009,-0.396l-0.011,-0.395l-0.015,-0.394l-0.017,-0.394l-0.019,-0.393l-0.023,-0.392l-0.025,-0.392l-0.027,-0.391l-0.031,-0.391l-0.033,-0.39l-0.036,-0.389l-0.038,-0.389l-0.041,-0.388l-0.044,-0.387l-0.046,-0.387l-0.049,-0.386l-0.051,-0.385l-0.054,-0.385l-0.057,-0.384l-0.059,-0.383l-0.062,-0.382l-0.064,-0.382l-0.067,-0.381l-0.07,-0.38l-0.072,-0.38l-0.074,-0.379l-0.075,-0.367l-0.002,-0.011l-0.074,-0.378l-0.077,-0.377l-0.079,-0.377l-0.082,-0.376l-0.084,-0.375l-0.087,-0.375l-0.089,-0.374l-0.091,-0.373l-0.095,-0.372l-0.096,-0.372l-0.099,-0.371l-0.101,-0.37l-0.104,-0.369l-0.106,-0.368l-0.109,-0.368l-0.111,-0.367l-0.113,-0.366l-0.116,-0.365l-0.118,-0.365l-0.12,-0.363l-0.123,-0.363l-0.125,-0.362l-0.127,-0.361l-0.13,-0.36l-0.132,-0.36l-0.134,-0.358l-0.137,-0.358l-0.139,-0.356l-0.141,-0.356l-0.143,-0.355l-0.146,-0.354l-0.148,-0.353l-0.15,-0.352l-0.153,-0.351l-0.155,-0.351l-0.156,-0.349l-0.16,-0.348l-0.161,-0.348l-0.163,-0.346l-0.166,-0.346l-0.168,-0.344l-0.17,-0.343l-0.172,-0.343l-0.175,-0.341l-0.176,-0.341l-0.179,-0.339l-0.181,-0.338l-0.183,-0.338l-0.115,-0.208l-0.068,-0.129l-0.183,-0.337l-0.185,-0.337l-0.186,-0.336l-0.19,-0.334l-0.191,-0.334l-0.193,-0.332l-0.195,-0.331l-0.198,-0.331l-0.199,-0.329l-0.202,-0.328l-0.203,-0.327l-0.206,-0.326l-0.207,-0.325l-0.21,-0.324l-0.212,-0.322l-0.214,-0.322l-0.215,-0.32l-0.218,-0.32l-0.22,-0.318l-0.222,-0.317l-0.223,-0.315l-0.226,-0.315l-0.228,-0.313l-0.229,-0.313l-0.232,-0.311l-0.233,-0.309l-0.236,-0.309l-0.008,-0.011l-0.227,-0.298l-0.236,-0.308l-0.239,-0.307l-0.241,-0.306l-0.242,-0.304l-0.245,-0.303l-0.246,-0.302l-0.248,-0.301l-0.25,-0.299l-0.252,-0.298l-0.254,-0.297l-0.256,-0.295l-0.257,-0.294l-0.26,-0.293l-0.034,-0.038l-0.225,-0.255l-0.262,-0.292l-0.263,-0.291l-0.265,-0.289l-0.266,-0.288l-0.269,-0.286l-0.27,-0.286l-0.272,-0.283l-0.274,-0.283l-0.276,-0.281l-0.278,-0.28l-0.279,-0.278l-0.281,-0.277l-0.283,-0.275l-0.098,-0.095l-0.185,-0.18l-0.285,-0.274l-0.287,-0.273l-0.288,-0.271l-0.291,-0.27l-0.292,-0.268l-0.293,-0.267l-0.295,-0.265l-0.297,-0.264l-0.299,-0.262l-0.3,-0.261l-0.302,-0.259l-0.304,-0.258l-0.306,-0.257l-0.307,-0.254l-0.308,-0.254l-0.31,-0.251l-0.312,-0.251l-0.314,-0.248l-0.315,-0.247l-0.317,-0.246l-0.318,-0.243l-0.32,-0.243l-0.321,-0.24l-0.323,-0.239l-0.325,-0.238l-0.326,-0.235l-0.328,-0.234l-0.329,-0.233l-0.331,-0.231l-0.332,-0.229l-0.334,-0.227l-0.336,-0.226l-0.24,-0.16l-0.096,-0.064l-0.338,-0.223l-0.34,-0.221l-0.34,-0.22l-0.343,-0.217l-0.344,-0.216l-0.345,-0.215l-0.347,-0.212l-0.348,-0.211l-0.35,-0.209l-0.351,-0.207l-0.352,-0.205l-0.354,-0.204l-0.355,-0.202l-0.357,-0.2l-0.358,-0.198l-0.36,-0.196l-0.36,-0.195l-0.363,-0.192l-0.363,-0.191l-0.365,-0.189l-0.366,-0.187l-0.368,-0.185l-0.369,-0.183l-0.37,-0.182l-0.372,-0.179l-0.372,-0.177l-0.375,-0.176l-0.375,-0.174l-0.377,-0.171l-0.378,-0.17l-0.379,-0.168l-0.38,-0.165l-0.382,-0.164l-0.383,-0.162l-0.384,-0.16l-0.386,-0.158l-0.386,-0.155l-0.388,-0.154l-0.389,-0.152l-0.391,-0.149l-0.391,-0.148l-0.021,-0.008l-0.372,-0.138l-0.393,-0.144l-0.395,-0.142l-0.396,-0.14l-0.397,-0.138l-0.398,-0.135l-0.4,-0.134l-0.4,-0.131l-0.402,-0.13l-0.403,-0.127l-0.404,-0.125l-0.405,-0.123l-0.406,-0.12l-0.407,-0.119l-0.408,-0.116l-0.41,-0.114l-0.41,-0.112l-0.411,-0.11l-0.413,-0.108l-0.413,-0.105l-0.415,-0.103l-0.416,-0.101l-0.416,-0.099l-0.418,-0.096l-0.418,-0.094l-0.42,-0.092l-0.421,-0.089l-0.421,-0.088l-0.423,-0.084l-0.424,-0.083l-0.424,-0.08l-0.426,-0.078l-0.426,-0.076l-0.427,-0.073l-0.429,-0.071l-0.429,-0.069l-0.43,-0.066l-0.431,-0.064l-0.432,-0.061l-0.433,-0.059l-0.433,-0.057l-0.435,-0.054l-0.436,-0.052l-0.435,-0.049l-0.435,-0.047l-0.435,-0.044l-0.434,-0.042l-0.434,-0.039l-0.433,-0.036l-0.433,-0.034l-0.432,-0.031l-0.432,-0.029l-0.431,-0.027l-0.43,-0.023l-0.43,-0.022l-0.43,-0.019l-0.429,-0.016l-0.428,-0.014l-0.427,-0.011l-0.427,-0.009l-0.427,-0.006l-0.426,-0.004l-0.425,-0.001l-0.424,0.001Z" style="fill:#a0a0a0;"/></g><path d="M52.096,27.587l8.173,0.062l10.398,0.101l25.951,0.294l30.292,0.378l31.597,0.415l54.954,0.753l22.831,0.322l0.887,0.013l1.246,1.253l-1.26,1.239l-0.887,0.002l-22.834,0.055l-54.959,0.109l-31.599,0.045l-30.295,0.024l-25.953,-0.01l-10.398,-0.021l-8.174,-0.034l-3.43,-0.033l-3.374,-0.056l-6.498,-0.17l-11.432,-0.474l-8.267,-0.474l-3.626,-0.249l-0.181,-0.014l-1.238,-1.253l1.253,-1.238l0.181,-0.011l3.628,-0.207l8.272,-0.378l11.437,-0.339l6.5,-0.094l3.374,-0.017l3.431,0.007Z" style="fill:#a0a0a0;"/><path d="M202.798,2.499l0.02,0.245l0.38,4.92l0.775,11.219l0.888,15.519l0.406,8.823l0.178,4.582l0.158,4.659l0.33,11.102l0.398,14.125l0.952,35.254l1.075,41.153l1.101,42.926l1.884,74.66l0.774,31.018l0.029,1.205l-1.206,1.292l-1.284,-1.214l-0.045,-1.205l-1.15,-31.007l-2.746,-74.633l-1.561,-42.911l-1.477,-41.141l-1.236,-35.245l-0.477,-14.123l-0.359,-11.101l-0.131,-4.66l-0.106,-4.584l-0.142,-8.832l-0.075,-15.544l0.078,-11.245l0.074,-4.934l0.005,-0.246l1.206,-1.284l1.284,1.207Z" style="fill:#a0a0a0;"/><path d="M217.865,276.611l23.523,0.016l0.914,0.001l1.263,1.237l-1.245,1.254l-0.913,0.015l-23.52,0.36l-56.612,0.845l-32.55,0.468l-31.206,0.429l-26.733,0.337l-10.712,0.119l-8.42,0.075l-3.534,0.013l-3.476,-0.011l-6.696,-0.083l-11.783,-0.321l-8.522,-0.364l-3.738,-0.2l-0.187,-0.011l-1.254,-1.236l1.236,-1.255l0.187,-0.014l3.734,-0.255l8.516,-0.488l11.777,-0.493l6.694,-0.181l3.476,-0.062l3.534,-0.039l8.42,-0.047l10.712,-0.039l26.736,-0.053l31.209,-0.027l32.552,-0.008l56.618,0.018Z" style="fill:#a0a0a0;"/><path d="M97.827,105.426l35.933,0.084l37.479,0.109l65.188,0.22l27.083,0.1l1.052,0.004l1.257,1.242l-1.249,1.25l-1.052,0.011l-27.082,0.276l-65.184,0.643l-37.479,0.352l-35.931,0.317l-30.782,0.242l-12.333,0.08l-9.695,0.045l-4.069,0l-4.002,-0.023l-7.709,-0.107l-13.565,-0.363l-9.81,-0.394l-4.303,-0.214l-0.214,-0.011l-1.25,-1.242l1.241,-1.25l0.215,-0.013l4.302,-0.241l9.807,-0.459l13.562,-0.45l7.708,-0.157l4.002,-0.05l4.069,-0.026l9.695,-0.017l12.333,0l30.783,0.042Z" style="fill:#a0a0a0;"/><path d="M66.052,99.519l0.037,0.137l0.001,0.002l0.044,0.162l0.065,0.232l0.085,0.295l0.05,0.169l0.055,0.185l0.061,0.2l0.066,0.214l0.071,0.228l0.077,0.242l0.082,0.255l0.088,0.268l0.094,0.281l0.019,0.056l0.076,0.239l0.101,0.306l0.106,0.319l0.112,0.331l0.118,0.342l0.124,0.353l0.129,0.365l0.136,0.374l0.142,0.385l0.147,0.395l0.154,0.404l0.16,0.414l0.167,0.422l0.172,0.432l0.18,0.441l0.091,0.222l0.094,0.225l0.095,0.227l0.031,0.072l0.063,0.158l0.094,0.232l0.095,0.234l0.098,0.237l0.098,0.238l0.101,0.239l0.102,0.242l0.103,0.243l0.106,0.245l0.107,0.246l0.109,0.249l0.11,0.249l0.112,0.251l0.114,0.253l0.116,0.254l0.117,0.256l0.119,0.257l0.121,0.258l0.122,0.259l0.125,0.261l0.126,0.262l0.128,0.264l0.129,0.264l0.132,0.265l0.133,0.267l0.135,0.268l0.137,0.268l0.138,0.27l0.141,0.27l0.142,0.272l0.144,0.272l0.146,0.273l0.138,0.255l0.01,0.019l0.144,0.277l0.146,0.278l0.148,0.279l0.15,0.279l0.152,0.28l0.154,0.281l0.155,0.281l0.158,0.282l0.159,0.283l0.162,0.282l0.163,0.284l0.165,0.283l0.168,0.284l0.169,0.285l0.171,0.284l0.173,0.285l0.002,0.004l0.17,0.283l0.174,0.288l0.176,0.287l0.177,0.288l0.18,0.288l0.182,0.288l0.184,0.287l0.177,0.276l0.009,0.012l0.185,0.29l0.187,0.29l0.19,0.289l0.192,0.289l0.193,0.29l0.196,0.289l0.198,0.289l0.163,0.234l0.037,0.055l0.2,0.29l0.202,0.289l0.205,0.289l0.207,0.289l0.209,0.289l0.211,0.288l0.213,0.287l0.216,0.287l0.217,0.287l0.22,0.286l0.222,0.286l0.225,0.284l0.227,0.285l0.229,0.283l0.231,0.283l0.233,0.282l0.236,0.281l0.197,0.232l0.041,0.049l0.24,0.28l0.242,0.279l0.244,0.279l0.247,0.277l0.249,0.277l0.252,0.275l0.253,0.275l0.257,0.273l0.258,0.272l0.261,0.271l0.264,0.27l0.266,0.269l0.268,0.268l0.271,0.266l0.273,0.265l0.276,0.263l0.278,0.263l0.281,0.26l0.283,0.26l0.286,0.258l0.288,0.256l0.176,0.155l0.116,0.101l0.144,0.126l0.147,0.127l0.148,0.126l0.148,0.126l0.148,0.126l0.15,0.125l0.15,0.125l0.15,0.124l0.151,0.124l0.152,0.123l0.153,0.123l0.153,0.123l0.154,0.122l0.154,0.122l0.156,0.121l0.155,0.121l0.157,0.12l0.157,0.12l0.158,0.12l0.158,0.118l0.16,0.119l0.159,0.118l0.161,0.118l0.161,0.117l0.162,0.116l0.163,0.116l0.163,0.116l0.164,0.115l0.164,0.115l0.166,0.114l0.165,0.113l0.167,0.113l0.167,0.113l0.168,0.112l0.169,0.112l0.169,0.111l0.171,0.11l0.17,0.11l0.172,0.109l0.172,0.109l0.173,0.108l0.173,0.108l0.175,0.107l0.175,0.107l0.175,0.106l0.177,0.105l0.177,0.105l0.178,0.105l0.178,0.103l0.179,0.104l0.18,0.102l0.181,0.102l0.182,0.101l0.182,0.101l0.183,0.1l0.183,0.1l0.184,0.099l0.186,0.098l0.185,0.098l0.187,0.097l0.187,0.096l0.188,0.096l0.189,0.095l0.189,0.095l0.19,0.094l0.191,0.093l0.192,0.093l0.193,0.092l0.193,0.091l0.194,0.09l0.194,0.09l0.196,0.09l0.196,0.088l0.197,0.088l0.198,0.087l0.198,0.087l0.2,0.086l0.2,0.085l0.2,0.084l0.202,0.084l0.202,0.083l0.203,0.082l0.204,0.082l0.205,0.081l0.205,0.08l0.207,0.079l0.207,0.079l0.208,0.078l0.208,0.077l0.21,0.076l0.21,0.076l0.211,0.075l0.211,0.074l0.213,0.073l0.213,0.073l0.215,0.072l0.215,0.071l0.153,0.05l0.062,0.02l0.217,0.07l0.217,0.069l0.218,0.068l0.219,0.067l0.22,0.067l0.221,0.066l0.221,0.065l0.222,0.064l0.223,0.063l0.224,0.063l0.225,0.061l0.225,0.061l0.227,0.06l0.227,0.059l0.228,0.059l0.229,0.057l0.23,0.057l0.23,0.056l0.232,0.055l0.232,0.054l0.233,0.053l0.234,0.052l0.235,0.051l0.236,0.051l0.236,0.049l0.238,0.049l0.238,0.048l0.239,0.047l0.24,0.046l0.241,0.045l0.242,0.044l0.242,0.043l0.244,0.043l0.244,0.041l0.246,0.041l0.246,0.039l0.247,0.039l0.248,0.037l0.248,0.037l0.25,0.036l0.251,0.034l0.251,0.034l0.252,0.033l0.254,0.032l0.254,0.031l0.255,0.029l0.256,0.029l0.257,0.028l0.257,0.027l0.259,0.026l0.26,0.025l0.26,0.023l0.262,0.023l0.262,0.022l0.263,0.021l0.264,0.019l0.265,0.019l0.266,0.018l0.267,0.016l0.268,0.016l0.269,0.014l0.27,0.014l0.549,0.025l0.547,0.023l0.545,0.021l0.542,0.02l0.54,0.017l0.537,0.016l0.535,0.013l0.533,0.012l0.53,0.009l0.528,0.008l0.525,0.006l0.523,0.004l0.52,0.002l0.518,0l0.516,-0.002l0.513,-0.004l0.402,-0.004l0.109,-0.001l0.509,-0.007l0.506,-0.009l0.504,-0.011l0.502,-0.013l0.499,-0.014l0.497,-0.016l0.495,-0.019l0.492,-0.02l0.491,-0.021l0.487,-0.024l0.486,-0.025l0.483,-0.028l0.481,-0.029l0.479,-0.031l0.476,-0.032l0.475,-0.035l0.472,-0.036l0.469,-0.038l0.468,-0.04l0.465,-0.042l0.464,-0.043l0.46,-0.045l0.459,-0.047l0.457,-0.049l0.454,-0.05l0.452,-0.052l0.451,-0.054l0.447,-0.056l0.446,-0.057l0.444,-0.059l0.441,-0.061l0.44,-0.062l0.437,-0.064l0.435,-0.066l0.433,-0.067l0.431,-0.069l0.429,-0.071l0.427,-0.073l0.425,-0.074l0.423,-0.076l0.42,-0.077l0.419,-0.079l0.416,-0.081l0.415,-0.083l0.412,-0.084l0.411,-0.085l0.408,-0.087l0.407,-0.089l0.404,-0.091l0.403,-0.092l0.4,-0.094l0.399,-0.095l0.396,-0.097l0.395,-0.098l0.393,-0.1l0.391,-0.102l0.151,-0.04l0.238,-0.063l0.387,-0.104l0.385,-0.106l0.383,-0.108l0.381,-0.109l0.379,-0.111l0.378,-0.112l0.376,-0.114l0.373,-0.115l0.372,-0.117l0.37,-0.118l0.369,-0.12l0.366,-0.121l0.365,-0.123l0.363,-0.124l0.361,-0.126l0.359,-0.127l0.357,-0.129l0.356,-0.13l0.354,-0.132l0.352,-0.133l0.35,-0.135l0.348,-0.136l0.347,-0.137l0.345,-0.139l0.344,-0.141l0.341,-0.141l0.34,-0.144l0.338,-0.144l0.337,-0.147l0.335,-0.147l0.333,-0.149l0.331,-0.15l0.33,-0.152l0.328,-0.153l0.327,-0.155l0.325,-0.156l0.323,-0.157l0.322,-0.159l0.32,-0.16l0.318,-0.161l0.317,-0.163l0.315,-0.164l0.314,-0.166l0.312,-0.167l0.311,-0.168l0.308,-0.169l0.308,-0.171l0.306,-0.172l0.304,-0.174l0.303,-0.175l0.301,-0.176l0.3,-0.178l0.298,-0.178l0.297,-0.18l0.295,-0.182l0.294,-0.183l0.292,-0.184l0.291,-0.185l0.29,-0.186l0.288,-0.188l0.286,-0.189l0.285,-0.191l0.284,-0.191l0.282,-0.193l0.281,-0.195l0.279,-0.195l0.278,-0.197l0.277,-0.198l0.275,-0.199l0.274,-0.2l0.273,-0.202l0.271,-0.203l0.27,-0.204l0.268,-0.205l0.267,-0.207l0.266,-0.207l0.264,-0.209l0.264,-0.211l0.261,-0.211l0.261,-0.212l0.259,-0.214l0.258,-0.215l0.257,-0.216l0.255,-0.217l0.255,-0.219l0.253,-0.22l0.251,-0.22l0.251,-0.222l0.249,-0.223l0.248,-0.225l0.247,-0.225l0.245,-0.227l0.244,-0.227l0.244,-0.229l0.241,-0.23l0.241,-0.231l0.24,-0.232l0.238,-0.233l0.237,-0.235l0.237,-0.235l0.234,-0.237l0.234,-0.238l0.233,-0.238l0.231,-0.24l0.231,-0.241l0.229,-0.242l0.228,-0.244l0.227,-0.244l0.226,-0.245l0.225,-0.246l0.224,-0.248l0.223,-0.248l0.221,-0.25l0.221,-0.25l0.22,-0.252l0.218,-0.252l0.218,-0.254l0.216,-0.255l0.215,-0.255l0.215,-0.257l0.213,-0.258l0.213,-0.259l0.211,-0.259l0.21,-0.261l0.21,-0.262l0.109,-0.138l0.099,-0.124l0.208,-0.264l0.206,-0.265l0.206,-0.265l0.205,-0.267l0.203,-0.267l0.203,-0.269l0.202,-0.269l0.201,-0.27l0.2,-0.272l0.199,-0.272l0.198,-0.273l0.197,-0.274l0.197,-0.275l0.195,-0.276l0.195,-0.277l0.194,-0.278l0.192,-0.278l0.192,-0.28l0.192,-0.28l0.19,-0.282l0.189,-0.282l0.189,-0.283l0.188,-0.284l0.187,-0.285l0.186,-0.286l0.185,-0.287l0.185,-0.287l0.184,-0.288l0.183,-0.289l0.182,-0.29l0.181,-0.291l0.181,-0.292l0.18,-0.293l0.179,-0.293l0.178,-0.294l0.178,-0.295l0.177,-0.296l0.176,-0.296l0.175,-0.298l0.175,-0.298l0.174,-0.299l0.173,-0.299l0.173,-0.301l0.172,-0.301l0.171,-0.302l0.171,-0.303l0.17,-0.303l0.169,-0.305l0.168,-0.305l0.168,-0.305l0.168,-0.307l0.166,-0.307l0.166,-0.308l0.154,-0.287l0.012,-0.022l0.164,-0.309l0.165,-0.311l1.681,-0.539l0.533,1.682l-0.16,0.318l-0.161,0.318l-0.011,0.022l-0.151,0.295l-0.163,0.317l-0.163,0.317l-0.164,0.315l-0.165,0.315l-0.166,0.315l-0.166,0.313l-0.167,0.313l-0.168,0.313l-0.169,0.311l-0.169,0.311l-0.17,0.311l-0.171,0.309l-0.172,0.309l-0.172,0.308l-0.173,0.308l-0.175,0.307l-0.174,0.306l-0.176,0.305l-0.177,0.305l-0.177,0.304l-0.178,0.303l-0.179,0.303l-0.18,0.301l-0.181,0.301l-0.182,0.301l-0.182,0.299l-0.184,0.299l-0.184,0.298l-0.185,0.297l-0.186,0.296l-0.188,0.296l-0.188,0.295l-0.189,0.294l-0.189,0.293l-0.191,0.293l-0.192,0.291l-0.193,0.291l-0.194,0.29l-0.194,0.289l-0.196,0.289l-0.197,0.287l-0.198,0.287l-0.198,0.286l-0.2,0.285l-0.201,0.284l-0.202,0.283l-0.203,0.282l-0.204,0.282l-0.205,0.28l-0.206,0.28l-0.207,0.279l-0.208,0.278l-0.209,0.277l-0.1,0.131l-0.111,0.145l-0.212,0.275l-0.212,0.274l-0.214,0.274l-0.215,0.272l-0.216,0.272l-0.218,0.27l-0.218,0.27l-0.22,0.268l-0.221,0.268l-0.221,0.266l-0.224,0.266l-0.224,0.265l-0.225,0.264l-0.227,0.262l-0.228,0.262l-0.229,0.261l-0.23,0.26l-0.232,0.258l-0.233,0.258l-0.234,0.257l-0.235,0.256l-0.237,0.254l-0.238,0.254l-0.239,0.252l-0.24,0.252l-0.242,0.25l-0.243,0.25l-0.244,0.248l-0.246,0.247l-0.247,0.247l-0.248,0.245l-0.25,0.244l-0.251,0.243l-0.252,0.241l-0.254,0.241l-0.255,0.24l-0.256,0.238l-0.258,0.237l-0.259,0.237l-0.261,0.235l-0.262,0.234l-0.263,0.232l-0.265,0.232l-0.266,0.231l-0.267,0.229l-0.27,0.228l-0.27,0.227l-0.272,0.226l-0.273,0.224l-0.275,0.224l-0.276,0.222l-0.278,0.221l-0.28,0.219l-0.28,0.219l-0.283,0.217l-0.283,0.216l-0.286,0.215l-0.286,0.214l-0.289,0.212l-0.29,0.211l-0.291,0.21l-0.293,0.208l-0.294,0.207l-0.296,0.206l-0.298,0.205l-0.299,0.203l-0.301,0.203l-0.302,0.2l-0.304,0.2l-0.306,0.198l-0.307,0.197l-0.308,0.195l-0.311,0.194l-0.312,0.193l-0.313,0.192l-0.315,0.19l-0.317,0.188l-0.319,0.188l-0.32,0.186l-0.322,0.185l-0.323,0.183l-0.325,0.182l-0.327,0.18l-0.328,0.179l-0.331,0.178l-0.332,0.176l-0.333,0.175l-0.335,0.173l-0.337,0.172l-0.339,0.171l-0.341,0.169l-0.342,0.168l-0.344,0.166l-0.345,0.165l-0.348,0.163l-0.349,0.162l-0.351,0.16l-0.353,0.159l-0.354,0.158l-0.357,0.156l-0.358,0.154l-0.359,0.153l-0.362,0.151l-0.364,0.15l-0.365,0.149l-0.367,0.147l-0.369,0.145l-0.371,0.144l-0.372,0.142l-0.375,0.141l-0.376,0.139l-0.378,0.138l-0.38,0.136l-0.382,0.134l-0.384,0.133l-0.386,0.132l-0.387,0.13l-0.39,0.128l-0.391,0.126l-0.393,0.126l-0.396,0.123l-0.397,0.122l-0.399,0.12l-0.401,0.119l-0.402,0.117l-0.248,0.07l-0.157,0.045l-0.407,0.114l-0.409,0.111l-0.411,0.111l-0.413,0.108l-0.414,0.107l-0.417,0.105l-0.419,0.104l-0.42,0.102l-0.423,0.1l-0.425,0.099l-0.426,0.097l-0.429,0.095l-0.431,0.094l-0.433,0.091l-0.434,0.091l-0.437,0.088l-0.439,0.087l-0.441,0.085l-0.443,0.083l-0.445,0.082l-0.448,0.08l-0.449,0.078l-0.451,0.076l-0.454,0.075l-0.455,0.073l-0.458,0.071l-0.46,0.069l-0.462,0.068l-0.464,0.066l-0.466,0.064l-0.468,0.062l-0.471,0.061l-0.472,0.059l-0.475,0.057l-0.477,0.055l-0.479,0.053l-0.482,0.052l-0.483,0.05l-0.486,0.048l-0.488,0.046l-0.49,0.044l-0.492,0.043l-0.495,0.041l-0.497,0.039l-0.499,0.037l-0.501,0.035l-0.504,0.033l-0.506,0.032l-0.508,0.029l-0.51,0.028l-0.513,0.026l-0.515,0.024l-0.517,0.022l-0.52,0.02l-0.521,0.019l-0.525,0.016l-0.112,0.003l-0.414,0.012l-0.529,0.012l-0.531,0.01l-0.534,0.009l-0.536,0.006l-0.538,0.005l-0.54,0.003l-0.543,0l-0.546,-0.001l-0.547,-0.003l-0.55,-0.005l-0.553,-0.007l-0.555,-0.009l-0.557,-0.011l-0.56,-0.013l-0.562,-0.014l-0.565,-0.017l-0.287,-0.01l-0.287,-0.011l-0.286,-0.012l-0.285,-0.013l-0.285,-0.014l-0.283,-0.015l-0.283,-0.017l-0.282,-0.018l-0.28,-0.018l-0.28,-0.02l-0.28,-0.021l-0.278,-0.022l-0.278,-0.024l-0.276,-0.024l-0.276,-0.025l-0.275,-0.027l-0.274,-0.028l-0.273,-0.028l-0.273,-0.03l-0.271,-0.031l-0.271,-0.032l-0.27,-0.033l-0.269,-0.034l-0.268,-0.035l-0.268,-0.036l-0.266,-0.037l-0.266,-0.039l-0.265,-0.039l-0.264,-0.04l-0.263,-0.042l-0.263,-0.042l-0.261,-0.044l-0.261,-0.044l-0.26,-0.046l-0.259,-0.046l-0.258,-0.048l-0.258,-0.048l-0.256,-0.05l-0.256,-0.05l-0.255,-0.052l-0.254,-0.052l-0.253,-0.054l-0.253,-0.054l-0.251,-0.055l-0.251,-0.057l-0.25,-0.057l-0.249,-0.059l-0.249,-0.059l-0.247,-0.06l-0.247,-0.061l-0.246,-0.062l-0.245,-0.063l-0.244,-0.064l-0.244,-0.065l-0.242,-0.066l-0.242,-0.067l-0.241,-0.068l-0.24,-0.068l-0.24,-0.07l-0.238,-0.07l-0.238,-0.071l-0.237,-0.073l-0.068,-0.021l-0.168,-0.052l-0.235,-0.074l-0.235,-0.075l-0.233,-0.076l-0.233,-0.077l-0.232,-0.078l-0.231,-0.079l-0.231,-0.079l-0.229,-0.08l-0.229,-0.082l-0.228,-0.082l-0.227,-0.082l-0.226,-0.084l-0.226,-0.085l-0.225,-0.085l-0.224,-0.086l-0.223,-0.087l-0.222,-0.088l-0.222,-0.088l-0.22,-0.09l-0.22,-0.09l-0.219,-0.091l-0.219,-0.092l-0.217,-0.092l-0.217,-0.093l-0.216,-0.094l-0.215,-0.095l-0.215,-0.096l-0.213,-0.096l-0.213,-0.097l-0.212,-0.098l-0.211,-0.099l-0.211,-0.099l-0.209,-0.1l-0.209,-0.101l-0.208,-0.101l-0.208,-0.103l-0.206,-0.103l-0.206,-0.103l-0.205,-0.105l-0.204,-0.105l-0.204,-0.105l-0.202,-0.107l-0.202,-0.107l-0.201,-0.108l-0.201,-0.108l-0.199,-0.109l-0.199,-0.11l-0.198,-0.111l-0.197,-0.111l-0.197,-0.111l-0.195,-0.113l-0.195,-0.113l-0.194,-0.114l-0.194,-0.114l-0.192,-0.115l-0.192,-0.115l-0.191,-0.117l-0.191,-0.116l-0.189,-0.118l-0.189,-0.118l-0.188,-0.119l-0.188,-0.119l-0.186,-0.119l-0.186,-0.121l-0.185,-0.121l-0.184,-0.121l-0.184,-0.122l-0.183,-0.123l-0.182,-0.123l-0.181,-0.124l-0.18,-0.124l-0.18,-0.125l-0.179,-0.126l-0.179,-0.126l-0.177,-0.126l-0.177,-0.127l-0.176,-0.127l-0.175,-0.128l-0.175,-0.129l-0.174,-0.129l-0.173,-0.13l-0.172,-0.13l-0.172,-0.13l-0.171,-0.131l-0.17,-0.132l-0.17,-0.132l-0.168,-0.132l-0.168,-0.133l-0.168,-0.133l-0.166,-0.134l-0.166,-0.134l-0.165,-0.135l-0.165,-0.135l-0.163,-0.136l-0.163,-0.136l-0.163,-0.136l-0.163,-0.138l-0.126,-0.109l-0.193,-0.165l-0.317,-0.278l-0.315,-0.278l-0.312,-0.281l-0.309,-0.281l-0.306,-0.284l-0.304,-0.285l-0.3,-0.286l-0.298,-0.287l-0.295,-0.289l-0.293,-0.29l-0.29,-0.291l-0.286,-0.293l-0.285,-0.294l-0.281,-0.294l-0.279,-0.296l-0.276,-0.297l-0.274,-0.298l-0.27,-0.299l-0.269,-0.3l-0.265,-0.301l-0.263,-0.301l-0.046,-0.053l-0.214,-0.25l-0.257,-0.304l-0.254,-0.305l-0.252,-0.305l-0.249,-0.306l-0.247,-0.307l-0.244,-0.307l-0.241,-0.308l-0.24,-0.308l-0.236,-0.309l-0.234,-0.309l-0.232,-0.309l-0.229,-0.31l-0.227,-0.311l-0.224,-0.31l-0.222,-0.311l-0.219,-0.311l-0.217,-0.311l-0.04,-0.059l-0.173,-0.254l-0.21,-0.313l-0.208,-0.313l-0.206,-0.313l-0.203,-0.313l-0.2,-0.313l-0.199,-0.312l-0.196,-0.313l-0.009,-0.014l-0.182,-0.3l-0.189,-0.314l-0.187,-0.314l-0.185,-0.313l-0.182,-0.313l-0.18,-0.313l-0.177,-0.312l-0.174,-0.308l-0.002,-0.004l-0.17,-0.313l-0.168,-0.313l-0.165,-0.312l-0.163,-0.311l-0.162,-0.311l-0.159,-0.31l-0.157,-0.31l-0.155,-0.308l-0.153,-0.308l-0.15,-0.307l-0.149,-0.306l-0.146,-0.306l-0.145,-0.304l-0.143,-0.303l-0.14,-0.303l-0.139,-0.301l-0.009,-0.021l-0.122,-0.282l-0.129,-0.302l-0.128,-0.3l-0.125,-0.299l-0.124,-0.298l-0.121,-0.297l-0.12,-0.295l-0.118,-0.294l-0.116,-0.293l-0.114,-0.291l-0.112,-0.29l-0.11,-0.288l-0.109,-0.287l-0.107,-0.285l-0.105,-0.284l-0.103,-0.281l-0.102,-0.281l-0.1,-0.278l-0.098,-0.277l-0.096,-0.275l-0.095,-0.273l-0.093,-0.272l-0.091,-0.269l-0.09,-0.268l-0.088,-0.265l-0.087,-0.264l-0.085,-0.262l-0.083,-0.259l-0.082,-0.258l-0.08,-0.255l-0.078,-0.254l-0.077,-0.251l-0.052,-0.17l-0.022,-0.079l-0.07,-0.248l-0.068,-0.246l-0.067,-0.245l-0.128,-0.479l-0.123,-0.47l-0.118,-0.46l-0.112,-0.45l-0.107,-0.439l-0.101,-0.428l-0.097,-0.417l-0.092,-0.406l-0.087,-0.394l-0.082,-0.382l-0.078,-0.369l-0.073,-0.358l-0.069,-0.344l-0.064,-0.331l-0.049,-0.258l-0.01,-0.061l-0.053,-0.305l-0.048,-0.292l-0.045,-0.277l-0.041,-0.263l-0.038,-0.248l-0.035,-0.234l-0.031,-0.217l-0.028,-0.203l-0.026,-0.188l-0.042,-0.323l-0.031,-0.258l-0.022,-0.188l0,-0.003l-0.015,-0.152l1.006,-1.446l1.446,1.006Z" style="fill:#a0a0a0;"/><g><path d="M237.316,188.053l-26.77,3.073l10.875,-26.6" style="fill:#ffae51;"/><path d="M222.344,164.903l-0.085,0.225l-2.205,5.79l-5.322,13.929l-1.6,4.165l1.945,-0.262l7.016,-0.919l2.812,-0.355l2.213,-0.265l0.93,-0.097l0.917,-0.075l1.772,-0.098l3.134,-0.032l2.279,0.082l1.003,0.068l0.05,0.004l1.104,0.877l-0.877,1.103l-0.048,0.016l-0.961,0.293l-2.201,0.596l-3.06,0.679l-1.748,0.307l-0.91,0.134l-0.928,0.117l-2.215,0.243l-2.82,0.291l-7.041,0.694l-4.753,0.452l-0.301,0.001l-0.296,-0.051l-0.281,-0.101l-0.259,-0.146l-0.229,-0.189l-0.192,-0.223l-0.15,-0.253l-0.104,-0.273l-0.053,-0.275l-0.002,-0.011l-0.005,-0.289l0.046,-0.285l0.093,-0.271l2.946,-6.786l5.961,-13.668l2.483,-5.676l0.097,-0.22l1.302,-0.551l0.543,1.305Z"/><path d="M215.008,180.338l4.659,9.153l-8.961,1.129l4.302,-10.282Z"/><path d="M221.984,163.886c0.024,3.197 2.238,4.144 5.009,4.396c-0.609,3.677 0.88,6.027 5.122,7.751c-0.261,3.687 0.661,8.54 4.809,11.127l119.885,-103.095l-17.94,-21.674l-116.885,101.495Z" style="fill:#008fd7;"/><clipPath id="_clip1"><path d="M221.984,163.886c0.024,3.197 2.238,4.144 5.009,4.396c-0.609,3.677 0.88,6.027 5.122,7.751c-0.261,3.687 0.661,8.54 4.809,11.127l119.885,-103.095l-17.94,-21.674l-116.885,101.495Z"/></clipPath><g clip-path="url(#_clip1)"><path d="M344.099,67.307l-0.09,1.23l-0.089,0.087l-1.777,1.745l-4.095,3.928l-5.747,5.335l-3.311,2.979l-1.734,1.53l-1.773,1.543l-4.247,3.652l-5.413,4.634l-13.528,11.543l-15.808,13.456l-16.498,14.024l-28.708,24.376l-11.932,10.123l-0.464,0.393l-1.234,-0.087l0.095,-1.234l0.457,-0.401l11.759,-10.322l28.314,-24.833l16.287,-14.268l15.624,-13.669l13.399,-11.694l5.376,-4.676l4.234,-3.667l1.785,-1.529l1.768,-1.491l3.432,-2.84l6.118,-4.904l4.485,-3.476l1.986,-1.503l0.099,-0.075l1.23,0.091Z"/><path d="M350.585,74.866l-0.1,1.23l-0.09,0.087l-1.812,1.751l-4.175,3.942l-5.855,5.353l-3.373,2.989l-1.766,1.536l-1.806,1.547l-4.323,3.664l-5.511,4.65l-13.772,11.581l-16.091,13.5l-16.795,14.07l-29.223,24.456l-12.145,10.156l-0.472,0.394l-1.234,-0.096l0.104,-1.233l0.465,-0.402l11.974,-10.357l28.833,-24.915l16.585,-14.316l15.91,-13.714l13.643,-11.733l5.474,-4.692l4.311,-3.679l1.817,-1.534l1.799,-1.496l3.493,-2.849l6.224,-4.919l4.561,-3.487l2.019,-1.508l0.101,-0.075l1.23,0.099Z"/></g><path d="M220.808,163.477l0.088,-0.197l0.121,-0.179l0.15,-0.156l1.135,-0.995l29.221,-25.623l70.348,-61.657l15.712,-13.761l0.25,-0.187l0.278,-0.145l0.297,-0.1l0.309,-0.051l0.314,-0.001l0.311,0.05l0,-0.001l0.299,0.097l0.28,0.144l0.254,0.187l0.222,0.225l18.019,21.608l0.206,0.294l0.153,0.326l0.095,0.348l0.034,0.359l-0.03,0.359l0.002,0l-0.09,0.351l-0.149,0.329l-0.138,0.205l-0.065,0.095l-0.252,0.261l-38.854,33.673l-33.757,29.217l-13.537,11.693l-10.651,9.179l-4.483,3.837l-4.425,3.757l-8.563,7.19l-5.574,4.596l-0.281,0.2l-0.309,0.151l-0.328,0.101l-0.339,0.047l-0.341,-0.007l-0.335,-0.061l-0.321,-0.113l-0.298,-0.161l0,-0.001l-0.106,-0.069l-0.115,-0.077l-0.113,-0.079l-0.112,-0.079l-0.111,-0.08l-0.11,-0.082l-0.108,-0.082l-0.107,-0.083l-0.105,-0.084l-0.104,-0.085l-0.103,-0.086l-0.101,-0.087l-0.1,-0.088l-0.098,-0.088l-0.098,-0.09l-0.096,-0.09l-0.094,-0.091l-0.093,-0.092l-0.092,-0.092l-0.09,-0.093l-0.09,-0.094l-0.087,-0.095l-0.087,-0.095l-0.085,-0.096l-0.084,-0.097l-0.082,-0.097l-0.081,-0.098l-0.08,-0.099l-0.079,-0.099l-0.077,-0.1l-0.076,-0.1l-0.074,-0.101l-0.074,-0.101l-0.072,-0.102l-0.07,-0.102l-0.07,-0.103l-0.068,-0.103l-0.067,-0.103l-0.066,-0.104l-0.064,-0.105l-0.064,-0.104l-0.062,-0.106l-0.061,-0.105l-0.059,-0.106l-0.059,-0.106l-0.057,-0.107l-0.056,-0.107l-0.055,-0.107l-0.054,-0.107l-0.053,-0.108l-0.051,-0.107l-0.051,-0.109l-0.049,-0.108l-0.048,-0.108l-0.047,-0.109l-0.046,-0.109l-0.045,-0.109l-0.044,-0.109l-0.043,-0.109l-0.042,-0.11l-0.04,-0.11l-0.04,-0.109l-0.039,-0.11l-0.038,-0.11l-0.036,-0.11l-0.036,-0.11l-0.035,-0.11l-0.033,-0.11l-0.033,-0.11l-0.032,-0.11l-0.031,-0.111l-0.03,-0.11l-0.029,-0.11l-0.029,-0.114l-0.053,-0.216l-0.05,-0.22l-0.046,-0.22l-0.044,-0.219l-0.04,-0.219l-0.036,-0.219l-0.034,-0.218l-0.03,-0.217l-0.028,-0.217l-0.024,-0.216l-0.022,-0.215l-0.018,-0.214l-0.017,-0.213l-0.006,-0.103l-0.006,-0.11l-0.009,-0.211l-0.006,-0.21l-0.004,-0.209l-0.001,-0.207l0.001,-0.206l0.003,-0.205l0.004,-0.144l-0.008,-0.004l-0.193,-0.104l-0.189,-0.105l-0.185,-0.107l-0.183,-0.108l-0.178,-0.111l-0.176,-0.112l-0.169,-0.112l-0.087,-0.059l-0.084,-0.059l-0.083,-0.058l-0.082,-0.059l-0.082,-0.06l-0.08,-0.06l-0.08,-0.061l-0.078,-0.061l-0.078,-0.062l-0.077,-0.062l-0.076,-0.063l-0.075,-0.064l-0.075,-0.064l-0.073,-0.064l-0.073,-0.065l-0.071,-0.066l-0.071,-0.066l-0.07,-0.067l-0.068,-0.067l-0.068,-0.068l-0.067,-0.069l-0.066,-0.069l-0.065,-0.07l-0.064,-0.07l-0.063,-0.071l-0.062,-0.072l-0.062,-0.072l-0.06,-0.073l-0.059,-0.073l-0.058,-0.074l-0.057,-0.074l-0.056,-0.076l-0.055,-0.075l-0.054,-0.077l-0.053,-0.077l-0.051,-0.077l-0.051,-0.078l-0.05,-0.079l-0.048,-0.079l-0.048,-0.08l-0.046,-0.08l-0.045,-0.081l-0.044,-0.081l-0.043,-0.082l-0.041,-0.082l-0.041,-0.083l-0.039,-0.083l-0.039,-0.084l-0.037,-0.084l-0.036,-0.085l-0.034,-0.085l-0.034,-0.086l-0.032,-0.086l-0.031,-0.086l-0.03,-0.087l-0.029,-0.087l-0.028,-0.087l-0.026,-0.088l-0.026,-0.088l-0.024,-0.088l-0.023,-0.089l-0.021,-0.089l-0.021,-0.09l-0.019,-0.089l-0.019,-0.09l-0.017,-0.09l-0.016,-0.091l-0.015,-0.09l-0.014,-0.091l-0.012,-0.091l-0.012,-0.092l-0.01,-0.091l-0.01,-0.092l-0.008,-0.092l-0.007,-0.092l-0.006,-0.093l-0.005,-0.092l-0.004,-0.093l-0.003,-0.093l-0.002,-0.093l-0.001,-0.093l0,-0.094l0.001,-0.093l0.002,-0.094l0.003,-0.094l0.004,-0.094l0.002,-0.042l-0.127,-0.032l-0.136,-0.036l-0.136,-0.039l-0.134,-0.04l-0.135,-0.043l-0.133,-0.044l-0.133,-0.047l-0.131,-0.049l-0.131,-0.052l-0.13,-0.054l-0.129,-0.057l-0.128,-0.059l-0.127,-0.062l-0.125,-0.065l-0.124,-0.068l-0.123,-0.071l-0.122,-0.074l-0.119,-0.077l-0.119,-0.08l-0.116,-0.084l-0.114,-0.087l-0.109,-0.087l-0.059,-0.05l-0.054,-0.047l-0.055,-0.049l-0.053,-0.049l-0.053,-0.05l-0.052,-0.051l-0.052,-0.051l-0.051,-0.053l-0.05,-0.054l-0.049,-0.054l-0.049,-0.055l-0.048,-0.056l-0.047,-0.057l-0.046,-0.058l-0.046,-0.059l-0.044,-0.06l-0.044,-0.06l-0.043,-0.061l-0.042,-0.062l-0.041,-0.063l-0.04,-0.064l-0.039,-0.064l-0.039,-0.065l-0.037,-0.066l-0.036,-0.067l-0.035,-0.067l-0.035,-0.068l-0.033,-0.069l-0.032,-0.07l-0.032,-0.07l-0.03,-0.071l-0.029,-0.071l-0.028,-0.072l-0.027,-0.073l-0.026,-0.073l-0.025,-0.075l-0.024,-0.074l-0.023,-0.075l-0.022,-0.076l-0.021,-0.077l-0.019,-0.076l-0.019,-0.078l-0.018,-0.078l-0.016,-0.079l-0.016,-0.079l-0.014,-0.079l-0.014,-0.081l-0.012,-0.08l-0.012,-0.082l-0.01,-0.081l-0.009,-0.083l-0.009,-0.082l-0.007,-0.084l-0.006,-0.084l-0.005,-0.084l-0.005,-0.085l-0.003,-0.085l-0.002,-0.075l0,-0.011l-0.001,-0.087l0,-0.087l0.001,-0.088l0.002,-0.081l0.016,-0.216l0.053,-0.209Zm100.642,-83.48l-68.818,59.186l-28.714,24.684l-0.63,0.541l0.005,0.029l0.009,0.051l0.01,0.049l0.01,0.048l0.01,0.047l0.011,0.046l0.011,0.046l0.012,0.044l0.013,0.043l0.012,0.042l0.013,0.042l0.013,0.04l0.014,0.04l0.014,0.038l0.015,0.038l0.014,0.037l0.015,0.036l0.016,0.036l0.015,0.034l0.016,0.034l0.017,0.033l0.016,0.032l0.017,0.032l0.017,0.03l0.017,0.03l0.018,0.03l0.018,0.029l0.018,0.028l0.018,0.028l0.019,0.027l0.019,0.026l0.019,0.026l0.02,0.026l0.019,0.025l0.02,0.025l0.021,0.024l0.02,0.023l0.021,0.024l0.022,0.023l0.021,0.022l0.022,0.022l0.023,0.022l0.022,0.022l0.023,0.021l0.024,0.021l0.023,0.02l0.025,0.021l0.024,0.02l0.025,0.019l0.026,0.02l0.026,0.019l0.026,0.019l0.023,0.016l0.059,0.04l0.057,0.036l0.059,0.035l0.061,0.034l0.063,0.034l0.065,0.032l0.067,0.032l0.07,0.031l0.072,0.03l0.074,0.029l0.076,0.028l0.078,0.027l0.081,0.027l0.083,0.025l0.085,0.024l0.087,0.024l0.09,0.022l0.091,0.021l0.093,0.02l0.096,0.02l0.097,0.018l0.099,0.017l0.101,0.016l0.103,0.015l0.011,0.002l0.094,0.013l0.106,0.014l0.108,0.013l0.109,0.011l0.111,0.011l0.113,0.01l0.114,0.009l0.116,0.008l0.123,0.009l0.244,0.043l0.233,0.082l0.218,0.12l0.195,0.153l0.167,0.183l0.136,0.207l0.1,0.227l0.062,0.24l0.022,0.247l-0.018,0.247l-0.021,0.16l-0.015,0.146l-0.013,0.142l-0.01,0.139l-0.007,0.14l-0.002,0.064l-0.002,0.067l-0.001,0.065l-0.001,0.065l0,0.064l0.001,0.064l0.001,0.062l0.002,0.062l0.003,0.062l0.003,0.06l0.004,0.06l0.004,0.059l0.005,0.058l0.006,0.058l0.006,0.057l0.007,0.057l0.007,0.055l0.008,0.055l0.009,0.054l0.009,0.054l0.009,0.053l0.011,0.053l0.01,0.051l0.012,0.051l0.011,0.051l0.013,0.05l0.013,0.049l0.013,0.049l0.014,0.048l0.014,0.048l0.015,0.047l0.016,0.047l0.016,0.046l0.017,0.046l0.017,0.045l0.017,0.045l0.018,0.045l0.019,0.044l0.019,0.043l0.02,0.043l0.02,0.043l0.021,0.043l0.022,0.042l0.022,0.042l0.022,0.041l0.023,0.042l0.024,0.041l0.024,0.041l0.025,0.04l0.026,0.04l0.026,0.04l0.027,0.04l0.027,0.04l0.028,0.04l0.029,0.039l0.029,0.039l0.031,0.039l0.03,0.039l0.032,0.039l0.032,0.039l0.033,0.039l0.034,0.038l0.035,0.039l0.035,0.038l0.037,0.038l0.037,0.039l0.037,0.038l0.039,0.038l0.04,0.038l0.04,0.038l0.041,0.038l0.043,0.038l0.043,0.038l0.044,0.037l0.045,0.038l0.046,0.038l0.046,0.037l0.048,0.038l0.049,0.038l0.05,0.037l0.05,0.038l0.052,0.037l0.053,0.037l0.053,0.037l0.055,0.038l0.056,0.037l0.057,0.037l0.057,0.037l0.059,0.037l0.06,0.037l0.061,0.036l0.059,0.035l0.13,0.075l0.132,0.073l0.136,0.072l0.14,0.072l0.144,0.072l0.149,0.071l0.154,0.071l0.158,0.07l0.162,0.069l0.167,0.069l0.171,0.069l0.176,0.068l0.189,0.072l0.255,0.129l0.231,0.166l0.203,0.201l0.169,0.229l0.132,0.254l0.091,0.27l0.048,0.281l0.004,0.286l-0.006,0.164l-0.003,0.156l-0.002,0.157l0.001,0.158l0.002,0.16l0.003,0.16l0.006,0.161l0.008,0.162l0.009,0.163l0.011,0.164l0.014,0.164l0.015,0.164l0.017,0.165l0.01,0.085l0.009,0.08l0.019,0.166l0.022,0.165l0.024,0.166l0.026,0.165l0.028,0.166l0.031,0.165l0.032,0.164l0.035,0.164l0.037,0.164l0.04,0.163l0.042,0.163l0.044,0.161l0.048,0.165l0.023,0.076l0.025,0.08l0.025,0.08l0.026,0.079l0.027,0.079l0.027,0.079l0.028,0.078l0.028,0.078l0.029,0.078l0.03,0.078l0.03,0.077l0.031,0.077l0.032,0.076l0.032,0.076l0.033,0.076l0.033,0.075l0.034,0.075l0.035,0.075l0.035,0.074l0.036,0.074l0.037,0.074l0.037,0.073l0.038,0.072l0.038,0.072l0.039,0.072l0.04,0.071l0.04,0.071l0.041,0.071l0.042,0.07l0.042,0.069l0.043,0.069l0.044,0.069l0.045,0.068l0.045,0.067l0.045,0.067l0.047,0.067l0.047,0.066l0.047,0.066l0.049,0.065l0.049,0.064l0.05,0.064l0.05,0.064l0.051,0.063l0.052,0.062l0.053,0.062l0.053,0.062l0.054,0.061l0.055,0.06l0.056,0.06l0.056,0.06l0.057,0.058l0.058,0.059l0.058,0.057l0.059,0.058l0.061,0.056l0.017,0.016l5.268,-4.689l8.034,-7.083l4.19,-3.652l4.277,-3.695l10.228,-8.777l13.035,-11.157l32.61,-27.855l0.231,0.066l37.958,-32.641l0.008,0.001l1.28,-1.099l0.17,0.014l-15.415,-18.626l0.001,-0.015l-17.189,14.807Z"/></g></svg>